<?xml version="1.0" encoding="iso-8859-1"?>
<!-- Generator: Adobe Illustrator 18.0.0, SVG Export Plug-In . SVG Version: 6.00 Build 0)  -->
<!DOCTYPE svg PUBLIC "-//W3C//DTD SVG 1.1//EN" "http://www.w3.org/Graphics/SVG/1.1/DTD/svg11.dtd">
<svg version="1.1" id="Capa_1" xmlns="http://www.w3.org/2000/svg" xmlns:xlink="http://www.w3.org/1999/xlink" x="0px" y="0px"
	 viewBox="0 0 50.518 50.518" style="enable-background:new 0 0 50.518 50.518;" xml:space="preserve">
<g>
	<path style="fill:#1D1D1B;" d="M10.766,16.578c-0.086-0.166-0.229-0.279-0.39-0.365c0.004-0.003,0.008-0.006,0.012-0.009
		c0.113-0.119,0.127-0.154,0.163-0.312c0.034-0.15-0.155-0.222-0.241-0.102c-0.063,0.089-0.176,0.184-0.293,0.286
		c-0.111-0.025-0.224-0.042-0.331-0.048c-0.12-0.007-0.113,0.168,0,0.183c0.053,0.007,0.097,0.024,0.144,0.036
		c-0.18,0.179-0.31,0.379-0.198,0.608c0.105,0.215,0.377,0.266,0.541,0.107c0.088-0.085-0.041-0.207-0.132-0.132
		c-0.048-0.209,0.011-0.347,0.134-0.442c0.154,0.093,0.295,0.208,0.459,0.323C10.719,16.769,10.807,16.657,10.766,16.578z"/>
	<path style="fill:#1D1D1B;" d="M38.616,15.067c-0.107-0.215-0.284-0.369-0.489-0.481c0.089-0.066,0.183-0.128,0.288-0.188
		c0.136-0.077,0.043-0.323-0.11-0.26c-0.189,0.078-0.344,0.192-0.478,0.326c-0.157-0.048-0.318-0.082-0.477-0.088
		c-0.106-0.004-0.101,0.151,0,0.162c0.129,0.014,0.242,0.042,0.344,0.08c-0.11,0.144-0.203,0.303-0.269,0.484
		c-0.041,0.112,0.14,0.188,0.193,0.081c0.089-0.178,0.195-0.318,0.321-0.44c0.182,0.115,0.339,0.269,0.516,0.448
		C38.541,15.276,38.667,15.168,38.616,15.067z"/>
	<path style="fill:#1D1D1B;" d="M13.813,15.746c-0.358,0.357-0.99,0.307-1.221-0.166c-0.054-0.111-0.212-0.014-0.164,0.096
		c0.266,0.611,1.143,0.737,1.531,0.183C14.022,15.77,13.887,15.673,13.813,15.746z"/>
	<path style="fill:#1D1D1B;" d="M13.895,16.565c-0.249,0.37-0.976,0.345-0.883-0.282c0.016-0.107-0.134-0.155-0.166-0.046
		c-0.24,0.829,0.973,1.241,1.213,0.397C14.088,16.533,13.95,16.483,13.895,16.565z"/>
	<path style="fill:#1D1D1B;" d="M15.736,16.852c-0.325,0.313-0.877,0.167-0.764-0.358c0.03-0.138-0.162-0.189-0.21-0.058
		c-0.278,0.761,0.793,1.31,1.181,0.576C16.012,16.881,15.846,16.746,15.736,16.852z"/>
	<path style="fill:#1D1D1B;" d="M34.828,11.707c-2.203,0.644-2.865,3.399-1.18,4.954c0.052,0.048,0.123-0.024,0.077-0.077
		c-1.409-1.614-0.849-3.894,1.168-4.64C35.039,11.89,34.983,11.662,34.828,11.707z"/>
	<path style="fill:#1D1D1B;" d="M34.871,13.423c-0.068-0.047-0.155,0.063-0.09,0.116c0.126,0.101,0.211,0.208,0.269,0.329
		c-0.04-0.013-0.086-0.006-0.11,0.042c-0.127,0.356-0.429,0.314-0.906-0.125c-0.007-0.094-0.145-0.096-0.148,0
		c-0.017,0.758,0.995,0.968,1.219,0.242c0.022,0.083,0.039,0.17,0.046,0.268c0.009,0.123,0.189,0.126,0.193,0
		C35.357,13.921,35.172,13.631,34.871,13.423z"/>
	<path style="fill:#1D1D1B;" d="M35.501,15.203c-0.307,0.587-1.168,0.492-1.14-0.259c0.004-0.111-0.156-0.105-0.169,0
		c-0.123,0.984,1.247,1.317,1.556,0.363C35.795,15.163,35.572,15.067,35.501,15.203z"/>
	<path style="fill:#1D1D1B;" d="M27.019,17.355c-0.234-0.029-0.443,0.06-0.625,0.195c-0.184-0.061-0.385-0.085-0.577-0.054
		c-0.122,0.02-0.095,0.226,0.03,0.218c0.125-0.009,0.23,0.013,0.327,0.046c-0.126,0.152-0.233,0.32-0.291,0.493
		c-0.051,0.154,0.185,0.214,0.241,0.066c0.073-0.192,0.179-0.317,0.303-0.418c0.112,0.088,0.214,0.196,0.315,0.319
		c0.083,0.103,0.241-0.01,0.212-0.123c-0.041-0.16-0.135-0.277-0.247-0.373c0.107-0.051,0.219-0.098,0.342-0.147
		C27.172,17.53,27.149,17.371,27.019,17.355z"/>
	<path style="fill:#1D1D1B;" d="M23.266,13.544c-0.072-0.077-0.18,0.036-0.114,0.114c0.067,0.08,0.112,0.161,0.16,0.241
		c-0.373,0.248-0.913,0.217-1.035-0.298c-0.023-0.098-0.168-0.056-0.149,0.041c0.107,0.557,0.875,0.868,1.285,0.454
		c0.131,0.314,0.159,0.644,0.159,1.026c0,0.116,0.174,0.142,0.204,0.028C23.927,14.574,23.656,13.963,23.266,13.544z"/>
	<path style="fill:#1D1D1B;" d="M23.401,15.552c-0.163-0.086-0.334-0.102-0.497-0.178c-0.149,0.007-0.242-0.066-0.279-0.219
		c-0.007-0.176,0.039-0.338,0.137-0.485c0.067-0.119-0.107-0.218-0.182-0.107c-0.194,0.288-0.242,0.573-0.172,0.911
		c0.01,0.048,0.053,0.084,0.097,0.097c0.277,0.084,0.548,0.179,0.839,0.186C23.454,15.762,23.499,15.604,23.401,15.552z"/>
	<path style="fill:#1D1D1B;" d="M24.432,15.435c-0.024-0.102-0.195-0.083-0.186,0.025c0.011,0.137,0.004,0.266-0.011,0.393
		c-0.071-0.026-0.173,0.013-0.17,0.105c0.006,0.155,0.011,0.31,0.012,0.465c0.001,0.176,0.241,0.197,0.297,0.04
		C24.497,16.117,24.517,15.794,24.432,15.435z"/>
	<path style="fill:#1D1D1B;" d="M50.363,15.375c0.07-2.048-2.364-2.829-4.161-2.851c-0.002-0.136-0.022-0.273-0.079-0.395
		c-0.165-0.354-0.506-0.534-0.867-0.542c0.189-0.871-0.547-1.59-1.361-1.451c0.214-0.799-0.392-1.789-1.153-2.063
		c-1.036-0.373-2.212,0.194-2.687,1.14c-0.167-0.466-0.638-0.848-1.117-0.891c-0.531-0.048-0.994,0.248-1.233,0.681
		c-0.691-0.469-1.618-0.211-2.056,0.443C35.454,9,34.807,8.777,34.357,8.841c-0.481,0.068-0.829,0.374-1.088,0.755
		c-0.312-1.002-1.572-1.801-2.476-1.08c-0.665,0.531-0.736,1.436-0.62,2.219c0.007,0.044,0.023,0.12,0.044,0.204
		c-0.373-0.043-0.778,0.108-1.06,0.417c-0.447-0.851-1.605-0.791-2.053-0.083c-0.236-0.505-0.787-0.915-1.305-0.929
		c-0.902-0.025-1.549,0.84-1.448,1.69c-0.691-0.514-1.482-0.882-2.286-1.029c-0.075-0.084-0.23-0.087-0.29,0.011
		c-0.662-0.704-1.76-0.347-1.984,0.526c-0.299-0.259-0.667-0.347-1.018-0.305c-0.346-0.488-0.331-1.285,0.246-1.597
		c0.582-0.315,1.032,0.02,1.402,0.415c-0.167,0.083-0.328,0.177-0.474,0.286c-0.129,0.097-0.009,0.316,0.129,0.222
		c0.204-0.139,0.41-0.227,0.622-0.295c0.023-0.003,0.042-0.01,0.062-0.022c0.252-0.074,0.513-0.117,0.794-0.156
		c0.164-0.023,0.101-0.25-0.036-0.266c-0.231-0.026-0.458,0.01-0.68,0.073c-0.196-0.613,0.207-1.452,0.922-1.413
		c0.782,0.042,0.908,0.836,0.827,1.439c-0.018,0.135,0.189,0.214,0.273,0.113c0.046-0.055,0.066-0.116,0.097-0.175
		c0.014-0.013,0.02-0.029,0.027-0.048c0.011-0.025,0.032-0.048,0.041-0.074c0.72-0.363,1.13-0.232,1.222,0.403
		c0.074,0.214,0.382,0.177,0.395-0.053c0.042-0.797,0.454-1.629,1.303-1.797c0.974-0.192,1.549,0.493,1.721,1.382
		c0.006,0.032,0.026,0.052,0.046,0.072c-0.315,0.013-0.626,0.056-0.887,0.123c-0.125,0.032-0.095,0.217,0.03,0.221
		c0.337,0.01,0.673-0.007,1.01,0.016c0.335,0.023,0.667,0.115,1.002,0.084c0.117-0.011,0.187-0.175,0.065-0.239
		c-0.191-0.1-0.419-0.148-0.656-0.178c0-0.002,0.001-0.003,0.001-0.004c-0.14-1.012,1.252-1.224,1.483-0.245
		c0.065,0.275,0.453,0.152,0.414-0.114c-0.092-0.622-0.738-1.109-1.368-0.966c-0.414,0.094-0.682,0.416-0.792,0.792
		c-0.1-0.848-1.029-1.499-1.883-1.441c-0.926,0.063-1.558,0.801-1.788,1.641c-0.213-0.332-0.512-0.598-0.934-0.549
		c-0.167,0.02-0.298,0.094-0.409,0.186c-0.201-0.54-0.783-1-1.335-0.958c-0.717,0.055-1.173,0.743-1.138,1.406
		c-0.454-0.432-1.326-0.507-1.805-0.159c-0.632,0.459-0.673,1.354-0.241,1.936c-0.161,0.061-0.314,0.149-0.443,0.279
		c0.136-0.607-0.145-1.328-0.701-1.623c-0.645-0.343-1.391-0.087-1.812,0.443c-0.236-0.396-0.703-0.632-1.163-0.424
		c0.129-1.887-1.998-2.814-3.286-1.578c-0.144-0.424-0.548-0.736-1.047-0.732C9.397,7.668,8.997,8.113,8.744,8.63
		C8.688,8.416,8.658,8.169,8.49,8.027c-0.204-0.174-0.5-0.216-0.756-0.173C7.151,7.949,6.897,8.435,6.772,8.954
		c-0.434-0.459-1.17-0.637-1.71-0.201c-0.59,0.476-0.526,1.348-0.043,1.847c-0.362-0.273-0.912-0.333-1.308-0.139
		c-0.652,0.32-0.847,1.138-0.519,1.755c0.039,0.073,0.12,0.084,0.187,0.061c-0.244,0.325-0.361,0.731-0.368,1.14
		c-1.257,0.118-2.421,0.778-2.998,1.935c-0.038,0.077,0.017,0.158,0.086,0.174c-0.038,0.039-0.065,0.09-0.056,0.156
		c1.605,11.688,10.38,21.03,21.699,23.483c-0.167,0.528-0.335,1.087-0.318,1.622c0.008,0.272,0.381,0.317,0.466,0.063
		c0.167-0.499,0.168-1.075,0.161-1.621c1.178,0.241,2.375,0.433,3.602,0.52c3.196,0.226,6.057-0.226,8.611-1.197
		c0.011,0.082,0.021,0.167,0.045,0.237c0.047,0.138,0.132,0.269,0.192,0.402c0.149,0.333,0.27,0.672,0.387,1.017
		c0.021,0.063,0.06,0.104,0.104,0.134c-0.033,0.007-0.066,0.018-0.1,0.04c-4.15,2.737-8.87,2.041-13.387,0.673
		c-0.216-0.065-0.295,0.255-0.092,0.332c4.579,1.726,9.514,2.352,13.771-0.504c0.197-0.132,0.149-0.384,0.007-0.494
		c0.15-0.02,0.283-0.142,0.221-0.326c-0.11-0.33-0.247-0.653-0.406-0.962c-0.08-0.156-0.161-0.32-0.265-0.462
		c-0.068-0.094-0.137-0.143-0.21-0.196c8.713-3.47,13.757-13.077,15.978-22.752C50.544,15.543,50.468,15.432,50.363,15.375z
		 M46.151,15.254c0.344,0.048,0.665,0.04,0.998,0.166c0.139,0.053,0.236-0.177,0.102-0.241c-0.062-0.029-0.125-0.055-0.189-0.08
		c0.003-0.02,0.012-0.039,0.007-0.062c-0.162-0.711,0.583-0.771,1.042-0.478c0.354,0.226,0.701,0.676,0.524,1.106
		c-5.932,2.781-13.86,3.005-20.735,3.054c-0.197-0.3-0.255-0.76-0.088-0.995c0.305-0.428,0.762-0.256,1.166-0.134
		c-0.054,0.022-0.108,0.044-0.161,0.065c-0.204,0.08-0.125,0.405,0.093,0.336c0.348-0.111,0.71-0.202,1.039-0.362
		c0.193-0.094,0.054-0.38-0.141-0.334c-0.094,0.022-0.185,0.063-0.277,0.094c-0.447-0.434-0.771-1.079-0.455-1.684
		c0.162-0.31,0.484-0.542,0.847-0.477c0.195,0.035,0.328,0.136,0.434,0.266c0.024,0.045,0.044,0.091,0.076,0.132
		c0.008,0.01,0.018,0.01,0.027,0.017c0.052,0.084,0.1,0.172,0.146,0.262c0.059,0.114,0.226,0.077,0.26-0.034
		c0.091-0.293-0.036-0.557-0.238-0.758c0.031-0.241,0.168-0.468,0.411-0.527c0.51-0.125,0.632,0.372,0.708,0.736
		c0.019,0.093,0.11,0.135,0.198,0.131c0.133,0.779,0.486,1.493,1.144,1.912c-0.187-0.012-0.374-0.022-0.548-0.038
		c-0.108-0.01-0.194,0.098-0.197,0.197c-0.009,0.37,0.043,0.68,0.229,1.003c0.093,0.162,0.322,0.02,0.246-0.144
		c-0.097-0.207-0.124-0.412-0.103-0.626c0.395,0.079,0.813,0.172,1.213,0.178c0.063,0.272,0.222,0.492,0.517,0.548
		c0.107,0.02,0.236-0.071,0.192-0.192c-0.163-0.452-0.532-0.793-0.163-1.293c0.371-0.501,1.185-0.318,1.486,0.164
		c0.047,0.076,0.166,0.043,0.175-0.034c0.065,0.001,0.127-0.031,0.146-0.115c0.143-0.655,0.616-1.114,1.335-0.993
		c0.704,0.119,1.208,0.675,1.725,1.12c-0.137,0.062-0.279,0.117-0.394,0.203c-0.125,0.094-0.014,0.302,0.126,0.215
		c0.49-0.302,0.896-0.266,1.44-0.286c0.122-0.005,0.2-0.195,0.068-0.252c-0.24-0.104-0.501-0.108-0.756-0.062
		c0-0.035-0.01-0.071-0.037-0.103c-0.272-0.33-0.332-0.775-0.145-1.143c0.054-0.006,0.104-0.027,0.128-0.082
		c0.025-0.056,0.026-0.112,0.042-0.169c0.003-0.003,0.004-0.008,0.008-0.011c0.491-0.481,1.295-0.311,1.837-0.047
		c0.23,0.112,0.426-0.212,0.202-0.346c-0.281-0.409-0.086-0.613,0.585-0.611c0.182,0.049,0.348,0.13,0.503,0.232
		c0.013,0.023,0.017,0.047,0.032,0.07c0.089,0.136,0.326,0.053,0.273-0.115c-0.131-0.422-0.078-0.81,0.096-1.116
		c0.075-0.002,0.149-0.024,0.195-0.097c0.05-0.08,0.083-0.17,0.119-0.258c0.344-0.275,0.832-0.391,1.359-0.232
		c0.19,0.057,0.357,0.147,0.511,0.252c0.012,0.084,0.094,0.142,0.183,0.14c0.477,0.415,0.764,1.041,0.919,1.659
		c-0.161-0.025-0.325-0.027-0.489,0.023C46.039,15.037,46.015,15.235,46.151,15.254z M36.801,15.651
		c-0.464,0.189-0.906,0.588-0.894,1.073c-0.393-0.438-1.075-0.573-1.584-0.167c-0.217,0.172-0.37,0.539-0.411,0.907
		c-0.06-0.013-0.126-0.014-0.188-0.024c-1.497-0.716-1.594-2.73-1.148-4.116c0.385-1.195,1.189-2.101,2.26-2.704
		c0.43,1.319,0.98,2.566,1.68,3.771c0.033,0.056,0.079,0.083,0.127,0.095C36.524,14.869,36.552,15.294,36.801,15.651z M39.173,14.51
		c0.165,0.273,0.18,0.546,0.219,0.832c-0.243,0.335-0.321,0.788-0.202,1.173c-0.535-0.586-1.238-1.1-2.045-0.967
		c-0.006,0.001-0.012,0.003-0.017,0.004c-0.44-0.722,0.081-1.675,0.981-1.667C38.558,13.889,38.942,14.128,39.173,14.51z
		 M39.093,13.785c0.24-0.323,0.761-0.301,1.086-0.069c0.343,0.245,0.524,0.67,0.677,1.058c-0.349-0.032-0.698,0.006-0.999,0.165
		C39.793,14.481,39.49,14.065,39.093,13.785z M40.776,11.999c0.096-0.824,1.098-1.421,1.849-0.959
		c0.719,0.442,0.758,1.301,0.54,2.022c-0.296,0.344-0.455,0.791-0.362,1.236c-0.12-0.078-0.25-0.138-0.382-0.184
		c0.049-0.031,0.087-0.078,0.082-0.156C42.431,12.849,41.693,12.127,40.776,11.999z M38.952,8.697
		c0.502,0.11,0.685,0.512,0.786,0.95c-0.336,0.001-0.673,0.058-0.935,0.142c-0.155,0.049-0.092,0.283,0.067,0.244
		c0.367-0.089,0.729-0.106,1.1-0.021c0.286,0.066,0.532,0.231,0.818,0.285c0.134,0.025,0.217-0.119,0.13-0.223
		c-0.181-0.217-0.454-0.328-0.75-0.383c0.319-0.896,1.336-1.512,2.283-1.268c0.935,0.241,1.128,1.122,0.93,1.922
		c-0.032,0.022-0.065,0.029-0.097,0.054c-0.091,0.072-0.039,0.194,0.046,0.245c0.036,0.086,0.166,0.123,0.243,0.05
		c0.05-0.047,0.076-0.102,0.116-0.154c0.721-0.295,1.515,0.388,1.094,1.185c-0.084,0.159,0.055,0.354,0.235,0.306
		c0.338-0.09,0.657,0.042,0.743,0.392c0.04,0.161,0.002,0.288-0.061,0.41c-0.381-0.272-0.841-0.429-1.391-0.379
		c-0.173,0.015-0.337,0.068-0.495,0.136c0.076-0.879-0.392-1.842-1.241-2.125c-1.016-0.338-2.189,0.465-2.169,1.521
		c-0.221,0.008-0.445,0.037-0.672,0.114c0.114-0.93-0.904-1.493-1.616-1.067c0.35-0.523,0.217-1.36-0.196-1.833
		C38.139,8.851,38.522,8.603,38.952,8.697z M25.939,10.797c0.555,0.137,0.733,0.568,0.829,1.041
		c-0.199-0.022-0.397-0.035-0.582-0.035c-0.189,0-0.186,0.28,0,0.292c0.246,0.016,0.466,0.07,0.68,0.134
		c0.035,0.035,0.086,0.047,0.138,0.041c0.012,0.008,0.025,0.01,0.039,0.014c0.305,0.103,0.601,0.227,0.933,0.327
		c0.143,0.043,0.262-0.152,0.149-0.256c-0.235-0.213-0.537-0.344-0.858-0.427c0.091-0.91,1.406-1.168,1.631-0.06
		c0.045,0.224,0.338,0.174,0.406,0c0.24-0.617,0.788-0.6,1.176-0.318c0.031,0.037,0.065,0.062,0.101,0.083
		c0.071,0.065,0.136,0.136,0.187,0.217c0.104,0.165,0.386,0.062,0.325-0.137c-0.094-0.305-0.269-0.505-0.476-0.631
		c-0.055-0.269-0.096-0.631-0.099-0.686c-0.011-0.269-0.005-0.54,0.072-0.802c0.137-0.466,0.503-0.956,1.041-0.944
		c0.858,0.02,1.059,0.868,1.332,1.508c-0.037,0.084-0.07,0.168-0.101,0.251c-0.159,0.075-0.312,0.168-0.442,0.281
		c-0.121,0.104,0.042,0.32,0.173,0.224c0.365-0.269,0.71-0.251,1.127-0.329c0.103-0.019,0.127-0.186,0.03-0.231
		c-0.136-0.063-0.274-0.078-0.412-0.073c0.014-0.074,0-0.148,0.001-0.222c0.204-0.342,0.467-0.655,0.844-0.785
		c0.576-0.198,0.969,0.114,1.21,0.602c0.056,0.113,0.17,0.098,0.246,0.033c0.051,0.003,0.102-0.009,0.13-0.062
		c0.302-0.573,1.159-0.899,1.702-0.437c0.031,0.026,0.051,0.054,0.077,0.081C37.54,9.537,37.53,9.579,37.53,9.624
		c-0.002,0.095,0.118,0.133,0.181,0.086c0.23,0.423,0.057,0.907-0.166,1.347c-0.083,0.163,0.076,0.351,0.247,0.28
		c-0.017,0.024-0.032,0.051-0.049,0.077c-0.289-0.138-0.621-0.216-0.889-0.25c-0.128-0.016-0.155,0.197-0.03,0.224
		c0.262,0.057,0.515,0.141,0.744,0.284c0.197,0.124,0.346,0.294,0.557,0.389c0.113,0.051,0.224-0.053,0.168-0.168
		c-0.062-0.129-0.162-0.234-0.28-0.324c0.529-0.582,1.522,0.038,1.299,0.763c-0.048,0.155,0.129,0.269,0.261,0.201
		c0.304-0.158,0.612-0.224,0.905-0.217c0.045,0.033,0.1,0.038,0.155,0.022c0.776,0.094,1.408,0.717,1.467,1.618
		c0.003,0.04,0.027,0.063,0.045,0.09c-0.217-0.016-0.43,0.048-0.611,0.248c-0.147,0.164-0.209,0.368-0.197,0.564
		c-0.003-0.001-0.006-0.001-0.009-0.002c0.002-0.028,0.017-0.051,0.004-0.084c-0.247-0.639-0.613-1.522-1.398-1.617
		c-0.417-0.05-0.844,0.154-1.036,0.51c-0.332-0.184-0.707-0.277-1.062-0.222c-0.433,0.067-0.775,0.314-0.997,0.634
		c-0.695-1.234-1.244-2.515-1.653-3.874c-0.046-0.153-0.206-0.206-0.343-0.139c-1.597,0.777-2.731,2.297-2.934,4.081
		c-0.01,0.09-0.013,0.181-0.018,0.273c-0.244-0.25-0.609-0.398-0.939-0.317c-0.379,0.094-0.621,0.408-0.689,0.757
		c-0.012-0.005-0.022-0.014-0.034-0.019c-0.446-0.178-0.927-0.066-1.27,0.267c-0.575,0.557-0.524,1.29-0.168,1.881
		c-0.35-0.127-0.803-0.02-1.125,0.205c-0.221-0.411-0.637-0.697-1.092-0.814c0.119-1.607-0.74-3.137-1.989-4.165
		c0.029-0.031,0.05-0.069,0.043-0.121C24.534,11.385,25.189,10.611,25.939,10.797z M24.962,17.69
		c0.149-0.443,0.482-0.832,0.942-0.942c0.14-0.033,0.271-0.03,0.399-0.015c0.039,0.036,0.094,0.044,0.147,0.03
		c0.389,0.1,0.709,0.391,0.909,0.756c-0.178,0.318-0.178,0.716-0.017,1.04c0.035,0.069,0.074,0.114,0.112,0.163
		c-0.828,0.005-1.643,0.009-2.433,0.015C25.165,18.339,25.112,17.984,24.962,17.69z M22.085,11.298
		c2.47,0.694,3.702,2.646,4.112,5.026c-0.135-0.002-0.271-0.006-0.403,0.029c-0.047,0.012-0.085,0.037-0.129,0.053
		c0.053-2.007-1.517-3.75-3.481-4.009c-0.076-0.01-0.093,0.119-0.018,0.135c1.873,0.39,3.165,2.037,3.197,3.928
		c0,0.031,0.017,0.048,0.03,0.069c-0.32,0.195-0.548,0.494-0.662,0.841c-0.457-0.456-1.229-0.581-1.771-0.052
		c-0.237-0.547-0.838-0.867-1.415-0.761c0.248-0.452,0.085-1.118-0.359-1.438c0.046-0.005,0.09-0.025,0.108-0.084
		C21.682,13.825,21.973,12.567,22.085,11.298z M14.275,10.549c0.264-0.336,0.975-0.171,0.979,0.366
		c0.002,0.249,0.339,0.277,0.418,0.057c0.216-0.602,0.984-0.955,1.537-0.557c0.528,0.379,0.453,1.009,0.19,1.514
		c-0.031,0.059-0.024,0.116-0.004,0.166C17.21,12.053,17.025,12.02,16.851,12c-0.143-0.017-0.176,0.227-0.034,0.252
		c0.62,0.108,1.074,0.411,1.631,0.661c0.141,0.063,0.292-0.1,0.173-0.224c-0.183-0.188-0.424-0.313-0.679-0.415
		c0.16-0.418,0.5-0.642,0.855-0.675c0.029,0.01,0.055,0.009,0.08-0.004c0.357-0.003,0.717,0.189,0.911,0.591
		c0.111,0.229,0.415,0.054,0.381-0.16c-0.155-0.978,1.055-1.167,1.456-0.506c0.011,0.019,0.029,0.018,0.043,0.031
		c-0.185,1.143-0.371,2.281-0.628,3.414c-0.007,0.031,0.003,0.055,0.013,0.078c-0.14-0.07-0.296-0.117-0.477-0.11
		c0.062-0.427-0.19-0.883-0.6-1.081c-0.608-0.294-1.2,0.063-1.605,0.528c-0.18-0.699-1.04-1.147-1.727-0.991
		c-0.871,0.198-1.277,1.111-1.013,1.916c0.037,0.112,0.201,0.067,0.176-0.049c-0.138-0.634,0.309-1.414,0.98-1.494
		c0.671-0.081,1.063,0.391,1.335,0.928c0.002,0.004,0.006,0.005,0.009,0.008l0,0c-0.317-0.059-0.648-0.068-0.948-0.048
		c-0.139,0.009-0.142,0.217,0,0.218c0.605,0.004,1.068,0.221,1.622,0.414c0.171,0.06,0.243-0.181,0.115-0.273
		c-0.148-0.106-0.321-0.174-0.5-0.228c0.287-0.365,0.704-0.722,1.192-0.599c0.402,0.101,0.717,0.545,0.43,0.93
		c-0.11,0.147,0.074,0.38,0.243,0.316c0.42-0.158,0.989,0.012,0.987,0.566c-0.001,0.345-0.267,0.525-0.505,0.712
		c-0.23-0.145-0.476-0.266-0.716-0.359c-0.111-0.044-0.187,0.139-0.081,0.193c0.522,0.267,0.849,0.643,1.258,1.042
		c0.131,0.128,0.363-0.038,0.259-0.2c-0.087-0.137-0.207-0.251-0.33-0.362c0.016-0.003,0.031,0.003,0.047-0.006
		c0.601-0.359,1.438,0.025,1.454,0.76c0.005,0.2,0.282,0.286,0.385,0.104c0.429-0.759,1.367-0.556,1.605,0.045
		c0.001,0.13,0.012,0.26,0.042,0.389c-0.011,0.107-0.033,0.217-0.087,0.334c-0.016,0.034-0.004,0.062-0.004,0.094
		c-0.005,0-0.011,0-0.016,0c-2.59,0.023-5.301,0.019-8.026-0.098c0.887-0.385,2.179-1.702,1.39-2.537
		c-0.16-0.169-0.398-0.167-0.613-0.213c-0.618-0.132-1.234-0.25-1.838-0.439c-1.323-0.413-2.561-1.041-3.731-1.778
		c-0.055-0.035-0.112-0.014-0.155,0.023c-0.048-0.171-0.121-0.336-0.23-0.483c-0.286-0.385-0.704-0.567-1.138-0.589
		c0.002-0.033,0.006-0.067-0.017-0.105c-0.519-0.839-0.039-2.033,0.916-2.306c1.093-0.313,1.771,0.502,2.368,1.242
		c-0.325,0.068-0.64,0.209-0.899,0.377c-0.138,0.089-0.016,0.303,0.13,0.222c0.54-0.302,1.021-0.263,1.608-0.276
		c0.168-0.004,0.179-0.219,0.037-0.276c-0.015-0.006-0.032-0.004-0.047-0.009c0.045-0.052,0.062-0.132,0.002-0.199
		C14.169,11.099,14.109,10.761,14.275,10.549z M16.055,18.619c-1.54-0.075-3.081-0.179-4.608-0.363
		c0.303-0.16,0.471-0.48,0.551-0.831c0.003,0.015,0.01,0.029,0.024,0.04c1.681,1.284,4.423,0.915,5.465-1.036
		c0.026,0.049,0.045,0.11,0.054,0.181c0.202,0.283,0.154,0.565-0.142,0.846c-0.301,0.457-0.796,0.728-1.27,0.957
		C16.036,18.459,16.024,18.546,16.055,18.619z M11.161,18.221c-0.622-0.078-1.241-0.165-1.855-0.267
		c0.077-0.018,0.138-0.089,0.084-0.18c-0.322-0.536-0.542-1.202-0.11-1.741c0.279-0.349,0.762-0.549,1.211-0.494
		c0.053,0.072,0.137,0.121,0.231,0.086c0.018-0.007,0.032-0.019,0.049-0.026c0.467,0.197,0.716,0.695,0.74,1.183
		c0.025,0.496-0.231,0.831-0.387,1.272C11.098,18.123,11.122,18.178,11.161,18.221z M11.638,13.926
		c1.017,0.789,2.12,1.411,3.336,1.84c0.652,0.23,1.404,0.272,2.035,0.521c0.094-0.022,0.171-0.023,0.241-0.014
		c-0.84,1.118-2.17,1.737-3.496,1.631c0.001-0.027-0.003-0.058-0.038-0.069c-0.204-0.258-0.073-0.363,0.392-0.315
		c0.043,0.028,0.078,0.065,0.119,0.097c-0.079,0.022-0.157,0.047-0.238,0.068c-0.14,0.036-0.079,0.239,0.059,0.213
		c0.16-0.031,0.321-0.056,0.482-0.076c0.117-0.012,0.198-0.152,0.101-0.245c-0.268-0.258-0.784-0.643-1.113-0.254
		c-0.141,0.167-0.141,0.433,0.012,0.568c-0.494-0.071-0.984-0.243-1.442-0.538c-0.036-0.023-0.068-0.007-0.084,0.02
		c0.063-0.314,0.062-0.647,0.008-0.913c-0.097-0.481-0.376-0.92-0.775-1.19C11.565,14.918,11.698,14.409,11.638,13.926z
		 M8.802,9.246C8.822,9.25,8.83,9.262,8.852,9.264c0.167,0.016,0.206-0.22,0.081-0.298C8.925,8.961,8.923,8.95,8.916,8.945
		c0.284-0.541,0.883-0.571,1.808-0.076C10.7,9.083,10.997,9.117,11.096,8.97c0.965-1.43,3.069-0.631,2.832,1.087
		c-0.012,0.088,0.03,0.151,0.085,0.199c-0.245,0.352-0.209,0.859,0.085,1.192c-0.061-0.009-0.118-0.033-0.179-0.034
		c0-0.005,0.003-0.01,0.002-0.016c-0.242-1.26-1.986-2.031-3.118-1.545c-0.275,0.118-0.511,0.303-0.702,0.525
		C9.829,9.98,9.401,9.705,8.936,9.604c0.139-0.003,0.278,0,0.416-0.014c0.169-0.017,0.17-0.247,0-0.264
		C9.163,9.308,8.973,9.308,8.784,9.308C8.788,9.285,8.797,9.268,8.802,9.246z M9.809,10.833c-0.276,0.572-0.3,1.257,0.065,1.811
		c-0.228,0.037-0.452,0.112-0.653,0.232c-0.219-0.789-0.994-1.412-1.858-1.103c-0.003,0.001-0.005,0.003-0.007,0.004
		c-0.142-0.63,0.065-1.34,0.688-1.633C8.732,9.82,9.472,10.214,9.809,10.833z M3.865,10.856c0.302-0.158,0.573-0.087,0.825,0.053
		c-0.076,0.041-0.154,0.082-0.223,0.128c-0.112,0.074-0.012,0.251,0.106,0.182c0.122-0.071,0.241-0.119,0.361-0.157
		c0.064,0.047,0.128,0.094,0.189,0.144c0.108,0.087,0.278,0.009,0.241-0.14c-0.009-0.034-0.027-0.062-0.039-0.094
		c0.177-0.029,0.359-0.05,0.554-0.08c0.104-0.016,0.089-0.171,0-0.197c-0.128-0.037-0.258-0.045-0.389-0.037
		c-0.01-0.016-0.013-0.034-0.033-0.046c-0.519-0.333-0.664-1.19-0.086-1.541c0.501-0.305,1.147-0.002,1.307,0.558
		c0.07,0.245,0.402,0.177,0.424-0.057c0.034-0.365,0.071-0.901,0.386-1.159c0.54-0.443,0.775,0.084,0.93,0.491
		C8.454,9.001,8.498,9.064,8.549,9.12C8.536,9.162,8.52,9.205,8.509,9.246C8.502,9.269,8.512,9.285,8.515,9.304
		C8.294,9.309,8.072,9.318,7.851,9.323c-0.174,0.004-0.174,0.267,0,0.271c0.107,0.002,0.213,0.005,0.32,0.009
		c-0.105,0.025-0.209,0.061-0.31,0.108c-0.838,0.392-1.179,1.422-0.837,2.249c-0.245,0.179-0.422,0.428-0.514,0.708
		c-0.153-0.254-0.365-0.478-0.563-0.626c-0.567-0.42-1.356-0.577-2.003-0.244c-0.187,0.096-0.339,0.229-0.47,0.378
		c0.007-0.025,0.016-0.049,0.004-0.079C3.305,11.655,3.413,11.093,3.865,10.856z M3.939,15.251c0.114,0.061,0.236-0.061,0.176-0.175
		c-0.034-0.065-0.08-0.125-0.129-0.183c-0.005-0.019-0.008-0.038-0.026-0.054c-0.269-0.239-0.442-0.586-0.51-0.953
		c0.2-0.098,0.193-0.392-0.023-0.461c0.032-0.481,0.252-0.939,0.702-1.18c0.51-0.273,1.136-0.111,1.566,0.237
		c0.389,0.314,0.442,0.699,0.617,1.101c-0.326,0.016-0.652,0.042-0.961,0.049c-0.206,0.005-0.206,0.315,0,0.32
		c0.712,0.017,1.509,0.138,2.208-0.011c0.147-0.031,0.148-0.267,0-0.298c-0.242-0.052-0.497-0.063-0.755-0.065
		c-0.068-0.429,0.029-0.835,0.371-1.125c0.732-0.622,1.622,0.018,1.611,0.878c-0.003,0.217,0.278,0.333,0.429,0.178
		c0.525-0.539,1.609-0.559,1.896,0.289c0.165,0.484-0.076,0.907-0.4,1.242c-0.013-0.003-0.023-0.011-0.036-0.013
		c-0.662-0.123-1.375,0.184-1.781,0.71c-0.58,0.751-0.233,1.495,0.266,2.17c0.014,0.019,0.034,0.023,0.051,0.032
		c-2.33-0.392-4.599-0.967-6.736-1.805c-0.1-0.061-0.19-0.128-0.275-0.2c-0.003-0.017-0.005-0.035-0.021-0.052
		c-0.385-0.413,0.001-1.029,0.469-1.124C3.173,14.652,3.52,15.029,3.939,15.251z M25.653,39.157
		C12.496,38.226,2.778,28.191,0.389,15.588c-0.018-0.095-0.086-0.123-0.157-0.119c0.764-0.827,1.729-1.384,2.845-1.498
		c0.041,0.156,0.091,0.31,0.171,0.45c-0.374-0.109-0.783-0.083-1.083,0.14c-0.267,0.198-0.403,0.516-0.398,0.827
		c-0.063-0.017-0.147,0.023-0.137,0.097c0.02,0.147,0.068,0.29,0.134,0.425c-0.052,0.046-0.069,0.144,0.006,0.183
		c0.054,0.028,0.112,0.051,0.167,0.079c0.187,0.224,0.443,0.381,0.757,0.383c0.01,0,0.017-0.007,0.027-0.01
		c6.729,3.071,15.655,2.727,22.798,2.668c4.675-0.039,9.344-0.355,13.98-0.963c3.174-0.416,6.651-0.588,9.44-2.268
		c0.139-0.084,0.113-0.227,0.026-0.312c0.32-0.647-0.392-1.465-1.016-1.67c-0.415-0.136-0.873-0.067-1.142,0.299
		c-0.017,0.023-0.02,0.05-0.034,0.073c-0.16-0.477-0.413-0.92-0.748-1.265c0.009-0.012,0.013-0.027,0.022-0.039
		c1.604,0.081,3.896,0.532,3.897,2.503C47.075,27.753,39.661,40.148,25.653,39.157z"/>
	<path style="fill:#1D1D1B;" d="M8.924,10.751c0.032-0.003,0.06-0.011,0.093-0.012c0.122-0.001,0.154-0.189,0.029-0.217
		c-0.129-0.029-0.25-0.025-0.362,0.004c-0.196-0.142-0.429-0.245-0.646-0.314c-0.126-0.04-0.169,0.146-0.053,0.193
		c0.172,0.071,0.302,0.164,0.421,0.266c-0.177,0.145-0.295,0.368-0.314,0.62c-0.007,0.092,0.146,0.114,0.162,0.022
		c0.043-0.237,0.171-0.384,0.34-0.472c0.113,0.113,0.225,0.232,0.358,0.35c0.07,0.062,0.194,0.003,0.165-0.096
		C9.08,10.965,9.01,10.853,8.924,10.751z"/>
	<path style="fill:#1D1D1B;" d="M42.983,11.494c0.04-0.168-0.204-0.234-0.258-0.071c-0.044,0.135-0.111,0.246-0.193,0.339
		c-0.178-0.176-0.41-0.299-0.664-0.354c-0.108-0.023-0.153,0.135-0.046,0.166c0.229,0.067,0.394,0.186,0.532,0.337
		c-0.096,0.057-0.204,0.101-0.336,0.114c-0.139,0.013-0.145,0.226,0,0.221c0.182-0.006,0.344-0.062,0.49-0.142
		c0.047,0.07,0.092,0.143,0.137,0.222c0.053,0.095,0.191,0.029,0.17-0.072c-0.022-0.106-0.064-0.199-0.115-0.286
		C42.831,11.845,42.935,11.692,42.983,11.494z"/>
</g>
<g>
</g>
<g>
</g>
<g>
</g>
<g>
</g>
<g>
</g>
<g>
</g>
<g>
</g>
<g>
</g>
<g>
</g>
<g>
</g>
<g>
</g>
<g>
</g>
<g>
</g>
<g>
</g>
<g>
</g>
</svg>
