<?xml version="1.0" encoding="iso-8859-1"?>
<!-- Generator: Adobe Illustrator 18.0.0, SVG Export Plug-In . SVG Version: 6.00 Build 0)  -->
<!DOCTYPE svg PUBLIC "-//W3C//DTD SVG 1.1//EN" "http://www.w3.org/Graphics/SVG/1.1/DTD/svg11.dtd">
<svg version="1.1" id="Capa_1" xmlns="http://www.w3.org/2000/svg" xmlns:xlink="http://www.w3.org/1999/xlink" x="0px" y="0px"
	 viewBox="0 0 47.854 47.854" style="enable-background:new 0 0 47.854 47.854;" xml:space="preserve">
<g>
	<path style="fill:#1D1D1B;" d="M45.497,17.323C44.342,5.522,32.942,3.895,23.782,7.962c-0.014-1.165,0.201-2.289,0.722-3.349
		c0.517-1.054,1.325-1.71,2.055-2.555c0.122,0.059,0.283,0.026,0.347-0.14c0.339-0.878-0.584-1.703-1.375-1.874
		c-1.135-0.245-2.1,0.59-2.863,1.311c-0.081,0.076-0.034,0.193,0.045,0.242c-0.747,1.206-1.086,2.675-1.02,4.081
		c0.029,0.615,0.081,1.567,0.453,2.187c-3.768-1.286-7.645-2.226-11.457-1.399c-5.172,1.122-7.618,5.276-8.244,10.28
		c-1.701,13.587,7.806,25.19,19.377,30.865c0.118,0.058,0.22,0.009,0.291-0.066c0.859,0.38,1.761,0.526,2.496-0.248
		c0.519-0.547,0.698-1.364,1.161-1.96c0.273-0.351,0.579-0.606,0.903-0.822c1.468,0.316,2.175,2.205,3.567,2.799
		c0.889,0.379,1.969,0.462,2.831-0.003c0.149-0.08,0.105-0.315-0.045-0.357c3.444-1.553,6.028-7.849,7.487-10.492
		C43.729,30.641,46.158,24.075,45.497,17.323z M22.232,4.742c0.124-1.237,0.607-2.289,1.124-3.399
		c0.012-0.025,0.004-0.051,0.005-0.077c1.101-0.656,2.766-1.225,3.023,0.396c-2.246,1.009-3.16,4.159-2.927,6.446
		c-0.087,0.04-0.176,0.077-0.262,0.119c-0.13-0.046-0.262-0.09-0.392-0.135C22.006,7.484,22.152,5.534,22.232,4.742z M44.925,21.631
		c-0.384,4.58-2.024,8.948-4.108,13.003c-1.584,3.082-5.563,11.486-9.265,12.307c-1.129-0.128-1.904-0.64-2.912-1.717
		c-0.451-0.482-0.938-0.854-1.503-0.983c0.414-0.198,0.863-0.338,1.366-0.435c0.201-0.039,0.138-0.326-0.046-0.338
		c-1.024-0.071-2.003,0.361-2.743,1.061c-0.395,0.373-0.686,0.803-0.93,1.287c-0.129,0.256-0.221,0.651-0.427,0.861
		c-0.628,0.639-1.449,0.738-2.242,0.558c-0.017-0.017-0.018-0.04-0.043-0.053C11.827,41.979,3.422,32.769,2.869,20.788
		C2.546,13.772,5.478,6.72,13.573,6.707c5.706-0.009,10.765,3.135,16.263,4.189c0.181,0.035,0.256-0.223,0.077-0.278
		c-1.923-0.589-3.918-1.37-5.953-2.114c4.462-2.058,9.415-3.24,14.127-1.191C43.911,9.844,45.416,15.777,44.925,21.631z"/>
</g>
<g>
</g>
<g>
</g>
<g>
</g>
<g>
</g>
<g>
</g>
<g>
</g>
<g>
</g>
<g>
</g>
<g>
</g>
<g>
</g>
<g>
</g>
<g>
</g>
<g>
</g>
<g>
</g>
<g>
</g>
</svg>
