<?xml version="1.0" encoding="iso-8859-1"?>
<!-- Generator: Adobe Illustrator 18.0.0, SVG Export Plug-In . SVG Version: 6.00 Build 0)  -->
<!DOCTYPE svg PUBLIC "-//W3C//DTD SVG 1.1//EN" "http://www.w3.org/Graphics/SVG/1.1/DTD/svg11.dtd">
<svg version="1.1" id="Capa_1" xmlns="http://www.w3.org/2000/svg" xmlns:xlink="http://www.w3.org/1999/xlink" x="0px" y="0px"
	 viewBox="0 0 44.957 44.957" style="enable-background:new 0 0 44.957 44.957;" xml:space="preserve">
<g>
	<path style="fill:#1D1D1B;" d="M44.255,23.819c2.174-3.022-1.078-7.883-4.541-10.223c0.36-1.591-0.064-3.254-1.398-4.801
		c-2.333-2.707-6.176-3.007-9.498-3.225c-0.053-0.003-0.099,0.004-0.139,0.019c-0.022-0.171-0.053-0.339-0.095-0.503
		c-0.342-1.325-0.998-1.682-2.264-1.908c-3.08-0.55-7.444-0.077-10.518,0.512c-2.394,0.459-3.345,1.705-3.556,3.302
		c-0.026-0.026-0.058-0.043-0.101-0.029c-3.501,1.198-6.246,3.443-8.079,6.708c-1.116,1.988-2.345,4.583-1.256,6.627
		c-2.036,0.755-2.714,5.204-2.801,6.981c-0.096,1.949,0.595,3.413,2.125,4.221c0.002,0.009-0.005,0.016-0.001,0.026
		c2.039,5.453,8.229,10.337,14.171,10.496c1.894,0.051,3.826-0.598,4.294-2.64c0.226-0.987-0.092-2.033-0.502-2.92
		c-1.278-2.766-3.134-4.351-3.815-7.546c-0.008-0.039-0.026-0.067-0.042-0.097c0.548-0.748,0.704-1.633,0.253-2.676
		c1.218-0.315,1.938-1.241,1.74-3.104c0.139,0.073,0.278,0.143,0.424,0.191c0.639,0.451,1.566,0.449,2.222,0.033
		c0.146,0.077,0.338,0.073,0.453-0.108c0.173-0.272,0.332-0.552,0.501-0.826c0.412,2.077,1.8,2.621,3.604,2.308
		c-0.589,1.762-0.687,3.464,1.411,4.153c0.494,0.162,1.054,0.187,1.64,0.139c0.566,2.653,0.553,4.829-0.15,7.531
		c-0.254,0.975-0.749,2.021-0.268,3.028c0.917,1.921,3.53,1.655,5.138,1.011c6.173-2.472,10.321-10.016,11.394-16.223
		C44.646,24.019,44.453,23.848,44.255,23.819z M1.064,25.198c0.289-1.375,0.702-3.716,1.956-4.564
		c0.116,0.169,0.244,0.335,0.397,0.495c1.305,1.358,8.492,5.411,12.367,5.119c1.436,4.153-8.652,5.252-10.733,5.158
		C1.333,31.238,0.419,28.263,1.064,25.198z M18.094,34.802c1.419,2.178,2.101,2.26,0.173,4.649c-1.759,2.178-2.304,2.034-4.789,1.27
		c-4.852-1.492-8.08-4.858-10.788-8.964c0.224,0.084,0.453,0.164,0.706,0.225c2.129,0.512,9.479-0.107,12.271-2.547
		C16.134,31.467,16.937,33.026,18.094,34.802z M17.518,22.936c0.495,5.443-8.061,0.884-9.204,0.317
		c-2.588-1.283-5.356-3.132-4.826-6.406c0.685-4.238,5.206-7.833,8.736-9.672c-0.201,2.089,0.782,4.732,1.482,7.017
		c0.594,1.939,1.754,6.668,3.942,8.462C17.564,22.708,17.506,22.797,17.518,22.936z M20.835,22.626
		c-0.025-0.004-0.047-0.017-0.075-0.01c-4.698,1.181-6.684-9.115-7.325-12.086c-0.558-2.587-1.583-4.799,2.09-6.099
		c1.727-0.611,4.396-0.411,6.242-0.475c2.864-0.1,5.902-1.062,5.861,3.76c-0.01,1.208-0.931,2.829-1.351,3.914
		C24.791,15.466,22.903,19.079,20.835,22.626z M22.197,21.968c-0.017-0.053-0.05-0.079-0.083-0.104
		c1.677-2.779,3.149-5.671,4.385-8.677c0.773-1.88,2.225-4.639,2.216-6.974c0.032,0.013,0.064,0.026,0.103,0.029
		c2.234,0.181,4.454,0.336,6.495,1.308c4.52,2.152,4.486,6.714,0.778,9.737C33.947,19.034,23.968,27.644,22.197,21.968z
		 M25.92,24.537c4.351-1.067,10.696-6.477,12.091-7.938c0.687-0.72,1.188-1.49,1.491-2.287c1.638,1.188,3.002,2.603,3.919,4.447
		c0.8,1.608,0.846,4.177-0.509,5.583c-0.72,0.747-2.945,0.972-3.902,1.221c-1.778,0.464-3.562,0.907-5.35,1.328
		C31.817,27.324,24.986,29.73,25.92,24.537z M36.058,37.73c-0.721,0.618-1.49,1.168-2.306,1.648
		c-1.949,1.43-3.609,0.829-4.981-1.802c-0.085-0.806,0.66-2.115,0.792-2.929c0.246-1.525,0.544-4.455-0.574-5.781
		c0.019-0.003,0.038-0.004,0.058-0.007c0.087,0.037,0.176,0.027,0.24-0.038c1.374-0.25,2.813-0.794,3.903-1.044
		c2.675-0.614,5.403-1.18,8.024-1.999c1.168-0.365,2.019-0.869,2.617-1.465C42.74,29.545,40.205,34.275,36.058,37.73z"/>
</g>
<g>
</g>
<g>
</g>
<g>
</g>
<g>
</g>
<g>
</g>
<g>
</g>
<g>
</g>
<g>
</g>
<g>
</g>
<g>
</g>
<g>
</g>
<g>
</g>
<g>
</g>
<g>
</g>
<g>
</g>
</svg>
