<?xml version="1.0" encoding="iso-8859-1"?>
<!-- Generator: Adobe Illustrator 18.0.0, SVG Export Plug-In . SVG Version: 6.00 Build 0)  -->
<!DOCTYPE svg PUBLIC "-//W3C//DTD SVG 1.1//EN" "http://www.w3.org/Graphics/SVG/1.1/DTD/svg11.dtd">
<svg version="1.1" id="Capa_1" xmlns="http://www.w3.org/2000/svg" xmlns:xlink="http://www.w3.org/1999/xlink" x="0px" y="0px"
	 viewBox="0 0 61.75 61.75" style="enable-background:new 0 0 61.75 61.75;" xml:space="preserve">
<g>
	<path style="fill:#1D1D1B;" d="M57.015,7.747c0.032-0.069,0.042-0.149-0.019-0.224C48.802-2.506,34.482-1.219,23.876,3.92
		C13.527,8.934,4.889,18.276,3.15,29.931c-0.377,2.527-0.396,5.166-0.078,7.773c0.027,8.331,3.444,17.147,10.948,21.469
		c7.446,4.289,17.329,3.33,22.733-3.683c3.035-3.939,4.368-8.845,5.084-13.684c1.086-7.338-0.466-18.549,8.204-21.402
		c3.375-1.111,6.833-1.349,8.333-5.078C59.455,12.638,58.81,9.84,57.015,7.747z M53.254,18.823
		c-1.729,0.708-3.676,0.739-5.374,1.576c-1.831,0.903-3.118,2.272-4.015,4.108c-3.386,6.925-1.695,15.858-3.95,23.167
		C36.59,58.451,26.243,64.45,15.595,59.36C8.494,55.965,4.906,48.854,3.779,41.429c1.779,6.92,6.125,13.099,13.099,15.639
		c11.959,4.356,19.46-7.153,21.024-17.462c1.307-8.613-1.006-22.599,10.559-24.226c4.011-0.564,10.033-1.851,8.006-7.245
		c-0.134-0.358-0.712-0.207-0.58,0.16c2.472,6.868-7.288,5.993-10.296,6.968c-1.754,0.568-3.181,1.52-4.299,3.009
		c-2.633,3.505-2.828,8.299-3.156,12.49c-0.615,7.851-1.013,16.636-6.938,22.576c-6.704,6.721-16.597,4.037-22.181-2.665
		c-3.073-3.688-4.826-7.642-5.513-11.653c-0.066-0.815-0.115-1.63-0.126-2.439c-0.001-0.106-0.088-0.148-0.168-0.137
		C1.773,12.427,36.599-12.037,56.073,7.184c-0.111,0.109-0.151,0.291-0.011,0.438C59.889,11.61,58.249,16.778,53.254,18.823z"/>
	<path style="fill:#1D1D1B;" d="M50.876,4.484c-0.07-0.056-0.147-0.074-0.219-0.067c-5.736-3.052-11.892-2.823-18.018-1.028
		c-5.296,1.551-12.604,4.16-16.252,8.247c0.029-0.032-0.01-0.093-0.049-0.063c-0.095,0.072-0.19,0.144-0.285,0.217
		c-0.028,0.021-0.043,0.05-0.035,0.085c0.01,0.041,0.019,0.082,0.029,0.123C2.84,21.399,0.275,46.246,16.597,54.129
		c6.689,3.231,13.706-0.014,17.151-6.263c5.418-9.828,1.017-21.794,6.202-31.714c0.007-0.014,0.007-0.028,0.012-0.042
		c2.363-1.81,5.202-2.377,8.19-2.592c1.573-0.113,3.611-0.015,4.951-1.025C56.103,10.231,52.888,6.107,50.876,4.484z M45.701,13.175
		c-2.29,0.363-4.288,1.065-5.868,2.615c-0.113-0.062-0.262-0.052-0.341,0.096c-0.114,0.212-0.215,0.425-0.321,0.638
		c-0.048,0.059-0.1,0.109-0.146,0.171c-0.027,0.035-0.013,0.07,0.014,0.093c-2.436,5.11-2.535,10.589-2.745,16.205
		c-0.333,8.918-3.018,22.786-14.891,21.988C11.265,54.297,5.796,42.6,5.634,33.712c-0.159-8.764,4.12-15.828,10.5-21.389
		c0.039,0.101,0.146,0.148,0.248,0.13c0.966-0.173,1.394-0.947,2.143-1.578c3.052-2.571,6.582-4.144,10.292-5.529
		c6.897-2.574,14.203-3.987,21.016-0.603c0.01,0.054,0.033,0.108,0.086,0.159c1.354,1.293,3.126,2.745,2.82,4.837
		c-0.23,1.574-1.578,2.356-2.811,3.146C48.555,13.086,47.024,12.965,45.701,13.175z"/>
	<path style="fill:#1D1D1B;" d="M21.602,34.6c-1.794-1.846-5.315-2.112-7.252-0.345c0.029-0.099-0.105-0.197-0.185-0.109
		c-2.106,2.324-2.748,5.559-0.455,8.075c2,2.193,5.652,2.191,7.795,0.192C23.67,40.393,23.641,36.699,21.602,34.6z M20.745,42.228
		c-2.093,1.614-5.234,1.386-6.875-0.749c-1.615-2.1-1.186-4.331-0.023-6.386c0.072,0.081,0.188,0.123,0.286,0.057
		c2.142-1.454,4.936-2.218,7.019-0.1C23.093,37.023,22.945,40.531,20.745,42.228z"/>
	<path style="fill:#1D1D1B;" d="M20.707,36.001c-1.313-1.614-4.032-1.944-5.576-0.494c-0.037,0.035-0.042,0.079-0.052,0.121
		c-1.473,0.94-1.769,3.12-0.779,4.648c1.179,1.819,3.71,2.572,5.515,1.212C21.46,40.247,22.063,37.669,20.707,36.001z
		 M19.904,40.625c-1.36,1.468-3.573,1.183-4.831-0.268c-1.165-1.342-0.989-3.283,0.231-4.397c0.05,0.005,0.102,0.005,0.154-0.031
		c1.275-0.895,2.872-1.035,4.194-0.113C21.267,36.944,21.162,39.267,19.904,40.625z"/>
</g>
<g>
</g>
<g>
</g>
<g>
</g>
<g>
</g>
<g>
</g>
<g>
</g>
<g>
</g>
<g>
</g>
<g>
</g>
<g>
</g>
<g>
</g>
<g>
</g>
<g>
</g>
<g>
</g>
<g>
</g>
</svg>
