<?xml version="1.0" encoding="iso-8859-1"?>
<!-- Generator: Adobe Illustrator 18.0.0, SVG Export Plug-In . SVG Version: 6.00 Build 0)  -->
<!DOCTYPE svg PUBLIC "-//W3C//DTD SVG 1.1//EN" "http://www.w3.org/Graphics/SVG/1.1/DTD/svg11.dtd">
<svg version="1.1" id="Capa_1" xmlns="http://www.w3.org/2000/svg" xmlns:xlink="http://www.w3.org/1999/xlink" x="0px" y="0px"
	 viewBox="0 0 54.776 54.776" style="enable-background:new 0 0 54.776 54.776;" xml:space="preserve">
<g>
	<path style="fill:#1D1D1B;" d="M54.604,4.817c0.363-2.705-2.339-4.935-5.045-4.035c-0.108-0.126-0.304-0.184-0.46-0.037
		c-7.091,6.663-13.119,14.42-20.519,20.758C20.257,28.63,10.498,31.747,0.69,36.153c-0.151,0.068-0.042,0.298,0.11,0.26
		c9.195-2.29,18.971-7.037,26.361-12.93c0.486-0.387,0.947-0.801,1.421-1.201c-0.113,0.128-0.157,0.33-0.021,0.499
		c3.993,4.966,9.353,10.423,15.297,13.12C37.264,42.1,29.912,47.355,21.765,51.32c-3.564,1.735-6.15,2.697-9.546-0.039
		c-1.221-0.984-2.389-2.036-3.499-3.143c-3.344-3.337-5.915-7.195-8.34-11.222c-0.14-0.233-0.469-0.029-0.358,0.209
		c2.106,4.546,5.156,8.588,8.75,12.069c2.319,2.245,5.177,5.583,8.596,4.917c4.558-0.889,9.883-4.706,13.724-7.179
		c4.84-3.116,9.31-6.708,13.475-10.676c0.284-0.271-0.017-0.663-0.326-0.617c-2.599-2.039-5.435-3.737-7.953-5.908
		c-1.595-1.375-3.081-2.85-4.507-4.384c3.839-1.357,6.816-3.791,9.734-6.647c4.225-4.137,8.345-8.395,12.472-12.633
		c0.125,0.02,0.253-0.021,0.314-0.159c0.038-0.086,0.059-0.17,0.09-0.256c0.094-0.097,0.188-0.193,0.282-0.29
		C54.857,5.173,54.771,4.933,54.604,4.817z M31.406,24.941c-0.797-0.871-1.581-1.756-2.341-2.665
		c-0.126-0.15-0.284-0.141-0.406-0.059c7.489-6.333,13.635-14.113,20.725-20.871c2.664-1.043,5.007,1.278,4.426,3.868
		C47.14,11.986,40.36,21.261,31.406,24.941z"/>
	<path style="fill:#1D1D1B;" d="M10.116,36.632C8.34,36.61,6.441,37.643,5.014,38.61c-0.212,0.143-0.016,0.487,0.202,0.346
		c0.795-0.513,1.622-0.951,2.511-1.281c0.796-0.296,1.639-0.441,2.43-0.74C10.314,36.876,10.3,36.634,10.116,36.632z"/>
</g>
<g>
</g>
<g>
</g>
<g>
</g>
<g>
</g>
<g>
</g>
<g>
</g>
<g>
</g>
<g>
</g>
<g>
</g>
<g>
</g>
<g>
</g>
<g>
</g>
<g>
</g>
<g>
</g>
<g>
</g>
</svg>
