<?xml version="1.0" encoding="iso-8859-1"?>
<!-- Generator: Adobe Illustrator 18.0.0, SVG Export Plug-In . SVG Version: 6.00 Build 0)  -->
<!DOCTYPE svg PUBLIC "-//W3C//DTD SVG 1.1//EN" "http://www.w3.org/Graphics/SVG/1.1/DTD/svg11.dtd">
<svg version="1.1" id="Capa_1" xmlns="http://www.w3.org/2000/svg" xmlns:xlink="http://www.w3.org/1999/xlink" x="0px" y="0px"
	 viewBox="0 0 53.131 53.131" style="enable-background:new 0 0 53.131 53.131;" xml:space="preserve">
<g>
	<path style="fill:#1D1D1B;" d="M51.482,21.179c-1.53-1.123-3.538-1.01-5.248-0.41c-0.462-0.174-0.95-0.293-1.401-0.393
		c-0.141-0.031-0.251,0.031-0.314,0.125c-3.366-4.63-8.842-7.054-14.633-7.507c0.98-2.383-1.273-4.764-3.815-4.295
		c-1.203,0.222-2.362,1.095-2.624,2.337c-0.18,0.851,0.161,1.653,0.799,2.127c-5.888,0.811-11.506,3.58-14.981,8.079
		c-0.022-0.036-0.057-0.065-0.11-0.074c-0.999-0.172-1.948,0.195-2.615,0.956c-0.061,0.069-0.12,0.146-0.177,0.225
		c-0.643-0.395-1.546-0.589-2.254-0.305c-0.595,0.239-1.07,0.814-0.975,1.481c0.176,1.233,1.695,1.202,2.669,0.91
		c0.027,0.104,0.063,0.207,0.115,0.305c0.106,0.202,0.374,0.084,0.393-0.107c0.017-0.169,0.032-0.326,0.048-0.482
		c0.333,0.557,0.793,1.032,1.341,1.444c-0.013,0.026-0.032,0.049-0.027,0.084c0.011,0.087,0.023,0.174,0.034,0.26
		c-2.424,0.639-5.734,1.089-6.843-1.726c-0.683-1.734,0.641-3.074,2.273-3.354c1.352-0.233,2.673,0.231,3.949,0.619
		c0.379,0.115,0.532-0.464,0.163-0.59c-1.627-0.555-3.455-1.088-5.132-0.421c-1.301,0.517-2.255,1.686-2.1,3.137
		c0.422,3.954,4.891,3.636,7.739,2.71c0.587,4.483,1.186,9.027,2.119,13.447c0.429,2.034,1.22,3.892,3.159,4.325
		c0.024,0.017,0.045,0.037,0.081,0.04c5.289,0.5,10.635,0.391,15.941,0.248c3.828-0.103,9.097,0.569,12.721-0.901
		c1.752-0.711,2.267-1.452,2.82-3.183c1.251-3.91,0.619-9.436,0.681-13.736c1.472,0.794,3.09,1.407,4.759,1.057
		c1.391-0.291,2.695-1.216,3.021-2.662C53.377,23.527,52.619,22.013,51.482,21.179z M5.749,24.06
		c-0.636,0.1-1.558,0.167-1.933-0.355c-0.366-0.51,0.18-1.057,0.667-1.178c0.561-0.14,1.082,0.116,1.615,0.247
		C5.884,23.172,5.737,23.625,5.749,24.06z M24.653,10.188c0.545-0.576,1.351-0.87,2.135-0.857c1.887,0.031,3.178,1.903,2.295,3.613
		c-1.36-0.063-2.731-0.018-4.093,0.131C23.87,12.526,23.847,11.04,24.653,10.188z M44.164,35.042
		c-0.171,3.865,0.46,6.291-5.156,8.144c-1.439,0.475-3.481,0.208-4.975,0.278c-6.548,0.306-13.095,0.131-19.641,0.307
		c-0.03-0.129-0.126-0.237-0.299-0.232c-3.971,0.114-4.152-7.445-4.566-9.902c-0.42-2.495-0.872-4.983-1.365-7.465
		c0.097-0.035,0.198-0.07,0.289-0.106l0.001-0.001c3.84,2.216,10.776,2.081,14.15,2.205c7.123,0.262,14.464-0.541,21.32-2.643
		c-0.007,0.074,0.01,0.15,0.096,0.201c0.177,0.107,0.358,0.214,0.54,0.321C44.427,29.113,44.295,32.077,44.164,35.042z
		 M27.079,27.753c-2.985,0.094-5.969-0.008-8.94-0.311c-3.299-0.337-9.583-0.594-11.722-3.677c0.076-0.457,0.214-0.876,0.594-1.296
		c0.524-0.578,1.245-0.925,2.025-0.919c-0.39,0.529-0.762,1.073-1.09,1.647c-0.17,0.297,0.267,0.546,0.455,0.266
		c0.004-0.006,0.008-0.011,0.012-0.016c5.323,2.725,12.78,2.701,18.637,2.848c6.26,0.157,12.246-0.629,17.959-3.284
		c0.415-0.193,0.054-0.803-0.358-0.613c-10.745,4.944-24.891,3.809-36.106,0.868c7.776-11.23,28.598-13.767,36.162-1.068
		c0.258,0.433,0.934,0.04,0.677-0.396c-0.165-0.279-0.344-0.543-0.522-0.808c0.349,0.076,0.705,0.16,1.049,0.271
		c0.055,0.109,0.166,0.181,0.321,0.129c0.003-0.001,0.007-0.002,0.01-0.003c0.294,0.12,0.577,0.262,0.824,0.465
		c0.201,0.165,0.367,0.375,0.494,0.604c-0.1,0.152-0.039,0.393,0.178,0.436c0.118,0.446,0.058,0.918-0.292,1.288
		c-0.033-0.101-0.125-0.179-0.263-0.138c-0.131,0.038-0.261,0.074-0.392,0.112c-0.067-0.014-0.117,0.006-0.154,0.044
		C40.197,26.078,33.842,27.539,27.079,27.753z M49.118,22.953c0.002,0.47,0.005,0.94,0.014,1.41c-0.5,0.07-0.996,0.063-1.487-0.014
		c0.376-0.372,0.535-0.899,0.499-1.422C48.468,22.936,48.793,22.945,49.118,22.953z M52.164,25.516
		c-1.447,2.568-4.638,1.503-6.877,0.439c0.003-0.104,0.001-0.217,0.005-0.318c0.009-0.216-0.145-0.326-0.312-0.338
		c0.663-0.218,1.322-0.447,1.976-0.688c0.792,0.264,1.6,0.349,2.438,0.24c0.142-0.019,0.256-0.104,0.26-0.26
		c0.015-0.637,0.015-1.274,0.02-1.91c0.001-0.155-0.129-0.274-0.28-0.279c-0.456-0.018-0.913-0.036-1.369-0.05
		c-0.039-0.111-0.086-0.218-0.143-0.319c-0.207-0.369-0.506-0.647-0.849-0.869c1.229-0.306,2.546-0.367,3.691,0.273
		C52.09,22.2,52.997,24.038,52.164,25.516z"/>
</g>
<g>
</g>
<g>
</g>
<g>
</g>
<g>
</g>
<g>
</g>
<g>
</g>
<g>
</g>
<g>
</g>
<g>
</g>
<g>
</g>
<g>
</g>
<g>
</g>
<g>
</g>
<g>
</g>
<g>
</g>
</svg>
