<?xml version="1.0" encoding="iso-8859-1"?>
<!-- Generator: Adobe Illustrator 18.0.0, SVG Export Plug-In . SVG Version: 6.00 Build 0)  -->
<!DOCTYPE svg PUBLIC "-//W3C//DTD SVG 1.1//EN" "http://www.w3.org/Graphics/SVG/1.1/DTD/svg11.dtd">
<svg version="1.1" id="Capa_1" xmlns="http://www.w3.org/2000/svg" xmlns:xlink="http://www.w3.org/1999/xlink" x="0px" y="0px"
	 viewBox="0 0 48.422 48.422" style="enable-background:new 0 0 48.422 48.422;" xml:space="preserve">
<g>
	<path style="fill:#1D1D1B;" d="M46.809,22.856c-6.824-0.241-14.722-1.091-21.445,0.4c-0.068-0.006-0.136,0.008-0.198,0.041
		c-0.039,0.009-0.08,0.016-0.119,0.025c-0.124,0.029-0.128,0.195-0.044,0.259c-0.008,0.137-0.018,0.281-0.028,0.431
		c-1.186-0.14-2.546,0.028-3.672,0.112c-0.104,0.008-0.154,0.08-0.163,0.156c-2.561-1.251-5.636-0.867-8.415-0.741
		c-4.099,0.186-8.165,0.668-12.189,1.466c-0.214,0.043-0.119,0.352,0.089,0.322c3.511-0.513,7.028-0.95,10.573-1.136
		c2.889-0.151,6.813-0.666,9.571,0.64c-7.018,2.672-12.947,2.479-20.213,0.684c-0.03-0.007-0.049,0.015-0.067,0.035l0-0.001
		c-0.034-0.284-0.467-0.302-0.457,0c0.088,2.807-0.609,8.337,1.726,10.57c2.229,2.131,7.07,1.186,9.761,1.215
		c2.58,0.028,6.941,1.041,9.035-1.017c2.142-2.105,1.666-6.339,1.343-9.546c1.024,0.066,2.151,0.189,3.139,0.012
		c0.068,0.296,0.162,0.574,0.307,0.814c0.03,0.049,0.097,0.035,0.116-0.015c0.024-0.066,0.033-0.134,0.05-0.201
		c0.016,0.005,0.024,0.019,0.043,0.019c6.899,0.314,13.845,0.131,20.75,0.084c0.418-0.003,0.419-0.65,0-0.65
		c-6.896,0.002-13.836-0.132-20.724,0.228c0.056-0.443,0.014-0.899,0.008-1.348c-0.005-0.406,0.014-0.811,0.023-1.217
		c0.19-0.049,0.191-0.332,0.007-0.389c0.006-0.18,0.002-0.36,0.01-0.54c7.04-0.621,14.124-0.115,21.182-0.173
		C47.156,23.391,47.154,22.868,46.809,22.856z M21.22,31.935c-0.204,5.103-5.928,4.696-9.701,4.663
		c-3.051-0.026-5.844,0.472-8.376-1.326c-2.18-1.548-1.923-2.446-2.166-4.844c-0.161-1.592-0.29-3.183-0.477-4.773
		c6.154,3.178,14.433,2.62,20.537-0.426C21.112,27.455,21.309,29.714,21.22,31.935z M21.855,26.331
		c-0.055-0.565-0.102-1.095-0.121-1.563c-0.005-0.131-0.074-0.214-0.159-0.269c1.059,0.09,2.279,0.22,3.36,0.099
		c-0.033,0.56-0.046,1.154,0.02,1.71C23.972,26.147,22.862,26.267,21.855,26.331z"/>
	<path style="fill:#1D1D1B;" d="M47.087,23.374c-0.243-0.041-0.412,0.22-0.241,0.414c0.443,0.504,0.935,0.815,0.986,1.554
		c0.051,0.747-0.398,1.462-1.091,1.74c-0.211,0.084-0.122,0.43,0.095,0.346c0.825-0.318,1.487-0.962,1.578-1.877
		C48.496,24.717,48,23.529,47.087,23.374z"/>
	<path style="fill:#1D1D1B;" d="M5.607,21.128l-0.572-1.167c0.142-0.338,0.295-0.671,0.46-0.999
		c0.084-0.202,0.143-0.285,0.207-0.496c0.144-0.477,0.152-0.932,0.005-1.411c-0.122-0.396-0.332-0.749-0.59-1.074
		c-0.436-0.549-1.766-1.232-1.664-2.003c0.027-0.205-0.26-0.231-0.354-0.096c-0.298,0.429-0.212,0.729,0.089,1.145
		c0.16,0.221,0.388,0.347,0.589,0.52c1.172,1.012,1.687,1.77,1.145,3.35c-0.308,0.897-0.826,2.353,0.585,2.594
		C5.741,21.531,5.847,21.187,5.607,21.128z"/>
	<path style="fill:#1D1D1B;" d="M10.27,10.979c-0.115-0.277-0.521-0.181-0.458,0.126c0.219,1.056,0.889,1.617,1.55,2.412
		c0.865,0.753,1.002,1.706,0.411,2.857c-0.382,0.315-0.775,0.617-1.177,0.907c-0.242,0.221-0.463,0.391-0.647,0.656
		c-0.649,0.935-0.331,2.409,1.007,2.241c0.213-0.027,0.228-0.346,0-0.344c-0.767-0.952-0.771-1.632-0.013-2.041
		c0.258-0.214,0.528-0.412,0.809-0.595c0.151-0.126,0.332-0.237,0.466-0.379c0.375-0.399,0.618-0.782,0.679-1.326
		C13.101,13.657,10.896,12.488,10.27,10.979z"/>
	<path style="fill:#1D1D1B;" d="M21.272,12.685c-0.118-0.182-0.408-0.069-0.353,0.149c0.211,0.84,0.937,2.27,0.485,3.111
		c-0.478,0.888-1.442,1.295-2.341,1.475c-0.644,0.128-1.306,0.255-1.766,0.772c-0.818,0.92-0.619,2.297,0.259,3.068
		c0.151,0.133,0.355-0.07,0.221-0.221c-1.092-1.23-0.381-2.602,0.97-2.989c0.443-0.127,0.96-0.088,1.408-0.22
		c0.545-0.16,1.011-0.354,1.386-0.802C22.591,15.772,22.063,13.904,21.272,12.685z"/>
</g>
<g>
</g>
<g>
</g>
<g>
</g>
<g>
</g>
<g>
</g>
<g>
</g>
<g>
</g>
<g>
</g>
<g>
</g>
<g>
</g>
<g>
</g>
<g>
</g>
<g>
</g>
<g>
</g>
<g>
</g>
</svg>
