<?xml version="1.0" encoding="iso-8859-1"?>
<!-- Generator: Adobe Illustrator 18.0.0, SVG Export Plug-In . SVG Version: 6.00 Build 0)  -->
<!DOCTYPE svg PUBLIC "-//W3C//DTD SVG 1.1//EN" "http://www.w3.org/Graphics/SVG/1.1/DTD/svg11.dtd">
<svg version="1.1" id="Capa_1" xmlns="http://www.w3.org/2000/svg" xmlns:xlink="http://www.w3.org/1999/xlink" x="0px" y="0px"
	 viewBox="0 0 44.535 44.535" style="enable-background:new 0 0 44.535 44.535;" xml:space="preserve">
<g>
	<path style="fill:#1D1D1B;" d="M42.222,11.725c-0.144-0.02-0.258,0.043-0.333,0.134c-0.296-0.537-0.762-0.99-1.302-1.226
		c-0.451-0.197-1.433-0.293-2.057-0.037c-0.185-1.131-0.999-2.26-1.921-2.695c-1.647-0.777-3.657-0.025-4.429,1.595
		c-0.004,0.009,0.001,0.016-0.002,0.024c-0.59-0.647-1.374-1.112-2.312-1.227c-1.431-0.177-2.793,0.509-3.603,1.604
		c-0.448-1.955-2.389-3.395-4.404-3.167c-1.598,0.181-2.762,1.37-2.943,2.835c-0.225-1.312-1.574-2.659-2.899-2.79
		c-1.674-0.167-2.567,1.466-2.971,2.839c-0.561-0.802-1.361-1.427-2.289-1.637c-2.012-0.454-3.826,0.879-4.117,2.848
		c-0.575-0.207-1.229-0.241-1.842-0.059c-1.541,0.455-2.467,1.833-2.576,3.36c-2.163,5.045,15.906,5.104,17.802,5.209
		c4.596,0.254,22.069,2.094,22.481-5.279c0.014-0.256-0.199-0.355-0.392-0.314c0.151-0.439,0.135-0.905,0.004-1.344
		c1.111,0.262,1.887,1.241,1.906,2.372c-0.066,0.035-0.118,0.101-0.136,0.205c-0.882,5.038-2.397,10.202-6.039,13.986
		c-4.155,4.317-9.592,5.343-15.379,5.292c-5.364-0.047-10.795-1.191-15.061-4.592c-4.49-3.58-5.939-8.871-6.944-14.28
		c-0.018-1.186,0.794-2.326,1.915-2.676c0.383-0.119,0.225-0.708-0.166-0.603c-0.719,0.193-1.328,0.655-1.734,1.277
		c-0.333,0.511-0.444,1.015-0.407,1.566c-0.046,0.034-0.08,0.08-0.073,0.149c1.001,9.831,6.137,16.283,14.446,18.732
		c-0.998,4.371,7.799,4.056,10.279,3.955c1.858-0.075,9.448-0.82,7.337-4.134c1.477-0.534,2.887-1.268,4.192-2.266
		c5.097-3.9,7.309-10.103,8.264-16.23c0.012-0.074-0.004-0.137-0.03-0.194C44.771,13.486,43.741,11.937,42.222,11.725z M32.5,9.683
		c0.867-1.23,2.666-1.905,4.03-1.055c1.351,0.842,1.279,2.161,1.211,3.524c-0.75-0.072-1.504,0.005-2.171,0.301
		c-0.566,0.25-0.973,0.571-1.261,0.933c-0.343-0.147-0.691-0.231-1.038-0.287c0.188-1.19-0.167-2.411-0.889-3.334
		C32.424,9.756,32.467,9.731,32.5,9.683z M29.719,8.965c1.92,0.233,3.212,2.148,2.953,4.022c-0.002,0.016,0.003,0.03,0.003,0.046
		c-1.54-0.039-3.004,0.724-3.86,1.913c-0.496-1.301-1.642-2.279-2.961-2.744C26.23,10.414,27.742,8.725,29.719,8.965z M22.351,7.333
		c1.858,0.046,2.851,1.488,3.52,3.023c0.016,0.037,0.044,0.044,0.068,0.065c-0.262,0.504-0.422,1.063-0.43,1.655
		c-0.908-0.25-1.878-0.252-2.769,0.071c-0.39,0.141-0.719,0.341-0.993,0.583c-0.408-1.16-1.357-1.871-2.414-2.122
		C19.206,8.837,20.507,7.288,22.351,7.333z M21.319,13.212c-0.495,0.682-0.705,1.557-0.678,2.455
		c-1.135-0.787-2.513-0.886-3.686-0.455c0.009-0.052,0.009-0.107-0.021-0.163c-0.356-0.666-0.905-1.262-1.552-1.722
		c0.009-0.01,0.021-0.011,0.027-0.026C16.656,10.527,20.089,10.346,21.319,13.212z M13.345,9.835
		c0.626-1.096,1.445-2.795,3.013-2.254c1.093,0.377,1.539,1.384,2.14,2.26c0.085,0.124,0.28,0.136,0.384,0.046
		c-0.005,0.214,0.008,0.432,0.047,0.653c-1.646-0.208-3.414,0.656-3.754,2.644c-0.412-0.265-0.86-0.469-1.323-0.6
		c0.117-0.901-0.134-1.856-0.617-2.671C13.278,9.905,13.318,9.882,13.345,9.835z M2.645,13.991c0.001-0.004-0.002-0.006-0.001-0.01
		c0.28-0.918,0.825-1.8,1.653-2.283c1.284-0.749,2.911-0.433,3.351,1.116c0.005,0.017,0.019,0.019,0.025,0.033
		c-1.717,0.161-3.21,1.58-3.24,3.584C3.107,15.808,2.368,15.012,2.645,13.991z M4.799,16.592c0.068-2.665,2.998-3.921,5.119-2.436
		c-0.499,1.111-0.33,2.537,0.157,3.726C8.05,17.579,6.172,17.163,4.799,16.592z M8.151,12.836c0.024-0.051,0.048-0.104,0.039-0.171
		c-0.107-0.789-0.575-1.359-1.193-1.689c0.581-1.85,2.59-3.134,4.449-2.017c1.313,0.79,1.507,2.186,1.891,3.513
		c-0.668-0.101-1.351-0.034-1.995,0.259c-0.482,0.22-0.839,0.526-1.108,0.881C9.575,13.106,8.855,12.867,8.151,12.836z
		 M10.625,17.957c-0.381-1.781-0.934-4.154,1.408-4.787c1.979-0.535,3.25,0.957,4.497,2.189c0.012,0.012,0.026,0.008,0.039,0.017
		c-1.105,0.542-1.964,1.581-2.138,2.993C13.18,18.266,11.884,18.131,10.625,17.957z M14.788,18.398
		c0.798-2.646,3.637-3.735,5.924-1.998c0.141,0.853,0.473,1.679,0.952,2.324C20.58,18.693,17.852,18.636,14.788,18.398z
		 M28.301,18.716c-2.034,0.084-4.071,0.078-6.105,0.019c-0.004-0.009,0.002-0.019-0.004-0.028c-1.154-1.988-1.61-5.596,1.423-6.096
		c2.124-0.35,3.976,1.008,4.774,2.906c0.01,0.025,0.027,0.043,0.041,0.063C27.991,16.495,27.888,17.583,28.301,18.716z
		 M29.937,18.633c-0.428,0.028-0.857,0.045-1.286,0.065c-0.584-3.251,2.134-5.888,5.332-4.793c-0.576,1.29,0.052,2.945,1.04,4.225
		C33.404,18.448,31.534,18.527,29.937,18.633z M36.073,17.892c-0.191,0.058-0.409,0.091-0.612,0.139
		c-0.523-0.834-1.147-1.787-1.153-2.781c-0.008-1.322,1.03-2.169,2.227-2.418c2.051-0.427,3.484,0.874,4.742,2.245
		c0.004,0.004,0.011,0.003,0.015,0.007C40.108,16.406,37.279,17.527,36.073,17.892z M41.824,14.057
		c-0.021,0.201-0.099,0.401-0.214,0.597c-0.597-1.276-1.926-2.147-3.347-2.434c0.22-0.347,0.312-0.74,0.315-1.146
		c0.151-0.078,0.317-0.132,0.447-0.152c0.2-0.031,0.384-0.026,0.585-0.005c0.464,0.05,0.903,0.211,1.263,0.515
		c0.759,0.641,0.779,1.422,0.783,2.334c0,0.109,0.092,0.19,0.191,0.215C41.839,14.006,41.827,14.028,41.824,14.057z M22.921,37.26
		c-1.793-0.035-8.282-0.013-8.102-3.319c2.087,0.578,4.362,0.916,6.825,0.987c3.352,0.097,6.772-0.083,9.914-1.114
		C32.977,36.977,24.053,37.282,22.921,37.26z"/>
	<path style="fill:#1D1D1B;" d="M37.442,14.423c-0.187-0.163-0.403-0.27-0.628-0.354c0.191-0.111,0.395-0.179,0.585-0.31
		c0.127-0.088,0.132-0.324-0.047-0.36c-0.468-0.093-0.87,0.159-1.154,0.533c-0.255-0.022-0.513-0.019-0.764,0.031
		c-0.125,0.025-0.098,0.232,0.03,0.224c0.197-0.012,0.377,0.004,0.55,0.035c-0.176,0.331-0.272,0.703-0.26,1.012
		c0.01,0.237,0.349,0.234,0.366,0c0.024-0.33,0.163-0.62,0.373-0.868c0.235,0.098,0.462,0.224,0.695,0.385
		C37.383,14.885,37.621,14.579,37.442,14.423z"/>
	<path style="fill:#1D1D1B;" d="M32.895,14.475c-0.361-0.303-0.877-0.188-1.287-0.075c-0.145,0.04-0.186,0.17-0.159,0.284
		c-0.115-0.098-0.294,0.05-0.215,0.187c0.293,0.509,1.508,1.297,1.894,0.468C33.264,15.047,33.132,14.674,32.895,14.475z
		 M32.326,15.205c-0.261,0.009-0.512-0.169-0.708-0.356c0.038,0.01,0.071,0.029,0.118,0.016c0.168-0.047,0.412-0.134,0.585-0.108
		C32.712,14.818,32.752,15.19,32.326,15.205z"/>
	<path style="fill:#1D1D1B;" d="M24.795,14.808c-0.107-0.243-0.301-0.425-0.534-0.565c0.105-0.037,0.211-0.075,0.319-0.124
		c0.173-0.079,0.131-0.38-0.054-0.415c-0.353-0.066-0.688,0.052-0.968,0.268c-0.396-0.087-0.809-0.099-1.133-0.049
		c-0.163,0.025-0.124,0.295,0.039,0.287c0.264-0.013,0.519,0.025,0.768,0.092c-0.292,0.372-0.467,0.851-0.431,1.265
		c0.015,0.175,0.306,0.25,0.335,0.045c0.056-0.397,0.19-0.75,0.488-1.03c0.035-0.033,0.073-0.054,0.11-0.081
		c0.284,0.171,0.495,0.424,0.774,0.595C24.703,15.218,24.874,14.987,24.795,14.808z"/>
	<path style="fill:#1D1D1B;" d="M19.249,16.273c-0.38-0.398-1.084-0.327-1.529-0.094c-0.168,0.088-0.093,0.37,0.098,0.36
		c0.214-0.01,0.419-0.083,0.632-0.089c0.383-0.012,0.954,0.476,0.214,0.622c-0.375,0.074-1.03-0.143-1.099-0.55
		c-0.025-0.149-0.252-0.107-0.256,0.035c-0.021,0.821,1.507,1.309,2.032,0.73C19.601,17,19.496,16.531,19.249,16.273z"/>
	<path style="fill:#1D1D1B;" d="M30.769,10.061c-0.44-0.355-1.06-0.205-1.566-0.393c-0.229-0.085-0.376,0.277-0.165,0.392
		c0.373,0.202,1.279,0.061,1.489,0.41c0.122,0.065,0.123,0.145,0.001,0.24c-0.041,0.173-0.144,0.21-0.309,0.11
		c-0.143-0.036-0.28-0.096-0.416-0.153c-0.298-0.126-0.572-0.285-0.855-0.44c-0.128-0.07-0.281,0.107-0.162,0.21
		c0.417,0.362,1.923,1.453,2.301,0.487C31.214,10.6,31.018,10.262,30.769,10.061z"/>
	<path style="fill:#1D1D1B;" d="M36.52,9.199c-0.369-0.127-0.786-0.061-1.176,0.098c-0.214-0.12-0.445-0.205-0.668-0.241
		c-0.188-0.03-0.272,0.236-0.08,0.292c0.137,0.04,0.243,0.096,0.344,0.155c-0.226,0.134-0.433,0.288-0.597,0.443
		c-0.152,0.144,0.068,0.345,0.224,0.224c0.218-0.171,0.464-0.291,0.721-0.383c0.173,0.204,0.3,0.453,0.46,0.733
		c0.104,0.182,0.43,0.113,0.413-0.112c-0.022-0.285-0.154-0.536-0.345-0.745c0.235-0.018,0.471-0.011,0.705-0.05
		C36.746,9.574,36.701,9.261,36.52,9.199z"/>
	<path style="fill:#1D1D1B;" d="M13.284,14.646c-0.103-0.198-0.274-0.335-0.473-0.433c0.059-0.066,0.122-0.128,0.173-0.203
		c0.099-0.146-0.069-0.391-0.244-0.318c-0.191,0.08-0.353,0.206-0.491,0.359c-0.288-0.035-0.584-0.017-0.824,0.04
		c-0.209,0.049-0.116,0.346,0.087,0.315c0.168-0.025,0.332-0.024,0.493-0.002c-0.229,0.411-0.343,0.908-0.354,1.331
		c-0.005,0.193,0.315,0.246,0.345,0.047c0.055-0.362,0.164-0.703,0.359-1.017c0.045-0.073,0.104-0.13,0.157-0.193
		c0.18,0.1,0.336,0.233,0.525,0.321C13.198,14.969,13.371,14.814,13.284,14.646z"/>
	<path style="fill:#1D1D1B;" d="M19.516,12.007c-0.301-0.062-0.628,0.007-0.938,0.136c-0.206-0.123-0.425-0.203-0.616-0.205
		c-0.11-0.001-0.184,0.151-0.095,0.228c0.087,0.075,0.179,0.139,0.271,0.205c-0.154,0.095-0.299,0.197-0.422,0.299
		c-0.158,0.13,0.045,0.378,0.215,0.279c0.183-0.107,0.37-0.198,0.563-0.277c0.005,0.005,0.012,0.009,0.016,0.014
		c0.192,0.214,0.27,0.494,0.475,0.69c0.131,0.125,0.325,0.028,0.339-0.141c0.02-0.245-0.104-0.498-0.293-0.717
		c0.164-0.027,0.328-0.053,0.484-0.116C19.685,12.336,19.736,12.052,19.516,12.007z"/>
	<path style="fill:#1D1D1B;" d="M23.075,8.549c-0.315-0.29-0.683-0.418-1.11-0.366c-0.059,0.007-0.099,0.039-0.133,0.074
		c-0.393-0.003-0.772,0.103-1.088,0.371c-0.292,0.248-0.456,0.64-0.118,0.933c0.774,0.671,2.055,0.022,2.487-0.723
		C23.164,8.749,23.152,8.62,23.075,8.549z M21.378,9.343c-0.08-0.004-0.258-0.009-0.327-0.061C20.793,9.087,21,8.96,21.136,8.85
		c0.196-0.158,0.425-0.235,0.664-0.278c0.035,0.042,0.089,0.068,0.165,0.061c0.233-0.021,0.419,0.038,0.597,0.147
		C22.277,9.14,21.851,9.365,21.378,9.343z"/>
	<path style="fill:#1D1D1B;" d="M8.412,14.115c-0.414-0.245-0.991-0.063-1.446-0.08c-0.183-0.007-0.225,0.198-0.129,0.312
		c-0.084,0.03-0.141,0.137-0.066,0.229c0.339,0.412,1.796,1.259,2.04,0.319C8.89,14.591,8.663,14.265,8.412,14.115z M8.271,14.762
		c-0.029,0.091-0.084,0.127-0.165,0.107C8,14.9,7.824,14.843,7.72,14.814c-0.255-0.07-0.473-0.208-0.669-0.379
		c0.382,0.03,1.084-0.135,1.229,0.133C8.393,14.629,8.39,14.693,8.271,14.762z"/>
	<path style="fill:#1D1D1B;" d="M6.006,12.099c-0.281-0.089-0.572-0.04-0.84,0.081c-0.108-0.049-0.219-0.091-0.324-0.116
		c-0.172-0.04-0.241,0.211-0.073,0.264c0.031,0.01,0.049,0.025,0.077,0.036c-0.231,0.167-0.43,0.38-0.564,0.596
		c-0.114,0.183,0.166,0.339,0.285,0.167c0.192-0.277,0.411-0.421,0.656-0.513c0.142,0.153,0.244,0.337,0.397,0.546
		c0.086,0.116,0.307,0.093,0.298-0.081c-0.011-0.227-0.134-0.417-0.294-0.578c0.122-0.027,0.248-0.051,0.382-0.08
		C6.174,12.384,6.154,12.146,6.006,12.099z"/>
	<path style="fill:#1D1D1B;" d="M10.824,9.426C10.309,9.173,9.588,9.01,9.06,9.296C8.92,9.372,9,9.557,9.135,9.571
		c0.375,0.04,0.738-0.014,1.107,0.099c0.281,0.086,0.919,0.324,0.915,0.663c-0.005,0.373-0.753,0.168-0.992,0.077
		C9.762,10.256,9.469,9.98,9.18,9.672c-0.1-0.106-0.253,0.029-0.193,0.149c0.285,0.571,0.881,0.969,1.498,1.103
		c0.405,0.089,1.045,0.078,1.198-0.411C11.839,10.014,11.192,9.607,10.824,9.426z"/>
	<path style="fill:#1D1D1B;" d="M16.058,8.919c0.164-0.061,0.332-0.119,0.505-0.192c0.199-0.084,0.078-0.368-0.102-0.377
		c-0.319-0.016-0.634,0.12-0.916,0.307c-0.122-0.049-0.243-0.094-0.355-0.128c-0.183-0.056-0.312,0.232-0.133,0.315
		c0.049,0.023,0.093,0.056,0.142,0.08c-0.068,0.061-0.138,0.122-0.197,0.183c-0.16,0.168,0.082,0.407,0.254,0.254
		c0.103-0.092,0.209-0.165,0.317-0.227c0.057,0.036,0.122,0.059,0.177,0.1c0.217,0.16,0.377,0.372,0.621,0.488
		c0.117,0.056,0.312-0.041,0.25-0.193C16.518,9.276,16.305,9.078,16.058,8.919z"/>
</g>
<g>
</g>
<g>
</g>
<g>
</g>
<g>
</g>
<g>
</g>
<g>
</g>
<g>
</g>
<g>
</g>
<g>
</g>
<g>
</g>
<g>
</g>
<g>
</g>
<g>
</g>
<g>
</g>
<g>
</g>
</svg>
