<?xml version="1.0" encoding="iso-8859-1"?>
<!-- Generator: Adobe Illustrator 18.0.0, SVG Export Plug-In . SVG Version: 6.00 Build 0)  -->
<!DOCTYPE svg PUBLIC "-//W3C//DTD SVG 1.1//EN" "http://www.w3.org/Graphics/SVG/1.1/DTD/svg11.dtd">
<svg version="1.1" id="Capa_1" xmlns="http://www.w3.org/2000/svg" xmlns:xlink="http://www.w3.org/1999/xlink" x="0px" y="0px"
	 viewBox="0 0 47.203 47.203" style="enable-background:new 0 0 47.203 47.203;" xml:space="preserve">
<g>
	<path style="fill:#1D1D1B;" d="M39.527,17.142c-1.12-2.989-5.043-1.692-7.424-1.022c-0.05,0.014-0.091,0.036-0.123,0.064
		c-0.017-1.06-0.024-2.121-0.056-3.18c-0.001-0.029-0.023-0.04-0.029-0.065c0.028-0.308,0.06-0.613,0.059-0.928
		c0-0.091-0.045-0.148-0.103-0.186c0.047-1.331-0.97-2.56-2.325-2.767c-0.003,0-0.005,0.002-0.008,0.002
		c0.189-2.063,0.099-4.157-0.233-6.185c0.076,0.076,0.242,0.057,0.258-0.063c0.169-1.25-0.979-2.275-2.132-2.635
		c-0.021-0.09-0.073-0.17-0.198-0.175c-0.299-0.01-0.566,0.028-0.819,0.086c-0.001,0-0.002,0-0.003,0
		c-0.003,0-0.004,0.003-0.007,0.003c-1.343,0.315-2.04,1.525-2.232,3.036c-0.19,1.487-0.148,3.085,0.015,4.693
		c-4.078,0.092-8.515-0.022-12.522,0.827c-1.595,0.338-2.969,0.958-3.319,2.48c-0.043,0.033-0.076,0.082-0.083,0.15
		C7.041,22.19,7.08,33.579,7.841,44.526c0.014,0.201,0.185,0.282,0.338,0.262c0.481,1.681,2.429,1.746,4.228,1.965
		c5.207,0.633,10.495,0.574,15.701-0.027c-0.027,0.09,0.054,0.197,0.158,0.135c0.144-0.086,0.285-0.14,0.423-0.199
		c0.007-0.001,0.014-0.001,0.021-0.002c0.085-0.011,0.149-0.051,0.2-0.101c0.07-0.038,0.139-0.082,0.208-0.138
		c0.117-0.094,0.076-0.22-0.014-0.297c2.43-1.755,2.576-4.953,2.6-7.911c2.017,0.418,7.902,1.809,7.424-1.491
		c-0.015-0.103-0.089-0.144-0.17-0.154c0.2-3.174,0.256-6.358,0.353-9.535C39.391,24.468,40.452,19.611,39.527,17.142z
		 M28.764,13.424c-0.011-0.001-0.015-0.011-0.028-0.011c-0.032,0-0.087,0.004-0.124,0.005c0.03-0.023,0.061-0.047,0.076-0.094
		c0.23-0.732,0.407-1.479,0.55-2.234c0.317,0.126,0.514,0.357,0.626,0.647c-0.031,0.278-0.026,0.531-0.172,0.792
		c-0.18,0.322-0.447,0.529-0.806,0.612C28.752,13.172,28.723,13.315,28.764,13.424z M28.362,1.261
		c0.296,0.305,0.465,0.646,0.625,1.001c-0.001,0.007-0.007,0.01-0.006,0.018c0.287,3.746-0.036,7.249-0.683,10.937
		c-0.018,0.102,0.036,0.171,0.104,0.211c-0.222,0.012-0.476,0.03-0.793,0.057c0.873-3.391,1.307-6.886,0.998-10.39
		c-0.062-0.706-0.158-1.431-0.424-1.994C28.242,1.154,28.305,1.202,28.362,1.261z M26.942,0.513
		c2.715,1.378,0.588,11.134,0.108,13.021c-0.461,0.043-0.986,0.094-1.558,0.148C25.072,10.735,23.022,1.132,26.942,0.513z
		 M25.153,13.713c-4.607,0.431-11.908,1.003-14.037-0.648c0.01-0.041,0.011-0.083-0.017-0.12c-0.143-0.19-0.328-0.324-0.475-0.502
		c-0.029-0.069-0.061-0.137-0.078-0.211c-0.011-0.048-0.048-0.068-0.088-0.076c-0.085-0.205-0.106-0.416-0.093-0.627
		c0.014-0.017,0.033-0.028,0.039-0.054c0.284-1.305,6.368-1.223,7.452-1.284c2.202-0.124,4.401-0.138,6.606-0.121
		C24.663,11.324,24.908,12.555,25.153,13.713z M31.301,13.004c-0.082,5.47-0.038,10.941-0.144,16.411
		c-0.086,4.484,1.274,13.644-2.73,16.622c-3.861,0.413-18.473,2.211-20.015-1.866C8.247,33.211,8.5,22.327,8.656,11.374
		c1.131-2.908,6.145-2.545,8.6-2.729c2.315-0.174,4.628-0.271,6.949-0.308c0.01,0,0.012-0.009,0.021-0.009
		c0.048,0.41,0.096,0.821,0.157,1.23c-3.839-0.1-7.698,0.057-11.508,0.551c-0.855,0.111-2.121,0.065-2.591,0.777
		c-0.063-0.005-0.127,0.009-0.162,0.073c-0.34,0.615-0.224,1.888,0.526,2.183c2.3,2.983,15.92,0.929,18.088,0.719
		c0.179-0.017,0.235-0.19,0.186-0.316c0.007,0,0.01,0.007,0.018,0.006c0.855-0.085,1.813-1.033,1.365-1.939
		c-0.006-0.012-0.021-0.016-0.029-0.027c-0.17-0.389-0.551-0.635-0.999-0.687c0.076-0.425,0.118-0.856,0.168-1.285
		c1.248,0.224,2.074,1.427,1.954,2.679c-0.007,0.077,0.037,0.123,0.092,0.154c0.008,0.098,0.011,0.198,0.019,0.295
		C31.4,12.775,31.303,12.85,31.301,13.004z M38.678,25.423c-0.103,3.926-0.28,7.859-0.229,11.787
		c-0.754,1.231-2.44,0.966-3.774,0.829c-0.987-0.102-1.976-0.181-2.968-0.231c0.003-0.561,0.006-1.113,0.023-1.639
		c0.174-5.489,0.295-10.993,0.275-16.491c0.398-0.12,0.755-0.298,1.204-0.304c0.548-0.007,1.1,0.116,1.574,0.393
		c0.05,0.029,0.099,0.02,0.143-0.001c-0.061,2.523-0.06,5.047-0.121,7.57c-0.029,1.202-0.064,2.404-0.107,3.606
		c-0.071,1.996,0.713,3.865-2.444,3.409c-0.213-0.031-0.311,0.267-0.092,0.332c1.762,0.521,2.365,0.768,3.011-0.737
		c0.752-1.75,0.229-5.283,0.275-7.211c0.057-2.404,0.108-4.812,0.051-7.215c-0.008-0.35-0.5-0.356-0.553-0.037
		c-0.473-0.421-0.997-0.692-1.643-0.732c-0.394-0.025-0.898,0.038-1.303,0.226c-0.005-0.772-0.002-1.544-0.013-2.316
		c0.069,0.065,0.164,0.102,0.284,0.072c1.525-0.479,3.092-0.715,4.702-0.706c1.654,0.878,2.273,2.131,1.859,3.76
		C39.104,21.54,38.725,23.644,38.678,25.423z"/>
</g>
<g>
</g>
<g>
</g>
<g>
</g>
<g>
</g>
<g>
</g>
<g>
</g>
<g>
</g>
<g>
</g>
<g>
</g>
<g>
</g>
<g>
</g>
<g>
</g>
<g>
</g>
<g>
</g>
<g>
</g>
</svg>
