<?xml version="1.0" encoding="iso-8859-1"?>
<!-- Generator: Adobe Illustrator 18.0.0, SVG Export Plug-In . SVG Version: 6.00 Build 0)  -->
<!DOCTYPE svg PUBLIC "-//W3C//DTD SVG 1.1//EN" "http://www.w3.org/Graphics/SVG/1.1/DTD/svg11.dtd">
<svg version="1.1" id="Capa_1" xmlns="http://www.w3.org/2000/svg" xmlns:xlink="http://www.w3.org/1999/xlink" x="0px" y="0px"
	 viewBox="0 0 56.43 56.43" style="enable-background:new 0 0 56.43 56.43;" xml:space="preserve">
<g>
	<path style="fill:#1D1D1B;" d="M49.047,3.707c-0.067-0.002-0.136,0.024-0.196,0.092c-0.006,0.007-0.013,0.014-0.019,0.021
		c-0.178,0.089-0.356,0.167-0.531,0.279c-0.151,0.096-0.14,0.261-0.058,0.371C33.179,21.512,16.034,36.381,0.058,52.522
		c-0.137,0.139-0.009,0.322,0.141,0.324c-0.039,0.149,0.037,0.345,0.219,0.326c12.794-1.296,28.218-4.827,37.789-14.054
		c0.168-0.162,0.07-0.364-0.092-0.432c0.13-0.479,0.099-1.049-0.328-1.329c-0.013-0.008-0.026-0.006-0.039-0.01
		c-0.281-2.104-3.898-4.87-4.829-5.727c-0.797-0.734-1.62-1.44-2.449-2.138c0.021-0.005,0.042-0.006,0.064-0.016
		c9.278-4.37,18.009-10.594,24.879-18.257c0.127,0.034,0.267-0.002,0.351-0.159C58.214,6.538,53.431,1.748,49.047,3.707z
		 M55.28,10.428c-7.548,7.467-15.581,13.639-25.023,18.562c-0.089,0.046-0.127,0.115-0.135,0.188
		c-0.04-0.033-0.077-0.069-0.117-0.102c-0.412-0.341-1.125-1.228-1.707-1.289c-0.64-0.067-1.015,0.151-0.88,0.832
		c0.02,0.101,0.111,0.171,0.202,0.202c0.064,0.022,0.128,0.043,0.192,0.065c0.293,0.099,0.481-0.352,0.21-0.498
		c1.802,0.972,3.486,2.858,4.978,4.248c0.873,0.813,5.565,4.438,3.789,5.896c-0.197,0.162,0.043,0.486,0.256,0.382
		c-0.09,0.192-0.197,0.375-0.334,0.543c-0.033,0.041-0.037,0.09-0.029,0.139C26.256,47.489,13.265,50.824,0.474,52.671
		C17.399,37.421,34.293,21.447,49.228,4.23C53.078,2.697,56.906,6.469,55.28,10.428z"/>
	<path style="fill:#1D1D1B;" d="M33.118,36.782c-0.114-0.181-0.349-0.089-0.373,0.101c-0.107,0.838-0.058,1.513-0.607,2.226
		c-0.529,0.686-1.3,1.085-2.17,1.073c-0.263-0.003-0.252,0.376,0,0.401c1.034,0.103,1.996-0.386,2.64-1.184
		C33.15,38.726,33.628,37.589,33.118,36.782z"/>
</g>
<g>
</g>
<g>
</g>
<g>
</g>
<g>
</g>
<g>
</g>
<g>
</g>
<g>
</g>
<g>
</g>
<g>
</g>
<g>
</g>
<g>
</g>
<g>
</g>
<g>
</g>
<g>
</g>
<g>
</g>
</svg>
