<?xml version="1.0" encoding="iso-8859-1"?>
<!-- Generator: Adobe Illustrator 18.0.0, SVG Export Plug-In . SVG Version: 6.00 Build 0)  -->
<!DOCTYPE svg PUBLIC "-//W3C//DTD SVG 1.1//EN" "http://www.w3.org/Graphics/SVG/1.1/DTD/svg11.dtd">
<svg version="1.1" id="Capa_1" xmlns="http://www.w3.org/2000/svg" xmlns:xlink="http://www.w3.org/1999/xlink" x="0px" y="0px"
	 viewBox="0 0 47.759 47.759" style="enable-background:new 0 0 47.759 47.759;" xml:space="preserve">
<g>
	<path style="fill:#1D1D1B;" d="M34.299,5.034c-0.073-0.068-0.154-0.091-0.231-0.085c0.08-0.531,0.144-1.063,0.187-1.598
		c0.044-0.551,0.146-1.134,0.019-1.677c-0.017-0.073-0.063-0.11-0.116-0.131c0.046-0.129,0.007-0.282-0.17-0.327
		c-4.825-1.246-9.9-1.488-14.847-0.937c-1.59,0.177-5.583-0.036-6.282,1.747c-0.087,0.033-0.14,0.129-0.108,0.217
		c-0.077,0.046-0.139,0.115-0.148,0.233c-0.077,1.083-0.021,2.242,0.173,3.311c0.008,0.044,0.036,0.064,0.059,0.09
		c-0.047,0.015-0.085,0.043-0.103,0.085c-0.053-0.004-0.11,0.01-0.162,0.053C5.483,11.97,0.979,21.406,3.358,30.703
		c2.46,9.615,10.78,14.338,20.303,14.726c2.778,0.113,5.624-0.25,8.295-1.083c0.068,0.219,0.166,0.43,0.228,0.653
		c0.064,0.229,0.1,0.461,0.122,0.696c-4.029,1.816-10.891,2.276-14.96,0.1c0.04-0.048,0.067-0.109,0.063-0.193
		c-0.007-0.166-0.033-0.326-0.055-0.491c-0.015-0.1-0.027-0.201-0.035-0.302c0.008-0.042-0.007-0.053-0.017-0.072
		c0.102-0.058,0.145-0.202,0.011-0.284c-0.517-0.317-0.538,0.934-0.52,1.149c0.009,0.104,0.059,0.179,0.126,0.228
		c-0.023,0.06-0.024,0.126,0.038,0.181c1.832,1.606,4.568,1.572,6.889,1.703c3.064,0.172,6.015-0.098,8.784-1.492
		c0.159-0.08,0.181-0.223,0.131-0.346c0.091-0.553,0.064-1.244-0.254-1.723c5.623-1.913,10.381-5.941,11.925-12.065
		C46.938,22.146,41.356,11.66,34.299,5.034z M33.695,5.042c-0.004,0.001-0.007-0.003-0.012-0.002
		c-7.124,2.128-13.314,2.325-20.562,0.862c0.061-0.039,0.112-0.094,0.116-0.177c0.049-1.047,0.029-2.131-0.032-3.179
		c5.805,3.309,14.619,1.728,20.531-0.338c-0.043,0.338-0.042,0.688-0.057,1.019c-0.027,0.581-0.033,1.162-0.016,1.743
		C33.663,4.999,33.683,5.018,33.695,5.042z M23.045,0.665c3.524-0.082,6.958,0.403,10.416,1c-6.184,2.056-13.976,3.18-20.155,0.49
		C15.308,0.326,20.518,0.724,23.045,0.665z M44.164,28.942c-0.795,10.508-10.757,16.191-20.503,15.77
		c-9.476-0.41-17.646-5.177-19.811-14.878c-2.023-9.066,2.739-17.389,9.027-23.512c0.033-0.032,0.034-0.066,0.043-0.1
		c6.6,2.395,14.528,2.056,20.965-0.703c0.001,0,0.001-0.001,0.002-0.002C40.076,11.655,44.846,19.924,44.164,28.942z"/>
	<path style="fill:#1D1D1B;" d="M39.866,30.442c-1.292-0.687-3.011-0.507-3.942,0.685c-0.773,0.99-0.867,2.343-0.201,3.345
		c-0.365-0.086-0.747-0.109-1.126-0.083c1.616-1.83-0.544-5.123-2.811-5.337c-1.117-0.106-2.256,0.401-2.97,1.264
		c-0.456-1.126-1.976-1.739-3.111-1.54c-0.515,0.09-0.969,0.317-1.341,0.633c-0.215-1.806-2.534-3.051-4.22-2.549
		c-0.107,0.032-0.217,0.077-0.327,0.129c-0.44-1.39-2.407-1.943-3.658-1.448c-0.326,0.129-0.739,0.429-1.105,0.806
		c0.08-0.971-0.302-1.973-1.101-2.584c-1.097-0.839-2.788-0.868-3.879,0.001c-0.639,0.509-0.964,1.348-0.816,2.072
		c-0.458-0.2-0.967-0.278-1.493-0.184c-1.307,0.233-2.261,1.383-2.212,2.715c0.037,1.001,0.748,2.142,1.752,2.187
		c-0.126,0.105-0.245,0.22-0.354,0.347c-0.892,1.044-0.961,2.69-0.14,3.792c0.635,0.853,1.858,1.423,2.902,1.124
		c-0.098,0.25-0.168,0.518-0.199,0.807c-0.163,1.486,0.784,2.872,2.173,3.377c0.856,0.311,2.013,0.252,2.549-0.421
		c0.043,0.786,0.248,1.51,0.972,1.943c0.953,0.57,2.352,0.641,3.406,0.361c0.906-0.241,1.708-0.816,2.218-1.569
		c0.086,2.71,3.9,3.26,5.658,1.594c-0.019,1.05,2.354,1.251,3.02,1.162c1.491-0.2,2.815-1.354,3.047-2.872
		c0.069-0.454,0.037-0.867-0.062-1.243c0.711,1.115,2.098,1.694,3.432,1.229c1.46-0.509,2.297-2.236,1.926-3.713
		c1.406,0.688,2.961-0.573,3.455-1.89C41.892,33.025,41.367,31.24,39.866,30.442z M29.917,30.21
		c0.693-0.467,1.556-0.607,2.352-0.354c1.517,0.483,3.238,3.235,1.397,4.418c-0.142,0.091-0.182,0.232-0.157,0.361
		c-0.072,0.028-0.147,0.047-0.217,0.08c-0.231,0.11-0.453,0.272-0.657,0.464c-0.051-0.08-0.134-0.137-0.243-0.098
		c-0.567,0.206-1.053,0.105-1.592-0.121c-0.03-0.013-0.05,0.002-0.076,0c-0.145-0.798-0.591-1.54-1.313-1.962
		c-0.173-0.101-0.365-0.173-0.562-0.229C28.132,32.088,29.527,30.473,29.917,30.21z M26.023,29.406
		c1.158-0.067,1.762,0.675,2.43,1.467c-0.267,0.517-0.449,1.253-0.255,1.794c-0.966-0.047-1.986,0.35-2.456,1.161
		c-0.279-0.979-0.962-1.834-1.945-2.278C24.052,30.493,24.863,29.473,26.023,29.406z M21.042,27.414
		c1.674-0.012,2.304,1.296,2.771,2.62c-0.256,0.397-0.418,0.859-0.457,1.35c-0.129-0.038-0.259-0.076-0.397-0.101
		c-1.185-0.21-2.329,0.26-3.094,1.06c-0.195-0.629-0.627-1.027-1.162-1.247c-0.726-0.712-0.32-1.905,0.216-2.579
		C19.435,27.87,20.196,27.42,21.042,27.414z M19.22,35.792c-0.722-0.166-1.518-0.104-2.233,0.213
		c-0.162-0.021-0.311-0.006-0.46,0.008c-0.185-0.89-0.69-1.521-1.349-1.911c0.037-0.069,0.052-0.149,0.006-0.241
		c-1.047-2.098,3.694-3.485,4.102-0.79c0.003,0.018,0.013,0.03,0.018,0.047C18.881,33.914,18.785,34.868,19.22,35.792z
		 M11.84,32.673c-0.012-0.572-0.125-1.126-0.42-1.596c-0.016-2.94,4.812-2.819,4.685-0.074c-0.003,0.056,0.023,0.102,0.051,0.145
		c-1.003,0.378-1.782,1.131-1.721,2.064C13.552,33.582,12.509,33.351,11.84,32.673z M12.57,33.695
		c-0.289,0.049-0.575,0.117-0.848,0.222c0.053-0.24,0.091-0.484,0.112-0.729C12.049,33.404,12.297,33.573,12.57,33.695z
		 M11.158,28.763c0.174,0.061,0.351,0.105,0.532,0.134c-0.466,0.425-0.764,0.998-0.715,1.651c-0.116-0.103-0.239-0.202-0.382-0.289
		c-0.038-0.023-0.079-0.036-0.117-0.056C10.951,29.889,11.146,29.337,11.158,28.763z M15.326,26.956
		c0.333-0.463,0.829-0.812,1.39-0.937c1.184-0.264,1.906,0.478,2.64,1.237c-1.197,0.825-2.251,2.562-1.359,3.663
		c-0.414-0.051-0.851-0.031-1.276,0.062c0.382-1.156-0.663-2.087-1.775-2.536c-0.022-0.072-0.12-0.122-0.187-0.077
		c0.143-0.098,0.102-0.396,0.142-0.541C14.989,27.508,15.134,27.223,15.326,26.956z M11.163,23.966
		c0.91-0.31,2.046-0.067,2.681,0.678c0.689,0.809,0.689,2.123-0.023,2.918c-0.68,0.758-1.699,0.854-2.612,0.547
		c-0.04-0.014-0.079-0.016-0.115-0.013c-0.037-0.172-0.083-0.339-0.146-0.493c-0.197-0.479-0.506-0.911-0.889-1.251
		C9.503,25.44,10.124,24.32,11.163,23.966z M6.231,28.109c0.077-1.015,0.954-1.796,1.963-1.808c1.499-0.018,3.247,2.351,1.734,3.488
		c-0.057,0.042-0.091,0.101-0.112,0.164C9.211,29.812,8.577,29.88,8.01,30.13c-0.043-0.045-0.1-0.078-0.185-0.064
		C6.783,30.237,6.164,28.986,6.231,28.109z M7.653,34.597c-0.796-0.745-0.926-2.019-0.366-2.94c0.562-0.923,1.732-1.332,2.717-0.873
		c1.316,0.614,1.242,2.047,0.942,3.252c-0.026,0.103-0.006,0.189,0.034,0.261c-0.397,0.259-0.739,0.593-0.995,0.995
		C9.142,35.261,8.313,35.214,7.653,34.597z M14.257,38.85c-0.573,0.903-1.965,0.802-2.772,0.335
		c-1.024-0.592-1.547-1.768-1.229-2.922c0.719-2.601,4.935-2.713,5.65-0.092C14.961,36.602,14.379,37.75,14.257,38.85z
		 M19.09,40.995c-1.415,0.711-4.082,0.577-4.213-1.47c-0.092-1.443,0.545-2.786,1.95-3.078c0.062,0.065,0.142,0.112,0.243,0.088
		c1.44-0.345,3.167-0.338,3.599,1.433C20.975,39.222,20.195,40.439,19.09,40.995z M19.639,35.907
		c-0.475-2.099,0.883-4.432,3.28-3.94c2.294,0.471,2.83,3.061,1.55,4.776c-1.206-0.133-2.473,0.281-3.127,1.279
		c-0.013-0.077-0.011-0.153-0.03-0.231C21.075,36.834,20.431,36.21,19.639,35.907z M21.244,40.304
		c0.089-0.021,0.167-0.081,0.162-0.209c-0.066-1.971,1.621-2.919,3.107-2.738c0.062,0.038,0.133,0.052,0.207,0.037
		c1.022,0.202,1.903,0.951,1.971,2.308C26.846,42.816,21.721,43.088,21.244,40.304z M25.223,36.906
		c0.555-0.767,0.745-1.673,0.634-2.535c0.841-0.839,2.07-1.484,3.219-0.798c1.106,0.66,1.278,2.147,0.689,3.198
		c-1.096-0.139-2.265,0.201-3.019,1.152C26.36,37.427,25.816,37.1,25.223,36.906z M30.417,42.085
		c-0.518,0.278-1.098,0.388-1.684,0.355c-0.328-0.019-1.823-0.196-1.809-0.715c0.002-0.09-0.051-0.14-0.115-0.167
		c0.335-0.448,0.549-1.006,0.558-1.688c0.007-0.538-0.106-0.999-0.291-1.399c1.49-1.593,4.801-1.528,4.835,1.233
		C31.924,40.714,31.289,41.616,30.417,42.085z M31.667,37.612c-0.352-0.318-0.784-0.549-1.247-0.696
		c0.239-0.416,0.345-0.888,0.353-1.361c0.448,0.249,0.972,0.262,1.453,0.099C31.805,36.237,31.555,36.961,31.667,37.612z
		 M35.497,39.653c-1.059,0.283-2.21-0.241-2.882-1.077c0.015-0.037,0.019-0.078,0.006-0.118c-0.191-0.6-0.423-1.129-0.246-1.78
		c0.207-0.759,0.834-1.311,1.573-1.529c1.37-0.405,3.061,0.131,3.311,1.687C37.451,38.026,36.687,39.335,35.497,39.653z
		 M37.913,35.838c-0.116-0.041-0.212-0.006-0.279,0.063c-0.297-0.573-0.767-0.985-1.331-1.233c-1.155-1.983,0.404-4.608,2.806-3.83
		C42.006,31.775,40.892,36.9,37.913,35.838z"/>
</g>
<g>
</g>
<g>
</g>
<g>
</g>
<g>
</g>
<g>
</g>
<g>
</g>
<g>
</g>
<g>
</g>
<g>
</g>
<g>
</g>
<g>
</g>
<g>
</g>
<g>
</g>
<g>
</g>
<g>
</g>
</svg>
