<?xml version="1.0" encoding="iso-8859-1"?>
<!-- Generator: Adobe Illustrator 18.0.0, SVG Export Plug-In . SVG Version: 6.00 Build 0)  -->
<!DOCTYPE svg PUBLIC "-//W3C//DTD SVG 1.1//EN" "http://www.w3.org/Graphics/SVG/1.1/DTD/svg11.dtd">
<svg version="1.1" id="Capa_1" xmlns="http://www.w3.org/2000/svg" xmlns:xlink="http://www.w3.org/1999/xlink" x="0px" y="0px"
	 viewBox="0 0 56.178 56.178" style="enable-background:new 0 0 56.178 56.178;" xml:space="preserve">
<g>
	<path style="fill:#1D1D1B;" d="M40.749,14.252c0.013-0.252-0.413-0.318-0.449-0.061c-1.763,12.795-2.48,25.815-3.442,38.692
		c-3.742,3.72-11.451,3.299-15.894,0.915c-0.032-0.017-0.062-0.019-0.09-0.014c-1.593-13.106-2.714-26.265-4.3-39.368
		c-0.033-0.271-0.454-0.286-0.436,0c0.824,13.2,2.521,26.391,4.12,39.516c0.041,0.34,0.503,0.391,0.61,0.15
		c1.707,1.98,6.504,2.076,8.903,2.095c2.901,0.023,5.539-0.725,7.597-2.837c0.061-0.063,0.085-0.132,0.091-0.201
		c0.054-0.055,0.095-0.126,0.103-0.221C38.583,40.043,40.093,27.148,40.749,14.252z"/>
	<path style="fill:#1D1D1B;" d="M33.909,3.546c0.375-1.014,0.619-1.123,1.7-1.205c0.44-0.034,0.887-0.001,1.327,0.028
		c1.336,0.087,2.6,0.354,3.883,0.718c0.118,0.034,0.209-0.01,0.27-0.081c0.028,0.02,0.05,0.045,0.081,0.062
		c0.085,0.049,0.184-0.029,0.187-0.11c0.221-0.064,0.416-0.213,0.544-0.428c0.295-0.493,0.126-1.096-0.086-1.584
		c-0.059-0.136-0.192-0.135-0.295-0.073c-0.02-0.011-0.026-0.032-0.052-0.038c-1.925-0.424-3.873-0.684-5.843-0.745
		c-1.002-0.031-2.812-0.358-3.631,0.461c-0.762,0.761-0.507,2.425-0.518,3.36c-0.016,1.382,0.018,2.762,0.119,4.138
		c-0.043-0.035-0.086-0.071-0.154-0.075c-5.561-0.299-11.602,0.182-16.732,2.517c-0.013,0.006-0.015,0.018-0.024,0.027
		c-0.006-0.003-0.013-0.005-0.019-0.008c-0.117-0.048-0.215,0.029-0.254,0.13c-0.131,0.012-0.257,0.097-0.264,0.27
		c-0.02,0.454-0.019,0.911-0.017,1.366c0.001,0.34-0.044,0.723,0.062,1.049c0.044,0.133,0.18,0.223,0.322,0.183
		c0.08-0.023,0.148-0.03,0.202-0.056c-0.033,0.1,0.001,0.217,0.137,0.257c7.709,2.273,18.822,3.501,26.301-0.098
		c0.137-0.066,0.182-0.179,0.17-0.29c0.08,0.006,0.165-0.011,0.217-0.08c0.8-1.061,0.197-2.706-1.024-3.115
		c-0.188-0.063-0.312,0.113-0.294,0.273c-0.008,0-0.016,0.004-0.024,0.004c-0.007-0.11-0.065-0.219-0.19-0.271
		c-2.033-0.854-4.086-1.597-6.22-2.149C33.598,6.426,33.437,4.825,33.909,3.546z M41.238,1.3c0.03,0.006,0.067,0.014,0.096,0.02
		c0.041,0.008,0.07-0.013,0.104-0.021c0.105,0.467,0.243,1.298-0.325,1.346c-0.001-0.002-0.005-0.003-0.006-0.005
		c-0.145-0.211-0.208-0.465-0.176-0.737C40.962,1.631,41.099,1.48,41.238,1.3z M32.047,1.997c1.138-2.508,6.21-1.333,8.714-0.796
		c-0.141,0.224-0.218,0.51-0.219,0.735c-0.001,0.182,0.039,0.35,0.1,0.507c-1.955-0.581-5.459-1.493-7.065,0.007
		c-0.809,0.755-0.563,1.893-0.476,2.879c0.154,1.731,0.291,3.47,0.572,5.187c-0.18,0.051-0.36,0.107-0.539,0.175
		c-0.293-0.203-0.617-0.349-0.953-0.455c-0.042-1.342-0.114-2.683-0.148-4.025C32.005,5.144,31.604,2.972,32.047,1.997z
		 M40.443,10.931c0.063-0.065,0.086-0.137,0.087-0.207c0.713,0.552,0.943,1.47,0.617,2.326c-0.094-0.061-0.213-0.085-0.339-0.027
		c-7.672,3.529-17.911,1.68-25.845,0.28c-0.063-0.011-0.115,0.004-0.158,0.031c0.007-0.02,0.016-0.034,0.02-0.06
		c0.012-0.083-0.039-0.143-0.1-0.162c0.015-0.223-0.015-0.481-0.011-0.64c0.012-0.485,0.021-0.972,0.011-1.457
		c4.66,2.254,9.696,2.778,14.834,2.632C33.198,13.543,37.718,13.716,40.443,10.931z M39.795,10.667
		c-3.003,2.723-9.061,2.452-12.823,2.398c-4.233-0.06-8.035-0.861-11.919-2.405c5.498-1.316,10.671-2.413,16.386-2.12
		c0.081,0.004,0.138-0.028,0.183-0.069c0.047,0.557,0.104,1.113,0.179,1.668c-0.337-0.066-0.685-0.094-1.038-0.058
		c-0.198,0.02-0.204,0.301,0,0.313c0.647,0.037,1.233,0.241,1.756,0.566c-0.414,0.209-0.81,0.444-1.141,0.692
		c-0.172,0.129-0.03,0.376,0.169,0.288c0.484-0.214,0.964-0.437,1.46-0.623c0.12,0.104,0.244,0.202,0.353,0.323
		c0.246,0.27,0.643-0.13,0.4-0.4c-0.043-0.048-0.097-0.08-0.142-0.125c0.316-0.092,0.633-0.181,0.936-0.311
		c0.215-0.092,0.104-0.449-0.118-0.436c-0.136,0.008-0.277,0.042-0.416,0.069c-0.016-0.65-0.1-1.358-0.188-2.081
		C35.827,9.106,37.826,9.848,39.795,10.667z"/>
</g>
<g>
</g>
<g>
</g>
<g>
</g>
<g>
</g>
<g>
</g>
<g>
</g>
<g>
</g>
<g>
</g>
<g>
</g>
<g>
</g>
<g>
</g>
<g>
</g>
<g>
</g>
<g>
</g>
<g>
</g>
</svg>
