<?xml version="1.0" encoding="iso-8859-1"?>
<!-- Generator: Adobe Illustrator 18.0.0, SVG Export Plug-In . SVG Version: 6.00 Build 0)  -->
<!DOCTYPE svg PUBLIC "-//W3C//DTD SVG 1.1//EN" "http://www.w3.org/Graphics/SVG/1.1/DTD/svg11.dtd">
<svg version="1.1" id="Capa_1" xmlns="http://www.w3.org/2000/svg" xmlns:xlink="http://www.w3.org/1999/xlink" x="0px" y="0px"
	 viewBox="0 0 54.124 54.124" style="enable-background:new 0 0 54.124 54.124;" xml:space="preserve">
<g>
	<path style="fill:#1D1D1B;" d="M53.877,17.906C52.784,9.55,44.761,6.478,38.07,9.243c-1.616-5.526-6.418-9.514-12.35-9.228
		c-5.088,0.245-9.955,3.782-9.992,9.068C9.871,7.078,1.676,12.03,0.393,18.486c-1.787,8.994,6.4,15.843,14.43,14.311
		c0.725,5.651,0.674,11.144-0.024,16.797c-0.016,0.132,0.086,0.212,0.2,0.232c0.924,2.695,7.531,3.672,9.392,3.964
		c6.196,0.973,12.339-0.198,17.802-3.226c0.331-0.184,0.066-0.66-0.264-0.545c-0.29-6.019,0.027-11.824,0.752-17.801
		C49.31,32.605,54.799,24.959,53.877,17.906z M28.416,53.49c-2.122-0.039-11.932-0.939-12.95-3.923
		c0.067-0.005,0.128-0.078,0.084-0.148c-0.883-1.398,8.387-2.613,11.571-2.888c0.021,0.008,0.042-0.002,0.064-0.005
		c0.419-0.035,0.728-0.054,0.88-0.053c2.186,0.018,8.541,0.031,11.548,1.775c0.012,0.012,0.029,0.019,0.044,0.03
		c0.654,0.388,1.151,0.857,1.396,1.432c0.117,0.275,0.434,0.185,0.553-0.027c0.02,0.152,0.037,0.305,0.059,0.457
		C37.51,52.282,33.13,53.576,28.416,53.49z M37.621,29.699c-0.28-0.178-0.505,0.245-0.254,0.434c1.58,1.189,3.172,1.827,4.712,2.03
		c-1.12,5.59-1.236,11.413-0.533,17.069c-0.316-0.641-0.822-1.097-1.42-1.451c0.05-0.002,0.09-0.04,0.119-0.086
		c0.015-0.02,0.025-0.039,0.03-0.062c0.001-0.006,0.001-0.011,0.001-0.017c0.003-0.028-0.005-0.053-0.023-0.077
		c-0.006-0.013-0.001-0.026-0.011-0.038c-0.124-0.157-0.201-0.324-0.245-0.498c0.176-2.452,0.256-5.043-0.218-7.458
		c-0.04-0.204-0.362-0.155-0.359,0.049c0.033,2.57,0.254,5.102,0.135,7.679c-0.008,0.171,0.147,0.222,0.273,0.179
		c0.007,0.013,0.018,0.025,0.026,0.038c-0.047,0.02-0.098,0.034-0.137,0.068c-0.34-0.162-0.696-0.305-1.075-0.417
		c0.079-2.397,0.101-4.801,0.101-7.199c0-0.353-0.548-0.353-0.548,0c-0.001,2.365,0.022,4.736,0.098,7.1
		c-0.407-0.104-0.824-0.19-1.241-0.261c0.049-0.042,0.086-0.098,0.072-0.179c-0.485-2.656-0.44-5.241,0.086-7.888
		c0.066-0.33-0.434-0.473-0.509-0.14c-0.605,2.701-0.572,5.436,0.053,8.13c0.003,0.014,0.015,0.016,0.021,0.028
		c-0.695-0.11-1.379-0.193-1.994-0.287c0.317-2.829,0.409-5.658,0.257-8.501c-0.018-0.347-0.56-0.349-0.541,0
		c0.155,2.821,0.134,5.633-0.068,8.45c-0.417-0.067-0.835-0.123-1.254-0.176c-0.216-2.902-0.011-5.733-0.015-8.629
		c0-0.214-0.338-0.273-0.383-0.052c-0.572,2.773-0.368,5.83,0.009,8.627c-0.566-0.066-1.132-0.119-1.7-0.16
		c0.104-0.269,0.01-0.612-0.205-0.805c0.398-2.603,0.673-5.303,0.502-7.925c-0.02-0.3-0.449-0.301-0.468,0
		c-0.173,2.793-0.238,5.564-0.55,8.351c-0.007,0.061,0.015,0.11,0.051,0.147c-0.113-0.039-0.246,0.051-0.255,0.182
		c-0.813-0.041-1.627-0.067-2.442-0.063c0.314-0.739,0.252-1.788,0.336-2.485c0.286-2.368,0.416-4.747,0.398-7.133
		c-0.003-0.375-0.581-0.376-0.584,0c-0.011,1.757-0.061,3.51-0.202,5.261c-0.06,0.75-0.135,1.498-0.223,2.245
		c0.034-0.289-0.125,1.375-0.181,2.121c-0.796,0.013-1.593,0.043-2.388,0.096c-0.014-0.022-0.017-0.046-0.035-0.067
		c-0.051-0.056-0.119-0.05-0.176-0.022c-0.031-0.048-0.082-0.076-0.144-0.08c0.387-1.286,0.353-2.713,0.44-4.048
		c0.105-1.616,0.2-3.232,0.285-4.85c0.019-0.354-0.523-0.35-0.548,0c-0.117,1.616-0.224,3.232-0.32,4.85
		c-0.08,1.346-0.291,2.741-0.059,4.072c-0.045,0.021-0.084,0.052-0.104,0.096c-0.017,0.036-0.029,0.076-0.038,0.116
		c-0.531,0.045-1.063,0.084-1.593,0.153c-0.074,0.01-0.188,0.023-0.328,0.039c0.238-3.21,0.391-6.432,0.525-9.648
		c0.015-0.367-0.552-0.365-0.57,0c-0.157,3.217-0.297,6.442-0.35,9.662c0,0.014,0.01,0.019,0.013,0.031
		c-0.479,0.057-1.124,0.139-1.832,0.252c-0.045-3.206,0.19-6.426,0.104-9.625c-0.006-0.228-0.383-0.303-0.418-0.057
		c-0.442,3.179-0.282,6.54-0.105,9.734c0,0.007,0.007,0.009,0.008,0.016c-0.665,0.115-1.36,0.254-2.007,0.427
		c0.022-0.031,0.047-0.061,0.048-0.109c0.063-3.34,0.224-6.661,0.449-9.994c0.022-0.328-0.466-0.314-0.503,0
		c-0.383,3.311-0.496,6.664-0.371,9.994c0.004,0.099,0.065,0.15,0.135,0.177c-0.732,0.211-1.382,0.464-1.815,0.771
		c0.734-5.049,0.64-10.164-0.191-15.204c1.164-0.278,2.32-0.736,3.436-1.393c0.284-0.167,0.035-0.579-0.256-0.437
		C10.07,35-0.983,28.882,1.105,18.682c1.649-8.058,14.528-13.967,18.903-4.524c0.177,0.382,0.718,0.049,0.558-0.327
		c-1.02-2.4-2.618-3.871-4.477-4.612c0.541-5.41,5.749-8.81,11.002-8.453c5.112,0.347,8.892,4.019,10.283,8.792
		c-1.311,0.631-2.558,1.491-3.675,2.591c-0.33,0.325,0.165,0.811,0.505,0.505c6.612-5.955,17.56-4.666,18.863,5.365
		C54.181,26.597,46.066,35.07,37.621,29.699z"/>
</g>
<g>
</g>
<g>
</g>
<g>
</g>
<g>
</g>
<g>
</g>
<g>
</g>
<g>
</g>
<g>
</g>
<g>
</g>
<g>
</g>
<g>
</g>
<g>
</g>
<g>
</g>
<g>
</g>
<g>
</g>
</svg>
