<?xml version="1.0" encoding="iso-8859-1"?>
<!-- Generator: Adobe Illustrator 18.0.0, SVG Export Plug-In . SVG Version: 6.00 Build 0)  -->
<!DOCTYPE svg PUBLIC "-//W3C//DTD SVG 1.1//EN" "http://www.w3.org/Graphics/SVG/1.1/DTD/svg11.dtd">
<svg version="1.1" id="Capa_1" xmlns="http://www.w3.org/2000/svg" xmlns:xlink="http://www.w3.org/1999/xlink" x="0px" y="0px"
	 viewBox="0 0 62.898 62.898" style="enable-background:new 0 0 62.898 62.898;" xml:space="preserve">
<path style="fill:#1D1D1B;" d="M50.869,5.551c0.542-4.088-3.999-7.162-7.556-4.632c-1.352,0.961-2.372,2.812-1.592,4.444
	c0.765,1.601,2.767,2.06,4.389,1.729c-3.999,4.336-7.542,9.459-10.439,14.579c-0.042-0.098-0.085-0.195-0.133-0.282
	c-0.496-0.882-1.435-1.535-2.474-1.44c-1.978,0.181-2.874,2.783-1.769,4.282c-9.431,0.195-18.317,5.656-23.215,13.661
	c-4.203,6.869-6.131,17.826,2.255,22.417c7.34,4.018,19.286,3.568,25.127-2.805c6.851-7.475,7.545-18.973,3.813-28.021
	c1.083,0.257,2.232,0.432,3.274-0.057c0.834-0.39,1.49-1.162,1.472-2.119c-0.038-2.105-2.299-2.661-3.897-1.937
	c3.83-4.495,7.327-9.347,10.388-14.399c-0.022,2.055,1.793,3.545,3.854,3.323c2.182-0.235,3.752-2.085,4.013-4.196
	C58.884,5.998,54.057,3.116,50.869,5.551z M42.099,25.615c0.843,0.274,1.527,1.227,1.264,2.126
	c-0.543,1.857-3.042,1.316-4.378,0.974c-0.227-0.058-0.379,0.104-0.41,0.283c-0.109,0.082-0.175,0.212-0.114,0.36
	c3.352,8.207,3.255,17.859-1.831,25.401c-5.218,7.737-16.502,8.945-24.681,5.401C1.92,55.814,4.775,43.57,9.912,36.489
	c5.127-7.067,12.972-10.945,21.538-11.757c0.184-0.017,0.254-0.18,0.228-0.318c0.153-0.065,0.268-0.245,0.15-0.402
	c-0.847-1.131-0.247-3.123,1.241-3.365c0.77-0.125,1.489,0.339,1.881,0.979c0.467,0.761,0.328,1.354,0.136,2.157
	c-0.056,0.236,0.235,0.421,0.414,0.241c0.057-0.057,0.099-0.124,0.144-0.188c-0.004,0.034-0.018,0.064-0.02,0.099
	c-0.018,0.296,0.421,0.283,0.454,0c0.144-1.251,1.753-2.183,2.863-1.448c0.476,0.315,0.725,0.906,0.746,1.462
	c0.026,0.671-0.259,1.084-0.664,1.58c-0.187,0.229,0.042,0.561,0.322,0.417c0.065-0.033,0.107-0.087,0.165-0.127
	c-0.015,0.146,0.121,0.297,0.287,0.199C40.488,25.607,41.301,25.355,42.099,25.615z M56.054,12.894
	c-1.944,1.357-5.122,0.566-4.814-2.264c0.028-0.255-0.177-0.365-0.377-0.341c-0.021-0.273-0.428-0.439-0.62-0.146
	c-3.183,4.855-6.497,9.572-9.976,14.214c0.068-0.94-0.355-1.98-1.101-2.418c-1.177-0.691-2.637-0.058-3.247,1.049
	c0.017-0.282-0.018-0.575-0.088-0.853c3.605-5.131,7.384-10.1,11.073-15.164c0.173-0.237-0.206-0.521-0.403-0.311
	c-0.011,0.012-0.022,0.025-0.034,0.037c-0.021-0.005-0.038-0.018-0.063-0.014c-1.441,0.199-3.205-0.126-3.951-1.516
	c-0.962-1.792,0.66-3.725,2.334-4.303c3.243-1.12,6.051,1.77,5.429,4.985c-0.019,0.099,0.006,0.182,0.055,0.246
	c-0.003,0.003-0.006,0.005-0.009,0.008c-0.142,0.152,0.05,0.44,0.234,0.304c2.598-1.917,6.831-1.104,7.213,2.532
	C57.864,10.424,57.306,12.019,56.054,12.894z"/>
<g>
</g>
<g>
</g>
<g>
</g>
<g>
</g>
<g>
</g>
<g>
</g>
<g>
</g>
<g>
</g>
<g>
</g>
<g>
</g>
<g>
</g>
<g>
</g>
<g>
</g>
<g>
</g>
<g>
</g>
</svg>
