<?xml version="1.0" encoding="iso-8859-1"?>
<!-- Generator: Adobe Illustrator 18.0.0, SVG Export Plug-In . SVG Version: 6.00 Build 0)  -->
<!DOCTYPE svg PUBLIC "-//W3C//DTD SVG 1.1//EN" "http://www.w3.org/Graphics/SVG/1.1/DTD/svg11.dtd">
<svg version="1.1" id="Capa_1" xmlns="http://www.w3.org/2000/svg" xmlns:xlink="http://www.w3.org/1999/xlink" x="0px" y="0px"
	 viewBox="0 0 62.569 62.569" style="enable-background:new 0 0 62.569 62.569;" xml:space="preserve">
<g>
	<path style="fill:#1D1D1B;" d="M58.411,50.338c-0.217-0.015-0.435-0.022-0.652-0.037c2.188-4.6,2.812-10.164,1.031-14.998
		c-0.12-0.326-0.589-0.201-0.522,0.144c1.013,5.228,0.925,9.868-0.998,14.826c-8.567-0.563-17.188-0.653-25.766-0.942
		c-4.164-0.14-8.318-0.351-12.479-0.027c-4.199,0.327-8.23,0.928-12.443,0.479c-2.314-4.473-2.469-9.317,0.013-13.745
		c1.821,0.45,5.168-0.384,7.069-0.466c1.988-0.086,3.976-0.166,5.964-0.241c4.308-0.162,8.617-0.29,12.928-0.386
		c8.621-0.191,17.243-0.227,25.866-0.172c0.464,0.003,0.464-0.716,0-0.721c-9.617-0.097-19.236-0.019-28.849,0.235
		c-4.641,0.123-9.282,0.284-13.92,0.493c-2.608,0.118-6.225-0.35-8.845,0.493c-0.135-0.195-0.463-0.266-0.633-0.002
		c-0.065,0.101-0.122,0.207-0.185,0.31c-0.002,0.001-0.004,0.001-0.006,0.002c-0.101,0.049-0.142,0.144-0.139,0.24
		c-2.518,4.333-2.559,9.876,0.295,14.059c-0.116,0.168-0.085,0.463,0.156,0.502c7.84,1.259,16.281-0.515,24.248-0.245
		c8.85,0.3,17.735,0.808,26.594,0.826c0.078,0.07,0.197,0.083,0.275,0.003c0.333,0,0.667,0.012,1,0.01
		C58.826,50.976,58.818,50.367,58.411,50.338z"/>
	<path style="fill:#1D1D1B;" d="M61.187,49.35c0.973-3.425,1.392-6.797,1.309-10.338c0.038-0.046,0.073-0.097,0.073-0.176
		c-0.017-3.3-1.583-5.274-3.886-6.441c-0.009-0.041-0.026-0.082-0.059-0.121c-7.309-8.518-17.491-13.868-25.662-21.511
		c-0.054-0.226-0.132-0.451-0.266-0.673c-0.427-0.711-1.22-1.23-2.052-1.395c0.008-0.088-0.041-0.182-0.157-0.187
		c-0.47-0.021-0.906,0.103-1.295,0.314c-0.199,0.087-0.389,0.198-0.562,0.352c-0.033,0.03-0.042,0.065-0.048,0.101
		c-0.176,0.17-0.328,0.364-0.461,0.572c-0.063-0.11-0.204-0.176-0.32-0.058c-7.861,8.023-16.139,15.512-24.463,23.041
		c-0.135,0.123,0.06,0.304,0.196,0.196c8.702-6.846,16.738-14.634,24.328-22.685c-0.18,0.436-0.266,0.912-0.215,1.39
		c0.028,0.263,0.105,0.495,0.202,0.711c-0.036,0.086,0.015,0.182,0.105,0.196c0.599,1.029,1.951,1.422,3.149,1.041
		c1.027-0.327,1.78-1.186,1.897-2.161c6.985,7.974,17.382,12.506,24.557,20.393c-4.485-1.659-10.922-1.007-14.73-0.978
		c-12.306,0.093-25.076-0.76-37.258,1.261c0.03-0.189-0.168-0.394-0.396-0.284c-7.19,3.47-7.271,22.908,2.204,21.666
		c0.015,0.003,0.021,0.017,0.038,0.017c12.058,0.141,24.119,0.115,36.178,0.145c5.348,0.013,17.017,2.271,18.533-5.259
		c0.076-0.376-0.491-0.539-0.58-0.16c-1.483,6.34-10.222,4.788-15.02,4.777c-4.237-0.01-8.474-0.02-12.711-0.03
		c-8.8-0.021-17.6-0.068-26.4-0.007c-0.122,0.001-0.184,0.074-0.22,0.159c-4.998-0.041-6.132-6.272-6.346-10.218
		c-0.23-4.237,0.672-8.01,4.328-10.445c0.032,0.095,0.099,0.176,0.215,0.163c8.92-1.005,17.843-0.976,26.806-1.055
		c7.211-0.064,28.537-3.371,29.728,6.672c-0.005,0.023-0.025,0.034-0.024,0.061c0.116,3.654-0.211,7.308-0.964,10.886
		C60.906,49.442,61.141,49.51,61.187,49.35z M29.2,9.31c0.512-0.209,1.07-0.228,1.586-0.09c-0.035,0.012-0.068,0.029-0.091,0.064
		c-0.266,0.396-0.497,0.8-0.764,1.186c-0.407-0.226-0.824-0.431-1.26-0.6C28.824,9.66,28.996,9.466,29.2,9.31z M28.154,11.538
		c-0.03-0.478,0.101-0.949,0.328-1.367c0.423,0.169,0.829,0.376,1.222,0.603c-0.064,0.081-0.124,0.164-0.194,0.242
		c-0.368,0.41-0.79,0.756-1.234,1.077C28.213,11.924,28.166,11.742,28.154,11.538z M30.871,13.185
		c-0.943,0.272-1.974-0.013-2.451-0.788c0.586-0.375,1.163-0.853,1.641-1.403c0.091,0.059,0.188,0.107,0.277,0.17
		c0.557,0.397,0.99,0.968,1.561,1.329c0.029,0.018,0.056,0.019,0.083,0.018C31.69,12.819,31.305,13.06,30.871,13.185z
		 M32.125,12.341c-0.001-0.022,0.001-0.043-0.009-0.064c-0.316-0.612-1.017-1.073-1.579-1.453c-0.074-0.05-0.154-0.087-0.229-0.134
		c0.303-0.397,0.553-0.822,0.708-1.271c0.018-0.052,0.009-0.096-0.012-0.131c0.104,0.038,0.203,0.088,0.301,0.14
		c0.381,0.515,0.774,1.018,1.182,1.506C32.584,11.448,32.434,11.94,32.125,12.341z"/>
	<path style="fill:#1D1D1B;" d="M14.254,45.64c-1.288,0.661-2.709,1.092-4.152,0.667c-1.412-0.415-2.471-1.817-2.346-3.305
		c0.241-2.86,4.051-2.57,6.062-2.244c0.218,0.035,0.318-0.285,0.094-0.339c-2.543-0.617-7.09-0.825-6.858,3.029
		c0.232,3.863,4.823,4.42,7.532,2.76C14.949,45.985,14.63,45.447,14.254,45.64z"/>
	<path style="fill:#1D1D1B;" d="M23.482,45.686c-0.681-0.202-1.433-0.106-2.138-0.097c-0.714,0.009-1.428,0.022-2.142,0.04
		c0.287-1.889-0.355-3.882-1.288-5.501c-0.137-0.237-0.483-0.029-0.364,0.213c0.895,1.823,0.976,3.58,1.028,5.562
		c0.005,0.185,0.171,0.279,0.326,0.272c0.008,0.001,0.01,0.008,0.018,0.008c0.808,0.022,1.615,0.035,2.423,0.045
		c0.709,0.009,1.453,0.105,2.138-0.097C23.701,46.066,23.701,45.751,23.482,45.686z"/>
	<path style="fill:#1D1D1B;" d="M33.63,38.94c-1.831-0.825-4.124-0.374-5.349,1.196c-0.126-0.003-0.252-0.007-0.377-0.01
		c-0.098-0.002-0.205,0.056-0.251,0.144c-1.126,2.171-0.191,4.958,1.917,6.17c2.194,1.262,4.751,0.04,5.798-2.109
		C36.348,42.321,35.742,39.892,33.63,38.94z M34.601,44.289c-1.092,1.892-3.429,2.637-5.204,1.178
		c-0.753-0.618-1.285-1.495-1.496-2.448c-0.099-0.449-0.173-1.078-0.047-1.541c0.044-0.162,0.102-0.283,0.167-0.388
		c0.143,0.101,0.351,0.106,0.457-0.092c0.063-0.117,0.144-0.218,0.219-0.324c0.212-0.034,0.452-0.039,0.721-0.059
		c0.287-0.021,0.292-0.439,0-0.45c-0.091-0.004-0.182-0.004-0.273-0.007c0.971-0.901,2.425-1.19,3.734-0.792
		C35.071,40.033,35.697,42.39,34.601,44.289z"/>
	<path style="fill:#1D1D1B;" d="M44.962,44.167c-0.177-1.183-1.048-2.03-2.225-2.164c-0.814-0.092-1.717,0.238-2.512,0.039
		c-2.36-0.593,1.797-5.557,3-2.592c0.084,0.208,0.407,0.134,0.346-0.095c-0.788-2.962-5.281-0.118-4.869,2.127
		c0.245,1.335,1.648,1.225,2.703,1.167c1.296-0.072,2.71-0.02,2.942,1.601c0.303,2.115-2.452,2.444-3.384,0.885
		c-0.206-0.345-0.724-0.04-0.537,0.314C41.608,47.683,45.368,46.886,44.962,44.167z"/>
	<path style="fill:#1D1D1B;" d="M53.48,39.195c-0.764-0.159-1.587-0.053-2.367-0.038c-0.732,0.014-1.465,0.033-2.197,0.062
		c0.034-0.258,0.065-0.516,0.108-0.776c0.041-0.247-0.326-0.359-0.383-0.106c-0.067,0.297-0.113,0.596-0.171,0.894
		c-0.017,0.001-0.033,0.001-0.05,0.001c-0.219,0.012-0.222,0.314-0.016,0.344c-0.363,2.032-0.497,4.09-0.298,6.157
		c-0.043-0.012-0.087-0.018-0.13-0.03c-0.305-0.087-0.426,0.372-0.13,0.471c1.53,0.513,3.56,0.98,5.145,0.479
		c0.302-0.096,0.237-0.523-0.073-0.542c-0.779-0.049-1.563,0.086-2.348,0.044c-0.602-0.033-1.187-0.133-1.768-0.26
		c-0.064-0.763-0.097-1.519-0.114-2.272c1.268,0.239,2.783,0.266,3.911-0.368c0.262-0.148,0.076-0.513-0.195-0.463
		c-0.652,0.121-1.262,0.362-1.929,0.433c-0.598,0.064-1.195,0.034-1.789-0.047c-0.01-1.195,0.04-2.385,0.179-3.582
		c0.75,0.031,1.5,0.049,2.25,0.063c0.784,0.015,1.599,0.122,2.367-0.038C53.691,39.578,53.691,39.239,53.48,39.195z"/>
</g>
<g>
</g>
<g>
</g>
<g>
</g>
<g>
</g>
<g>
</g>
<g>
</g>
<g>
</g>
<g>
</g>
<g>
</g>
<g>
</g>
<g>
</g>
<g>
</g>
<g>
</g>
<g>
</g>
<g>
</g>
</svg>
