<?xml version="1.0" encoding="iso-8859-1"?>
<!-- Generator: Adobe Illustrator 18.0.0, SVG Export Plug-In . SVG Version: 6.00 Build 0)  -->
<!DOCTYPE svg PUBLIC "-//W3C//DTD SVG 1.1//EN" "http://www.w3.org/Graphics/SVG/1.1/DTD/svg11.dtd">
<svg version="1.1" id="Capa_1" xmlns="http://www.w3.org/2000/svg" xmlns:xlink="http://www.w3.org/1999/xlink" x="0px" y="0px"
	 viewBox="0 0 46.054 46.054" style="enable-background:new 0 0 46.054 46.054;" xml:space="preserve">
<g>
	<path style="fill:#1D1D1B;" d="M29.834,13.773c-0.302-0.946-1.783-1.519-2.576-1.878c-0.801-0.362-2.02-0.996-2.902-0.555
		c-0.758,0.379-0.916,1.432-1.305,2.125c-1.351,1.442-2.005,3.285,0.162,4.346c0.878,0.43,1.729,1.327,2.784,1.078
		c1.089-0.257,1.972-1.528,2.596-2.356C29.114,15.839,30.144,14.745,29.834,13.773z M28.695,15.658
		c-0.485,0.724-1.031,1.448-1.66,2.057c-0.97,0.94-1.805,0.786-2.849,0.167c-0.872-0.516-1.995-0.613-2.069-2.021
		c-0.039-0.725,0.425-1.423,0.893-2.011c0.057,0.032,0.129,0.04,0.181-0.018c0.254-0.285,0.39-0.537,0.552-0.888
		c0.468-1.015,1.335-1.307,2.439-1.019c0.644,0.168,1.611,0.604,2.155,1.03C29.432,13.814,29.369,14.65,28.695,15.658z"/>
	<path style="fill:#1D1D1B;" d="M30.999,16.41c3.053-4.1,5.888-8.36,8.526-12.739c0.074-0.123,0.054-0.24-0.009-0.329
		c-0.004-0.016-0.002-0.029-0.008-0.046c-1.29-3.247-4.813-2.738-7.877-2.849c-6.098-0.221-12.254,0.028-18.285,0.98
		c-0.018,0.003-0.024,0.019-0.038,0.026c-0.328-0.467-0.667-0.928-1.021-1.38c-0.132-0.168-0.393-0.019-0.397,0.164
		c-0.011,0.474,0.035,0.964,0.121,1.46c-1.145,0.018-6.995,0.726-5.026,2.615c0.078,0.075,0.184-0.036,0.117-0.117
		c-1.179-1.423,4.45-2.023,4.993-2.061c0.002,0,0.003-0.002,0.004-0.002c0.272,1.238,0.782,2.511,1.367,3.716
		c-2.628-0.429-4.583-1.056-5.15-1.839C8.183,3.829,7.891,3.988,8.008,4.19c0.916,1.582,2.083,1.713,3.834,1.935
		c0.608,0.077,1.23,0.122,1.847,0.179c0.171,0.339,0.345,0.672,0.52,0.995c-0.955,0.394-1.243,1.228-1.116,2.161
		c-0.427-0.143-0.799-0.322-1.1-0.545c0.27-0.405,0.652-0.703,1.138-0.827c0.139-0.036,0.078-0.232-0.058-0.21
		c-0.679,0.108-1.212,0.495-1.511,1.115c-0.039,0.081-0.018,0.165,0.057,0.217c0.07,0.048,0.143,0.085,0.214,0.127
		c-0.084,0.251,0.093,0.408,0.245,0.818c0.209,0.567,1.153,1.329,1.555,1.79c0.686,0.788,1.368,1.578,2.063,2.359
		c2.199,2.47,4.872,5.675,8.158,6.68c0.07,0.021,0.124-0.034,0.139-0.095c1.783,0.415,4.307-2.912,5.247-3.973
		c2.138-2.413,3.916-5.214,5.008-8.254c0.064-0.178-0.229-0.305-0.308-0.13c-1.064,2.35-2.209,4.576-3.78,6.636
		c-0.936,1.228-4.494,6.017-6.327,5.523c-0.012-0.003-0.016,0.012-0.027,0.015c-2.453-1.085-4.482-2.929-6.318-4.853
		c-0.685-0.717-5.076-4.933-5.359-6.383c0.066-0.021,0.105-0.103,0.045-0.169c-0.015-0.017-0.033-0.03-0.049-0.046
		c0.002-0.014,0.003-0.029,0.007-0.042c0.303,0.235,0.64,0.435,1.024,0.585c0.439,1.856,2.373,3.939,4.069,3.748
		c0.021-0.002,0.04-0.011,0.061-0.014c1.018,1.64,2.415,3.024,3.889,4.255c0.142,0.118,0.44,0.011,0.352-0.205
		c-0.734-1.811-1.454-3.628-2.226-5.424c0.322-0.543,0.495-1.184,0.454-1.839c-0.003-0.051-0.018-0.096-0.023-0.145
		c1.115-0.09,2.149-0.188,2.957-0.193c3.777-0.022,8.283,0.592,11.492-1.777c0.108-0.08,0.004-0.262-0.106-0.182
		c-2.965,2.154-7.076,1.688-10.564,1.724c-0.931,0.01-2.314,0.115-3.817,0.182c-0.11-0.65-0.383-1.218-0.766-1.702
		c4.533,0.008,9.325-0.599,13.806,0.096c0.164,0.026,0.239-0.22,0.07-0.254c-4.416-0.907-9.566-0.242-14.047-0.062
		c-0.009,0-0.012,0.007-0.02,0.009c-0.622-0.688-1.467-1.195-2.376-1.504c-0.044-0.015-0.083-0.016-0.119-0.01
		c0-0.001-0.001-0.002-0.002-0.003c2.904,0.162,5.848,0.192,8.693,0.255c2.618,0.058,12.49,0.147,12.209-4.22
		c-0.02-0.31-0.503-0.313-0.485,0c0.209,3.644-12.062,4.519-20.571,3.66c-0.735-1.531-1.586-2.994-2.544-4.395
		c3.898-0.363,7.777-0.734,11.694-0.817c2.996-0.063,12.243-1.06,13.667,2.459c-2.047,3.336-4.167,6.62-6.433,9.813
		c-2.251,3.172-4.36,6.85-7.976,8.575c-0.195,0.093-0.047,0.355,0.137,0.324c0.098-0.016,0.19-0.042,0.285-0.064
		c-0.26,3.804-0.163,7.638,0.048,11.442c0.139,2.509,0.069,5.146,1.081,7.481c0.118,0.273,0.518,0.037,0.401-0.234
		c-0.284-0.656-0.483-1.365-0.638-2.098c3.213-0.01,5.709,1.105,8.165,3.164c0.008,0.007,0.017,0.003,0.025,0.009
		c-1.882,3.82-20.11,5.699-20.573,0.419c1.236-1.362,2.655-2.146,4.483-2.629c1.397-0.369,2.91-0.41,4.283-0.845
		c-0.021,0.757-0.026,1.512-0.062,2.271c-0.012,0.261,0.386,0.257,0.404,0c0.058-0.816,0.109-1.634,0.153-2.454
		c0.028-0.012,0.058-0.02,0.086-0.032c0.031-0.013,0.023-0.069-0.01-0.074c-0.023-0.004-0.048-0.003-0.071-0.007
		c0.292-5.533,0.236-11.135-0.495-16.616c-0.016-0.12-0.125-0.17-0.217-0.157c-0.017-0.066-0.052-0.13-0.121-0.179
		c-2.887-2.032-5.12-5.07-7.4-7.726c-2.672-3.114-5.136-6.372-7.609-9.645C6.704,3.985,6.38,4.155,6.514,4.376
		c2.146,3.547,4.809,6.75,7.499,9.894c2.317,2.708,4.562,5.788,7.54,7.805c0.115,0.078,0.224,0.061,0.306,0
		c0.275,5.484,0.48,10.906,0.343,16.378c-1.796-0.121-3.853,0.446-5.483,1.031c-1.56,0.56-3.073,1.438-3.82,2.971
		c-0.063,0.13,0.11,0.294,0.215,0.166c0.042-0.051,0.086-0.095,0.129-0.145c-0.017,4.87,19.696,4.852,20.974-0.565
		c0.004-0.015-0.004-0.027-0.006-0.041c0.126-0.055,0.205-0.208,0.081-0.346c-2.097-2.353-5.473-3.474-8.572-3.255
		c-0.457-2.511-0.338-5.313-0.419-7.688c-0.097-2.855-0.044-5.709-0.086-8.565C27.824,21.255,29.448,18.492,30.999,16.41z
		 M14.363,7.585c0.182,0.331,0.364,0.651,0.539,0.957c-0.203,0.022-0.402,0.064-0.585,0.143c-0.149,0.064-0.075,0.322,0.083,0.308
		c0.407-0.037,0.792-0.032,1.171,0.07c-0.093,0.267-0.116,0.551-0.104,0.836c-0.65-0.055-1.266-0.142-1.817-0.276
		C13.511,8.822,13.685,8.065,14.363,7.585z M20.759,16.862c-1.161-1.045-2.185-2.201-3.208-3.389
		c0.565-0.136,1.042-0.438,1.408-0.851C19.541,14.043,20.15,15.452,20.759,16.862z M17.046,13.056
		c-1.344,0.064-2.871-1.517-3.317-3.07c0.548,0.15,1.142,0.246,1.77,0.293c0.001,0.004,0,0.008,0.001,0.012
		c0.04,0.165,0.28,0.148,0.321,0.004c1.096,0.057,2.257,0.002,3.364-0.08C19.301,11.553,18.585,12.983,17.046,13.056z M15.856,9.931
		c0.02-0.245,0.071-0.479,0.172-0.69c0.362,0.186,0.605,0.44,0.848,0.731C16.53,9.965,16.189,9.953,15.856,9.931z M19.026,9.431
		c0.061,0.167,0.102,0.342,0.132,0.518c-0.547,0.02-1.104,0.033-1.657,0.032c-0.195-0.537-0.64-0.944-1.169-1.193
		c0.16-0.178,0.343-0.341,0.57-0.465c0.233-0.128,0.132-0.406-0.065-0.472c-0.003-0.011,0.007-0.02,0.002-0.032
		c-0.097-0.237-0.214-0.464-0.317-0.698C17.629,7.556,18.598,8.271,19.026,9.431z M16.421,7.997c0,0.001,0.002,0.001,0.002,0.002
		c-0.252,0.159-0.473,0.355-0.631,0.598c-0.18-0.043-0.363-0.061-0.545-0.067c-0.273-0.712-0.613-1.436-0.96-2.168
		c0.475,0.039,0.947,0.079,1.425,0.109C15.958,6.973,16.198,7.479,16.421,7.997z M15.555,6.134
		c-0.504-0.056-0.993-0.118-1.464-0.187c-0.763-1.606-1.519-3.254-1.686-4.931C13.615,2.634,14.657,4.337,15.555,6.134z"/>
</g>
<g>
</g>
<g>
</g>
<g>
</g>
<g>
</g>
<g>
</g>
<g>
</g>
<g>
</g>
<g>
</g>
<g>
</g>
<g>
</g>
<g>
</g>
<g>
</g>
<g>
</g>
<g>
</g>
<g>
</g>
</svg>
