<?xml version="1.0" encoding="iso-8859-1"?>
<!-- Generator: Adobe Illustrator 18.0.0, SVG Export Plug-In . SVG Version: 6.00 Build 0)  -->
<!DOCTYPE svg PUBLIC "-//W3C//DTD SVG 1.1//EN" "http://www.w3.org/Graphics/SVG/1.1/DTD/svg11.dtd">
<svg version="1.1" id="Capa_1" xmlns="http://www.w3.org/2000/svg" xmlns:xlink="http://www.w3.org/1999/xlink" x="0px" y="0px"
	 viewBox="0 0 58.343 58.343" style="enable-background:new 0 0 58.343 58.343;" xml:space="preserve">
<g>
	<path style="fill:#1D1D1B;" d="M45.621,14.115c-1.412-2.955-4.078-1.85-5.986-0.151c0.155-1.714,0.282-3.431,0.375-5.153
		c0.02-0.365-0.434-0.42-0.613-0.184c-3.273-3.534-7.506-5.385-11.837-5.685c0.035-0.044,0.071-0.09,0.072-0.163
		c0.022-2.305-2.666-3.69-4.442-2.085c-0.479,0.433-1.195,1.767-0.298,2.199c0.458,0.221,1.183-0.192,1.032-0.739
		c-0.042-0.15-0.258-0.086-0.23,0.063c-0.146,0.297-0.288,0.385-0.427,0.264c-0.098-0.066-0.13-0.175-0.094-0.326
		c-0.085-0.408,0.06-0.672,0.35-0.96c0.389-0.386,0.957-0.615,1.505-0.615c1.197-0.001,2.028,1.065,2.019,2.2
		c0,0.067,0.034,0.107,0.064,0.15c-5.294-0.235-10.689,1.826-14.622,6.012c-0.171-0.093-0.429,0.021-0.352,0.258
		c1.203,3.747,2.396,7.493,3.463,11.281c0.824,2.927,1.18,6.739,2.486,9.483c1.888,3.969,6.058,3.874,10,3.748
		c2.67-0.085,5.556,0.053,7.48-1.442c-0.001,0.024-0.015,0.045-0.004,0.071c2.589,6.413,4.428,12.9,6.148,19.585
		c0.094,0.365,0.617,0.206,0.556-0.153c-1.149-6.762-3.474-13.369-6.309-19.598c-0.035-0.076-0.103-0.095-0.174-0.094
		c0.529-0.465,0.98-1.062,1.315-1.852c1.272-2.997,1.421-7.107,1.862-10.299c0.059-0.429,0.109-0.859,0.163-1.288
		c3.016-3.587,2.659,2.157,2.728,3.975c0.091,2.396,0.115,4.805,0.317,7.194c0.018,0.211,0.242,0.269,0.374,0.181
		c0.183,1.081,1.325,1.914,2.414,1.493c1.077-0.417,1.472-1.79,0.917-2.76c-0.008-0.014-0.019-0.02-0.028-0.032
		c0.246-3.158,0.27-6.349,0.339-9.515C46.22,17.525,46.361,15.662,45.621,14.115z M12.707,9.334
		c0.011-0.008,0.023-0.003,0.034-0.014c7.561-7.546,17.979-7.41,25.874-0.627c-8.667,3.617-16.922,4.223-25.809,0.91
		C12.772,9.513,12.739,9.424,12.707,9.334z M37.681,23.379c-0.598,3.643-0.477,5.033-3.564,7.384
		c-2.815,2.144-4.338,2.281-7.775,2.198c-3.72-0.091-6.038-1.278-7.938-4.775c-1.028-1.893-1.226-4.94-1.815-7.036
		c-1.053-3.747-2.26-7.445-3.616-11.092c4.047,1.79,8.512,2.679,12.941,2.58c0.375,4.899,0.665,9.869,1.425,14.722
		c0.024,0.155,0.278,0.118,0.273-0.037c-0.163-4.898-0.814-9.823-1.364-14.695c4.419-0.149,8.792-1.285,12.667-3.515
		c0.044-0.025,0.061-0.067,0.079-0.107C39,9.012,39.006,9.016,39.012,9.021c0.095,0.085,0.203,0.091,0.292,0.053
		C38.952,13.866,38.459,18.636,37.681,23.379z M44.771,30.954c-0.861,0.394-1.821-0.334-1.939-1.197
		c-0.014-0.1-0.11-0.128-0.195-0.108c0.019-4.095-0.278-8.219-0.46-12.309c-0.007-0.146-0.114-0.253-0.26-0.261
		c-1.116-0.056-1.993,0.268-2.716,0.953c0.143-1.17,0.275-2.341,0.386-3.513c1.59-1.901,3.494-1.73,5.713,0.52
		c0.182,0.721,0.278,1.452,0.286,2.193c0.051,1.042-0.051,2.103-0.084,3.144c-0.087,2.795-0.243,5.599-0.189,8.394
		c0,0.021,0.016,0.029,0.02,0.048c-0.015,0.063-0.011,0.132,0.03,0.204C45.738,29.682,45.48,30.63,44.771,30.954z"/>
	<path style="fill:#1D1D1B;" d="M19.236,12.809c-0.019-0.157-0.262-0.166-0.253,0c0.219,4.014,0.75,8.228,2.018,12.053
		c0.057,0.172,0.299,0.101,0.268-0.074C20.556,20.781,19.715,16.861,19.236,12.809z"/>
	<path style="fill:#1D1D1B;" d="M33.12,11.777c-0.018-0.167-0.277-0.175-0.267,0c0.223,4.184,0.041,8.342,0.158,12.519
		c0.007,0.233,0.324,0.219,0.352,0C33.88,20.212,33.567,15.857,33.12,11.777z"/>
	<path style="fill:#1D1D1B;" d="M19.264,32.798c-1.864,6.922-3.73,13.935-5.091,20.975c-0.071,0.367,0.462,0.524,0.566,0.156
		c1.951-6.902,3.436-14.007,4.884-21.031C19.671,32.664,19.326,32.565,19.264,32.798z"/>
	<path style="fill:#1D1D1B;" d="M41.88,52.262c-6.483,7.847-18.979,5.621-27.159,2.045c-0.263-0.115-0.498,0.259-0.231,0.395
		c7.891,3.994,21.864,6.405,27.856-2.08C42.539,52.349,42.095,52.002,41.88,52.262z"/>
	<path style="fill:#1D1D1B;" d="M36.14,36.15c-5.756,2.676-10.821,2.237-16.902,1.76c0.125,0.01,0.156-0.204,0.03-0.221
		c-0.114-0.015-0.228-0.031-0.342-0.047c-0.122-0.017-0.235,0.163-0.094,0.224c5.604,2.425,12.283,1.436,17.635-1.157
		C36.843,36.526,36.514,35.976,36.14,36.15z"/>
</g>
<g>
</g>
<g>
</g>
<g>
</g>
<g>
</g>
<g>
</g>
<g>
</g>
<g>
</g>
<g>
</g>
<g>
</g>
<g>
</g>
<g>
</g>
<g>
</g>
<g>
</g>
<g>
</g>
<g>
</g>
</svg>
