<?xml version="1.0" encoding="iso-8859-1"?>
<!-- Generator: Adobe Illustrator 18.0.0, SVG Export Plug-In . SVG Version: 6.00 Build 0)  -->
<!DOCTYPE svg PUBLIC "-//W3C//DTD SVG 1.1//EN" "http://www.w3.org/Graphics/SVG/1.1/DTD/svg11.dtd">
<svg version="1.1" id="Capa_1" xmlns="http://www.w3.org/2000/svg" xmlns:xlink="http://www.w3.org/1999/xlink" x="0px" y="0px"
	 viewBox="0 0 56.609 56.609" style="enable-background:new 0 0 56.609 56.609;" xml:space="preserve">
<g>
	<path style="fill:#1D1D1B;" d="M52.44,14.297C45.443,2.89,31.239-1.24,19.133,3.991c-0.053-0.078-0.139-0.131-0.27-0.117
		C6.729,5.194-0.242,16.449,0.006,28.018c0.262,12.235,6.759,23.099,19.11,25.899c10.367,2.35,24.188,0.471,31.757-7.64
		C58.476,38.132,58.019,23.393,52.44,14.297z M39.17,52.23c-12.02,3.684-28.12,2.28-34.729-9.886
		C-2.915,28.804,0.917,7.096,18.437,4.631c0.057,0.084,0.144,0.145,0.255,0.099C31.733-0.669,46.94,4.078,53.103,17.19
		c2.957,6.292,3.403,14.463,1.382,21.119C52.275,45.589,46.207,50.074,39.17,52.23z"/>
	<path style="fill:#1D1D1B;" d="M17.964,14.813c-0.009-0.06-0.038-0.114-0.115-0.129c-2.046-0.404-4.12,0.695-4.661,2.786
		c-0.497,1.918,0.679,4.005,2.718,4.284C19.915,22.302,21.2,15.089,17.964,14.813z M15.183,20.824
		c-1.464-0.76-1.809-2.602-1.019-3.978c0.633-1.104,1.835-1.615,3.048-1.766c0.013,0.131,0.104,0.262,0.257,0.264
		C20.717,15.399,18.936,22.772,15.183,20.824z"/>
	<path style="fill:#1D1D1B;" d="M17.583,16.035c-0.167-0.108-0.32,0.125-0.202,0.262c0.521,0.607,0.687,1.369,0.32,2.106
		c-0.156,0.313,0.3,0.588,0.474,0.277C18.662,17.806,18.447,16.594,17.583,16.035z"/>
	<path style="fill:#1D1D1B;" d="M52.129,38.981c-0.52-1.028-0.979-2.056-1.388-3.086c0.134,0.147,0.422,0.152,0.489-0.098
		c1.208-4.536,1.224-9.201-0.364-13.644c-0.054-0.15-0.278-0.092-0.241,0.066c1.077,4.532,1.233,8.898,0.056,13.426
		c-0.008,0.03-0.005,0.056-0.005,0.083c-2.273-5.825-2.657-11.691-0.088-17.81c0.194-0.068,0.287-0.367,0.061-0.514
		c-1.447-0.941-2.745-1.969-3.899-3.257c-0.133-0.148-0.361-0.089-0.46,0.059c-0.826,1.241-1.459,2.684-1.765,4.181
		c-0.404-2.531-1.089-5.004-2.067-7.363c0.378,0.243,0.742,0.506,1.082,0.802c0.566,0.493,1.006,1.076,1.527,1.607
		c0.19,0.194,0.481-0.051,0.364-0.281c-0.627-1.236-1.924-2.117-3.209-2.65c-0.202-0.463-0.395-0.93-0.622-1.383
		c0.093-0.059,0.16-0.16,0.127-0.298c-0.021-0.09-0.043-0.179-0.064-0.269c-0.026-0.111-0.124-0.205-0.233-0.233
		c-1.719-0.45-3.901-0.19-5.786-0.079c0.043-0.078,0.035-0.173-0.075-0.221c-1.273-0.554-3.123-0.799-4.551-0.49
		c-0.964-0.717-2.008-1.319-3.143-1.767c-0.041-0.016-0.074-0.001-0.11,0.006c-0.044-0.042-0.101-0.068-0.169-0.042
		c-0.69,0.266-1.238,0.929-1.749,1.445c-0.588,0.593-1.14,1.22-1.67,1.865c-0.018-0.007-0.03-0.022-0.05-0.024
		c-0.887-0.112-1.841,0.173-2.686,0.529c-0.573-0.86-1.351-1.45-2.89-1.213c-2.956,0.455-4.288,3.94-6.386,5.676
		c-1.98,0.901-4.434,1.253-5.039,3.69c-0.186,0.75-0.164,1.542,0.122,2.264c0.155,0.392,0.431,0.754,0.748,1.107
		C5.445,26.583,5.27,32.975,7.922,38.501c0.073,0.151,0.332,0.044,0.273-0.115c-2.097-5.721-2.189-11.34,0.151-16.948
		c0.873,0.905,1.832,1.796,1.488,3.03c-0.082,0.018-0.158,0.061-0.196,0.164c-0.896,2.477-2.967,4.114-2.016,6.957
		c0.421,1.258,1.328,2.246,2.484,2.801c-1.081,2.116-1.18,4.624-0.25,6.823c0.222,0.526,0.595,1.557,1.326,1.571
		c0.133,0.002,0.278-0.042,0.425-0.104c0.335,0.098,0.676,0.176,1.025,0.22c0.262,0.034,0.264-0.386,0-0.415
		c-0.185-0.02-0.363-0.056-0.543-0.086c0.645-0.464,1.299-1.224,1.653-1.567c0.13-0.126,0.025-0.336-0.121-0.363
		c-1.269-1.807-1.466-3.448-1.191-5.584c0.204-0.003,0.397-0.028,0.588-0.056c-0.021,0.121-0.026,0.243-0.042,0.364
		c-0.019,0.022-0.031,0.049-0.025,0.082c0.002,0.013,0.009,0.025,0.011,0.037c-0.144,1.201-0.066,2.405,0.318,3.569
		c0.197,0.598,0.606,1.119,0.804,1.697c0.281,0.818-0.259,1.375-0.841,1.917c-0.037,0.009-0.07,0.036-0.078,0.073
		c-0.129,0.12-0.256,0.24-0.378,0.362c-0.049,0.01-0.093,0.043-0.099,0.114c-0.001,0.013,0.001,0.026,0.001,0.04
		c-0.002,0.016-0.003,0.03,0.001,0.046c-0.069,1.401,0.891,2.683,1.992,3.501c0.895,0.665,1.527,0.211,2.329-0.396
		c-0.42,1.181,0.979,2.554,1.833,3.191c1.335,0.996,3.001,1.385,4.631,1.06c0.003,0.019-0.001,0.035,0.003,0.055
		c0.079,0.412,0.511,0.646,0.895,0.641c-0.115,0.251-0.096,0.548,0.162,0.785c0.469,0.432,1.355,0.066,1.325-0.583
		c-0.009-0.187-0.25-0.209-0.314-0.042c-0.111,0.291-0.585,0.612-0.817,0.217c-0.072-0.123-0.062-0.307-0.001-0.466
		c0.098-0.058,0.17-0.148,0.217-0.264c0.014-0.007,0.023-0.023,0.037-0.028c0.052-0.018,0.036-0.073-0.005-0.088
		c0.006-0.031,0.022-0.053,0.024-0.088c0.009-0.141-0.177-0.203-0.27-0.112c-0.299,0.295-0.873,0.379-0.827-0.243
		c0.042-0.58,0.701-0.709,1.157-0.531c0.139,0.45,0.427,0.86,0.923,1.189c0.349,0.232,0.727,0.322,1.108,0.32
		c-0.003,0.105-0.003,0.21-0.027,0.314c-0.034,0.152-0.101,0.316-0.208,0.433c-0.184,0.202-1.092,0.319-0.748-0.333
		c0.073-0.139-0.124-0.253-0.209-0.122c-0.313,0.475,0.139,1.078,0.681,1.006c0.633-0.084,0.91-0.736,0.916-1.335
		c0.434-0.076,0.86-0.254,1.24-0.487c0.816-0.5,1.399-1.305,2.2-1.822c1.214-0.784,2.634-0.856,4.023-0.693
		c0.146,0.017,0.216-0.075,0.24-0.184c0.069,0.163,0.172,0.312,0.355,0.402c0.305,0.15,0.83,0.019,1.124-0.248
		c0.141,0.53,0.706,0.92,1.293,0.757c0.742-0.206,1.087-1.144,0.801-1.816c-0.007-0.015-0.019-0.015-0.027-0.027
		c1.374,0.009,2.431-1.022,3.196-2.076c1.29-1.777,2.537-3.716,3.438-5.735c0.448,0.977,0.967,1.914,1.55,2.798
		c-0.023,0.008-0.048,0.011-0.068,0.028c-0.197,0.164-0.32,0.389-0.491,0.58c-0.208,0.233-0.44,0.442-0.692,0.627
		c-0.392,0.288-0.921,0.404-1.273,0.721c-0.051,0.046-0.026,0.141,0.041,0.156c0.508,0.112,1.188-0.289,1.59-0.567
		c0.411-0.284,0.92-0.714,1.106-1.206c0.276,0.43,0.611,1.014,1.191,0.944c0.486-0.058,1.007-0.896,1.286-1.202
		c0.814-0.891,1.63-1.781,2.438-2.678c0.063-0.07,0.084-0.147,0.08-0.221C52.175,39.18,52.18,39.083,52.129,38.981z M46.596,14.835
		c0.462,0.501,0.953,0.97,1.465,1.412c-0.029,0.015-0.061,0.023-0.083,0.057c-1.448,2.236-2.449,4.652-3.021,7.126
		c-0.004-0.193,0.005-0.386-0.003-0.579c0.001-0.009,0.008-0.013,0.007-0.023C44.77,19.902,45.031,17.345,46.596,14.835z
		 M36.861,8.882c-0.089,0.056-0.148,0.168-0.089,0.29c3.367,6.858,5.731,16.873,2.397,24.109c-0.055,0.12,0.104,0.218,0.179,0.105
		c4.358-6.585,1.043-17.964-2.203-24.432C37.125,8.912,37.091,8.9,37.06,8.883c0.274,0.001,0.548,0.005,0.822,0.004
		c0.155,0,0.507-0.027,0.917-0.053c-0.089,0.039-0.155,0.12-0.111,0.239c2.898,7.838,5.561,16.939,1.81,24.905
		c-0.047,0.099,0.088,0.181,0.149,0.087c4.703-7.251,1.201-17.757-1.531-25.11c-0.027-0.071-0.077-0.111-0.135-0.132
		c0.908-0.052,2.033-0.074,2.223,0.217c0.136,0.419,0.264,0.835,0.391,1.252c-0.088,0.026-0.131,0.163-0.031,0.213
		c0.042,0.021,0.079,0.048,0.12,0.07c2.479,8.194,3.302,15.836,1.209,24.417c-0.01,0.043-0.008,0.081-0.005,0.118
		c-0.848,0-1.866-0.825-2.627-1.128c-0.755-0.301-1.533-0.509-2.324-0.675c0.656-0.886,1.15-1.922,1.183-3.032
		c0.007,0.001,0.014,0.002,0.021,0.002c0.058,0.006,0.105-0.004,0.146-0.021c0.159,0.163,0.503,0.099,0.518-0.198
		c0.163-3.207-0.242-6.94-1.275-10.536c0.059-0.034,0.105-0.092,0.09-0.179c-0.654-3.633-1.871-7.113-3.384-10.47
		C35.777,8.879,36.319,8.88,36.861,8.882z M29.735,44.18c-0.306,0.867-1.003,1.702-1.912,1.592
		c-0.383-0.046-1.002-0.749-1.302-0.969c-0.774-0.566-1.566-1.12-2.413-1.573c0.083,0.009,0.167,0.022,0.25,0.021
		c0.185-0.002,0.369-0.045,0.545-0.106c0.028,0.048,0.074,0.086,0.15,0.097c1.294,0.196,2.383,0.765,3.276,1.728
		c0.105,0.114,0.32,0.09,0.392-0.05c0.315-0.613,0.702-1.12,1.183-1.561c-0.006,0.145-0.031,0.3-0.066,0.457
		c-0.004,0.002-0.008,0.003-0.012,0.005C29.661,43.904,29.658,44.062,29.735,44.18z M13.429,34.747
		c0.278-0.068,0.539-0.168,0.791-0.282c-0.044,0.053-0.054,0.137,0.021,0.187c0.57,0.376,1.342,0.661,2.047,0.573
		c-0.203,0.56-0.434,1.111-0.725,1.639c-0.029-0.021-0.056-0.046-0.101-0.049c-0.946-0.074-1.612-0.544-2.108-1.277
		c0.019-0.257,0.04-0.514,0.078-0.773C13.434,34.758,13.429,34.754,13.429,34.747z M14.303,34.427
		c1.068-0.511,1.924-1.412,2.678-2.475c-0.064,1.016-0.267,1.999-0.579,2.947c-0.748-0.044-1.357-0.062-2.035-0.462
		C14.344,34.422,14.324,34.427,14.303,34.427z M17.27,31.535c0.752-1.125,1.427-2.365,2.16-3.452
		c-0.288,1.423-0.326,3.185-0.054,4.848c-0.119-0.064-0.322,0.003-0.303,0.166c0.143,1.213,0.037,2.411-0.395,3.564
		c-0.414,1.106-0.817,1.862-2.254,1.978c-0.404,0.033-0.877-0.079-1.309-0.164C16.604,36.415,17.358,34.058,17.27,31.535z
		 M18.438,38.267c0.932-1.415,1.23-3.021,1.081-4.664c0.136,0.62,0.325,1.21,0.553,1.761c-0.079-0.007-0.16,0.022-0.186,0.123
		c-0.426,1.677-1.958,6.366-4.412,4.305c-0.008-0.018-0.001-0.036-0.016-0.054c-0.206-0.256-0.396-0.526-0.589-0.792
		C16.321,39.184,17.533,39.642,18.438,38.267z M19.821,27.531c0.062-0.084,0.122-0.171,0.185-0.252
		c0.063,0.024,0.137,0.02,0.217-0.031c0.244-0.156,0.5-0.297,0.764-0.43c0.159,0.367,0.407,0.744,0.707,1.096
		c-0.014,0.022-0.037,0.031-0.043,0.063c-0.241,1.212-0.268,2.425,0.002,3.637c0.133,0.595,0.33,1.183,0.582,1.738
		c0.259,0.57,0.964,1.239,1.109,1.809c0.207,0.816-0.783,1.423-1.632,1.2c-1.002-0.263-1.322-1.948-1.574-2.921
		C19.622,31.438,19.71,29.544,19.821,27.531z M25.843,26.533c-0.09,0.272-0.18,0.544-0.28,0.805
		c-0.83-0.285-1.479-0.752-1.927-1.511c0.383-0.112,0.774-0.213,1.162-0.318c-0.006,0.008-0.015,0.014-0.015,0.026
		C24.777,26.033,25.35,26.408,25.843,26.533z M29.527,23.915c1.548-0.8,2.787-1.975,3.326-3.999
		c0.774,1.468,1.069,3.019,1.131,4.691c0.021,0.572,0.016,1.143,0.004,1.715c-0.299-0.201-0.572-0.417-0.831-0.663
		c-0.004-0.034-0.01-0.072-0.012-0.104c-0.012-0.153-0.134-0.247-0.285-0.217c-1.112,0.221-2.196,0.197-3.309,0.305
		C29.576,25.067,29.574,24.49,29.527,23.915z M32.714,25.82c0.03,0.39,0.062,0.78,0.088,1.17c0.04,0.591-0.165,0.734-0.74,0.827
		c-0.925,0.15-1.857,0.017-2.735-0.286c0.091-0.5,0.155-1.003,0.191-1.511C30.556,26.178,31.679,26.018,32.714,25.82z M32.567,28.17
		c0.944-0.225,0.78-1.224,0.649-2.068c0.202,0.221,0.42,0.427,0.669,0.589c0.036,0.024,0.069,0.02,0.103,0.017
		c0.001,0.477,0.012,1.562,0.055,2.208c-0.04-0.006-0.075-0.022-0.125-0.004c-0.031,0.011-0.062,0.022-0.092,0.033
		c-0.135,0.048-0.266,0.204-0.204,0.359c0.017,0.043,0.035,0.086,0.052,0.129c0.023,0.058,0.066,0.108,0.114,0.149
		c0.034,0.06,0.084,0.11,0.17,0.121c0.115,0.014,0.232,0.025,0.347,0.038c-0.113,0.508-0.186,0.992-0.303,1.47
		c-0.004,0.009-0.018,0.008-0.017,0.019c0,0.011,0.003,0.021,0.003,0.032c-0.088,0.351-0.198,0.699-0.38,1.05
		c-0.47,0.903-1.161,1.634-2.006,2.195c-0.004,0.003-0.003,0.007-0.007,0.009c-0.236-0.496-0.439-1.003-0.589-1.528
		c1.028-0.849,1.593-2.086,1.507-3.43c0,0,0,0,0-0.001c0.4-0.105,0.777-0.25,1.074-0.459c0.166-0.117,0.07-0.443-0.15-0.357
		c-0.758,0.298-1.46,0.552-2.292,0.514c-0.764-0.035-1.383-0.343-2.08-0.567c0.076-0.293,0.149-0.587,0.209-0.884
		C30.304,28.262,31.456,28.436,32.567,28.17z M32.89,36.557c-0.48-0.576-0.872-1.184-1.194-1.816
		c0.013-0.003,0.024,0.003,0.037-0.005c0.912-0.504,1.804-1.382,2.371-2.399c0.306,1.825,1.139,3.489,2.342,4.88
		c-1.245-0.125-2.482,0.019-3.689,0.331c-0.03-0.164-0.074-0.335-0.108-0.46c0.072-0.06,0.137-0.114,0.192-0.153
		C32.975,36.839,32.996,36.684,32.89,36.557z M30.31,39.102c-0.047,0.002-0.084,0.015-0.119,0.032
		c-1.827-2.182-2.947-4.493-3.025-7.413c0-0.016-0.011-0.024-0.016-0.037c0.035-0.022,0.074-0.046,0.108-0.068
		c0.078-0.049,0.085-0.122,0.062-0.184c0.163-0.016,0.31-0.062,0.448-0.138c-0.091,2.126,0.468,4.24,1.723,5.98
		c0.244,0.338,0.665,1.051,1.136,1.112c0.438,0.056,1.12-0.514,1.651-0.976c0.02,0.13,0.035,0.259,0.011,0.358
		c-0.059,0.243-0.416,0.449-0.59,0.604c-0.2,0.177-0.398,0.356-0.597,0.533c-0.099,0.089-0.198,0.179-0.296,0.269
		c-0.044,0.043-0.089,0.085-0.136,0.125c-0.085,0.108-0.197,0.102-0.335-0.018C30.436,39.266,30.412,39.096,30.31,39.102z
		 M25.11,36.613c0.089-0.131,0.157-0.261,0.184-0.381c0.096-0.442-0.081-0.794-0.333-1.125c-0.015-0.342-0.091-0.695-0.155-1.003
		c-0.125-0.604-0.294-1.23-0.597-1.771c-0.095-0.17-0.369-0.056-0.315,0.133c0.168,0.585,0.4,1.145,0.538,1.741
		c0.025,0.109,0.043,0.222,0.06,0.336c-0.111-0.134-0.218-0.271-0.304-0.416c-0.427-0.724-0.707-1.492-0.863-2.285
		c0.616,0.358,1.237,0.635,1.948,0.803c0.105,0.025,0.157-0.067,0.136-0.146c0.525-0.09,1.062-0.394,1.533-0.686
		c-0.039,1.243,0.145,2.505,0.531,3.699c-0.007,0.016-0.02,0.028-0.02,0.048c-0.018,1.544-0.06,2.99-0.583,4.468
		c-0.138,0.391-0.297,0.775-0.476,1.149c-0.278,0.58-0.43,0.678-1.098,0.55c-0.607-0.116-1.221-0.379-1.817-0.607
		C24.692,39.939,25.318,38.293,25.11,36.613z M24.29,35.464c-1.841-2.002-2.563-4.497-2.234-7.165
		c0.309,0.295,0.662,0.542,1.033,0.733c-0.097-0.017-0.205,0.02-0.22,0.132c-0.216,1.554-0.079,3.055,0.566,4.5
		c0.348,0.781,1.706,2.085,0.892,3.058c-0.725,0.866-1.399,0.604-2.151,0.451c0.722-0.358,1.41-0.896,2.062-1.303
		C24.383,35.778,24.404,35.588,24.29,35.464z M23.211,29.101c0.428,0.199,0.882,0.306,1.335,0.268
		c-0.364,0.571-0.81,1.119-1.337,1.653c-0.051-0.595-0.038-1.2,0.039-1.809C23.255,29.167,23.236,29.132,23.211,29.101z
		 M31.565,30.036c-0.019-0.059-0.115-0.084-0.145-0.019c-0.125,0.271-0.127,0.574-0.222,0.858c-0.103,0.309-0.265,0.58-0.453,0.837
		c-0.104-0.67-0.169-1.352-0.151-2.06c0.543,0.099,1.12,0.085,1.658-0.021c-0.05,1.142-0.528,2.177-1.359,2.952
		c-0.046-0.192-0.064-0.393-0.1-0.588C31.25,31.506,31.769,30.692,31.565,30.036z M30.362,29.593
		c-0.145,1.114-0.116,2.219,0.14,3.317c0.296,1.269,1.032,2.131,1.5,3.29c0.221,0.549,0.281,0.501-0.323,0.972
		c-1.035,0.807-1.862-0.178-2.348-1.049c-0.878-1.576-1.198-3.273-1.139-5.062c0.001-0.045-0.021-0.071-0.04-0.101
		c0.175-0.218,0.338-0.521,0.5-0.945c0.142-0.371,0.26-0.75,0.364-1.132C29.365,29.239,29.843,29.464,30.362,29.593z M28.72,27.878
		c-0.123,0.561-0.233,1.235-0.498,1.748c-0.586,1.133-1.401,1.21-2.42,1.058c1.277-1.796,1.957-3.826,1.976-6.038
		c0.437-0.148,0.861-0.312,1.268-0.496C29.062,25.405,28.992,26.638,28.72,27.878z M25.123,30.741
		c-0.099,0.129,0.004,0.356,0.157,0.385c0.663,0.125,1.177,0.257,1.606,0.302c-0.291,0.129-0.58,0.26-0.874,0.381
		c-0.283,0.116-0.577,0.196-0.823,0.381c-0.044,0.033-0.063,0.087-0.071,0.142c-0.442-0.172-1.42-0.573-1.475-0.78
		c-0.089-0.335,0.326-0.554,0.518-0.768c0.497-0.558,0.937-1.166,1.306-1.816c0.672-1.185,1.188-2.599,1.221-3.978
		c0.256-0.074,0.512-0.149,0.763-0.229C27.246,26.961,26.483,28.975,25.123,30.741z M25.966,26.164
		c-0.197-0.049-0.387-0.106-0.567-0.222c-0.202-0.131-0.325-0.333-0.532-0.451c0.47-0.126,0.938-0.254,1.404-0.384
		C26.174,25.47,26.072,25.82,25.966,26.164z M25.415,27.715c-0.184,0.438-0.401,0.857-0.638,1.269
		c-0.68-0.219-1.328-0.256-1.974-0.642c-0.664-0.397-1.206-0.96-1.608-1.617c0.693-0.328,1.436-0.595,2.208-0.827
		C23.74,26.764,24.497,27.502,25.415,27.715z M21.143,37.132c0.018,0.02,0.031,0.045,0.049,0.064
		c-0.033,0.079-0.004,0.18,0.109,0.178c0.022,0,0.04,0.005,0.062,0.006c0.062,0.043,0.139,0.066,0.212,0.044
		c0.016-0.005,0.031-0.014,0.046-0.019c0.708,0.131,1.083,0.669,1.899,0.427c-0.122,0.567-0.341,1.099-0.643,1.596
		c-0.014-0.012-0.027-0.026-0.045-0.032c-0.477-0.148-1.202,0.015-1.726,0.152c0.099-0.543,0.173-1.092,0.191-1.648
		c0.005-0.161-0.131-0.217-0.253-0.192C21.079,37.516,21.118,37.326,21.143,37.132z M21.072,39.728
		c0.509,0.068,1.154,0.129,1.644-0.027c-0.447,0.626-1.029,0.998-1.558,1.538c-0.116,0.118,0,0.337,0.166,0.285
		c1.476-0.459,2.317-2.339,2.457-3.784c0.28-0.127,0.693-0.424,1.02-0.756c-0.08,1.581-0.728,2.977-2.008,4.05
		c-0.166,0.139-0.056,0.39,0.119,0.45c0.597,0.204,1.195,0.409,1.792,0.613c0.136,0.046,0.338,0.139,0.55,0.221
		c-0.971,1.05-2.433,0.026-3.549-0.546c0.035-0.059,0.033-0.135-0.045-0.159c-0.349-0.108-0.749-0.064-1.126-0.036
		C20.765,40.978,20.945,40.359,21.072,39.728z M21.423,41.877c0.247,0.162,0.514,0.348,0.791,0.53
		c-0.77-0.239-1.59-0.32-2.052,0.252c-0.046,0.058,0.011,0.149,0.083,0.108c1.498-0.863,4.073,1.02,5.262,1.841
		c0.297,0.205,0.69,0.579,1.106,0.929c-0.147,0.155-0.295,0.336-0.442,0.527c-0.005,0-0.006-0.005-0.011-0.005
		c-2.487,0.004-5.194-0.454-6.211-3.053c-0.014-0.037-0.04-0.059-0.068-0.071c0.194-0.348,0.374-0.705,0.528-1.074
		C20.74,41.881,21.094,41.921,21.423,41.877z M28.448,44.403c-0.841-0.822-1.845-1.354-3.003-1.58
		c0.106-0.106,0.195-0.227,0.248-0.37c0.131,0.025,0.254,0.033,0.355,0.003c0.512-0.154,0.705-0.755,0.911-1.199
		c0.051-0.109,0.087-0.229,0.134-0.341c1.026,0.486,2,1.062,2.924,1.721C29.371,43.12,28.853,43.7,28.448,44.403z M29.902,41.994
		c0.115-0.717,3.567-1.19,4.059-1.243c0.514-0.055,1.036-0.082,1.553-0.081c0.333,0.001,0.952,0.165,1.266,0.04
		c0.917-0.365,0.281-1.967,0.16-2.697c-0.042-0.252-0.474-0.196-0.449,0.061c0.029,0.299,0.398,1.745,0.237,1.953
		c-0.277,0.359-0.806,0.148-1.214,0.148c-0.973,0-1.945,0.115-2.892,0.336c-0.569,0.133-2.74,0.521-2.931,1.349
		c-0.639-0.393-1.294-0.75-1.988-1.042c0.045-0.026,0.082-0.074,0.096-0.158c0.004-0.022-0.003-0.044-0.023-0.056
		c-0.014-0.008-0.028-0.017-0.042-0.025c0.193-0.177,0.821-0.652,0.867-0.679c0.309-0.181,0.658-0.275,0.958-0.461
		c0.159-0.099,0.103-0.375-0.099-0.367c-0.671,0.028-1.796,0.704-2.054,1.351c-0.043,0.108-0.026,0.202,0.015,0.276
		c-0.07-0.028-0.138-0.06-0.208-0.087c0.485-1.267,0.757-2.684,0.668-4.046c0.519,1.148,1.244,2.197,2.208,3.034
		c0.004,0.004,0.008,0.001,0.012,0.005c0.113,0.198,0.371,0.223,0.597,0.142c0.269-0.097,0.507-0.345,0.72-0.526
		c0.28-0.238,0.561-0.475,0.838-0.716c0.184-0.16,0.461-0.315,0.52-0.561c0.003-0.014,0.001-0.034,0.003-0.05
		c1.284-0.243,2.554-0.268,3.861-0.181c0.094,0.006,0.15-0.036,0.187-0.092c0.305,0.319,0.623,0.626,0.965,0.911
		c-0.078,0.022-0.144,0.075-0.135,0.184c0.029,0.356,0.103,0.765,0.047,1.12c-0.247,1.563-0.515,1.244-1.424,1.199
		c-0.818-0.04-1.642-0.001-2.452,0.123c-1.224,0.188-2.386,0.585-3.506,1.1C30.181,42.172,30.041,42.083,29.902,41.994z
		 M30.561,42.833c0.141-0.096,0.145-0.261,0.041-0.375c1.212-0.494,2.455-0.831,3.768-0.95c0.544-0.049,1.091-0.069,1.637-0.05
		c0.319,0.011,1.072,0.203,1.396,0.095c0.241-0.081,0.407-0.241,0.524-0.443c-0.006,0.025,0.01,0.045,0.011,0.069
		c-0.591,0.493-1.045,1.283-1.289,2.126c-0.018-0.053-0.054-0.101-0.129-0.123c-2.054-0.626-4.246-0.417-6.201,0.422
		c0.015-0.203,0.014-0.398-0.014-0.574C30.391,42.965,30.47,42.895,30.561,42.833z M37.894,37.863
		c-0.467,0.134-1.568-1.471-1.825-1.84c-0.858-1.235-1.402-2.615-1.762-4.059c0.318-0.697,0.471-1.445,0.36-2.181
		c0.449,0.052,0.899,0.099,1.348,0.149c-0.692,2.184,1.141,4.75,3.084,5.566C38.837,36.139,38.291,37.748,37.894,37.863z
		 M37.862,31.897c0.039,0.027,0.073,0.021,0.108,0.022c-0.217,0.469-0.481,0.918-0.852,1.352c-0.062-0.104-0.133-0.201-0.188-0.309
		c-0.504-0.988-0.483-1.943-0.553-2.99c0.21,0.023,0.421,0.046,0.631,0.07C36.921,30.758,37.275,31.488,37.862,31.897z
		 M37.278,30.071c0.436,0.049,0.873,0.098,1.309,0.145c-0.146,0.48-0.295,0.929-0.471,1.361c-0.013-0.018-0.013-0.041-0.034-0.056
		C37.581,31.14,37.357,30.662,37.278,30.071z M39.177,35.314c-0.001,0.003-0.004,0.01-0.005,0.013
		c-0.63-0.38-1.173-0.861-1.622-1.426c0.883,0.172,1.738,0.434,2.576,0.75c-0.408,0.585-0.661,1.313-0.796,2.009
		c-0.048,0.249-0.009,0.727-0.117,0.933c-0.15,0.284-0.553,0.431-0.892,0.559c0.409-0.874,0.821-1.747,1.218-2.626
		C39.647,35.283,39.296,35.069,39.177,35.314z M38.085,38.718c-0.006-0.058-0.036-0.097-0.07-0.13
		c0.046-0.01,0.094-0.021,0.124-0.064c0.01-0.001,0.017,0.006,0.027,0.002c0.435-0.163,0.868-0.337,1.312-0.473
		c0.095-0.029,0.154-0.111,0.159-0.208c0.053-1.111,0.4-2.01,0.844-3.013c0.007-0.017,0-0.03,0.003-0.046
		c0.143,0.059,0.292,0.099,0.434,0.163c0.707,0.317,1.35,0.806,2.128,0.481c0.024-0.01,0.037-0.031,0.054-0.05
		c0.168,0.066,0.38,0.018,0.441-0.208c0.083-0.311,0.157-0.625,0.234-0.939c0.14,0.793,0.334,1.58,0.57,2.357
		c-1.13-0.549-2.242-0.227-3.2,0.541c-1.235,0.99-2.381,2.427-3.145,3.818C38.276,40.284,38.146,39.288,38.085,38.718z
		 M32.901,7.951c0.677,0.053,1.324,0.203,1.983,0.322c-0.032,0.001-0.067,0.003-0.099,0.004c-0.239,0.006-0.351,0.244-0.256,0.447
		c1.109,2.378,1.992,4.81,2.764,7.29c-1.354-3.192-3.281-6.055-5.8-8.095C31.962,7.924,32.433,7.915,32.901,7.951z M27.682,6.197
		c0.004,0.002,0.003,0.006,0.007,0.008c8.368,4.176,11.384,14.787,11.504,23.46c-0.018-0.005-0.032-0.015-0.052-0.017
		c-0.285-0.037-0.574-0.057-0.861-0.089c0.033-0.031,0.06-0.069,0.065-0.124c0.774-8.289-4.521-18.05-11.72-22.156
		C27.006,6.943,27.407,6.597,27.682,6.197z M26.18,7.683c0.107-0.104,0.223-0.208,0.341-0.313
		C33.03,13.11,38.43,20.249,37.958,29.434c-0.002,0.042,0.018,0.067,0.035,0.095c-1.183-0.123-2.372-0.216-3.559-0.244
		c0.569-0.976,0.228-3.163,0.207-4.06c-0.048-2.097-0.415-4.116-1.666-5.834c0.019-0.097,0.049-0.179,0.065-0.28
		c0.085-0.54,0.088-1.082,0.026-1.612c0.005,0.01,0.011,0.021,0.016,0.031c1.883,3.637,2.868,7.462,3.244,11.527
		c0.022,0.24,0.395,0.246,0.38,0c-0.292-4.765-1.63-9.372-4.114-13.467c-1.306-2.154-4.11-6.95-6.978-7.32
		C25.804,8.075,25.986,7.873,26.18,7.683z M25.362,8.529c2.167,0.538,4.188,3.035,5.723,5.468c-0.628-0.454-1.291-0.652-1.972-0.701
		c-0.735-1.749-2.851-3.14-4.516-3.976C24.846,9.051,25.108,8.794,25.362,8.529z M24.026,9.407c0.039,0.106,0.14,0.186,0.252,0.166
		c0.9,0.516,1.745,1.119,2.511,1.821c0.626,0.574,1.121,1.298,1.718,1.893c-1.47,0.041-2.982,0.523-4.329,0.167
		c0.018-0.09,0.001-0.186-0.095-0.237c-1.331-0.712-1.776-2.205-2.45-3.365C22.434,9.709,23.256,9.617,24.026,9.407z M13.329,40.624
		c-0.412,0.354-1.025,1.024-1.394,1.104c-1.503,0.325-1.881-1.2-2.088-2.316c-0.312-1.682-0.067-3.323,0.536-4.906
		c0.332,0.135,0.677,0.244,1.04,0.306c0.199,0.034,0.381,0.037,0.568,0.049C11.305,36.765,11.978,39.169,13.329,40.624z
		 M8.296,31.051c-0.693-2.572,1.27-3.993,1.855-6.278c0.003-0.01-0.005-0.015-0.003-0.024c0.47-1.176-0.068-2.13-0.837-3.107
		c-0.597-0.758-1.228-1.241-1.485-2.229c-0.364-1.401,0.11-2.667,1.327-3.486c1.115-0.75,2.488-0.888,3.602-1.676
		c0.128-0.09,0.129-0.231,0.066-0.329c1.833-1.543,3.242-4.596,5.563-4.852c0.755-0.408,1.4-0.22,1.934,0.564
		c0.201,0.075,0.375,0.172,0.539,0.277c0.018,0.04,0.059,0.065,0.105,0.065c0.524,0.374,0.843,0.911,0.95,1.62
		c0.164,0.343,0.302,0.667,0.522,0.974c0.167,0.233,0.321,0.397,0.481,0.538c0,0,0,0.002,0.001,0.003
		c0.84,0.899,1.596,1.049,2.802,1.01c1.721-0.056,2.882-0.895,4.608,0.109c1.936,1.126,2.523,3.499,1.896,5.537
		c-0.561,1.825-1.585,2.898-2.839,3.611c-0.144-0.081-0.353-0.032-0.346,0.183c0,0.002,0,0.004,0,0.006
		c-2.462,1.233-5.7,1.262-8.198,2.648c-0.032-0.058-0.1-0.097-0.168-0.052c-1.72,1.133-2.562,2.843-3.587,4.467
		c-0.042,0.009-0.079,0.037-0.077,0.096c0,0.009,0,0.018,0,0.027c-0.432,0.675-0.898,1.334-1.483,1.924
		C13.179,35.039,9.212,34.455,8.296,31.051z M13.332,36.121c0.465,0.639,1.257,1.063,2.029,1.089
		c-0.091,0.151-0.189,0.3-0.286,0.448c-0.017-0.033-0.041-0.062-0.075-0.075c-0.516-0.208-0.988-0.248-1.441-0.622
		c-0.066-0.054-0.142-0.038-0.195,0.003C13.342,36.684,13.328,36.403,13.332,36.121z M14.789,40.856
		c-0.144-0.688-0.825-1.403-1.063-2.096c-0.177-0.516-0.28-1.036-0.338-1.56c0.408,0.359,1.005,0.724,1.565,0.65
		c-0.144,0.212-0.296,0.42-0.458,0.624c-0.084,0.106-0.09,0.297,0.023,0.383c-0.004,0.027-0.005,0.055,0.015,0.086
		c0.215,0.336,0.44,0.668,0.641,1.013c0.054,0.093,0.141,0.095,0.214,0.063c0.234,0.301,0.53,0.498,0.852,0.604
		c-0.651,0.725-1.357,1.308-2.22,1.736C14.509,41.934,14.912,41.445,14.789,40.856z M13.548,42.746
		c0.022,0.022,0.05,0.037,0.093,0.026c1.186-0.315,2.321-1.038,3.02-2.06c0.481,0.034,0.987-0.124,1.422-0.471
		c1.308-1.042,1.782-2.978,2.136-4.537c0.164,0.348,0.356,0.665,0.564,0.962c-0.009,0.022-0.03,0.033-0.033,0.06
		c-0.249,2.306-1.167,4.442-2.704,6.188c-0.452,0.514-1.581,1.876-2.247,1.914c-0.881,0.05-1.698-1.296-2.278-2.062
		C13.531,42.759,13.539,42.753,13.548,42.746z M16.223,46.199c-1.661,0.552-2.99-1.599-3.247-2.991
		c0.106-0.096,0.232-0.197,0.365-0.301c0.47,0.825,1.147,2.291,1.962,2.509c0.748,0.2,1.706-0.829,2.202-1.264
		c1.577-1.383,2.657-3.173,3.239-5.141c-0.274,1.813-0.964,3.502-2.126,4.97C18.05,44.699,17.101,45.908,16.223,46.199z
		 M25.018,49.557c-0.618-0.266-1.436-0.049-1.544,0.617l0,0c-1.209,0.096-2.373-0.09-3.458-0.653
		c-0.947-0.492-2.923-1.961-2.522-3.271c0.041-0.135-0.051-0.24-0.163-0.277c0.983-0.788,1.789-1.747,2.417-2.811
		c0.63,2.727,3.594,3.446,6.06,3.424C25.231,47.493,24.81,48.599,25.018,49.557z M35.126,47.751
		c-0.042-0.044-0.092-0.083-0.166-0.092c-1.77-0.206-3.373,0.039-4.802,1.154c-0.185,0.145-0.342,0.323-0.527,0.468
		c-0.347,0.377-0.752,0.677-1.217,0.898c-0.327,0.379-0.677,0.504-1.046,0.426c-0.04-0.028-0.088-0.033-0.134-0.025
		c-0.167-0.059-0.337-0.151-0.512-0.301c-0.922-0.061-1.331-0.572-1.226-1.534c0.135-0.497,0.27-0.994,0.405-1.491
		c0.108-0.253,0.248-0.496,0.392-0.737c0.068-0.049,0.114-0.117,0.116-0.199c0.13-0.211,0.264-0.421,0.385-0.633
		c0.449,0.362,0.915,0.666,1.312,0.676c1.058,0.027,1.815-1.041,2.098-2.108c2.021-0.882,4.035-1.049,6.208-0.68
		c0.08,0.014,0.137-0.018,0.182-0.062c-0.16,0.655-0.194,1.33-0.046,1.917c-0.262-0.158-0.543-0.258-0.873-0.204
		c-0.376,0.061-0.724,0.329-0.862,0.687c-0.157,0.405,0.123,0.998,0.509,1.169C35.173,47.272,35.111,47.516,35.126,47.751z
		 M38.389,47.281c0.062,0.413,0.029,0.898-0.372,1.143c-0.492,0.301-1.158-0.145-1.092-0.709c0.007-0.056-0.028-0.088-0.07-0.106
		c-0.013-0.039-0.015-0.076-0.039-0.116c-0.055-0.092-0.169-0.077-0.228,0c-0.206,0.273-0.293,0.692-0.759,0.568
		c-0.419-0.112-0.442-0.661-0.171-0.942c0.079-0.023,0.158-0.066,0.236-0.135c0.076-0.068,0.034-0.198-0.059-0.223
		c-0.128-0.035-0.317-0.044-0.427-0.115c-0.365-0.235-0.234-0.652,0.036-0.874c0.335-0.274,0.828-0.217,1.204-0.038
		c0.274,0.712,0.844,1.245,1.813,1.355c0.002,0,0.004,0,0.006,0C38.417,47.14,38.378,47.205,38.389,47.281z M41.772,44.25
		c-0.943,1.365-3.661,3.96-4.665,0.857c-0.302-0.932,0.241-2.676,0.978-3.678c0.127,0.074,0.294,0.07,0.386-0.099
		c0.988-1.812,3.367-5.259,5.801-4.475c0.061,0.02,0.109-0.013,0.141-0.057c0.201,0.635,0.441,1.257,0.7,1.871
		C44.07,40.575,43.008,42.46,41.772,44.25z M48.908,42.016c-1.488,0.578-2.208-1.458-2.724-2.495
		c-1.035-2.079-1.642-4.247-2.136-6.487c0.188-0.881,0.345-1.772,0.478-2.669c0.433,4.039,2.065,7.951,4.984,11.232
		C49.3,41.79,49.096,41.943,48.908,42.016z M49.72,41.388c-5.714-7.65-6.483-16.62-1.388-24.877c0.005-0.008,0-0.014,0.003-0.022
		c0.372,0.306,0.764,0.588,1.165,0.857c-0.089-0.042-0.202-0.036-0.27,0.07c-4.609,7.216-4.443,16.487,1.288,23.03
		C50.258,40.779,49.987,41.112,49.72,41.388z M50.647,40.287c-4.957-7.075-5.643-15.135-1.051-22.658
		c0.065-0.107,0.019-0.204-0.058-0.26c0.238,0.158,0.476,0.318,0.726,0.461c-4.018,6.727-2.177,14.776,1.233,21.375
		C51.255,39.488,50.962,39.881,50.647,40.287z"/>
</g>
<g>
</g>
<g>
</g>
<g>
</g>
<g>
</g>
<g>
</g>
<g>
</g>
<g>
</g>
<g>
</g>
<g>
</g>
<g>
</g>
<g>
</g>
<g>
</g>
<g>
</g>
<g>
</g>
<g>
</g>
</svg>
