<?xml version="1.0" encoding="iso-8859-1"?>
<!-- Generator: Adobe Illustrator 18.0.0, SVG Export Plug-In . SVG Version: 6.00 Build 0)  -->
<!DOCTYPE svg PUBLIC "-//W3C//DTD SVG 1.1//EN" "http://www.w3.org/Graphics/SVG/1.1/DTD/svg11.dtd">
<svg version="1.1" id="Capa_1" xmlns="http://www.w3.org/2000/svg" xmlns:xlink="http://www.w3.org/1999/xlink" x="0px" y="0px"
	 viewBox="0 0 55.716 55.716" style="enable-background:new 0 0 55.716 55.716;" xml:space="preserve">
<g>
	<path style="fill:#1D1D1B;" d="M50.91,36.815c-0.787-1.44-1.89-2.645-3.297-3.502c-1.158-0.705-2.852-1.494-4.224-1.15
		c-0.088,0.022-0.12,0.169-0.027,0.209c1.244,0.538,2.556,0.624,3.774,1.333c1.404,0.818,2.495,1.984,3.286,3.396
		C50.599,37.418,51.085,37.135,50.91,36.815z"/>
	<path style="fill:#1D1D1B;" d="M55.562,35.822c0.318-0.192,0.091-0.641-0.222-0.58c-1.315-2.466-3.047-5.046-5.7-5.978
		c0.246-0.147,0.484-0.326,0.7-0.578c1.08-1.257,0.301-3.358-1.326-3.399c1.127-0.438,1.426-1.934,0.653-2.869
		c-1.07-1.294-2.812-1.031-4.209-0.45c-1.133-4.73-2.827-9.422-6.781-12.504C34.454,6.173,28.448,5.2,23.24,5.897
		C14.019,7.132,6.601,15.215,6.149,24.403c-2.333-0.475-5.011,0.701-5.061,3.395c-0.022,1.181,0.801,2.243,1.831,2.667
		c-2.164,2.08-3.731,5.726-2.466,8.579c0.044,0.099,0.139,0.119,0.224,0.092c0.006,0.002,0.008,0.009,0.014,0.01
		c0.413,0.082,0.831,0.15,1.248,0.223c-0.635,1.461-0.71,2.462-0.431,4.187c0.006,0.035,0.024,0.065,0.046,0.091
		C1.577,43.703,1.622,43.75,1.7,43.77c0.738,0.188,1.984,0.296,2.564-0.311c0.034-0.036,0.047-0.081,0.051-0.126
		c0.243-0.156,0.49-0.284,0.734-0.432c0.353,0.315,1.133,0.536,2.206,0.686c-2.409,7.078,11.67,6.211,15.042,6.289
		c5.091,0.118,23.8,1.555,22.856-7.304c-0.015-0.144-0.114-0.217-0.221-0.247c0.91-0.257,1.733-0.74,2.327-1.569
		c1.073-1.494,1.072-3.751-0.393-4.932c0.987,0.638,1.813,1.552,2.345,2.87c0.141,0.348,0.713,0.195,0.57-0.157
		c-0.022-0.053-0.048-0.1-0.07-0.152c0.027,0.004,0.05,0.019,0.079,0.012C51.792,37.978,53.827,36.869,55.562,35.822z
		 M54.904,35.442c-0.585,0.304-1.181,0.585-1.779,0.861c0.034-0.052,0.049-0.115,0.022-0.192c-1.155-3.315-4.604-5.589-8.014-6.134
		c0.001-0.001,0.003-0.002,0.004-0.004c0.303-0.385,0.459-0.894,0.408-1.366c0.888,0.655,1.998,1.124,3.033,1.02
		C51.56,30.155,53.406,32.982,54.904,35.442z M45.587,25.841c0.234,0.204,0.714,0.001,0.632-0.398
		c-0.194-0.941-0.396-1.897-0.616-2.854c0.903-0.383,1.903-0.693,2.84-0.279c1.026,0.453,1.651,2.141,0.226,2.59
		c-0.047,0.015-0.077,0.042-0.104,0.071c-0.065-0.182-0.139-0.362-0.23-0.535c-0.125-0.236-0.546-0.07-0.44,0.186
		c0.299,0.725,0.345,1.436,0.211,2.204c-0.067,0.383,0.499,0.554,0.593,0.163c0.085-0.353,0.096-0.708,0.067-1.06
		c0.819-0.016,1.375,0.601,1.372,1.388c-0.004,0.9-0.843,1.474-1.658,1.625c-0.049,0.009-0.097,0.008-0.146,0.014
		c-0.091-0.011-0.178-0.029-0.271-0.037c-0.082-0.007-0.143,0.018-0.192,0.055c-0.995-0.049-1.928-0.623-2.701-1.221
		c-0.024-0.019-0.048-0.012-0.073-0.017c-0.027-0.024-0.048-0.051-0.078-0.073c-0.298-0.219-0.6,0.239-0.377,0.489
		c0.476,0.533,0.293,1.314-0.258,1.733c-0.101-0.009-0.203-0.022-0.304-0.027c-0.136-0.007-0.19,0.167-0.124,0.258
		c-0.393,0.148-0.835,0.172-1.268,0.156c-0.053-0.147-0.115-0.293-0.193-0.437c-0.205-0.379-0.727-0.046-0.565,0.33
		c0.011,0.026,0.017,0.052,0.027,0.078c-0.204,0.027-0.246,0.365-0.023,0.409c0.051,0.01,0.106,0.018,0.159,0.027
		c0.451,1.971-1.44,3.596-3.448,3.203c-1.867-0.366-2.957-1.925-3.502-3.63c0.005-0.013,0.012-0.024,0.017-0.037
		c0.03,0,0.058,0.004,0.088,0.003c0.463-0.018,1.112-0.091,1.359-0.528c0.081-0.143-0.021-0.324-0.187-0.325
		c-0.395-0.003-0.73,0.262-1.127,0.318c-0.083,0.012-0.166,0.011-0.248,0.014c-0.057-0.024-0.119-0.014-0.18-0.004
		c-0.029-0.006-0.054-0.011-0.083-0.005c-0.324-0.028-0.64-0.117-0.938-0.264c-0.246-0.121-0.454,0.225-0.216,0.37
		c0.258,0.159,0.533,0.271,0.819,0.342c-0.182,0.276-0.388,0.521-0.605,0.743c-0.202-0.036-0.399,0.165-0.391,0.357
		c-1.788,1.455-4.329,1.26-5.764-1.135c-0.011-0.018-0.028-0.017-0.04-0.031c-0.086-0.184-0.332-0.295-0.512-0.104
		c-0.793,0.84-2.051,0.62-2.553-0.387c-0.113-0.227-0.449-0.201-0.569,0c-0.592,0.995-1.474,1.402-2.319,1.352
		c-0.096-0.014-0.193-0.025-0.29-0.038c-1.027-0.191-1.943-1.055-2.135-2.38c-0.012-0.083-0.068-0.123-0.134-0.145
		c0-0.021,0.004-0.04,0.004-0.062c2.791,0.102,5.589,0.121,8.388,0.11c6.077-0.023,12.214,0.216,17.889-2.246
		C45.559,26.107,45.604,25.973,45.587,25.841z M21.3,34.503c0.302,0.501,0.893,0.627,1.474,0.565
		c-0.326,0.189-0.674,0.328-1.078,0.332c-0.398,0.004-0.869-0.134-1.147-0.433c-0.342-0.368-0.231-1.135,0.177-1.431
		c0.144,0.013,0.286,0.038,0.43,0.054C21.082,33.886,21.137,34.232,21.3,34.503z M21.77,34.5c-0.244-0.179-0.402-0.559-0.359-0.878
		c0.955,0.116,1.892,0.293,2.801,0.536c-0.027-0.002-0.054-0.002-0.079,0.011c-0.142,0.077-0.28,0.166-0.415,0.259
		C23.105,34.566,22.353,34.928,21.77,34.5z M6.153,37.446c-0.06-0.037-0.123-0.057-0.182-0.103
		c-0.099-0.077-0.242,0.058-0.142,0.142c0.058,0.048,0.118,0.086,0.178,0.126c-0.379,0.44-0.728,0.907-1.034,1.407
		c-0.037,0.061-0.044,0.118-0.038,0.172c-0.44-0.067-0.884-0.116-1.327-0.172c0.031-0.026,0.054-0.063,0.058-0.114
		c0.099-1.108,0.456-2.155,1.079-3.08c0.47-0.697,1.08-1.152,1.686-1.663c1.246,0.197,2.628-0.507,3.174-1.667
		c0.506,0.739,1.408,1.191,2.354,0.973c1.188-0.274,1.918-1.529,1.765-2.69c1.043,0.991,2.501,1.066,3.642,0.48
		c1.126-0.071,2.239-0.053,3.328,0.064c0.443,0.177,0.926,0.254,1.408,0.21c4.366,0.803,8.271,3.133,11.087,6.821
		c-0.253,0.066-0.507,0.132-0.76,0.198c-0.009-0.047-0.03-0.095-0.067-0.143C26.927,31.22,12.306,30.588,6.153,37.446z
		 M13.818,34.912c-0.425-0.025-0.802-0.236-1.02-0.596c0.632-0.19,1.275-0.36,1.935-0.487c0.092,0.185,0.167,0.375,0.17,0.615
		C14.559,34.713,14.293,34.94,13.818,34.912z M14.814,34.976c-0.09,0.283-0.245,0.547-0.472,0.729
		c-0.917,0.736-2.121-0.165-2.253-1.173c0.16-0.056,0.328-0.098,0.49-0.15c0.219,0.479,0.656,0.774,1.185,0.834
		C14.1,35.255,14.514,35.18,14.814,34.976z M8.908,36.038c-0.061,1.12-1.073,1.855-2.106,1.665
		C7.428,37.08,8.134,36.524,8.908,36.038z M3.383,38.989c-0.305-0.038-0.608-0.084-0.914-0.119c0.003-0.036-0.006-0.066-0.029-0.09
		c-0.118-1.322-0.009-2.622,0.436-3.885c0.355-1.009,0.928-1.795,1.531-2.604c0.114,0.465,0.354,0.908,0.753,1.272
		c0.17,0.155,0.354,0.278,0.546,0.375c-1.502,1.072-2.321,3.277-2.356,4.966C3.349,38.943,3.367,38.966,3.383,38.989z
		 M18.094,30.752c0.384-0.354,0.69-0.804,0.868-1.338c0.163,0.546,0.455,0.989,0.821,1.331
		C19.224,30.721,18.661,30.723,18.094,30.752z M31.019,33.152c1.966,0.688,3.455,2.207,4.171,4.155
		c0.118,0.32,0.63,0.188,0.519-0.143c-0.717-2.127-2.434-3.722-4.582-4.342c1.05,0.036,2.104-0.274,2.912-0.981
		c0.796,0.684,1.506,1.423,2.062,2.343c0.539,0.892,0.792,1.909,1.295,2.805c-0.016,0.002-0.026-0.009-0.042-0.005
		c-0.89,0.217-1.734,0.649-2.609,0.93c-0.346,0.111-0.695,0.208-1.045,0.303c-2.646-3.548-6.354-6.006-10.506-6.999
		c0.404-0.201,0.781-0.493,1.098-0.892c0.775,0.942,2.188,1.066,3.13,0.239c0.764,1.45,2.21,2.194,3.667,2.256
		C30.891,32.79,30.819,33.082,31.019,33.152z M34.526,31.337c0.119-0.15,0.229-0.31,0.328-0.483
		c0.121,0.424,0.298,0.827,0.501,1.213C35.081,31.798,34.802,31.554,34.526,31.337z M37.586,37.536
		c0.156-0.104,0.164-0.28,0.09-0.41c0.187-1.088-0.227-2.263-0.907-3.326c0.623,0.482,1.363,0.798,2.203,0.864
		c-0.422,0.11-0.84,0.229-1.246,0.366c-0.17,0.057-0.101,0.321,0.075,0.271c0.38-0.109,0.775-0.204,1.175-0.291
		c0.005,0.055,0.022,0.106,0.033,0.159c-0.147,0.141-0.29,0.282-0.345,0.489c-0.087,0.326-0.026,0.718,0.093,1.028
		c0.249,0.649,0.852,1.185,1.573,1.179c0.703-0.006,1.281-0.525,1.535-1.151c0.16-0.393,0.215-0.939,0.054-1.369
		c0.004-0.018,0.013-0.033,0.016-0.051c0.024-0.131-0.072-0.223-0.178-0.236c-0.079-0.102-0.173-0.194-0.296-0.259
		c-0.194-0.102-0.367,0.098-0.284,0.284c0.063,0.14,0.116,0.27,0.162,0.398c-0.252,0.315-0.568,0.541-1.033,0.501
		c-0.571-0.049-0.92-0.511-1.06-1.027c2.052-0.416,4.278-0.501,6.167,0.147c-2.386,1.007-4.328,2.736-5.456,5.119
		c-0.278,0.587-0.222,1.059-0.929,1.187c-0.408,0.074-1.934-1.107-2.304-1.281c-1.169-0.548-2.368-0.995-3.638-1.169
		C34.639,38.775,36.353,38.354,37.586,37.536z M39.063,35.429c0.2,0.486,0.656,0.859,1.19,0.94c0.401,0.061,0.849-0.066,1.186-0.32
		c-0.006,0.111-0.028,0.228-0.07,0.354c-0.153,0.454-0.531,0.891-1.041,0.911c-0.482,0.019-0.879-0.337-1.082-0.746
		C39.11,36.292,39.006,35.812,39.063,35.429z M24.786,6.509c6.119-0.397,12.722,1.473,16.379,6.702
		c1.888,2.7,2.863,5.895,3.599,9.107c-0.121,0.138-0.052,0.338,0.096,0.434c0.212,0.951,0.409,1.903,0.601,2.841
		c-0.081-0.08-0.192-0.122-0.318-0.074c-6.249,2.407-12.949,2.127-19.546,2.119c-6.42-0.008-12.776-0.346-19.146-1.159
		C6.977,16.253,14.127,7.2,24.786,6.509z M1.828,27.175c0.472-1.929,2.52-2.589,4.299-2.386c-0.016,0.587-0.009,1.178,0.034,1.773
		c0.002,0.021,0.015,0.032,0.023,0.048c-0.071,0.143-0.043,0.351,0.143,0.386c4.026,0.752,8.085,1.111,12.157,1.281
		c-0.029,2.736-3.352,3.769-4.999,1.601c-0.143-0.189-0.444-0.033-0.344,0.177c-0.12,0.051-0.203,0.167-0.141,0.331
		c0.356,0.946-0.048,2.122-1.049,2.48c-0.836,0.299-1.7-0.155-2.169-0.855c0-0.001,0.001-0.002,0.001-0.003
		c0.044-0.183-0.064-0.314-0.2-0.367c-0.016-0.038-0.021-0.078-0.035-0.116c0.708,0.028,1.419-0.19,1.807-0.762
		c0.146-0.215-0.132-0.433-0.332-0.332c-0.452,0.228-0.819,0.507-1.344,0.556c-0.511,0.048-0.983-0.092-1.418-0.352
		c-0.26-0.155-0.459,0.222-0.231,0.395c0.32,0.241,0.746,0.402,1.191,0.469c0.01,0.066,0.012,0.134,0.027,0.199
		c-0.035,0.036-0.065,0.08-0.08,0.141c-0.237,0.981-1.235,1.673-2.226,1.711c-0.032-0.09-0.119-0.162-0.227-0.131
		c-0.083,0.024-0.155,0.072-0.236,0.103c-0.34-0.064-0.666-0.209-0.941-0.471c-0.398-0.38-0.581-0.924-0.596-1.49
		c0.026-0.036,0.051-0.069,0.077-0.105c0.062-0.088,0.012-0.188-0.067-0.24c0.034-0.367,0.133-0.732,0.296-1.057
		c0.023-0.019,0.047-0.032,0.07-0.052c0.071-0.062,0.081-0.134,0.069-0.204c0.184-0.284,0.415-0.526,0.697-0.685
		c0.066-0.037,0.021-0.155-0.053-0.125c-0.342,0.136-0.623,0.349-0.869,0.592c-0.051-0.008-0.105-0.011-0.157,0.016
		c-0.444,0.229-0.894,0.307-1.313,0.264c-0.032-0.031-0.079-0.04-0.128-0.032C2.376,29.739,1.483,28.583,1.828,27.175z
		 M0.838,38.702c0.013-1.473-0.166-2.807,0.271-4.284c0.426-1.441,1.193-2.71,2.184-3.818c0.414,0.1,0.846,0.097,1.264-0.049
		c-0.139,0.321-0.211,0.667-0.224,1.015c-1.98,1.684-2.624,4.82-2.212,7.268C1.692,38.788,1.264,38.739,0.838,38.702z M2.277,39.429
		c0.938,0.16,1.878,0.306,2.816,0.423c0.245,0.031,0.358-0.253,0.289-0.45c0.034-0.021,0.066-0.051,0.092-0.091
		c0.332-0.503,0.713-0.971,1.131-1.409c1.324,0.403,2.755-0.6,2.698-2.097c0.762-0.444,1.575-0.831,2.434-1.15
		c0.12,1.216,1.482,2.23,2.673,1.594c0.557-0.298,0.893-0.896,0.963-1.511c0.035-0.306-0.005-0.683-0.137-1.004
		c1.637-0.272,3.334-0.345,5.006-0.233c-0.405,0.42-0.57,1.128-0.174,1.666c1.129,1.532,3.407,0.414,4.274-0.789
		c0.061-0.084,0.006-0.168-0.072-0.204c2.818,0.763,5.335,2.127,7.047,4.117c-0.016-0.011-0.027-0.024-0.047-0.033
		c-4.661-1.998-9.589-2.861-14.643-2.099c-2.212,0.334-4.366,0.947-6.418,1.838c-1.539,0.668-3,1.509-4.421,2.396
		C4.584,41.145,0.395,44.756,2.277,39.429z M4.826,42.493C4.528,42.7,4.231,42.91,3.937,43.132
		c-0.007,0.005-0.006,0.013-0.011,0.019c-0.261,0.05-0.511,0.148-0.778,0.197c-0.254,0.047-0.505,0.054-0.756,0.04
		c8.958-5.989,17.989-9.056,28.553-4.575c0.288,0.122,0.546-0.173,0.48-0.391c0.099,0.119,0.202,0.235,0.295,0.358
		c0.063,0.084,0.145,0.126,0.23,0.144c0.027,0.072,0.081,0.132,0.176,0.126c0.076-0.005,0.157-0.013,0.235-0.019
		c0.005,0.005,0,0.014,0.007,0.018c2.409,1.127,4.836,1.894,7.058,3.414c0.177,0.121,0.421-0.005,0.476-0.194
		c0.938-3.22,3.134-5.575,6.238-6.807c0.022-0.009,0.036-0.023,0.054-0.035c0.076,0.037,0.143,0.089,0.217,0.129
		c-0.118,0.008-0.209,0.093-0.248,0.205c-0.052-0.019-0.107-0.025-0.158,0.007c-1.468,0.924-2.661,2.491-3.741,3.83
		c-0.46,0.57-0.905,1.154-1.328,1.752c-0.023,0.032-0.126,0.2-0.26,0.424c-0.075-0.016-0.153-0.028-0.226-0.045
		c-0.236-0.055-0.33,0.287-0.1,0.363c0.038,0.013,0.08,0.021,0.119,0.033c-0.268,0.46-0.579,1.015-0.734,1.364
		c-0.023-0.013-0.04-0.033-0.072-0.035c-0.024-0.002-0.048-0.004-0.073-0.006c-0.032-0.003-0.059,0.005-0.083,0.016
		c-10.576-5.971-23.848-8.229-34.365-1.185C4.998,42.252,4.832,42.327,4.826,42.493z M5.506,42.632
		c3.79-2.202,7.744-3.426,11.743-3.844c-0.214,0.095-0.412,0.233-0.552,0.429c-0.108,0.152,0.137,0.286,0.246,0.144
		c0.6-0.786,1.728-0.174,1.503,0.701c-0.206-0.092-0.41-0.19-0.613-0.288c-0.181-0.088-0.341,0.175-0.16,0.273
		c0.268,0.145,0.541,0.283,0.798,0.447c0.083,0.053,0.219,0.022,0.263-0.069c0.271-0.561,0.119-1.29-0.447-1.615
		c-0.097-0.055-0.199-0.074-0.301-0.098c5.667-0.45,11.409,0.719,16.887,3.114c-1.019,0.059-3.051,0.203-5.585,0.374
		c0.661-0.493,0.333-1.725-0.531-1.814c-0.146-0.015-0.182,0.236-0.035,0.259c0.66,0.105,0.794,1.053,0.264,1.411
		c-0.057,0.038-0.068,0.108-0.054,0.168c-6.654,0.446-16.526,1.048-21.096,0.79c-0.049-0.139-0.27-0.208-0.343-0.044
		c-0.004,0.008-0.005,0.015-0.009,0.022C6.499,42.924,5.803,42.808,5.506,42.632z M44.584,42.572
		c-0.187,7.184-13.946,6.551-18.468,6.609c-2.775,0.036-19.684,0.99-18.4-5.533c7.059,0.793,24.851-1.046,27.695-1.226
		c0.157-0.01,0.25-0.112,0.284-0.231c1.341,0.619,2.666,1.302,3.967,2.059c0.309,0.18,0.586-0.235,0.383-0.462
		c0.36-0.489,0.699-0.992,1.037-1.496c1.149,0.281,2.422,0.368,3.575,0.107C44.62,42.444,44.586,42.495,44.584,42.572z
		 M46.36,40.782c-1.305,1.284-3.269,1.385-5.013,1.115c0.525-0.782,1.058-1.561,1.671-2.294c1.015-1.214,2.279-2.253,3.222-3.513
		c0.013,0.013,0.021,0.028,0.038,0.04C47.79,37.214,47.607,39.555,46.36,40.782z M49.615,37.984
		c-0.032,0.017-0.041,0.045-0.058,0.069c-1.659-3.398-5.111-4.21-8.54-3.784c1.277-0.668,2.058-2.083,1.801-3.5
		c0.694,0.044,1.402-0.057,1.944-0.457c3.599,0.713,5.977,2.87,7.922,5.994c0.049,0.079,0.128,0.102,0.209,0.104
		C51.789,36.917,50.68,37.41,49.615,37.984z"/>
	<path style="fill:#1D1D1B;" d="M45.417,37.738c-0.706,0.088-1.019,0.925-0.794,1.539c0.073,0.199,0.382,0.121,0.322-0.089
		c-0.151-0.532,0.15-0.862,0.553-1.148C45.613,37.958,45.593,37.717,45.417,37.738z"/>
	<path style="fill:#1D1D1B;" d="M44.713,39.701c-0.122,0.2,0.179,0.367,0.31,0.181c0.09-0.031,0.156-0.007,0.197,0.074
		c0.015,0.227-0.073,0.381-0.264,0.464c-0.077,0.045-0.156,0.087-0.237,0.125c-0.133,0.112-0.211,0.057-0.235-0.164
		c0.116-0.085,0.014-0.274-0.115-0.197c-0.245,0.146-0.226,0.49-0.005,0.663c0.275,0.214,0.779-0.042,1.012-0.226
		C46.159,40.003,45.118,39.039,44.713,39.701z"/>
	<path style="fill:#1D1D1B;" d="M28.389,40.804c-0.365,0.07-0.759,0.161-1.125,0.039c-0.422-0.141-0.351-0.548-0.385-0.931
		c-0.017-0.186-0.305-0.192-0.295,0c0.012,0.252-0.054,0.726,0.05,0.958c0.065,0.146,0.251,0.204,0.391,0.26
		c0.473,0.191,1.031,0.205,1.478-0.057C28.653,40.986,28.548,40.773,28.389,40.804z"/>
	<path style="fill:#1D1D1B;" d="M16.26,40.753c-0.306,0.29-0.851,0.182-1.01-0.22c-0.079-0.199-0.401-0.121-0.329,0.091
		c0.233,0.684,1.09,0.893,1.623,0.412C16.734,40.864,16.447,40.575,16.26,40.753z"/>
	<path style="fill:#1D1D1B;" d="M22.004,41.154c-0.282,0.252-0.737,0.334-1.023,0.044c-0.327-0.331-0.158-0.848,0.22-1.055
		c0.155-0.085,0.019-0.307-0.137-0.234c-0.55,0.259-0.798,1.027-0.403,1.528c0.411,0.521,1.248,0.455,1.591-0.091
		C22.351,41.188,22.134,41.038,22.004,41.154z"/>
	<path style="fill:#1D1D1B;" d="M13.407,42.072c-0.571,0.073-1.224-0.483-0.851-1.077c0.097-0.153-0.138-0.284-0.24-0.14
		c-0.498,0.708,0.325,1.927,1.162,1.482C13.597,42.275,13.551,42.054,13.407,42.072z"/>
	<path style="fill:#1D1D1B;" d="M14.911,12.249c-0.002-0.014-0.016-0.017-0.02-0.029c0.021-0.128-0.111-0.269-0.26-0.188
		c-0.636,0.342-2.957,1.964-1.308,2.594c0.458,0.175,0.998,0.064,1.315-0.313C15.114,13.744,15.019,12.926,14.911,12.249z
		 M13.613,14.199c-0.906-0.19,0.236-1.165,0.869-1.632C14.544,13.266,14.535,14.393,13.613,14.199z"/>
	<path style="fill:#1D1D1B;" d="M18.075,11.668c-0.457-0.613-1.266-0.674-1.969-0.7c-0.111-0.004-0.172,0.056-0.21,0.131
		c-0.085,0.014-0.166,0.085-0.15,0.195c0.094,0.665,0.226,1.455,0.83,1.861c0.426,0.287,1.057,0.352,1.459-0.011
		C18.467,12.752,18.4,12.104,18.075,11.668z M17.514,12.875c-0.853,0.305-1.222-0.684-1.393-1.38
		c0.437,0.012,0.945,0.009,1.32,0.266C17.806,12.009,18.073,12.675,17.514,12.875z"/>
	<path style="fill:#1D1D1B;" d="M41.356,22.245c-0.289-0.117-0.415,0.352-0.129,0.468c0.408,0.165,0.86,0.448,1.064,0.855
		c0.256,0.508-0.099,0.959-0.637,0.914c-1.245-0.103-1.023-1.624-0.683-2.426c0.068-0.159-0.151-0.301-0.24-0.14
		c-0.367,0.668-0.619,1.541-0.26,2.265c0.27,0.545,0.91,0.861,1.511,0.759c0.576-0.098,0.965-0.615,0.874-1.2
		C42.741,22.998,41.995,22.504,41.356,22.245z"/>
	<path style="fill:#1D1D1B;" d="M38.956,22.731c-0.039-0.045-0.084-0.065-0.129-0.076c0.034-0.025,0.069-0.054,0.102-0.078
		c0.101-0.073,0.011-0.237-0.099-0.17c-0.647,0.39-1.369,0.738-1.576,1.542c-0.15,0.583,0.05,1.301,0.627,1.568
		c0.62,0.287,1.323-0.112,1.595-0.694C39.821,24.087,39.447,23.295,38.956,22.731z M38.992,24.631
		c-0.254,0.504-0.946,0.645-1.206,0.067c-0.302-0.674,0.197-1.322,0.727-1.787c-0.005,0.065,0.013,0.134,0.067,0.196
		C38.927,23.501,39.259,24.101,38.992,24.631z"/>
	<path style="fill:#1D1D1B;" d="M31.511,10.969c-0.031-0.09-0.094-0.141-0.165-0.166c0.063-0.062,0.118-0.115,0.156-0.148
		c0.123-0.105-0.039-0.319-0.175-0.226c-0.728,0.496-3.13,2.926-1.326,3.534c0.52,0.175,1.175-0.013,1.512-0.447
		C32.081,12.788,31.782,11.748,31.511,10.969z M31.235,12.841c-0.12,0.434-0.593,0.769-1.05,0.595
		c-0.747-0.283,0.165-1.536,0.823-2.275C31.181,11.688,31.388,12.289,31.235,12.841z"/>
	<path style="fill:#1D1D1B;" d="M23.543,18.152c-0.002-0.005-0.007-0.006-0.01-0.01c0.131-0.164,0.25-0.329,0.331-0.497
		c0.086-0.179-0.168-0.334-0.27-0.158c-0.486,0.836-1.546,1.344-1.754,2.34c-0.117,0.563,0.04,1.305,0.591,1.588
		c0.592,0.305,1.195-0.089,1.436-0.643C24.212,19.976,23.866,18.897,23.543,18.152z M23.335,20.664
		c-0.308,0.521-0.833,0.298-0.974-0.182c-0.216-0.733,0.303-1.332,0.812-1.91c0.033,0.403,0.207,0.778,0.274,1.195
		C23.494,20.059,23.493,20.398,23.335,20.664z"/>
	<path style="fill:#1D1D1B;" d="M26.543,19.34c-0.328-0.643-1.083-1.044-1.745-1.244c-0.072-0.021-0.13-0.006-0.18,0.021
		c0.005-0.043,0.008-0.088,0.014-0.131c0.016-0.132-0.202-0.16-0.231-0.031c-0.171,0.757-0.389,1.667,0.159,2.332
		c0.357,0.434,1.034,0.689,1.565,0.427C26.642,20.457,26.796,19.836,26.543,19.34z M25.758,20.317
		c-0.483,0.099-0.924-0.3-1.069-0.727c-0.114-0.336-0.126-0.703-0.105-1.065c0.026,0.023,0.038,0.054,0.077,0.066
		c0.409,0.131,0.821,0.331,1.137,0.628C26.117,19.518,26.426,20.18,25.758,20.317z"/>
	<path style="fill:#1D1D1B;" d="M11.386,22.656c-0.375-0.664-1.251-0.783-1.936-0.82c-0.054-0.003-0.084,0.024-0.121,0.044
		c0.004-0.095,0.011-0.191,0.028-0.287c0.03-0.16-0.202-0.229-0.248-0.068c-0.195,0.684-0.074,1.428,0.367,1.996
		c0.365,0.47,1.125,0.99,1.701,0.561C11.605,23.764,11.634,23.094,11.386,22.656z M10.926,23.694
		c-0.455,0.399-1.153-0.412-1.343-0.748c-0.115-0.203-0.191-0.419-0.23-0.641c0.032,0.018,0.054,0.047,0.097,0.051
		c0.415,0.044,0.884,0.067,1.247,0.298C10.994,22.845,11.264,23.397,10.926,23.694z"/>
	<path style="fill:#1D1D1B;" d="M13.455,20.714c-0.939-0.843-2.4-1.054-3.469-0.317c-0.21,0.145-0.122,0.426,0.063,0.484
		c0.758,1.099,2.521,1.175,3.406,0.178C13.539,20.965,13.557,20.807,13.455,20.714z M10.365,20.802
		c0.832-0.421,1.768-0.426,2.537,0.106C12.168,21.544,11.054,21.473,10.365,20.802z"/>
</g>
<g>
</g>
<g>
</g>
<g>
</g>
<g>
</g>
<g>
</g>
<g>
</g>
<g>
</g>
<g>
</g>
<g>
</g>
<g>
</g>
<g>
</g>
<g>
</g>
<g>
</g>
<g>
</g>
<g>
</g>
</svg>
