<?xml version="1.0" encoding="iso-8859-1"?>
<!-- Generator: Adobe Illustrator 18.0.0, SVG Export Plug-In . SVG Version: 6.00 Build 0)  -->
<!DOCTYPE svg PUBLIC "-//W3C//DTD SVG 1.1//EN" "http://www.w3.org/Graphics/SVG/1.1/DTD/svg11.dtd">
<svg version="1.1" id="Capa_1" xmlns="http://www.w3.org/2000/svg" xmlns:xlink="http://www.w3.org/1999/xlink" x="0px" y="0px"
	 viewBox="0 0 45.368 45.368" style="enable-background:new 0 0 45.368 45.368;" xml:space="preserve">
<g>
	<path style="fill:#1D1D1B;" d="M43.178,31.009c0.575-0.821,0.93-1.79,0.278-2.72c-0.49-0.699-1.239-0.904-1.937-0.719
		c1.288-1.675-0.295-4.225-2.483-3.859c0.174-1.839-2.016-2.983-3.34-1.711c-0.154-1.771-0.71-3.805-2.671-4.241
		c-0.074-0.016-0.147-0.011-0.221-0.021c0-0.009,0.008-0.013,0.007-0.023c-0.198-1.676-0.878-3.206-1.412-4.797
		c-0.576-1.719-0.93-3.535-1.581-5.226c0.002-0.076-0.025-0.146-0.073-0.2c-0.012-0.029-0.02-0.06-0.032-0.089
		c0.155-0.142,0.199-0.399-0.042-0.515C26.447,5.337,3.354,3.201,4.226,8.029C4.214,8.08,4.205,8.131,4.193,8.182
		C4.156,8.231,4.141,8.29,4.158,8.348c-0.942,4.186-1.559,8.495-2.066,12.747c-0.005,0.045,0.022,0.073,0.037,0.108
		C1.201,25.228,0.217,29.437,0,33.501c-0.003,0.062,0.023,0.11,0.057,0.15c-0.024,0.083,0.008,0.181,0.12,0.219
		c4.119,1.421,8.756,1.885,13.106,1.641c-0.193,0.742-0.01,1.497,0.868,2.051c1.648,1.039,3.997-0.083,5.205-1.399
		c-0.288,0.771-0.056,1.61,0.659,2.144c0.963,0.719,2.09,0.406,2.958-0.234c1.049,3.122,6.951,2.8,7.198,0.164
		c0.479,0.47,1.104,0.77,1.828,0.755c0.64-0.013,1.406-0.371,1.854-0.919c0.793,1.932,4.311,2.102,5.194-0.023
		c1.458,2.178,5.782,1.369,4.63-1.503C46.261,35.275,45.716,31.786,43.178,31.009z M29.33,7.471
		c0.019,0.009,0.038,0.009,0.056,0.014c-3.752,2.517-7.918,2.5-12.271,2.401c-4.106-0.093-8.671,0.134-12.452-1.682
		C4.419,3.019,27.035,6.385,29.33,7.471z M2.78,33.92c0.078-0.02,0.151-0.07,0.162-0.17c0.364-3.279,0.797-19.614,5.795-21.105
		c3.118,0.738,0.477,19.845,0.315,21.94c-0.002,0.028,0.018,0.04,0.023,0.064C6.968,34.49,4.882,34.243,2.78,33.92z M9.557,34.682
		c0.017-0.033,0.046-0.054,0.05-0.097c0.2-2.486,3.324-20.019-0.109-22.057c0.016,0,0.032-0.004,0.048-0.004
		c0.21,0.005,0.269-0.344,0.051-0.376c-2.914-0.434-3.844,1.811-4.499,4.312c-1.463,5.588-2.165,11.533-2.55,17.289
		c-0.004,0.063,0.016,0.11,0.05,0.141c-0.7-0.109-1.398-0.213-2.105-0.335c0.746-4.077,1.998-8.389,2.209-12.587
		c0.648-4.101,1.345-8.219,1.869-12.34c3.751,2.07,8.379,1.771,12.545,1.88c4.442,0.116,8.703,0.172,12.417-2.478
		c0.261,3.312,1.888,6.506,2.706,9.688c-0.337,0.028-0.664,0.121-0.972,0.259c-0.369-1.711-1.828-6.11-3.799-6.583
		c-0.03-0.089-0.092-0.168-0.215-0.177c-5.727-0.431-3.247,7.165-1.833,10.663c-0.569-0.015-1.153,0.137-1.546,0.451
		c-0.362,0.288-0.634,0.653-0.833,1.056c-0.505-2.529-1.209-5.259-2.178-7.643c-0.547-1.348-1.343-2.442-2.578-3.038
		c-0.009-0.081-0.046-0.157-0.143-0.172c-0.132-0.021-0.256-0.03-0.38-0.039c-0.108-0.036-0.211-0.078-0.326-0.108
		c-0.079-0.02-0.142,0.034-0.165,0.099c-2.181,0.105-2.886,2.154-3.321,4.352c-1.154,5.833-1.6,12.035-1.517,17.972
		C11.468,34.788,10.509,34.747,9.557,34.682z M26.339,11.83c1.608-0.312,2.564,1.816,3.15,2.973c0.563,1.11,0.937,2.275,1.261,3.47
		c-0.591,0.407-1.058,0.998-1.268,1.674c-0.518-0.396-1.17-0.354-1.791,0.129c-0.688,0.536-0.981,1.379-0.99,2.22
		c-0.242-0.196-0.556-0.315-0.891-0.375c-0.36-1.59-0.774-3.167-1.074-4.771c-0.157-0.839-0.454-1.977-0.43-2.805
		C24.355,12.703,25.146,12.057,26.339,11.83z M13.562,34.834c-0.262,0-0.519-0.012-0.779-0.016
		c0.244-4.104-0.298-21.736,5.109-21.847c3.241,2.128,3.447,7.359,4.701,10.706c0.049,0.131,0.159,0.171,0.262,0.162
		c-0.076,0.226-0.136,0.458-0.172,0.696c-0.048,0.324-0.114,0.815-0.096,1.284c-0.31-0.185-0.69-0.253-1.087-0.147
		c-0.789,0.211-1.057,0.835-1.098,1.527c-0.719-0.54-1.711-0.593-2.515-0.022c-1.11,0.788-1.288,2.114-0.964,3.321
		c-0.062-0.03-0.124-0.06-0.188-0.079c-0.495-0.148-0.992,0.032-1.37,0.361c-0.614,0.532-1.328,2.07-0.327,2.515
		C14.465,33.653,13.908,34.214,13.562,34.834z M43.334,36.044c-0.163,0.096-0.178,0.258-0.112,0.383
		c-0.056,0.06-0.093,0.135-0.061,0.227c1.022,2.886-3.363,2.441-3.923,0.547c-0.071-0.239-0.493-0.286-0.533,0
		c-0.382,2.71-3.819,2.011-4.495,0.095c0.005-0.039,0.02-0.075,0.022-0.114c0.374,0.041,0.751-0.002,1.003-0.153
		c0.139-0.083,0.138-0.357-0.05-0.382c-0.315-0.043-0.621,0.034-0.939,0.013c-0.346-0.022-0.663-0.168-1.005-0.183
		c-0.13-0.006-0.178,0.156-0.101,0.243c0.13,0.146,0.331,0.258,0.556,0.339c-0.424,0.716-0.846,1.351-1.821,1.356
		c-0.716,0.004-1.336-0.378-1.783-0.905c-0.04-0.152-0.076-0.303-0.15-0.466c-0.055-0.119-0.164-0.141-0.269-0.122
		c-0.108-0.095-0.322-0.002-0.261,0.155c0.008,0.021,0.02,0.04,0.028,0.061c-0.01,0.04-0.029,0.078-0.015,0.124
		c0.717,2.498-5.501,3.624-5.931,0.228c-0.034-0.269-0.341-0.451-0.561-0.232c-2.368,0.489-3.447,0.101-3.267-1.142
		c0.299,0.048,0.597,0.049,0.831-0.056c0.18-0.081,0.127-0.377-0.054-0.418c-0.281-0.063-0.559-0.015-0.845-0.057
		c-0.07-0.111-0.207-0.168-0.342-0.091c-0.192-0.062-0.381-0.131-0.579-0.179c-0.149-0.036-0.233,0.134-0.142,0.244
		c0.086,0.103,0.208,0.191,0.336,0.272c-0.903,0.808-1.956,1.519-3.217,1.518c-0.926-0.001-1.624-0.386-1.74-1.334
		c-0.146-1.194,0.66-1.9,1.542-2.561c0.169-0.127,0.036-0.38-0.156-0.303c-1.037-0.798,0.808-3.201,1.786-1.846
		c-0.262,0.158-0.503,0.354-0.689,0.556c-0.142,0.155,0.078,0.377,0.231,0.231c0.238-0.227,0.501-0.414,0.81-0.531
		c0.24-0.091,0.498-0.104,0.736-0.196c0.143-0.055,0.193-0.313,0-0.342c-0.23-0.035-0.46,0.016-0.685,0.095
		c-0.003-0.013-0.013-0.024-0.017-0.037c0-0.002,0.001-0.003,0.001-0.004c-0.248-0.914-0.38-1.928,0.139-2.786
		c0.631-1.04,2.142-1.331,2.855-0.212c0.137,0.214,0.564,0.156,0.527-0.143c-0.037-0.232-0.057-0.465-0.06-0.699
		c1.004-0.946,1.638-1.04,1.904-0.282c0.07,0.142,0.213,0.137,0.319,0.067c0.021-0.003,0.042,0.01,0.06,0
		c0.038-0.021,0.076-0.043,0.114-0.064c0.107-0.06,0.068-0.262-0.067-0.246c-0.007,0.001-0.011-0.013-0.018-0.015
		c-0.027-0.095-0.062-0.186-0.105-0.272c-0.059-0.471,0.001-1.377,0.019-1.52c0.083-0.657,0.281-1.291,0.725-1.794
		c0.557-0.632,1.211-0.802,1.789-0.616c0.004,0.01,0.009,0.022,0.013,0.032c0.034,0.08,0.112,0.078,0.171,0.04
		c0.326,0.154,0.621,0.421,0.846,0.802c-0.232,0.072-0.455,0.154-0.632,0.248c-0.105,0.056-0.042,0.191,0.055,0.203
		c0.55,0.068,1.353-0.027,1.864-0.253c0.203-0.089,0.081-0.376-0.105-0.386c-0.206-0.011-0.448,0.02-0.693,0.066
		c-0.008-0.146-0.051-0.269-0.095-0.391c-0.019-0.32-0.008-0.639,0.064-0.959c0.192-1.071,0.939-1.488,2.241-1.25
		c0.157,0.238,0.489,0.131,0.514-0.139c0.068-0.718,1.147-2.006,1.932-2.134c0.98-0.161,1.892,0.195,2.445,0.991
		c0.658,0.95,0.739,2.101,0.803,3.224c0.022,0.385,0.582,0.407,0.63,0.061c1.123-1.257,3.165-0.313,2.571,1.424
		c-0.077,0.226,0.172,0.484,0.401,0.401c2.127-0.766,3.312,1.604,1.95,3.115c-0.098-0.105-0.196-0.202-0.286-0.277
		c-0.138-0.115-0.34-0.278-0.51-0.121c-0.089,0.082-0.098,0.173-0.032,0.272c0.03,0.046,0.08,0.066,0.134,0.054l0.008-0.002
		c0.245,0.227,0.439,0.576,0.573,0.86c0.144,0.306,0.181,0.657,0.413,0.907c0.112,0.121,0.302,0.051,0.35-0.092
		c0.085-0.256,0.021-0.547-0.112-0.829c2.087,0.505,2.517,1.373,1.246,2.615c-0.132,0.159-0.115,0.474,0.136,0.516
		C45.094,31.92,45.442,34.801,43.334,36.044z"/>
</g>
<g>
</g>
<g>
</g>
<g>
</g>
<g>
</g>
<g>
</g>
<g>
</g>
<g>
</g>
<g>
</g>
<g>
</g>
<g>
</g>
<g>
</g>
<g>
</g>
<g>
</g>
<g>
</g>
<g>
</g>
</svg>
