<?xml version="1.0" encoding="iso-8859-1"?>
<!-- Generator: Adobe Illustrator 18.0.0, SVG Export Plug-In . SVG Version: 6.00 Build 0)  -->
<!DOCTYPE svg PUBLIC "-//W3C//DTD SVG 1.1//EN" "http://www.w3.org/Graphics/SVG/1.1/DTD/svg11.dtd">
<svg version="1.1" id="Capa_1" xmlns="http://www.w3.org/2000/svg" xmlns:xlink="http://www.w3.org/1999/xlink" x="0px" y="0px"
	 viewBox="0 0 39.425 39.425" style="enable-background:new 0 0 39.425 39.425;" xml:space="preserve">
<g>
	<path style="fill:#1D1D1B;" d="M33.527,36.562c-0.784-3.078-4.432-2.533-7.031-2.666c-7.212-0.369-22.261,0.911-23.099-9.333
		c-0.251-3.07,1.273-6.766,2.011-9.72C6.14,11.908,8.221,7.398,7.992,4.429C7.891,3.112,8.197,2.071,6.577,2.388
		c-0.168,0.033-0.132,0.313,0.041,0.3C7.004,2.66,7.11,3.296,7.054,4.262c-4.471-1.304-2.698,7.896-3.152,9.505
		c-1.25,4.422-5.573,9.759-0.536,13.365c0.276,0.747,0.666,1.474,1.236,2.174c0.719,0.883,1.574,1.577,2.506,2.147
		c1.428,1.483,1.979,3.279,4.033,3.972c3.162,1.067,6.846-0.885,10.172-0.11c2.741,0.638,8.107,4.491,9.297-0.375
		c1.224,0.399,2.097,0.966,2.358,1.777C33.082,37.07,33.62,36.926,33.527,36.562z M3.17,21.408
		c-0.325,1.698-0.424,3.301-0.077,4.815c-4.099-3.63,0.357-8.728,1.364-12.303c0.496-1.76-0.079-8.828,2.569-9.292
		c-0.257,2.842-1.626,7.855-1.744,8.326C4.576,15.755,3.713,18.57,3.17,21.408z M17.684,34.534c-1.49,0.07-3.712,0.729-5.1,0.539
		c-2.407-0.329-3.38-1.79-4.685-3.183c2.36,1.205,5.136,1.692,7.727,2.01c2.326,0.285,10.147-0.281,14.477,0.889
		C29.267,37.39,20.019,34.425,17.684,34.534z"/>
	<path style="fill:#1D1D1B;" d="M37.223,14.623c1.15-0.591,2.318-1.462,2.193-2.897c-0.101-1.158-0.965-1.873-2.008-2.023
		c0.79-0.966,1.147-2.134-0.044-3.088c-0.774-0.621-1.787-0.718-2.654-0.371c0.482-1.196,0.435-2.585-0.744-3.391
		c-1.053-0.72-2.435-0.41-3.145,0.571c-0.325-1.475-2.071-2.24-3.498-1.574c-1.797,0.838-2.08,2.823-1.459,4.486
		c-1.509-0.382-2.114,1.212-1.939,2.639c-0.953-0.767-2.678-0.596-3.425,0.338c-0.545,0.681-0.676,1.655-0.378,2.47
		c0.138,0.376,0.377,0.663,0.658,0.904c-0.618,0.126-1.133,0.612-1.304,1.274c-2.507-2.891-5.05-5.737-7.428-8.739
		c-1.47-1.855-2.982-4.135-5.576-4.109C6.4,0.965,6.211,0.883,6.08,1.043C3.764,3.876,3.449,7.09,2.89,10.624
		c-0.714,4.507-2.724,8.843-2.882,13.425c-0.231,6.695,4.523,11.829,11.036,12.777c5.398,0.786,11.029,0.397,16.49,1.019
		c1.879,0.214,6.475,1.634,7.624-0.689c0.913-1.846-1.567-5.534-2.421-6.876c-2.261-3.552-5.265-6.608-8.214-9.585
		c0.6-0.238,1.111-0.656,1.372-1.245c0.494,1.525,2.654,2.315,3.783,1.04c1.343,2.752,7.294,1.219,5.981-1.954
		c0.216,0.063,0.437,0.119,0.49,0.123c0.375,0.028,0.762-0.025,1.115-0.152c0.614-0.22,1.175-0.672,1.456-1.268
		C39.309,15.992,38.341,15.006,37.223,14.623z M24.293,20.901c1.548,1.863,3.186,3.64,4.75,5.488
		c1.355,1.602,5.914,6.358,5.473,8.85c-0.713,4.029-8.332,1.808-10.737,1.544c-3.372-0.371-6.696-0.167-10.069-0.342
		C3.754,35.923-1.061,28.916,1.314,19.357c0.654-2.631,1.506-5.19,1.958-7.869C3.887,7.838,3.924,4.489,6.443,1.406
		c0.005-0.006,0.006-0.013,0.01-0.019c3.158,0.701,4.82,3.789,6.713,6.151c1.932,2.411,3.93,4.793,6.094,7
		c0.051,0.051,0.105,0.072,0.16,0.077c0.134,0.912,0.988,1.762,1.916,1.66c-1.222,0.985-0.912,3.171,0.3,4.097
		c0.732,0.559,1.744,0.664,2.621,0.406C24.251,20.818,24.259,20.861,24.293,20.901z M36.923,18.071
		c-0.374,0.116-0.749,0.134-1.132,0.059c-0.17-0.033-0.378-0.142-0.56-0.106c-0.211,0.042-0.317,0.147-0.317,0.355
		c0,0.078,0.055,0.147,0.128,0.168c0.036,0.01,0.072,0.022,0.108,0.033c0.771,2.852-4.505,3.944-5.134,1.258
		c-0.053-0.227-0.39-0.27-0.501-0.065c-1.734,1.103-2.848,0.78-3.357-0.932c0.278,0.029,0.542-0.021,0.737-0.213
		c0.085-0.084,0.046-0.237-0.07-0.267c-0.258-0.067-0.499,0.026-0.762,0.006c-0.032-0.002-0.059-0.019-0.09-0.023
		c-0.036-0.019-0.07-0.028-0.109-0.028c-0.311-0.064-0.598-0.191-0.839-0.404c-0.163-0.145-0.395,0.082-0.241,0.241
		c0.179,0.185,0.469,0.385,0.786,0.526c-0.254,0.534-0.532,1.034-1.067,1.361c-0.8,0.49-1.788,0.394-2.519-0.179
		c-1.374-1.078-0.835-2.596,0.005-3.786c0.041-0.058-0.028-0.15-0.095-0.124c-0.027,0.01-0.044,0.03-0.07,0.041
		c-0.026-0.065-0.088-0.123-0.157-0.131c-0.408-0.048-0.771-0.033-1.139-0.258c-0.431-0.264-0.689-0.717-0.682-1.225
		c0.011-0.843,0.689-1.369,1.427-1.355c0.272,0.148,0.56,0.273,0.864,0.357c0.147,0.041,0.232-0.165,0.103-0.244
		c-0.04-0.024-0.08-0.048-0.12-0.072c-0.002-0.036-0.015-0.072-0.054-0.1c-0.154-0.11-0.315-0.181-0.479-0.232
		c-0.412-0.268-0.778-0.576-0.957-1.089c-0.203-0.584-0.14-1.277,0.185-1.805c0.365-0.592,1.022-0.866,1.703-0.815
		c0.706,0.053,1.111,0.433,1.587,0.875c-0.081,0.132-0.156,0.264-0.218,0.393c-0.031,0.065,0.037,0.156,0.108,0.108
		c0.391-0.26,0.825-0.637,1.05-1.052c0.08-0.147-0.094-0.367-0.25-0.25c-0.148,0.111-0.283,0.255-0.41,0.41
		c-0.031-0.059-0.079-0.101-0.116-0.154c-0.089-0.95-0.313-3.566,1.924-2.372c0.224,0.12,0.45-0.118,0.339-0.339
		c-0.622-1.233-0.752-2.9,0.398-3.894c1.318-1.139,2.996-0.453,3.512,1.046c-0.288-0.03-0.582-0.018-0.831,0.028
		c-0.189,0.035-0.145,0.342,0.045,0.335c0.29-0.011,0.575-0.005,0.857,0.075c0.244,0.069,0.455,0.2,0.702,0.254
		c0.173,0.038,0.302-0.167,0.174-0.3c-0.133-0.139-0.31-0.226-0.498-0.291c0-0.021-0.008-0.038-0.009-0.058
		c0.736-0.938,2.111-1.254,3.024-0.346c0.989,0.983,0.412,2.124,0.034,3.219c-0.014,0.012-0.031,0.021-0.045,0.034
		c-0.079,0.07-0.049,0.166,0.016,0.222c0.064,0.153,0.309,0.202,0.418,0.034c0.035-0.055,0.063-0.116,0.096-0.172
		c1.912-0.787,4.371,0.732,2.185,2.928c-0.161,0.162-0.051,0.495,0.197,0.477c1.811-0.131,2.692,1.83,1.406,3.094
		c-0.44,0.433-1.022,0.708-1.572,0.978c-0.004-0.179-0.029-0.354-0.113-0.509c-0.063-0.117-0.279-0.103-0.302,0.04
		c-0.039,0.235,0.005,0.453-0.003,0.691c-0.011,0.355-0.107,0.689-0.25,1.012c-0.061,0.139,0.113,0.243,0.203,0.119
		c0.161-0.221,0.308-0.512,0.395-0.816c0.027,0.011,0.056,0.015,0.087,0.017c0.584,0.292,1.254,0.482,1.567,1.117
		C38.689,16.91,37.752,17.814,36.923,18.071z"/>
	<path style="fill:#1D1D1B;" d="M31.997,10.667c-0.716-0.134-1.323,0.286-1.605,0.885c-0.813-0.818-2.27-0.125-2.181,0.947
		c-0.184-0.159-0.39-0.287-0.565-0.364c-0.468-0.205-1.102-0.271-1.567-0.012c-0.52,0.29-0.485,0.945-0.336,1.45
		c0.193,0.657,0.63,1.121,1.224,1.438c0.145,0.077,0.26-0.126,0.128-0.219c-0.482-0.335-1.658-2.11-0.471-2.305
		c0.374-0.061,0.753,0.036,1.068,0.244c0.227,0.15,0.351,0.358,0.497,0.554c-0.1,0.078-0.196,0.159-0.278,0.239
		c-0.142,0.14,0.045,0.398,0.217,0.282c0.444-0.299,0.915-0.394,1.383-0.617c0.197-0.094,0.08-0.367-0.103-0.38
		c-0.232-0.017-0.471,0.056-0.699,0.162c-0.479-1.034,1.039-1.952,1.53-0.776c0.112,0.268,0.461,0.224,0.497-0.067
		c0.179-1.452,2.192-0.995,1.848,0.42c-0.082,0.338,0.392,0.456,0.512,0.141C33.411,11.864,32.894,10.834,31.997,10.667z"/>
	<path style="fill:#1D1D1B;" d="M26.295,28.657c-1.1,0.748-2.119,1.578-3.341,2.134c-0.796,0.362-0.774,0.512-1.369-0.314
		c-0.577-0.802-0.531-0.626-0.012-1.187c0.476-0.514,0.974-1.005,1.488-1.481c0.645-0.597,1.765-1.748,1.619-2.68
		c0.099-0.059,0.169-0.16,0.12-0.3c-0.6-1.694-2.056-1.794-3.64-1.236c-3.443,1.213-6.955,4.397-10.666,4.734
		c-2.098-0.422,1.751-4.057,2.093-4.307c0.554-0.405,1.149-0.754,1.737-1.106c1.183-0.709,2.507-1.363,3.509-2.335
		c0.681-0.66,1.164-1.638,0.697-2.284c0.002-0.049,0.005-0.099-0.028-0.152c-2.475-3.859-8.124,3.599-11.334,3.311
		c-2.223-0.799,0.551-3.085,1.065-3.565c0.51-0.476,1.022-0.949,1.533-1.424c0.878-0.815,2.012-1.63,2.666-2.655
		c0.473-0.74,0.627-1.454,0.356-2.129c0.036-0.054,0.057-0.117,0.034-0.188c-0.302-0.959-1.217-1.483-2.177-1.099
		C9.9,10.692,8.801,11.72,8.997,12.602c0.04,0.18,0.327,0.182,0.366,0c0.125-0.582,0.839-1.274,1.35-1.546
		c0.718-0.382,1.087-0.013,1.495,0.454c0.881,2.924-5.337,5.741-6.306,7.887c-0.53,1.174-0.122,2.52,1.253,2.637
		c0.01,0.001,0.014-0.007,0.023-0.007c0.532,0.138,1.124-0.062,1.769-0.371c1.871-0.895,6.795-4.892,8.941-3.292
		c0.809,1.341-4.533,4.203-5.126,4.597c-1.047,0.695-2.02,1.48-2.773,2.5c-0.801,1.084-1.714,3.754,0.631,3.541
		c0.147-0.013,0.222-0.097,0.266-0.193c1.396-0.085,2.56-0.649,3.908-1.288c1.596-0.757,6.822-4.12,8.918-2.969
		c1.882,1.859-5.675,4.678-3.355,6.955c1.674,1.643,5.194-1.135,6.335-2.339C26.937,28.911,26.613,28.44,26.295,28.657z"/>
</g>
<g>
</g>
<g>
</g>
<g>
</g>
<g>
</g>
<g>
</g>
<g>
</g>
<g>
</g>
<g>
</g>
<g>
</g>
<g>
</g>
<g>
</g>
<g>
</g>
<g>
</g>
<g>
</g>
<g>
</g>
</svg>
