<?xml version="1.0" encoding="iso-8859-1"?>
<!-- Generator: Adobe Illustrator 18.0.0, SVG Export Plug-In . SVG Version: 6.00 Build 0)  -->
<!DOCTYPE svg PUBLIC "-//W3C//DTD SVG 1.1//EN" "http://www.w3.org/Graphics/SVG/1.1/DTD/svg11.dtd">
<svg version="1.1" id="Capa_1" xmlns="http://www.w3.org/2000/svg" xmlns:xlink="http://www.w3.org/1999/xlink" x="0px" y="0px"
	 viewBox="0 0 61.978 61.978" style="enable-background:new 0 0 61.978 61.978;" xml:space="preserve">
<g>
	<path style="fill:#1D1D1B;" d="M47.793,4.664c0.145-0.118,0.212-0.336,0.043-0.509c-4.072-4.163-11.291-4.344-16.74-4.074
		c-3.3,0.164-12.051-0.022-13.296,3.721c-0.109-0.106-0.343-0.093-0.377,0.089c-1.831,9.978-0.884,25.155,10.67,28.022
		c-0.089,7.216-0.108,13.853-1.267,20.875c-0.026,0.005-0.054,0.007-0.076,0.027c-2.49,2.175-13.543,0.116-12.657,5.658
		c0.007,0.045,0.03,0.074,0.058,0.092c0.106,3.238,8.758,3.148,10.579,3.194c5.213,0.132,17.254,1.446,20.182-4.378
		c0.066-0.131,0-0.249-0.098-0.301c0.243-1.113-0.581-2.213-1.643-2.794c-3.181-1.742-7.541,0.15-10.711-1.686
		c-0.035-0.02-0.069-0.03-0.101-0.035c-1.037-6.76-1.109-13.223-0.716-20.185C45.791,32.782,48.206,15.579,47.793,4.664z
		 M32.553,56.361c0.08,0.293,0.511,0.168,0.451-0.124c-0.208-1.019-0.392-2.029-0.555-3.031c3.246,1.779,11.465-0.733,11.875,4.237
		c-2.804,4.076-10.451,3.622-14.668,3.755c-2.251,0.071-15.601,0.723-15.06-3.486c0.457-1.1,1.714-1.968,2.69-2.267
		c0.53-0.162,1.079-0.274,1.621-0.383c1.643-0.332,3.229-0.385,4.88-0.545c1.183-0.115,2.153-0.342,2.933-1.153
		c-0.146,0.841-0.298,1.685-0.48,2.54c-0.056,0.265,0.326,0.373,0.407,0.112c2.263-7.361,3.388-16.473,1.629-24.063
		c0.677,0.159,1.384,0.284,2.134,0.356c0.323,0.031,0.631,0.041,0.943,0.055C29.801,40.157,30.461,48.731,32.553,56.361z
		 M30.458,31.636C16.644,30.314,17.01,14.558,17.839,4.152c2.859-3.411,11.062-3.436,15.068-3.449
		c4.831-0.015,10.763,0.33,14.385,3.898C47.242,15.487,45.513,33.077,30.458,31.636z"/>
	<path style="fill:#1D1D1B;" d="M44.483,14.59c-0.079-0.016-0.161-0.003-0.211,0.092c-0.002,0.004-0.005,0.007-0.007,0.01
		c-7.982-3.013-16.665-3.018-24.958-1.381c-0.024,0.005-0.035,0.022-0.05,0.036c-0.075-0.056-0.209-0.022-0.219,0.102
		c-0.626,7.695,3.772,15.96,12.075,16.821c9.266,0.962,12.896-8.011,13.783-15.666C44.927,14.343,44.531,14.342,44.483,14.59z
		 M19.314,13.568c0.011,0.002,0.017,0.011,0.029,0.009c8.466-1.071,16.435-1.129,24.618,1.559c-2.21,2.811-9.664,2.644-12.369,2.432
		c-4.47-0.35-8.329-1.848-12.274-3.887C19.318,13.644,19.316,13.606,19.314,13.568z M30.433,29.657
		c-7.782-1.451-10.832-8.513-11.1-15.653c4.316,2.827,9.435,4.156,14.587,4.116c2.931-0.022,8.586-0.072,10.462-2.777
		C43.364,22.764,39.532,31.354,30.433,29.657z"/>
	<path style="fill:#1D1D1B;" d="M45.844,4.29c-0.119-0.42-0.507-0.879-0.98-0.834c-0.219,0.021-0.297,0.281-0.111,0.409
		c0.239,0.165,0.432,0.269,0.56,0.55c0.08,0.176,0.119,0.366,0.098,0.548c-0.048,0.01-0.097,0.029-0.142,0.07
		c-2.986,2.721-9.08,1.959-12.841,1.999c-4.049,0.044-9.165,0.412-12.647-2.003c-0.143-0.217-0.255-0.439-0.177-0.743
		c0.112-0.433,0.644-0.783,1.08-0.759c0.165,0.009,0.192-0.24,0.038-0.283c-0.688-0.192-1.394,0.027-1.656,0.753
		c-0.209,0.577,0.015,1.583,0.726,1.69c0.067,0.01,0.129-0.015,0.177-0.053c3.389,2.678,9.326,2.014,13.286,1.99
		c3.958-0.024,9.359,0.909,12.432-2.173c0.098-0.098,0.105-0.212,0.063-0.307C45.879,4.882,45.927,4.584,45.844,4.29z"/>
</g>
<g>
</g>
<g>
</g>
<g>
</g>
<g>
</g>
<g>
</g>
<g>
</g>
<g>
</g>
<g>
</g>
<g>
</g>
<g>
</g>
<g>
</g>
<g>
</g>
<g>
</g>
<g>
</g>
<g>
</g>
</svg>
