<?xml version="1.0" encoding="iso-8859-1"?>
<!-- Generator: Adobe Illustrator 18.0.0, SVG Export Plug-In . SVG Version: 6.00 Build 0)  -->
<!DOCTYPE svg PUBLIC "-//W3C//DTD SVG 1.1//EN" "http://www.w3.org/Graphics/SVG/1.1/DTD/svg11.dtd">
<svg version="1.1" id="Capa_1" xmlns="http://www.w3.org/2000/svg" xmlns:xlink="http://www.w3.org/1999/xlink" x="0px" y="0px"
	 viewBox="0 0 56.271 56.271" style="enable-background:new 0 0 56.271 56.271;" xml:space="preserve">
<g>
	<path style="fill:#1D1D1B;" d="M35.889,26.633c0.207-0.667,0.361-1.357,0.412-2.079c0.328-4.675-3.156-8.635-6.503-11.433
		c-0.106-0.406-0.232-0.813-0.397-1.221c-0.527-1.298-1.451-2.319-2.119-3.526c-1.51-2.727-1.214-5.118-0.32-7.991
		c0.016-0.051-0.007-0.091-0.04-0.124c-0.024-0.145-0.144-0.286-0.332-0.256c-4.514,0.723-8.96,3.495-11.407,7.455
		c-0.016-0.001-0.027-0.011-0.045-0.007c-2.225,0.492-4.283,1.784-5.457,3.777c-0.186,0.315-0.36,0.71-0.519,1.135
		c-0.02,0-0.039-0.005-0.058,0.003c-0.853,0.383-1.588,0.967-2.227,1.644c-0.477,0.506-1.008,1.116-1.305,1.777
		c-0.848-1.856-1.199-3.9-0.923-6.17c0.017-0.141-0.107-0.211-0.23-0.21c0.126-0.092,0.087-0.29-0.062-0.352
		c-0.809-0.334-2.018,0.05-2.762,0.42C1.497,9.524,1.496,9.62,1.539,9.694C1.488,9.731,1.452,9.783,1.461,9.86
		c0.346,2.735,1.222,5.429,2.795,7.617c-1.88,2.559-2.502,6.061-1.731,8.943c-0.011,0.008-0.024,0.005-0.033,0.016
		c-3.875,4.688-2.814,7.946,0.335,10.155c0.539,4.968,2.25,10.458,3.9,15.118c0.073,0.205,0.309,0.191,0.397,0.05
		c7.863,3.841,17.156,3.454,25.078,0.006c0.092-0.04,0.14-0.113,0.157-0.196c0.197-0.06,0.195-0.352-0.007-0.403
		c1.858-5.129,3.453-10.358,5.018-15.582c0.036-0.119-0.006-0.212-0.077-0.273c0.226-0.273,0.437-0.558,0.629-0.858
		C39.837,31.464,39.152,28.072,35.889,26.633z M1.91,9.799C1.905,9.776,1.885,9.768,1.874,9.75c0.424-0.096,0.851-0.181,1.284-0.222
		c0.37-0.036,0.754,0.012,1.116-0.064c-0.029,0.026-0.06,0.05-0.069,0.095c-0.78,3.919,0.789,8.404,4.194,10.634
		c-0.035,0.085-0.073,0.169-0.104,0.257c-0.009,0.027,0.006,0.044,0.005,0.068c-0.082,0.002-0.162,0.007-0.243,0.012
		c-0.012-0.018-0.015-0.039-0.037-0.054C4.265,17.971,2.792,14.046,1.91,9.799z M10.305,20.48c-0.485,0.048-0.987,0.034-1.484,0.032
		c0.467-1.129,1.196-2.049,2.533-2.084c1.086-0.028,2.125,0.566,2.696,1.48c1.203,1.924,0.436,4.514-1.453,5.665
		c-1.674,1.02-4.135,1.22-5.722-0.086c-0.815-0.671-1.094-1.366-0.99-2.397c0.121-1.188,0.911-1.835,2.078-2.052
		c0.799-0.149,1.584-0.071,2.381-0.268C10.502,20.731,10.473,20.463,10.305,20.48z M32.095,51.13
		c-0.048-0.011-0.1-0.009-0.155,0.014c-8.378,3.475-16.37,3.146-24.828,0.226c-0.874-4.732-2.093-10.133-4.011-14.594
		c1.402,0.923,3.175,1.651,5.093,2.22c0.782,3.479,1.61,6.952,2.515,10.401c0.048,0.183,0.32,0.105,0.281-0.078
		c-0.72-3.413-1.518-6.814-2.357-10.201c1.86,0.522,3.835,0.903,5.736,1.157c0.402,2.984,0.697,5.96,0.817,8.969
		c0.006,0.158,0.244,0.159,0.246,0c0.037-2.99-0.168-5.972-0.672-8.921c1.713,0.215,3.352,0.336,4.766,0.374
		c-0.041,3.218,0.026,6.459,0.179,9.672c0.008,0.178,0.274,0.18,0.278,0c0.071-3.213,0.055-6.452-0.067-9.665
		c0.564,0.01,1.098,0.01,1.572-0.005c1.384-0.043,2.938-0.155,4.534-0.376c-0.527,2.959-0.643,6.059-0.744,9.045
		c-0.006,0.181,0.262,0.175,0.278,0c0.265-3.031,0.726-6.074,0.921-9.11c2.046-0.31,4.136-0.823,6.028-1.619
		c-1.604,3.556-2.909,7.431-3.773,11.21c-0.045,0.198,0.234,0.272,0.302,0.083c1.373-3.853,2.759-7.711,4.113-11.57
		c1.312-0.615,2.507-1.38,3.486-2.341C35.016,41.024,33.427,46.046,32.095,51.13z M35.325,35.955
		c-1.243,1.09-2.674,1.861-4.291,2.315c-1.021,0.374-2.078,0.687-3.137,0.935c-3.436,0.805-7.034,0.984-10.547,0.717
		c-2.503-0.189-5.887-0.632-8.938-1.552c-0.049-0.048-0.111-0.073-0.175-0.055c-5.568-1.722-9.931-5.07-5.576-11.463
		c0.897,2.762,3.135,4.856,6.882,4.787c0.327-0.006,0.325-0.49,0-0.506c-2.886-0.142-5.454-1.597-6.523-4.396
		c-1.202-3.148,0.153-6.201,1.39-9.066c0.851,1.136,1.883,2.138,3.155,2.911c-0.643,0.097-1.243,0.332-1.74,0.9
		c-0.85,0.971-0.85,2.333-0.223,3.42c1.561,2.706,5.738,2.53,7.898,0.726c1.987-1.66,2.379-4.92,0.427-6.788
		c-1.896-1.815-4.364-0.976-5.394,1.057c-1.155-1.116-2.073-2.327-2.743-3.632c0.549-0.623,0.945-1.368,1.526-1.977
		c0.519-0.544,1.102-1.015,1.688-1.484c-0.521,1.624-0.724,3.661,0.035,4.852c0.134,0.21,0.525,0.077,0.424-0.179
		c-0.717-1.822-0.191-4.602,0.837-6.211c1.084-1.697,2.836-2.695,4.65-3.437c-0.569,0.989-1.016,2.046-1.308,3.162
		c-0.027,0.102,0.128,0.177,0.177,0.075c2.602-5.461,6.676-9.37,12.763-10.496c-0.865,2.025-1.66,4.237-0.848,6.414
		c1.523,4.084,5.204,6.459,2.969,11.389c-0.126,0.279,0.26,0.521,0.419,0.245c0.898-1.567,1.119-3.202,0.819-4.855
		c2.179,2.448,4.679,4.845,5.485,8.139c1.072,4.375-1.421,8.208-5.234,10.182c-0.251,0.13-0.075,0.574,0.196,0.466
		c2.448-0.979,4.351-2.89,5.288-5.276C38.462,31.375,38.347,34.271,35.325,35.955z"/>
	<path style="fill:none;stroke:#1D1D1B;stroke-width:0;stroke-linecap:round;stroke-linejoin:round;" d="M32.802,50.75
		c0.007,0,0.007-0.01,0-0.01"/>
	<path style="fill:#1D1D1B;" d="M32.796,50.994l-0.12,0.376c-0.009,0.028,0.035,0.04,0.044,0.012
		c0.041-0.125,0.082-0.25,0.124-0.376C32.853,50.977,32.805,50.964,32.796,50.994z"/>
</g>
<g>
</g>
<g>
</g>
<g>
</g>
<g>
</g>
<g>
</g>
<g>
</g>
<g>
</g>
<g>
</g>
<g>
</g>
<g>
</g>
<g>
</g>
<g>
</g>
<g>
</g>
<g>
</g>
<g>
</g>
</svg>
