<?xml version="1.0" encoding="iso-8859-1"?>
<!-- Generator: Adobe Illustrator 18.0.0, SVG Export Plug-In . SVG Version: 6.00 Build 0)  -->
<!DOCTYPE svg PUBLIC "-//W3C//DTD SVG 1.1//EN" "http://www.w3.org/Graphics/SVG/1.1/DTD/svg11.dtd">
<svg version="1.1" id="Capa_1" xmlns="http://www.w3.org/2000/svg" xmlns:xlink="http://www.w3.org/1999/xlink" x="0px" y="0px"
	 viewBox="0 0 39.801 39.801" style="enable-background:new 0 0 39.801 39.801;" xml:space="preserve">
<g>
	<path style="fill:#1D1D1B;" d="M34.078,18.818c0.66-3.194,0.674-8.197-1.627-10.767c0.044-0.068,0.064-0.155,0.038-0.257
		c-1.748-7.009-10.39-8.252-16.529-7.665c-1.992,0.19-5.314,0.429-6.521,2.374C8.87,3.42,8.872,4.341,9.345,5.037
		c-3.433,3.315-5.136,8.376-4.603,13.089c-1.967,0.606-3.125,2.955-1.767,4.734c1.043,1.366,3.183,1.176,3.877-0.256
		c0.803,4.565,2.114,9.078,3.258,13.565c0.047,0.183,0.214,0.229,0.354,0.183c1.076,2.357,5.287,3.209,7.524,3.398
		c4.248,0.359,8.157-1.264,11.257-4.094c0.039-0.035,0.064-0.073,0.082-0.112c0.124-0.007,0.243-0.077,0.289-0.231
		c1.07-3.539,2.023-7.139,2.584-10.796c1.599,0.665,3.407,0.528,4.638-1.121C38.396,21.311,36.575,18.364,34.078,18.818z
		 M17.47,0.667c1.508-0.064,2.986,0.071,4.475,0.295c4.119,0.621,8.105,2.194,9.645,6.245c-0.008,0.021-0.02,0.036-0.025,0.061
		c-0.732,3.854-1.888,8.046-6.115,9.275c-5.07,1.473-7.068-2.437-8.501-6.487C15.5,5.966,12.679,7.152,9.745,4.706
		C8.2,1.524,16.542,0.707,17.47,0.667z M28.992,35.087c-0.078-0.001-0.159,0.021-0.232,0.086c-2.699,2.403-5.91,3.869-9.566,3.918
		c-2.278,0.031-7.417-0.816-8.584-3.265C9.608,31.7,8.7,27.498,7.443,23.435c0.768,0.978,2.098,1.321,3.245,0.968
		c0.264,3.434,0.803,7.047,1.603,10.378c0.034,0.142,0.27,0.115,0.259-0.035c-0.251-3.439-0.838-7.077-1.635-10.441
		c0.607-0.244,1.151-0.676,1.5-1.344c0.509,0.908,1.373,1.432,2.297,1.599c-0.378,3.384-0.3,7.079,0.341,10.401
		c0.037,0.19,0.348,0.148,0.338-0.046c-0.178-3.448-0.342-6.855-0.41-10.305c1.101,0.109,2.25-0.302,2.98-1.288
		c0.31,0.47,0.71,0.871,1.17,1.177c-0.118,4.006-0.295,8.065-0.187,12.067c0.006,0.225,0.326,0.218,0.345,0
		c0.338-3.915,0.278-7.948,0.145-11.881c0.549,0.295,1.17,0.455,1.834,0.415c0.495-0.03,0.975-0.183,1.403-0.425
		c-0.117,3.902-0.178,7.827-0.072,11.726c0.008,0.29,0.442,0.29,0.45,0c0.108-3.962,0.044-7.95-0.077-11.914
		c0.469-0.338,0.847-0.795,1.057-1.336c0.401,1.153,1.476,1.991,2.729,2.011c-0.693,3.541-1.268,7.327-1.302,10.903
		c-0.002,0.199,0.318,0.253,0.356,0.048c0.658-3.565,0.966-7.324,1.251-10.952c1.269-0.117,2.527-1.269,2.652-2.561
		c0.073,0.094,0.157,0.181,0.236,0.272c-0.555,3.022-0.955,6.134-1.231,9.191c-0.024,0.263,0.426,0.328,0.466,0.063
		c0.455-2.965,0.806-5.994,0.997-8.991c0.484,0.493,1.056,0.913,1.67,1.219C30.847,27.918,29.983,31.519,28.992,35.087z
		 M35.263,23.929c-2.07,1.114-4.191-0.473-5.499-1.981c-0.042-0.048-0.094-0.064-0.146-0.062c-0.123-0.111-0.365-0.074-0.407,0.11
		c-0.262,1.148-0.702,2.226-1.994,2.511c-0.043,0.009-0.084,0.006-0.126,0.012c-0.042-0.086-0.195-0.096-0.218,0.016
		c0,0.002-0.001,0.004-0.001,0.005c-1.204,0.06-2.234-0.937-2.542-2.051c-0.036-0.131-0.174-0.172-0.289-0.145
		c-0.15-0.111-0.38-0.104-0.454,0.136c-0.366,1.181-1.387,2.02-2.656,1.968c-1.096-0.045-2.012-0.736-2.706-1.544
		c0.028-0.053,0.061-0.1,0.088-0.155c0.165-0.347-0.309-0.641-0.519-0.319c-0.125-0.03-0.255,0.089-0.191,0.244
		c-1.332,1.852-3.832,1.72-4.994-0.306c-0.04-0.232-0.402-0.364-0.512-0.106c-1.03,2.408-4.274,2.172-4.927-0.388
		c-0.017-0.066-0.07-0.095-0.128-0.108c-0.085-0.107-0.301-0.093-0.35,0.066c-0.573,1.874-3.048,1.75-3.611-0.066
		c-0.474-1.528,0.725-2.764,2.003-3.364c0.152-0.071,0.099-0.259-0.024-0.32c-0.01-4.926,1.496-8.881,4.6-12.682
		c0.206,0.191,0.449,0.362,0.747,0.49c0.05,0.022,0.102,0.001,0.13-0.035c0.097,0.057,0.207,0.12,0.337,0.196
		c1.704,0.991,2.068,0.671,3.763,2.437c1.93,2.01,1.495,1.794,2.257,3.963c0.756,2.152,2.027,3.808,4.205,4.673
		c6.335,2.518,9.844-3.684,10.971-8.94c0.014,0.003,0.026,0.015,0.04,0.016c1.98,3.113,1.699,7.367,1.382,10.892
		c-0.011,0.122,0.071,0.193,0.167,0.226c0.042,0.047,0.1,0.078,0.182,0.068C36.79,19.033,37.866,22.528,35.263,23.929z"/>
	<path style="fill:#1D1D1B;" d="M9.912,8.928C9.864,8.788,9.726,8.764,9.62,8.807c0.057-0.08,0.106-0.148,0.137-0.188
		C9.867,8.471,9.62,8.281,9.5,8.421c-0.413,0.478-1.871,2.311-0.56,2.607c0.354,0.08,0.766-0.057,0.984-0.35
		C10.3,10.171,10.093,9.463,9.912,8.928z M9.69,10.149c-0.059,0.288-0.362,0.584-0.682,0.455c-0.425-0.172,0.133-1.099,0.503-1.641
		C9.51,8.989,9.495,9.009,9.505,9.04C9.62,9.383,9.766,9.782,9.69,10.149z"/>
	<path style="fill:#1D1D1B;" d="M12.385,8.723c-0.497-0.478-1.252-0.267-1.845-0.502c-0.182-0.073-0.289,0.187-0.162,0.306
		c0.273,0.705,1.232,1.962,2.062,1.243C12.777,9.477,12.675,9.003,12.385,8.723z M11.727,9.514c-0.17-0.04-0.328-0.13-0.463-0.239
		c-0.196-0.158-0.345-0.358-0.473-0.572c0.096,0.023,0.193,0.042,0.297,0.053c0.15,0.016,0.301,0.015,0.45,0.039
		c0.346,0.054,0.561,0.092,0.54,0.474C12.062,9.581,11.998,9.578,11.727,9.514z"/>
	<path style="fill:#1D1D1B;" d="M7.941,15.33c-0.039-0.07-0.097-0.089-0.156-0.087c-0.014-0.076-0.099-0.145-0.178-0.094
		C7.125,15.463,6.771,15.93,6.65,16.5c-0.082,0.387-0.096,0.996,0.353,1.17c0.461,0.178,0.888-0.266,1.051-0.649
		C8.287,16.47,8.225,15.847,7.941,15.33z M7.586,17.056c-0.061,0.147-0.17,0.15-0.327,0.008c-0.219,0.021-0.307-0.055-0.262-0.228
		c-0.091-0.467,0.264-1.004,0.605-1.345c0.004,0.013-0.004,0.023,0.003,0.036c0.162,0.328,0.243,0.679,0.176,1.045
		C7.752,16.728,7.716,16.959,7.586,17.056z"/>
	<path style="fill:#1D1D1B;" d="M10.361,15.976c-0.249-0.38-0.711-0.396-1.064-0.147c-0.487,0.344-0.733,0.997-0.798,1.58
		c-0.023,0.048-0.031,0.095-0.021,0.146c0,0.003-0.001,0.005-0.001,0.008c-0.005,0.091,0.075,0.139,0.153,0.139
		c0.015,0.002,0.022,0.016,0.04,0.015c0.576-0.037,1.287-0.098,1.656-0.612C10.553,16.787,10.58,16.308,10.361,15.976z
		 M8.852,17.276c0.069-0.249,0.157-0.492,0.305-0.709c0.197-0.29,0.789-0.823,0.93-0.181C10.243,17.091,9.409,17.236,8.852,17.276z"
		/>
	<path style="fill:#1D1D1B;" d="M31.991,12.737c0.012-0.132-0.109-0.17-0.207-0.136c0.012-0.031-0.016-0.067-0.049-0.058
		c-0.666,0.187-1.972,1.806-0.965,2.307c0.346,0.172,0.774-0.029,1.005-0.301C32.195,14.055,31.938,13.319,31.991,12.737z
		 M31.453,14.307c-0.2,0.2-0.518,0.319-0.579-0.204c-0.025-0.218,0.249-0.607,0.372-0.787c0.131-0.191,0.279-0.364,0.417-0.547
		c-0.03,0.319,0.003,0.637-0.02,0.956C31.628,13.935,31.607,14.153,31.453,14.307z"/>
	<path style="fill:#1D1D1B;" d="M32.515,15.736c0.008-0.144-0.109-0.191-0.217-0.167c0.009-0.006,0.019-0.015,0.028-0.021
		c0.095-0.064,0.014-0.197-0.089-0.152c-0.572,0.252-1.018,0.655-1.283,1.23c-0.192,0.416-0.297,1.028,0.118,1.353
		c0.376,0.295,0.867,0.094,1.15-0.227C32.707,17.202,32.478,16.4,32.515,15.736z M31.899,17.522
		c-0.249,0.258-0.621,0.262-0.714-0.169c-0.13-0.603,0.507-1.317,0.991-1.693c-0.016,0.024-0.038,0.043-0.041,0.077
		c-0.043,0.376,0.023,0.744,0.002,1.119C32.123,17.106,32.077,17.338,31.899,17.522z"/>
	<path style="fill:#1D1D1B;" d="M28.777,17.364c-0.033-0.021-0.06-0.014-0.09-0.016c0.008-0.035,0.014-0.075,0.023-0.108
		c0.035-0.125-0.144-0.167-0.19-0.052c-0.238,0.592-0.258,1.239,0.002,1.829c0.21,0.476,0.644,1.004,1.228,0.893
		C31.337,19.609,29.29,17.691,28.777,17.364z M29.832,19.361c-0.08,0.239-0.247,0.277-0.501,0.114
		c-0.577-0.295-0.745-1.087-0.699-1.742c0.29,0.219,0.567,0.444,0.81,0.716c0.138,0.155,0.277,0.324,0.386,0.502
		C29.99,19.096,29.991,19.232,29.832,19.361z"/>
</g>
<g>
</g>
<g>
</g>
<g>
</g>
<g>
</g>
<g>
</g>
<g>
</g>
<g>
</g>
<g>
</g>
<g>
</g>
<g>
</g>
<g>
</g>
<g>
</g>
<g>
</g>
<g>
</g>
<g>
</g>
</svg>
