<?xml version="1.0" encoding="iso-8859-1"?>
<!-- Generator: Adobe Illustrator 18.0.0, SVG Export Plug-In . SVG Version: 6.00 Build 0)  -->
<!DOCTYPE svg PUBLIC "-//W3C//DTD SVG 1.1//EN" "http://www.w3.org/Graphics/SVG/1.1/DTD/svg11.dtd">
<svg version="1.1" id="Capa_1" xmlns="http://www.w3.org/2000/svg" xmlns:xlink="http://www.w3.org/1999/xlink" x="0px" y="0px"
	 viewBox="0 0 39.811 39.811" style="enable-background:new 0 0 39.811 39.811;" xml:space="preserve">
<g>
	<path style="fill:#1D1D1B;" d="M39.626,16.861c0.497-0.911-0.052-2.512-1.066-2.897c0.686-0.571,1.148-1.419,0.862-2.338
		c-0.26-0.834-1.049-1.345-1.874-1.299c0.599-1.701-1.424-3.468-2.878-1.973c-0.11,0.113,0.031,0.303,0.17,0.221
		c0.48-0.284,1.274-0.58,1.789-0.173c0.668,0.529,0.817,1.373,0.376,2.09c-0.099,0.161,0.064,0.358,0.24,0.312
		c0.961-0.252,1.81,0.512,1.795,1.477c-0.01,0.664-0.419,1.205-0.912,1.604c-0.083-0.001-0.161-0.02-0.248-0.004
		c-0.009-0.143-0.033-0.283-0.083-0.416c-0.062-0.168-0.285-0.134-0.304,0.041c-0.054,0.498-0.022,0.964-0.151,1.459
		c-0.053,0.203,0.229,0.266,0.305,0.084c0.085-0.202,0.149-0.428,0.19-0.658c0.029,0.006,0.06,0.009,0.094-0.009
		c0.04-0.02,0.078-0.047,0.118-0.07c0.406,0.17,0.757,0.344,1.013,0.773c0.281,0.473,0.373,1.083,0.09,1.577
		c-0.488,0.852-1.622,0.954-2.41,0.511c0.01-0.048,0.027-0.092,0.03-0.142c0.012-0.211-0.257-0.236-0.36-0.097
		c-0.011,0.015-0.024,0.028-0.035,0.043c-0.07,0.01-0.123,0.064-0.107,0.132c-0.31,0.383-0.676,0.707-1.229,0.592
		c-0.645-0.134-1.001-0.867-0.875-1.477c0.026-0.126-0.099-0.184-0.184-0.134c-0.033-0.084-0.111-0.147-0.216-0.111
		c-0.668,0.23-1.299,0.446-1.937-0.043c-0.686-0.525-0.713-1.467-0.242-2.141c0.033-0.047,0.032-0.095,0.027-0.141
		c0.216,0.121,0.451,0.207,0.706,0.212c0.216,0.005,0.235-0.292,0.049-0.359c-0.504-0.181-0.91-0.369-1.253-0.793
		c-0.12-0.149-0.358,0.043-0.262,0.202c0.12,0.2,0.28,0.374,0.458,0.527c-0.04,0.01-0.081,0.015-0.113,0.052
		c-0.62,0.706-1.517,0.296-1.636-0.402c0.21-0.138,0.385-0.331,0.483-0.594c0.066-0.177-0.174-0.322-0.312-0.216
		c-0.002-0.123-0.16-0.23-0.254-0.114c-0.138,0.172-0.228,0.347-0.281,0.519c-0.538,0.245-1.168,0.083-1.505-0.572
		c-0.387-0.753-0.131-1.648,0.208-2.364c0.1-0.212-0.112-0.477-0.339-0.339c-0.302,0.27-0.623,0.28-0.964,0.03
		c-0.78-0.049-0.878-0.489-0.294-1.32c0.131-0.094,0.052-0.276-0.077-0.276c0.061-0.055,0.12-0.112,0.17-0.182
		c0.097-0.136-0.121-0.303-0.232-0.179c-0.426,0.475-1.269,0.359-1.593-0.187c-0.364-0.614,0.029-1.297,0.466-1.749
		c0.095,0.119,0.212,0.223,0.347,0.3c0.198,0.113,0.355-0.172,0.176-0.3c-0.409-0.293-0.403-0.748-0.265-1.181
		c0.051-0.16-0.174-0.297-0.288-0.168c-0.184,0.21-0.244,0.462-0.223,0.709c-0.01-0.023-0.02-0.047-0.044-0.062
		c-1.129-0.717-1.431-2.367-0.172-3.149c1.019-0.634,1.93-0.101,2.413,0.759c-0.013,0.058-0.031,0.111-0.04,0.173
		c-0.006,0.048,0.009,0.087,0.033,0.118c-0.247,0.008-0.492,0.031-0.705,0.072c-0.237,0.045-0.131,0.388,0.098,0.356
		c0.322-0.045,0.647-0.043,0.967,0.009c0.056,0.039,0.122,0.047,0.187,0.031c0.211,0.05,0.409,0.121,0.63,0.13
		c0.138,0.006,0.238-0.198,0.121-0.291c-0.172-0.136-0.385-0.208-0.608-0.256c-0.023-0.229-0.09-0.437-0.181-0.629
		c0.716-0.941,2.331-0.548,2.189,0.914c-0.018,0.18,0.224,0.315,0.37,0.213c1.146-0.804,2.304,0.264,1.911,1.496c0,0,0,0,0,0.001
		c-0.303-0.201-0.623-0.366-0.908-0.481c-0.177-0.072-0.29,0.214-0.129,0.305c0.342,0.194,0.666,0.402,0.96,0.663
		c0.019,0.091,0.078,0.161,0.173,0.177c0.213,0.229,0.397,0.482,0.628,0.689c0.179,0.16,0.402-0.039,0.315-0.243
		c-0.094-0.22-0.256-0.418-0.439-0.605c0.724-0.234,1.536-0.116,2.021,0.56c0.54,0.753,0.323,1.82-0.299,2.453
		c-0.103,0.105,0.033,0.299,0.162,0.21c0.94-0.649,1.211-1.982,0.543-2.937c-0.537-0.768-1.641-1.099-2.527-0.794
		c0.555-1.466-0.948-2.7-2.297-2.119c-0.178-1.493-2.099-1.936-2.894-0.86c-0.699-0.905-2.146-1.178-3.124-0.423
		c-0.655,0.506-0.912,1.264-0.822,1.979c-0.023,0.001-0.045-0.001-0.068,0.016C15.171,9.607,7.67,16.801,0.07,23.598
		c-0.1,0.09-0.08,0.201-0.015,0.281c-0.035,0.021-0.06,0.055-0.043,0.108C1.459,28.618,2,33.335,1.523,38.164
		c-0.029,0.294,0.423,0.287,0.457,0c0.164-1.378,0.227-2.737,0.21-4.083c11.751-1.728,23.679-4.125,35.164-7.137
		c0.04-0.01,0.056-0.038,0.079-0.06c0.118,1.877,0.19,3.75,0.345,5.525c-11.873,2.167-24.217,2.871-35.833,6.152
		c-0.194,0.055-0.112,0.336,0.082,0.298c12.194-2.4,24.772-3.246,36.838-6.202c0.277-0.068,0.158-0.476-0.117-0.424
		c-0.246,0.047-0.494,0.089-0.741,0.134c-0.031-2.815,0.049-6.068-0.35-9.125c0.046-0.074,0.024-0.171-0.037-0.243
		c-0.248-1.778-0.659-3.486-1.362-4.993c-0.019-0.04-0.053-0.055-0.086-0.072c0.181-0.117,0.345-0.255,0.449-0.436
		c0.398,0.299,0.912,0.402,1.412,0.35c0.001,0.013-0.009,0.02-0.007,0.033c0.975,4.711,1.155,9.336,0.946,14.125
		c-0.009,0.219,0.31,0.208,0.334,0c0.55-4.775,0.142-9.556-0.836-14.247c0,0,0,0,0,0C38.951,17.607,39.381,17.309,39.626,16.861z
		 M0.238,23.988c-0.002-0.006-0.004-0.011-0.006-0.017c0.053,0.002,0.108-0.009,0.158-0.052c7.706-6.628,15.795-13.1,22.995-20.276
		c0.161,0.62,0.576,1.179,1.248,1.462c0.087,0.036,0.146-0.027,0.162-0.102c0.014,0.078,0.032,0.155,0.062,0.229
		c-0.824,0.449-1.202,1.674-0.577,2.438c0.394,0.482,1.08,0.63,1.616,0.397c-0.39,0.398-0.496,1.011-0.158,1.515
		c0.352,0.524,0.965,0.635,1.523,0.494c-0.332,1.038-0.398,2.253,0.593,2.964c0.384,0.275,0.878,0.349,1.31,0.235
		c0.135,0.73,0.919,1.267,1.669,1.057c-0.15,0.684,0.014,1.417,0.569,1.921c0.638,0.58,1.795,0.726,2.459,0.125
		c-0.126,0.558,0.072,1.15,0.499,1.509c-11.3,2.254-22.622,4.738-34.079,6.08C0.262,23.968,0.253,23.98,0.238,23.988z
		 M37.057,22.974c-11.719,1.882-23.58,3.884-35.119,6.661c-0.161,0.039-0.09,0.269,0.067,0.244
		c11.734-1.882,23.436-4.283,35.119-6.476c0.136,1.044,0.219,2.105,0.29,3.165c-0.045-0.034-0.103-0.052-0.173-0.039
		c-11.693,2.231-23.433,4.68-35.058,7.256c-0.074-3.254-0.673-6.428-1.861-9.563c5.191,0.176,10.655-1.304,15.745-2.202
		c6.212-1.095,12.431-2.258,18.575-3.691c0.119-0.028,0.157-0.115,0.161-0.206c0.028,0.01,0.047,0.032,0.076,0.04
		c0.307,0.088,0.663,0.061,0.982-0.058c0,0.023-0.014,0.043-0.004,0.069C36.459,19.679,36.817,21.304,37.057,22.974z"/>
	<path style="fill:#1D1D1B;" d="M9.046,17.823c-0.017-0.052-0.109-0.065-0.119,0C8.853,18.32,8.723,18.761,8.372,19.1
		c-0.051-0.537,0.176-1.071,0.653-1.362c0.07-0.043,0.009-0.146-0.064-0.109c-0.684,0.343-1.021,1.053-0.835,1.799
		c0.021,0.084,0.134,0.138,0.209,0.085C8.863,19.141,9.266,18.48,9.046,17.823z"/>
	<path style="fill:#1D1D1B;" d="M9.699,18.019c-0.132-0.031-0.228,0.162-0.096,0.228c0.062,0.031,0.111,0.073,0.169,0.108
		c-0.179,0.63,0.189,1.301,0.845,1.474c0.056,0.015,0.137-0.019,0.146-0.083C10.86,19.016,10.46,18.198,9.699,18.019z M9.899,18.435
		c0.367,0.261,0.595,0.621,0.616,1.09C10.072,19.347,9.828,18.903,9.899,18.435z"/>
	<path style="fill:#1D1D1B;" d="M9.196,19.766c-0.085-0.057-0.16-0.009-0.192,0.062c0-0.094-0.135-0.131-0.163-0.029
		c-0.138,0.506-0.194,1.021-0.132,1.544c0.011,0.093,0.082,0.161,0.181,0.138C9.654,21.298,9.849,20.201,9.196,19.766z
		 M8.976,21.136c-0.049-0.405-0.049-0.793,0.022-1.2c0.009,0.03,0.02,0.06,0.051,0.082C9.433,20.298,9.353,20.91,8.976,21.136z"/>
	<path style="fill:#1D1D1B;" d="M5.64,22.313c-0.348-0.663-1.276-0.846-1.832-0.329c-0.048,0.045-0.051,0.093-0.039,0.138
		c-0.013,0.033-0.011,0.075,0.025,0.103c0.517,0.393,1.141,0.498,1.76,0.302C5.645,22.497,5.685,22.398,5.64,22.313z M4.077,22.186
		c0.379-0.264,0.867-0.203,1.174,0.122C4.848,22.413,4.449,22.372,4.077,22.186z"/>
	<path style="fill:#1D1D1B;" d="M6.157,20.533c-0.308-1.026-1.54,0.312-1.91,0.475c-0.102,0.045-0.07,0.173,0.01,0.218
		c-0.008,0.041,0.006,0.084,0.06,0.087c0.464,0.025,1.031,0.247,1.466-0.013C6.038,21.148,6.248,20.836,6.157,20.533z M5.802,20.956
		c-0.077,0.229-0.434,0.258-0.635,0.26c-0.218,0.002-0.434-0.025-0.651-0.039c0.081-0.037,0.158-0.081,0.236-0.142
		c0.179-0.141,0.398-0.483,0.623-0.519c0.132-0.109,0.232-0.058,0.303,0.151C5.883,20.756,5.925,20.852,5.802,20.956z"/>
	<path style="fill:#1D1D1B;" d="M14.322,18.972c-0.777,0.17-1.158,1.153-0.651,1.798c0.049,0.062,0.152,0.048,0.203,0
		c0.483-0.461,0.766-1.086,0.714-1.761C14.575,18.847,14.363,18.836,14.322,18.972z M14.296,19.131
		c-0.025,0.495-0.181,0.925-0.504,1.294C13.551,19.95,13.803,19.319,14.296,19.131z"/>
	<path style="fill:#1D1D1B;" d="M15.218,18.392c-0.139-0.105-0.326,0.135-0.188,0.243c0.018,0.014,0.031,0.032,0.049,0.046
		c-0.179,0.868,0.584,1.742,1.489,1.637c0.112-0.013,0.191-0.119,0.131-0.228C16.327,19.417,15.831,18.854,15.218,18.392z
		 M15.221,18.814c0.413,0.353,0.766,0.756,1.061,1.212C15.68,19.979,15.207,19.411,15.221,18.814z"/>
	<path style="fill:#1D1D1B;" d="M15.453,17.375c-0.715-0.786-2.174-0.442-2.451,0.586c-0.045,0.168,0.179,0.233,0.257,0.101
		c0.781,0.202,1.553,0.037,2.193-0.463C15.523,17.545,15.505,17.432,15.453,17.375z M13.35,17.897
		c0.313-0.626,1.167-0.828,1.727-0.418C14.574,17.852,13.969,17.996,13.35,17.897z"/>
	<path style="fill:#1D1D1B;" d="M14.102,14.392c-0.021-0.04-0.051-0.059-0.083-0.069c0.03-0.036,0.062-0.078,0.088-0.107
		c0.067-0.076-0.038-0.183-0.112-0.112c-0.34,0.324-1.467,1.714-0.496,1.965c0.283,0.073,0.618-0.068,0.778-0.31
		C14.555,15.337,14.302,14.784,14.102,14.392z M13.501,15.272c0.017-0.211,0.175-0.48,0.34-0.713c0.1,0.211,0.238,0.465,0.235,0.706
		C14.067,15.863,13.449,15.902,13.501,15.272z"/>
	<path style="fill:#1D1D1B;" d="M14.42,13.297c-0.018-0.035-0.05-0.051-0.09-0.045c-0.046-0.02-0.085-0.048-0.132-0.066
		c-0.155-0.059-0.268,0.203-0.114,0.27c0.053,0.023,0.097,0.055,0.148,0.08c-0.003,0.88,0.736,1.635,1.633,1.621
		c0.091-0.002,0.191-0.101,0.151-0.198C15.704,14.211,15.145,13.637,14.42,13.297z M14.444,13.65
		c0.488,0.283,0.871,0.674,1.145,1.174C14.992,14.726,14.527,14.247,14.444,13.65z"/>
	<path style="fill:#1D1D1B;" d="M18.329,9.827c-0.146-0.019-0.17,0.152-0.093,0.243c-0.056-0.009-0.119,0.054-0.09,0.124
		c0.031,0.074,0.072,0.142,0.11,0.211c-0.032,0.042-0.06,0.076-0.102,0.134c-0.08,0.009-0.156,0.073-0.127,0.166
		c0.001,0.004,0.002,0.009,0.004,0.013c-0.395,0.596-0.928,1.611-0.255,1.733c0.292,0.053,0.563-0.262,0.658-0.499
		c0.163-0.407,0.05-0.941-0.139-1.322c0.018-0.025,0.034-0.045,0.052-0.07c0.194,0.292,0.453,0.53,0.78,0.688
		c0.26,0.125,0.692,0.249,0.922-0.01C20.622,10.592,18.734,9.879,18.329,9.827z M18.109,11.928c-0.261-0.018-0.357-0.105-0.288-0.26
		c-0.01-0.223,0.119-0.491,0.274-0.739c0.05,0.17,0.093,0.342,0.095,0.524C18.201,11.616,18.174,11.774,18.109,11.928z M19.655,11
		c-0.366,0.414-1.199-0.583-1.359-0.881c0.262,0.095,0.523,0.171,0.772,0.3c0.118,0.061,0.232,0.131,0.341,0.207
		C19.564,10.736,19.806,10.829,19.655,11z"/>
	<path style="fill:#1D1D1B;" d="M22.293,6.375C21.844,6.458,21.457,6.702,21.22,7.1c-0.162,0.271-0.354,0.777-0.084,1.046
		c0.21,0.21,0.552,0.136,0.767-0.024c0.433-0.321,0.315-0.937,0.42-1.4c0.016-0.071-0.022-0.119-0.071-0.148
		c0.03-0.01,0.055-0.028,0.085-0.037C22.444,6.509,22.398,6.355,22.293,6.375z M21.975,7.151c-0.026,0.283-0.182,1.176-0.542,0.634
		c-0.151-0.227-0.145-0.225-0.049-0.448c0.055-0.127,0.113-0.22,0.202-0.326c0.129-0.154,0.288-0.261,0.461-0.348
		C22.008,6.825,21.99,6.983,21.975,7.151z"/>
	<path style="fill:#1D1D1B;" d="M22.852,7.391c-0.114-0.037-0.184,0.091-0.141,0.18c-0.132,0.809,0.459,1.541,1.276,1.623
		c0.113,0.011,0.168-0.11,0.153-0.201C24.027,8.282,23.551,7.619,22.852,7.391z M22.938,7.752c0.399,0.267,0.68,0.601,0.819,1.057
		C23.283,8.671,22.959,8.247,22.938,7.752z"/>
	<path style="fill:#1D1D1B;" d="M31.029,16.962c-0.517-0.743-1.644-1.112-2.434-0.559c-0.146,0.102-0.022,0.301,0.137,0.234
		c0.024-0.01,0.049-0.011,0.073-0.02c0.544,0.602,1.363,0.832,2.136,0.562C31.024,17.15,31.087,17.045,31.029,16.962z
		 M29.028,16.555c0.575-0.154,1.158-0.047,1.579,0.393C30.038,17.07,29.473,16.937,29.028,16.555z"/>
	<path style="fill:#1D1D1B;" d="M28.579,14.71c-0.642-0.741-2.142,0.078-2.269,0.897c-0.016,0.105,0.119,0.228,0.206,0.12
		c0.338-0.425,0.581-0.831,1.162-0.944c0.122-0.024,0.305-0.042,0.424,0.003c0.547,0.208,0.27,0.597,0.02,0.763
		c-0.351,0.234-0.821,0.055-1.184-0.07c-0.084-0.029-0.143,0.108-0.061,0.144c0.482,0.214,1.089,0.455,1.553,0.071
		C28.727,15.45,28.851,15.024,28.579,14.71z"/>
	<path style="fill:#1D1D1B;" d="M27.352,17.383c-0.333-0.618-1.23-1.17-1.923-0.792c-0.123,0.067-0.062,0.252,0.069,0.255
		c0.564,0.017,1.036,0.051,1.38,0.468c-0.535,0.019-1.045-0.09-1.53-0.355c-0.097-0.053-0.171,0.083-0.085,0.146
		c0.573,0.419,1.226,0.607,1.936,0.545C27.333,17.638,27.42,17.508,27.352,17.383z"/>
	<path style="fill:#1D1D1B;" d="M21.574,16.838c-0.033-0.045-0.079-0.054-0.123-0.05c0.009-0.07-0.097-0.112-0.134-0.043
		c-0.226,0.417-1.032,1.965,0.078,1.819C22.376,18.435,21.942,17.335,21.574,16.838z M21.297,18.251
		c-0.345-0.056-0.078-0.839,0.073-1.236c0.124,0.189,0.261,0.393,0.308,0.615C21.729,17.875,21.654,18.31,21.297,18.251z"/>
	<path style="fill:#1D1D1B;" d="M20.151,15.24c-0.464,0.007-0.919,0.144-1.279,0.448c-0.265,0.224-0.529,0.629-0.197,0.923
		c0.691,0.611,1.589-0.454,1.463-1.136c-0.012-0.068-0.062-0.09-0.113-0.089c0.045-0.007,0.089-0.013,0.126-0.016
		C20.234,15.363,20.236,15.238,20.151,15.24z M19.879,15.51c-0.029,0.286-0.081,0.553-0.308,0.754
		c-0.187,0.166-0.894,0.418-0.722-0.201c0.108-0.388,0.733-0.603,1.137-0.671C19.933,15.408,19.886,15.449,19.879,15.51z"/>
	<path style="fill:#1D1D1B;" d="M22.487,15.182c-0.329-0.607-1.073-1.363-1.83-1.289c-0.09,0.009-0.133,0.125-0.048,0.177
		c0.022,0.014,0.048,0.021,0.071,0.034c-0.021,0.018-0.035,0.043-0.031,0.076c0.1,0.856,0.91,1.419,1.749,1.221
		C22.495,15.378,22.531,15.264,22.487,15.182z M20.876,14.197c0.195,0.086,0.394,0.165,0.575,0.286
		c0.263,0.176,0.467,0.408,0.644,0.664C21.517,15.185,20.996,14.776,20.876,14.197z"/>
	<path style="fill:#1D1D1B;" d="M24.28,11.504c-0.433,0.129-2.038,0.52-1.488,1.279c0.555,0.766,1.39-0.07,1.543-0.69
		c0.039-0.159-0.168-0.238-0.257-0.108c-0.118,0.172-0.201,0.38-0.341,0.535c-0.212,0.236-0.952,0.267-0.519-0.26
		c0.063-0.076,0.32-0.159,0.403-0.197c0.24-0.11,0.485-0.21,0.729-0.312C24.495,11.69,24.443,11.455,24.28,11.504z"/>
</g>
<g>
</g>
<g>
</g>
<g>
</g>
<g>
</g>
<g>
</g>
<g>
</g>
<g>
</g>
<g>
</g>
<g>
</g>
<g>
</g>
<g>
</g>
<g>
</g>
<g>
</g>
<g>
</g>
<g>
</g>
</svg>
