<?xml version="1.0" encoding="iso-8859-1"?>
<!-- Generator: Adobe Illustrator 18.0.0, SVG Export Plug-In . SVG Version: 6.00 Build 0)  -->
<!DOCTYPE svg PUBLIC "-//W3C//DTD SVG 1.1//EN" "http://www.w3.org/Graphics/SVG/1.1/DTD/svg11.dtd">
<svg version="1.1" id="Capa_1" xmlns="http://www.w3.org/2000/svg" xmlns:xlink="http://www.w3.org/1999/xlink" x="0px" y="0px"
	 viewBox="0 0 54.425 54.425" style="enable-background:new 0 0 54.425 54.425;" xml:space="preserve">
<g>
	<path style="fill:#1D1D1B;" d="M47.152,52.23c1.424-7.908,0.993-16.279,0.811-24.268c-0.106-4.639-0.251-9.283-0.118-13.923
		c0.098-3.446,0.541-6.824-0.032-10.233c-0.001-0.005-0.001-0.009-0.002-0.014c-0.02-0.118-0.031-0.235-0.053-0.352
		c-0.037-0.193-0.202-0.233-0.344-0.182c-0.99-1.124-2.339-1.824-3.846-1.914c-0.471-0.3-1.029-0.53-1.723-0.686
		c-0.127-0.028-0.229,0.014-0.303,0.085c-0.057-0.066-0.14-0.114-0.25-0.121C30.648-0.039,19.819-0.333,9.181,0.557
		C9.088,0.564,9.029,0.613,8.989,0.674C7.6,0.966,7.24,1.647,6.763,3.302c-1.085,3.763-0.088,9.246-0.098,13.168
		C6.641,26.688,6.586,36.906,6.599,47.123c-0.024,0.024-0.039,0.059-0.036,0.106c0.006,0.081,0.026,0.15,0.035,0.228
		c0,0.065,0,0.13,0,0.194c0,0.071,0.024,0.126,0.057,0.172c0.154,0.816,0.492,1.474,0.97,2.008c0.337,0.712,0.951,1.385,1.405,1.945
		c0.689,0.851,1.508,1.867,2.48,2.396c0.087,0.047,0.189,0.022,0.269-0.032c1.562,0.589,4.389,0.082,5.918,0.067
		c3.88-0.037,7.76-0.082,11.64-0.129c3.879-0.047,7.761-0.061,11.639-0.145c2.439-0.053,4.246,0.099,6.299-1.307
		C47.474,52.49,47.35,52.224,47.152,52.23z M47.191,4.002c0.021,0.029,0.048,0.047,0.073,0.066C47.805,8,47.21,12.081,47.151,16.026
		c-0.063,4.311,0.071,8.622,0.168,12.931c0.176,7.807-0.45,15.559-0.439,23.343c-0.88-0.674-1.577-1.478-2.233-2.365
		c0.524-0.621,0.841-1.401,0.868-2.389c0.001-0.05-0.027-0.075-0.042-0.111c0.778-3.59,0.08-7.925,0.092-11.453
		c0.019-5.641,0.031-11.283,0.046-16.924c0.012-4.567,0.915-10.135-0.129-14.597c-0.246-1.053-0.6-1.857-1.14-2.466
		C45.472,2.344,46.466,3.021,47.191,4.002z M7.157,47.83c0.036-0.047,0.063-0.104,0.063-0.179c0.06-7.47,0.067-14.941,0.099-22.411
		c0.015-3.573,0.03-7.145,0.045-10.718c0.011-2.686-1.186-12.161,2.221-13.46C20.18,0.949,30.699,0.777,41.292,1.34
		c0.106,0.006,0.185-0.03,0.242-0.085c0.035,0.026,0.078,0.047,0.131,0.058c4.67,1.027,3.258,10.507,3.252,13.762
		c-0.008,3.982-0.014,7.964-0.021,11.946c-0.012,6.694,0.633,13.805,0.042,20.508c-0.001,0.007-0.007,0.009-0.008,0.016
		c-0.587,5.449-15.216,3.036-18.469,3.001C22.082,50.498,9.92,52.849,7.157,47.83z M28.366,53.423
		c-1.489,0.018-16.491,0.752-16.625,0.158c-0.026-0.117-0.123-0.146-0.211-0.122c-0.612-0.691-1.343-1.296-1.947-1.995
		c-0.136-0.157-0.264-0.334-0.391-0.512c0.412,0.187,0.862,0.34,1.352,0.457c4.864,1.165,10.914-0.238,15.918-0.179
		c3.359,0.04,14.26,2.405,17.876-0.964c0.514,0.874,1.218,1.642,1.99,2.298C41.487,54.632,33.345,53.363,28.366,53.423z"/>
	<path style="fill:#1D1D1B;" d="M36.932,3.793c-0.192-0.54-0.92-1.294-1.478-0.775c-0.011-0.001-0.014-0.011-0.026-0.011
		c-5.908,0.1-11.848,0.049-17.748,0.381c-0.005,0-0.007,0.005-0.011,0.005c-0.019-0.016-0.036-0.033-0.062-0.043
		c-0.982-0.345-1.428,1.193-1.386,1.88c0.033,0.532,0.194,1.11,0.615,1.467c0.176,0.149,0.407,0.261,0.638,0.291
		c0.05,0.006,0.084,0.002,0.123,0.001c0.042,0.067,0.105,0.12,0.208,0.122c6.075,0.143,12.183,0.041,18.252-0.275
		c0.097-0.005,0.164-0.049,0.21-0.11c0.079,0.031,0.176,0.023,0.243-0.071C37.084,5.846,37.267,4.736,36.932,3.793z M17.637,3.721
		c0.016,0.005,0.024,0.018,0.043,0.019c5.906,0.149,11.84-0.086,17.748-0.17c0.093-0.001,0.161-0.041,0.206-0.097
		c0.572-0.016,0.808,0.389,0.875,0.909c-0.026-0.008-0.04-0.028-0.073-0.027c-5.901,0.239-11.839,0.282-17.732,0.585
		c-0.027-0.056-0.079-0.09-0.136-0.11c-0.016-0.026-0.02-0.056-0.051-0.076c-0.41-0.264-0.73-0.558-1.013-0.944
		C17.548,3.781,17.592,3.753,17.637,3.721z M17.804,6.571c-0.003,0-0.004,0.003-0.007,0.003c-0.243-0.085-0.493-0.273-0.62-0.421
		c-0.252-0.293-0.332-0.713-0.326-1.091c0.004-0.274,0.055-0.572,0.187-0.815c0.059-0.109,0.133-0.186,0.214-0.254
		C17.515,4.42,17.846,4.8,18.257,5.09c-0.157,0.449-0.132,1.008-0.126,1.477C18.022,6.568,17.913,6.571,17.804,6.571z M36.214,6.328
		c-0.043-0.032-0.088-0.065-0.159-0.063C30.231,6.43,24.416,6.518,18.591,6.562c0.085-0.394,0.195-0.852,0.177-1.261
		C24.549,5.8,30.68,5.494,36.435,4.842c0.041-0.005,0.063-0.032,0.094-0.05C36.514,5.354,36.365,5.961,36.214,6.328z"/>
	<path style="fill:#1D1D1B;" d="M40.418,11.394c-0.033,0.137-0.064,0.274-0.096,0.411c-0.127-0.12-0.341-0.144-0.442,0.055
		c-2.642,5.235-5.412,10.441-7.809,15.794c-0.071,0.16,0.15,0.299,0.24,0.14c2.786-4.92,5.254-10.038,7.8-15.087
		c-1.276,5.371-2.532,10.752-3.777,16.138c-0.676-0.145-1.352-0.288-2.029-0.429c-0.616-0.129-1.293-0.174-1.812-0.554
		c-0.153-0.112-0.341,0.073-0.302,0.232c0.136,0.562,0.739,0.595,1.236,0.694c0.273,0.054,0.547,0.108,0.82,0.162
		c-2.188,4.986-4.936,10.268-6.21,15.6c-0.022,0.014-0.045,0.023-0.061,0.052c-0.708,1.294,0.442,2.571,1.657,2.95
		c0.673,0.21,1.469,0.248,2.082-0.148c0.434-0.28,0.652-0.704,0.805-1.163c0.064,0,0.128-0.026,0.155-0.106
		c3.649-11.09,6.467-23.129,7.947-34.713C40.636,11.305,40.445,11.281,40.418,11.394z M32.411,45.808
		c-0.547,0.851-1.216,1.497-2.367,1.252c-1.144-0.244-1.961-1.063-1.772-2.271c1.971-5.293,4.287-10.447,6.362-15.7
		c0.009-0.024-0.004-0.042-0.004-0.064l0.197,0.039c0.429,0.191,0.922,0.242,1.391,0.278C34.949,34.833,33.687,40.326,32.411,45.808
		z"/>
</g>
<g>
</g>
<g>
</g>
<g>
</g>
<g>
</g>
<g>
</g>
<g>
</g>
<g>
</g>
<g>
</g>
<g>
</g>
<g>
</g>
<g>
</g>
<g>
</g>
<g>
</g>
<g>
</g>
<g>
</g>
</svg>
