<?xml version="1.0" encoding="iso-8859-1"?>
<!-- Generator: Adobe Illustrator 18.0.0, SVG Export Plug-In . SVG Version: 6.00 Build 0)  -->
<!DOCTYPE svg PUBLIC "-//W3C//DTD SVG 1.1//EN" "http://www.w3.org/Graphics/SVG/1.1/DTD/svg11.dtd">
<svg version="1.1" id="Capa_1" xmlns="http://www.w3.org/2000/svg" xmlns:xlink="http://www.w3.org/1999/xlink" x="0px" y="0px"
	 viewBox="0 0 55.914 55.914" style="enable-background:new 0 0 55.914 55.914;" xml:space="preserve">
<g>
	<path style="fill:#1D1D1B;" d="M50.364,13.329c0.296-0.166,0.095-0.562-0.19-0.531c0.021-0.115-0.088-0.23-0.216-0.162
		c-0.703,0.372-1.581,0.478-2.172-0.175c-0.55-0.608-0.399-1.343-0.071-1.996c0.263,0.082,0.537,0.122,0.81,0.07
		c0.241-0.046,0.148-0.364-0.053-0.39c-0.265-0.034-0.509-0.061-0.748-0.108c-0.048-0.045-0.109-0.058-0.174-0.043
		c-0.215-0.054-0.427-0.127-0.645-0.254c-0.111-0.065-0.241,0.092-0.141,0.182c0.105,0.094,0.228,0.171,0.35,0.249
		c-0.536,0.542-1.057,1.145-1.816,1.364c-0.888,0.256-1.566-0.167-1.932-0.957c-0.015-0.032-0.042-0.042-0.065-0.061
		c0.104-0.231-0.212-0.488-0.442-0.292c-1.244,1.059-2.791,1.148-3.948,0.019c-0.322-0.315-0.512-0.931-0.919-1.142
		c-0.223-0.116-0.24-0.054-0.485-0.024c-0.049,0.006-0.076,0.057-0.117,0.068c-0.431,0.514-0.933,0.6-1.505,0.256
		c-0.471,0.047-0.814-0.113-1.033-0.473c-0.046-0.151-0.278-0.196-0.386-0.047c-1.22,1.694-3.15,2.133-4.729,0.541
		c-0.061-0.061-0.148-0.052-0.208-0.008c-0.106-0.041-0.238-0.014-0.276,0.123c-0.369,1.357-2.643,0.832-3.153-0.054
		c-0.092-0.16-0.297-0.168-0.427-0.055c-0.868,0.757-2.015,0.706-2.795-0.053c0.223-0.047,0.436-0.121,0.603-0.265
		c0.15-0.129-0.015-0.332-0.176-0.303c-0.25,0.045-0.469,0.169-0.718,0.219c-0.013,0.003-0.026,0.002-0.039,0.004
		c-0.062-0.035-0.126-0.026-0.171,0.018c-0.217,0.022-0.432,0.024-0.654,0.004c-0.165-0.015-0.191,0.24-0.038,0.283
		c0.189,0.054,0.403,0.081,0.62,0.091c-0.495,0.663-0.922,1.177-1.846,1.326c-0.74,0.119-1.424-0.062-2.097-0.318
		c0.161-0.024,0.321-0.062,0.471-0.137c0.218-0.108,0.054-0.401-0.154-0.366c-0.628,0.105-1.135,0.153-1.718-0.16
		c-0.188-0.101-0.344,0.168-0.167,0.285c0.148,0.098,0.31,0.182,0.48,0.248c-0.685,0.725-1.557,0.977-2.445,0.352
		c-0.156-0.11-0.343,0.012-0.399,0.163c-0.841,2.241-3.226,2.767-5.093,1.466c0.261-0.089,0.492-0.242,0.644-0.491
		c0.079-0.129-0.084-0.31-0.217-0.216c-0.417,0.296-0.764,0.516-1.295,0.464c-0.186-0.018-0.23,0.298-0.044,0.328
		c0.115,0.019,0.234,0.02,0.353,0.018c-0.078,0.9-0.991,1.516-1.771,0.84c-0.155-0.134-0.38-0.005-0.338,0.197
		c0.297,1.444-0.691,2.505-2.084,2.66c-0.172,0.019-0.176,0.256,0,0.271c0.018,0.001,0.033-0.003,0.051-0.001
		c0.02,0.082,0.09,0.156,0.185,0.126c1.02-0.327,1.627,0.771,1.515,1.631c-0.079,0.606-0.372,1.144-0.66,1.675
		c-0.128,0.236,0.134,0.522,0.376,0.376c1.245-0.752,2.343-0.112,2.807,1.136c0.055,0.147,0.227,0.189,0.353,0.141
		c0.058,0.019,0.12,0.02,0.168-0.031c1.482-1.586,3.5-1.664,4.99-0.037c0.1,0.109,0.318,0.119,0.416,0
		c1.365-1.664,3.643-1.186,4.451,0.697c0.053,0.124,0.173,0.156,0.287,0.133c0.043,0.007,0.089,0,0.133-0.041
		c1.152-1.098,2.683-1.98,4.169-0.898c0.088,0.064,0.254,0.042,0.324-0.042c0.788-0.937,4.441-3.292,4.259,0.347
		c-0.001,0.017,0.013,0.025,0.015,0.041c-0.344,0.008-0.684,0.048-0.984,0.131c-0.137,0.038-0.116,0.265,0.035,0.256
		c0.352-0.021,0.702-0.045,1.054-0.01c0.085,0.008,0.162,0.034,0.243,0.05c0.002,0.017,0.009,0.037,0.01,0.054
		c0.003,0.081,0.125,0.082,0.127,0c0-0.008,0.004-0.017,0.004-0.025c0.255,0.062,0.504,0.137,0.765,0.193
		c0.226,0.048,0.4-0.284,0.167-0.395c-0.194-0.092-0.413-0.145-0.638-0.185c0.039-0.066,0.04-0.144-0.024-0.198
		c0.001-0.004,0.005-0.006,0.006-0.011c1.443-1.443,2.495-1.617,3.158-0.523c0.092,0.118,0.332,0.116,0.424,0
		c0.894-1.135,2.553-2.083,3.89-0.508c0.285,0.336,0.415,0.775,0.723,1.118c0.206,0.229,0.489,0.019,0.489-0.224
		c0.035-0.022,0.064-0.054,0.069-0.106c0.09-0.935,0.928-1.583,1.847-1.502c0.606,0.053,0.977,0.398,1.412,0.718
		c-0.101,0.095-0.19,0.199-0.246,0.319c-0.071,0.153,0.075,0.316,0.233,0.233c0.272-0.141,0.48-0.332,0.783-0.421
		c0.303-0.089,0.581-0.035,0.886-0.058c0.201-0.015,0.32-0.302,0.111-0.409c-0.197-0.101-0.442-0.131-0.694-0.111
		c0.6-1.467,2.306-1.61,3.684-0.99c0.172,0.077,0.323,0.011,0.394-0.16c0.544-1.323,1.699-1.502,2.955-1.369
		c0.018,0.014,0.033,0.029,0.051,0.043c0.151,0.106,0.326-0.097,0.243-0.243c-0.396-0.695-0.778-1.338-0.618-2.179
		C49.136,14.297,49.672,13.718,50.364,13.329z M48.744,16.866c-1.108-0.197-2.259,0.581-2.778,1.585
		c-1.614-0.579-3.719-0.306-4.049,1.608c-0.095,0.027-0.19,0.056-0.279,0.096c-0.458-0.717-1.537-1.063-2.337-0.91
		c-0.872,0.166-1.504,0.87-1.613,1.723c-0.753-1.033-0.937-2.028-2.506-1.991c-1.077,0.025-1.947,0.542-2.63,1.307
		c-1.245-1.215-3.457-1.008-3.588,0.958c-0.011-0.008-0.017-0.021-0.029-0.027c0.087-1.821-2.12-2.515-3.654-1.699
		c-0.516,0.274-1.001,0.953-1.584,0.985c-0.403,0.022-0.893-0.311-1.357-0.296c-1.103,0.037-1.955,0.672-2.665,1.452
		c-0.859-2.035-2.701-2.244-4.577-1.429c-0.829,0.36-0.481,0.266-1.287-0.139c-0.529-0.266-1.02-0.446-1.613-0.477
		c-1.218-0.065-2.166,0.477-2.906,1.361c-0.284-1.291-1.617-1.89-2.816-1.573c0.353-0.793,0.602-1.688,0.15-2.469
		c-0.218-0.377-0.535-0.646-0.896-0.771c0.888-0.406,1.428-1.369,1.378-2.401c0.914,0.419,2.008-0.123,2.006-1.196
		c1.51,1.363,3.842,1.344,5.183-0.322c0.151-0.188,0.355-0.82,0.566-0.901c0.143-0.055,0.789,0.236,1.028,0.235
		c0.787-0.002,1.467-0.388,1.823-1.073c0.004,0.003,0.004,0.009,0.008,0.012c0.973,0.632,2.238,0.997,3.381,0.638
		c0.663-0.208,1.376-0.695,1.638-1.362c0.805,0.899,2.092,0.989,3.089,0.206c0.969,0.976,3.619,1.449,3.818-0.185
		c1.339,1.613,4.167,1.498,5.077-0.496c0.387,0.527,0.946,0.859,1.639,0.838c0.381-0.011,0.716-0.313,1.035-0.34
		c0.578-0.049,0.409,0.064,0.899,0.648c1.217,1.45,3.2,1.5,4.611,0.41c0.106,0.875,1.11,1.383,1.933,1.358
		c0.805-0.024,1.498-0.507,2.031-1.113c-0.085,0.598,0.088,1.252,0.485,1.678c0.478,0.513,1.309,0.729,2.005,0.544
		C48.429,14.241,48.056,15.776,48.744,16.866z"/>
	<path style="fill:#1D1D1B;" d="M54.987,14.086c-0.202-0.159-0.421-0.291-0.652-0.368c1.893-0.984,1.006-4.094-1.221-4.147
		c0.246-0.997,0.265-2.127-0.89-2.536c-0.937-0.332-2.19-0.16-2.896,0.562c0.675-4.222-6.603-4.887-8.63-1.812
		c-0.389-0.72-1-1.268-1.838-1.436c-0.438-0.088-0.916-0.055-1.341,0.087c-0.339,0.113-0.656,0.455-1.004,0.45
		c-0.244-0.004-0.651-0.444-0.958-0.528c-0.353-0.096-0.734-0.121-1.092-0.026c-0.675,0.179-1.128,0.649-1.37,1.245
		c-0.223-1.112-1.318-1.89-2.435-2.011c-1.509-0.164-2.868,0.83-3.725,2.006c-0.645-1.583-2.533-1.82-3.681-0.589
		c-1.423-1.074-3.313-0.531-3.78,1.237c-0.594-2.76-4.977-1.935-5.058,0.753c-0.493-0.731-1.522-0.964-2.457-0.876
		C10.546,6.23,9.423,7.066,9.07,8.393C7.59,7.66,5.546,8.104,5.559,9.935c-1.435-0.799-3.286,0.062-4.04,1.427
		c-0.412,0.745-0.943,2.891-0.255,3.781c-0.583,0.117-1.074,0.602-1.22,1.231c-0.234,1.003,0.499,1.817,1.303,2.293
		c-0.643,0.525-1.297,1.239-1.012,2.105c0.269,0.816,1.147,1.035,1.938,1.086c-0.819,0.525-0.777,2.037-0.125,2.703
		c0.325,0.332,0.707,0.503,1.095,0.555c-0.098,6.22,0.122,12.495,0.168,18.718c0,0.014,0.012,0.019,0.013,0.033
		c-0.05,0.063-0.078,0.144-0.028,0.226c4.443,7.374,16.436,8.418,24.153,8.258c8.534-0.177,20.008-1.84,25.87-8.778
		c0.229,0.054,0.456-0.183,0.342-0.394c0.026-0.033,0.056-0.061,0.082-0.094c0.171-0.22,0.045-0.499-0.144-0.588
		c0.001-0.011,0.007-0.02,0.007-0.032c0.06-7.083,0.384-14.468-0.586-21.501c0.611-0.238,1.135-0.664,1.45-1.361
		c0.489-1.081,0.107-2.242-0.813-2.771c0.449-0.073,0.917-0.296,1.271-0.484c0.401-0.213,0.944-0.549,0.881-1.08
		C55.854,14.799,55.329,14.355,54.987,14.086z M46.567,22.974c0.506,0.321,1.267,0.511,1.577,0.509
		c1.414-0.008,2.365-1.126,2.537-2.429c0.682,0.17,1.408,0.194,2.066,0.031c-0.153,3.292-0.1,6.608-0.007,9.927
		c-3.475-1.966-7.605-3.618-11.587-2.201c-5.052,1.798-7.757,6.747-13.444,7.504c-3.789,0.505-7.079-0.61-10.252-2.645
		c-1.974-1.266-3.881-2.55-6.264-2.88c-2.872-0.397-5.241,0.64-6.846,2.985c-0.103,0.151,0.141,0.344,0.257,0.198
		c5.143-6.496,10.747-0.097,15.82,2.039c2.328,0.98,4.915,1.3,7.416,0.961c3.117-0.423,5.44-1.86,7.866-3.728
		c2.748-2.116,4.659-4.225,8.477-4.338c3.073-0.091,5.92,1.34,8.505,2.805c0.025,0.014,0.048,0.016,0.072,0.024
		c0.01,0.355,0.022,0.71,0.033,1.064c-3.073-1.835-7.722-2.856-11.204-1.891c-5.712,1.582-8.303,7.198-14.977,6.998
		c-8.349-0.25-15.607-10.263-22.36-1.923c0.019-3.652-0.153-7.322-0.615-10.859c0.598-0.05,1.172-0.377,1.534-0.915
		c-0.082,1.708,1.53,3.021,3.149,3.247c1.815,0.253,3.449-0.813,4.152-2.426c0.46,1.402,2.113,1.335,3.125,0.406
		c0.735,1.386,2.664,1.624,3.524,0.339c0.262,1.475,2.752,1.121,3.91,0.332c0.994,1.848,4.819,1.963,5.014-0.274
		c0.636,0.978,2.333,1.07,3.375,0.916c1.414-0.209,2.877-1.22,3.076-2.691c0.352,0.684,1.411,1.019,2.178,0.914
		c0.221-0.03,0.444-0.176,0.651-0.179c0.187-0.237,0.408-0.323,0.663-0.258c0.115,0.197,0.26,0.362,0.436,0.495
		c0.753,0.286,1.089,0.735,1.968,0.68c0.779-0.049,1.229-0.796,1.837-0.897c0.912-0.152,1.643,0.528,2.623,0.31
		C45.953,24.88,46.721,23.987,46.567,22.974z M30.894,46.052c-7.162,1.899-12.443-1.166-18.738-3.945
		c-2.791-1.232-5.413-1.679-8.099-0.319c0.1-1.775,0.176-3.565,0.193-5.37c3.506-3.566,6.592-3.844,11.613-1.601
		c1.469,0.657,2.804,1.6,4.306,2.213c2.566,1.045,5.323,1.702,8.11,1.469c2.886-0.242,4.985-1.377,7.306-3.03
		c2.027-1.443,3.68-3.25,6.165-3.974c3.061-0.892,8.181,0.296,11,1.993c0.022,0.013,0.043,0.016,0.065,0.023
		c0.075,2.362,0.135,4.721,0.156,7.074C45.016,35.817,38.239,44.105,30.894,46.052z M52.977,41.318
		c0.001,0.382,0.014,0.766,0.012,1.147c0,0.005,0.004,0.008,0.004,0.013c-7.034-5.671-13.935,2.886-20.649,4.754
		c-6.785,1.888-13.121-0.344-19.076-3.379c-3.121-1.591-6.104-2.429-9.283-0.854c0.016-0.291,0.033-0.581,0.051-0.872
		c5.506-2.272,9.47,1.891,14.177,3.748c3.245,1.28,6.824,1.843,10.297,1.376c8.214-1.104,15.917-11.218,24.354-5.975
		C52.903,41.3,52.941,41.31,52.977,41.318z M28.437,51.546c-8.347,0.312-18.73-0.981-24.57-7.567
		c0.033-0.04,0.066-0.081,0.071-0.145c0.01-0.135,0.016-0.273,0.024-0.41c6.051-2.622,10.207,2.362,15.43,4.016
		c3.331,1.055,6.959,1.208,10.41,0.826c7.977-0.883,14.995-11.21,23.023-5.117C47.11,49.469,36.514,51.244,28.437,51.546z
		 M55.225,15.474c-0.191,0.28-0.853,0.492-1.15,0.591c-0.266,0.089-0.551,0.121-0.803,0.231c0.004-0.152-0.027-0.304-0.113-0.445
		c-0.129-0.213-0.422-0.107-0.442,0.12c-0.042,0.473-0.006,0.802-0.454,1.105c-0.167,0.113-0.069,0.423,0.146,0.347
		c0.199-0.07,0.39-0.212,0.544-0.388c0.889,0.504,1.5,2.21,0.522,2.94c-0.895,0.668-2.008,0.661-3.005,0.329
		c-0.207-0.069-0.425,0.114-0.423,0.322c0.009,0.985-0.511,2.001-1.558,2.262c-0.281,0.07-1.719-0.063-2.097-0.483
		c-0.005-0.009-0.006-0.018-0.01-0.028c-0.013-0.025-0.037-0.029-0.056-0.045c-0.042-0.077-0.056-0.161-0.017-0.256
		c0.032-0.078-0.09-0.121-0.132-0.056c-0.06,0.094-0.085,0.185-0.09,0.272c-0.097,0.044-0.169,0.141-0.127,0.262
		c-1.022,2.103-2.178,2.56-3.47,1.37c-0.129-0.098-0.302-0.009-0.382,0.1c-1.678,0.933-2.995,0.905-3.953-0.084
		c-0.097-0.09-0.218-0.097-0.333-0.043c-0.918,0.503-1.894,0.349-2.927-0.446c0.164-0.062,0.319-0.137,0.451-0.24
		c0.154-0.12-0.021-0.319-0.171-0.294c-0.268,0.045-0.512,0.165-0.774,0.236c-0.305,0.082-0.614,0.114-0.928,0.14
		c-0.224,0.018-0.228,0.339,0,0.352c0.168,0.009,0.347,0.007,0.53-0.005c-0.288,1.185-0.938,2.09-2.161,2.457
		c-1.089,0.327-3.269,0.443-3.771-0.914c-0.046-0.125-0.188-0.117-0.242-0.031c-0.129-0.025-0.269,0.038-0.282,0.219
		c-0.158,2.179-3.677,1.996-4.146,0.232c-0.054-0.204-0.308-0.258-0.456-0.12c-0.334,0.411-0.758,0.644-1.273,0.701
		c-0.839,0.392-1.552,0.092-2.143-0.884c0.291,0.051,0.583,0.095,0.874,0.052c0.252-0.037,0.182-0.372,0-0.444
		c-0.316-0.126-0.664-0.115-1.001-0.142c-0.188-0.015-0.376-0.028-0.564-0.04c-0.063-0.004-0.125-0.008-0.188-0.012
		c-0.065-0.026-0.124-0.03-0.177-0.015c0.003-0.049-0.016-0.101-0.075-0.125c-0.128-0.054-0.203-0.006-0.288,0.102
		c-0.062,0.079-0.069,0.171,0,0.25c0.162,0.186,0.425,0.235,0.683,0.266c-0.772,1.107-2.392,1.171-2.816-0.363
		c-0.073-0.266-0.396-0.267-0.542-0.071c-0.655,0.887-2.317,1.409-2.724-0.217c-0.007-0.029-0.03-0.043-0.048-0.062
		c0.016-0.294-0.43-0.38-0.55-0.076c-0.555,1.404-1.785,2.479-3.353,2.449c-1.622-0.031-3.155-1.205-3.247-2.89
		c-0.004-0.082-0.069-0.135-0.139-0.156c0.001-0.083-0.099-0.134-0.157-0.051c-0.578,0.824-1.748,1.2-2.575,0.518
		c-0.407-0.336-0.616-0.842-0.483-1.367c0.108-0.426,0.398-0.663,0.694-0.936c0.039,0.064,0.081,0.126,0.12,0.191
		c0.105,0.177,0.349,0.022,0.27-0.158c-0.071-0.155-0.135-0.313-0.194-0.472c-0.088-0.248-0.392-0.126-0.387,0.059
		c-0.442-0.06-0.875-0.114-1.256-0.374c-1.157-0.791-0.253-1.782,0.542-2.37c0.141-0.104,0.195-0.357,0-0.449
		c-0.326-0.129-0.619-0.315-0.877-0.557c-0.876-0.843-0.608-1.577,0.805-2.202c0.233,0.035,0.341-0.198,0.235-0.348
		c-0.018-0.042-0.048-0.077-0.095-0.094c-0.68-0.232-0.551-1.439-0.481-1.996c0.086-0.689,0.307-1.344,0.735-1.898
		c0.805-1.042,2.094-1.34,3.284-0.81c0.117,0.052,0.213,0.012,0.28-0.053c0.003-0.003,0.007-0.005,0.01-0.008
		c0.059-0.064,0.079-0.146,0.047-0.233c0.033-1.118,0.58-1.558,1.651-1.303c0.621-0.293,1.146-0.227,1.573,0.198
		c0.143,0.099,0.401,0.005,0.429-0.175c0.316-2.062,3.695-3.348,4.744-1.089c0.088,0.19,0.433,0.103,0.406-0.11
		c-0.001-0.012-0.007-0.021-0.008-0.032c0.028-0.023,0.05-0.053,0.049-0.097c-0.014-1.067,0.545-2.073,1.586-2.443
		c1.221-0.434,2.325,0.158,2.653,1.351c-0.279,0.077-0.544,0.191-0.732,0.363c-0.084,0.077-0.024,0.259,0.101,0.243
		c0.273-0.035,0.533-0.123,0.807-0.157c0.319-0.04,0.631,0.026,0.945-0.004c0.195-0.019,0.345-0.324,0.114-0.423
		c-0.135-0.058-0.291-0.08-0.453-0.091c0.502-1.514,2.126-2.016,3.327-0.89c0.143,0.134,0.328,0.088,0.437-0.056
		c0.896-1.188,2.578-0.722,3,0.568c0.095,0.292,0.486,0.232,0.543-0.01c0.76-0.799,1.581-1.62,2.712-1.836
		c1.36-0.26,2.509,0.526,2.812,1.84c0.006,0.027,0.029,0.035,0.04,0.056c-0.336,0.012-0.668,0.051-0.948,0.104
		c-0.172,0.033-0.131,0.308,0.041,0.304c0.396-0.009,0.786-0.007,1.177,0.062c0.314,0.055,0.609,0.172,0.928,0.181
		c0.223,0.007,0.306-0.312,0.114-0.419c-0.188-0.105-0.413-0.154-0.646-0.186c0.494-1.413,2.068-1.775,3.067-0.567
		c0.1,0.121,0.296,0.096,0.399,0C38,4.438,39.678,4.884,40.345,6.361c0.134,0.296,0.513,0.118,0.53-0.153
		c1.842-2.499,8.043-2.615,7.873,1.361c-0.167-0.068-0.33-0.124-0.473-0.166c-0.191-0.056-0.331,0.247-0.139,0.331
		c0.291,0.127,0.574,0.264,0.835,0.447c0.239,0.169,0.399,0.384,0.674,0.486c0.12,0.044,0.268-0.096,0.218-0.218
		c-0.062-0.154-0.183-0.282-0.321-0.401c0.109-0.136,0.791-0.5,0.843-0.512c0.371-0.091,0.873-0.135,1.247-0.041
		c1.19,0.301,1.109,1.325,0.819,2.302c-0.049,0.165,0.091,0.388,0.28,0.367c0.859-0.094,1.793,0.295,2.026,1.22
		c0.245,0.974-0.439,1.627-1.176,2.066c-0.136,0.081-0.148,0.225-0.092,0.337c-0.021,0.073,0.013,0.162,0.107,0.156
		c0.473-0.032,0.804,0.157,1.124,0.49C54.92,14.643,55.446,15.149,55.225,15.474z"/>
</g>
<g>
</g>
<g>
</g>
<g>
</g>
<g>
</g>
<g>
</g>
<g>
</g>
<g>
</g>
<g>
</g>
<g>
</g>
<g>
</g>
<g>
</g>
<g>
</g>
<g>
</g>
<g>
</g>
<g>
</g>
</svg>
