<?xml version="1.0" encoding="iso-8859-1"?>
<!-- Generator: Adobe Illustrator 18.0.0, SVG Export Plug-In . SVG Version: 6.00 Build 0)  -->
<!DOCTYPE svg PUBLIC "-//W3C//DTD SVG 1.1//EN" "http://www.w3.org/Graphics/SVG/1.1/DTD/svg11.dtd">
<svg version="1.1" id="Capa_1" xmlns="http://www.w3.org/2000/svg" xmlns:xlink="http://www.w3.org/1999/xlink" x="0px" y="0px"
	 viewBox="0 0 56.271 56.271" style="enable-background:new 0 0 56.271 56.271;" xml:space="preserve">
<g>
	<path style="fill:#1D1D1B;" d="M48.352,8.092C43.958,2.603,35.568,1.991,31.18,7.545c-0.188-1.523-0.12-3.123,0.331-4.841
		c0.013-0.051,0.015-0.098,0.008-0.141c0.187-0.093,0.292-0.33,0.087-0.509c-2.063-1.802-5.676-1.768-8.311-1.952
		c-4.232-0.297-8.494,0.035-12.57,1.227c-0.121,0.035-0.14,0.141-0.102,0.227c-0.126,0.091-0.175,0.294-0.004,0.41
		c7.798,5.296,0.385,16.091-2.226,22.41C6.239,29.589,4.54,35.159,5.106,40.864c0.66,6.656,4.797,10.599,10.207,12.379
		c-0.082,0.351-0.136,0.708-0.116,1.071c0.008,0.143,0.117,0.212,0.229,0.226c-0.061,0.077-0.055,0.213,0.066,0.263
		c5.222,2.188,11.646,1.941,16.619-0.815c0.142-0.079,0.126-0.258,0.04-0.366c0.017-0.287-0.001-0.58-0.114-0.837
		c1.874-0.775,3.572-1.89,4.855-3.532c2.86-3.662,4.338-8.905,4.868-13.424c0.19-1.617,0.224-3.178,0.091-4.7
		c0.005,0.003,0.008,0.007,0.013,0.01c0.12,0.553,0.69,1,1.206,1.164c0.641,0.203,1.342,0.025,1.817-0.451
		c0.801-0.803,0.464-2.155-0.503-2.518C51.72,25.464,53.453,14.465,48.352,8.092z M21.072,0.666
		c2.717,0.053,7.104,0.007,9.624,1.604C28,3.712,23.954,3.234,21.034,3.045c-3.247-0.21-6.46-0.779-9.636-1.472
		C14.606,1.046,17.81,0.602,21.072,0.666z M15.606,54.499c0.053-0.039,0.09-0.096,0.084-0.184c-0.023-0.326-0.014-0.634,0.021-0.947
		c2.877,0.881,6.085,1.178,9.323,0.938c2.187-0.162,4.463-0.536,6.542-1.319c0.049,0.213,0.093,0.428,0.134,0.646
		C26.271,55.851,21.308,56.21,15.606,54.499z M38.465,44.887c-3.526,7.872-12.087,9.91-20.096,8.394
		C0.462,49.893,5.663,31.913,11.013,19.977C13.4,14.65,17.665,6.208,11.578,1.99C15.143,3,18.757,3.603,22.466,3.768
		c2.617,0.116,5.86,0.47,8.287-0.756c-2.286,9.479,6.588,15.508,9.497,23.701C42.334,32.584,40.941,39.36,38.465,44.887z
		 M41.154,27.487c-0.37-1.306-0.866-2.594-1.542-3.871c-2.293-4.336-5.878-8.244-7.572-12.719
		c4.349-4.663,11.544-3.622,14.277,2.232c2.548,5.457-0.338,11.082-5.034,14.183C41.211,27.359,41.174,27.421,41.154,27.487z
		 M43.56,29.015c-0.363,0.18-0.098,0.674,0.252,0.608c0.004,0.001,0.006,0.005,0.01,0.005c1.041,0.135,1.241,1.458,0.358,1.961
		c-0.372,0.212-0.806,0.187-1.171-0.026c-0.339-0.197-0.49-0.535-0.755-0.8c-0.071-0.072-0.17-0.081-0.254-0.05
		c-0.08-0.111-0.16-0.223-0.243-0.331c-0.108-0.861-0.291-1.708-0.512-2.55c0.089,0.088,0.222,0.124,0.362,0.035
		c5.671-3.58,8.567-11.041,4.281-16.889c-3.387-4.622-10.427-5.004-13.994-0.481c-0.275-0.785-0.497-1.585-0.634-2.411
		C36.32,2.52,45.133,3.217,48.884,10.12C52.353,16.504,50.275,25.683,43.56,29.015z"/>
	<path style="fill:#1D1D1B;" d="M39.425,31.896c-0.304-4.026-2.867-7.902-4.662-11.39c-0.057-0.11-0.149-0.129-0.24-0.116
		c-0.003-0.001-0.006,0-0.009-0.002c-0.035-0.082-0.106-0.148-0.228-0.169c-7.445-1.277-14.994-0.703-22.021,2.155
		c-0.07,0.028-0.105,0.082-0.123,0.141c-0.095,0.078-0.128,0.229,0.01,0.312c5.908,3.557,17.287,3.671,22.28-1.774
		c2.993,6.305,5.364,11.105,3.563,18.231c-1.845,7.298-7.645,11.612-15.15,11.8C15.858,51.26,10.389,47.92,8.668,40.931
		c-1.563-6.347,1.357-12.543,3.407-18.389c0.043-0.123-0.154-0.208-0.212-0.089c-3.162,6.449-5.784,14.351-2.859,21.352
		c2.578,6.174,8.32,8.226,14.672,7.817c5.966-0.383,11.717-3.419,14.035-9.169C38.941,39.401,39.675,35.207,39.425,31.896z
		 M12.746,22.663c6.942-2.213,13.785-2.95,21.008-1.809C28.786,25.668,18.619,25.445,12.746,22.663z"/>
	<path style="fill:#1D1D1B;" d="M33.396,34.671c-0.761-0.168-1.53,0.504-2.147,0.842c-0.606,0.332-1.212,0.664-1.818,0.996
		c-0.39,0.214-1.331,0.508-1.575,0.955c-0.455,0.834,0.358,3.198,1.253,3.726c-0.988-0.202-2.086-0.425-2.987-0.338
		c-1.536,0.148-1.986,3.168-1.918,4.386c0.005,0.081,0.123,0.128,0.164,0.044c0.5-1.012,0.646-3.487,1.908-3.859
		c0.403-0.119,2.099,0.259,2.352,0.298c0.637,0.097,1.863,0.09,2.409,0.431c1.188,0.744,0.461,3.258-0.035,4.353
		c-0.947,2.089-3.378,1.287-5.218,0.888c-0.061-0.013-0.115-0.005-0.163,0.011c-0.069-0.351-0.341-0.613-0.621-0.999
		c-0.764-1.051-1.739-2.658-2.809-3.403c-0.467-0.325-0.778-0.404-1.373-0.236c-0.07,0.02-0.141,0.051-0.211,0.075
		c0.062-1.556-0.14-3.185-1.889-3.428c-0.269-0.037-0.599-0.062-0.95-0.077c0.045-0.091,0.043-0.205-0.047-0.299
		c-0.937-0.988-1.87-1.982-2.812-2.965c-0.445-0.464-0.928-1.139-1.588-1.319c-1.354-0.367-2.339,1.252-3.087,2.103
		c-0.727,0.828-2.053,2.02-1.522,3.269c0.312,0.733,1.212,1.29,1.78,1.809c0.638,0.583,1.234,1.099,2.002,1.473
		c-0.043,1.171-0.086,2.5,0.235,3.557c0.547,1.799,3.209,1.184,4.689,1.025c0.83,1.312,1.907,2.609,3.091,2.786
		c1.334,0.199,4.608-1.508,5.062-2.817c0.018,0.007,0.031,0.019,0.052,0.023c1.375,0.299,4.461,1.282,5.495-0.06
		c0.674-0.874,0.81-2.469,1.013-3.514c0.045-0.23,0.144-0.562,0.225-0.914c0.067,0.078,0.167,0.121,0.28,0.076
		c1.268-0.513,4.125-1.631,4.353-3.198C37.194,38.939,34.804,34.982,33.396,34.671z M12.514,42.755
		c-0.002,0.074-0.005,0.158-0.008,0.234c-0.818-0.574-1.523-1.306-2.248-1.992c-0.62-0.587-0.993-1.511-0.751-2.418
		c0.109-0.409,1.168-1.415,1.514-1.804c0.626-0.705,0.744-0.904,1.784-1.029c1.129-0.136,1.06-0.016,1.734,0.694
		c0.907,0.956,1.804,1.92,2.705,2.881c-1.572-0.002-3.505,0.294-4.293,1.354C12.503,41.277,12.533,42.042,12.514,42.755z
		 M15.056,47.508c-1.119-0.18-1.745-0.301-1.872-1.601c-0.145-1.49-0.389-3.204,0.291-4.551c0.549-1.089,1.228-1.162,2.389-1.3
		c0.567-0.067,1.139-0.1,1.71-0.107c0.861-0.01,1.66,0.076,2.224,0.851c0.381,0.523,0.267,1.597,0.226,2.274
		c-1.303,0.605-2.628,1.705-3.76,2.405c-0.014,0.008-0.013,0.022-0.023,0.032c-0.004,0.004-0.007,0.009-0.01,0.014
		c-0.019,0.024-0.04,0.046-0.043,0.074c-0.025,0.067-0.024,0.145,0.018,0.227c0.248,0.48,0.587,1.138,0.996,1.817
		C16.488,47.601,15.749,47.62,15.056,47.508z M23.02,49.271c-1.034,0.597-2.097,1.214-3.331,0.379
		c-1.285-0.869-2.176-2.731-2.966-4.049c1.322-0.812,3.964-2.809,5.24-2.098c0.351,0.196,0.822,1.004,1.056,1.297
		c0.41,0.516,1.847,1.883,1.922,2.455C25.071,48.256,23.74,48.855,23.02,49.271z M36.037,40.871
		c-0.671,0.959-2.56,1.701-3.598,2.157c0.052-0.377,0.046-0.738-0.114-0.984c-0.384-0.587-1.742-0.577-2.336-0.681
		c-0.176-0.031-0.371-0.072-0.561-0.11c0.015-0.012,0.034-0.02,0.042-0.036c0.017-0.031,0.033-0.061,0.05-0.092
		c0.049-0.09-0.034-0.23-0.145-0.189c-0.293-0.525-0.541-1.071-0.745-1.638c-0.289-0.449-0.24-0.874,0.149-1.274
		c0.429-0.886,1.01-1.058,1.85-1.517c0.518-0.283,1.551-1.138,2.124-1.158c0.919-0.033,1.7,1.08,2.129,1.7
		C35.564,38.032,36.847,39.713,36.037,40.871z"/>
	<path style="fill:#1D1D1B;" d="M27.278,35.327c-1.153-1.299-3.717-4.064-5.541-2.353c-0.494,0.463-0.888,1.131-1.291,1.66
		c-0.356,0.467-0.938,1.005-1.148,1.559c-0.212,0.561-0.107,0.934,0.325,1.15c0.006,0.011,0.002,0.022,0.011,0.032
		c1.091,1.336,2.816,4.36,4.78,2.912c0.696-0.513,1.334-1.14,1.99-1.705c0.483-0.416,1.281-0.858,1.569-1.435
		C28.351,36.388,27.811,35.928,27.278,35.327z M26.952,36.667c-0.105,0.959-0.748,1.256-1.456,1.866
		c-0.403,0.347-0.907,1.004-1.382,1.191c-1.55,0.609-2.989-1.322-4.012-2.354c0.076-0.101,0.085-0.255-0.049-0.338
		c-0.646-0.4,0.899-2.039,1.113-2.317c0.796-1.034,1.129-2.062,2.926-1.319c0.615,0.254,1.236,0.892,1.721,1.334
		C26.498,35.354,27.056,35.714,26.952,36.667z"/>
</g>
<g>
</g>
<g>
</g>
<g>
</g>
<g>
</g>
<g>
</g>
<g>
</g>
<g>
</g>
<g>
</g>
<g>
</g>
<g>
</g>
<g>
</g>
<g>
</g>
<g>
</g>
<g>
</g>
<g>
</g>
</svg>
