<?xml version="1.0" encoding="iso-8859-1"?>
<!-- Generator: Adobe Illustrator 18.0.0, SVG Export Plug-In . SVG Version: 6.00 Build 0)  -->
<!DOCTYPE svg PUBLIC "-//W3C//DTD SVG 1.1//EN" "http://www.w3.org/Graphics/SVG/1.1/DTD/svg11.dtd">
<svg version="1.1" id="Capa_1" xmlns="http://www.w3.org/2000/svg" xmlns:xlink="http://www.w3.org/1999/xlink" x="0px" y="0px"
	 viewBox="0 0 49.906 49.906" style="enable-background:new 0 0 49.906 49.906;" xml:space="preserve">
<g>
	<path style="fill:#1D1D1B;" d="M49.843,5.991c-0.039-0.029-0.079-0.052-0.118-0.081c-0.098-0.43-0.244-0.841-0.472-1.215
		c-0.117-0.192-0.396-0.192-0.514,0c-0.047,0.077-0.094,0.154-0.141,0.231c-0.057,0.093-0.028,0.201,0.034,0.286
		c-1.771-1-3.718-1.465-5.815-1.398c-0.216,0.007-0.287,0.205-0.245,0.366c-0.571,0.267-1.005,0.772-1.168,1.374
		c-0.317-0.365-0.697-0.584-1.1-0.676c0.72-1.668-0.134-3.843-1.877-4.5c-1.845-0.695-3.65,0.472-4.314,2.141
		c-0.411-0.693-1.253-1.07-2.155-0.892c-1.001,0.197-1.605,0.998-2.007,1.894c-0.284-0.861-1.05-1.567-2.015-1.75
		c-1.818-0.345-3.156,1.14-3.834,2.641c-1.193-1.176-3.094-1.128-4.226-0.022c-0.15-0.214-0.319-0.414-0.527-0.58
		c-1.532-1.223-3.555-0.455-4.675,0.902c-0.363-1.614-1.777-2.981-3.579-2.676C9.595,2.292,8.688,3.597,8.6,4.984
		C7.809,4.397,6.735,4.179,5.803,4.552C5.65,4.613,5.51,4.696,5.374,4.784C3.657,4.305,1.83,4.92,0.726,6.254
		c0-0.05-0.005-0.098-0.005-0.149c0.001-0.318-0.48-0.316-0.492,0C0.217,6.41,0.226,6.704,0.231,6.999
		C0.155,7.144,0.067,7.281,0.007,7.436c-0.045,0.115,0.137,0.186,0.196,0.082c0.01-0.018,0.024-0.032,0.035-0.05
		c0.464,9.477,9.637,14.25,18.767,15.916C9.701,23.984,5.567,37.31,6.003,45.052c0.018,0.319,0.401,0.355,0.532,0.134
		c0.015,0.049,0.037,0.097,0.092,0.132c5.908,3.776,13.487,4.112,20.326,4.368c6.84,0.256,13.59-0.482,19.225-4.681
		c0.13-0.097,0.163-0.24,0.135-0.368c0.097,0.252,0.494,0.258,0.489-0.059c-0.157-9.07-4.282-19.915-14.432-20.957
		c4.855-0.861,9.412-2.975,12.787-6.713c1.983-2.196,5.167-7.115,4.637-10.653C49.901,6.236,49.957,6.076,49.843,5.991z
		 M5.418,5.387c0.089,0.025,0.179,0.037,0.268,0.068C5.959,5.55,6.093,5.239,5.975,5.04c0.01-0.004,0.018-0.01,0.027-0.014
		c1.019-0.388,1.994,0.019,2.648,0.758c0.03,0.177,0.062,0.354,0.121,0.525C8.82,6.449,8.993,6.427,9.038,6.32
		C9.053,6.348,9.073,6.372,9.088,6.4C8.642,6.556,8.199,6.719,7.762,6.861C7.531,6.936,7.627,7.297,7.863,7.227
		c1.011-0.299,2.104-0.524,3.072-0.944c0.224-0.097,0.055-0.414-0.157-0.373c-0.403,0.079-0.805,0.199-1.206,0.329
		C9.438,5.879,9.225,5.557,8.959,5.286c0.034-0.987,0.439-2.087,1.344-2.466c1.927-0.808,3.899,0.458,3.939,2.594
		c0.005,0.257,0.354,0.358,0.487,0.132c0.693-1.176,2.067-2.16,3.527-1.693c0.596,0.191,0.993,0.539,1.251,0.953
		c-0.144,0.21-0.271,0.439-0.362,0.699c-0.078,0.225,0.269,0.313,0.353,0.097c0.055-0.14,0.139-0.256,0.214-0.38
		c0.299,0.861,0.072,1.905-0.557,2.658c-0.146,0.175,0.048,0.498,0.264,0.342c1.099-0.794,1.265-2.32,0.675-3.48
		c1.053-1.023,2.917-1.073,3.879,0.213c0.133,0.178,0.372,0.148,0.453-0.059c0.363-0.923,0.858-1.801,1.819-2.202
		c1.361-0.566,3.643-0.052,3.267,2.074c-0.004,0.012-0.008,0.025-0.011,0.038c-1.134-0.142-2.334,0.063-3.298,0.547
		C26.01,5.451,26.18,5.721,26.37,5.639c1.952-0.838,3.567-0.366,5.328,0.61c0.213,0.118,0.445-0.166,0.264-0.342
		c-0.546-0.532-1.236-0.863-1.977-1.029c0.077-0.254,0.091-0.508,0.079-0.758c0.104-0.268,0.228-0.524,0.406-0.733
		c0.577-0.675,3.375-2.403,3.404,0.042c0.003,0.274,0.456,0.359,0.498,0.067c0.283-1.961,2.357-3.501,4.231-2.366
		c1.359,0.823,1.63,2.268,1.206,3.695c-1.546,0.018-3.051,1.632-1.779,3.422c0.085,0.12,0.272,0.017,0.2-0.117
		c-0.764-1.437,0.392-2.809,1.571-2.833c0.073,0.058,0.171,0.068,0.255,0.017c0.513,0.078,1.004,0.425,1.315,1.166
		c0.131,0.311,0.586,0.204,0.516-0.142c-0.446-2.216,2.319-2.005,3.11-0.891c0.426,0.601,0.517,1.267,0.564,1.978
		c-4.694,5.719-16.314,4.124-22.824,3.935c-6.122-0.178-12.866-0.106-18.264-3.246C4.235,7.161,4.664,6.017,5.418,5.387z
		 M46.276,44.542c-0.08-0.157-0.255-0.252-0.439-0.119c-5.596,4.057-12.142,4.79-18.884,4.538
		c-6.742-0.253-14.161-0.535-20.087-4.052c-0.109-0.064-0.203-0.024-0.269,0.046C6.833,37.273,9.994,24.738,19.323,23.6
		c0.08-0.01,0.116-0.079,0.11-0.141c3.358,0.577,6.691,0.741,9.564,0.563c0.869-0.054,1.733-0.148,2.591-0.276
		c0.005,0.088,0.062,0.177,0.173,0.189C42.412,25.007,45.195,35.649,46.276,44.542z M46.997,13.101
		c-1.113,1.987-2.64,3.751-4.388,5.205c-4.522,3.764-10.435,5.096-16.207,5.021C16.137,23.194,1.236,19.117,0.744,6.773
		c1.018-1.164,2.554-1.74,4.081-1.522c-0.238,0.265-0.432,0.57-0.564,0.904C3.992,6.836,4.038,7.387,4.243,7.979
		c-0.512-0.309-1.015-0.636-1.5-1.007C2.533,6.811,2.26,7.165,2.46,7.339c6.085,5.301,15.649,4.729,23.21,4.822
		c6.539,0.08,16.649,1.4,20.888-4.908c0.22-0.327-0.238-0.622-0.503-0.404c-0.083-0.889-0.487-1.804-1.166-2.357
		c1.592,0.221,3.115,0.76,4.527,1.587C49.285,8.156,47.459,12.275,46.997,13.101z"/>
	<path style="fill:#1D1D1B;" d="M15.23,37.361c-0.584-0.244-1.227-0.325-1.833-0.19c0.167-0.071,0.342-0.126,0.526-0.162
		c0.172-0.033,0.136-0.334-0.042-0.311c-1.773,0.231-3.018,2.011-2.77,3.772c0.04,0.285,0.128,0.538,0.238,0.773
		c0.539,3.057,4.563,4.366,6.575,1.642C19.691,40.493,17.819,37.476,15.23,37.361z M12.292,38.039
		c0.069,0.073,0.17,0.112,0.263,0.041c0.38-0.288,0.821-0.42,1.269-0.445c-0.088,0.146,0.016,0.38,0.22,0.312
		c0.286-0.095,0.564-0.136,0.837-0.153c0.578,0.209,1.099,0.597,1.426,1.134c0.848,1.391-0.198,2.842-1.599,3.23
		c-1.462,0.405-2.973-0.368-3.088-1.973C11.563,39.408,11.822,38.636,12.292,38.039z M17.348,42.894
		c-1.701,1.901-4.184,1.08-5.31-0.744c0.791,0.646,1.953,0.827,3.016,0.467c1.647-0.558,2.696-2.355,1.714-3.958
		c-0.147-0.24-0.332-0.451-0.535-0.642C18.013,38.762,18.922,41.136,17.348,42.894z"/>
	<path style="fill:#1D1D1B;" d="M19.625,30.015c-0.111-0.767-0.563-1.463-1.389-1.838c-0.906-0.411-2.06-0.352-2.897,0.171
		c-0.044-0.059-0.128-0.091-0.201-0.029c-0.606,0.52-0.92,1.249-0.962,2.001c-1.084,2.428,0.645,5.495,3.66,4.95
		C20.385,34.81,21.153,31.675,19.625,30.015z M17.917,28.499c0.554,0.213,0.914,0.585,1.111,1.023
		c-0.192-0.12-0.398-0.229-0.632-0.311c-0.202-0.071-0.348,0.265-0.148,0.35c0.379,0.161,0.689,0.389,0.944,0.654
		c0.04,0.626-0.179,1.294-0.647,1.821c-0.98,1.104-2.638,1.179-3.49-0.104c-0.375-0.565-0.523-1.27-0.442-1.938
		c0.082-0.147,0.175-0.29,0.282-0.428c0.057-0.074,0.006-0.163-0.061-0.182C15.542,28.434,16.783,28.063,17.917,28.499z
		 M17.84,34.824c-2.401,0.506-3.941-1.682-3.602-3.733c0.089,0.459,0.269,0.904,0.561,1.289c1.126,1.483,3.18,1.164,4.242-0.217
		c0.323-0.42,0.506-0.902,0.575-1.387C20.456,32.266,19.864,34.398,17.84,34.824z"/>
</g>
<g>
</g>
<g>
</g>
<g>
</g>
<g>
</g>
<g>
</g>
<g>
</g>
<g>
</g>
<g>
</g>
<g>
</g>
<g>
</g>
<g>
</g>
<g>
</g>
<g>
</g>
<g>
</g>
<g>
</g>
</svg>
