<?xml version="1.0" encoding="iso-8859-1"?>
<!-- Generator: Adobe Illustrator 18.0.0, SVG Export Plug-In . SVG Version: 6.00 Build 0)  -->
<!DOCTYPE svg PUBLIC "-//W3C//DTD SVG 1.1//EN" "http://www.w3.org/Graphics/SVG/1.1/DTD/svg11.dtd">
<svg version="1.1" id="Capa_1" xmlns="http://www.w3.org/2000/svg" xmlns:xlink="http://www.w3.org/1999/xlink" x="0px" y="0px"
	 viewBox="0 0 60.844 60.844" style="enable-background:new 0 0 60.844 60.844;" xml:space="preserve">
<g>
	<path style="fill:#1D1D1B;" d="M35.614,10.688c-0.602-0.131-1.171,0.098-1.57,0.503C33.98,9.5,32.5,7.85,30.838,7.605
		c-2.002-0.296-3.763,1.313-4.067,3.188c-0.442-1.087-1.742-1.979-2.817-1.327c-0.92,0.558-1.235,2.308-0.034,2.734
		c0.197,0.07,0.298-0.219,0.137-0.325c-0.715-0.47-0.456-1.695,0.307-1.998c0.479-0.19,1.032,0.05,1.383,0.379
		c0.431,0.404,0.567,0.906,0.699,1.459c0.01,0.044,0.039,0.064,0.063,0.091c-0.426,0.087-0.845,0.205-1.228,0.349
		c-0.175,0.066-0.106,0.343,0.078,0.285c1.016-0.32,1.925-0.251,2.963-0.222c0.255,0.007,0.314-0.39,0.061-0.449
		c-0.377-0.088-0.775-0.088-1.174-0.056c0-1.883,1.522-3.809,3.579-3.445c1.99,0.352,2.655,2.245,2.542,4.021
		c-0.013,0.197,0.232,0.307,0.387,0.227c0.093,0.001,0.185-0.039,0.203-0.146c0.124-0.742,0.879-1.365,1.647-1.098
		c0.778,0.271,0.805,0.999,0.788,1.687c-0.007,0.27,0.349,0.338,0.485,0.131C37.43,12.199,36.541,10.89,35.614,10.688z"/>
	<path style="fill:#1D1D1B;" d="M53.636,31.447c-1.536-2.067-5.719-1.222-7.882-0.463c-0.023-1.26-0.045-2.519-0.068-3.778
		c0.313-0.006,0.627-0.061,0.929-0.188c1.723-0.726,2.184-3.087,1.138-4.531c2.416-0.14,3.332-3.225,2.729-5.288
		c-0.601-2.056-2.532-3.697-4.607-3.801c2.286-0.832,3.764-3.515,2.931-5.951c-0.741-2.166-3.628-3.248-5.464-1.912
		c-0.279-0.919,0.177-1.949-0.436-2.825c-0.438-0.626-1.18-1.002-1.929-1.08c-1.181-0.122-2.515,0.666-3.159,1.748
		c-0.349-0.949-1.249-1.759-2.177-1.991c-1.351-0.338-2.738,0.396-3.395,1.57c-0.462-1.776-2.323-3.15-4.179-2.938
		c-1.688,0.192-2.922,1.539-3.255,3.102c-0.504-1.127-1.764-1.958-3.008-1.676c-0.811,0.184-1.424,0.765-1.75,1.475
		c-1.291-2.199-4.023-3.42-6.616-2.329c-2.732,1.149-3.62,4.327-2.269,6.626c-1.011-0.316-2.13-0.152-3.086,0.6
		c-1.805,1.42-1.938,3.962-1.112,5.949c0.058,0.139,0.97,1.448,0.966,1.673c-0.022,1.36-0.008-0.039-0.655,1.255
		c-0.409,0.818-0.891,1.482-0.884,2.455c0.014,1.867,1.256,3.074,2.863,3.49c-1.227,0.86-1.43,2.798-0.2,3.935
		c1.644,1.521,3.922,0.762,5.148-0.804c-0.078,7.321,0.295,14.683,0.676,21.959c0.225,4.298-0.317,12.081,5.537,12.338
		c-0.142,0.008-0.284,0.008-0.426,0.017c-0.258,0.015-0.258,0.384,0,0.401c5.984,0.401,12.167,0.437,18.165,0.243
		c2.79-0.09,5.597-0.488,7.107-3.104c0.984-1.704,1.135-3.954,1.063-6.191c1.922,0.594,5.452,1.378,7.068-0.26
		c0.743-0.753,0.541-1.518,0.676-2.438c0.362-2.459-0.001-5.291-0.005-7.786C54.063,38.506,55.167,33.506,53.636,31.447z
		 M37.385,25.055c-1.431-0.827-1.611-2.202-1.59-3.64c0.562,0.094,1.139,0.038,1.66-0.23c0.304-0.157,0.089-0.611-0.226-0.536
		c-0.513,0.121-1.005,0.177-1.472,0.139c-0.081-0.107-0.241-0.125-0.356-0.045c-0.569-0.115-1.093-0.403-1.558-0.938
		c-0.15-0.172-0.462,0.062-0.32,0.247c0.398,0.518,0.981,0.938,1.623,1.182c-0.028,0.075-0.032,0.155-0.053,0.231
		c-0.075-0.062-0.184-0.083-0.278,0.004c-0.487,0.558-1.073,0.953-1.759,1.184c-0.194,0.113-0.384,0.199-0.571,0.259
		c-0.062-0.354-0.626-0.356-0.591,0.021c0.002,0.024,0.004,0.047,0.006,0.071c-1.052,0.008-1.968-0.921-2.749-2.8
		c0.065-0.371-0.431-0.637-0.64-0.27c-1.656,2.906-5.578,1.646-5.407-1.608c0.023-0.443-0.666-0.442-0.689,0
		c-0.129,2.424,1.591,3.885,3.42,3.917c0.199,8.342,0.711,16.681,1.12,25.016c0.169,3.434-0.195,8.045,4.049,8.613
		c1.505,0.475,2.188-3.065,2.241-4.329c0.385-9.295,0.262-18.763-0.697-28.023c0.927-0.298,1.777-0.929,2.449-1.627
		c-0.155,1.566,0.973,3.321,2.331,3.936c1.135,0.514,2.421,0.385,3.467-0.19c0.245,3.699,1.19,27.707-0.992,29.716
		c-4.197-3.418-2.843-10.969-2.858-15.804c-0.014-4.502,0.271-9.105-0.339-13.571c-0.004-0.026-0.039-0.015-0.041,0.006
		c-0.858,6.622-0.283,13.675-0.216,20.348c0.035,3.458,0.088,6.898,2.81,9.257c-0.033,0.093-0.007,0.214,0.113,0.262
		c3.044,1.207,2.52-5.215,2.618-6.577c0.578-7.982,0.444-16.039-0.537-23.984c-0.001-0.006-0.004-0.01-0.005-0.017
		c0.256-0.2,0.496-0.421,0.696-0.68c0.156-0.119,0.308-0.243,0.46-0.372c-0.028,0.791,0.482,1.633,1.034,2.137
		c0.394,0.36,0.877,0.626,1.39,0.759c0.144,8.294,0.64,16.672,0.406,24.959c-0.121,4.274,0.031,6.617-6.442,7.869
		c-1.67,0.323-3.623,0.019-5.337,0.016c-4.19-0.006-8.399-0.111-12.585,0.087c0.286-0.16,0.231-0.688-0.175-0.69
		c-6.863-0.039-5.432-17.462-5.565-21.998c-0.178-6.048-0.083-12.106-0.293-18.152c0.128,0.066,0.256,0.125,0.38,0.171
		c0.687,0.257,1.425,0.234,2.088-0.009c0.04,8.209,0.349,16.425,0.564,24.631c0.11,4.2-0.862,9.909,3.572,12.153
		c0.063,0.032,0.123,0.031,0.174,0.012c2.322,1.347,1.817-6.037,1.799-6.513c-0.399-10.097-0.799-20.194-1.228-30.29
		c0.069-0.227,0.111-0.463,0.096-0.706c-0.017-0.276-0.427-0.281-0.432,0c-0.003,0.144-0.033,0.284-0.075,0.421
		c-0.092,0.037-0.169,0.105-0.164,0.237c0.002,0.04,0.003,0.08,0.005,0.12c-0.343,0.583-1.02,0.958-1.716,0.708
		c-0.904-0.326-0.84-1.126-1.001-1.883c-0.053-0.25-0.369-0.236-0.495-0.065c-0.055,0.075-0.078,0.157-0.112,0.237
		c-0.077-0.047-0.176-0.064-0.266,0.009c-0.785,0.642-1.835,0.625-2.734,0.226c-0.215-0.095-0.391-0.207-0.543-0.331
		c-0.009-0.01-0.017-0.017-0.028-0.025c-0.378-0.323-0.591-0.74-0.818-1.22c0.503-0.154,0.998-0.323,1.455-0.544
		c0.261-0.126,0.066-0.487-0.186-0.44c-1.113,0.206-2.233,0.725-3.303,1.093c-0.28,0.096-0.164,0.537,0.123,0.448
		c0.412-0.129,0.841-0.246,1.272-0.367c0.069,0.638,0.513,1.205,1.064,1.608c-0.115,2.062-0.175,4.132-0.206,6.204
		c-0.982,1.155-2.439,2.093-3.979,1.39c-1.577-0.719-1.764-2.964-0.07-3.504c0.063,0.163,0.137,0.325,0.231,0.482
		c0.175,0.294,0.609,0.035,0.455-0.266c-0.085-0.167-0.144-0.338-0.191-0.51c0.042-0.129,0.016-0.286-0.075-0.382
		c-0.03-0.295-0.007-0.595,0.072-0.898c0.108-0.418-0.561-0.593-0.641-0.177c-0.069,0.361-0.074,0.714-0.028,1.059
		c-0.076,0.02-0.136,0.062-0.208,0.088c-2.513-0.848-3.801-4.334-0.876-6.156c0.198-0.123,0.199-0.351,0.067-0.52
		c-0.988-1.259-1.754-2.534-1.694-4.191C7.089,10.737,7.25,10.055,7.77,9.462c0.631-1.785,2.1-2.034,4.386-0.785
		c-0.289,0.513-0.443,1.104-0.395,1.634c0.024,0.268,0.431,0.278,0.425,0c-0.009-0.496,0.139-0.974,0.42-1.38
		c0.22,0.073,0.451-0.179,0.373-0.419c0.319-0.266,0.687-0.415,1.087-0.582c0.249-0.105,0.248-0.511-0.069-0.508
		c-0.546,0.005-1.023,0.266-1.398,0.65c-0.158-0.154-0.327-0.29-0.502-0.41c-1.725-2.243-0.891-5.715,2.086-6.557
		c2.642-0.747,4.686,0.812,5.613,3.016c0.009,0.442,0.122,0.884,0.377,1.277c0.004,0.006,0.012,0.006,0.017,0.012
		c0.023,0.111,0.048,0.221,0.066,0.333c0.051,0.322,0.561,0.238,0.559-0.076c-0.004-0.726-0.154-1.415-0.413-2.046
		c0.21-0.674,0.678-1.261,1.374-1.48c1.579-0.498,2.698,1.127,2.602,2.509c-0.002,0.033,0.02,0.05,0.027,0.078
		c-0.329,0.077-0.638,0.209-0.869,0.377c-0.228,0.165-0.024,0.539,0.225,0.385c0.345-0.213,0.731-0.326,1.138-0.303
		c0.386,0.023,0.684,0.22,1.043,0.329c0.239,0.073,0.364-0.221,0.226-0.388c-0.252-0.303-0.63-0.433-1.032-0.459
		c0-0.008,0.008-0.012,0.007-0.02c-0.174-1.758,0.92-3.57,2.72-3.953c2.161-0.46,3.666,1.465,3.961,3.354
		c0.05,0.32,0.521,0.219,0.539-0.073c0.009-0.151-0.018-0.296-0.03-0.443c0.073,0.003,0.145-0.018,0.192-0.107
		c0.556-1.045,1.749-1.737,2.945-1.425c1.222,0.318,1.599,1.332,1.85,2.407c-0.015-0.002-0.029-0.007-0.044-0.008
		c-0.417-0.044-0.6,0.063-0.98,0.142c-0.129,0.027-0.101,0.24,0.031,0.231c0.435-0.027,1.029,0.14,1.427,0.296
		c0.55,0.215,0.973,0.58,1.326,1.047c0.235,0.312,0.767,0.023,0.537-0.314c-0.366-0.536-0.884-0.939-1.485-1.184
		c-0.06-0.025-0.122-0.04-0.182-0.061c0.865-1.194,1.633-2.767,3.458-2.167c1.784,0.587,0.929,2.263,1.546,3.48
		c-0.064,0.066-0.131,0.126-0.192,0.2c-0.259,0.316,0.154,0.755,0.457,0.457c1.657-1.627,4.471-0.797,5.015,1.472
		c0.599,2.499-1.367,5.137-3.93,5.217c-0.268,0.008-0.275,0.377-0.037,0.427c-0.131,0.048-0.263,0.097-0.392,0.16
		c-0.209-0.25-0.428-0.491-0.664-0.715c-0.294-0.28-0.747,0.184-0.443,0.443c0.855,0.725,1.51,1.563,2.04,2.549
		c0.103,0.192,0.446,0.058,0.36-0.152c-0.231-0.563-0.531-1.096-0.883-1.593c2.284-0.485,4.386,0.32,5.345,2.631
		c0.783,1.887,0.341,5.094-2.267,5.108c-0.222-0.054-0.442,0.233-0.251,0.447c0.954,1.068,0.645,3.044-0.677,3.698
		c-0.275,0.136-0.568,0.189-0.859,0.181c-0.121-0.128-0.324-0.152-0.476-0.072c-0.366-0.097-0.712-0.284-0.997-0.54
		c-0.706-0.635-0.712-1.311-0.885-2.17c-0.051-0.252-0.429-0.29-0.546-0.071c-0.053,0.099-0.087,0.203-0.116,0.307
		c-0.07-0.091-0.184-0.147-0.287-0.114c-0.077-0.017-0.161-0.006-0.221,0.078C41.015,25.255,39.007,25.993,37.385,25.055z
		 M30.651,55.227c-0.214-0.063-0.412-0.158-0.601-0.269c-0.004-0.003-0.008-0.004-0.012-0.008l0,0
		c-3.83-2.254-2.809-13.738-2.975-17.05c-0.262-5.224-0.495-10.451-0.884-15.668c0.81-0.066,1.619-0.41,2.28-1.089
		c0.153,1.013,0.782,1.878,1.84,2.32c0.56,0.235,1.117,0.271,1.657,0.192c0.449,5.007,0.714,10.012,0.772,15.041
		c0.031,2.635,0.015,5.27-0.01,7.905C32.712,47.071,32.909,55.588,30.651,55.227z M18.504,44.989
		c-0.07-2.963-0.139-5.926-0.215-8.889c-0.143-5.596-0.22-11.199-0.472-16.791c-0.002-0.044-0.026-0.069-0.046-0.099
		c0.184-0.099,0.368-0.202,0.53-0.341c0.008,0.885,0.956,1.84,1.732,1.982c0.66,0.12,1.278-0.134,1.716-0.577
		c0.229,5.685,0.473,11.37,0.712,17.055c0.119,2.844,0.239,5.688,0.358,8.532c0.053,1.264,0.105,2.528,0.159,3.792
		c-0.004-0.099,0.447,6.364-1.192,6.164c-0.012-0.011-0.012-0.027-0.028-0.036c-1.634-0.901-2.888-5.049-3.16-6.841
		C18.405,47.677,18.534,46.268,18.504,44.989z M53.243,47.179c0.405,2.031-0.621,3.376-3.079,4.036
		c-1.283-0.014-2.544-0.175-3.785-0.482c-0.029-0.006-0.053-0.001-0.08-0.001c-0.038-0.735-0.092-1.46-0.143-2.159
		c1.328,0.416,2.923,0.721,3.98-0.393c1.43-1.507,0.883-4.873,0.912-6.672c0.031-1.937,0.805-5.456-0.554-7.099
		c-1.069-1.293-3.066-0.975-4.448-0.446c-0.378,0.144-0.232,0.67,0.166,0.603c0.665-0.118,1.334-0.215,2.006-0.292
		c1.641,0.746,2.341,1.866,2.098,3.358c0.197,1.217-0.007,2.64-0.024,3.875c-0.018,1.288,0.002,2.589-0.08,3.875
		c-0.161,2.532-2.015,3.067-4.093,2.638c-0.044-0.636-0.082-1.25-0.091-1.813c-0.085-4.874-0.174-9.749-0.262-14.623
		c1.193-0.4,2.426-0.602,3.703-0.583c2.979,0.245,4.242,1.484,3.787,3.72c0.404,1.862-0.008,4.317-0.01,6.229
		C53.243,42.89,53.616,45.28,53.243,47.179z"/>
</g>
<g>
</g>
<g>
</g>
<g>
</g>
<g>
</g>
<g>
</g>
<g>
</g>
<g>
</g>
<g>
</g>
<g>
</g>
<g>
</g>
<g>
</g>
<g>
</g>
<g>
</g>
<g>
</g>
<g>
</g>
</svg>
