<?xml version="1.0" encoding="iso-8859-1"?>
<!-- Generator: Adobe Illustrator 18.0.0, SVG Export Plug-In . SVG Version: 6.00 Build 0)  -->
<!DOCTYPE svg PUBLIC "-//W3C//DTD SVG 1.1//EN" "http://www.w3.org/Graphics/SVG/1.1/DTD/svg11.dtd">
<svg version="1.1" id="Capa_1" xmlns="http://www.w3.org/2000/svg" xmlns:xlink="http://www.w3.org/1999/xlink" x="0px" y="0px"
	 viewBox="0 0 45.638 45.638" style="enable-background:new 0 0 45.638 45.638;" xml:space="preserve">
<g>
	<path style="fill:#1D1D1B;" d="M42.776,9.819c-0.187-4.634-5.186-7.168-9.574-5.727c-1.451,0.477-2.709,1.277-3.777,2.286
		c0.062-0.159,0.022-0.36-0.181-0.405c-2.825-0.628-5.847-0.83-8.751-1.033c0.034-0.093,0.028-0.201-0.049-0.313
		C17.81,0.802,13.041-1.128,8.589,0.691c-5.26,2.15-6.607,7.441-5.998,12.642c0.021,0.181,0.174,0.267,0.316,0.261
		c1.498,9.617,4.641,19.245,7.676,28.47c0.144,0.438,0.833,0.254,0.695-0.192C8.384,32.538,6.302,22.984,3.504,13.64
		c0.046,0.01,0.095,0.017,0.148-0.006c0.011-0.005,0.022-0.01,0.033-0.015c7.149,1.707,14.379,3.293,21.619,4.569
		c0.007,0.066,0.008,0.133,0.016,0.199c0.03,0.255,0.32,0.328,0.473,0.213c-0.006,0.025-0.02,0.042-0.021,0.071
		c-0.142,8.733,0.073,17.527,0.875,26.227c-0.015-0.005-0.025-0.014-0.041-0.017c-5.217-0.993-10.46-1.888-15.741-2.47
		c-0.303-0.033-0.375,0.483-0.072,0.535c5.204,0.891,10.416,1.714,15.607,2.684c0.161,0.03,0.287-0.035,0.373-0.134
		c0.16,0.168,0.494,0.124,0.482-0.17c-0.002-0.054-0.004-0.108-0.007-0.163c0.05,0.002,0.103-0.003,0.157-0.027
		c4.285-1.868,8.875-3.946,12.686-6.674c0.225-0.161,0.18-0.428,0.016-0.549c2.059-2.069,1.171-5.885,1.266-8.624
		c0.217-6.272,0.962-12.458,1.566-18.696c0.011-0.005,0.022-0.011,0.033-0.017C43.373,10.377,43.142,9.85,42.776,9.819z
		 M3.646,13.121c-0.139-0.024-0.278-0.05-0.417-0.074c-0.036-0.006-0.064,0.002-0.092,0.011C2.976,8.746,3.623,4.405,7.695,2.016
		C11.914-0.459,16.94,1.111,19.69,4.94c-0.018,0.012-0.045,0.009-0.059,0.025c-0.007,0.003-0.014,0.002-0.021,0.006
		C14.267,7.623,8.834,10.175,3.646,13.121z M25.245,17.449c-6.866-1.616-13.836-2.966-20.785-4.183
		c5.27-2.334,10.393-5.039,15.537-7.63c0.089-0.045,0.137-0.109,0.165-0.178c2.947,0.505,6.025,1.057,9,1.12
		c0.042,0.001,0.066-0.026,0.1-0.039C26.455,9.302,25.052,13.573,25.245,17.449z M26.244,17.677
		c-0.122-0.029-0.246-0.055-0.368-0.084c-0.051-3.964,1.247-7.92,4.205-10.695c3.933-3.69,11.808-2.877,11.865,3.258
		c-5.172,2.546-10.37,5.057-15.472,7.741C26.449,17.797,26.381,17.71,26.244,17.677z M40.899,22.669
		c-0.157,2.205-0.278,4.411-0.35,6.62c-0.078,2.376,0.558,6.531-0.925,8.665c-4.201,2.007-8.235,4.453-12.405,6.546
		c-0.367-8.615-0.693-17.203-0.741-25.83c0-0.065-0.018-0.118-0.042-0.165c0.094,0.056,0.211,0.076,0.335,0.018
		c5.104-2.374,10.133-4.92,15.17-7.433c0.024,0.117,0.096,0.197,0.194,0.234C41.521,15.079,41.17,18.877,40.899,22.669z"/>
</g>
<g>
</g>
<g>
</g>
<g>
</g>
<g>
</g>
<g>
</g>
<g>
</g>
<g>
</g>
<g>
</g>
<g>
</g>
<g>
</g>
<g>
</g>
<g>
</g>
<g>
</g>
<g>
</g>
<g>
</g>
</svg>
