<?xml version="1.0" encoding="iso-8859-1"?>
<!-- Generator: Adobe Illustrator 18.0.0, SVG Export Plug-In . SVG Version: 6.00 Build 0)  -->
<!DOCTYPE svg PUBLIC "-//W3C//DTD SVG 1.1//EN" "http://www.w3.org/Graphics/SVG/1.1/DTD/svg11.dtd">
<svg version="1.1" id="Capa_1" xmlns="http://www.w3.org/2000/svg" xmlns:xlink="http://www.w3.org/1999/xlink" x="0px" y="0px"
	 viewBox="0 0 56.609 56.609" style="enable-background:new 0 0 56.609 56.609;" xml:space="preserve">
<g>
	<path style="fill:#1D1D1B;" d="M52.44,14.297C45.443,2.89,31.239-1.24,19.132,3.991c-0.053-0.078-0.139-0.131-0.27-0.117
		C6.729,5.194-0.242,16.449,0.006,28.018c0.262,12.235,6.759,23.099,19.11,25.899c10.367,2.35,24.188,0.471,31.757-7.64
		C58.476,38.132,58.019,23.393,52.44,14.297z M39.17,52.23c-12.02,3.683-28.12,2.28-34.729-9.886
		C-2.915,28.804,0.917,7.096,18.437,4.631c0.057,0.084,0.144,0.145,0.255,0.099C31.733-0.669,46.94,4.078,53.103,17.19
		c2.957,6.292,3.403,14.463,1.382,21.119C52.275,45.589,46.207,50.074,39.17,52.23z"/>
	<path style="fill:#1D1D1B;" d="M45.944,22.946c-0.124-0.293-0.334-0.527-0.59-0.674c0.235-0.134,0.438-0.341,0.55-0.562
		c0.301-0.593,0.013-1.313-0.555-1.623c-0.912-0.497-2.608,0.7-2.032,1.543c-0.923-0.301-2.035-0.594-3.001-0.637
		c0.126-0.212,0.163-0.479,0.035-0.752c-0.352-0.753-1.393-0.743-1.894-0.203c-0.04-1.637-1.76-2.771-3.376-3.167
		c0.407-0.296,0.562-0.806,0.4-1.292c-0.004-0.013-0.011-0.026-0.016-0.038c1.384,0.162,2.764,0.42,4.146,0.561
		c-0.694,1.674,1.161,3.611,2.913,2.719c0.771-0.393,1.168-1.327,0.968-2.163c-0.111-0.465-0.376-0.785-0.714-1.019
		c0.301-0.065,0.586-0.19,0.804-0.364c0.722-0.577,0.783-1.61,0.292-2.358c-0.647-0.986-1.819-0.872-2.797-0.507
		c-0.593,0.221-1.494,0.736-1.29,1.401c-1.323-0.311-2.665-0.532-4.015-0.694c0.129-0.312,0.113-0.671-0.151-0.97
		c-0.278-0.315-0.94-0.404-1.399-0.232c0.075-1.46-0.784-2.78-2.174-3.444c-2.005-0.959-4.161-0.408-6.133,0.333
		c-0.143-0.737-0.803-1.361-1.711-1.362c-1.116-0.001-2.467,1.546-1.29,2.282c-0.579,0.39-1.078,0.914-1.594,1.382
		c-0.48,0.435-1.016,0.862-1.462,1.343c-0.321-0.512-0.972-0.87-1.541-0.664c-0.819,0.297-1.054,1.496-0.457,2.087
		c-2.578-0.797-5.451,0.118-7.154,2.246c-1.578,1.971-2.486,6.024-0.738,8.189c-0.755,0.357-1.293,1.018-1.386,1.877
		c-0.084,0.781,0.229,1.694,0.917,2.104c-0.517,0.175-0.835,0.813-0.478,1.313c0.261,0.366,0.73,0.419,1.115,0.264
		c-0.303,0.932-0.588,2.119-0.376,3.094c0.011,0.049,0.039,0.073,0.065,0.099c-0.901-0.383-2.063,0.619-1.478,1.555
		c0.437,0.7,1.404,0.582,1.889,0.036c0.671,0.761,1.842,1.094,2.567,0.143c0.628-0.824-0.093-2.153-1.111-1.877
		c0.102-0.396,0.088-0.835,0.115-1.238c0.03-0.447,0.057-0.893,0.085-1.34c0.262,0.452,0.897,0.611,1.305,0.353
		c0.282,0.452,0.658,0.835,1.14,1.098c0.006,0.003,0.012,0,0.018,0.003c-1.097,0.099-1.294,1.613-0.403,2.181
		c0.464,0.296,1.07,0.271,1.565,0.033c-0.18,1.489-0.283,3.07-0.09,4.545c-0.039-0.055-0.098-0.098-0.184-0.085
		c-0.99,0.144-1.951,1.503-1.146,2.412c0.695,0.785,1.679-0.084,2.147-0.849c0.912,0.992,2.566,1.305,3.313-0.129
		c0.608-1.167-0.492-2.51-1.707-2.132c0.004-0.013,0.017-0.022,0.018-0.036c0.144-1.268,0.034-2.592,0.079-3.879
		c0.054-0.118,0.1-0.241,0.127-0.368c0.371,0.515,1.144,0.756,1.681,0.3c0.4-0.34,0.485-1.186,0.19-1.68
		c1.844-0.708,3.314-2.765,3.102-4.769c1.064,0.524,2.289,0.683,3.518,0.255c0.233-0.081,0.21-0.456-0.061-0.449
		c-1.627,0.042-3.119-0.013-4.428-1.138c-1.023-0.88-1.597-2.099-1.826-3.409c0.732-1.308,1.138-2.797,1.125-4.287
		c0.96-0.587,1.924-0.696,3.042-0.543c0.142,0.019,0.241-0.062,0.278-0.162c1.081,0.778,2.394,1.189,3.693,1.183
		c0.011,0.013,0.011,0.029,0.027,0.04c1.817,1.274,2.615,3.582,1.79,5.669c-0.046,0.115-0.012,0.205,0.054,0.265
		c-0.02,0.165,0.104,0.34,0.31,0.287c0.441-0.114,0.957,0.296,0.704,0.769c-0.096,0.179-0.265,0.275-0.45,0.324
		c-0.013-0.016-0.027-0.029-0.039-0.045c-0.086-0.11-0.242-0.034-0.282,0.076c-0.152-0.01-0.302-0.041-0.427-0.11
		c-0.051-0.029-0.097-0.026-0.136-0.01c-0.022-0.005-0.046-0.015-0.068-0.019c-0.168-0.027-0.365,0.192-0.192,0.329
		c0.292,0.23,1.574,0.939,0.741,1.323c-0.358,0.165-0.807-0.095-1.186-0.303c-0.077-0.171-0.17-0.333-0.292-0.464
		c-0.171-0.183-0.408,0.016-0.379,0.221c0.079,0.553,0.698,1.627-0.282,1.756c-0.802,0.106-1.172-0.858-1.246-1.491
		c-0.02-0.173-0.251-0.174-0.271,0c-0.117,1.027,0.485,2.286,1.717,2.038c0.575-0.116,0.857-0.552,0.915-1.052
		c0.492,0.327,0.982,0.657,1.453,1.014c0.454,0.343,0.888,0.745,1.358,1.076c-1.409,0.666-1.382,2.841,0.235,3.353
		c1.479,0.469,2.717-0.98,2.347-2.275c0.622,0.193,1.3,0.152,1.812-0.33c0.563-0.53,0.777-1.444,0.498-2.165
		c-0.539-1.395-2.621-1.365-3.322-0.176c-0.976-0.702-1.852-1.462-2.631-2.367c0.348-0.111,0.639-0.36,0.724-0.765
		c0.128-0.608-0.44-1.292-1.043-1.307c0.257-0.703,0.322-1.442,0.246-2.16c0.61,1.284,1.707,2.347,3.165,2.545
		c1.448,0.197,2.976-0.544,3.498-1.918c0.088,0.318,0.215,0.616,0.485,0.846c0.328,0.28,0.786,0.347,1.183,0.174
		c0.503-0.219,0.602-0.651,0.475-1.052c0.997,0.215,2.062,0.466,3.079,0.526c-0.008,0.011-0.022,0.011-0.029,0.024
		c-0.299,0.58,0.024,1.164,0.554,1.472c0.619,0.359,1.381,0.239,1.929-0.198C45.941,24.287,46.215,23.586,45.944,22.946z
		 M31.176,27.177c0.697,0.857,1.514,1.63,2.432,2.231c0.041,0.232,0.379,0.285,0.488,0.026c0.426-1.012,2.167-1.316,2.485-0.047
		c0.124,0.494-0.019,1.065-0.39,1.421c-0.446,0.427-1.088,0.388-1.651,0.216c-0.047-0.067-0.094-0.134-0.153-0.199
		c-0.202-0.222-0.589,0.069-0.42,0.324c0.646,0.97,0.009,2.469-1.29,2.117c-1.306-0.354-1.189-2.092-0.025-2.544
		c0.17,0.016,0.297-0.192,0.166-0.34c-0.882-0.995-2.261-1.719-3.425-2.375c-0.004-0.046,0.004-0.091-0.004-0.137
		c0.53,0.348,1.204,0.55,1.618,0.005C31.183,27.645,31.222,27.405,31.176,27.177z M35.635,13.367
		c1.427,0.307,2.844,0.644,4.262,0.993c0.122,0.03,0.203-0.032,0.258-0.113c0.134-0.014,0.243-0.195,0.13-0.335
		c-0.545-0.675,1.345-1.16,1.678-1.214c0.743-0.121,1.418,0.143,1.631,0.915c0.156,0.565-0.062,1.105-0.59,1.368
		c-0.528,0.263-0.942,0.108-1.444-0.105c-0.183-0.078-0.354,0.05-0.351,0.209c-0.167,0.003-0.228,0.236-0.049,0.295
		c0.646,0.216,1.495,0.484,1.749,1.193c0.222,0.619-0.025,1.377-0.607,1.699c-0.641,0.355-1.527,0.153-1.947-0.448
		c-0.411-0.588-0.325-1.264-0.082-1.893c0.097-0.252-0.219-0.375-0.399-0.242c-1.181-0.341-2.504-0.443-3.766-0.443
		c0.239-0.189,0.403-0.475,0.379-0.836c-0.035-0.532-0.408-0.901-0.856-1.036C35.633,13.372,35.633,13.369,35.635,13.367z
		 M21.473,11.612c0.587-0.517,1.258-1.01,1.755-1.616c0.057-0.07,0.052-0.157,0.02-0.23c0.014-0.028,0.019-0.059-0.005-0.094
		C22.96,9.404,23.012,9.1,23.399,8.761c0.019-0.587,0.288-0.843,0.806-0.77c0.868,0.042,1.635,0.997,0.928,1.783
		c-0.171,0.191-0.045,0.462,0.2,0.483c0.719,0.062,1.369,0.362,1.844,0.911c0.278,0.321,0.486,1.176,0.182,1.525
		c-0.584,0.672-2.032-0.215-2.087-0.784c-0.018-0.188-0.165-0.266-0.303-0.25c-0.042-0.109-0.2-0.168-0.311-0.077
		c-0.596,0.49-1.081,1.16-1.592,1.74c-0.365,0.415-0.727,0.833-1.088,1.251c-0.074-0.015-0.148-0.029-0.224-0.03
		c0.314-0.42,0.397-1.119,0.113-1.493c-0.466-0.611-1.392-0.478-1.808,0.082c0.006-0.102-0.005-0.205-0.029-0.306
		C20.417,12.519,21.348,11.722,21.473,11.612z M11.853,34.77c-0.625,0.181-1.096-0.234-1.396-0.74
		c-0.122-0.205-0.429-0.157-0.497,0.065c-0.081,0.264-0.536,0.622-0.852,0.438c-0.12-0.207-0.24-0.415-0.36-0.622
		c0.164-0.448,0.48-0.629,0.948-0.543c0.159,0.04,0.271-0.169,0.168-0.273c0.127,0.064,0.321-0.028,0.339-0.198
		c0.051-0.463-0.008-0.94,0.023-1.407c0.029-0.444,0.099-0.883,0.186-1.318c0.145,0.236,0.358,0.417,0.665,0.453
		c0.157,0.019,0.316-0.014,0.459-0.08c-0.046,0.338-0.093,0.677-0.138,1.015c-0.068,0.508-0.212,1.044-0.122,1.552
		c0.014,0.08,0.067,0.112,0.126,0.122c0.014,0.098,0.079,0.182,0.214,0.169C12.623,33.309,12.748,34.512,11.853,34.77z
		 M12.953,30.191c-0.096,0.099-0.208,0.172-0.37,0.163c-0.335-0.02-0.502-0.336-0.488-0.632c0.005-0.106-0.091-0.154-0.179-0.146
		c-0.126-0.1-0.338-0.034-0.352,0.162c-0.032,0.425-0.471,0.464-0.711,0.177c-0.151-0.18-0.161-0.423-0.15-0.646
		c0.012-0.247-0.373-0.365-0.482-0.131c-0.126,0.273-0.521,0.428-0.773,0.201c-0.34-0.307,0.045-0.846,0.388-0.904
		c0.045-0.008,0.062-0.04,0.067-0.076c0.04-0.049,0.056-0.12,0.019-0.177c-0.39-0.596-0.832-1.088-0.818-1.848
		c0.014-0.75,0.453-1.39,1.051-1.812c0.732,0.777,1.739,1.303,2.826,1.569C12.441,27.266,12.391,28.906,12.953,30.191z
		 M17.858,38.279c1.408-0.298,1.67,1.621,0.397,1.984c-0.784,0.223-1.444-0.318-1.81-0.938c-0.133-0.226-0.461-0.167-0.539,0.07
		c-0.105,0.321-0.906,1.7-1.468,0.866c-0.357-0.529,0.504-1.316,0.907-1.441c0.086-0.027,0.114-0.088,0.12-0.151
		c0.083,0.197,0.412,0.119,0.425-0.106c0.094-1.581-0.001-3.207-0.016-4.796c0.025-0.02,0.056-0.032,0.08-0.053
		c0.042,0.545,0.292,1.022,0.993,0.945c0.245-0.027,0.449-0.145,0.624-0.3c-0.198,1.131-0.338,2.339-0.141,3.431
		c0.016,0.088,0.069,0.126,0.129,0.143C17.492,38.096,17.651,38.322,17.858,38.279z M22.583,27.075
		c-0.109,1.063-0.26,1.972-0.875,2.884c-0.273,0.405-0.609,0.774-0.99,1.082c-0.093,0.075-1.213,0.837-1.24,0.64
		c-0.028-0.203-0.313-0.128-0.332,0.045c-0.003,0.026-0.003,0.04-0.006,0.061c-0.095,0.082-0.118,0.232-0.021,0.342
		c0.285,0.322,0.657,0.641,0.361,1.124c-0.37,0.604-1.241,0.049-1.256-0.514c-0.004-0.14-0.116-0.184-0.216-0.159
		c-0.015-0.04-0.024-0.083-0.043-0.12c-0.083-0.161-0.321-0.11-0.369,0.048c-0.166,0.538,0.108,1.283-0.55,1.581
		c-0.668,0.302-0.742-0.476-0.71-0.979c0.053-0.163,0.085-0.336,0.066-0.525c-0.019-0.189-0.273-0.293-0.38-0.103
		c-0.325,0.578-0.63,1.352-1.461,1.184c-0.873-0.177-0.992-1.372-0.055-1.56c0.166-0.034,0.145-0.252,0.014-0.311
		c0.131-0.043,0.228-0.187,0.138-0.329c-0.508-0.804-1.096-1.418-1.357-2.37c-0.261-0.951-0.239-1.994-0.002-2.948
		c1.644,0.32,3.415,0.062,4.651-0.882c0.769-0.587,1.416-1.319,1.948-2.127C20.179,24.738,21.21,26.219,22.583,27.075z
		 M20.824,16.409c0,0,0.001,0.001,0.001,0.001c-0.05,0.035-0.088,0.084-0.078,0.161c0.669,5.405-4.26,12.283-9.639,7.445
		c-1.527-1.374-1.635-2.561-1.244-4.546c0.255-1.291,0.764-2.475,1.686-3.428c1.72-1.777,4.189-2.277,6.552-1.884
		c0.104,0.017,0.157-0.084,0.119-0.154c0.037-0.047,0.045-0.118-0.005-0.172c-0.392-0.425-0.374-1.269,0.2-1.549
		c0.361-0.176,0.765,0.043,0.976,0.347c0.204,0.294,0.153,0.56,0.119,0.891c-0.018,0.173,0.247,0.286,0.357,0.148
		c0.038-0.047,0.049-0.099,0.076-0.149c0.066,0.082,0.214,0.109,0.27-0.006c0.227-0.465,0.998-0.655,1.305-0.156
		c0.149,0.242,0.098,0.536-0.062,0.764c-0.157,0.224-0.362,0.24-0.577,0.367c-0.151,0.089-0.114,0.312,0.048,0.363
		c0.101,0.032,0.195,0.035,0.285,0.026c0.037,0.054,0.095,0.094,0.169,0.069c0.095-0.032,0.197-0.037,0.299-0.03
		c-0.054,0.064-0.111,0.125-0.164,0.189c-0.094,0.112,0.051,0.261,0.162,0.161c0.101-0.091,0.191-0.192,0.29-0.285
		c0.47,0.179,0.831,0.675,0.417,1.127c-0.413,0.45-0.845,0.163-1.301,0.04C20.927,16.108,20.783,16.254,20.824,16.409z
		 M21.353,17.838c-0.023-0.34-0.061-0.679-0.13-1.015c0.229,0.098,0.506,0.122,0.73,0.083c0.428-0.073,0.836-0.347,1.003-0.757
		c0.05-0.124,0.07-0.246,0.074-0.366c0.322,0.552,0.731,1.025,1.191,1.432C23.238,16.992,22.178,17.272,21.353,17.838z
		 M22.816,15.053c-0.018-0.031-0.044-0.035-0.069-0.03c-0.127-0.146-0.284-0.269-0.462-0.351c0.394-0.379,0.792-0.752,1.169-1.147
		c0.43-0.45,0.902-0.901,1.28-1.406c0.084,1.522,2.527,1.938,3.344,0.703c0.902-1.363-1.013-2.684-2.285-3.04
		c0.114-0.23,0.155-0.469,0.152-0.703c1.42-0.342,2.881-0.684,4.344-0.487c2.054,0.276,3.859,1.837,3.25,4.071
		c-0.094,0.344,0.425,0.484,0.532,0.147c0.012-0.039,0.014-0.077,0.025-0.116c0.296-0.247,0.531-0.557,0.983-0.348
		c0.326,0.15,0.347,0.447,0.222,0.708c-0.049-0.005-0.098-0.015-0.147-0.02c-0.126-0.013-0.153,0.195-0.03,0.221
		c0.011,0.002,0.021,0.005,0.032,0.007c-0.021,0.024-0.035,0.054-0.059,0.075c-0.183,0.024-0.358,0.091-0.517,0.203
		c-0.017-0.001-0.034,0.005-0.051,0.002c-0.123-0.02-0.192,0.098-0.159,0.185c-0.126,0.182,0.065,0.455,0.278,0.322
		c0.469-0.292,1.197-0.379,1.335,0.333c0.098,0.505-0.361,0.834-0.795,0.725c-0.211-0.209-0.497-0.316-0.804-0.186
		c-0.168,0.071-0.089,0.299,0.046,0.35c0.248,0.094,0.449,0.179,0.552,0.447c0.117,0.305,0.031,0.627-0.261,0.796
		c-0.504,0.293-1.413-0.028-1.53-0.612c-0.002-0.028-0.006-0.051-0.018-0.076c-0.006-0.086,0.002-0.176,0.034-0.272
		c0.021-0.064-0.063-0.137-0.121-0.093c-0.104,0.077-0.166,0.17-0.202,0.27c-0.016,0.01-0.034,0.007-0.048,0.023
		C29.861,19.033,25.241,19.157,22.816,15.053z M30.572,20.518c-0.372-0.709-0.925-1.325-1.639-1.762
		c0.918-0.088,1.809-0.398,2.589-0.939C30.966,18.523,30.674,19.494,30.572,20.518z M39.732,22.238
		c-0.117,0.017-0.235,0.001-0.351-0.027c-0.112-0.074-0.231-0.137-0.364-0.17c-0.237-0.058-0.37,0.214-0.226,0.388
		c0.14,0.17,0.353,0.269,0.478,0.451c0.229,0.334,0.002,0.598-0.361,0.594c-0.528-0.006-0.853-0.675-0.983-1.107
		c-0.041-0.137-0.194-0.131-0.263-0.047c-0.131-0.037-0.289,0.011-0.35,0.178c-0.529,1.449-2.153,2.093-3.588,1.621
		c-1.42-0.466-2.232-1.872-2.818-3.168c0.239-1.729,0.709-3.675,2.852-3.756c2.054-0.077,4.413,1.324,4.08,3.608
		c-0.046,0.314,0.38,0.448,0.485,0.134c0.015-0.044,0.021-0.086,0.034-0.129c0.058,0.017,0.121,0.013,0.177-0.049
		c0.277-0.309,0.597-0.826,1.1-0.568c0.544,0.28,0.206,1.131-0.336,0.784c-0.16-0.103-0.357,0.143-0.207,0.268
		c0.029,0.024,0.061,0.032,0.091,0.052c-0.117,0.094-0.037,0.28,0.086,0.318c0.247,0.076,0.57-0.074,0.791,0.078
		C40.408,21.932,40.008,22.198,39.732,22.238z M45.065,24.248c-0.29,0.226-0.675,0.36-1.04,0.258
		c-0.385-0.108-0.734-0.444-0.586-0.863c0.035-0.098-0.004-0.175-0.063-0.237c0.173-0.061,0.193-0.331-0.008-0.39
		c-1.01-0.298-2.163-0.373-3.239-0.462c0.303-0.12,0.554-0.409,0.534-0.745c-0.016-0.264-0.184-0.446-0.403-0.558
		c0.89,0.423,2.028,0.689,2.992,0.857c0.185,0.032,0.288-0.115,0.279-0.254c0.006,0.005,0.01,0.01,0.016,0.015
		c0.17,0.122,0.345-0.137,0.215-0.279c-0.305-0.334,0.174-0.789,0.436-0.945c0.328-0.196,0.71-0.257,1.019,0.005
		c0.308,0.262,0.368,0.689,0.093,1c-0.214,0.241-0.501,0.23-0.786,0.301c-0.106,0.027-0.152,0.132-0.141,0.23
		c-0.09,0.1-0.04,0.304,0.123,0.295C45.533,22.419,45.794,23.68,45.065,24.248z"/>
	<path style="fill:#1D1D1B;" d="M48.488,18.08c-0.15-0.213-0.5-0.018-0.355,0.208c8.324,12.969-2.163,27.64-16.204,29.124
		c-6.963,0.736-14.868-1.351-20.418-5.712c-5.741-4.511-6.239-13.714-3.766-20.286c0.061-0.162-0.212-0.28-0.283-0.119
		C5.128,26.615,4.87,35.317,8.746,40.018c5.07,6.148,15.75,8.806,23.342,7.967C46.124,46.434,57.66,31.046,48.488,18.08z"/>
</g>
<g>
</g>
<g>
</g>
<g>
</g>
<g>
</g>
<g>
</g>
<g>
</g>
<g>
</g>
<g>
</g>
<g>
</g>
<g>
</g>
<g>
</g>
<g>
</g>
<g>
</g>
<g>
</g>
<g>
</g>
</svg>
