<?xml version="1.0" encoding="iso-8859-1"?>
<!-- Generator: Adobe Illustrator 18.0.0, SVG Export Plug-In . SVG Version: 6.00 Build 0)  -->
<!DOCTYPE svg PUBLIC "-//W3C//DTD SVG 1.1//EN" "http://www.w3.org/Graphics/SVG/1.1/DTD/svg11.dtd">
<svg version="1.1" id="Capa_1" xmlns="http://www.w3.org/2000/svg" xmlns:xlink="http://www.w3.org/1999/xlink" x="0px" y="0px"
	 viewBox="0 0 60.885 60.885" style="enable-background:new 0 0 60.885 60.885;" xml:space="preserve">
<g>
	<path style="fill:#1D1D1B;" d="M60.772,27.764c0.134-0.116,0.132-0.294,0.056-0.416c-0.01-0.048-0.028-0.097-0.07-0.141
		c-1.909-2.056-5.072-2.432-7.695-2.986c-3.306-0.698-6.649-1.091-9.97-0.375c-0.011-0.097-0.022-0.195-0.033-0.292
		c0.004-0.006,0.011-0.008,0.015-0.014c0.051-0.07,0.019-0.154-0.04-0.204c-0.008-0.061-0.013-0.122-0.021-0.183
		c-0.003-0.025-0.027-0.039-0.051-0.044c-0.036-0.691-1.101-0.679-1.655-0.677c-1.109,0.003-2.201,0.114-3.121,0.752
		c-0.074-0.051-0.201-0.032-0.237,0.073c-0.077,0.224-0.133,0.479-0.169,0.737c-0.013-0.129-0.094-0.253-0.26-0.259
		c-4.499-0.164-8.973,0.299-13.302,1.571c-1.416,0.416-4.025,0.777-3.764,2.631c-0.215-0.031-0.433-0.054-0.638-0.098
		c-0.294-0.062-0.595-0.182-0.896-0.209c-0.025-0.135-0.054-0.27-0.093-0.402c0.179-0.1,0.255-0.367,0.02-0.486
		c-2.074-1.052-4.417-0.773-6.684-1.091c-2.679-0.376-5.375-1.181-8.109-1.014c-1.886,0.115-4.694,0.759-3.923,3.031
		c0.441,1.99,3,1.958,4.786,2.239c4.323,0.68,8.857,1.063,13.213,0.521c0.003,0.045-0.004,0.09,0.005,0.136
		c0.012,0.063,0.091,0.086,0.142,0.058c0.256-0.144,0.403-0.417,0.5-0.716c0.206,0.195,0.483,0.153,0.784,0.162
		c0.448,0.015,0.899,0.024,1.348,0.023c0.36,1,0.902,1.997,1.26,2.88c0.319,0.787,0.536,2.215,1.39,2.584
		c0.004,0.002,0.004,0.006,0.009,0.008c0.015,0.006,0.03,0.01,0.045,0.016c0.033,0.012,0.061,0.034,0.096,0.043
		c0.006,0.002,0.012-0.003,0.018-0.002c11.015,4.295,23.867,3.454,34.75-0.768c0.148-0.057,0.205-0.19,0.2-0.316
		c0.486-0.208,0.672-1.166,0.826-1.576c0.604-1.603,1.043-3.259,1.379-4.937C60.903,27.903,60.847,27.822,60.772,27.764z
		 M38.24,23.476c0.604-0.252,4.277-1.265,4.327-0.157c0.002,0.052,0.024,0.093,0.054,0.125c-1.263,0.725-3.037,0.473-4.381,0.103
		C38.24,23.524,38.239,23.5,38.24,23.476z M38.236,23.77c1.175,0.434,3.323,0.936,4.456,0.132c-0.003,0.024,0,0.049-0.003,0.074
		c-0.013,0.031-0.013,0.063-0.004,0.095c-0.033,0.384-0.009,0.773,0.066,1.148c-0.028,0.005-0.057,0.012-0.087,0.029
		c-1.391,0.798-2.99,0.746-4.385,0.021c0.013-0.025,0.031-0.049,0.033-0.079c0.021-0.318-0.07-0.629-0.083-0.948
		C38.222,24.086,38.233,23.928,38.236,23.77z M18.343,29.308c-0.044,0.266-0.142,0.526-0.192,0.787
		c-2.622-0.089-5.242-0.016-7.862-0.203c-1.773-0.127-9.134-0.083-9.744-2.63c-0.013-0.054-0.049-0.088-0.087-0.115
		c-0.084-2.841,6.782-1.721,7.524-1.612c1.121,0.165,2.23,0.41,3.347,0.593c2.206,0.361,4.936,0.176,6.996,1.021
		c-0.04,0.058-0.06,0.134-0.044,0.222C18.395,28.028,18.451,28.646,18.343,29.308z M19.56,29.545
		c-0.269,0.009-0.519-0.026-0.717,0.104c0.041-0.18,0.074-0.359,0.097-0.518c0.047-0.317,0.063-0.638,0.046-0.958
		c0.248,0.102,0.521,0.162,0.77,0.225c0.258,0.065,0.525,0.131,0.792,0.163c0.022,0.317,0.091,0.64,0.181,0.965
		C20.34,29.528,19.949,29.532,19.56,29.545z M20.849,28.015c0.141-2.07,6.37-2.906,7.662-3.141c2.998-0.545,5.972-0.684,9.009-0.578
		c0.146,0.005,0.216-0.089,0.245-0.197c-0.039,0.365-0.022,0.737,0.103,1.06c-0.072,0.053-0.111,0.152-0.027,0.221
		c1.467,1.204,3.465,1.278,5.089,0.324c0.023-0.013,0.036-0.031,0.052-0.047c0.159,0.029,0.348-0.088,0.31-0.301
		c-0.073-0.405-0.121-0.81-0.166-1.214c3.102-0.232,6.05-0.07,9.13,0.569c2.512,0.521,5.958,0.946,7.915,2.755
		c-9.902,7.022-28.405,6.233-38.936,0.971c0.043-0.124-0.024-0.296-0.153-0.349C21.008,28.056,20.928,28.035,20.849,28.015z
		 M59.549,31.039c-0.115,0.366-0.956,3.025-1.058,3.01c-0.193-0.03-0.31,0.119-0.321,0.268c-11.513,4.192-22.484,3.939-34.231,1.007
		c-0.011-0.017-0.01-0.036-0.029-0.051c-0.607-0.469-0.921-1.75-1.21-2.451c-0.246-0.596-0.493-1.192-0.74-1.788
		c-0.303-0.731-0.55-1.556-0.985-2.231c6.122,3.503,13.983,4.106,20.902,3.918c6.248-0.17,13.242-0.871,18.437-4.623
		C60.099,29.088,59.854,30.071,59.549,31.039z"/>
	<path style="fill:#1D1D1B;" d="M36.596,24.754c-3.714,1.376-7.235,2.315-11.204,2.637c-0.125,0.01-0.128,0.196,0,0.197
		c3.869,0.015,7.871-0.763,11.351-2.487C36.933,25.007,36.799,24.679,36.596,24.754z"/>
	<path style="fill:#1D1D1B;" d="M37.562,26.539c-2.274,1.313-4.305,2.392-6.941,2.815c-0.097,0.016-0.075,0.18,0.023,0.173
		c2.485-0.184,5.25-1.004,7.126-2.717C37.917,26.676,37.73,26.442,37.562,26.539z"/>
	<path style="fill:#1D1D1B;" d="M39.577,27.576c-0.322,0.519-0.468,1.149-0.669,1.724c-0.228,0.652-0.459,1.304-0.656,1.966
		c-0.048,0.162,0.209,0.28,0.28,0.118c0.246-0.564,0.468-1.137,0.687-1.712c0.241-0.63,0.586-1.29,0.685-1.958
		C39.933,27.522,39.691,27.392,39.577,27.576z"/>
	<path style="fill:#1D1D1B;" d="M43.842,30.94c-0.638-1.165-1.169-2.308-1.586-3.573c-0.072-0.219-0.384-0.129-0.342,0.094
		c0.245,1.3,0.747,2.634,1.47,3.747C43.569,31.493,44.007,31.241,43.842,30.94z"/>
	<path style="fill:#1D1D1B;" d="M50.32,29.751c-2.443-0.656-4.534-1.316-6.509-2.991c-0.179-0.152-0.439,0.1-0.261,0.261
		c1.803,1.625,4.233,3.03,6.718,3.121C50.492,30.15,50.535,29.809,50.32,29.751z"/>
	<path style="fill:#1D1D1B;" d="M56.019,27.708c-3.589-0.146-6.879-0.651-10.233-1.989c-0.136-0.054-0.232,0.174-0.1,0.238
		c3.171,1.539,6.791,2.45,10.334,2.212C56.313,28.148,56.317,27.72,56.019,27.708z"/>
</g>
<g>
</g>
<g>
</g>
<g>
</g>
<g>
</g>
<g>
</g>
<g>
</g>
<g>
</g>
<g>
</g>
<g>
</g>
<g>
</g>
<g>
</g>
<g>
</g>
<g>
</g>
<g>
</g>
<g>
</g>
</svg>
