<?xml version="1.0" encoding="iso-8859-1"?>
<!-- Generator: Adobe Illustrator 18.0.0, SVG Export Plug-In . SVG Version: 6.00 Build 0)  -->
<!DOCTYPE svg PUBLIC "-//W3C//DTD SVG 1.1//EN" "http://www.w3.org/Graphics/SVG/1.1/DTD/svg11.dtd">
<svg version="1.1" id="Capa_1" xmlns="http://www.w3.org/2000/svg" xmlns:xlink="http://www.w3.org/1999/xlink" x="0px" y="0px"
	 viewBox="0 0 60.835 60.835" style="enable-background:new 0 0 60.835 60.835;" xml:space="preserve">
<g>
	<path style="fill:#1D1D1B;" d="M59.631,25.663c-0.018-0.166-0.129-0.324-0.342-0.332c-5.782-0.233-11.581-0.095-17.316,0.709
		c-0.149-0.271-0.647-0.219-0.652,0.164c-0.001,0.068,0.001,0.136,0,0.204c-0.998-0.152-2.176,0.084-3.169,0.255
		c-0.027-0.027-0.058-0.053-0.102-0.072c-11.742-5.292-25.017-2.852-37.195-0.47c-0.145,0.028-0.177,0.182-0.135,0.302
		c-0.004-0.004-0.009-0.007-0.014-0.011c-0.086-0.078-0.182-0.061-0.251-0.009c-0.001-0.05-0.006-0.097-0.007-0.147
		c-0.002-0.254-0.36-0.242-0.387,0C-0.99,35.88,11.595,36.969,18.369,37.326c7.269,0.383,16.782-0.444,19.688-7.872
		c0.013,0.003,0.018,0.014,0.033,0.016c1.005,0.076,2.021,0.092,3.029,0.06c0.123-0.004,0.192-0.072,0.236-0.155
		c0.006,0.228,0.009,0.456,0.016,0.684c0.008,0.253,0.252,0.323,0.426,0.243c0.003,0.081,0.058,0.162,0.166,0.174
		c3.292,0.374,6.617,0.257,9.918,0.028c2.282-0.159,5.349,0.009,7.478-0.85C61.487,28.795,61.075,27.187,59.631,25.663z
		 M0.916,26.566c12.389-1.523,24.767-4.646,36.722,0.654c-5.775,2.975-12.057,3.639-18.515,3.497
		c-6.148-0.135-13.377,0.125-18.244-4.163C0.893,26.555,0.901,26.568,0.916,26.566z M20.041,36.77
		C12.9,36.572,0.948,36.188,0.472,26.743c4.108,4.553,11.29,4.323,16.952,4.565c7.114,0.303,14.086-0.151,20.475-3.446
		C35.873,35.661,27.089,36.965,20.041,36.77z M41.119,28.936c-0.957-0.031-1.921-0.014-2.877,0.053
		c0.165-0.486,0.31-0.991,0.419-1.532c0.125-0.083,0.159-0.207,0.135-0.324c0.846,0.027,1.766,0.027,2.528-0.2
		c0,0.712,0.008,1.425,0.024,2.137C41.301,28.997,41.233,28.939,41.119,28.936z M54.705,29.459c-1.41,0.15-2.824,0.268-4.239,0.356
		c-2.832,0.174-5.671,0.141-8.503,0.313c-0.014,0.001-0.02,0.011-0.032,0.014c0.011-0.03,0.036-0.046,0.037-0.084
		c0.035-1.166,0.055-2.331,0.048-3.498c5.663-0.462,11.28-0.728,16.959-0.512c0.017,0.043,0.039,0.086,0.076,0.126
		C61.965,29.359,55.708,29.353,54.705,29.459z"/>
</g>
<g>
</g>
<g>
</g>
<g>
</g>
<g>
</g>
<g>
</g>
<g>
</g>
<g>
</g>
<g>
</g>
<g>
</g>
<g>
</g>
<g>
</g>
<g>
</g>
<g>
</g>
<g>
</g>
<g>
</g>
</svg>
