<?xml version="1.0" encoding="iso-8859-1"?>
<!-- Generator: Adobe Illustrator 18.0.0, SVG Export Plug-In . SVG Version: 6.00 Build 0)  -->
<!DOCTYPE svg PUBLIC "-//W3C//DTD SVG 1.1//EN" "http://www.w3.org/Graphics/SVG/1.1/DTD/svg11.dtd">
<svg version="1.1" id="Capa_1" xmlns="http://www.w3.org/2000/svg" xmlns:xlink="http://www.w3.org/1999/xlink" x="0px" y="0px"
	 viewBox="0 0 55.386 55.386" style="enable-background:new 0 0 55.386 55.386;" xml:space="preserve">
<g>
	<path style="fill:#1D1D1B;" d="M54.932,2.661c-0.064-0.152-0.209-0.195-0.35-0.171c-0.005-0.073-0.023-0.148-0.077-0.217
		c-1.925-2.475-4.786-1.466-6.802,0.375c-4.5,4.11-8.442,9.127-12.486,13.683c-0.091,0.102-0.097,0.219-0.061,0.319
		c-0.105,0.087-0.152,0.242-0.028,0.374c0.267,0.285,0.543,0.564,0.811,0.848c-1.697,1.317-3.223,2.787-4.564,4.464
		c-7.169-4.916-16.833-5.657-24.011-0.079c-7.635,5.934-9.826,16.77-4.227,24.837c5.968,8.597,18.281,9.541,26.793,4.116
		c8.843-5.636,9.401-16.766,4.807-25.192c0.038-0.01,0.077-0.014,0.108-0.048c0.815-0.894,1.584-1.83,2.358-2.76
		c0.58-0.697,1.283-1.412,1.76-2.205c0.288,0.267,0.586,0.518,0.91,0.702c0.052,0.029,0.105,0.033,0.156,0.028
		c0.081,0.081,0.204,0.123,0.338,0.06c5.14-2.42,6.924-6.88,10.804-10.638C53.635,8.774,56.516,6.395,54.932,2.661z M28.078,51.31
		c-8.487,4.417-19.949,2.933-24.984-5.773c-4.242-7.335-2.458-16.239,3.778-21.841c7.396-6.645,18.391-5.58,25.714,0.53
		c0.137,0.115,0.294,0.116,0.426,0.06C38.444,33.355,38.718,45.773,28.078,51.31z M36.597,22.89
		c-0.708,0.899-1.423,1.793-2.094,2.72c-0.415-0.726-0.864-1.433-1.354-2.111c-0.087-0.12-0.223-0.134-0.331-0.091
		c-0.323-0.261-0.661-0.501-0.996-0.743c1.417-1.548,2.947-2.996,4.611-4.276c0.367,0.385,0.727,0.776,1.103,1.153
		c0.32,0.321,0.644,0.684,0.981,1.034C37.788,21.242,37.196,22.13,36.597,22.89z M48.487,12.884
		c-2.578,3.388-4.548,6.166-8.308,8.36c-0.529-0.84-1.423-1.53-2.129-2.215c-0.785-0.761-1.593-1.497-2.401-2.234
		c0.006-0.006,0.013-0.007,0.018-0.013c2.4-2.552,4.769-5.133,7.137-7.715c1.883-2.053,7.716-10.538,11.177-6.269
		c0.085,0.105,0.185,0.134,0.28,0.12c0.003,0.009,0,0.017,0.004,0.026C56.009,7.451,50.75,9.909,48.487,12.884z"/>
	<path style="fill:#1D1D1B;" d="M31.876,29.516c-3.994-8.457-14.679-6.936-21.673-3.931c-0.114,0.049-0.165,0.142-0.179,0.246
		C4.353,29.579,1.89,37.26,5.379,43.386c3.848,6.756,12.385,8.611,18.922,4.757C30.269,44.624,35.109,36.362,31.876,29.516z
		 M25.046,46.685c-5.842,4.16-13.936,3.521-18.22-2.578c-4.23-6.023-2.138-13.647,3.605-17.809c0.023-0.004,0.044-0.002,0.068-0.012
		c5.865-2.446,13.52-4.169,18.68,0.798C35.27,32.946,30.874,42.535,25.046,46.685z"/>
</g>
<g>
</g>
<g>
</g>
<g>
</g>
<g>
</g>
<g>
</g>
<g>
</g>
<g>
</g>
<g>
</g>
<g>
</g>
<g>
</g>
<g>
</g>
<g>
</g>
<g>
</g>
<g>
</g>
<g>
</g>
</svg>
