<?xml version="1.0" encoding="iso-8859-1"?>
<!-- Generator: Adobe Illustrator 18.0.0, SVG Export Plug-In . SVG Version: 6.00 Build 0)  -->
<!DOCTYPE svg PUBLIC "-//W3C//DTD SVG 1.1//EN" "http://www.w3.org/Graphics/SVG/1.1/DTD/svg11.dtd">
<svg version="1.1" id="Capa_1" xmlns="http://www.w3.org/2000/svg" xmlns:xlink="http://www.w3.org/1999/xlink" x="0px" y="0px"
	 viewBox="0 0 48.132 48.132" style="enable-background:new 0 0 48.132 48.132;" xml:space="preserve">
<g>
	<path style="fill:#1D1D1B;" d="M35.461,0.317c0.13-0.12,0.058-0.367-0.149-0.308c-0.232,0.065-0.455,0.144-0.676,0.224
		c-0.027-0.008-0.041-0.031-0.075-0.031C21.597,0.21,12.202,8.373,6.609,19.445c-0.636,0.082-1.279,0.128-1.783,0.662
		c-0.432,0.459-0.641,1.067-0.576,1.655c-0.084-0.161-0.354-0.039-0.303,0.139c0.28,0.989,0.367,1.079,1.012,1.88
		c1.861,2.311,3.263,4.22,4.177,7.161c0.947,3.05,2.427,5.816,4.563,8.211c4.959,5.56,12.265,8.303,19.582,8.705
		c0.397,0.107,0.808,0.193,1.247,0.236c9.881,0.95,9.469-16.718,9.617-22.681C44.31,18.783,44.51,1.869,35.461,0.317z
		 M12.003,35.937c-1.738-2.75-2.062-5.793-3.428-8.635c-0.912-1.897-2.724-2.98-3.823-4.64c0.045-0.024,0.076-0.068,0.052-0.131
		c-0.38-1.02,0.158-2.327,1.289-2.52c0.742-0.127,1.745,0.055,2.097-0.786c0.061-0.146-0.148-0.304-0.274-0.21
		c-0.255,0.19-0.536,0.287-0.825,0.35c3.067-5.095,6.034-9.952,11.053-13.419c4.57-3.157,9.698-4.662,15.141-5.095
		c-7.232,3.999-7.899,16.722-7.872,23.79c0.022,5.759-0.135,19.081,6.347,22.613C23.949,45.946,16.463,42.991,12.003,35.937z
		 M43.498,25.414c-0.143,5.843-0.767,28.226-12.205,20.5c-5.817-3.929-5.385-16.9-5.222-23.044
		c0.189-7.15,1.278-18.533,8.619-22.151c0.048,0.056,0.114,0.098,0.202,0.109C43.889,1.929,43.658,18.885,43.498,25.414z"/>
	<path style="fill:#1D1D1B;" d="M25.353,42.976c-0.133,0.184-0.201,0.417-0.413,0.53c-0.133,0.141-0.291,0.14-0.472-0.005
		c-0.134-0.116-0.147-0.259-0.039-0.428c0.081-0.077-0.04-0.196-0.122-0.122c-0.297,0.269-0.171,0.757,0.177,0.922
		c0.523,0.248,1.099-0.329,1.102-0.833C25.586,42.906,25.422,42.881,25.353,42.976z"/>
	<path style="fill:#1D1D1B;" d="M24.621,42.333c-0.042,0.193,0.246,0.276,0.298,0.082c0.089-0.329,0.542-0.498,0.737-0.158
		c0.084,0.146,0.077,0.269,0.079,0.435c0.001,0.146,0.175,0.169,0.252,0.068C26.611,41.943,24.885,41.124,24.621,42.333z"/>
	<path style="fill:#1D1D1B;" d="M23.417,41.828c-0.12,0.447-0.548,0.724-0.981,0.455c-0.112-0.07-0.242,0.094-0.143,0.185
		c0.486,0.444,1.464,0.114,1.427-0.599C23.712,41.7,23.464,41.654,23.417,41.828z"/>
	<path style="fill:#1D1D1B;" d="M16.009,37.135c-0.068-0.1-0.237-0.068-0.236,0.064c0.001,0.193,0.026,0.238-0.123,0.401
		c-0.185,0.203-0.383,0.199-0.584-0.089c-0.081-0.116-0.257-0.016-0.191,0.112C15.281,38.415,16.547,37.925,16.009,37.135z"/>
	<path style="fill:#1D1D1B;" d="M15.115,35.478c-0.386,0.176-0.461,0.678-0.229,1.002c0.119,0.166,0.388,0.019,0.279-0.163
		c-0.276-0.462,0.446-0.357,0.541-0.194c0.081,0.139,0.3,0.078,0.301-0.082C16.011,35.603,15.524,35.291,15.115,35.478z"/>
	<path style="fill:#1D1D1B;" d="M12.683,35.386c-0.181,0.052-0.129,0.293,0.042,0.311c0.581,0.061,1.08,0.342,1.056,1.005
		c-0.004,0.12,0.197,0.152,0.214,0.029C14.09,36.026,13.466,35.162,12.683,35.386z"/>
	<path style="fill:#1D1D1B;" d="M28.667,2.286c-0.472-0.307-1.08,0.032-1.163,0.556c-0.028,0.177,0.21,0.248,0.271,0.075
		c0.124-0.35,0.597-0.509,0.781-0.112c0.079,0.171,0.005,0.322-0.021,0.491c-0.02,0.126,0.103,0.254,0.23,0.177
		C29.189,3.214,29.041,2.53,28.667,2.286z"/>
	<path style="fill:#1D1D1B;" d="M28.54,4.408c-0.154,0.048-0.324,0.118-0.489,0.065c-0.338-0.108-0.382-0.516-0.162-0.763
		c0.149-0.167-0.08-0.398-0.246-0.246c-0.845,0.772,0.385,2.058,1.056,1.217C28.792,4.564,28.711,4.354,28.54,4.408z"/>
	<path style="fill:#1D1D1B;" d="M25.857,3.63c-0.059-0.087-0.22-0.089-0.244,0.032c-0.07,0.348-0.191,0.779-0.671,0.695
		c-0.21-0.037-0.302,0.264-0.09,0.325C25.412,4.843,26.27,4.236,25.857,3.63z"/>
	<path style="fill:#1D1D1B;" d="M25.175,5.808c-0.12,0.134,0.068,0.326,0.199,0.199c0.333-0.324,0.722-0.062,0.869,0.279
		c0.064,0.148,0.317,0.074,0.305-0.082C26.496,5.542,25.588,5.347,25.175,5.808z"/>
	<path style="fill:#1D1D1B;" d="M15.776,15.465c-0.167,0.217-0.312,0.314-0.589,0.238c-0.296-0.081-0.42-0.299-0.328-0.623
		c0.033-0.117-0.151-0.203-0.202-0.085c-0.448,1.02,1.12,1.621,1.399,0.589C16.104,15.403,15.876,15.335,15.776,15.465z"/>
	<path style="fill:#1D1D1B;" d="M13.637,14.281c-0.094,0.087,0.029,0.252,0.138,0.179c0.517-0.343,0.964,0.004,1.176,0.482
		c0.064,0.145,0.278,0.061,0.282-0.076C15.255,14.088,14.137,13.816,13.637,14.281z"/>
	<path style="fill:#1D1D1B;" d="M16.559,13.44c-0.108,0.143-0.226,0.315-0.421,0.336c-0.127,0.08-0.221,0.039-0.283-0.122
		c-0.23-0.139-0.209-0.297,0.065-0.473c0.129-0.038,0.073-0.217-0.054-0.197c-0.444,0.07-0.586,0.676-0.283,0.989
		c0.409,0.423,1.106,0.067,1.253-0.417C16.889,13.38,16.656,13.311,16.559,13.44z"/>
	<path style="fill:#1D1D1B;" d="M14.615,10.794c-0.112-0.13-0.334,0.008-0.285,0.166c0.147,0.475-0.068,1.131-0.729,0.833
		c-0.154-0.069-0.287,0.143-0.135,0.231C14.262,12.481,15.27,11.556,14.615,10.794z"/>
	<path style="fill:#1D1D1B;" d="M22.479,26.485c-0.23-0.466-0.93-0.498-1.233-0.08c-0.307,0.424-0.027,0.993,0.431,1.143
		c0.119,0.039,0.205-0.154,0.087-0.206c-0.719-0.315-0.103-1.229,0.511-0.7C22.387,26.74,22.545,26.62,22.479,26.485z"/>
	<path style="fill:#1D1D1B;" d="M23.258,25.796c-0.108-0.06-0.24,0.062-0.173,0.173c0.314,0.518,0.321,1.304-0.384,1.5
		c-0.146,0.041-0.083,0.25,0.062,0.224C23.553,27.548,24.079,26.251,23.258,25.796z"/>
	<path style="fill:#1D1D1B;" d="M21.499,23.975c-0.101-0.168-0.387-0.06-0.324,0.137c0.061,0.137,0.058,0.279-0.009,0.427
		c-0.354,0.238-0.589,0.173-0.706-0.194c-0.028-0.103-0.204-0.087-0.193,0.026C20.375,25.51,22.069,24.918,21.499,23.975z"/>
	<path style="fill:#1D1D1B;" d="M9.888,23.955c-0.211,0.498-0.835,0.829-1.275,0.35c-0.111-0.12-0.276,0.054-0.177,0.177
		c0.479,0.59,1.672,0.375,1.726-0.452C10.172,23.89,9.946,23.819,9.888,23.955z"/>
	<path style="fill:#1D1D1B;" d="M8.883,23.323c-0.054,0.171,0.202,0.234,0.264,0.073c0.228-0.592,0.832-0.381,1.045,0.063
		c0.079,0.165,0.297,0.038,0.273-0.115C10.327,22.44,9.129,22.543,8.883,23.323z"/>
	<path style="fill:#1D1D1B;" d="M10.911,26.292c-0.216,0.089-0.496,0.148-0.707,0.004c-0.377-0.258-0.126-0.783,0.235-0.891
		c0.186-0.056,0.108-0.323-0.079-0.288c-0.531,0.099-0.895,0.69-0.651,1.203c0.237,0.498,0.985,0.663,1.345,0.215
		C11.132,26.438,11.062,26.23,10.911,26.292z"/>
	<path style="fill:#1D1D1B;" d="M39.694,22.92c-0.276-0.297-0.558-0.48-0.689-0.89c-0.129-0.404-0.097-0.819,0.095-1.197
		c0.035-0.07,0.009-0.142-0.036-0.195c0.001-0.002,0.003-0.002,0.004-0.004c0.11-0.156-0.071-0.354-0.238-0.31
		c-0.5,0.132-0.878,0.384-1.409,0.145c-0.465-0.209-0.731-0.649-0.797-1.142c-0.009-0.065-0.054-0.093-0.105-0.104
		c-0.064-0.028-0.139-0.029-0.195,0.016c-0.293,0.234-0.319,0.672-0.578,0.953c-0.292,0.317-0.881,0.411-1.087-0.054
		c-0.067-0.152-0.284-0.045-0.262,0.102c-0.142-0.197-0.496-0.079-0.435,0.203c0.148,0.678-0.19,1.329-0.822,1.606
		c-0.028,0.012-0.038,0.035-0.051,0.055c-0.091,0.013-0.18,0.039-0.262,0.101c-0.092,0.069-0.113,0.211,0,0.276
		c0.348,0.201,0.697,0.182,0.978,0.531c0.267,0.332,0.372,0.741,0.237,1.144c-0.051-0.001-0.101-0.007-0.152-0.002
		c-0.196,0.019-0.334,0.312-0.113,0.416c0.363,0.17,0.744,0.236,1.091,0.457c0.374,0.238,0.724,0.583,0.968,0.956
		c0.036,0.055,0.102,0.066,0.154,0.046c0.084,0.033,0.175,0.03,0.234-0.059c0.2-0.306,0.224-0.603,0.675-0.655
		c0.452-0.052,0.86,0.271,1.182,0.544c0.062,0.053,0.128,0.05,0.186,0.029c0.111,0.058,0.28,0.019,0.3-0.119
		c0.066-0.457-0.096-0.878,0.03-1.35c0.126-0.474,0.393-0.873,0.76-1.187c0.043,0.015,0.079,0.046,0.125,0.054
		C39.692,23.321,39.85,23.087,39.694,22.92z M38.116,24.132c-0.108,0.3-0.179,0.724-0.137,1.105
		c-0.39-0.326-0.866-0.562-1.381-0.414c-0.272,0.078-0.616,0.322-0.75,0.611c-0.321-0.57-0.87-1.101-1.5-1.243
		c0.229-0.473,0.177-1.022-0.134-1.456c-0.132-0.184-0.361-0.399-0.614-0.528c0.656-0.335,1.028-1.085,0.862-1.825
		c0.189,0.425,0.705,0.593,1.148,0.445c0.314-0.105,0.64-0.418,0.836-0.772c0.153,0.382,0.421,0.711,0.814,0.89
		c0.393,0.179,0.932,0.21,1.353,0.031c-0.168,0.347-0.213,0.74-0.122,1.132c0.071,0.305,0.246,0.643,0.491,0.885
		C38.585,23.27,38.285,23.665,38.116,24.132z"/>
	<path style="fill:#1D1D1B;" d="M35.01,10.101c-0.317-1.915-0.369-4.574-1.82-6.013c-0.082-0.081-0.18-0.06-0.239,0.003l-0.001,0
		c-1.743,1.4-4.232,4.589-3.902,7.036c0.176,1.306,1.333,2.522,2.028,3.543c1.12,1.645,2.246,3.281,3.463,4.856
		c0.095,0.124,0.298-0.036,0.215-0.166c-1.34-2.124-3.167-4.152-4.298-6.381c-1.75-3.449,0.406-6.117,2.532-8.578
		c1.342,1.668,1.38,4.853,1.68,6.882c0.357,2.416,0.592,4.839,0.77,7.273c0.023,0.313,0.51,0.318,0.492,0
		C35.769,15.724,35.473,12.901,35.01,10.101z"/>
	<path style="fill:#1D1D1B;" d="M36.529,3.124c-0.032-0.056-0.082-0.101-0.168-0.105c-1.899-0.086-0.923,2.873-0.802,3.931
		c0.468,4.099,0.848,8.226,1.53,12.296c0.023,0.136,0.25,0.105,0.242-0.033c-0.088-1.44-1.896-14.611-1.08-15.689
		c2.693,0.478,3.678,3.099,4.596,5.407c0.012,0.031,0.038,0.041,0.058,0.062c-1.229,3.334-2.027,6.84-2.743,10.313
		c-0.065,0.315,0.41,0.451,0.485,0.134c0.812-3.451,1.758-6.888,2.446-10.367c0.123-0.011,0.232-0.101,0.185-0.259
		C40.579,6.471,39.213,3.451,36.529,3.124z"/>
	<path style="fill:#1D1D1B;" d="M42.793,16.884c-0.179-1.335-0.215-2.886-1.164-3.913c-0.022-0.084-0.086-0.134-0.166-0.137
		c-0.03-0.006-0.058-0.004-0.087,0.007c-0.002,0.001-0.004,0.001-0.005,0.002c-0.058,0.023-0.097,0.069-0.1,0.128
		c-0.835,2.559-1.456,5.227-2.045,7.853c-0.04,0.181,0.223,0.254,0.278,0.077c0.755-2.433,1.497-4.916,2.041-7.41
		c0.679,1.313,0.715,3.171,0.867,4.533c0.157,1.412,0.238,2.827,0.324,4.245c-0.859-0.101-1.917-0.242-2.735-0.03
		c-0.207,0.054-0.208,0.367,0,0.42c0.827,0.21,1.896,0.059,2.757-0.047c0.001,0.024,0.003,0.047,0.004,0.071
		c0.018,0.293,0.461,0.299,0.461,0C43.217,20.744,43.05,18.806,42.793,16.884z"/>
	<path style="fill:#1D1D1B;" d="M33.683,19.914c-1.622-2.098-3.463-4.124-5.316-6.021c-0.188-0.193-0.457,0.09-0.291,0.291
		c0.027,0.033,0.056,0.066,0.084,0.099c-1.135,0.401-0.942,5.248-0.868,5.94c0.079,0.732,0.366,1.17,1.168,1.089
		c0.509-0.051,0.993-0.322,1.486-0.448c0.978-0.251,1.941-0.274,2.942-0.241c0.255,0.008,0.324-0.418,0.062-0.456
		c-0.744-0.108-1.479-0.112-2.225-0.003c-0.635,0.093-1.271,0.438-1.889,0.506c-1.439,0.157-1.04-1.614-1.009-2.495
		c0.018-0.497-0.002-3.163,0.569-3.613c1.601,1.912,3.309,3.818,5.106,5.535C33.625,20.213,33.782,20.041,33.683,19.914z"/>
	<path style="fill:#1D1D1B;" d="M33.228,23.136c-1.112,0.132-2.211,0.332-3.307,0.561c-0.66,0.137-1.952,0.141-2.417,0.778
		c-0.412,0.564-0.225,1.731-0.243,2.361c-0.039,1.34-0.042,2.681-0.036,4.021c0.001,0.131,0.11,0.24,0.241,0.241
		c1.176,0.012,1.768-1.209,2.43-2.041c0.977-1.227,1.971-2.441,2.9-3.705c0.145-0.197-0.18-0.448-0.34-0.262
		c-1.006,1.176-1.949,2.405-2.908,3.62c-0.256,0.323-0.735,1.146-1.081,1.367c-1.224,0.784-0.758-0.857-0.744-1.519
		c0.016-0.748-0.033-1.557,0.078-2.297c0.009-0.191,0.019-0.383,0.028-0.574c0.079-0.821,0.462-1.236,1.152-1.245
		c1.289-0.562,2.919-0.662,4.274-1.102C33.36,23.305,33.35,23.121,33.228,23.136z"/>
	<path style="fill:#1D1D1B;" d="M34.476,25.799c-0.35,2.452-0.62,4.916-0.905,7.376c-0.11,0.951-0.788,9.582-2.005,9.709
		c-5.491-5.961,0.303-11.481,2.23-17.525c0.04-0.126-0.164-0.218-0.218-0.092c-2.611,6.038-8.171,12.27-2.088,18.188
		c0.177,0.172,0.411-0.033,0.348-0.225c0.75,0.175,0.974-0.574,1.215-1.405c0.713-2.451,0.668-5.444,0.963-7.985
		c0.308-2.659,0.638-5.319,0.875-7.985C34.911,25.621,34.51,25.564,34.476,25.799z"/>
	<path style="fill:#1D1D1B;" d="M38.198,26.871c-0.024-0.241-0.379-0.251-0.383,0c-0.041,2.398,1.009,4.358,1.828,6.56
		c1.176,3.165,0.769,7.592-1.693,10.187c-1.481-0.287-2.104-1.028-1.847-2.236c0.024-0.458,0.048-0.917,0.073-1.375
		c0.072-1.605,0.163-3.209,0.244-4.813c0.149-2.978,0.328-5.957,0.349-8.939c0.001-0.209-0.301-0.201-0.32,0
		c-0.308,3.201-0.441,6.416-0.612,9.627c-0.107,2.008-0.932,5.324-0.177,7.311c0.521,1.37,1.987,2.093,2.944,0.745
		c0.096-0.134-0.012-0.265-0.142-0.298c1.461-1.259,2.185-3.826,2.412-5.506C41.413,34.134,38.579,30.772,38.198,26.871z"/>
	<path style="fill:#1D1D1B;" d="M42.563,24.59c-0.425-1.526-1.535-0.279-2.491-0.294c-0.276-0.005-0.272,0.409,0,0.425
		c0.342,0.02,0.391-0.103,0.715-0.119c0.265-0.254,0.537-0.222,0.814,0.095c0.44,0.025,0.61,0.211,0.509,0.559
		c0.157,0.434-0.077,1.333-0.102,1.804c-0.031,0.601-0.053,1.203-0.088,1.804c-0.018,0.309,0.125,1.695-0.57,1.41
		c-0.363-0.149-0.79-1.851-0.931-2.192c-0.383-0.922-0.749-1.85-1.139-2.769c-0.089-0.21-0.443-0.06-0.369,0.156
		c0.365,1.08,0.783,2.143,1.213,3.199c0.207,0.508,0.494,1.728,0.93,2.135c0.643,0.601,1.143-0.008,1.308-0.695
		c0.209-0.87,0.119-1.893,0.163-2.79C42.568,26.474,42.795,25.423,42.563,24.59z"/>
</g>
<g>
</g>
<g>
</g>
<g>
</g>
<g>
</g>
<g>
</g>
<g>
</g>
<g>
</g>
<g>
</g>
<g>
</g>
<g>
</g>
<g>
</g>
<g>
</g>
<g>
</g>
<g>
</g>
<g>
</g>
</svg>
