<?xml version="1.0" encoding="iso-8859-1"?>
<!-- Generator: Adobe Illustrator 18.0.0, SVG Export Plug-In . SVG Version: 6.00 Build 0)  -->
<!DOCTYPE svg PUBLIC "-//W3C//DTD SVG 1.1//EN" "http://www.w3.org/Graphics/SVG/1.1/DTD/svg11.dtd">
<svg version="1.1" id="Capa_1" xmlns="http://www.w3.org/2000/svg" xmlns:xlink="http://www.w3.org/1999/xlink" x="0px" y="0px"
	 viewBox="0 0 47.671 47.671" style="enable-background:new 0 0 47.671 47.671;" xml:space="preserve">
<g>
	<path style="fill:#1D1D1B;" d="M39.494,25.94c3.325,2.321,8.316,0.183,8.175-4.145c-0.106-3.251-4.081-5.563-6.247-2.75
		c0.102-1.137,0.126-2.294,0.028-3.469c1.722-3.222,3.468-7.156,1.491-10.519c0.248,0.026,0.475-0.262,0.249-0.481
		c-0.206-0.199-0.405-0.354-0.602-0.489c-0.012-0.041-0.019-0.082-0.032-0.122c-0.032-0.104-0.153-0.096-0.199-0.025
		c-3.733-2.16-5.793,6.78-6.644,11.087c-9.735-3.291-20.509-3.183-30.139,0.38c-0.037-0.095-0.063-0.192-0.074-0.293
		c-0.023-0.197-0.281-0.195-0.306,0c-0.017,0.138-0.035,0.277-0.052,0.415c-0.082,0.002-0.154,0.047-0.211,0.113
		c-0.022,0.009-0.045,0.016-0.068,0.024c-0.15,0.059-0.137,0.252-0.027,0.308c-0.689,6.731,2.412,13.025,7.5,16.769
		c-0.014,0.003-0.026-0.004-0.04,0.003c-2.965,1.44-2.83,4.738,0.18,6.073c5.199,2.306,13.12,1.739,18.695,0.827
		c-0.055,0.11,0.034,0.277,0.173,0.225c2.025-0.766,4.589-0.45,5.527-2.849c0.778-1.99-0.449-3.984-2.422-4.546
		c-0.416-0.119-0.594,0.528-0.178,0.647c2.381,0.685,2.979,3.845,0.703,5.123c-0.933,0.524-2.015,0.664-3.02,1.022
		c-0.013-0.131-0.101-0.254-0.253-0.238c-3.047,0.308-6.075,0.58-9.142,0.488c-2.007-0.06-4.013-0.245-5.997-0.547
		c-0.502-0.084-1.005-0.168-1.507-0.253c-2.687-0.055-3.546-1.943-2.578-5.661c0.068-0.043,0.081-0.104,0.075-0.162
		c3.017,2.154,6.707,3.424,10.71,3.375c4.976-0.061,9.299-2.032,12.49-5.153c-0.097,0.169-0.015,0.458,0.248,0.487
		c2.613,0.283,5.21,1.565,7.001,3.531c0,0,0,0,0,0c0.063,10.193-15.25,8.716-22.191,8.709c-5.296-0.006-14.555,1.145-18.861-2.743
		c0.081-0.083,0.114-0.221,0.02-0.323c-2.017-2.176-1.518-5.359,0.758-7.14c2.053-1.606,5.425-2.353,7.959-1.796
		c0.189,0.042,0.261-0.225,0.08-0.288c-3.034-1.048-7.624,0.052-9.608,2.67c-1.414,1.866-1.686,4.868,0.078,6.534
		c-0.004,0.029-0.003,0.059,0.019,0.089c1.638,2.226,3.769,2.848,6.461,3.178c5.797,0.712,11.836,0.576,17.664,0.463
		c6.219-0.12,18.508,0.154,18.207-8.84c0.048-0.032,0.077-0.092,0.039-0.147c-0.015-0.021-0.032-0.04-0.048-0.061
		c-0.006-0.103-0.004-0.2-0.013-0.306c-0.019-0.231-0.245-0.3-0.404-0.232c-1.803-2.259-4.161-3.623-7.159-3.908
		c-0.056-0.005-0.102,0.005-0.142,0.023C37.333,29.546,38.563,27.831,39.494,25.94z M45.881,19.13
		c1.031,0.991,1.356,2.547,0.979,3.9c-0.879,3.154-4.534,4.059-7.047,2.269c0.5-1.12,0.883-2.3,1.166-3.516l0.001,0
		c0.26-0.17,0.443-0.42,0.723-0.567c0.319-0.168,0.695-0.243,1.054-0.213c0.855,0.071,1.447,0.73,1.508,1.573
		c0.129,1.783-2.076,2.467-3.17,1.177c-0.224-0.264-0.582,0.112-0.375,0.375c1.417,1.807,4.383,0.67,4.187-1.631
		c-0.085-1.003-0.757-1.86-1.754-2.082c-0.561-0.125-1.382-0.028-1.953,0.33c0.079-0.447,0.15-0.897,0.198-1.353
		C42.502,17.991,44.611,17.91,45.881,19.13z M42.945,6.182c0.942,3.038-0.347,6.107-1.844,8.935
		c-0.225-0.042-0.471,0.075-0.446,0.365c0.015,0.172,0.009,0.341,0.019,0.513c-0.008,0.002-0.015-0.001-0.024,0.001
		c-0.447,0.118-0.896,0.222-1.344,0.331C41.44,13.424,43.174,9.797,42.945,6.182z M37.545,10.68c0.255-0.93,0.472-1.881,0.766-2.799
		c0.443-1.383,1.673-4.564,3.968-3.213c0.072,0.124,0.139,0.249,0.202,0.373c0.409,4.201-1.901,7.618-3.734,11.286
		c-0.026,0.052-0.021,0.098-0.015,0.141c-0.994,0.235-1.991,0.457-2.992,0.653C36.381,14.986,36.955,12.83,37.545,10.68z
		 M35.606,15.568c-0.131,0.68-0.226,1.2-0.286,1.464c-0.015,0.066-0.001,0.121,0.027,0.164c-4.054,0.771-8.158,1.203-12.309,1.193
		c-0.73-0.002-2.254-0.003-4.109-0.061c0.148-2.346-2.617-3.226-4.318-1.946c-0.564,0.424-0.964,0.975-1.246,1.597
		c-3.441-0.351-6.653-1.009-7.593-2.238C15.808,12.791,25.483,12.689,35.606,15.568z M18.483,18.314
		c-1.358-0.048-2.866-0.128-4.362-0.261c0.161-0.307,0.35-0.601,0.606-0.857C15.904,16.021,18.358,16.136,18.483,18.314z
		 M23.26,35.458C12.581,35.551,5.51,26.713,5.412,16.603c2.558,0.782,5.163,1.365,7.791,1.781c-0.683,1.933-0.332,4.424,0.206,6.24
		c-0.439,0.285-0.854,0.609-1.228,0.99c-0.033,0.033-0.037,0.075-0.045,0.115c-0.088,0.033-0.157,0.135-0.103,0.235
		c0.623,1.135,1.466,2.096,2.46,2.92c0.134,0.111,0.351,0.148,0.482,0c0.847-0.964,1.685-1.937,2.527-2.906
		c0.139-0.16,0.142-0.438-0.07-0.547l-1.898-0.978c-0.028-0.014-0.055-0.016-0.082-0.023c0.41-0.15,0.226-0.811-0.205-0.676
		c-0.451,0.141-0.876,0.333-1.286,0.55c-0.073-1.404-0.474-2.787-0.381-4.206c0.036-0.548,0.137-1.092,0.328-1.599
		c8.911,1.301,18.091,0.585,26.793-1.735C40.907,26.674,33.597,35.367,23.26,35.458z M15.179,25.06
		c0.508,0.26,1.016,0.52,1.525,0.78c-0.67,0.774-1.34,1.548-2.005,2.325c-0.814-0.655-1.534-1.389-2.209-2.184
		c0.796-0.608,1.657-1.078,2.594-1.414C14.969,24.72,14.96,24.948,15.179,25.06z"/>
	<path style="fill:#1D1D1B;" d="M16.098,11.263c-2.11-0.607,0.008-4.069-0.574-5.507c-0.532-1.314-2.188-1.317-2.841-2.5
		C12.5,2.924,12.045,3.163,12.105,3.5c0.113,0.631,0.485,0.939,1.014,1.26c0.878,0.533,1.704,0.55,1.823,2.007
		c0.056,0.676-0.284,1.405-0.388,2.068c-0.189,1.207,0.057,2.629,1.401,2.947C16.291,11.862,16.432,11.359,16.098,11.263z"/>
	<path style="fill:#1D1D1B;" d="M22.393,3.235c-0.382-0.118-0.644,0.472-0.276,0.655c1.475,0.734,1.601,2.232,0.501,3.337
		c-0.499,0.502-1.172,0.818-1.467,1.498c-0.344,0.793-0.136,1.898,0.809,2.084c0.304,0.06,0.408-0.346,0.126-0.458
		c-1.681-0.666,0.855-2.338,1.369-2.87c0.414-0.428,0.671-0.918,0.721-1.518C24.278,4.753,23.553,3.593,22.393,3.235z"/>
	<path style="fill:#1D1D1B;" d="M33.034,3.218c-0.275-0.063-0.512,0.283-0.287,0.494c2.394,2.246-3.193,3.246-4.039,4.694
		c-0.571,0.977-0.497,2.29,0.632,2.749c0.249,0.101,0.419-0.311,0.183-0.434c-0.939-0.489-0.595-1.693-0.007-2.28
		c0.567-0.567,1.424-0.735,2.143-1.024c0.721-0.29,1.447-0.601,1.907-1.26C34.191,5.259,34.368,3.524,33.034,3.218z"/>
	<path style="fill:#1D1D1B;" d="M8.213,11.227c-1.082-1.178-0.031-2.97-0.907-4.247C7.01,6.551,6.587,6.31,6.078,6.21
		C5.666,6.13,5.266,6.182,4.854,6.221c-0.26,0.036-0.521,0.067-0.782,0.093C3.376,6.432,2.936,6.023,2.754,5.087
		c0.144-0.302-0.207-0.592-0.467-0.36C1.799,5.164,1.812,5.822,2.192,6.349c0.544,0.756,1.485,0.737,2.322,0.646
		c1.025-0.112,2.242-0.128,2.476,1.12C7.091,8.654,7.044,9.21,7.085,9.754c0.057,0.761,0.217,1.375,0.836,1.851
		C8.146,11.778,8.389,11.419,8.213,11.227z"/>
</g>
<g>
</g>
<g>
</g>
<g>
</g>
<g>
</g>
<g>
</g>
<g>
</g>
<g>
</g>
<g>
</g>
<g>
</g>
<g>
</g>
<g>
</g>
<g>
</g>
<g>
</g>
<g>
</g>
<g>
</g>
</svg>
