<?xml version="1.0" encoding="iso-8859-1"?>
<!-- Generator: Adobe Illustrator 18.0.0, SVG Export Plug-In . SVG Version: 6.00 Build 0)  -->
<!DOCTYPE svg PUBLIC "-//W3C//DTD SVG 1.1//EN" "http://www.w3.org/Graphics/SVG/1.1/DTD/svg11.dtd">
<svg version="1.1" id="Capa_1" xmlns="http://www.w3.org/2000/svg" xmlns:xlink="http://www.w3.org/1999/xlink" x="0px" y="0px"
	 viewBox="0 0 55.633 55.633" style="enable-background:new 0 0 55.633 55.633;" xml:space="preserve">
<g>
	<path style="fill:#1D1D1B;" d="M54.768,30.845c-1.481-1.389-3.637-0.938-5.374-0.356c0.201-1.05,0.16-1.913-0.289-2.397
		c-0.176-0.19-0.426-0.115-0.576,0.049c-13.75-3.028-29.345-2.35-42.844,1.604C5.643,29.758,5.629,29.79,5.6,29.814
		c-0.135,0.008-0.261,0.108-0.217,0.282c0.27,1.084,0.615,2.145,1.029,3.175c-0.933-0.139-1.955-0.015-2.689,0.622
		c-0.684,0.594-0.942,1.586-0.599,2.434c0.335,0.83,1.202,1.218,2.052,0.939c1.119-0.367,1.577-1.459,1.895-2.499
		c0.247,0.514,0.509,1.021,0.789,1.516c-0.641,0.757-0.878,1.75-1.473,2.539c-1.441,1.91-4.118,0.192-5.052-1.388
		c-0.84-1.42-0.767-3.416,0.477-4.595c0.753-0.713,1.905-0.97,2.897-0.697c0.501,0.138,0.799,0.409,1.315,0.432
		c0.04,0.002,0.063-0.038,0.056-0.073c-0.322-1.68-3.198-1.304-4.245-0.642c-1.725,1.092-2.244,3.436-1.511,5.267
		c0.714,1.785,2.806,3.607,4.852,3.341c1.706-0.222,2.47-2.09,3.068-3.554c3.298,5.458,8.604,9.621,14.742,11.104
		c0.096,3.137,4.584,3.302,6.881,3.175c2.278-0.126,6.942-0.73,6.169-3.995c-0.016-0.067-0.054-0.114-0.098-0.153
		c3.083-1.23,5.879-3.159,7.997-5.739c0.667-0.812,2.219-3.206,3.52-5.765c0.975,1.307,2.302,2.816,4.04,2.914
		c1.765,0.1,2.932-1.314,3.536-2.806C55.641,34.14,56.108,32.101,54.768,30.845z M47.96,28.753
		c-12.488,6.462-27.376,3.573-40.605,1.239C21.171,27.321,33.957,27.031,47.96,28.753z M6.495,34.364
		c-0.216,0.731-0.45,1.61-1.123,2.059c-0.734,0.49-1.585,0.203-1.711-0.692c-0.224-1.587,1.655-1.987,2.844-2.01
		c0.036-0.001,0.059-0.023,0.087-0.038c0.063,0.15,0.131,0.298,0.197,0.447C6.663,34.137,6.542,34.208,6.495,34.364z M35.365,47.291
		c-0.694,0.843-1.387,1.685-2.081,2.528c-0.428,0.135-0.862,0.244-1.303,0.327c-0.986,0.196-2.004,0.315-3.011,0.315
		c-1.807,0-4.822-0.158-5.467-2.328c2.238,0.482,4.577,0.616,6.964,0.322c1.671-0.205,3.317-0.623,4.901-1.204
		C35.368,47.265,35.363,47.276,35.365,47.291z M45.78,36.847c-1.109,2.231-2.555,4.27-4.407,5.949
		c-3.816,3.461-9.332,5.247-14.441,4.983C16.584,47.244,9.318,39.509,5.96,30.263c0.101-0.021,0.201-0.038,0.303-0.059
		c12.683,4.249,30.185,5.603,42.303-0.836c0.153-0.081,0.205-0.212,0.198-0.342c0.082,0.01,0.159-0.006,0.219-0.061
		C48.525,30.741,45.99,36.425,45.78,36.847z M48.657,33.088c0.819,0.207,4.023-0.807,3.672,0.977
		c-0.192,0.974-1.328,1.169-2.119,0.899c-0.733-0.25-1.315-0.762-1.89-1.263c0.095-0.218,0.19-0.437,0.276-0.652
		C48.616,33.062,48.631,33.081,48.657,33.088z M54.18,35.683c-0.628,1.364-1.818,2.379-3.414,1.875
		c-1.256-0.396-2.216-1.477-3.085-2.413c-0.007-0.007-0.016-0.004-0.023-0.01c0.163-0.331,0.321-0.663,0.47-0.993
		c0.729,0.805,1.636,1.62,2.764,1.655c0.889,0.028,1.817-0.598,2.1-1.449c0.762-2.292-2.838-2.332-4.222-1.765
		c0.177-0.473,0.337-0.937,0.456-1.373c0.06,0.021,0.128,0.031,0.208,0.008c1.402-0.402,3.04-0.976,4.405-0.145
		C55.432,32.042,54.817,34.299,54.18,35.683z"/>
	<path style="fill:#1D1D1B;" d="M17.507,16.788c-1.479-2.118-6.698-2.322-2.451-6.305c0.166-0.156-0.06-0.466-0.249-0.323
		c-2.359,1.777-2.753,3.828-0.151,5.479c1.658,1.053,3.134,1.262,1.835,4.241c-0.352,0.807-1.061,1.322-1.179,2.256
		c-0.139,1.1,0.325,1.965,1.4,2.184c0.31,0.063,0.467-0.321,0.211-0.501C14.998,22.468,18.929,18.823,17.507,16.788z"/>
	<path style="fill:#1D1D1B;" d="M29.537,13.245c-0.448-0.767-1.193-1.389-1.571-2.188c-0.592-1.249-0.888-6.499,1.804-6.21
		c0.104,0.011,0.133-0.142,0.051-0.19c-2.153-1.252-3.92,2.555-3.683,4.242c0.557,3.962,5.221,4.922,2.401,9.519
		c-0.732,1.193-1.274,1.492-1.322,3.075c-0.015,0.49,0.692,0.464,0.745,0c0.257-2.234,2.639-3.164,2.549-5.522
		C30.472,14.964,30.031,14.092,29.537,13.245z"/>
	<path style="fill:#1D1D1B;" d="M42.635,7.931c0.194-0.101,0.058-0.443-0.152-0.36c-1.668,0.658-3.383,1.522-3.689,3.475
		c-0.608,3.883,5.275,7.712,0.11,10.683c-0.34,0.195-0.112,0.801,0.275,0.652c1.557-0.599,2.662-1.884,2.744-3.619
		c0.046-0.978-0.316-1.926-0.705-2.799c-0.402-0.9-1.489-2.315-1.547-3.241l1.511-3.993C41.655,8.442,42.139,8.176,42.635,7.931z"/>
</g>
<g>
</g>
<g>
</g>
<g>
</g>
<g>
</g>
<g>
</g>
<g>
</g>
<g>
</g>
<g>
</g>
<g>
</g>
<g>
</g>
<g>
</g>
<g>
</g>
<g>
</g>
<g>
</g>
<g>
</g>
</svg>
