<?xml version="1.0" encoding="iso-8859-1"?>
<!-- Generator: Adobe Illustrator 18.0.0, SVG Export Plug-In . SVG Version: 6.00 Build 0)  -->
<!DOCTYPE svg PUBLIC "-//W3C//DTD SVG 1.1//EN" "http://www.w3.org/Graphics/SVG/1.1/DTD/svg11.dtd">
<svg version="1.1" id="Capa_1" xmlns="http://www.w3.org/2000/svg" xmlns:xlink="http://www.w3.org/1999/xlink" x="0px" y="0px"
	 viewBox="0 0 46.354 46.354" style="enable-background:new 0 0 46.354 46.354;" xml:space="preserve">
<g>
	<path style="fill:#1D1D1B;" d="M43.662,33.728c-2.781-5.732-10.469-6.694-14.948-10.551c-3.704-3.19-5.474-7.607-6.719-12.228
		c-0.741-2.748-1.191-5.8-2.966-8.131c-3.427-4.5-7.865-2.924-11.842-0.04c-0.067,0.049-0.101,0.113-0.11,0.179
		C6.867,3.07,6.657,3.198,6.445,3.361C6.384,3.3,6.296,3.266,6.212,3.32C-3.155,9.285,4.987,27.152,9.87,33.534
		c5.923,7.742,20.611,18.533,29.507,9.211c0.071-0.074,0.087-0.158,0.073-0.236c0.076-0.04,0.127-0.109,0.191-0.165
		c0.07,0.054,0.161,0.082,0.27,0.061C44.11,41.59,45.467,37.448,43.662,33.728z M38.82,42.161c0.185-0.021,0.334-0.072,0.468-0.135
		c-0.057,0.092-0.141,0.167-0.311,0.18c-0.153,0.012-0.234,0.191-0.186,0.309C29.789,51.427,15.067,39.864,9.56,32
		C4.995,25.483-1.292,10.344,6.191,3.868c0.042,0.018,0.088,0.023,0.135-0.007c7.778-4.915,6.486,8.262,6.668,10.361
		c0.109,1.269,0.243,2.121,0.576,3.35c0.886,3.272,2.729,6.215,4.636,8.973c2.84,4.106,5.955,9.134,11.594,8.55
		c0.067-0.007,0.118-0.035,0.161-0.069c1.957-0.008,4.119,0.167,5.875,1.005c0.815,0.389,1.562,0.932,2.152,1.619
		c0.522,0.608,2.196,3.279,0.693,3.999C38.444,41.763,38.551,42.192,38.82,42.161z M38.627,37.402
		c-2.138-2.635-5.422-2.891-8.553-2.742c-0.034-0.106-0.125-0.187-0.274-0.172c-6.015,0.573-10.205-6.546-12.883-11.115
		c-1.656-2.826-2.962-5.848-3.229-9.149c-0.17-2.099,0.201-4.218-0.129-6.309c-0.39-2.472-2.156-5.047-4.353-5.371
		c1.571-0.514,3.027-0.5,4.453,0.881c1.197,1.159,1.615,2.697,2.273,4.159c-0.373,0.247-0.488,0.778-0.176,1.252
		c0.072,0.11,0.282,0.228,0.325,0.338c0.114,0.291-0.083,0.629-0.254,0.83c-0.187,0.221-0.451,0.365-0.631,0.598
		c-0.406,0.523-0.558,1.172-0.408,1.81c0.028,0.117,0.126,0.161,0.222,0.155c0.116,0.3,0.396,0.525,0.764,0.489
		c0.394-0.038,0.505-0.348,0.768-0.573c0.055-0.068,0.11-0.136,0.164-0.204c0.585-0.027,0.751,0.189,0.498,0.648
		c-0.173,0.316-0.543,0.495-0.824,0.698c-0.526,0.381-1.218,1.048-0.807,1.762c0.206,0.358,0.657,0.567,0.996,0.402
		c0.023,0.048,0.068,0.084,0.139,0.066c0.118,0.241,0.236,0.483,0.353,0.724l-0.132,0.15c-0.031,0.076-0.112,0.139-0.149,0.215
		c-0.076,0.158-0.101,0.316-0.069,0.488c0.062,0.337,0.35,0.548,0.652,0.668c0.458,0.182,0.629,0.058,0.959,0.511
		c0.248,0.34,0.205,0.551,0.39,0.879c0.182,0.324,0.45,0.435,0.785,0.343c0.076,0.025,0.161,0.032,0.252,0.026
		c0.242,0.842,0.608,1.614,1.048,2.389c0.433,0.762,0.929,1.646,1.586,2.264c-0.123,0.258-0.147,0.566-0.042,0.86
		c0.215,0.598,0.897,0.97,1.518,1.027c-0.036,0.048-0.039,0.117,0.029,0.163c0.558,0.371-0.089,1.146-0.283,1.536
		c-0.182,0.368-0.26,0.689-0.145,1.087c0.048,0.168,0.226,0.222,0.373,0.152c0.271-0.129,0.586-0.298,0.898-0.298
		c0.524,0,0.55,0.253,0.723,0.724c0.1,0.272,0.127,0.455,0.387,0.632c0.368,0.249,0.828,0.207,1.121-0.1
		c0.365,0.247,0.21,0.946,0.621,1.229c0.435,0.3,0.962,0.045,1.431,0.036c0.714-0.014,1.074,0.737,1.769,0.669
		c0.318-0.031,0.551-0.195,0.532-0.524c-0.001-0.018-0.01-0.033-0.017-0.049c1.565,1.042,3.35,1.429,5.149,2.009
		c1.264,0.408,2.588,0.919,3.575,1.846c1.581,1.484,2.105,4.715-0.059,5.99c-0.022-0.055-0.052-0.109-0.094-0.16
		C40.214,40.166,39.206,38.115,38.627,37.402z M18.47,15.947c0.125,0.371,0.307,0.707,0.491,1.049
		c0.111,0.217,0.235,0.426,0.374,0.627c0.39,0.439,0.344,0.945-0.136,1.517c-0.002-0.005-0.006-0.004-0.009-0.008
		c-0.161-0.395-0.278-1.017-0.522-1.192c-0.231-0.166-0.515-0.199-0.783-0.264c-0.341-0.083-0.373-0.033-0.418-0.414
		c-0.051-0.437,0.039-0.226,0.152-0.508c0.132-0.329,0.241-0.615-0.026-0.925c-0.195-0.227-0.493-0.315-0.774-0.268
		c0.072-0.121-0.055-0.313-0.199-0.255c-0.197,0.125-0.334,0.056-0.41-0.209c-0.294-0.198-0.289-0.419,0.014-0.663
		c0.116-0.14,0.274-0.254,0.418-0.362c0.264-0.196,0.548-0.364,0.775-0.606c0.333-0.355,0.503-0.81,0.313-1.281
		c-0.134-0.333-0.441-0.596-0.816-0.558c-0.194,0.02-0.359,0.123-0.499,0.253c-0.074,0.069-0.131,0.149-0.195,0.226
		c-0.033,0.044-0.065,0.088-0.098,0.132c-0.203,0.378-0.496,0.328-0.874-0.124c0.046-0.641,0.238-1.073,0.73-1.583
		c0.237-0.246,0.545-0.474,0.662-0.811c0.058-0.166,0.063-0.319,0.015-0.487c-0.064-0.227-0.888-1.116-0.464-1.369
		c0.022-0.004,0.042-0.004,0.062-0.016c0.055-0.022,0.109-0.045,0.196-0.05c0.589,0.683,0.607,1.914,0.959,2.738
		c0.544,1.276,0.873,1.934,0.813,3.317C18.19,14.59,18.233,15.245,18.47,15.947z M24.079,26.397
		c0.095-0.044,0.104-0.181,0.014-0.249c-0.329-0.249-0.752-0.356-1.05-0.653c-0.194-0.193-0.298-0.494-0.237-0.753
		c0.065-0.031,0.101-0.095,0.089-0.177c0.015-0.023,0.019-0.051,0.038-0.073c2.075,0.509,1.907,3.157,3.517,4.245
		c0.689,0.465,1.479,1.062,2.166,1.462c0.53,0.309,2.292,0.401,2.092,1.207c-0.046,0.184,0.134,0.285,0.274,0.253
		c-0.434,0.389-0.879-0.315-1.3-0.478c-0.281-0.109-0.56-0.084-0.854-0.05c-0.359,0.042-0.568,0.139-0.905-0.049
		c-0.351-0.194-0.282-0.337-0.471-0.651c-0.119-0.198-0.192-0.29-0.388-0.359c-0.036-0.089-0.153-0.15-0.248-0.099
		c-0.683,0.366-0.785-0.263-1.01-0.779c-0.102-0.234-0.284-0.397-0.513-0.505c-0.447-0.211-0.906-0.113-1.343,0.053
		C24.082,27.991,25.022,26.898,24.079,26.397z M41.861,39.895c0.373-1.458-0.02-3.217-0.952-4.34
		c-2.357-2.839-6.77-2.821-9.781-4.609c-0.007-0.004-0.014,0.001-0.021-0.003c-0.07-0.213-0.222-0.393-0.494-0.551
		c-0.136-0.079-0.306-0.094-0.44-0.156c-0.557-0.255-1.14-0.456-1.695-0.814c-0.314-0.203-0.483-0.377-0.828-0.564
		c-1.739-0.942-1.778-2.132-2.845-3.586c-0.45-0.613-0.974-0.99-1.679-1.104c-0.018-0.104-0.1-0.196-0.222-0.151
		c-0.085,0.031-0.147,0.088-0.216,0.137c-0.428-0.745-1.01-1.43-1.439-2.176c-0.421-0.731-0.78-1.493-1.17-2.24
		c0.755-0.433,0.178-1.554-0.1-2.072c-0.789-1.469-1.257-2.755-1.15-4.451c0.039-0.626,0.151-1.287-0.103-1.889
		c-0.344-0.814-0.721-1.282-0.996-2.199c-0.236-0.788-0.312-1.117-0.979-1.67c-0.091-0.075-0.187-0.06-0.263-0.015
		c-0.058-0.004-0.108,0.005-0.162,0.01c-0.631-3.122-2.951-5.927-5.749-5.772c3.183-1.075,6.674-0.782,8.61,2.61
		c1.308,2.291,1.634,5.073,2.354,7.573c0.92,3.193,2.114,6.335,4.104,9.027c1.741,2.356,3.913,3.963,6.468,5.365
		c1.79,0.983,3.709,1.728,5.475,2.756c1.333,0.709,2.56,1.575,3.681,2.599C44.228,34.349,44.423,37.11,41.861,39.895z"/>
</g>
<g>
</g>
<g>
</g>
<g>
</g>
<g>
</g>
<g>
</g>
<g>
</g>
<g>
</g>
<g>
</g>
<g>
</g>
<g>
</g>
<g>
</g>
<g>
</g>
<g>
</g>
<g>
</g>
<g>
</g>
</svg>
