<?xml version="1.0" encoding="iso-8859-1"?>
<!-- Generator: Adobe Illustrator 18.0.0, SVG Export Plug-In . SVG Version: 6.00 Build 0)  -->
<!DOCTYPE svg PUBLIC "-//W3C//DTD SVG 1.1//EN" "http://www.w3.org/Graphics/SVG/1.1/DTD/svg11.dtd">
<svg version="1.1" id="Capa_1" xmlns="http://www.w3.org/2000/svg" xmlns:xlink="http://www.w3.org/1999/xlink" x="0px" y="0px"
	 viewBox="0 0 63.837 63.837" style="enable-background:new 0 0 63.837 63.837;" xml:space="preserve">
<g>
	<path style="fill:#1D1D1B;" d="M53.466,22.415c0.013-0.013,0.025-0.025,0.038-0.038c0.11-0.109,0.093-0.243,0.023-0.34
		c1.018-0.456,1.657-1.681,1.176-2.776c-0.516-1.172-2.118-1.56-3.157-0.879c0.031-0.649-0.293-1.278-0.853-1.621
		c0.807-1.592,1.605-3.187,2.343-4.803c0.158,0.018,0.288-0.201,0.16-0.337c-0.003-0.003-0.005-0.005-0.008-0.007
		c0.079-0.23-0.148-0.4-0.33-0.302c-0.524-0.497-1.094-0.956-1.651-1.411c0.1-0.295-0.345-0.53-0.535-0.232
		c-2.095,3.297-3.845,6.787-5.23,10.438c-0.003-0.002-0.006-0.005-0.009-0.006c-0.793-0.436-1.799-0.079-2.233,0.683
		c-0.107,0.188,0.171,0.347,0.288,0.169c0.372-0.567,1.179-0.811,1.77-0.425c0.026,0.017,0.044,0.037,0.068,0.055
		c0.028,0.061,0.078,0.107,0.146,0.124c0.366,0.384,0.306,0.893,0.276,1.414c-0.392-0.123-0.818-0.154-1.147-0.087
		c-0.215,0.044-0.121,0.359,0.09,0.325c0.397-0.063,0.801,0.009,1.143,0.223c0.302,0.188,0.446,0.487,0.703,0.713
		c0.096,0.084,0.304,0.038,0.285-0.118c-0.051-0.427-0.356-0.728-0.741-0.922c0.02-0.029,0.039-0.059,0.057-0.088
		c0.044-0.002,0.09-0.011,0.131-0.05c0.417-0.392,0.921-0.461,1.347-0.325c-0.022,0.205,0.239,0.329,0.402,0.215
		c0.364,0.289,0.582,0.768,0.435,1.359c-0.059,0.238,0.218,0.379,0.393,0.229c1.053-0.902,2.158,0.773,0.931,1.493
		c-0.202,0.118-0.066,0.487,0.165,0.392c0.753-0.309,1.161-1.272,0.694-2c-0.374-0.583-1.076-0.697-1.665-0.475
		c0.01-0.604-0.271-1.111-0.693-1.426c0.699-1.449,1.433-2.886,2.164-4.325c0.517,0.321,0.8,0.925,0.652,1.534
		c-0.051,0.21,0.204,0.29,0.318,0.147c0.075,0.044,0.161,0.066,0.25,0.008c0.79-0.516,1.972-0.424,2.476,0.466
		c0.553,0.977-0.219,2.202-1.234,2.421c-0.191,0.041-0.164,0.335,0.006,0.366c-0.021,0.021-0.041,0.041-0.062,0.062
		c-0.049,0.029-0.084,0.076-0.107,0.13c-0.029,0.052-0.041,0.104-0.033,0.156c0.004,0.121,0.068,0.244,0.209,0.3
		c1.52,0.61,2.393,2.548,1.584,4.058c-0.731,1.363-2.408,1.847-3.833,1.472c0.007-0.06,0.021-0.118,0.025-0.18
		c0.018-0.25-0.396-0.31-0.442-0.06c-0.005,0.028-0.017,0.054-0.022,0.081c-0.054-0.022-0.111-0.035-0.164-0.06
		c-0.24-0.113-0.449,0.227-0.211,0.361c0.083,0.047,0.175,0.073,0.261,0.114c-0.423,1.164-1.533,2.1-2.828,2.03
		c-1.66-0.09-2.192-1.547-2.63-2.864c-0.048-0.146-0.206-0.188-0.321-0.13c0.025-0.032,0.053-0.059,0.076-0.092
		c0.094-0.13-0.113-0.285-0.221-0.17c-0.73,0.778-2.032,1.109-3.018,0.72c-1.077-0.425-1.561-1.505-1.558-2.605
		c0.001-0.294-0.465-0.38-0.536-0.095c-0.035-0.001-0.072,0.008-0.105,0.037c-1.251,1.097-4.319,2.562-4.885-0.054
		c-0.063-0.292-0.531-0.228-0.521,0.071c0,0.014,0.005,0.025,0.005,0.039c-0.799,1.18-2.63,0.996-3.381-0.134
		c-0.081-0.122-0.226-0.152-0.351-0.121c-0.206-1.263-1.162-2.44-2.458-2.669c-0.048-0.008-0.091-0.006-0.131,0.004
		c-0.473-0.314-0.769-0.813-0.887-1.363c0.001-0.011,0.011-0.015,0.01-0.028c-0.051-0.842,0.422-1.711,1.274-1.951
		c0.742-0.209,1.418,0.12,1.91,0.646c-0.227,0.246-0.402,0.545-0.508,0.863c-0.048,0.145,0.176,0.24,0.247,0.104
		c0.364-0.685,1.021-0.975,1.74-1.115c0.272-0.053,0.191-0.449-0.063-0.463c-0.327-0.018-0.619,0.075-0.884,0.217
		c-0.656-1.65-0.359-3.901,1.287-4.841c1.625-0.927,3.151-0.117,4.151,1.134c0.101,0.382,0.32,0.725,0.635,0.982
		c0.027,0.053,0.056,0.106,0.082,0.159c0.103,0.216,0.46,0.11,0.449-0.122c-0.031-0.632-0.276-1.189-0.654-1.656
		c0.034-0.351,0.176-0.686,0.461-0.926c0.646-0.545,1.624-0.249,2.084,0.383c0.018,0.075,0.022,0.151,0.046,0.225
		c0.021,0.067,0.076,0.086,0.127,0.079c0.145,0.298,0.631,0.183,0.528-0.165c-0.084-0.286-0.243-0.532-0.442-0.738
		c0.037-0.375,0.144-0.743,0.314-1.087c0.132,0.026,0.277-0.026,0.313-0.188c0.03-0.137,0.041-0.273,0.062-0.41
		c0.354-0.44,0.82-0.784,1.366-0.935c1.579-0.439,2.981,0.853,3.225,2.332c-0.056,0.115-0.105,0.234-0.141,0.358
		c-0.027,0.09-0.003,0.158,0.041,0.206c-0.122,0.054-0.218,0.128-0.397,0.173c-0.058,0.015-0.048,0.115,0.015,0.107
		c0.215-0.026,0.306,0.071,0.474,0.096c0.19,0.029,0.38,0.036,0.569,0.079c0.314,0.071,0.589,0.239,0.897,0.319
		c0.224,0.058,0.418-0.236,0.234-0.403c-0.282-0.256-0.659-0.352-1.031-0.405c-0.009-0.001-0.018-0.002-0.026-0.003
		c0.006-0.023,0.022-0.037,0.023-0.064c0.007-0.163-0.019-0.323-0.037-0.484c0.354-0.453,0.888-0.747,1.463-0.867
		c0.784-0.163,1.391,0.077,2.043,0.485c0.207,0.13,0.506-0.139,0.351-0.351c-0.985-1.346-2.948-1.006-4,0.084
		c-0.485-1.48-1.96-2.625-3.59-2.323c-0.545,0.101-1.011,0.348-1.399,0.677c0.066-4.243-3.964-7.864-8.269-7.329
		c-1.153,0.143-2.148,0.508-3.001,1.026C26.39,0.88,21.085-1.274,16.766,0.796c-3.793,1.818-7.063,7.634-3.759,11.163
		c-2.013,1.424-3.353,3.705-3.585,6.214c-0.091,0.982-0.099,3.253,0.742,4.205c-0.711,0.067-1.275,0.583-1.582,1.365
		c-0.691,1.76,0.749,3.464,1.034,5.13c0.323,1.884-0.598,4.123,0.638,5.793c0.678,0.916,1.61,1.342,2.597,0.977
		c0.082,0.116,0.254,0.163,0.345,0c0.133-0.24,0.256-0.461,0.324-0.727c0.003-0.01-0.004-0.019-0.003-0.029
		c0.057-0.053,0.113-0.106,0.169-0.158c2.25,6.233,7.636,11.248,14.491,12.243c0.077,0.011,0.156,0.017,0.234,0.028
		c-0.206,3.723-0.163,7.458-0.156,11.185c0.001,0.5,0.776,0.501,0.777,0c0.007-3.709,0.05-7.425-0.153-11.13
		c0.908,0.093,1.833,0.112,2.763,0.066c-0.022,0.011-0.048,0.015-0.056,0.041c-0.535,1.715-0.373,3.63-0.365,5.415
		c0.009,2.092,0.012,4.208,0.262,6.286c0.047,0.393,0.629,0.419,0.633,0c0.005-0.542-0.002-1.085-0.015-1.628
		c1.999-0.105,3.969,0.128,5.864,0.821c0.523,0.191,1.136,0.615,1.639,0.544c-0.362,4.252-9.09,4.467-11.786,4.498
		c-1.281,0.015-2.564-0.03-3.839-0.17c-0.834-0.13-1.668-0.26-2.502-0.391c-1.847-0.207-2.88-1.267-3.12-3.158
		c1.255-2.834,7.138-2.529,9.62-2.617c0.327-0.012,0.324-0.486,0-0.506c-2.587-0.159-8.814-0.445-10.184,2.639
		c-0.625,0.36-0.499,1.136-0.145,1.941c0.844,1.924,3.777,2.394,5.568,2.642c3.981,0.549,16.887,1.335,16.992-4.951
		c0.002-0.115-0.054-0.183-0.126-0.229c0.023-0.03,0.049-0.047,0.07-0.082c0.038-0.062,0.038-0.146,0-0.208
		c-0.049-0.08-0.097-0.16-0.146-0.24c-0.099-0.163-0.375-0.059-0.315,0.133c0.095,0.305-1.484-0.37-1.572-0.404
		c-0.733-0.285-1.491-0.502-2.263-0.654c-1.251-0.246-2.508-0.304-3.775-0.227c-0.041-1.345-0.106-2.691-0.118-4.037
		c-0.017-1.797,0.22-3.662-0.198-5.415c-0.008-0.031-0.036-0.036-0.06-0.045c8.581-0.458,17.53-6.697,16.998-15.932
		c-0.002-0.031-0.014-0.055-0.021-0.082c0.933-0.409,1.634-1.257,1.9-2.271c1.724,0.544,3.809-0.109,4.582-1.862
		C55.908,25.283,55.091,23.2,53.466,22.415z M51.042,10.206c0.435,0.422,0.879,0.84,1.336,1.24
		c-0.272,0.062-0.509,0.118-0.834-0.033c-0.359-0.167-0.64-0.499-0.693-0.885C50.916,10.421,50.979,10.313,51.042,10.206z
		 M47.791,21.324c-0.474-0.158-1.017-0.108-1.496,0.234c-0.012-0.392-0.19-0.803-0.452-1.108c0.325-0.796,0.676-1.576,1.03-2.354
		c-0.003,0.279,0.041,0.56,0.149,0.83c0.205,0.511,0.686,1.118,1.286,1.119c0.015,0,0.027-0.01,0.041-0.014
		C48.163,20.462,47.973,20.894,47.791,21.324z M48.468,19.758c-0.009-0.013-0.01-0.029-0.024-0.04
		c-0.365-0.297-0.743-0.468-0.974-0.91c-0.255-0.488-0.283-1.057-0.035-1.551c0.048-0.097,0.001-0.184-0.07-0.224
		c0.389-0.817,0.785-1.631,1.203-2.432c-0.029,0.876,0.432,1.762,1.299,2.077C49.377,17.698,48.917,18.728,48.468,19.758z
		 M50.065,16.286c-0.93-0.475-1.465-1.546-1.049-2.539c0.496-0.919,1.007-1.831,1.545-2.73c0.116,0.299,0.331,0.563,0.615,0.753
		c0.289,0.194,0.793,0.348,1.195,0.267C51.532,13.397,50.777,14.83,50.065,16.286z M28.627,5.785
		c0.603-0.376,1.294-0.674,2.092-0.866c4.915-1.183,8.003,2.944,8.191,7.331c-0.255,0.448-0.389,0.96-0.41,1.486
		c-0.674-0.444-1.604-0.518-2.284-0.026c-0.338,0.245-0.548,0.59-0.66,0.965c-1.15-0.959-2.933-1.307-4.232-0.705
		c-2.083,0.964-2.882,3.896-1.36,5.598c-0.002,0.001-0.005,0.002-0.008,0.003c-0.885-1.294-2.606-1.105-3.496-0.096
		c0.049-1.765-0.414-3.418-1.247-4.82c0.045-0.035,0.078-0.082,0.072-0.151c-0.264-3.203,0.43-6.531,2.856-8.38
		C28.354,6.257,28.713,6.067,28.627,5.785z M18.259,1.026c4.007-1.162,7.582,1.131,9.504,4.489c-2.448,1.859-3.435,5.189-2.976,8.47
		c-2.124-2.945-5.979-4.496-9.933-3.021c-0.493,0.184-0.951,0.429-1.391,0.698C10.261,7.912,14.313,2.17,18.259,1.026z
		 M13.514,34.388c-0.211,0.23-0.426,0.458-0.64,0.685c-3.423,1.189-2.599-3.3-2.56-4.518c0.02-0.626,0.057-1.195-0.057-1.825
		c-0.227-1.258-2.992-6.165,0.572-5.954c0.174,0.037,0.362,0.047,0.578,0.003c0.262-0.053,0.197-0.459-0.062-0.459
		c-2.555-0.006-0.662-6.506-0.124-7.422c0.588-0.999,1.412-1.826,2.366-2.457c0.107,0.002,0.191-0.063,0.233-0.155
		c1.168-0.714,2.518-1.133,3.905-1.159c5.224-0.094,8.467,4.445,7.971,9.339c-0.007,0.073,0.016,0.132,0.05,0.182
		c-0.127,0.949,0.435,1.836,1.273,2.23c-0.015,0.126,0.042,0.254,0.208,0.288c1.605,0.337,2.706,2.388,1.697,3.838
		c-0.85,1.222-2.762,1.194-3.847,0.297c0.143,0.041,0.324-0.028,0.349-0.224c0.182-1.457-1.214-2.638-2.608-2.002
		c-0.638,0.291-0.968,0.853-1.098,1.518c-0.262,1.337-0.134,2.571-1.748,2.932c-0.509,0.114-2.079,0.082-2.768-0.467
		c0.002-0.009,0.01-0.016,0.011-0.026c0.107-1.344-0.686-3.322-2.105-3.701c-0.854-0.228-1.933,0.093-2.294,0.885
		c-0.096,0.044-0.176,0.129-0.19,0.261c-0.272,2.7,0.089,5.384,0.938,7.889C13.547,34.376,13.529,34.371,13.514,34.388z
		 M26.923,45.922c-8.926-2.036-14.041-10.699-13.681-19.444c0.001-0.017-0.006-0.03-0.007-0.045
		c0.423-0.833,1.809-0.738,2.425-0.132c0.571,0.563,0.722,1.293,0.929,2.01c-0.392,1.337,1.891,1.934,3.024,1.857
		c0.777-0.052,1.587-0.289,2.111-0.894c0.281-0.324,0.412-0.673,0.496-1.09c0.053-0.261-0.028-0.589,0.054-0.837
		c-0.064-0.575,0.343-0.822,1.222-0.743c1.028-0.876,1.498-0.719,1.409,0.473c0,0.037,0.022,0.053,0.032,0.081
		c-0.102-0.1-0.207-0.198-0.288-0.316c-0.109-0.159-0.355-0.021-0.261,0.153c0.958,1.756,3.623,2.048,4.908,0.471
		c0.35-0.429,0.532-0.931,0.576-1.446c0.836,1.266,2.876,1.202,3.832,0.087c0.299,0.78,1.076,1.293,1.944,1.404
		c1.461,0.187,2.467-0.751,3.4-1.697c-0.022,1.238,0.695,2.428,1.878,2.904c1.277,0.514,2.478,0.053,3.298-0.914
		c-0.501,1.692,1.33,3.389,2.898,3.552c0.262,0.027,0.515,0.015,0.761-0.019C48.345,41.841,36.122,48.021,26.923,45.922z"/>
	<path style="fill:#1D1D1B;" d="M39.029,17.942c-1.037,0.237-1.66,1.266-1.617,2.268c-0.426-0.7-1.326-1.154-2.07-0.696
		c-0.792,0.487-0.911,1.875-0.017,2.312c0.179,0.087,0.335-0.169,0.158-0.27c-0.604-0.345-0.464-1.313,0.088-1.65
		c0.41-0.251,0.918-0.075,1.244,0.23c0.265,0.248,0.383,0.547,0.463,0.874c-0.101,0.004-0.202,0.01-0.301,0.012
		c-0.208,0.004-0.208,0.319,0,0.323c0.14,0.003,0.283,0.01,0.426,0.017c0.049,0.029,0.111,0.029,0.163,0.007
		c0.488,0.024,0.984,0.047,1.456-0.021c0.163-0.023,0.163-0.305,0-0.329c-0.345-0.05-0.704-0.046-1.063-0.033
		c-0.46-0.946,0.066-2.26,1.123-2.528c1.295-0.328,2.063,0.976,2.068,2.07c0.001,0.244,0.329,0.269,0.407,0.055
		C42.08,19.158,40.418,17.625,39.029,17.942z"/>
</g>
<g>
</g>
<g>
</g>
<g>
</g>
<g>
</g>
<g>
</g>
<g>
</g>
<g>
</g>
<g>
</g>
<g>
</g>
<g>
</g>
<g>
</g>
<g>
</g>
<g>
</g>
<g>
</g>
<g>
</g>
</svg>
