<?xml version="1.0" encoding="iso-8859-1"?>
<!-- Generator: Adobe Illustrator 18.0.0, SVG Export Plug-In . SVG Version: 6.00 Build 0)  -->
<!DOCTYPE svg PUBLIC "-//W3C//DTD SVG 1.1//EN" "http://www.w3.org/Graphics/SVG/1.1/DTD/svg11.dtd">
<svg version="1.1" id="Capa_1" xmlns="http://www.w3.org/2000/svg" xmlns:xlink="http://www.w3.org/1999/xlink" x="0px" y="0px"
	 viewBox="0 0 51.627 51.627" style="enable-background:new 0 0 51.627 51.627;" xml:space="preserve">
<g>
	<path style="fill:#1D1D1B;" d="M34.052,18.234c-0.123-3.509,0.103-7.229-0.661-10.671c-0.929-4.185-3.858-8.132-8.427-7.495
		c-4.158,0.122-6.389,3.8-6.98,7.73c-1.066,7.09-0.251,15.461,0.037,22.639c-0.046,0.022-0.085,0.059-0.097,0.133
		c-0.214,1.262,0.126,2.559,0.653,3.71c-0.121,0.111-0.079,0.344,0.093,0.399c0.738,0.232,1.618,0.144,2.381,0.093
		c0.588-0.039,1.265-0.034,1.743-0.404c0.016-0.013,0.022-0.035,0.019-0.057c-0.029,2.865,0.087,5.731,0.201,8.594
		c0.087,2.197-0.318,4.961,0.768,6.947c0.02,0.04,0.039,0.081,0.06,0.119c0.026,0.044,0.041,0.093,0.069,0.136
		c0.014,0.022,0.031,0.03,0.047,0.044c0.526,0.807,1.372,1.351,2.369,1.46c1.048,0.115,2.729-0.419,2.553-1.737
		c-0.013-0.095-0.101-0.147-0.18-0.138c0.485-5.045,0.316-10.239-0.096-15.307c1.164,0.089,2.479,0.07,3.579-0.287
		c0.168-0.054,0.201-0.239,0.133-0.366c0.533-1.042,0.813-2.163,0.905-3.328c0.149,0.118,0.384,0.117,0.426-0.119
		C34.358,26.305,34.195,22.304,34.052,18.234z M24.311,49.904c-0.003-0.01,0.003-0.019-0.002-0.029
		c-1.111-2.486-0.682-6.31-0.774-8.967c-0.096-2.756-0.133-5.512-0.307-8.264c1.155,0.069,2.367,0.068,3.512-0.078
		c0.075-0.009,0.13-0.045,0.17-0.089c-0.001,0.009-0.005,0.014-0.005,0.024c0.176,5.563,1.126,11.71,0.281,17.242
		c-0.44,0.37-0.871,0.675-1.511,0.662C25.185,50.395,24.708,50.197,24.311,49.904z M25.572,50.916
		c0.035,0.002,0.067,0.012,0.103,0.012c0.816,0.012,1.794-0.404,2.13-1.187c0.069-0.162-0.047-0.311-0.189-0.304
		c0.536-2.246,0.229-4.685,0.178-6.972c-0.073-3.305-0.164-6.61-0.352-9.91c0.183,0.094,0.368,0.186,0.558,0.257
		c0.347,5.788,0.269,11.532,0.369,17.323c0.001,0.055,0.025,0.09,0.056,0.113C27.883,51.372,26.653,51.391,25.572,50.916z
		 M31.998,33.659c-1.134,0.035-2.295,0.223-3.43,0.334c-0.032-0.377-0.062-0.756-0.096-1.131c0.082-0.071,0.105-0.204-0.015-0.276
		c-0.013-0.008-0.028-0.01-0.041-0.017c-0.056-0.12-0.182-0.161-0.29-0.122c-0.318-0.128-0.657-0.221-0.978-0.322
		c-0.108-0.034-0.185,0.091-0.149,0.177c-0.011,0.008-0.018,0.022-0.027,0.032c0.017-0.129-0.051-0.263-0.232-0.269
		c-1.161-0.042-2.378,0.069-3.531,0.242c-0.001-0.018-0.002-0.037-0.003-0.055c-0.015-0.224-0.343-0.228-0.352,0
		c-0.027,0.687-0.034,1.374-0.041,2.061c-0.003-0.021-0.015-0.042-0.033-0.05c-0.575-0.261-1.264-0.116-1.884-0.101
		c-0.662,0.016-1.356-0.056-2.014,0.035c-0.306-1.177-0.376-2.352-0.53-3.554c0,0,0,0,0-0.001c0.002-0.034,0.003-0.068,0.005-0.102
		c0.937,0.71,2.99-0.135,4.067-0.129c3.244,0.018,6.445,0.193,9.69-0.037c0.016-0.001,0.022-0.015,0.037-0.019
		c0.03,0.013,0.047,0.038,0.085,0.039c0.14,0.005,0.28,0.011,0.42,0.017C32.522,31.511,32.285,32.587,31.998,33.659z M33.133,29.937
		c-0.048-0.035-0.1-0.067-0.158-0.067c-0.246,0-0.492-0.004-0.738-0.009c-0.034-0.001-0.05,0.023-0.077,0.031
		c-0.018-0.003-0.025-0.018-0.045-0.017c-2.645,0.107-5.267,0.121-7.912,0.011c-1.182-0.049-2.357-0.137-3.538-0.007
		c-0.609,0.067-1.645,0.512-2.289,0.3c0.287-4.421,0.197-8.876,0.133-13.303c-0.085-5.906-1.483-15.809,7.062-16.39
		c7.544,0.33,7.521,9.214,7.746,14.94C33.507,20.285,33.855,25.108,33.133,29.937z"/>
</g>
<g>
</g>
<g>
</g>
<g>
</g>
<g>
</g>
<g>
</g>
<g>
</g>
<g>
</g>
<g>
</g>
<g>
</g>
<g>
</g>
<g>
</g>
<g>
</g>
<g>
</g>
<g>
</g>
<g>
</g>
</svg>
