<?xml version="1.0" encoding="iso-8859-1"?>
<!-- Generator: Adobe Illustrator 18.0.0, SVG Export Plug-In . SVG Version: 6.00 Build 0)  -->
<!DOCTYPE svg PUBLIC "-//W3C//DTD SVG 1.1//EN" "http://www.w3.org/Graphics/SVG/1.1/DTD/svg11.dtd">
<svg version="1.1" id="Capa_1" xmlns="http://www.w3.org/2000/svg" xmlns:xlink="http://www.w3.org/1999/xlink" x="0px" y="0px"
	 viewBox="0 0 55.466 55.466" style="enable-background:new 0 0 55.466 55.466;" xml:space="preserve">
<g>
	
		<line style="fill:none;stroke:#1D1D1B;stroke-width:0;stroke-linecap:round;stroke-linejoin:round;" x1="8.047" y1="18.703" x2="8.047" y2="18.698"/>
	<path style="fill:#1D1D1B;" d="M18.415,16.706c-0.137-0.139-0.325,0.064-0.209,0.209c0.176,0.221,0.17,0.404,0.179,0.659
		c0.006,0.176,0.249,0.207,0.304,0.041C18.803,17.27,18.662,16.956,18.415,16.706z"/>
	<path style="fill:#1D1D1B;" d="M18.786,18.522c-0.441,0.029-0.94-0.272-0.855-0.783c0.027-0.161-0.195-0.228-0.247-0.068
		c-0.229,0.701,0.474,1.461,1.178,1.13C18.995,18.737,18.93,18.512,18.786,18.522z"/>
	<path style="fill:#1D1D1B;" d="M18.288,19.481c-0.604-0.067-1.365,0.646-0.911,1.227c0.075,0.096,0.245,0.038,0.27-0.071
		c0.09-0.39,0.101-0.822,0.64-0.839C18.496,19.791,18.486,19.503,18.288,19.481z"/>
	<path style="fill:#1D1D1B;" d="M17.214,19.169c-0.422-0.119-0.659-0.387-0.92-0.715c-0.106-0.133-0.341,0.011-0.285,0.166
		c0.178,0.496,0.615,0.764,1.124,0.841C17.321,19.489,17.406,19.224,17.214,19.169z"/>
	<path style="fill:#1D1D1B;" d="M22.465,20.236c-0.028,0.099-0.089,0.173-0.182,0.221c-0.204,0.249-0.369,0.128-0.498-0.36
		c0.055-0.214-0.261-0.298-0.329-0.091c-0.336,1.021,1.268,1.344,1.313,0.312C22.776,20.162,22.535,20.088,22.465,20.236z"/>
	<path style="fill:#1D1D1B;" d="M22.38,19.599c-0.084,0.114,0.098,0.248,0.193,0.149c0.352-0.364,0.751-0.032,0.807,0.369
		c0.023,0.163,0.28,0.148,0.315,0C23.889,19.298,22.837,18.983,22.38,19.599z"/>
	<path style="fill:#1D1D1B;" d="M25.128,20.174c-0.058-0.175-0.282-0.127-0.304,0.041c-0.045,0.352-0.44,0.631-0.771,0.431
		c-0.139-0.084-0.294,0.112-0.175,0.226C24.373,21.344,25.366,20.891,25.128,20.174z"/>
	<path style="fill:#1D1D1B;" d="M22.341,17.162c-0.173-0.068-0.271,0.172-0.168,0.288c0.116,0.13,0.186,0.401-0.04,0.483
		c-0.17,0.062-0.104,0.308,0.075,0.271C22.708,18.103,22.838,17.358,22.341,17.162z"/>
	<path style="fill:#1D1D1B;" d="M49.14,2.459c-0.261-1.303-1.415-2.303-2.716-2.458c-0.059-0.007-0.102,0.017-0.133,0.053
		c-0.082-0.032-0.171-0.035-0.236,0.046c-0.018,0.022-0.034,0.045-0.052,0.067c-0.061,0.022-0.115,0.066-0.122,0.154
		c0,0.002,0,0.003,0,0.005c-2.407,3.027-4.721,6.152-6.972,9.297c-0.019-0.686-0.34-1.354-1.022-1.629
		c-0.506-0.205-1.183-0.114-1.616,0.237c-0.307-0.892-1.107-1.576-2.131-1.445c-0.587,0.076-1.069,0.493-1.272,1.002
		c-0.367-0.717-0.914-1.408-1.59-1.609c-0.633-0.188-1.179,0.119-1.484,0.621c-0.803-0.926-2.064-1.809-3.046-0.577
		c-0.806,1.011-0.33,2.202,0.443,3.05c-0.541-0.05-1.096,0.003-1.518,0.373c-0.198,0.173-0.323,0.379-0.391,0.599
		c-1.19-3.427-4.893-4.998-8.32-3.945c-1.955,0.6-5.859,3.945-4.066,6.331c-1.25,0.169-2.436,0.687-3.334,1.626
		c-0.719,0.751-1.651,2.029-1.823,3.221c-0.001,0-0.002-0.001-0.003,0c-0.791,0.195-1.245,0.915-1.3,1.67
		c-1.53,10.608,7.478,16.391,16.954,16.947c-0.021,3.813-0.19,7.414-0.784,11.078c-2.925,0.077-11.779-0.83-12.703,3.232
		c-0.067,0.022-0.124,0.071-0.117,0.159c0.009,0.116,0.029,0.224,0.045,0.335c-0.012,0.179-0.014,0.363,0.003,0.558
		c0.008,0.092,0.081,0.154,0.161,0.175c1.682,5.128,12.542,3.684,16.373,3.534c4.005-0.157,13.189,1.156,12.59-4.924
		c1.234-4.381-9.873-3.727-12.247-3.617c-0.514-3.433-0.017-7.132-0.184-10.543c9.726-0.618,18.772-6.806,16.183-19.02
		c-0.018-0.086-0.062-0.141-0.115-0.179c-0.164-0.581-0.612-1.065-1.241-1.15c0.313-0.493,0.529-1.041,0.32-1.625
		c-0.175-0.488-0.602-0.865-1.085-0.815c3.032-3.205,5.911-6.664,8.378-10.291c0.037-0.032,0.065-0.063,0.078-0.109
		c0.039-0.058,0.084-0.114,0.123-0.172C49.228,2.63,49.197,2.536,49.14,2.459z M14.887,8.212c0.804-0.734,1.87-1.227,2.926-1.444
		c2.989-0.616,5.827,0.882,6.891,3.747c0.012,0.033,0.031,0.056,0.05,0.081c-0.169-0.05-0.341-0.088-0.524-0.075
		c-0.347,0.025-0.69,0.159-0.918,0.431c-0.261,0.31-0.35,0.795-0.159,1.131c-1.574,0.342-2.937,1.366-3.651,3.286
		c-1.052-1.387-2.675-2.415-4.523-2.712c-0.531-0.085-1.072-0.107-1.607-0.073c0-0.035-0.016-0.069-0.047-0.09
		C12.224,11.758,14.365,8.688,14.887,8.212z M19.748,15.735c3.881-6.629,14.362-1.059,11.067,5.936
		c-2.346,0.177-4.633,0.147-6.378,0.164c-0.62,0.006-2.348-0.007-4.457-0.107C21.179,19.687,20.895,17.476,19.748,15.735z
		 M15.768,13.58c3.487,1.146,5.411,4.809,3.391,8.107c-4.547-0.255-10.334-0.926-10.96-2.628c0.059-0.01,0.109-0.06,0.095-0.14
		C7.617,14.956,12.6,12.539,15.768,13.58z M38.36,49.728c0.569,6.9-25.092,6.537-28.009,1.285c1.337-4.23,8.664-2.806,12.187-3.454
		c-0.192,1.131-0.421,2.269-0.705,3.422c-0.088,0.36,0.438,0.502,0.552,0.152c1.539-4.687,2.212-10.114,1.388-15.021
		c0.78,0.034,1.562,0.028,2.341-0.008c-0.426,4.546-1.332,10.791,1.277,14.76c0.21,0.32,0.687,0.042,0.513-0.3
		c-0.552-1.083-0.89-2.227-1.106-3.405C29.307,47.152,37.56,46.749,38.36,49.728z M41.491,17.876
		c0.098-0.168,0.015-0.32-0.116-0.387c0.185-0.34,0.342-0.698,0.241-1.064c0.219,0.142,0.404,0.315,0.531,0.537
		c-0.057,0.07-0.09,0.162-0.069,0.273c2.19,11.66-7.041,19.138-18.113,18.185C14.426,34.6,6.447,29.688,6.8,19.19
		c0.142-0.477,0.488-0.861,0.919-1.139c0.017,0.189,0.058,0.373,0.13,0.548c-0.016,0.017-0.037,0.03-0.045,0.056
		c-1.076,3.517,11.783,3.726,13.931,3.809C27.051,22.668,38.318,23.313,41.491,17.876z M40.482,16.025
		c-0.176,0.233,0.154,0.491,0.374,0.374c0.099,0.163,0.197,0.326,0.296,0.488c-0.033,0.112-0.074,0.222-0.121,0.329
		c-0.071,0.184-0.132,0.343-0.175,0.535c-1.859,2.552-5.59,3.502-9.312,3.855c2.53-5.433-3.308-10.148-7.853-9.615
		c-0.031-0.07-0.058-0.141-0.053-0.188c0.162-0.233,0.323-0.466,0.485-0.699c0.219-0.042,0.429-0.029,0.63,0.041
		c0.308,0.076,0.512,0.189,0.834,0.153c0.201-0.023,0.33-0.208,0.229-0.4c-0.569-1.091,0.986-1.248,1.756-1.257
		c0.067,0.058,0.133,0.121,0.202,0.173c0.217,0.165,0.477-0.188,0.288-0.373c-0.561-0.547-0.947-0.946-1.069-1.751
		C26.63,6.659,27.267,6.287,28.9,6.574c0.276,0.255,0.52,0.538,0.732,0.85c0.129,0.174,0.412,0.17,0.479-0.063
		c0.495-1.733,1.787-0.115,2.137,0.326c0.192,0.242,0.364,0.497,0.533,0.753c0.024,0.196,0.083,0.391,0.211,0.575
		c-0.073,0.128-0.114,0.268-0.105,0.408c0.004,0.063,0.079,0.127,0.14,0.08c0.173-0.131,0.301-0.314,0.486-0.429
		c0.198-0.124,0.427-0.143,0.63-0.255c0.146-0.08,0.107-0.302-0.045-0.347c-0.252-0.074-0.553,0.02-0.792,0.199
		c-0.129-0.756,0.351-1.445,1.217-1.367c0.754,0.068,1.196,0.638,1.446,1.284c-0.046,0.09-0.08,0.188-0.1,0.294
		c-0.035,0.193,0.178,0.323,0.32,0.222c0.094,0.042,0.229-0.007,0.226-0.134c-0.001-0.044-0.012-0.086-0.015-0.129
		c0.336-0.411,0.882-0.611,1.396-0.331c0.6,0.327,0.77,1.115,0.656,1.744c-0.173,0.243-0.354,0.483-0.527,0.726
		c-0.434,0.424-0.869,0.833-1.244,1.325c-0.044,0.058-0.052,0.119-0.04,0.176c-0.039,0.019-0.073,0.046-0.108,0.07
		c-0.113-0.34-0.353-0.632-0.706-0.751c-0.626-0.212-1.363,0.244-1.348,0.923c0.003,0.151,0.253,0.2,0.276,0.037
		c0.07-0.481,0.592-0.783,1.029-0.536c0.442,0.25,0.43,0.75,0.327,1.18c-0.051,0.217,0.272,0.378,0.376,0.158
		c0.09-0.19,0.123-0.405,0.113-0.619c0.3-0.288,0.924-0.028,1.054,0.428c0.126,0.442-0.106,0.801-0.266,1.187
		c-0.159-0.159-0.325-0.312-0.478-0.469c-0.13-0.134-0.315,0.062-0.201,0.201c0.271,0.332,0.533,0.741,0.865,1.011
		c0.138,0.113,0.376-0.03,0.265-0.204c-0.037-0.058-0.086-0.108-0.133-0.16c0.398-0.308,1.039-0.062,0.839,0.53
		c-0.073,0.216,0.229,0.385,0.381,0.222c0.198-0.213,0.546-0.2,0.553,0.139c0.004,0.19-0.037,0.213-0.135,0.36
		c-0.125,0.188,0.111,0.359,0.281,0.281c0.435-0.197,0.472-0.834,0.172-1.167c-0.215-0.238-0.541-0.275-0.822-0.177
		c-0.013-0.053-0.044-0.095-0.065-0.144c0.041-0.009,0.083-0.012,0.122-0.051c0.411-0.415,0.81-0.852,1.216-1.277
		c0.026,0.044,0.062,0.082,0.113,0.095C41.728,14.09,41.034,15.292,40.482,16.025z M38.684,14.584
		c-0.016,0.019-0.01,0.039-0.02,0.058c-0.193-0.165-0.439-0.254-0.684-0.204c0.306-0.622,0.226-1.465-0.36-1.879
		c-0.105-0.075-0.222-0.115-0.34-0.142c0.251-0.29,0.479-0.593,0.696-0.904c0.956-0.37,2.497-3.046,3.018-3.757
		c-0.526,1.213-0.547,2.775,0.283,3.819C40.421,12.583,39.564,13.59,38.684,14.584z M41.625,11.17
		c-0.456-1.351-0.695-2.473-0.089-3.903c0.031-0.074-0.001-0.141-0.053-0.172c0.981-1.305,1.96-2.611,2.928-3.927
		c-0.317,1.35-0.318,2.862,0.541,3.984C43.855,8.501,42.746,9.839,41.625,11.17z M45.298,6.727
		c-0.798-1.289-0.532-2.705-0.432-4.166c0-0.005-0.003-0.006-0.004-0.011c0.363-0.498,0.733-0.991,1.09-1.492
		c0.255,1.044,1.189,1.94,2.262,2.043C47.245,4.317,46.274,5.524,45.298,6.727z M46.296,0.586c0.045-0.063,0.092-0.125,0.137-0.188
		c1.056,0.287,1.794,1.056,2.095,2.092C47.443,2.37,46.516,1.694,46.296,0.586z"/>
	<path style="fill:#1D1D1B;" d="M37.81,17.396c-0.382,0.098-0.611,0.421-0.679,0.781c-0.121-0.216-0.343-0.373-0.61-0.41
		c-0.347-0.049-0.648,0.11-0.914,0.315c-0.194-0.536-0.765-0.935-1.351-0.711c-0.674,0.258-0.798,1.076-0.39,1.606
		c0.069,0.09,0.221,0.011,0.158-0.092c-0.224-0.367-0.071-0.905,0.324-1.059c0.468-0.183,0.894,0.219,0.856,0.707
		c-0.017,0.217,0.265,0.297,0.406,0.168c0.216-0.198,1.07-0.818,1.159-0.137c0.008,0.059,0.038,0.099,0.07,0.135
		c-0.238,0.073-0.474,0.154-0.708,0.223c-0.173,0.051-0.1,0.302,0.074,0.268c0.496-0.097,1.042-0.145,1.512-0.331
		c0.167-0.066,0.168-0.367-0.047-0.345c-0.05,0.005-0.1,0.019-0.151,0.028c-0.042-0.355,0.194-0.759,0.604-0.68
		c0.264,0.051,0.391,0.286,0.55,0.475c0.116,0.138,0.331,0.019,0.336-0.139C39.028,17.616,38.322,17.265,37.81,17.396z"/>
	<path style="fill:#1D1D1B;" d="M21.333,8.122c-0.093,0.042-0.191,0.07-0.293,0.084c-0.389-0.092-0.463-0.293-0.223-0.603
		c0.166-0.171-0.078-0.399-0.256-0.256c-0.868,0.698,0.379,1.893,0.961,1.02C21.599,8.252,21.469,8.07,21.333,8.122z"/>
	<path style="fill:#1D1D1B;" d="M22.036,7.883c-0.097-0.128-0.308-0.017-0.222,0.13c0.149,0.255,0.051,0.497-0.133,0.696
		c-0.121,0.131,0.034,0.353,0.196,0.254C22.26,8.728,22.297,8.227,22.036,7.883z"/>
	<path style="fill:#1D1D1B;" d="M22.185,9.701c-0.383,0.452-1.023,0.513-1.231-0.151c-0.042-0.136-0.27-0.12-0.259,0.035
		c0.069,0.991,1.463,1.294,1.81,0.302C22.567,9.71,22.307,9.556,22.185,9.701z"/>
</g>
<g>
</g>
<g>
</g>
<g>
</g>
<g>
</g>
<g>
</g>
<g>
</g>
<g>
</g>
<g>
</g>
<g>
</g>
<g>
</g>
<g>
</g>
<g>
</g>
<g>
</g>
<g>
</g>
<g>
</g>
</svg>
