<?xml version="1.0" encoding="iso-8859-1"?>
<!-- Generator: Adobe Illustrator 18.0.0, SVG Export Plug-In . SVG Version: 6.00 Build 0)  -->
<!DOCTYPE svg PUBLIC "-//W3C//DTD SVG 1.1//EN" "http://www.w3.org/Graphics/SVG/1.1/DTD/svg11.dtd">
<svg version="1.1" id="Capa_1" xmlns="http://www.w3.org/2000/svg" xmlns:xlink="http://www.w3.org/1999/xlink" x="0px" y="0px"
	 viewBox="0 0 58.569 58.569" style="enable-background:new 0 0 58.569 58.569;" xml:space="preserve">
<g>
	<path style="fill:#1D1D1B;" d="M55.097,29.084c-0.023-0.201-0.247-0.312-0.406-0.254c-0.039-0.089-0.109-0.163-0.221-0.189
		c-2.451-0.574-5.15-0.708-7.636-0.318c-0.036,0.006-0.05,0.03-0.074,0.046c-0.134-0.038-0.291,0.022-0.302,0.211
		c-0.068,1.169-0.094,2.375-0.076,3.583c-0.019-0.002-0.035-0.008-0.057-0.007c-5.355,0.479,0.18-11.891,0.634-13.936
		c0.561-2.526,0.579-5.029-0.162-7.523c-1.493-5.021-5.559-8.986-10.65-10.228C25.716-2.077,16.532,6.103,16.038,16.177
		c-2.492-0.292-5.481-0.859-7.401,0.253c-2.297,1.331-3.863,6.059-4.98,8.277c-0.005,0.01,0.001,0.017-0.002,0.027
		c-0.059,0.035-0.107,0.088-0.111,0.18C3.253,32.589,3.596,40.321,3.688,48c0.022,1.856-1.228,8.376,1.17,9.601
		c0.004,0.093,0.066,0.188,0.188,0.2c7.898,0.758,16.081,0.921,24.009,0.64c0.139-0.005,0.206-0.095,0.235-0.196
		c2.887-2.385,1.304-8.627,1.255-11.827c-0.113-7.332-0.203-14.666-0.353-21.997c-0.001-0.045-0.013-0.083-0.027-0.119
		c0.137-0.093,0.215-0.265,0.102-0.448c-1.328-2.157-2.589-5.441-4.67-7.032c-2.227-1.702-5.018-0.542-7.567-0.507
		c-0.438,0.006-0.922-0.027-1.431-0.078c0.634-6.628,4.266-12.723,11.033-14.834c7.673-2.394,16.119,1.616,18.461,9.488
		c1.873,6.297-2.066,11.005-2.739,16.971c-0.277,2.453-0.054,5.18,2.97,4.871c0.025-0.003,0.045-0.013,0.066-0.02
		c0.036,1.277,0.128,2.55,0.302,3.777c0.025,0.173,0.177,0.212,0.313,0.171c0.047,0.063,0.11,0.109,0.203,0.102
		c2.46-0.178,4.882-0.15,7.343-0.135c0.326,0.002,0.4-0.323,0.262-0.528C54.998,33.822,55.354,31.352,55.097,29.084z M17.179,16.989
		c1.01,0.01,2.462-0.276,3.487-0.157c5.77,0.671,6.5,3.379,8.965,7.33c-0.073,0.054-0.124,0.138-0.122,0.258
		c0.056,5.42,0.153,10.839,0.236,16.259c0.039,2.55,0.079,5.101,0.118,7.651c0.039,2.545,0.902,7.429-0.854,9.567
		c-7.778-0.285-15.639-0.498-23.424-0.488c-0.027-0.042-0.063-0.082-0.127-0.102C3.227,56.62,4.313,42.45,4.29,40.305
		C4.235,35.197,4.31,30.066,4.007,24.966c0.013-0.013,0.031-0.012,0.042-0.03c2.111-3.268,3.426-7.398,8.004-8.242
		c1.213-0.223,2.646,0.059,3.968,0.21c-0.003,0.493,0.006,0.989,0.046,1.489c0.021,0.267,0.422,0.275,0.422,0
		c-0.001-0.48,0.015-0.96,0.045-1.437C16.754,16.974,16.97,16.986,17.179,16.989z M47.226,36.202
		c0.096-2.437-0.05-4.979-0.265-7.409c2.496,0.113,4.929,0.273,7.412,0.569c0.046,0.005,0.086-0.001,0.123-0.012
		c-0.354,2.117-0.245,4.42-0.235,6.566C51.934,35.663,49.528,35.819,47.226,36.202z"/>
</g>
<g>
</g>
<g>
</g>
<g>
</g>
<g>
</g>
<g>
</g>
<g>
</g>
<g>
</g>
<g>
</g>
<g>
</g>
<g>
</g>
<g>
</g>
<g>
</g>
<g>
</g>
<g>
</g>
<g>
</g>
</svg>
