<?xml version="1.0" encoding="iso-8859-1"?>
<!-- Generator: Adobe Illustrator 18.0.0, SVG Export Plug-In . SVG Version: 6.00 Build 0)  -->
<!DOCTYPE svg PUBLIC "-//W3C//DTD SVG 1.1//EN" "http://www.w3.org/Graphics/SVG/1.1/DTD/svg11.dtd">
<svg version="1.1" id="Capa_1" xmlns="http://www.w3.org/2000/svg" xmlns:xlink="http://www.w3.org/1999/xlink" x="0px" y="0px"
	 viewBox="0 0 53.494 53.494" style="enable-background:new 0 0 53.494 53.494;" xml:space="preserve">
<g>
	<path style="fill:#1D1D1B;" d="M42.254,33.105c-0.011-5.066-0.112-10.14-0.316-15.202c-0.104-2.574-0.125-4.491-2.549-5.755
		c-0.021-0.068-0.057-0.131-0.113-0.171c-0.043-0.564-0.007-1.153-0.043-1.708c-0.046-0.73-0.103-1.459-0.161-2.189
		c-0.008-0.096-0.054-0.164-0.116-0.211c0-0.061-0.019-0.124-0.066-0.183c-2.499-3.134-6.324-5.466-10.398-5.634
		c-0.276-1.109-1.345-2.098-2.505-1.938c-0.014-0.038-0.04-0.07-0.091-0.08c-1.406-0.272-2.622,1.088-2.849,2.414
		c-0.042-0.025-0.094-0.039-0.156-0.024c-3.495,0.808-7.262,2.081-9.31,5.245c-0.044,0.068-0.04,0.136-0.013,0.196
		c-0.017,0.029-0.041,0.051-0.044,0.091c-0.111,1.398-0.377,3.162-0.006,4.546c-3.147,2.872-2.465,7.578-2.467,11.474
		c-0.003,7.242-0.032,14.495,0.198,21.734c0.004,0.129,0.086,0.194,0.18,0.227c-0.303,1.61,0.916,2.66,2.986,3.329
		c-0.13,0.718-0.149,1.443-0.059,2.167c0.058,0.464,0.085,1.094,0.577,1.31c0.036,0.016,0.069,0.012,0.103,0.018
		c0.015,0.024,0.035,0.044,0.058,0.058c2.093,1.254,6.502,0.382,8.777,0.322c4.95-0.129,9.901-0.25,14.851-0.385
		c0.011,0,0.018-0.006,0.029-0.007c0.033,0.004,0.06-0.011,0.092-0.021c0.015-0.006,0.029-0.012,0.042-0.02
		c0.023-0.013,0.049-0.01,0.068-0.033c0.438-0.52,0.754-1.096,0.877-1.77c0.085-0.467,0.128-1.096-0.06-1.573
		c0.081-0.063,0.124-0.161,0.122-0.26c1.06-0.246,1.514-0.874,1.932-2.252C43.029,42.86,42.263,37.201,42.254,33.105z
		 M38.673,10.943c0.032,0.371,0.043,0.765,0.165,1.115c-3.42,2.113-7.713,2.524-11.656,2.651c-2.436,0.078-11.822,0.33-13.064-2.28
		c-0.02-0.043-0.051-0.066-0.085-0.076c0.076-0.624,0.006-1.278-0.008-1.903c-0.015-0.629-0.037-1.259-0.056-1.888
		c6.853,3.092,18.333,4.937,24.539-0.305C38.554,9.153,38.596,10.049,38.673,10.943z M25.516,0.381
		c-0.014,0.106,0.029,0.213,0.159,0.233c1.03,0.158,1.997,0.5,2.219,1.655c0.228,1.182-0.694,2.294-1.853,2.424
		c-1.061,0.12-2.359-0.547-2.411-1.732C23.585,1.902,24.446,0.636,25.516,0.381z M13.966,7.966c2.492-2.913,5.496-3.96,9.04-5.128
		c0.002-0.001,0.002-0.003,0.005-0.004c-0.022,1.49,1.394,2.533,2.813,2.518c1.494-0.016,2.729-1.238,2.744-2.738
		c0-0.05-0.013-0.099-0.016-0.149c3.818,0.786,7.063,2.319,9.646,5.294c-6.448,5.228-17.228,2.886-24.245,0.314
		c-0.001-0.033-0.002-0.067-0.003-0.1C13.956,7.969,13.962,7.971,13.966,7.966z M39.148,50.767c-0.073,0.47-0.249,0.902-0.48,1.311
		c-4.058,0.117-8.117,0.239-12.175,0.367c-1.398,0.044-9.616,0.971-11.056,0.127c0.084-0.135-0.012-0.308-0.149-0.365
		c-0.397-0.167-0.336-1.243-0.37-1.59c-0.04-0.407-0.07-0.812-0.101-1.219c6.612,1.882,20.766,0.312,24.296,0.038
		C39.112,49.874,39.219,50.312,39.148,50.767z M39.29,48.8c-4.251,0.141-8.5,0.309-12.752,0.394
		c-3.076,0.061-16.154,1.777-14.629-4.092c0.02-0.076-0.058-0.135-0.122-0.124c0.017-5.024-0.065-10.049-0.075-15.073
		c-0.01-5.148-1.374-12.87,2.133-17.125c0.023-0.006,0.049,0.005,0.068-0.008c0.905,2.436,7.522,2.375,9.685,2.521
		c4.896,0.332,11.176,0.182,15.431-2.645c0.015,0.012,0.024,0.026,0.043,0.036c1.637,0.878,2.063,4.497,2.257,6.17
		c0.144,1.24,0.07,2.552,0.102,3.8c0.073,2.85,0.137,5.7,0.164,8.551C41.624,34.304,43.033,47.132,39.29,48.8z"/>
	<path style="fill:#1D1D1B;" d="M40.466,35.029c-0.024-4.034-0.098-8.068-0.312-12.096c-0.004-0.078-0.04-0.133-0.084-0.175
		c0.004-1.12-1.082-2.071-2.214-1.935c-0.829,0.1-1.611,0.913-1.689,1.757c-0.843-0.605-2.139-0.252-2.541,0.427
		c-0.858-0.814-2.188-1.032-3.076,0.015c-0.525,0.619-0.52,1.525-0.14,2.163c-0.635-0.034-1.253,0.129-1.658,0.687
		c-0.19,0.262-0.264,0.606-0.231,0.93c-0.599-0.322-1.357-0.333-1.986,0.02c-0.781,0.438-1.057,1.245-1.102,2.081
		c-0.358-0.746-1.414-1.316-2.127-1.227c-0.898,0.113-1.553,0.897-1.661,1.753c-0.479-0.506-1.318-0.712-1.971-0.468
		c-0.935,0.351-1.318,1.36-1.178,2.284c-0.48-0.094-0.981,0.03-1.33,0.439c-0.198,0.232-0.3,0.483-0.336,0.741
		c-0.296-0.55-0.903-0.973-1.517-1.045c-0.794-0.093-1.831,0.32-2.205,1.041c-0.02,0.015-0.026,0.041-0.04,0.064
		c-0.007,0.016-0.015,0.032-0.021,0.048c-0.005,0.018-0.02,0.026-0.021,0.047c0,0.018-0.002,0.041-0.003,0.06
		c-0.052,0.171-0.06,0.357-0.028,0.555c-0.242,3.69-1.61,10.928,1.134,13.517c1.345,1.269,3.626,1.154,5.309,1.28
		c4.057,0.304,8.153,0.302,12.213,0.06c3.191-0.191,7.211,0.33,8.559-3.104C41.204,42.41,40.481,37.692,40.466,35.029z
		 M39.761,42.475c-0.862,4.735-3.286,4.607-7.173,4.886c-4.091,0.294-9.138,0.904-13.151,0.051
		c-7.486-1.591-5.886-8.824-5.986-14.66c0.332-0.586,1.177-0.89,1.819-0.778c0.839,0.145,1.148,0.782,1.195,1.535
		c-0.269-0.008-0.539,0.008-0.78,0.045c-0.18,0.028-0.137,0.325,0.043,0.318c0.312-0.013,0.613,0.001,0.919,0.071
		c0.262,0.06,0.502,0.185,0.767,0.224c0.162,0.024,0.352-0.183,0.185-0.317c-0.065-0.052-0.141-0.087-0.215-0.123
		c-0.001-0.005,0.003-0.008,0.001-0.013c-0.109-0.377-0.255-0.774-0.15-1.177c0.176-0.675,0.934-0.992,1.525-0.592
		c0.196,0.132,0.504-0.09,0.416-0.32c-0.272-0.712-0.181-1.578,0.532-1.999c0.826-0.488,1.521,0.075,1.896,0.809
		c0.103,0.202,0.421,0.103,0.419-0.114c-0.001-0.086-0.024-0.163-0.04-0.243c-0.107-0.869,0.477-1.805,1.402-1.87
		c0.528-0.037,1.041,0.261,1.338,0.692c0.18,0.26,0.216,0.558,0.312,0.84c-0.332,0.01-0.663,0.062-0.978,0.18
		c-0.217,0.081-0.135,0.395,0.096,0.349c0.495-0.098,0.966-0.104,1.434,0.006c0.05,0.045,0.11,0.065,0.179,0.055
		c0.108,0.032,0.216,0.062,0.325,0.108c0.356,0.151,0.573-0.352,0.207-0.492c-0.095-0.036-0.194-0.061-0.292-0.086
		c-0.108-0.873-0.085-1.948,0.692-2.505c0.599-0.43,1.429-0.351,2.04,0.031c0.143,0.193,0.348,0.337,0.63,0.369
		c0.252,0.029,0.278-0.312,0.116-0.429c-0.628-0.454-0.481-1.197,0.201-1.526c0.352-0.169,0.746-0.175,1.142-0.137
		c0.272,0.195,0.614,0.301,1.021,0.255c0.212-0.024,0.268-0.306,0.051-0.38c-0.482-0.074-0.718-0.413-0.708-1.017
		c-0.667-0.758-0.492-1.296,0.527-1.614c0.874-0.107,1.564,0.321,1.966,1.064c0.002-0.002,0.004-0.004,0.007-0.005
		c0.014,0.021,0.021,0.041,0.037,0.061c0.2,0.257,0.576-0.07,0.435-0.336c-0.012-0.023-0.03-0.041-0.043-0.063
		c-0.028-0.543,0.236-0.793,0.797-0.749c0.519-0.296,0.956-0.198,1.32,0.251c0.026,0.082,0.044,0.166,0.089,0.245
		c-0.142,0.111-0.27,0.235-0.373,0.368c-0.122,0.159,0.128,0.318,0.262,0.202c0.455-0.393,0.884-0.43,1.443-0.525
		c0.213-0.036,0.192-0.36,0-0.41c-0.295-0.077-0.601-0.021-0.884,0.1c-0.047-0.775,0.325-1.61,1.211-1.674
		c0.83-0.06,1.406,0.619,1.705,1.326c-0.039,0.042-0.069,0.095-0.067,0.171c0.157,4.343,0.304,8.681,0.27,13.027
		C39.877,38.032,40.132,40.436,39.761,42.475z"/>
	<path style="fill:#1D1D1B;" d="M32.333,35.336c-0.663-0.262-1.362-0.028-1.727,0.471c-0.192-0.255-0.467-0.455-0.779-0.523
		c-0.839-0.184-1.499,0.444-1.782,1.172c-0.52-0.626-1.247-1.258-2.061-0.78c-0.568,0.333-0.604,1.114-0.041,1.458
		c0.107,0.065,0.235-0.092,0.136-0.177c0.565-0.859,1.038-1.034,1.421-0.523c0.167,0.195,0.314,0.403,0.443,0.624
		c0.099,0.158,0.373,0.145,0.418-0.055c0.121-0.544,0.326-0.884,0.843-1.105c0.723-0.31,1.275,0.26,1.135,0.991
		c-0.301-0.011-0.603,0.008-0.862,0.042c-0.191,0.026-0.204,0.322,0,0.309c0.363-0.023,0.716-0.011,1.073,0.064
		c0.009,0.002,0.018,0.005,0.027,0.007c0.009,0.004,0.018,0.007,0.028,0.008c0.252,0.059,0.489,0.154,0.747,0.183
		c0.186,0.021,0.212-0.235,0.087-0.321c-0.184-0.127-0.411-0.193-0.649-0.238c0.094-0.211,0.097-0.435,0.046-0.651
		c0.262-0.575,0.913-0.898,1.582-0.359c0.148,0.119,0.45,0.062,0.427-0.177c-0.07-0.721,0.27-1.261,0.987-1.37
		c0.748-0.113,1.128,0.349,1.387,0.998c0.088,0.22,0.434,0.208,0.435-0.059C35.664,33.191,32.48,33.373,32.333,35.336z"/>
	<path style="fill:#1D1D1B;" d="M25.089,43.258c-0.626-0.261-1.29-0.15-1.758,0.235c0.032-0.47-0.123-0.949-0.501-1.286
		c-0.619-0.553-1.505-0.454-2.105,0.021c-0.153-0.704-0.579-1.319-1.421-1.272c-0.883,0.049-1.384,0.902-1.107,1.711
		c0.067,0.195,0.329,0.112,0.302-0.083c0.037-0.257,0.075-0.515,0.112-0.772c0.56-0.568,0.993-0.583,1.299-0.046
		c0.34,0.365,0.384,0.531,0.386,1.011c0.001,0.258,0.331,0.326,0.465,0.126c0.942-1.402,2.862,0.172,1.624,1.446
		c-0.023,0.023-0.021,0.054-0.032,0.081c-0.146-0.082-0.378-0.204-0.557-0.269c0.005-0.049-0.006-0.109-0.056-0.131
		c-0.082-0.037-0.125-0.044-0.206,0.003c-0.037,0.021-0.07,0.069-0.065,0.113c0.03,0.283,0.284,0.371,0.509,0.516
		c0.379,0.245,0.773,0.588,1.211,0.706c0.181,0.049,0.306-0.176,0.18-0.309c-0.096-0.101-0.208-0.18-0.326-0.252
		c0.216-1.028,1.245-1.645,2.186-0.873c0.193,0.158,0.511,0.015,0.438-0.255c0.239-0.336,0.479-0.671,0.718-1.007
		c0.16-0.051,0.325-0.08,0.493-0.084c0.399,0.024,0.874,0.334,0.955,0.765c0.033,0.176,0.287,0.19,0.369,0.048
		C29.102,41.862,25.178,41.45,25.089,43.258z"/>
</g>
<g>
</g>
<g>
</g>
<g>
</g>
<g>
</g>
<g>
</g>
<g>
</g>
<g>
</g>
<g>
</g>
<g>
</g>
<g>
</g>
<g>
</g>
<g>
</g>
<g>
</g>
<g>
</g>
<g>
</g>
</svg>
