<?xml version="1.0" encoding="iso-8859-1"?>
<!-- Generator: Adobe Illustrator 18.0.0, SVG Export Plug-In . SVG Version: 6.00 Build 0)  -->
<!DOCTYPE svg PUBLIC "-//W3C//DTD SVG 1.1//EN" "http://www.w3.org/Graphics/SVG/1.1/DTD/svg11.dtd">
<svg version="1.1" id="Capa_1" xmlns="http://www.w3.org/2000/svg" xmlns:xlink="http://www.w3.org/1999/xlink" x="0px" y="0px"
	 viewBox="0 0 58.149 58.149" style="enable-background:new 0 0 58.149 58.149;" xml:space="preserve">
<g>
	<path style="fill:#1D1D1B;" d="M38.313,6.632c-0.242-2.303-0.442-4.475-2.079-5.986c0.076-0.13,0.074-0.314-0.084-0.39
		c-0.25-0.121-0.48-0.178-0.701-0.207c-0.014-0.009-0.023-0.02-0.038-0.028c-0.053-0.033-0.106-0.021-0.153,0.004
		c-4.338-0.084-3.072,17.52-2.843,21.265c-0.008-0.002-0.017-0.003-0.025-0.005c-0.321-0.074-0.454,0.4-0.137,0.495
		c0.061,0.018,0.129,0.032,0.191,0.049c0.011,0.254,0.315,0.281,0.422,0.108c0.329,0.077,0.667,0.146,1.016,0.194
		c-0.186,8.023,0.501,16.74-0.842,24.636c-1.207-0.388-2.554-0.366-3.887-0.322c-3.06,0.1-6.077,0.546-9.041,1.297
		c-0.075-0.184-0.344-0.242-0.409,0.001c-0.009,0.033-0.012,0.067-0.021,0.1c-0.005,0.001-0.01,0.002-0.014,0.003
		c-0.183,0.048-0.172,0.254-0.057,0.343c-1.086,5.133,2.685,10.146,8.136,9.954c5.631-0.198,9.111-5.904,7.255-11.076
		c-0.026-0.073-0.071-0.122-0.122-0.161c0.6-8.28,1.101-16.567,1.578-24.856c0.35-0.086,0.689-0.199,0.999-0.367
		c0.239-0.129,0.143-0.562-0.145-0.534c-0.779,0.077-1.519,0.319-2.308,0.368c-0.18,0.011-0.357-0.008-0.536-0.008
		c0-0.004,0-0.008,0-0.012c0.009-0.371-0.566-0.371-0.577,0c0,0.001,0,0.002,0,0.003c-0.324-0.023-0.647-0.064-0.969-0.117
		c0.093-3.132,0.084-6.262,0.073-9.395c-0.005-1.301-0.648-12.052,2.633-11.316c2.664,2.595,2.264,7.539,2.386,10.921
		c0.119,3.325-0.104,6.615-0.252,9.932c-0.012,0.262,0.429,0.331,0.466,0.063C38.921,16.649,38.834,11.585,38.313,6.632z
		 M34.354,48.163c-2.177,0.658-4.3,1.284-6.602,1.423c-2.068,0.125-5.761,0.255-7.364-1.479
		C24.452,47.289,30.795,45.784,34.354,48.163z M27.746,57.397c-5.054,0.204-8.16-4.358-7.654-9.008
		c1.253,1.624,3.594,1.775,5.569,1.878c3.019,0.158,6.217-0.32,8.963-1.624C35.218,52.948,32.504,57.205,27.746,57.397z
		 M34.457,22.191c0.452,0.033,0.904,0.029,1.346-0.023c-0.523,8.259-1.022,16.52-1.421,24.785c-0.063,0.074-0.095,0.174-0.056,0.3
		c0.013,0.043,0.022,0.086,0.033,0.129c0,0.01-0.001,0.02-0.002,0.031c-0.298-0.213-0.615-0.372-0.94-0.505
		C35.188,39.24,34.325,30.089,34.457,22.191z"/>
</g>
<g>
</g>
<g>
</g>
<g>
</g>
<g>
</g>
<g>
</g>
<g>
</g>
<g>
</g>
<g>
</g>
<g>
</g>
<g>
</g>
<g>
</g>
<g>
</g>
<g>
</g>
<g>
</g>
<g>
</g>
</svg>
