<?xml version="1.0" encoding="iso-8859-1"?>
<!-- Generator: Adobe Illustrator 18.0.0, SVG Export Plug-In . SVG Version: 6.00 Build 0)  -->
<!DOCTYPE svg PUBLIC "-//W3C//DTD SVG 1.1//EN" "http://www.w3.org/Graphics/SVG/1.1/DTD/svg11.dtd">
<svg version="1.1" id="Capa_1" xmlns="http://www.w3.org/2000/svg" xmlns:xlink="http://www.w3.org/1999/xlink" x="0px" y="0px"
	 viewBox="0 0 46.622 46.622" style="enable-background:new 0 0 46.622 46.622;" xml:space="preserve">
<g>
	<path style="fill:#1D1D1B;" d="M45.719,15.88c0.097-0.226-0.01-0.547-0.33-0.545c-3.655,0.027-7.311,0.058-10.966,0.095
		c-2.133,0.022-4.571-0.343-6.617,0.408c-0.1-0.101-0.274-0.133-0.343,0.029c-0.016,0.039-0.026,0.081-0.041,0.12
		c-0.041,0.018-0.084,0.029-0.124,0.048c-0.142,0.068-0.109,0.253-0.006,0.334c-0.009,0.032-0.023,0.062-0.032,0.095
		c-0.79-0.077-1.562,0.006-2.32,0.281c-0.015,0.006-0.025,0.016-0.039,0.023c-3.713-2.934-10.444-2.726-14.808-2.404
		c-1.867,0.138-9.173,0.406-8.246,3.314c0.018,0.057,0.094,0.042,0.1-0.014c0.275-2.649,9.607-2.6,11.349-2.566
		c3.318,0.066,7.933,0.019,10.821,2.064c-3.018,3.776-20.625,4.589-22.681,0.167c-0.037-0.08-0.115-0.092-0.181-0.067
		c-0.114-0.157-0.421-0.165-0.457,0.067C0.25,20.927-0.834,26.411,1.12,29.806c1.789,3.11,7.655,2.631,10.619,2.562
		c3.165-0.074,9.502,0.368,11.973-2.212c2.176-2.271,2.17-6.764,2.014-10.323c0.197,0.035,0.395,0.071,0.602,0.079
		c0.302,0.012,0.604,0.02,0.907,0.013c0.054,0.293,0.115,0.582,0.186,0.856c0.081,0.313,0.618,0.26,0.58-0.079
		c-0.005-0.048-0.009-0.097-0.014-0.146c0.03,0.01,0.047,0.036,0.084,0.037c5.664,0.14,11.437,0.008,17.081-0.508
		c0.219-0.02,0.334-0.195,0.339-0.365c0.055,0.008,0.113,0.006,0.172-0.035C46.979,18.782,46.886,16.853,45.719,15.88z
		 M24.292,27.065c-1.831,4.837-8.349,4.407-12.553,4.509c-4.473,0.108-9.122,0.389-10.498-4.623c-0.77-2.803-0.211-6.242,0.029-9.14
		c1.277,3.427,7.407,2.947,10.301,2.941c3.612-0.008,10.81,0.289,13.157-3.103c0.01,0.009,0.021,0.016,0.031,0.025
		c0.019,0.017,0.039,0.023,0.059,0.036C24.931,20.613,25.289,24.432,24.292,27.065z M26.328,19.255
		c-0.215,0.009-0.42,0.046-0.625,0.083c-0.037-0.764-0.076-1.479-0.097-2.103c0.499-0.097,1.005-0.105,1.514-0.054
		c-0.091,0.673-0.074,1.374,0.009,2.059C26.863,19.237,26.596,19.244,26.328,19.255z M45.323,19.247
		c-0.044,0.044-0.055,0.098-0.063,0.151c-0.034-0.01-0.067-0.02-0.109-0.019c-5.687,0.113-11.398,0.356-17.081,0.607
		c-0.06,0.003-0.093,0.037-0.134,0.062c-0.056-0.567-0.102-1.135-0.107-1.704c-0.006-0.687,0.077-1.373,0.059-2.058
		c2.482-0.684,6.158-0.104,8.59-0.118c2.851-0.017,5.701-0.042,8.552-0.067c0.006,0.106,0.052,0.211,0.161,0.287
		C46.129,17.04,46.091,18.482,45.323,19.247z"/>
</g>
<g>
</g>
<g>
</g>
<g>
</g>
<g>
</g>
<g>
</g>
<g>
</g>
<g>
</g>
<g>
</g>
<g>
</g>
<g>
</g>
<g>
</g>
<g>
</g>
<g>
</g>
<g>
</g>
<g>
</g>
</svg>
