<?xml version="1.0" encoding="iso-8859-1"?>
<!-- Generator: Adobe Illustrator 18.0.0, SVG Export Plug-In . SVG Version: 6.00 Build 0)  -->
<!DOCTYPE svg PUBLIC "-//W3C//DTD SVG 1.1//EN" "http://www.w3.org/Graphics/SVG/1.1/DTD/svg11.dtd">
<svg version="1.1" id="Capa_1" xmlns="http://www.w3.org/2000/svg" xmlns:xlink="http://www.w3.org/1999/xlink" x="0px" y="0px"
	 viewBox="0 0 58.741 58.741" style="enable-background:new 0 0 58.741 58.741;" xml:space="preserve">
<g>
	<path style="fill:#1D1D1B;" d="M50.86,17.847c-1.243-1.434-2.661-2.884-4.255-3.908c-0.187-0.12-0.397,0.154-0.236,0.306
		c1.369,1.304,2.838,2.501,4.208,3.812c-1.493,1.657-3.425,2.529-5.691,2.383c-0.038-0.002-0.066,0.014-0.091,0.034
		c0.041-2.254,0.326-4.469,0.721-6.688c0.026-0.147-0.183-0.21-0.227-0.063c-0.674,2.237-0.937,4.522-0.948,6.855
		c-0.001,0.248,0.311,0.271,0.408,0.094c0.017,0.038,0.045,0.069,0.095,0.079c2.328,0.434,4.802-0.505,6.181-2.456
		c0.016-0.013,0.026-0.028,0.037-0.046c0.009-0.013,0.02-0.023,0.029-0.036C51.206,18.041,51.03,17.843,50.86,17.847z"/>
	<path style="fill:#1D1D1B;" d="M51.556,8.205c-0.069-0.089-0.196-0.021-0.216,0.073c-0.074-0.019-0.153-0.014-0.224,0.061
		c-1.135,1.218-2.526,2.135-4.102,2.677c-0.218,0.075-0.131,0.411,0.096,0.349c1.697-0.463,3.168-1.352,4.356-2.651
		c0.734,2.066,2.287,5.558,0.431,7.245c-1.092-0.128-2.07-1.33-2.857-2.012c-0.783-0.678-1.555-1.371-2.341-2.044
		c-0.123-0.105-0.293,0.06-0.179,0.179c1.048,1.095,2.159,2.133,3.297,3.133c0.637,0.559,1.315,1.347,2.236,1.129
		c0.126-0.03,0.148-0.147,0.109-0.242C54.207,14.432,52.881,9.917,51.556,8.205z"/>
	<path style="fill:#1D1D1B;" d="M50.824,6.762c-0.799-1.94-3.708-2.978-5.621-2.805c-0.114,0.01-0.155,0.107-0.138,0.19
		c-0.025,0.01-0.047,0.027-0.056,0.062c-0.393,1.634-0.307,3.446-0.071,5.098c0.034,0.236,0.433,0.182,0.418-0.057
		c-0.108-1.662-0.053-3.326-0.149-4.984c1.634,0.077,3.61,0.562,4.655,1.964c1.094,1.469-0.413,2.103-1.396,2.675
		c-0.822,0.479-1.692,0.893-2.574,1.248c-0.096,0.039-0.062,0.186,0.044,0.159c1.365-0.347,2.65-0.867,3.826-1.654
		C50.425,8.217,51.188,7.647,50.824,6.762z"/>
	<path style="fill:#1D1D1B;" d="M43.784,4.014c0.03-0.054-0.005-0.142-0.08-0.144c-1.566-0.053-3.063,0.479-4.356,1.348
		c-0.732,0.493-2.166,1.405-1.994,2.442c0.012,0.069,0.08,0.126,0.144,0.144c0.017,0.005,0.034,0.01,0.052,0.015
		c-0.016,0.038-0.012,0.085,0.034,0.118c1.325,0.963,2.948,1.691,4.55,2.04c0.249,0.054,0.344-0.297,0.105-0.38
		c-1.531-0.525-2.989-1.11-4.459-1.785c0.035-0.04,0.05-0.1,0.024-0.154c-0.205-0.438,0.818-1.274,1.111-1.519
		c0.493-0.412,1.036-0.774,1.611-1.062c0.937-0.47,1.928-0.746,2.946-0.966c0.006,0.018,0.005,0.039,0.023,0.049
		c0.652,0.33,0.269,2.23,0.233,2.802c-0.052,0.825-0.133,1.647-0.201,2.471c-0.011,0.135,0.212,0.166,0.238,0.032
		C43.908,8.737,44.85,4.372,43.784,4.014z"/>
	<path style="fill:#1D1D1B;" d="M41.742,18.674c-0.432-0.263-0.874-0.51-1.315-0.758c-0.669-0.376-1.053-0.69-0.648-1.504
		c0.416-0.838,1.297-1.667,1.871-2.392c0.096-0.121-0.067-0.295-0.174-0.174c-0.596,0.672-1.209,1.33-1.801,2.005
		c-0.301,0.344-0.728,0.756-0.726,1.249c0.002,0.33,0.127,0.491,0.359,0.696c0.587,0.52,1.532,0.888,2.22,1.243
		C41.769,19.163,41.975,18.816,41.742,18.674z"/>
	<path style="fill:#1D1D1B;" d="M47.038,1.134C41.397-0.454,35.557,3.046,33.744,8.51c-0.738,2.223-0.659,4.47,0.017,6.508
		c-3.484,0.307-7.509,0.181-10.749-0.34c-0.278-1.614-0.576-3.252-0.934-4.87c3.691,0.135,7.429-0.162,11.116-0.307
		c0.383-0.015,0.385-0.613,0-0.598c-3.714,0.145-7.492,0.142-11.187,0.574c-0.681-2.996-1.598-5.904-3.081-8.411
		c0.048,0.041,0.103,0.076,0.146,0.122c0.112,0.12,0.301-0.033,0.224-0.173c-0.223-0.4-0.54-0.654-0.909-0.81
		c-0.011-0.016-0.02-0.034-0.031-0.05c-0.043-0.063-0.115-0.048-0.152-0.004c-1.065-0.349-2.495-0.005-3.525,0.123
		C11.127,0.713,7.556,1.546,4.281,3.017C4.249,2.984,4.222,2.948,4.188,2.918C3.997,2.746,3.737,2.998,3.887,3.19
		C3.866,3.2,3.844,3.208,3.823,3.218c-0.024-0.101-0.182-0.152-0.24-0.04C3.554,3.236,3.535,3.3,3.511,3.361
		c-0.025,0.012-0.05,0.022-0.074,0.034C3.361,3.432,3.376,3.524,3.428,3.57C3.151,4.518,3.451,5.687,4.382,6.157
		c0.085,0.043,0.171,0.014,0.231-0.041c0.033,0.049,0.116,0.066,0.149,0.001c0.027-0.053,0.044-0.109,0.067-0.164
		c3.718-0.767,8.192-2.876,11.938-2.121c1.619,2.886,1.818,6.708,2.442,9.886c0.001,0.004,0.001,0.008,0.002,0.012
		c-1.34-0.521-2.178-1.176-2.225-1.958c-0.01-0.168-0.264-0.222-0.307-0.042c-0.379,1.592,0.912,2.458,2.716,2.936
		c0.324,1.652,0.649,3.304,0.973,4.955c-0.599-0.202-1.054,0.069-1.538,0.399c-0.072,0.049-0.008,0.163,0.069,0.118
		c0.43-0.249,0.983-0.218,1.462-0.261c0.022-0.002,0.036-0.014,0.053-0.023c0.145,0.737,0.29,1.475,0.434,2.212
		c-1.285-0.468-2.122-1.052-2.206-1.749c-0.018-0.153-0.231-0.159-0.243,0c-0.018,0.254,0.041,0.493,0.162,0.719
		c-0.013,0.013-0.032,0.021-0.029,0.044c1.541,10.983,3.677,21.96,5.747,32.856c0.032,0.168,0.281,0.095,0.254-0.07
		C22.744,42.984,20.989,32,18.678,21.214c0.397,0.564,1.2,1.038,2.282,1.421c0.109,0.556,0.219,1.113,0.328,1.669
		c1.386,7.057,2.773,14.113,4.17,21.167c0.014,0.07,0.057,0.105,0.107,0.122c0.005,0.005,0.005,0.012,0.011,0.017
		c1.016,0.712,2.635,0.526,3.332-0.566c0.074-0.116,0.002-0.222-0.099-0.265c-1.263-7.112-2.665-14.205-4.115-21.284
		c5.893,0.856,13.985,0.329,15.32-1.433c0.053-0.07,0.042-0.143,0.01-0.21c0.633,0.279,1.292,0.511,1.979,0.672
		c-1.608,10.734-2.62,21.64-3.161,32.391c-0.005,0.095,0.039,0.153,0.097,0.191c-0.021,0.015-0.042,0.03-0.06,0.053
		c-3.431,4.507-11.699,3.21-15.821,0.423c-0.001-0.012,0.009-0.019,0.006-0.031c-2.775-14.572-4.925-29.236-7.574-43.823
		c-0.002-0.009-0.011-0.012-0.014-0.02c0.659-0.967,1.66-1.437,2.884-1.374c0.288,0.015,0.334-0.416,0.067-0.494
		c-1.515-0.441-3.257,0.719-3.464,2.257c-0.017,0.123,0.164,0.168,0.231,0.079c1.563,14.577,4.394,29.172,7.344,43.521
		c0.024,0.119,0.106,0.163,0.196,0.176c4.03,3.289,13.331,4.499,16.581-0.457c0.089-0.136,0.032-0.259-0.071-0.321
		c0.05-0.04,0.086-0.099,0.093-0.178c0.928-10.6,2.125-21.113,3.436-31.639c0.013,0.005,0.014,0.018,0.029,0.022
		C57.47,27.018,59.942,4.767,47.038,1.134z M4.658,5.688C4.61,5.703,4.562,5.716,4.514,5.732C3.904,5.126,3.557,4.366,3.765,3.515
		C3.86,3.484,3.956,3.453,4.051,3.422C4.574,4.069,4.791,4.869,4.658,5.688z M19.065,10.715C18.6,8.36,18.417,5.906,17.092,3.898
		c0.018,0.004,0.037,0.006,0.054,0.011c0.178,0.046,0.25-0.218,0.076-0.275c-0.125-0.04-0.248-0.067-0.371-0.1
		c-0.013-0.017-0.021-0.035-0.034-0.051c-0.049-0.063-0.128-0.048-0.166-0.003c-1.565-0.358-3.032-0.101-4.629,0.267
		C9.66,4.291,7.273,4.871,4.957,5.597c0.22-0.801,0.066-1.662-0.444-2.326c1.887-0.615,3.764-1.251,5.698-1.712
		c1.778-0.424,6.162-1.783,8.234-0.805c2.148,4.23,3.241,9.059,4.147,13.855c-1.09-0.191-2.072-0.43-2.905-0.712
		C19.479,12.837,19.274,11.776,19.065,10.715z M19.859,14.779c0.893,0.197,1.879,0.314,2.837,0.385
		c0.424,2.277,0.817,4.543,1.262,6.726c0.067,0.331,0.131,0.663,0.198,0.994c-1.056-0.176-2.019-0.396-2.839-0.656
		C20.83,19.745,20.345,17.262,19.859,14.779z M28.452,44.927c-0.758,0.634-1.682,0.892-2.638,0.507
		c0.004-0.022,0.018-0.039,0.013-0.065c-1.459-7.527-2.931-15.052-4.402-22.577c0.832,0.258,1.796,0.468,2.837,0.635
		C25.701,30.586,27.003,37.771,28.452,44.927z M39.62,21.758c-1.385,1.736-9.331,2.065-15.036,1.194
		c-0.211-1.029-0.42-2.059-0.633-3.088c-0.011-0.054-0.021-0.11-0.032-0.163c4.05-0.034,8.075,0.04,12.122,0.074
		c0.165,0.001,0.213-0.272,0.04-0.297c-3.952-0.581-8.255-0.555-12.219-0.066c-0.271-1.357-0.512-2.775-0.76-4.219
		c1.62,0.101,3.102,0.087,3.826,0.136c1.565,0.106,4.34,0.449,7.108,0.424c1.063,2.566,3.093,4.729,5.676,5.962
		C39.679,21.725,39.645,21.726,39.62,21.758z M42.059,22.153c-3.288-1.063-6.092-3.415-7.441-6.418
		c0.287-0.008,0.572-0.018,0.855-0.036c1.001,2.58,3.176,4.716,6.747,5.451C42.168,21.485,42.109,21.818,42.059,22.153z
		 M43.877,11.531c-0.128,0.666-0.242,1.338-0.365,2.006c-0.161-0.332-0.429-0.585-0.788-0.722c-0.177-0.068-0.413-0.122-0.633-0.112
		c0.296-0.573,0.446-1.447,0.109-1.993c0.409,0.189,0.868,0.215,1.308,0.069c0.354-0.117,0.76-0.376,0.937-0.73
		c0.153,0.689,0.867,1.349,1.509,1.14c-0.19,0.23-0.31,0.519-0.325,0.825c-0.01,0.207,0.028,0.45,0.117,0.665
		c-0.645,0.166-1.192,0.54-1.611,1.102c-0.188,0.252,0.239,0.586,0.439,0.339c0.38-0.47,0.844-0.846,1.378-1.11
		c0.081,0.083,0.179,0.147,0.295,0.181c0.19,0.057,0.317-0.154,0.24-0.312c-0.017-0.035-0.036-0.065-0.055-0.097
		c0.063-0.072,0.041-0.205-0.079-0.199c-0.012,0.001-0.023,0.005-0.036,0.006c-0.104-0.163-0.199-0.321-0.22-0.549
		c-0.035-0.393,0.098-0.717,0.383-0.987c0.097-0.092-0.016-0.228-0.128-0.189c0.008-0.112-0.069-0.232-0.195-0.223
		c-0.328,0.023-0.585,0.09-0.887-0.09c-0.335-0.2-0.565-0.554-0.498-0.954c0.035-0.213-0.262-0.304-0.329-0.091
		c-0.007,0.022-0.002,0.047-0.007,0.069c-0.072-0.034-0.164-0.031-0.226,0.028c-0.306,0.292-0.452,0.613-0.876,0.777
		c-0.408,0.158-0.861,0.128-1.242-0.085c-0.117-0.065-0.21,0.023-0.221,0.123c-0.072,0.01-0.141,0.071-0.134,0.145
		c0.03,0.356,0.236,0.652,0.267,1.018c0.012,0.146-0.013,0.286-0.032,0.427c-0.154-0.062-0.357-0.02-0.424,0.184
		c-0.198,0.597-0.814,1.098-1.713,1.513c0.397-0.479,0.769-0.976,1.107-1.447c0.127-0.176-0.166-0.406-0.304-0.234
		c-0.46,0.574-0.963,1.354-1.53,1.975c-0.641,0.228-1.378,0.424-2.192,0.585c-0.148-0.345-0.283-0.694-0.389-1.054
		c-0.181-0.621-0.293-1.26-0.344-1.905c-0.036-0.462-0.129-1.091,0-1.541c0.264-0.918,0.866-0.44,1.526-0.207
		c1.201,0.423,2.327,0.981,3.384,1.688c0.101,0.068,0.23-0.095,0.132-0.171c-1.492-1.166-3.164-2.074-5.058-2.355
		c-0.085-0.013-0.203,0.02-0.218,0.124c-0.159,1.131-0.185,2.253,0.011,3.382c0.091,0.523,0.23,1.421,0.534,2.119
		c-0.36,0.064-0.729,0.124-1.112,0.176c-0.611-1.633-0.735-3.482-0.187-5.45c1.309-4.706,6.346-7.602,11.095-6.404
		c4.307,1.086,7.75,5.324,7.82,9.784c0.094,6.009-5.381,10.158-11.096,8.586c0.409-3.254,0.824-6.509,1.25-9.77
		C44.296,11.364,43.919,11.312,43.877,11.531z M42.264,20.88c-2.892-0.879-5.28-2.748-6.513-5.204
		c0.477-0.036,0.943-0.09,1.398-0.161c0.415,0.248,0.732,0.045,1.077-0.213c1.534-0.372,2.814-1.015,3.515-2.099
		c0.25,0.019,0.489-0.085,0.754-0.032c0.384,0.077,0.693,0.314,0.889,0.65c0.017,0.029,0.041,0.045,0.068,0.052
		C43.029,16.198,42.629,18.533,42.264,20.88z M42.922,22.868c-0.04-0.009-0.068,0.009-0.1,0.018
		c0.045-0.361,0.093-0.722,0.138-1.083c5.304,1.477,10.487-1.798,11.368-7.301c0.844-5.273-2.807-10.521-7.939-11.861
		c-8.349-2.181-12.96,5.975-11.195,12.224c-0.288,0.038-0.582,0.072-0.881,0.103c-0.619-1.754-0.759-3.695-0.216-5.721
		c1.47-5.491,7.257-9.09,12.784-7.545C59.08,5.112,56.876,25.958,42.922,22.868z"/>
	<path style="fill:#1D1D1B;" d="M34.936,50.099c-0.777-1.305-1.604-2.577-2.497-3.806c-0.233-0.321-0.68-1.295-1.219-1.357
		c-0.638-0.073-1.621,0.994-2.1,1.336c-1.149,0.82-2.302,1.634-3.374,2.554c-0.054,0.046,0.005,0.116,0.065,0.104
		c-0.824,1.224,2.874,4.597,3.504,5.081c0.129,0.099,0.25-0.102,0.162-0.21c-0.564-0.691-4.296-4.017-3.21-4.945
		c0.07-0.06,0.038-0.138-0.023-0.179c0.757-0.458,1.493-0.947,2.22-1.453c0.455-0.317,2.081-1.858,2.573-1.818
		c0.646,0.053,1.483,1.663,1.816,2.147c0.615,0.894,1.189,1.813,1.749,2.742C34.731,50.507,35.064,50.314,34.936,50.099z"/>
	<path style="fill:#1D1D1B;" d="M34.686,50.453c-1.285,1.74-2.744,3.759-5.186,3.549c-0.094-0.008-0.115,0.146-0.022,0.166
		c2.553,0.527,4.284-1.606,5.487-3.552C35.077,50.435,34.807,50.289,34.686,50.453z"/>
	<path style="fill:#1D1D1B;" d="M37.492,53.956c0.005-0.009,0.013-0.015,0.014-0.026c1.33-10.431,1.909-21.034,2.71-31.519
		c0.019-0.249-0.365-0.246-0.387,0c-0.39,4.412-0.821,8.839-1.221,13.27c-0.036-0.069-0.116-0.085-0.183-0.047
		c-0.604-0.709-1.558-0.909-2.478-1.129c-1.545-0.371-3.146-0.596-4.735-0.611c-0.15-0.001-0.186,0.149-0.127,0.248
		c-0.016,0.02-0.04,0.03-0.049,0.06c-0.671,2.372-0.884,4.807-0.532,7.251c0.019,0.135,0.246,0.103,0.238-0.032
		c-0.138-2.423,0.049-4.764,0.687-7.111c0.007-0.026-0.007-0.043-0.009-0.066c1.139,0.092,2.272,0.195,3.397,0.408
		c1.075,0.204,2.714,0.422,3.518,1.295c-0.107,2.331-0.411,4.431-1.404,6.564c-0.023-0.009-0.048-0.016-0.077-0.008
		c-2.094,0.57-4.404-0.404-6.462-0.863c-0.119-0.027-0.168,0.147-0.05,0.183c1.806,0.552,4.614,1.93,6.488,0.978
		c0.015,0.1,0.149,0.16,0.215,0.049c0.48-0.808,0.877-1.683,1.168-2.592c-0.379,4.56-0.698,9.121-0.868,13.674
		c-0.002,0.044,0.025,0.064,0.056,0.071c-4.051,2.67-8.739,2.498-12.844,0.025c-0.104-0.063-0.182,0.088-0.092,0.158
		c3.839,2.964,9.26,2.795,13.157,0.045C37.771,54.122,37.646,53.891,37.492,53.956z"/>
</g>
<g>
</g>
<g>
</g>
<g>
</g>
<g>
</g>
<g>
</g>
<g>
</g>
<g>
</g>
<g>
</g>
<g>
</g>
<g>
</g>
<g>
</g>
<g>
</g>
<g>
</g>
<g>
</g>
<g>
</g>
</svg>
