<?xml version="1.0" encoding="iso-8859-1"?>
<!-- Generator: Adobe Illustrator 18.0.0, SVG Export Plug-In . SVG Version: 6.00 Build 0)  -->
<!DOCTYPE svg PUBLIC "-//W3C//DTD SVG 1.1//EN" "http://www.w3.org/Graphics/SVG/1.1/DTD/svg11.dtd">
<svg version="1.1" id="Capa_1" xmlns="http://www.w3.org/2000/svg" xmlns:xlink="http://www.w3.org/1999/xlink" x="0px" y="0px"
	 viewBox="0 0 60.735 60.735" style="enable-background:new 0 0 60.735 60.735;" xml:space="preserve">
<g>
	<path style="fill:#1D1D1B;" d="M60.702,33.215c-1.016-1.494-2.535-2.491-4.31-2.838c-0.002,0-0.003,0.001-0.005,0.001
		c0.471-1.06-0.165-2.519-1.346-2.748c-0.005-0.001-0.007,0.003-0.011,0.002c0.058-1.995-2.376-4.365-4.162-4.701
		c-0.117-0.022-0.214,0.055-0.246,0.152c-0.092,0.018-0.179,0.055-0.268,0.084c-0.893-0.73-1.907-1.222-3.023-1.5
		c0.004-0.102,0.006-0.204,0.01-0.306c0.001-0.015-0.009-0.023-0.013-0.036c0.06-0.098,0.054-0.236-0.075-0.326
		c-1.368-0.957-3.079-1.296-4.718-1.099c-0.118-0.075-0.293-0.078-0.398,0.067c-0.059,0.081-0.121,0.169-0.181,0.253
		c-0.013-0.018-0.017-0.039-0.036-0.053c-0.55-0.421-1.288-0.452-1.962-0.307c0.065-0.21,0.133-0.42,0.212-0.633
		c0.075-0.202-0.162-0.347-0.329-0.286c-1.535-0.362-3.262-0.326-4.74,0.241c-0.062,0.024-0.098,0.064-0.117,0.108
		c-0.041-0.003-0.083-0.001-0.122,0.026c-1.761,1.227-3.212,3.494-4.064,5.48c0.078-1.868,0.296-3.384,1.052-4.992
		c0.379,0.028,0.761,0.045,1.14,0.053c0.396,0.009,0.831,0.05,1.205-0.089c0.178-0.066,0.195-0.32,0-0.38
		c-0.411-0.125-0.878-0.047-1.301-0.009c-0.292,0.026-0.584,0.062-0.876,0.097c0.064-0.126,0.124-0.251,0.195-0.379
		c0.167-0.048,0.199-0.319,0.038-0.396c-1.353-0.649-3.364-0.183-4.693,0.348c-0.089,0.036-0.124,0.105-0.137,0.177
		c-0.053,0.007-0.106,0.028-0.155,0.078c-0.236,0.241-0.441,0.499-0.637,0.763c-0.023-0.035-0.055-0.063-0.1-0.072
		c-0.535-0.107-1.154,0.075-1.688,0.157c-0.125,0.019-0.262,0.037-0.393,0.065c0.055-0.167,0.102-0.331,0.163-0.502
		c0.021-0.057,0-0.101-0.031-0.136c0-0.132-0.083-0.255-0.262-0.249c-1.693,0.06-3.438,0.347-5.05,0.864
		c-0.107,0.034-0.137,0.119-0.125,0.198c-0.175,0.12-0.337,0.26-0.494,0.409c-0.319-0.072-0.63-0.005-0.955,0.041
		c-0.395,0.055-0.789,0.117-1.182,0.18c0.028-0.285,0.071-0.497,0.135-0.594c0.022-0.005,0.044-0.009,0.066-0.014
		c0.299-0.067,0.237-0.555-0.073-0.539c-1.603,0.085-3.227,0.52-4.709,1.137c-0.101-0.069-0.236-0.086-0.327,0.025
		c-0.198,0.24-0.353,0.499-0.49,0.766c-0.028-0.04-0.068-0.071-0.12-0.07c-0.584,0.018-1.234,0.372-1.797,0.66
		c0.037-0.218,0.084-0.441,0.142-0.669c0.085-0.04,0.171-0.078,0.255-0.119c0.143-0.069,0.08-0.332-0.084-0.311
		c-1.665,0.215-3.184,1.011-4.514,2.01c-0.858,0.644-2.223,1.565-1.824,2.751c-0.044,0.275-0.044,0.538-0.011,0.792
		c-1.093,0.039-1.981,1.248-1.848,2.323c0.064,0.521,0.404,0.947,0.93,1.049c0.144,0.028,0.291,0.017,0.43-0.015
		c-0.113,0.243-0.171,0.507-0.184,0.776c-1.512,0.63-2.676,2.367-2.466,4.036c0.036,0.284,0.339,0.324,0.473,0.14
		c0.257,0.343,0.536,0.668,0.858,0.952c0.002,0.002,0.005,0.005,0.008,0.007c-0.25,0.975-0.324,1.802-0.288,2.82
		c-0.092,0.024-0.159,0.158-0.071,0.234c0.037,0.033,0.075,0.069,0.112,0.102c0.025,0.043,0.061,0.074,0.104,0.095
		c0.371,0.343,0.748,0.719,1.182,0.953c0.108,0.058,0.202-0.006,0.236-0.095c0.003-0.001,0.005,0.002,0.008,0.001
		c0.462-0.14,0.921-0.272,1.38-0.398c1.217,2.697,3.961,2.332,6.615,2.397c5.116,0.125,10.233,0.009,15.334-0.403
		c0.278,0.162,0.553,0.328,0.833,0.488c0.095,0.054,0.176,0.024,0.24-0.028c0.06,0.084,0.208,0.109,0.27-0.001
		c0.047-0.084,0.087-0.173,0.132-0.258c0.017,0.006,0.028,0.02,0.048,0.019c5.12-0.173,10.2-0.516,15.328-0.375
		c3.454,0.095,7.056,0.958,10.144-0.891c0.156-0.093,0.167-0.258,0.102-0.383c1.053,0.189,2.112,0.393,3.18,0.606
		c0.03,0.006,0.049-0.013,0.076-0.015c0.003,0.019,0.006,0.037,0.01,0.056c0.03,0.161,0.287,0.122,0.283-0.038
		c-0.046-2.008-0.411-3.979-0.851-5.934c0.286,0.282,0.553,0.588,0.785,0.934c0.021,0.031,0.046,0.054,0.072,0.072
		c0.036,0.125,0.172,0.231,0.303,0.142c1.229-0.837,2.42-1.738,3.589-2.655c0.01-0.008,0.014-0.018,0.022-0.027
		C60.675,33.5,60.795,33.352,60.702,33.215z M54.957,28.135c0.838,0.336,1.397,1.46,0.78,2.253
		c-0.583,0.749-1.733,0.655-2.394,0.079c-0.015-0.013-0.032-0.012-0.048-0.018c-0.055-0.127-0.237-0.146-0.312-0.023
		c-0.109,0.179-0.148,0.379-0.348,0.494c-0.306,0.176-0.632,0.001-0.8-0.271c-0.067-0.108-0.238-0.04-0.209,0.085
		c-0.109-0.007-0.222,0.074-0.18,0.199c0.128,0.389,0.315,0.773-0.024,1.132c-0.279,0.294-0.677,0.221-0.953-0.011
		c-0.007-0.179-0.063-0.353-0.188-0.502c-0.031-0.038-0.081-0.048-0.13-0.047c-0.033-0.137-0.231-0.144-0.239,0.013
		c-0.006,0.117,0.013,0.229,0.043,0.336c-0.039,0.415-0.055,0.807-0.49,1.064c-0.558,0.329-1.267-0.05-1.472-0.617
		c-0.013-0.037-0.039-0.057-0.064-0.074c-0.083-0.08-0.23-0.096-0.289,0.027c-0.43,0.896-0.558,1.788-1.661,2.137
		c-0.917,0.29-1.807-0.141-2.415-0.816c0.318-0.037,0.603-0.168,0.776-0.432c0.08-0.121-0.023-0.327-0.178-0.31
		c-0.293,0.034-0.533,0.199-0.829,0.236c-0.391,0.049-0.737-0.048-1.072-0.247c-0.23-0.137-0.405,0.196-0.204,0.349
		c0.168,0.128,0.4,0.235,0.651,0.31c-0.322,0.693-0.98,0.86-1.732,0.697c-0.496-0.107-1.48-0.422-1.487-1.046
		c0.035-0.058,0.061-0.122,0.073-0.193c0.006-0.035,0.002-0.069-0.005-0.101c0.014-0.032,0.014-0.06,0.033-0.093
		c0.07-0.124-0.105-0.274-0.204-0.158c-0.026,0.03-0.033,0.058-0.055,0.088c-0.011,0.001-0.021-0.003-0.032,0
		c-0.169,0.041-0.264,0.155-0.415,0.234c-0.197,0.104-0.418,0.13-0.638,0.113c-0.458-0.035-0.923-0.28-1.099-0.721
		c-0.003-0.007-0.009-0.007-0.012-0.013c7.957-0.523,14.708-1.568,16.689-2.643c0.086-0.046,0.124-0.114,0.133-0.185
		C54.512,29.087,54.825,28.63,54.957,28.135z M52.444,34.264c0.294,0.204,0.717,0.253,1.046,0.106
		c-0.195,0.384-0.565,0.651-1.055,0.512c-0.677-0.192-0.895-1.05-0.615-1.634c0.077,0.006,0.151,0.025,0.227,0.034
		C52,33.656,52.116,34.036,52.444,34.264z M52.529,35.385c-0.017-0.029-0.041-0.051-0.058-0.08c0.829,0.152,1.6-0.619,1.65-1.417
		c0.144,0.072,0.296,0.125,0.434,0.208c-0.029,1.657,0.142,3.301,0.434,4.93c-1.836-0.239-3.677-0.512-5.523-0.683
		c0.492-0.431,0.984-0.86,1.495-1.268c0.522-0.416,1.093-0.766,1.494-1.304c0.028-0.037,0.026-0.077,0.014-0.115
		C52.546,35.595,52.588,35.487,52.529,35.385z M53.634,33.903c-0.014,0.003-0.026-0.002-0.041,0.005
		c-0.288,0.146-0.562,0.294-0.888,0.139c-0.299-0.143-0.459-0.427-0.47-0.736c0.484,0.068,0.959,0.171,1.409,0.349
		C53.648,33.741,53.644,33.822,53.634,33.903z M52.146,35.593c-0.568,0.208-1.04,0.616-1.5,1.006
		c-0.544,0.462-1.053,0.968-1.528,1.501c-0.009-0.016-0.004-0.033-0.019-0.049c-1.76-1.868-4.175-2.998-6.757-3.456
		c0.405-0.152,0.736-0.416,0.843-0.841c0.515,0.933,1.613,1.476,2.699,1.276c0.096-0.018,0.194-0.048,0.293-0.082
		c0.621,0.241,1.216,0.528,1.777,0.897c0.616,0.405,1.121,0.938,1.723,1.354c0.123,0.085,0.278-0.081,0.202-0.202
		c-0.692-1.095-2.033-1.801-3.295-2.227c0.342-0.186,0.672-0.451,0.93-0.761c0.557,0.25,1.095,0.539,1.594,0.894
		c0.512,0.365,0.944,0.925,1.495,1.214c0.147,0.077,0.306-0.078,0.226-0.226c-0.299-0.555-1.021-0.967-1.545-1.289
		c-0.52-0.32-1.074-0.569-1.642-0.785c0.182-0.26,0.327-0.537,0.375-0.829c0.279,0.326,0.693,0.524,1.124,0.506
		c0.029,0.034,0.052,0.073,0.105,0.089C50.435,33.961,51.33,34.679,52.146,35.593z M22.182,34.825c0.007-0.001,0.013,0,0.019-0.001
		c0.152-0.031,0.295-0.094,0.43-0.17c1.443,1.121,2.592,2.375,3.388,4.019c-0.356,0.004-0.712,0.023-1.068,0.038
		c0.014-0.036,0.027-0.073,0.011-0.122C24.434,37.047,23.468,35.791,22.182,34.825z M6.959,34.98
		c-0.231,0.312-0.432,0.581-0.856,0.578c-0.35-0.003-0.619-0.204-0.766-0.5c0.345-0.192,0.695-0.368,1.049-0.519
		c0.24,0.086,0.443,0.241,0.593,0.426C6.973,34.971,6.964,34.973,6.959,34.98z M7.134,35.214c0.174,0.383,0.111,0.834-0.396,1.161
		c-0.838,0.54-1.654-0.296-1.528-1.127c0.155,0.324,0.44,0.569,0.829,0.616C6.499,35.921,6.975,35.644,7.134,35.214z M2.722,36.422
		c-0.013,0.015-0.008,0.031-0.017,0.046c-0.174-0.209-0.391-0.375-0.61-0.539c0.003-0.003,0.007-0.002,0.01-0.006
		c0.444-0.618,0.968-1.174,1.562-1.65c0.515-0.412,1.169-0.658,1.669-1.067c0.01-0.003,0.021-0.003,0.032-0.007
		c0.397-0.131,0.859-0.413,1.116-0.792c0.414,0.641,1.362,0.699,1.899,0.032c0.202,0.236,0.446,0.4,0.704,0.504
		C6.65,33.309,4.286,34.651,2.722,36.422z M2.59,36.88c0.094,0.017,0.187-0.038,0.231-0.116c0.065,0.022,0.137,0.023,0.205-0.039
		c0.62-0.565,1.244-1.025,1.88-1.418c-0.222,1.077,1.016,2.068,2.075,1.354c0.536-0.362,0.787-1.043,0.505-1.645
		c-0.131-0.278-0.363-0.512-0.637-0.657c1.205-0.45,2.475-0.697,3.862-0.815c-0.22,0.554,0.1,1.242,0.709,1.458
		c0.71,0.253,1.639-0.13,2.064-0.778c0.204,0.357,0.517,0.659,0.929,0.821c0.576,0.227,1.277,0.134,1.855-0.167
		c-0.02,0.254,0.064,0.524,0.281,0.72c0.545,0.495,1.361,0.339,1.93-0.072c0.9,0.512,1.706,1.129,2.371,1.912
		c-3.512-1.124-7.127-1.571-10.826-1.171c-1.537,0.166-3.055,0.482-4.535,0.926c-2.059,0.619-4.108,2.319-3.787-0.793
		C1.968,36.622,2.261,36.82,2.59,36.88z M31.938,33.583c-0.49,0.216-0.834,0.425-1.356,0.098c-0.178-0.112-0.332,0.162-0.163,0.279
		c0.2,0.139,0.467,0.23,0.737,0.256c-0.237,0.588-0.627,1.216-1.381,1.053c-0.571-0.123-0.825-0.662-0.892-1.189
		c0.075-0.075,0.14-0.16,0.181-0.266c0.045-0.118-0.071-0.254-0.19-0.249c-0.257,0.01-0.455,0.156-0.703,0.216
		c-0.294,0.071-0.597,0.062-0.888-0.017c-0.044-0.012-0.08-0.033-0.122-0.048c-0.047-0.048-0.105-0.069-0.176-0.069
		c-0.404-0.186-0.699-0.492-0.91-0.891c-0.008-0.04-0.007-0.08-0.02-0.12c3.593,0.019,7.256-0.102,10.707-0.321
		c-0.01,0.499-0.139,1.071-0.59,1.327c-0.528,0.299-1.231,0.059-1.587-0.396c-0.035-0.045-0.077-0.05-0.117-0.041
		c-0.092-0.066-0.241-0.027-0.284,0.097c-0.155,0.448-0.291,0.878-0.673,1.138c-0.226,0.068-0.449,0.141-0.67,0.218
		c-0.415,0.001-0.803-0.208-1.077-0.535c0.158-0.066,0.303-0.157,0.401-0.311C32.262,33.656,32.076,33.522,31.938,33.583z
		 M26.42,33.939c-0.71,0.487-1.254,1.169-1.483,2.02c-0.001,0.004,0.002,0.007,0.002,0.011c-0.555-0.643-1.184-1.219-1.888-1.674
		c0.06-0.081,0.111-0.168,0.145-0.262c0.374,0.388,0.908,0.602,1.478,0.503c0.517-0.09,1.061-0.515,1.301-1.034
		C26.101,33.669,26.254,33.813,26.42,33.939z M24.6,33.981c-0.521,0.133-1.046-0.111-1.38-0.509
		c-0.003-0.011-0.002-0.022-0.006-0.033c-0.017-0.055-0.062-0.088-0.112-0.11c-0.01-0.015-0.024-0.025-0.033-0.04
		c-0.084-0.14-0.334-0.049-0.273,0.115c0.01,0.028,0.026,0.053,0.037,0.08c-0.055,0.256-0.158,0.431-0.288,0.554
		c-0.093,0.003-0.163,0.05-0.198,0.132c-0.451,0.212-1.099-0.005-1.606-0.305c-0.021-0.129-0.141-0.221-0.261-0.17
		c-0.038-0.027-0.083-0.054-0.117-0.082c-0.156-0.122-0.367,0.071-0.224,0.224c0.029,0.031,0.061,0.062,0.091,0.093
		c-0.312,0.35-0.598,0.663-1.125,0.732c-0.566,0.074-1.039-0.174-1.396-0.57c0.228,0.029,0.454,0.026,0.662-0.033
		c0.196-0.056,0.222-0.383,0-0.424c-0.32-0.058-0.639-0.014-0.963-0.071c-0.356-0.063-0.696-0.189-1.018-0.351
		c-0.196-0.099-0.356,0.174-0.172,0.294c0.155,0.101,0.334,0.2,0.524,0.29c-0.548,0.404-1.044,0.859-1.801,0.745
		c-0.718-0.108-1.257-0.755-1.236-1.468c0.035-0.045,0.074-0.086,0.101-0.139c0.063-0.122-0.024-0.292-0.16-0.298
		c-0.085-0.066-0.207-0.079-0.263,0.044c-0.006,0.014-0.008,0.028-0.014,0.042c-0.442,0.19-0.842,0.396-1.349,0.144
		c-0.411-0.204-0.632-0.613-0.715-1.047c0.008-0.031,0.024-0.054,0.031-0.085c0.019-0.088-0.017-0.148-0.068-0.193
		c-0.001-0.011-0.004-0.022-0.005-0.033c-0.001-0.019-0.013-0.03-0.019-0.045c3.996,0.776,9.085,1.121,14.354,1.165
		C25.414,33.211,25.292,33.804,24.6,33.981z M18.079,35.306c-0.224,0.136-0.458,0.245-0.746,0.237
		c-0.303-0.008-0.651-0.151-0.756-0.464c-0.045-0.135-0.027-0.273,0.025-0.397c0.009-0.007,0.021-0.011,0.03-0.018
		C17.141,34.85,17.618,35.069,18.079,35.306z M13.298,33.76c-0.009,0.01-0.017,0.02-0.027,0.029
		c-0.017-0.09-0.087-0.167-0.191-0.126c-0.36,0.143-0.637,0.245-1.025,0.102c-0.16-0.059-0.298-0.156-0.417-0.271
		c0.165-0.009,0.326-0.022,0.497-0.027c0.005,0,0.007-0.005,0.012-0.005c0.348,0.084,0.752,0.078,1.087-0.051
		C13.238,33.531,13.27,33.645,13.298,33.76z M11.304,33.513c0.342,0.536,1.052,0.906,1.61,0.663
		c-0.224,0.238-0.467,0.444-0.857,0.496c-0.66,0.088-1.356-0.554-1.008-1.145C11.133,33.521,11.221,33.518,11.304,33.513z
		 M19.164,35.192c0.368-0.043,0.748-0.204,1.05-0.444c0.01,0.017,0.013,0.035,0.031,0.048c0.695,0.486,1.342,1.031,1.881,1.688
		c0.546,0.665,0.89,1.419,1.38,2.111c0.093,0.132,0.315,0.057,0.27-0.114c-0.422-1.603-2.011-3.059-3.37-3.907
		c0.08-0.087,0.158-0.177,0.213-0.28c0.362,0.301,0.781,0.528,1.244,0.546c1.259,1.001,2.18,2.333,2.701,3.858
		c0.004,0.013,0.017,0.014,0.022,0.025c-0.651,0.034-1.301,0.079-1.946,0.143c-0.071,0.007-0.119,0.043-0.151,0.088
		C21.806,37.425,20.627,36.053,19.164,35.192z M26.468,39.213c0.224-0.017,0.324-0.218,0.238-0.415
		c-0.182-0.421-0.399-0.835-0.636-1.239c0.544,0.333,1.06,0.68,1.558,1.056c-0.07,0.009-0.134,0.04-0.169,0.119
		c-0.238,0.537-0.457,1.082-0.68,1.626c-0.585-0.373-1.18-0.729-1.775-1.084C25.494,39.263,25.983,39.25,26.468,39.213z
		 M26.021,37.202c-0.065-0.022-0.113,0.011-0.143,0.057c-0.223-0.353-0.453-0.702-0.716-1.028c0.074,0.005,0.146-0.014,0.184-0.1
		c0.343-0.794,0.867-1.456,1.599-1.905c0.042,0.017,0.077,0.047,0.12,0.061c0.358,0.118,0.915,0.176,1.36,0.048
		c0.004,0.097,0.041,0.189,0.065,0.284c-0.425,0.207-0.811,0.657-1.05,1.008c-0.355,0.521-0.552,1.094-0.633,1.716
		c-0.02,0.153,0.229,0.181,0.266,0.036c0.139-0.55,0.376-1.062,0.721-1.513c0.248-0.325,0.587-0.549,0.876-0.816
		c0.24,0.393,0.629,0.703,1.093,0.774c0.786,0.119,1.783-0.551,1.798-1.386c0.161,0.205,0.372,0.358,0.6,0.476
		c-1.661,0.685-3.095,1.703-3.934,3.382c-0.016,0.033-0.011,0.062-0.008,0.091C27.544,37.885,26.801,37.464,26.021,37.202z
		 M28.509,38.46c1.06-1.691,2.649-2.686,4.429-3.357c0.13-0.002,0.26-0.006,0.39-0.042c0.182-0.05,0.357-0.152,0.523-0.272
		c0.617-0.192,1.249-0.355,1.884-0.5c0.213,0.001,0.425-0.038,0.63-0.14c0.96-0.205,1.916-0.382,2.826-0.579
		c0.128,0.317,0.422,0.591,0.767,0.792c-4.193-0.067-8.441,1.57-10.82,4.793c-0.226-0.219-0.468-0.428-0.721-0.626
		C28.45,38.517,28.484,38.499,28.509,38.46z M40.795,35.659c-0.137,0.108-0.301,0.187-0.516,0.218
		c-0.542,0.077-0.99-0.242-1.241-0.695c0.23-0.005,0.456-0.002,0.682-0.002C39.99,35.488,40.4,35.72,40.795,35.659z M34.111,37.21
		c0.521,0.03,1.082-0.268,1.261-0.769c0.004,0.289-0.101,0.576-0.362,0.804c-0.308,0.27-0.743,0.356-1.142,0.318
		c-0.202-0.019-1.585-0.381-1.161-0.844c0.012-0.013,0.012-0.028,0.017-0.042c0.107-0.061,0.22-0.105,0.328-0.162
		C33.279,36.9,33.635,37.183,34.111,37.21z M33.224,36.43c0.597-0.302,1.213-0.563,1.885-0.749c0.124,0.168,0.193,0.36,0.23,0.556
		c-0.041-0.019-0.09-0.019-0.128,0.02c-0.283,0.294-0.543,0.574-0.978,0.614C33.834,36.909,33.471,36.726,33.224,36.43z
		 M32.379,36.878c-0.012,0.275,0.248,0.594,0.466,0.741c0.586,0.395,1.404,0.523,2.059,0.231c0.557-0.248,0.914-0.776,0.938-1.386
		c0.012-0.31-0.08-0.638-0.259-0.896c0.894-0.208,1.866-0.336,2.98-0.381c0.067-0.003,0.132,0,0.199-0.003
		c0.211,0.624,0.792,1.081,1.468,1.063c0.561-0.015,1.217-0.415,1.38-0.977c2.591,0.263,4.94,1.097,7.054,2.97
		c-5.9-1.634-12.436-1.813-17.718,1.608c-0.055-0.607-0.142-1.202-0.135-1.818C31.329,37.589,31.847,37.209,32.379,36.878z
		 M51.382,34.107c-0.423-0.326-0.895-0.592-1.392-0.795c0.01,0,0.016,0.007,0.026,0.005c0.502-0.095,1.001-0.112,1.495-0.094
		C51.363,33.493,51.332,33.805,51.382,34.107z M49.858,23.385c-0.976,0.56-1.683,1.725-1.812,2.819
		c-0.219-0.622-0.469-1.226-0.59-1.89c-0.139-0.756-0.157-1.515-0.139-2.277C48.228,22.368,49.07,22.827,49.858,23.385z
		 M39.866,20.177c0.639-0.003,1.214,0.195,1.863,0.36c-0.915,1.309-1.88,2.92-2.122,4.472
		C39.381,23.312,39.422,21.781,39.866,20.177z M16.488,21.357c0.518-0.017,1.155,0.039,1.71-0.058
		c-0.96,1.209-1.483,2.938-1.589,4.395C16.553,24.782,16.422,22.628,16.488,21.357z M9.147,22.81
		c0.601-0.182,1.339-0.358,1.84-0.733c-0.626,1.428-0.606,3.135-0.963,4.654C9.296,25.409,9,24.19,9.147,22.81z M6.708,23.023
		c0.709-0.416,1.454-0.754,2.197-1.097c-0.718,1.703-0.398,3.928,0.915,5.246c0.044,0.044,0.095,0.056,0.144,0.053
		c0.059,0.076,0.189,0.099,0.246-0.006c1.001-1.827,0.579-4.056,1.781-5.808c1.387-0.309,2.781-0.582,4.169-0.881
		c-0.354,0.757-0.366,1.838-0.361,2.626c0.006,1.009,0.091,2.108,0.497,3.037c0.054,0.124,0.216,0.107,0.294,0.021
		c0.028,0.216,0.342,0.199,0.37-0.026c0.147-1.185,0.441-2.306,0.998-3.37c0.445-0.852,1.131-1.5,1.641-2.293
		c1.519-0.219,3.034-0.434,4.557-0.624c-1.355,2.421-1.638,5.731-0.457,8.255c0.102,0.219,0.405,0.054,0.366-0.154
		c-0.475-2.586-0.497-4.723,0.174-7.114c0.04,0.011,0.08,0.02,0.072,0.019c0.1,0.01,0.113-0.102,0.06-0.162
		c0.27-0.07,0.538-0.114,0.83-0.148c0.388-0.045,0.817-0.056,1.191-0.185c-0.574,0.866-0.987,1.824-1.297,2.841
		c-0.482,1.578-1.031,3.4-1.03,5.055c0,0.095,0.142,0.142,0.187,0.05c1.423-2.891,1.161-6.08,3.406-8.661
		c0.063-0.072,0.079-0.152,0.068-0.226c0.81-0.179,1.627-0.309,2.457-0.349c0.501-0.024,1.007,0.043,1.505,0.031
		c-1.187,1.6-1.843,3.835-1.346,5.77c0.045,0.177,0.234,0.194,0.352,0.109c-0.006,0.015-0.014,0.03-0.02,0.045
		c-0.088,0.217,0.255,0.345,0.37,0.156c0.605-1,1.193-1.999,1.889-2.941c0.693-0.937,1.557-1.728,2.244-2.66
		c0.02-0.027,0.015-0.055,0.02-0.084c0.002,0,0.003,0.001,0.005,0.001c1.494-0.201,2.858-0.258,4.338-0.09
		c-0.084,0.195-0.158,0.397-0.229,0.599c-0.01,0.004-0.021,0.007-0.031,0.011c-0.069,0.028-0.069,0.108-0.024,0.142
		c-0.553,1.679-0.637,3.556-0.055,5.216c0.076,0.215,0.314,0.2,0.408,0.055c0.037,0.01,0.081,0.001,0.105-0.034
		c0.554-0.81,0.872-1.788,1.329-2.658c0.455-0.867,0.974-1.684,1.528-2.49c1.599,0.03,3.001,0.431,4.442,1.113
		c0.014,0.007,0.025-0.001,0.039,0.003c-0.493,1.767-0.286,4.151,0.887,5.609c0.117,0.146,0.339-0.002,0.313-0.165
		c0.065-0.008,0.124-0.039,0.14-0.123c0.138-0.746,0.377-1.408,0.864-2.003c0.478-0.585,1.056-0.829,1.671-1.214
		c0.007-0.004,0.008-0.014,0.015-0.019c0.777,0.639,1.744,1.018,2.442,1.793c1.019,1.131,1.186,2.768,0.073,3.894
		c-0.01,0.01-0.006,0.022-0.014,0.033c-7.033,3.328-16.278,2.688-23.911,2.747c-4.856,0.038-25.149,1.626-25.87-5.954
		C3.806,24.695,5.705,23.611,6.708,23.023z M2.145,29.63c-0.346-0.234-0.322-0.717-0.222-1.078c0.168-0.604,0.665-1.263,1.304-1.382
		c0.526,2.028,3.509,3.39,7.788,4.248c-0.015,0.016-0.033,0.028-0.041,0.053c-0.013,0.042-0.005,0.085-0.014,0.127
		c-0.006,0.012-0.019,0.014-0.024,0.028c-0.383,1.111-1.765,1.31-2.355,0.268c-0.086-0.151-0.348-0.171-0.428,0
		c-0.105,0.403-0.367,0.511-0.786,0.325c-0.352,0.104-0.585,0.032-0.714-0.195c0.012-0.055,0.026-0.109,0.028-0.166
		c0.004-0.09-0.057-0.146-0.13-0.165c-0.002-0.017-0.009-0.028-0.011-0.046c-0.031-0.152-0.264-0.113-0.266,0.036
		c-0.001,0.047,0.016,0.082,0.019,0.127c-0.344,0.34-0.561,0.694-1.071,0.866c-0.535,0.181-1.144,0.121-1.589-0.247
		c-0.054-0.045-0.096-0.097-0.143-0.146c-0.02-0.063-0.064-0.113-0.128-0.141c-0.494-0.648-0.485-1.577-0.116-2.292
		c0.166,0.116,0.35,0.201,0.563,0.196c0.18-0.004,0.288-0.282,0.099-0.367c-0.417-0.187-0.759-0.3-0.99-0.732
		c-0.076-0.141-0.309-0.045-0.26,0.11c0.054,0.172,0.151,0.337,0.265,0.49C2.697,29.751,2.42,29.815,2.145,29.63z M0.602,34.78
		c0.207-1.401,0.778-2.503,1.909-3.383c0.041,0.301,0.139,0.596,0.288,0.861C1.853,32.652,1.152,33.66,1,34.638
		c-0.036,0.233,0.309,0.341,0.363,0.1c0.226-1.019,0.861-1.638,1.723-2.08c0.101,0.111,0.212,0.212,0.336,0.298
		C3.691,33.143,4,33.25,4.319,33.293c-0.31,0.193-0.602,0.425-0.854,0.629c-0.641,0.518-1.159,1.14-1.594,1.837
		c-0.004-0.003-0.009-0.007-0.013-0.01C1.436,35.43,1.02,35.104,0.602,34.78z M2.542,39.98c-0.002,0.001-0.001,0.003-0.003,0.003
		c-0.256-0.267-0.572-0.492-0.892-0.705c6.33-2.985,13.141-3.333,19.768-1.082c0.146,0.22,0.278,0.456,0.408,0.696
		c-0.027-0.014-0.053-0.03-0.08-0.045c-0.092-0.049-0.174-0.009-0.216,0.056C15.291,37.211,8.487,37.243,2.542,39.98z
		 M16.355,41.694c-2.982,0.052-10.041,0.928-12.023-1.949c5.845-1.57,11.434-1.935,17.438-0.231
		c0.117,0.033,0.196-0.022,0.251-0.098c1.013,0.653,2.045,1.278,3.082,1.893C22.189,41.486,19.274,41.643,16.355,41.694z
		 M27.096,41.989c-0.018-0.027-0.023-0.058-0.057-0.079c-0.211-0.129-0.426-0.253-0.638-0.381c0.01-0.146-0.072-0.292-0.262-0.28
		c-0.063,0.004-0.126,0.007-0.188,0.011c-1.132-0.677-2.271-1.342-3.428-1.976c0.008-0.017,0.022-0.029,0.027-0.047
		c0.028,0.015,0.05,0.037,0.09,0.039c0.574,0.017,1.151,0.022,1.727,0.017c0.793,0.567,1.587,1.13,2.402,1.666
		c0.106,0.07,0.301,0.031,0.354-0.093c0.274-0.643,0.557-1.282,0.815-1.931c0.012-0.031-0.004-0.055-0.005-0.084
		c0.135,0.108,0.265,0.228,0.397,0.341c-0.284,0.41-0.459,0.91-0.655,1.364C27.472,41.029,27.277,41.506,27.096,41.989z M38.313,41
		c-3.575,0.04-7.151,0.191-10.693,0.688c0.173-0.333,0.35-0.664,0.514-1.002c0.186-0.383,0.415-0.782,0.543-1.197
		c0.028,0.026,0.059,0.048,0.087,0.074c0.175,0.165,0.405,0.042,0.46-0.132c0.045,0.007,0.092,0.001,0.13-0.038
		c0.371-0.384,0.733-0.732,1.093-1.057c-0.072,0.639-0.085,1.324,0.116,1.911l0,0c-0.067,0.04-0.101,0.122-0.053,0.232
		c0.063,0.144,0.273,0.189,0.402,0.228c0.388,0.119,0.792,0.21,1.188,0.295c0.145,0.031,0.229-0.085,0.232-0.199
		c6.871-2.208,13.436-1.696,20.26-0.497C48.815,42.429,42.529,40.953,38.313,41z M56.236,40.45
		c-7.964-1.62-16.312-3.121-24.083,0.078c-0.038,0.016-0.059,0.044-0.077,0.074c-0.279-0.054-0.933-0.174-1.255-0.221
		c0.045-0.01,0.087-0.029,0.115-0.066c5.661-3.353,11.464-2.833,17.687-1.626c0.021,0.004,0.037-0.003,0.056-0.004
		c2.192,0.405,4.428,0.633,6.634,0.924c0.189,0.025,0.288-0.191,0.26-0.341c-0.297-1.602-0.437-3.201-0.512-4.821
		c0.096,0.071,0.18,0.161,0.272,0.237c-0.066,0.053-0.114,0.125-0.091,0.23C55.645,36.748,55.913,38.602,56.236,40.45z
		 M56.937,35.664c-0.514-0.777-1.183-1.408-1.937-1.887c-0.041-0.104-0.128-0.159-0.228-0.151c-0.254-0.147-0.52-0.269-0.791-0.379
		c-0.013-0.024-0.015-0.051-0.03-0.074c-0.066-0.104-0.196-0.105-0.286-0.051c-1.128-0.388-2.366-0.456-3.579-0.133
		c0.131-0.154,0.245-0.324,0.311-0.512c0.304,0.217,0.707,0.29,1.076,0.109c0.211-0.103,0.387-0.324,0.498-0.579
		c2.439,0.097,4.137,1.175,5.789,2.916c0.022,0.023,0.048,0.026,0.074,0.033C57.536,35.196,57.227,35.419,56.937,35.664z
		 M58.046,34.788c-0.001-0.026,0.004-0.051-0.011-0.078c-1.157-2.016-3.708-3.085-5.975-2.995c0.031-0.15,0.044-0.3,0.018-0.44
		c0.46,0.217,1.088,0.041,1.226-0.409c0.406,0.458,1.036,0.622,1.633,0.538c1.269,0.896,3.089,1.35,3.797,2.84
		C58.507,34.428,58.274,34.605,58.046,34.788z M59.05,33.996c-0.673-1.348-2.421-2.162-3.829-2.651
		c0.34-0.098,0.656-0.275,0.893-0.542c0.032,0.041,0.066,0.081,0.134,0.095c1.528,0.318,2.823,1.119,3.836,2.282
		C59.733,33.443,59.393,33.722,59.05,33.996z"/>
</g>
<g>
</g>
<g>
</g>
<g>
</g>
<g>
</g>
<g>
</g>
<g>
</g>
<g>
</g>
<g>
</g>
<g>
</g>
<g>
</g>
<g>
</g>
<g>
</g>
<g>
</g>
<g>
</g>
<g>
</g>
</svg>
