<?xml version="1.0" encoding="iso-8859-1"?>
<!-- Generator: Adobe Illustrator 18.0.0, SVG Export Plug-In . SVG Version: 6.00 Build 0)  -->
<!DOCTYPE svg PUBLIC "-//W3C//DTD SVG 1.1//EN" "http://www.w3.org/Graphics/SVG/1.1/DTD/svg11.dtd">
<svg version="1.1" id="Capa_1" xmlns="http://www.w3.org/2000/svg" xmlns:xlink="http://www.w3.org/1999/xlink" x="0px" y="0px"
	 viewBox="0 0 54.882 54.882" style="enable-background:new 0 0 54.882 54.882;" xml:space="preserve">
<g>
	<path style="fill:#1D1D1B;" d="M53.782,44.823c1.044-1.474,1.509-3.44,0.301-4.822c-0.08-0.092-0.186-0.08-0.262-0.021
		c-2.795-4.058-8.659-6.508-12.55-8.998c-6.539-4.184-13.018-8.536-19.719-12.459c0.024-0.105,0.049-0.209,0.06-0.318
		c0.011-0.108-0.049-0.174-0.124-0.219c-0.002-0.052-0.015-0.105-0.048-0.16C19.02,13.879,7.053-3.89,0.826,2.035
		C0.703,1.993,0.558,2.016,0.492,2.151C0.418,2.302,0.363,2.456,0.306,2.609C0.253,2.675,0.197,2.728,0.145,2.798
		c-0.056,0.075-0.024,0.15,0.037,0.191c-0.908,3.266,1.769,6.986,3.876,9.259c3.91,4.216,9.402,6.65,14.707,8.608
		c0.081,0.03,0.146-0.01,0.193-0.067c0.024,0.008,0.041,0.025,0.072,0.022c0.061-0.007,0.12-0.024,0.18-0.035
		c0.005,0.014,0.005,0.027,0.013,0.041c4.18,7.623,8.729,15.054,13.674,22.207c1.965,2.842,5.948,10.047,9.916,10.601
		c-0.228,0.048-0.166,0.423,0.069,0.421c2.362-0.02,3.659-1.14,4.202-2.688c-0.437,0.936-1.45,1.675-3.265,2.08
		c-0.004-0.058-0.03-0.111-0.111-0.123c-3.273-0.451-6.563-5.473-8.342-7.89c-1.945-2.643-3.753-5.397-5.542-8.147
		c-3.54-5.439-6.839-11.022-10.013-16.68c0.122-0.053,0.225-0.14,0.339-0.208c5.101,7.952,11.441,15.26,17.793,22.224
		c2.488,2.728,5.56,6.893,9.215,8.493c-0.025,0.083-0.045,0.169-0.073,0.25c0.037-0.079,0.056-0.164,0.084-0.246
		c1.838,0.802,3.822,0.958,5.955-0.049c0.143-0.067,0.162-0.226,0.108-0.352C55.552,49.354,55.13,47.058,53.782,44.823z
		 M37.756,29.519c5.028,3.203,12.636,6.473,16.255,11.423c0.312,1.128,0.04,2.337-0.592,3.312c-1.457-2.165-3.646-4.189-4.876-5.133
		c-8.935-6.865-18.756-12.345-27.526-19.474c0.136-0.178,0.26-0.367,0.354-0.571C26.732,22.7,32.299,26.043,37.756,29.519z
		 M52.98,44.82c-0.83,0.931-2.022,1.521-3.307,1.371c-1.317-0.154-2.599-0.923-3.766-1.688c-0.189-0.301-0.389-0.591-0.606-0.855
		c-3.235-3.933-7.75-7.082-11.434-10.596c-3.675-3.505-7.181-7.168-10.713-10.81c4.174,3.479,8.742,6.487,13.273,9.469
		C38.733,33.23,49.445,39.497,52.98,44.82z M18.977,20.417c-0.03,0.01-0.046,0.036-0.066,0.057
		c-3.973-1.842-8.05-3.448-11.551-6.141C4.224,11.92-0.649,6.923,0.955,2.554C7.62-1.922,18.108,13.742,20.847,18.173
		c0.04,0.064,0.091,0.101,0.146,0.126C20.686,19.318,20.015,20.069,18.977,20.417z M33.546,36.621
		c-4.567-5.32-8.705-10.963-13.132-16.393c0.041-0.031,0.091-0.048,0.131-0.081c4.232,4.924,8.868,9.507,13.566,13.982
		c2.257,2.15,4.547,4.261,6.875,6.334c1.894,1.686,6.511,6.44,6.352,9.785C41.841,47.848,36.643,40.228,33.546,36.621z
		 M52.191,50.784c-1.612,0.421-3.244,0.167-4.851-0.534c0.192-1.559-0.2-3.347-0.955-4.882c1.802,1.258,4.013,2.208,5.914,0.935
		c0.363-0.243,0.715-0.556,1.035-0.914C54.539,47.495,54.488,49.414,52.191,50.784z"/>
</g>
<g>
</g>
<g>
</g>
<g>
</g>
<g>
</g>
<g>
</g>
<g>
</g>
<g>
</g>
<g>
</g>
<g>
</g>
<g>
</g>
<g>
</g>
<g>
</g>
<g>
</g>
<g>
</g>
<g>
</g>
</svg>
