<?xml version="1.0" encoding="iso-8859-1"?>
<!-- Generator: Adobe Illustrator 18.0.0, SVG Export Plug-In . SVG Version: 6.00 Build 0)  -->
<!DOCTYPE svg PUBLIC "-//W3C//DTD SVG 1.1//EN" "http://www.w3.org/Graphics/SVG/1.1/DTD/svg11.dtd">
<svg version="1.1" id="Capa_1" xmlns="http://www.w3.org/2000/svg" xmlns:xlink="http://www.w3.org/1999/xlink" x="0px" y="0px"
	 viewBox="0 0 49.174 49.174" style="enable-background:new 0 0 49.174 49.174;" xml:space="preserve">
<g>
	<path style="fill:#1D1D1B;" d="M43.912,6.839c0.117-0.193,0.081-0.476-0.2-0.534C41.592,5.863,39.5,6.149,37.599,7.17
		c-0.098-1.389-0.187-2.779-0.295-4.167c-0.022-0.286-0.295-0.401-0.507-0.346C32.836-0.28,27.3-0.104,22.593,0.099
		C16.407,0.365,10.368,1.665,4.58,3.853C4.261,3.973,4.39,4.484,4.723,4.371c9-3.046,23.161-6.646,31.822-1.079
		c0.007,0.005,0.014,0.005,0.022,0.009c0.018,0.296,0.037,0.592,0.055,0.888c-0.069-0.164-0.227-0.285-0.448-0.218
		C25.476,7.233,14.508,9.139,4.009,4.177C3.972,4.16,3.94,4.171,3.906,4.171c-0.11-0.3-0.212-0.603-0.325-0.902
		C3.475,2.99,3.028,3.103,3.127,3.394C5.148,9.345,6.72,15.406,7.622,21.631c0.824,5.687,0.471,11.439,1.232,17.103
		c0.035,0.262,0.087,0.503,0.132,0.753c-0.11-0.011-0.214-0.006-0.325-0.021c-0.101-0.014-0.147,0.139-0.043,0.156
		c0.132,0.022,0.267,0.04,0.402,0.059c1.352,7.164,6.503,9.662,13.729,9.486c8.04-0.196,13.801-3.537,15.669-11.777
		c1.19-5.248,0.49-10.75,0.135-16.056c-0.214-3.197-0.429-6.395-0.644-9.593c0.065,0.082,0.168,0.135,0.3,0.105
		c0.573-0.13,1.697-0.743,2.032-0.543c0.628,0.375,0.622,4.355,0.704,5.062c0.366,3.147,0.762,6.29,1.196,9.429
		c-1.593,0.853-2.191,3.132-1.444,4.736c0.811,1.74,2.835,2.439,4.591,1.907c0.004,0.05,0.008,0.1,0.012,0.15
		c0.038,0.484,0.797,0.489,0.759,0C45.406,24.007,44.908,15.387,43.912,6.839z M38.203,28.801c0.137,4.541-0.077,9.299-2.441,13.314
		c-3.14,5.332-8.849,6.44-14.579,6.265c-5.959-0.182-10.085-2.823-11.3-8.601c1.301,0.104,2.666,0.021,3.837-0.476
		c0.113-0.048,0.025-0.199-0.077-0.183c-1.319,0.209-2.521,0.436-3.801,0.424c-0.056-0.288-0.112-0.575-0.154-0.878
		c-0.112-0.813-0.186-1.63-0.243-2.449c1.352,0.186,2.714-0.135,3.766-1.044c0.085-0.074-0.028-0.222-0.122-0.157
		c-1.105,0.768-2.335,1.145-3.662,0.972c-0.191-2.921-0.13-5.869-0.371-8.786c-0.001-0.011-0.002-0.022-0.003-0.034
		C9.069,27.178,9.076,27.195,9.1,27.2c1.221,0.271,2.528,0.195,3.636-0.42c0.134-0.074,0.043-0.31-0.107-0.254
		c-1.139,0.429-2.24,0.629-3.448,0.378c-0.068-0.014-0.114,0.019-0.147,0.062c-0.099-1.155-0.229-2.304-0.375-3.45
		c1.131-0.33,2.283-0.412,3.47-0.32c0.1,0.008,0.123-0.157,0.024-0.176c-1.202-0.224-2.38-0.081-3.521,0.297
		c-0.163-1.256-0.361-2.505-0.579-3.749c0.997-0.342,2.01-0.428,3.077-0.353c0.121,0.009,0.15-0.191,0.029-0.214
		c-1.071-0.207-2.138-0.045-3.146,0.333c-0.278-1.565-0.614-3.118-0.976-4.664c0.016,0.018,0.031,0.036,0.06,0.04
		c1.317,0.181,2.908,0.161,4.09-0.528c0.117-0.068,0.037-0.239-0.089-0.212c-1.36,0.288-2.552,0.62-3.964,0.47
		c-0.07-0.008-0.113,0.047-0.126,0.107c-0.78-3.311-1.734-6.581-2.891-9.796c10.201,5.425,21.705,3.244,32.269-0.014
		c0.145-0.045,0.222-0.145,0.255-0.258C37.135,12.582,37.959,20.69,38.203,28.801z M41.383,30.308
		c-0.744-1.508-0.003-2.927,1.049-3.985c0.085-0.015,0.152-0.074,0.165-0.163c0.035-0.033,0.067-0.069,0.102-0.1
		c0.153-0.139,0.042-0.395-0.138-0.429c-0.479-5.131-1.073-10.249-1.68-15.366c-0.032-0.266-0.322-0.419-0.536-0.222
		c-0.765,0.406-1.53,0.812-2.296,1.219c-0.079,0.019-0.129,0.062-0.164,0.113c-0.081-1.197-0.157-2.394-0.241-3.591
		c0.03-0.005,0.059-0.009,0.09-0.025c1.802-0.89,3.757-1.157,5.725-0.757c0.33,8.327,1.129,16.649,1.792,24.956
		C43.769,32.33,42.088,31.738,41.383,30.308z"/>
	<path style="fill:#1D1D1B;" d="M12.604,30.542c-0.951,0.456-1.886,0.637-2.924,0.374c-0.167-0.042-0.237,0.212-0.071,0.258
		c1.044,0.289,2.214,0.214,3.147-0.37C12.923,30.699,12.778,30.459,12.604,30.542z"/>
</g>
<g>
</g>
<g>
</g>
<g>
</g>
<g>
</g>
<g>
</g>
<g>
</g>
<g>
</g>
<g>
</g>
<g>
</g>
<g>
</g>
<g>
</g>
<g>
</g>
<g>
</g>
<g>
</g>
<g>
</g>
</svg>
