<?xml version="1.0" encoding="iso-8859-1"?>
<!-- Generator: Adobe Illustrator 18.0.0, SVG Export Plug-In . SVG Version: 6.00 Build 0)  -->
<!DOCTYPE svg PUBLIC "-//W3C//DTD SVG 1.1//EN" "http://www.w3.org/Graphics/SVG/1.1/DTD/svg11.dtd">
<svg version="1.1" id="Capa_1" xmlns="http://www.w3.org/2000/svg" xmlns:xlink="http://www.w3.org/1999/xlink" x="0px" y="0px"
	 viewBox="0 0 55.418 55.418" style="enable-background:new 0 0 55.418 55.418;" xml:space="preserve">
<g>
	<path style="fill:#1D1D1B;" d="M42.757,11.013c0.016-0.07,0.034-0.138,0.026-0.217c-0.05-0.505-0.533-0.798-0.937-1.014
		C41.822,9.77,41.8,9.768,41.777,9.762C41.528,7.826,41.53,5.9,41.543,3.957c0-0.079,0.019-0.148,0.014-0.23
		c0.141-0.049,0.249-0.183,0.201-0.379c-0.615-2.496-3.939-2.78-6.085-3.06c-3.24-0.423-6.816-0.403-10.092,0.21
		c-0.053-0.061-0.132-0.102-0.238-0.102c-2.465-0.003-4.924,0.187-7.365,0.53c-1.457,0.205-3.363,0.289-4.546,1.3
		c-0.402,0.344-0.664,0.759-0.809,1.197c-0.266,0.459-0.335,0.993-0.228,1.503c-0.045,0.713,0.07,1.458,0.097,2.161
		c0.041,1.058,0.016,2.112-0.03,3.169c-0.003,0-0.004-0.003-0.007-0.003c-0.449,0.031-0.658,0.565-0.595,0.973
		c0.045,0.29,0.227,0.494,0.458,0.63c0.007,0.022,0.026,0.04,0.044,0.059c-1.48,0.504-2.728,1.923-2.751,3.544
		c-0.02,1.444,1.912,1.365,2.957,0.819c-1.356,10.91-0.533,22.461,0.048,33.405c0.008,0.144,0.092,0.235,0.195,0.28
		c-0.028,0.074-0.032,0.157,0.034,0.223c3.351,3.358,7.656,4.745,12.314,5.145c5.782,0.496,10.046-1.183,15.281-3.464
		c0.208-0.091,0.207-0.336,0.102-0.504c0.042-0.051,0.075-0.112,0.08-0.193c0.804-11.788,1.82-24.212,0.567-35.99
		c0-0.004-0.004-0.006-0.005-0.01c1.654-0.021,3.717,0.496,4.457-1.165C46.432,12.229,44.222,11.098,42.757,11.013z M15.626,2.013
		c1.136-0.423,2.584-0.451,3.763-0.588c1.593-0.186,3.187-0.268,4.786-0.327c0.017,0.007,0.029,0.02,0.049,0.021
		c2.531,0.09,5.052-0.331,7.589-0.329c2.152,0.002,7.86-0.092,9.175,2.452c0,0.009-0.009,0.014-0.008,0.024
		c0.507,6.17-22.775,5.809-27.521,2.076C12.838,4,14.058,2.597,15.626,2.013z M12.939,5.675c0.123,0.187,0.271,0.357,0.444,0.512
		c3.148,3.343,12.78,2.457,16.155,2.279c2.621-0.138,9.257-0.008,11.364-2.631c-0.056,1.342,0.03,2.689,0.214,4.035
		c-7.802,4.008-19.871,3.276-27.961,0.469c0.002-0.012,0.008-0.02,0.009-0.032c0.069-1.072,0.067-2.146-0.007-3.218
		c-0.009-0.128-0.128-0.797-0.244-1.412C12.922,5.674,12.931,5.678,12.939,5.675z M12.387,10.947
		c0.041-0.147,0.125-0.253,0.184-0.381c0.076,0.06,0.179,0.083,0.28,0.068c4.704,2.107,9.682,2.372,14.782,2.333
		c4.825-0.037,9.675-0.152,13.893-2.737c0.013,0.01,0.022,0.023,0.039,0.032c0.185,0.097,0.762,0.492,0.751,0.801
		c0,0-0.001,0-0.002,0c-9.151,3.086-20.195,4.883-29.363,0.79c-0.014-0.034-0.037-0.064-0.077-0.075
		C12.509,11.675,12.283,11.321,12.387,10.947z M39.94,51.17c-0.003,0.051,0.005,0.095,0.019,0.134
		c-4.408,1.807-8.226,3.582-13.143,3.356c-5.267-0.242-9.364-1.746-13.62-4.763c0.047-0.052,0.079-0.121,0.074-0.214
		c-0.553-11.202,0.169-22.448-0.376-33.618c0.018-0.015,0.04-0.029,0.057-0.044c0.007-0.006,0.005-0.014,0.011-0.021
		c0.64-0.053,1.228,1.425,1.515,1.703c0.367,0.356,0.875,0.583,1.382,0.63c1.343,0.126,2.16-1.027,3.162-1.711
		c1.673,0.417,1.827,2.937,3.646,3.195c1.44,0.204,2.35-1.155,2.806-2.308c0.003-0.009,0.002-0.016,0.004-0.025
		c1.367-0.837,3.828,1.841,5.341,1.683c0.413-0.043,0.835-0.176,1.164-0.439c0.587-0.469,0.742-1.573,1.33-2.041
		c1.75-0.291,2.563,1.874,4.433,1.569c0.508-0.083,1.024-0.326,1.393-0.688c0.648-0.635,0.638-1.66,1.215-2.326
		c0.174-0.035,0.359-0.053,0.55-0.064C40.214,27.148,40.73,39.175,39.94,51.17z M43.114,14.61c-0.799,0.014-1.571-0.119-2.301,0.033
		c-0.032-0.124-0.135-0.225-0.284-0.168c-1.711,0.651-1.472,4.322-4.083,2.995c-0.695-0.353-1.021-1.053-1.818-1.249
		c-0.29-0.072-0.568-0.075-0.84-0.036c-0.033-0.073-0.09-0.134-0.19-0.132c-0.754,0.008-0.795,0.306-1.28,0.741
		c-0.067,0.159-0.133,0.319-0.198,0.479c-0.851,1.16-1.719,1.47-2.604,0.931c-0.637-0.228-1.11-0.727-1.694-1.046
		c-0.829-0.452-1.869-0.597-2.476,0.043c-0.13-0.07-0.311-0.061-0.396,0.09c-0.567,1.019-1.315,2.299-2.693,1.719
		c-0.672-0.282-1.048-1.246-1.494-1.78c-0.462-0.553-0.991-0.954-1.641-0.981c-0.05-0.075-0.13-0.128-0.243-0.095
		c-0.701,0.206-1.028,0.686-1.597,1.109c-0.717,0.533-1.671,0.719-2.398,0.037c-0.352-0.331-0.44-0.779-0.732-1.139
		c-0.358-0.439-0.91-0.701-1.353-0.473c-0.016,0-0.029-0.009-0.045-0.006c-0.604,0.127-1.137,0.374-1.773,0.359
		c-0.934-0.022-0.843-0.798-0.61-1.454c0.379-1.071,1.22-1.889,2.235-2.365c0.052-0.024,0.077-0.065,0.086-0.11
		c8.298,4.902,21.354,2.869,29.757-0.569c0.076-0.031,0.111-0.089,0.132-0.152c0.785,0.283,1.717,0.327,2.259,1.049
		C45.904,13.855,44.279,14.589,43.114,14.61z"/>
</g>
<g>
</g>
<g>
</g>
<g>
</g>
<g>
</g>
<g>
</g>
<g>
</g>
<g>
</g>
<g>
</g>
<g>
</g>
<g>
</g>
<g>
</g>
<g>
</g>
<g>
</g>
<g>
</g>
<g>
</g>
</svg>
