<?xml version="1.0" encoding="iso-8859-1"?>
<!-- Generator: Adobe Illustrator 18.0.0, SVG Export Plug-In . SVG Version: 6.00 Build 0)  -->
<!DOCTYPE svg PUBLIC "-//W3C//DTD SVG 1.1//EN" "http://www.w3.org/Graphics/SVG/1.1/DTD/svg11.dtd">
<svg version="1.1" id="Capa_1" xmlns="http://www.w3.org/2000/svg" xmlns:xlink="http://www.w3.org/1999/xlink" x="0px" y="0px"
	 viewBox="0 0 55.645 55.645" style="enable-background:new 0 0 55.645 55.645;" xml:space="preserve">
<g>
	<path style="fill:#1D1D1B;" d="M44.541,13.371c0.504-0.124,0.967-0.353,1.3-0.766c1.78-2.202-1.971-3.786-3.505-4.248
		c-0.001,0-0.002,0-0.003,0c-0.014-0.026-0.028-0.053-0.05-0.075c0.053-0.045,0.093-0.104,0.101-0.178
		c0.163-1.582-0.029-3.316-0.228-4.897c0.162-0.046,0.288-0.211,0.179-0.405C40.15-1.084,32.498,0.213,28.975,0.19
		C25.65,0.169,16.543-0.696,13.587,2.156c-0.075-0.067-0.201-0.083-0.259,0.026c-0.293,0.556-0.401,1.046-0.375,1.484
		c-0.206,1.369-0.165,3.011,0.04,4.421c-1.058,0.813-3.427,3.023-2.699,4.406c-4.396,8.986-7.419,19.73-3.155,29.349
		c2.57,5.798,7.242,9.237,12.797,10.739c-1.34,2.888,3.89,2.959,5.527,2.994c2.879,0.061,9.241,0.663,10.004-3.141
		c0.001-0.007-0.004-0.01-0.003-0.016c5.879-1.605,10.654-5.161,13.455-11.567C52.565,32.514,49.714,20.486,44.541,13.371z
		 M28.025,0.823c3.582,0.008,11.342-1.069,13.686,2.12c-0.01,0.022-0.029,0.035-0.032,0.064C41.272,6.65,30.367,6.528,28.18,6.586
		c-2.408,0.063-14.956,0.308-14.636-3.762C16.166,0.043,24.353,0.814,28.025,0.823z M25.504,7.178
		c2.636,0.067,14.102,0.621,16.215-2.817c-0.056,1.275-0.054,2.594,0.148,3.812c0.005,0.028,0.025,0.035,0.035,0.056
		c-7.467,3.52-20.899,3.636-28.345,0.185c0.091-1.103,0.055-2.387-0.115-3.572C15.55,7.285,23.701,7.132,25.504,7.178z
		 M11.98,10.117c0.473-0.537,0.874-1.014,1.065-1.647c0.004,0.025,0.006,0.054,0.011,0.079c0.034,0.188,0.207,0.206,0.341,0.137
		c4.288,2.546,9.929,2.617,14.791,2.523c4.469-0.086,9.677-0.405,13.768-2.373c0.035,0.075,0.101,0.138,0.203,0.169
		c0.8,0.244,1.776,0.471,2.414,1.05c1.122,1.019,0.336,2.703-1.028,2.756c-0.592,0.023-1.183-0.101-1.759-0.219
		c-1.154-0.237-2.272-0.643-3.421-0.462c-0.012-0.004-0.017-0.017-0.031-0.019c-0.904-0.132-1.718,0.365-2.415,0.893
		c-0.361,0.274-0.702,0.573-1.056,0.856c-0.2,0.159-0.847,0.503-1.187,0.777c-2.546,0.236-4.475-0.793-6.901-1.006
		c-1.986-0.174-3.845,0.701-5.738,1.192c-0.037-0.11-0.131-0.194-0.285-0.184c-1.883,0.123-2.509-1.627-3.964-2.312
		c-0.854-0.402-1.807-0.377-2.709-0.183c-0.447,0.096-1.198,0.51-1.66,0.505C9.258,12.616,11.528,10.631,11.98,10.117z
		 M27.76,54.792c-1.394,0.086-8.024,0.523-7.466-2.123c2.304,0.585,4.749,0.852,7.26,0.808c2.516-0.044,4.921-0.324,7.177-0.87
		C33.576,54.802,29.914,54.659,27.76,54.792z M27.554,52.715c-9.3,0.165-17.362-3.94-20.457-13.096
		c-3.066-9.069,0.048-18.257,3.609-26.66c0.092,0.068,0.188,0.135,0.306,0.194c1.556,0.782,3.318-0.877,4.972-0.443
		c1.75,0.459,2.456,2.283,4.189,2.522c0.023,0.12,0.126,0.233,0.282,0.206c2.924-0.505,5.175-1.498,8.17-0.675
		c1.641,0.45,3.007,0.745,4.634,0.54c0.033,0.019,0.071,0.029,0.111,0.026c0.837-0.079,1.517-0.661,2.151-1.171
		c0.923-0.743,1.642-1.258,2.813-1.497c0.033-0.007,0.051-0.034,0.076-0.052c1.346,0.304,2.726,0.633,4.076,0.815
		c0.396,0.053,0.84,0.085,1.282,0.062c0.009,0.018,0.011,0.036,0.025,0.055c4.753,6.589,7.362,16.729,5.254,24.788
		C46.408,48.421,37.135,52.545,27.554,52.715z"/>
</g>
<g>
</g>
<g>
</g>
<g>
</g>
<g>
</g>
<g>
</g>
<g>
</g>
<g>
</g>
<g>
</g>
<g>
</g>
<g>
</g>
<g>
</g>
<g>
</g>
<g>
</g>
<g>
</g>
<g>
</g>
</svg>
