<?xml version="1.0" encoding="iso-8859-1"?>
<!-- Generator: Adobe Illustrator 18.0.0, SVG Export Plug-In . SVG Version: 6.00 Build 0)  -->
<!DOCTYPE svg PUBLIC "-//W3C//DTD SVG 1.1//EN" "http://www.w3.org/Graphics/SVG/1.1/DTD/svg11.dtd">
<svg version="1.1" id="Capa_1" xmlns="http://www.w3.org/2000/svg" xmlns:xlink="http://www.w3.org/1999/xlink" x="0px" y="0px"
	 viewBox="0 0 62.892 62.892" style="enable-background:new 0 0 62.892 62.892;" xml:space="preserve">
<g>
	<path style="fill:#1D1D1B;" d="M47.729,13.588c-0.004-0.212-0.171-0.316-0.336-0.315c0.332-0.947-0.967-1.852-1.558-2.42
		c-1.055-1.015-2.166-1.959-3.383-2.773c0.078-2.274,0.328-4.517,0.851-6.734c0.047-0.199-0.154-0.309-0.301-0.261
		c0.002-0.174-0.193-0.29-0.341-0.207c0.077-0.146,0.02-0.365-0.195-0.364C35.061,0.54,27.694,0.147,20.297,0
		c-0.08-0.002-0.118,0.045-0.136,0.099c-0.62,0.136-1.277,0.705-1.731,1.173c-0.043-0.002-0.086-0.003-0.128-0.005
		c-0.124-0.006-0.16,0.159-0.078,0.226c-0.003,0.003-0.006,0.007-0.009,0.01c-0.018,0.02-0.018,0.04-0.023,0.06
		c-0.074,0.028-0.137,0.082-0.139,0.195c-0.018,0.839-0.007,1.678,0,2.518c-0.075,0.056-0.079,0.177-0.001,0.253
		c0.003,0.522,0.01,1.043-0.007,1.565c-0.167-0.03-0.358,0.03-0.441,0.227c-1.155,2.749-2.197,5.527-3.071,8.378
		c-0.067,0.056-0.081,0.166-0.032,0.242c0.019,0.086,0.075,0.145,0.159,0.159c-0.08,0.009-0.153,0.06-0.154,0.168
		c-0.058,14.593,0.706,29.223,0.858,43.822c0.002,0.207,0.176,0.287,0.335,0.265c0.021,0.014,0.03,0.036,0.06,0.042
		c7.743,1.681,15.671,2.65,23.544,3.493c0.181,0.019,0.268-0.102,0.279-0.24c0.077,0.035,0.167,0.044,0.251-0.028
		c2.819-2.4,5.541-4.909,8.376-7.294c0.134-0.113,0.14-0.255,0.078-0.37c0.055-0.043,0.095-0.107,0.096-0.201
		C48.57,41.052,47.999,27.291,47.729,13.588z M42.824,1.443c-0.509,2.154-0.73,4.323-0.569,6.536c-0.002,0-0.004-0.001-0.006-0.001
		c-0.031-0.013-0.065-0.01-0.098-0.013c-0.097-1.691-0.339-3.354-0.55-5.033c-0.008-0.066-0.043-0.113-0.088-0.145
		C42.029,2.423,42.475,1.97,42.824,1.443z M41.639,7.849c-3.129-0.15-6.247-0.386-9.363-0.643c0.002-0.003,0.005-0.003,0.007-0.006
		c0.464-0.884,1.012-1.685,2.055-1.931c0.834-0.196,1.683,0.31,2.498,0.052c1.129-0.357,1.037-1.613,0.817-2.548
		c1.045,0.071,2.089,0.158,3.128,0.282c0.034,0.004,0.055-0.017,0.081-0.027c0.035,0.063,0.112,0.101,0.199,0.051
		c0.05-0.028,0.095-0.064,0.144-0.094c0.179,1.654,0.33,3.3,0.618,4.94C41.776,7.884,41.718,7.853,41.639,7.849z M41.716,8.466
		c-0.508,1.515-0.986,3.04-1.478,4.561c-1.617,1.389-3.251,0.472-4.227-1.106c-0.3-0.484-0.448-1.014-0.88-1.413
		c-0.932-0.86-4.278-0.871-4.144-2.629c3.554,0.264,7.114,0.444,10.654,0.599C41.668,8.479,41.691,8.471,41.716,8.466z
		 M19.564,0.891c0.315-0.176,0.687-0.296,0.946-0.551c7.252,0.774,14.671,0.787,21.956,0.665c0.043-0.001,0.066-0.027,0.097-0.043
		c-0.429,0.701-0.931,1.295-1.58,1.795c-0.019-0.07-0.057-0.132-0.141-0.147c-7.197-1.244-14.623-0.977-21.909-1.317
		C19.136,1.15,19.345,1.014,19.564,0.891z M18.564,1.568c1.705,0.308,3.425,0.5,5.151,0.634c-0.368,0.225-0.736,0.451-1.105,0.676
		c-0.071-0.031-0.144-0.059-0.218-0.082c-0.109,0.002-0.257-0.068-0.379-0.066c-0.282,0.003-0.483,0.086-0.696,0.278
		c-0.278,0.251-0.351,0.637-0.579,0.918c-0.589,0.727-1.403,0.644-2.19,0.432c0.068-0.871,0.079-1.747-0.031-2.602
		c-0.006-0.048-0.034-0.077-0.058-0.11C18.493,1.62,18.529,1.595,18.564,1.568z M18.517,4.733c0.601,0.22,1.271,0.383,1.877,0.167
		c1.117-0.398,0.698-1.528,2.23-1.393c0.545,0.048,0.874,0.28,1.391-0.11c0.381-0.288,0.557-0.702,0.526-1.137
		c4.189,0.277,8.418,0.229,12.618,0.487c-0.009,0.037-0.031,0.068-0.022,0.113c0.083,0.42,0.207,0.97,0.033,1.389
		c-0.324,0.779-1.172,0.499-1.723,0.425c-0.569-0.076-1.068-0.057-1.607,0.148c-0.966,0.366-1.804,1.238-1.829,2.305
		c-0.001,0.024,0.011,0.041,0.021,0.06c-4.558-0.378-9.11-0.807-13.677-1.149C18.422,5.608,18.474,5.171,18.517,4.733z
		 M16.079,12.088c0.609,0.426,1.344,0.607,1.934,1.092c0.31,0.255,0.586,0.548,0.773,0.907c0.094,0.181,0.37,0.853,0.314,1.246
		c-1.35-0.236-2.703-0.459-4.068-0.621C15.384,13.84,15.73,12.963,16.079,12.088z M14.871,15.267
		c-0.009-0.109-0.091-0.164-0.175-0.171c0.048,0.001,0.092-0.007,0.135-0.034c1.865,0.445,3.731,0.819,5.599,1.141
		c0.398,1.489-0.312,3.594,0.552,4.927c0,0.014-0.01,0.024-0.007,0.038c0.197,1.004,0.584,0.951,1.349,1.497
		c1.79,1.276,1.741,0.94,2.19,2.453c0.452,1.523-0.011,2.784-0.833,4.106c-0.714,1.147-3.824,3.547-3.183,5.277
		c-0.166,0.859-0.089,1.786,0,2.689c0.146,1.48,0.404,3.27-0.786,4.435c-0.978,0.958-2.483,1.047-3.812,1.081
		C15.828,33.537,15.6,24.354,14.871,15.267z M15.943,59.018c-0.008-5.27,0.001-10.568-0.039-15.871
		c1.799,0.084,3.828-0.119,4.85-1.777c1.551-2.518-0.359-5.641,0.95-8.308c0.051-0.104,0.013-0.212-0.057-0.282
		c0.234-0.322,0.488-0.63,0.776-0.913c0.282-0.286,0.554-0.58,0.818-0.883c0.386-0.444,0.754-0.896,1.073-1.391
		c0.683-1.059,1.191-2.26,1.185-3.541c-0.004-0.997-0.334-2.049-0.976-2.818c-0.817-0.978-2.526-1.118-3.085-2.261
		c-0.005-0.011-0.015-0.01-0.021-0.019c-0.647-1.365,0.07-3.142-0.295-4.633c3.75,0.619,7.518,0.994,11.318,1.226
		c-0.646,0.759-0.903,1.738-0.533,2.766c0.27,0.753,0.78,1.094,1.324,1.627c0.695,0.681,1.232,1.212,1.191,2.305
		c-0.017,0.461-0.199,0.928-0.199,1.388c0.003,2.478,2.591,3.824,4.407,2.152c-0.136,6.268-0.042,12.572,0.113,18.859
		c-1.529,0.005-2.981,0.706-3.641,2.184c-0.763,1.707,0.537,3.625-2.44,4.572c-0.743,0.236-1.623-0.077-2.427,0.244
		c-3.201,1.276-3.562,5.542-0.692,7.344c0.142,0.089,0.291-0.112,0.177-0.229c-2.325-2.388-1.603-6.315,2.091-6.721
		c0.863-0.095,1.828,0.324,2.632-0.223c2.512-1.713-0.383-6.48,4.318-6.515c0.125,4.951,0.28,9.891,0.383,14.791
		c0.002,0.079,0.037,0.134,0.08,0.178C31.419,61.43,23.704,60.153,15.943,59.018z M38.649,27.011c-0.071,0-0.144,0.024-0.211,0.091
		c-1.777,1.566-2.924,0.869-3.44-2.091c0.057-0.266,0.103-0.534,0.138-0.803c-0.019-0.592,0.101-1.129-0.183-1.685
		c-0.12-0.235-0.283-0.44-0.471-0.619c-0.287-0.211-0.593-0.39-0.917-0.537c-1.141-1.451-1.347-2.713-0.636-3.789
		c1.999,0.114,4.004,0.201,6.027,0.236c0.051,0.001,0.077-0.028,0.113-0.045C38.855,20.835,38.726,23.919,38.649,27.011z
		 M38.89,17.184c-0.006,0.019,0.006,0.033,0.006,0.051c-4.047-0.38-8.118-0.416-12.168-0.757c-2.425-0.204-4.799-0.648-7.178-1.067
		c0.143-0.542-0.105-1.372-0.305-1.73c-0.564-1.009-1.837-1.867-2.991-2.034c0.682-1.712,1.363-3.424,2.051-5.134
		c0.011-0.028,0.01-0.052,0.014-0.078c4.025,0.663,8.101,1.095,12.186,1.409c-0.112,0.689,0.09,1.267,0.695,1.744
		c0.592,0.467,1.417,0.54,2.108,0.742c1.361,0.398,1.698,1.288,2.402,2.385c0.99,1.542,2.926,2.118,4.283,1.063
		C39.628,14.915,39.247,16.046,38.89,17.184z M47.714,54.833c-2.777,2.288-5.529,4.654-8.017,7.257v0
		c-0.255-14.904,0.449-29.957-0.298-44.833c-0.002-0.045-0.021-0.077-0.045-0.101c1.18-2.784,2.188-5.648,2.994-8.564
		c0.761,0.65,1.528,1.294,2.267,1.968c0.832,0.758,2.021,1.659,2.374,2.754c0.019,0.057,0.067,0.096,0.122,0.122
		c-0.022,0.043-0.036,0.091-0.035,0.151c0.203,13.705,0.107,27.478,0.766,41.169c0,0.003,0.003,0.004,0.003,0.006
		C47.8,54.776,47.756,54.798,47.714,54.833z"/>
	<path style="fill:#1D1D1B;" d="M46.465,12.994c-0.971-0.022-2.008,0.185-2.986,0.381c0.108-1.002-0.558-2.287-0.865-3.157
		c-0.079-0.225-0.412-0.137-0.359,0.099c0.099,0.444,0.205,0.885,0.317,1.326c0.093,0.369,0.409,1.173,0.353,1.527
		c-0.161,1.02-1.338,1.963-1.965,2.738c-0.209,0.258,0.136,0.625,0.373,0.373c0.66-0.701,1.783-1.601,2.083-2.578
		c1.032-0.017,2.123-0.029,3.11-0.267C46.776,13.376,46.715,13,46.465,12.994z"/>
	<path style="fill:#1D1D1B;" d="M46.151,54.084c-0.798,0.585-1.523,1.263-2.26,1.923c-0.84,0.752-1.858,2.051-2.958,2.378
		c-0.131,0.039-0.076,0.234,0.056,0.203c0.967-0.22,1.69-1.056,2.412-1.69c0.976-0.857,1.994-1.695,2.878-2.649
		C46.356,54.166,46.252,54.01,46.151,54.084z"/>
	<path style="fill:#1D1D1B;" d="M46.055,53.122c-1.674,1.207-3.416,2.582-4.899,4.015c-0.08,0.077,0.023,0.214,0.119,0.155
		c1.742-1.073,3.494-2.515,4.956-3.94C46.347,53.238,46.192,53.023,46.055,53.122z"/>
	<path style="fill:#1D1D1B;" d="M46.134,51.416c-1.693,1.35-3.302,2.796-5.022,4.115c-0.14,0.108-0.007,0.35,0.142,0.243
		c1.767-1.267,3.578-2.582,5.144-4.095C46.574,51.509,46.317,51.271,46.134,51.416z"/>
	<path style="fill:#1D1D1B;" d="M45.466,49.915c-0.774,0.608-1.497,1.284-2.234,1.936c-0.724,0.641-1.549,1.261-2.152,2.018
		c-0.06,0.075,0.015,0.196,0.109,0.141c0.797-0.472,1.489-1.164,2.192-1.765c0.792-0.677,1.607-1.335,2.356-2.059
		C45.919,50.01,45.654,49.767,45.466,49.915z"/>
	<path style="fill:#1D1D1B;" d="M45.772,48.187c-1.888,1.057-3.574,2.76-5.096,4.275c-0.124,0.123,0.064,0.31,0.192,0.191
		c1.624-1.508,3.472-2.725,5.122-4.185C46.145,48.331,45.946,48.09,45.772,48.187z"/>
	<path style="fill:#1D1D1B;" d="M46.003,46.038c-1.839,1.34-3.931,3.015-5.224,4.905c-0.072,0.106,0.078,0.192,0.163,0.126
		c0.928-0.72,1.728-1.627,2.606-2.41c0.884-0.789,1.809-1.521,2.721-2.276C46.459,46.226,46.205,45.89,46.003,46.038z"/>
	<path style="fill:#1D1D1B;" d="M45.736,44.795c-0.884,0.586-1.659,1.375-2.451,2.08c-0.885,0.787-1.779,1.567-2.615,2.407
		c-0.077,0.078,0.027,0.227,0.121,0.157c0.858-0.636,1.672-1.324,2.49-2.01c0.898-0.752,1.898-1.47,2.68-2.342
		C46.097,44.938,45.922,44.672,45.736,44.795z"/>
	<path style="fill:#1D1D1B;" d="M45.664,43.041c-1.86,1.34-3.552,2.96-5.279,4.465c-0.115,0.1,0.05,0.254,0.164,0.164
		c1.792-1.407,3.694-2.757,5.35-4.325C46.054,43.197,45.845,42.91,45.664,43.041z"/>
	<path style="fill:#1D1D1B;" d="M46.566,40.799c-2.102,1.243-3.792,3.17-5.954,4.313c-0.114,0.06-0.034,0.263,0.089,0.212
		c1.076-0.449,1.99-1.189,2.93-1.867c1.058-0.764,2.197-1.483,3.16-2.365C46.949,40.947,46.747,40.692,46.566,40.799z"/>
	<path style="fill:#1D1D1B;" d="M45.354,39.895c-1.776,1.067-3.37,2.454-4.828,3.917c-0.097,0.097,0.049,0.239,0.149,0.149
		c1.533-1.376,3.194-2.545,4.887-3.711C45.777,40.102,45.584,39.757,45.354,39.895z"/>
	<path style="fill:#1D1D1B;" d="M45.719,37.941c-1.72,1.082-3.277,2.595-4.82,3.917c-0.112,0.096,0.039,0.297,0.16,0.207
		c1.632-1.211,3.453-2.39,4.891-3.826C46.099,38.09,45.905,37.824,45.719,37.941z"/>
	<path style="fill:#1D1D1B;" d="M45.892,36.121c-0.877,0.526-1.628,1.307-2.401,1.974c-0.868,0.749-1.741,1.494-2.584,2.271
		c-0.105,0.097,0.038,0.292,0.155,0.201c0.819-0.63,1.617-1.29,2.416-1.946c0.871-0.716,1.876-1.389,2.612-2.243
		C46.206,36.243,46.059,36.021,45.892,36.121z"/>
	<path style="fill:#1D1D1B;" d="M45.327,34.194c-1.694,1.166-3.239,2.615-4.807,3.943c-0.126,0.107,0.045,0.334,0.179,0.232
		c1.638-1.24,3.39-2.431,4.897-3.827C45.777,34.373,45.536,34.049,45.327,34.194z"/>
	<path style="fill:#1D1D1B;" d="M45.687,31.563c-1.733,1.119-3.268,2.734-4.805,4.106c-0.101,0.09,0.037,0.275,0.147,0.19
		c1.63-1.258,3.501-2.468,4.916-3.962C46.106,31.728,45.897,31.428,45.687,31.563z"/>
	<path style="fill:#1D1D1B;" d="M45.374,30.092c-1.747,0.939-3.372,2.406-4.868,3.698c-0.155,0.134,0.067,0.343,0.221,0.221
		c1.589-1.247,3.352-2.305,4.902-3.588C45.82,30.265,45.577,29.983,45.374,30.092z"/>
</g>
<g>
</g>
<g>
</g>
<g>
</g>
<g>
</g>
<g>
</g>
<g>
</g>
<g>
</g>
<g>
</g>
<g>
</g>
<g>
</g>
<g>
</g>
<g>
</g>
<g>
</g>
<g>
</g>
<g>
</g>
</svg>
