<?xml version="1.0" encoding="iso-8859-1"?>
<!-- Generator: Adobe Illustrator 18.0.0, SVG Export Plug-In . SVG Version: 6.00 Build 0)  -->
<!DOCTYPE svg PUBLIC "-//W3C//DTD SVG 1.1//EN" "http://www.w3.org/Graphics/SVG/1.1/DTD/svg11.dtd">
<svg version="1.1" id="Capa_1" xmlns="http://www.w3.org/2000/svg" xmlns:xlink="http://www.w3.org/1999/xlink" x="0px" y="0px"
	 viewBox="0 0 54.881 54.881" style="enable-background:new 0 0 54.881 54.881;" xml:space="preserve">
<g>
	<path style="fill:#1D1D1B;" d="M46.753,20.615c-3.574-0.175-7.168-0.283-10.77-0.348c0.951-4.058,1.845-9.434,4.344-12.642
		c1.621-2.081,4.439-2.488,5.134,1.404c0.201,1.126-0.295,2.625-0.543,3.765c-0.536,2.468-1.476,4.691-2.457,7.013
		c-0.138,0.327,0.302,0.615,0.492,0.288c1.128-1.944,4.151-8.856,3.206-12.541c2.594-1.891,2.391-6.049-0.787-7.272
		c-3.364-1.295-6.549,2.116-5.208,5.415c0.109,0.267,0.543,0.163,0.444-0.122c-0.979-2.834,1.54-5.789,4.497-4.658
		c2.602,0.994,2.838,4.33,0.808,5.958c-0.401-0.865-1.11-1.463-2.25-1.628c-2.259-0.326-3.819,1.502-4.703,3.323
		c-1.739,3.582-2.71,7.768-3.423,11.692c-9.264-0.159-18.583-0.015-27.783,0.191c-0.313,0.007-0.312,0.475,0,0.485
		c12.923,0.41,26.08,0.711,38.999,0.2C47.088,21.122,47.088,20.631,46.753,20.615z"/>
	<path style="fill:#1D1D1B;" d="M46.378,21.429c-0.064-0.447-0.74-0.256-0.678,0.187c0.964,6.924,1.72,14.48-3.651,19.933
		c-4.004,4.065-9.941,6.091-15.579,5.986c-5.437-0.102-11.174-2.16-14.61-6.504C7.663,35.727,7.118,27.88,7.797,21.42
		c0.029-0.279-0.455-0.348-0.494-0.067c-0.921,6.609-0.3,14.831,4.021,20.291c1.908,2.41,4.576,4.118,7.501,5.199
		c-0.055,0.014-0.106,0.044-0.13,0.117c-3.196,9.733,18.734,11.347,18.378,0.045c-0.014-0.451-0.717-0.453-0.703,0
		c0.308,10.075-19.309,9.12-17.315,0.054c0.012-0.057,0.001-0.104-0.023-0.141c2.639,0.944,5.475,1.385,8.152,1.356
		c6.133-0.067,12.637-2.576,16.552-7.46C48.183,35.266,47.321,27.996,46.378,21.429z"/>
</g>
<g>
</g>
<g>
</g>
<g>
</g>
<g>
</g>
<g>
</g>
<g>
</g>
<g>
</g>
<g>
</g>
<g>
</g>
<g>
</g>
<g>
</g>
<g>
</g>
<g>
</g>
<g>
</g>
<g>
</g>
</svg>
