<?xml version="1.0" encoding="iso-8859-1"?>
<!-- Generator: Adobe Illustrator 18.0.0, SVG Export Plug-In . SVG Version: 6.00 Build 0)  -->
<!DOCTYPE svg PUBLIC "-//W3C//DTD SVG 1.1//EN" "http://www.w3.org/Graphics/SVG/1.1/DTD/svg11.dtd">
<svg version="1.1" id="Capa_1" xmlns="http://www.w3.org/2000/svg" xmlns:xlink="http://www.w3.org/1999/xlink" x="0px" y="0px"
	 viewBox="0 0 56.609 56.609" style="enable-background:new 0 0 56.609 56.609;" xml:space="preserve">
<g>
	<path style="fill:#1D1D1B;" d="M52.44,14.297C45.443,2.89,31.239-1.24,19.132,3.991c-0.053-0.078-0.139-0.131-0.27-0.117
		C6.729,5.194-0.242,16.449,0.006,28.018c0.262,12.235,6.759,23.099,19.11,25.899c10.367,2.35,24.188,0.471,31.757-7.64
		C58.476,38.132,58.019,23.393,52.44,14.297z M39.17,52.23c-12.02,3.683-28.12,2.28-34.729-9.886
		C-2.915,28.804,0.917,7.096,18.437,4.631c0.057,0.084,0.144,0.145,0.255,0.099C31.733-0.669,46.94,4.078,53.103,17.19
		c2.957,6.292,3.403,14.463,1.382,21.119C52.275,45.589,46.207,50.074,39.17,52.23z"/>
	<path style="fill:#1D1D1B;" d="M15.265,37.533c-0.286,0.326-0.792,0.597-1.101,0.126c-0.36-0.548,0.388-1.075,0.8-0.55
		c0.055,0.07,0.164-0.02,0.121-0.094c-0.405-0.703-1.482-0.302-1.358,0.501c0.143,0.92,1.438,0.971,1.728,0.128
		C15.493,37.538,15.34,37.448,15.265,37.533z"/>
	<path style="fill:#1D1D1B;" d="M16.244,39.088c-0.265,0.202-0.562,0.375-0.892,0.441c-0.427,0.086-0.811-0.394-0.353-0.693
		c0.143-0.093,0.326-0.14,0.486-0.189c0.122-0.037,0.071-0.214-0.052-0.19c-0.494,0.095-1.404,0.51-0.959,1.175
		c0.433,0.649,1.555,0.074,1.922-0.349C16.481,39.185,16.364,38.996,16.244,39.088z"/>
	<path style="fill:#1D1D1B;" d="M18.343,39.933c-0.196,0.386-0.339,0.756-0.6,1.097c-0.533-0.237-0.773-0.875-0.55-1.417
		c0.051-0.125-0.146-0.197-0.212-0.089c-0.46,0.749-0.046,1.701,0.765,1.971c0.068,0.022,0.154-0.002,0.202-0.054
		c0.365-0.387,0.699-0.872,0.735-1.417C18.695,39.846,18.424,39.774,18.343,39.933z"/>
	<path style="fill:#1D1D1B;" d="M11.739,25.703c0.173,0.072,0.257-0.192,0.121-0.286c-0.556-0.383-1.808-0.723-1.982,0.279
		c-0.06,0.348,0.157,0.683,0.45,0.858c0.443,0.264,0.965,0.123,1.423-0.016c0.148-0.045,0.085-0.252-0.063-0.227
		c-0.308,0.053-0.665,0.128-0.971,0.013c-0.309-0.116-0.631-0.487-0.239-0.794C10.842,25.245,11.388,25.557,11.739,25.703z"/>
	<path style="fill:#1D1D1B;" d="M12.329,23.281c-0.377,0.18-0.576,0.649-0.521,1.049c0.072,0.529,0.511,0.92,0.891,1.247
		c0.127,0.11,0.307-0.064,0.186-0.186c-0.213-0.215-0.44-0.438-0.581-0.71c-0.194-0.375-0.075-1.315,0.551-0.974
		c0.518,0.282,0.745,0.97,1.075,1.424c0.098,0.135,0.297,0.055,0.267-0.112C14.072,24.334,13.203,22.863,12.329,23.281z"/>
	<path style="fill:#1D1D1B;" d="M15.434,23.565c-0.664-0.154-1.103,0.595-0.858,1.155c0.061,0.139,0.29,0.04,0.244-0.103
		c-0.118-0.369,0.352-1.021,0.722-0.539c0.171,0.222,0.086,0.423,0.022,0.66c-0.035,0.131,0.119,0.267,0.24,0.185
		C16.325,24.569,15.986,23.693,15.434,23.565z"/>
	<path style="fill:#1D1D1B;" d="M23.299,12.544c-0.197,0.196-0.588,0.296-0.816,0.071c-0.353-0.348,0.1-0.849,0.486-0.844
		c0.122,0.001,0.155-0.193,0.03-0.217c-0.604-0.12-1.234,0.513-0.952,1.124c0.272,0.589,1.186,0.612,1.481,0.044
		C23.603,12.577,23.421,12.423,23.299,12.544z"/>
	<path style="fill:#1D1D1B;" d="M25.148,13.607c-0.036-0.148-0.267-0.15-0.302,0c-0.074,0.321-0.409,0.755-0.782,0.534
		c-0.353-0.209-0.152-0.818,0.241-0.854c0.15-0.014,0.153-0.225,0-0.236c-0.685-0.047-1.073,0.893-0.595,1.372
		C24.272,14.988,25.332,14.36,25.148,13.607z"/>
	<path style="fill:#1D1D1B;" d="M27.036,13.485c-0.034-0.173-0.333-0.183-0.359,0c-0.029,0.2-0.162,0.502-0.425,0.487
		c-0.311-0.018-0.391-0.444-0.269-0.66c0.075-0.133-0.111-0.291-0.218-0.168c-0.34,0.392-0.245,1.047,0.277,1.236
		C26.615,14.586,27.147,14.039,27.036,13.485z"/>
	<path style="fill:#1D1D1B;" d="M28.761,25.06c-0.117-0.121-0.341,0.002-0.288,0.168c0.124,0.389,0.499,0.599,0.809,0.832
		c0.231,0.173,0.496,0.345,0.317,0.646c-0.346,0.579-0.979-0.103-1.212-0.414c-0.117-0.156-0.364-0.024-0.267,0.156
		c0.215,0.399,0.552,0.796,1.029,0.857c0.384,0.049,0.808-0.145,0.938-0.525C30.356,25.992,29.193,25.503,28.761,25.06z"/>
	<path style="fill:#1D1D1B;" d="M30.98,23.531c-0.236-0.09-0.494-0.112-0.743-0.141c-0.319-0.036-0.642-0.126-0.962-0.132
		c-0.113-0.002-0.18,0.149-0.095,0.228c0.485,0.45,1.284,0.124,1.809,0.49c0.653,0.455-0.196,1.118-0.716,1.082
		c-0.507-0.035-0.944-0.368-1.339-0.659c-0.094-0.069-0.215,0.086-0.126,0.163c0.477,0.409,1.056,0.897,1.731,0.841
		c0.467-0.039,0.962-0.392,1.057-0.867C31.688,24.077,31.394,23.69,30.98,23.531z"/>
	<path style="fill:#1D1D1B;" d="M30.912,21.495c-0.264-0.58-1.393-0.706-1.591-0.012c-0.05,0.174,0.166,0.282,0.291,0.169
		c0.232-0.209,0.508-0.378,0.811-0.147c0.481,0.367-0.183,0.986-0.63,0.757c-0.182-0.093-0.341,0.172-0.161,0.276
		C30.275,22.91,31.256,22.249,30.912,21.495z"/>
	<path style="fill:#1D1D1B;" d="M32.912,45.757c-0.314,0.229-0.864,0.594-1.278,0.495c-0.811-0.194,0.014-0.756,0.252-0.813
		c0.197-0.048,0.408-0.05,0.607-0.09c0.149-0.03,0.147-0.267,0-0.298c-0.679-0.146-1.919,0.224-1.567,1.169
		c0.349,0.936,1.708,0.168,2.144-0.258C33.173,45.861,33.035,45.668,32.912,45.757z"/>
	<path style="fill:#1D1D1B;" d="M32.937,44.102c-0.442,0.063-2.018,0.385-2.198-0.179c-0.121-0.378,0.221-0.708,0.554-0.801
		c0.364-0.101,0.732,0.008,1.096-0.038c0.117-0.015,0.213-0.195,0.07-0.259c-0.803-0.356-2.234-0.068-2.135,1.049
		c0.104,1.17,1.992,0.618,2.679,0.472C33.167,44.312,33.094,44.08,32.937,44.102z"/>
	<path style="fill:#1D1D1B;" d="M33.13,40.867c-0.329-0.392-1.435-0.495-1.602,0.149c-0.064,0.247,0.193,0.583,0.364,0.732
		c0.269,0.233,0.6,0.319,0.946,0.265c0.121-0.019,0.089-0.211-0.029-0.211c-0.291,0-1.021-0.256-0.907-0.68
		c0.111-0.414,0.861-0.118,1.036-0.007C33.098,41.218,33.239,40.998,33.13,40.867z"/>
	<path style="fill:#1D1D1B;" d="M40.512,30.757c-0.827-0.031-1.328,0.941-0.937,1.626c0.042,0.074,0.175,0.024,0.141-0.06
		c-0.212-0.525,0.187-1.315,0.827-1.207c0.626,0.106,0.655,0.732,0.596,1.221c-0.015,0.123,0.16,0.178,0.237,0.098
		C41.952,31.84,41.228,30.784,40.512,30.757z"/>
	<path style="fill:#1D1D1B;" d="M43.47,31.369c-0.097-0.305-0.224-0.681-0.614-0.63c-0.732,0.097-1.164,1.213-0.908,1.827
		c0.04,0.095,0.175,0.086,0.183-0.025c0.018-0.262,0.029-0.507,0.132-0.752c0.093-0.22,0.529-0.894,0.769-0.508
		c0.288,0.463,0.19,1.101,0.291,1.61c0.03,0.152,0.258,0.14,0.295,0C43.746,32.412,43.618,31.831,43.47,31.369z"/>
	<path style="fill:#1D1D1B;" d="M44.505,31.396c-0.969,0.019-0.946,1.203-0.487,1.762c0.092,0.112,0.248-0.031,0.19-0.147
		c-0.142-0.285-0.308-0.647-0.127-0.962c0.244-0.426,0.964-0.141,0.588,0.284c-0.092,0.104-0.005,0.293,0.144,0.247
		C45.484,32.37,45.137,31.384,44.505,31.396z"/>
	<path style="fill:#1D1D1B;" d="M41.693,16.074c-0.714-0.408-1.607-0.019-1.841,0.758c-0.021,0.069,0.013,0.157,0.078,0.191
		c0.487,0.26,1.02,0.405,1.567,0.278c0.143-0.033,0.091-0.218-0.032-0.235c-0.431-0.058-0.822-0.117-1.217-0.278
		c0.218-0.511,0.824-0.781,1.346-0.545C41.707,16.295,41.806,16.138,41.693,16.074z"/>
	<path style="fill:#1D1D1B;" d="M41.901,19.59c-0.321,0.497-0.989,0.193-0.969-0.356c0.018-0.493,0.484-0.789,0.911-0.897
		c0.141-0.035,0.079-0.236-0.059-0.214c-0.765,0.124-1.533,0.819-1.105,1.649c0.316,0.613,1.276,0.627,1.482-0.074
		C42.208,19.54,41.987,19.457,41.901,19.59z"/>
	<path style="fill:#1D1D1B;" d="M43.545,20.308c-0.033-0.194-0.341-0.145-0.338,0.046c0.004,0.278-0.138,0.584-0.454,0.521
		c-0.168,0.039-0.242-0.025-0.221-0.192c-0.007-0.155,0.076-0.252,0.25-0.291c0.185,0.006,0.174-0.26,0-0.281
		c-0.568-0.07-0.789,0.764-0.398,1.104C42.983,21.735,43.645,20.893,43.545,20.308z"/>
	<path style="fill:#1D1D1B;" d="M36.351,11.067c0.003-0.178,0.087-0.364,0.197-0.526c0.08-0.118-0.071-0.227-0.178-0.178
		c-0.321,0.149-0.39,0.484-0.31,0.792c-0.162,0.076-0.301,0.19-0.36,0.337c-0.051,0.126,0.15,0.203,0.215,0.091
		c0.07-0.12,0.148-0.182,0.229-0.21c0.073,0.137,0.175,0.258,0.3,0.333c0.144,0.086,0.264-0.129,0.13-0.222
		c-0.013-0.009-0.015-0.021-0.027-0.03c0.08,0.046,0.158,0.099,0.231,0.147c0.074,0.048,0.172-0.015,0.172-0.099
		C36.951,11.142,36.657,11.027,36.351,11.067z"/>
	<path style="fill:#1D1D1B;" d="M16.712,13.437c-0.129-0.153-0.283-0.269-0.447-0.369c0.074-0.035,0.149-0.069,0.232-0.104
		c0.116-0.048,0.114-0.235-0.032-0.235c-0.2,0.001-0.373,0.074-0.531,0.173c-0.203-0.079-0.415-0.138-0.634-0.167
		c-0.117-0.016-0.145,0.187-0.028,0.207c0.158,0.027,0.287,0.092,0.424,0.146c-0.156,0.16-0.284,0.351-0.365,0.557
		c-0.051,0.13,0.17,0.225,0.228,0.096c0.113-0.251,0.264-0.406,0.447-0.528c0.188,0.106,0.367,0.231,0.547,0.382
		C16.664,13.689,16.805,13.548,16.712,13.437z"/>
	<path style="fill:#1D1D1B;" d="M16.953,30.496c-0.249-0.011-0.474-0.134-0.598-0.324c0.085-0.011,0.174-0.015,0.273-0.009
		c0.158,0.01,0.176-0.221,0.036-0.266c-0.135-0.044-0.265-0.04-0.391-0.017c0-0.052-0.014-0.098,0-0.155
		c0.038-0.151-0.178-0.206-0.23-0.064c-0.039,0.104-0.047,0.213-0.041,0.321c-0.123,0.074-0.236,0.169-0.321,0.296
		c-0.076,0.113,0.095,0.243,0.188,0.145c0.064-0.068,0.128-0.117,0.194-0.156c0.143,0.365,0.507,0.636,0.927,0.499
		C17.139,30.72,17.111,30.504,16.953,30.496z"/>
	<path style="fill:#1D1D1B;" d="M40.69,43.251c-0.836-1.14-2.871-0.903-3.968-0.385c-0.134,0.063-0.037,0.263,0.097,0.231
		c0.846-0.202,1.753-0.394,2.616-0.162c1.178,0.316,1.529,1.668,0.358,2.301c-0.811,0.439-1.975,0.29-2.67-0.303
		c-0.309-0.264-0.532-0.62-0.606-1.022c-0.025-0.135,0.034-1.513,0.448-1.3c0.115,0.059,0.199-0.095,0.099-0.17
		c-0.276-0.207-0.534,0.091-0.679,0.326c-0.301,0.489-0.309,1.121-0.103,1.649c0.472,1.209,2.028,1.706,3.211,1.372
		C40.531,45.494,41.441,44.274,40.69,43.251z"/>
	<path style="fill:#1D1D1B;" d="M38.507,44.197c-0.303-0.096-0.602-0.136-0.904-0.147c-0.021-0.093-0.003-0.196,0.09-0.304
		c0.074-0.085-0.042-0.203-0.124-0.124c-0.127,0.122-0.167,0.28-0.154,0.436c-0.159,0.003-0.317-0.004-0.481,0.02
		c-0.128,0.019-0.099,0.24,0.031,0.228c0.179-0.017,0.35-0.003,0.523,0.008c0.127,0.241,0.391,0.402,0.684,0.267
		c0.054-0.025,0.059-0.089,0.037-0.139c0.072,0.021,0.144,0.027,0.216,0.054C38.611,44.563,38.698,44.258,38.507,44.197z"/>
	<path style="fill:#1D1D1B;" d="M32.827,32.449c0.03-0.2,0.062-0.399,0.078-0.607c0.01-0.134-0.176-0.165-0.239-0.065
		c-0.116,0.184-0.169,0.396-0.197,0.615c-0.121,0-0.244,0.012-0.359,0.044c-0.128,0.036-0.073,0.221,0.054,0.197
		c0.104-0.02,0.195-0.018,0.282-0.009c-0.006,0.258,0.024,0.521,0.069,0.759c0.027,0.144,0.273,0.113,0.259-0.035
		c-0.021-0.211-0.006-0.413,0.016-0.613c0.153,0.088,0.292,0.214,0.435,0.36c0.08,0.082,0.248-0.001,0.203-0.118
		C33.322,32.698,33.092,32.53,32.827,32.449z"/>
	<path style="fill:#1D1D1B;" d="M22.154,21.846c-0.115-0.502-0.996-0.662-1.387-0.822c-0.647-0.265-1.599-0.886-2.33-0.668
		c-0.469,0.14-0.732,0.556-0.589,1.024c0.045,0.146,0.191,0.15,0.282,0.081c0.871,0.72,1.847,1.325,2.716,2.053
		c0.091,0.076,0.209,0.083,0.3,0C21.52,23.173,22.287,22.425,22.154,21.846z M21.1,22.946c-0.364,0.153-1.034-0.533-1.385-0.779
		c-0.485-0.34-0.982-0.691-1.511-0.962c-0.1-0.875,1.318-0.227,1.515-0.146c0.267,0.11,0.532,0.223,0.799,0.334
		c0.194,0.081,0.64,0.197,0.799,0.334C21.68,22.042,21.555,22.754,21.1,22.946z"/>
	<path style="fill:#1D1D1B;" d="M26.672,43.288c-0.005-0.118-0.099-0.23-0.225-0.225c-0.482,0.019-0.964,0.036-1.446,0.058
		c-0.275,0.012-0.562,0.004-0.782,0.194c-0.392,0.341-0.181,0.904,0.058,1.288c-0.03,0.003-0.06,0.003-0.09,0.007
		c-0.109,0.014-0.158,0.181-0.028,0.211c0.765,0.173,1.576,0.158,2.355,0.221c0.115,0.009,0.216-0.106,0.215-0.215
		C26.724,44.314,26.693,43.801,26.672,43.288z M24.744,44.57c-0.005-0.027,0.004-0.053-0.015-0.081
		c-0.1-0.145-0.246-0.333-0.26-0.514c-0.028-0.374,0.323-0.397,0.623-0.409c0.381-0.014,0.762-0.029,1.142-0.043
		c0.015,0.361,0.031,0.722,0.054,1.083C25.776,44.589,25.257,44.554,24.744,44.57z"/>
	<path style="fill:#1D1D1B;" d="M8.385,31.502c-0.141-0.504-0.776-0.827-1.165-0.38c-0.005,0.006-0.003,0.013-0.007,0.019
		c-0.043-0.098-0.208-0.086-0.218,0.044c-0.064,0.882-0.746,1.721-0.478,2.623c0.157,0.528,0.571,0.955,1.149,0.892
		c0.09-0.01,0.183-0.059,0.205-0.156c0.143-0.651,0.286-1.301,0.422-1.953C8.363,32.246,8.483,31.852,8.385,31.502z M7.966,31.892
		c-0.003,0.114-0.018,0.226-0.048,0.336c-0.043,0.245-0.104,0.49-0.156,0.733c-0.093,0.438-0.181,0.877-0.27,1.316
		c-1.139-0.035-0.416-2.067-0.283-2.9c0.065,0.085,0.188,0.126,0.301,0.035C7.879,31.469,8.031,31.629,7.966,31.892z"/>
	<path style="fill:#1D1D1B;" d="M26.078,29.789c-0.586,0.624-1.517-0.305-2.225-0.102c-0.424,0.121-0.721,0.537-0.576,0.966
		c0.03,0.09,0.106,0.118,0.18,0.115c0.298,0.618,0.955,1.016,1.66,0.89c0.834-0.149,1.327-0.929,1.272-1.74
		C26.38,29.769,26.193,29.667,26.078,29.789z M23.633,30.547c0.106-0.169,0.212-0.338,0.318-0.506c0.14,0.002,0.28,0.005,0.42,0.008
		c0.155,0.027,0.308,0.096,0.457,0.148c0.2,0.07,0.397,0.142,0.61,0.161c0.198,0.018,0.382-0.007,0.55-0.075
		C25.771,31.404,24.22,31.614,23.633,30.547z"/>
	<path style="fill:#1D1D1B;" d="M30.217,7.498c-0.554-0.017-1.109-0.033-1.663-0.05c-0.323-0.01-0.689-0.065-0.996,0.057
		c-0.636,0.253-0.562,0.996-0.42,1.542c0.029,0.113,0.119,0.147,0.209,0.144c0.017,0.057,0.07,0.104,0.145,0.087
		c0.898-0.199,1.796-0.175,2.676,0.101c0.14,0.044,0.28-0.1,0.238-0.239c-0.143-0.474-0.154-0.908,0.014-1.378
		C30.467,7.63,30.344,7.501,30.217,7.498z M27.551,9.018c0.006-0.03,0.023-0.054,0.014-0.089c-0.06-0.234-0.155-0.544-0.059-0.779
		c0.154-0.378,0.752-0.275,1.049-0.269c0.464,0.01,0.928,0.02,1.392,0.03c-0.083,0.346-0.089,0.694-0.004,1.037
		C29.141,8.806,28.348,8.818,27.551,9.018z"/>
	<path style="fill:#1D1D1B;" d="M12.254,16.816c-0.342-0.563-0.827-1.079-1.542-0.826c-0.781,0.276-1.208,1.222-1.605,1.873
		c-0.089,0.146,0.028,0.316,0.186,0.324c0.343,0.017,0.681,0.071,1.023,0.09c0.021,0.001,0.031-0.013,0.048-0.017
		c-0.111,0.174-0.216,0.353-0.301,0.545c-0.078,0.176,0.158,0.326,0.264,0.154c0.479-0.778,1.053-1.392,1.85-1.852
		C12.275,17.05,12.313,16.914,12.254,16.816z M10.492,18.075c-0.006-0.075-0.04-0.149-0.125-0.174
		c-0.233-0.07-0.473-0.099-0.714-0.118c0.219-0.381,0.444-0.776,0.755-1.075c0.259-0.248,0.587-0.484,0.967-0.284
		c0.179,0.094,0.298,0.268,0.405,0.441C11.28,17.188,10.837,17.593,10.492,18.075z"/>
	<path style="fill:#1D1D1B;" d="M45.393,39.611c-0.503-0.415-1.001-0.836-1.513-1.241c-0.106-0.084-0.261-0.087-0.337,0.043
		c-0.502,0.868-1.154,1.813-1.392,2.795c-0.003,0.01,0.009,0.016,0.012,0.026c-0.201-0.097-0.424,0.134-0.251,0.325
		c0.308,0.339,0.678,0.534,1.119,0.65c0.088,0.023,0.221-0.013,0.261-0.106c0.183-0.429,0.43-0.802,0.722-1.133
		c0.178,0.099,0.354,0.206,0.489,0.357c0.235,0.264,0.321,0.978,0.031,1.189c-0.187-0.074-0.399-0.092-0.616-0.021
		c-0.167,0.055-0.248,0.333-0.055,0.418c0.068,0.03,0.135,0.026,0.203,0.041c0.575,0.33,0.714,0.644,0.406,0.94
		c-0.15,0.227-0.367,0.376-0.651,0.447c-0.156,0.063-0.322,0.103-0.488,0.139c-0.04-0.017-0.086-0.021-0.128-0.035
		c0.165-0.288,0.276-0.603,0.288-0.928c0.008-0.216-0.298-0.239-0.363-0.049c-0.202,0.597-0.361,1.092-0.816,1.558
		c-0.144,0.147,0.071,0.356,0.224,0.224c0.169-0.147,0.324-0.324,0.466-0.513c0.574,0.287,1.068,0.991,0.489,1.593
		c-0.365,0.38-0.932,0.351-1.334,0.08c-0.191-0.129-0.384,0.116-0.294,0.294c0.369,0.731-0.391,1.258-0.985,1.271
		c-0.356,0.008-0.73-0.138-1.053-0.293c0.304-0.123,0.582-0.303,0.771-0.586c0.099-0.148-0.108-0.267-0.226-0.175
		c-0.253,0.198-0.504,0.358-0.769,0.473c-0.074-0.025-0.157,0.009-0.206,0.074c-0.272,0.085-0.559,0.121-0.889,0.062
		c-0.178-0.032-0.257,0.234-0.076,0.275c0.31,0.071,0.642,0.063,0.963,0.007c0.067,0.426-0.019,0.771-0.381,1.068
		c-0.487,0.399-1.154,0.275-1.524-0.281c-0.09-0.135-0.34-0.137-0.376,0.049c-0.26,1.347-2.045,1.248-2.179-0.132
		c-0.013-0.129-0.197-0.133-0.204,0c-0.088,1.71,2.125,1.998,2.678,0.604c0.993,0.906,2.642,0.101,2.414-1.189
		c0.628,0.364,1.399,0.581,2.037,0.105c0.359-0.268,0.528-0.663,0.501-1.066c0.65,0.19,1.417-0.045,1.71-0.713
		c0.248-0.565,0.024-1.205-0.42-1.575c0.669-0.138,1.359-0.434,1.456-1.185c0.038-0.293-0.062-0.553-0.235-0.744
		c0.153-0.133,0.282-0.3,0.337-0.527c0.165-0.681-0.359-1.217-0.907-1.543c0.307-0.283,0.649-0.531,1.048-0.719
		C45.471,39.904,45.499,39.698,45.393,39.611z M42.987,41.697c-0.269-0.097-0.506-0.23-0.733-0.418
		c0.005-0.003,0.011,0.003,0.015-0.002c0.605-0.713,1.026-1.621,1.516-2.43c0.351,0.299,0.706,0.594,1.062,0.888
		C44.032,40.187,43.393,40.855,42.987,41.697z"/>
	<path style="fill:#1D1D1B;" d="M51.002,24.591c0.683-0.375,1.102-1.139,0.956-1.935c-0.123-0.67-0.829-1.445-1.567-1.51
		c0.31-0.452,0.416-1.071,0.244-1.573c-0.259-0.756-0.994-1.167-1.745-1.158c0.329-1.059-0.69-2.086-1.693-1.578
		c0.411-0.452,0.448-1.194,0.149-1.717c-0.329-0.576-0.961-0.816-1.587-0.749c0.01-0.381-0.196-0.743-0.567-0.918
		c-0.538-0.253-1.071,0.013-1.493,0.354c0.021-0.208-0.005-0.418-0.093-0.589c-0.179-0.349-0.539-0.508-0.903-0.509
		c1.037-0.896,0.551-2.771-0.939-2.995c0.021-0.961-1.164-1.009-1.911-0.674c0.341-0.624,0.271-1.467-0.252-1.983
		c-0.603-0.594-1.53-0.553-2.178-0.087c-0.61-0.833-1.83-0.599-2.102,0.293c-0.224-0.399-0.737-0.698-1.189-0.688
		c0.03-0.442-0.242-0.844-0.7-1.028c-0.715-0.287-1.364,0.163-1.855,0.669c-0.338-1.007-1.663-1.171-2.177-0.333
		c-0.344-0.441-0.892-0.728-1.465-0.692c-0.813,0.052-1.392,0.669-1.58,1.406c-0.823-0.495-1.921,0.342-1.422,1.244
		c-0.253-0.109-0.54-0.122-0.799-0.029c0.098-0.519-0.23-1.13-0.726-1.335c-0.589-0.244-1.206,0.072-1.501,0.583
		c-0.736-0.774-2.107-0.357-2.103,0.823c-0.524-0.267-1.322-0.088-1.637,0.536c-0.884-0.723-2.32-0.02-1.959,1.203
		c-0.63-0.531-1.792-0.321-2.256,0.328c-0.568,0.796-0.187,1.912,0.645,2.326c-0.212,0.335-0.334,0.723-0.33,1.129
		c-0.373-0.3-1.063-0.169-1.378,0.151c-0.13,0.133-0.2,0.293-0.241,0.46c-0.172-0.364-0.474-0.658-0.877-0.707
		c-0.479-0.058-0.943,0.268-1.073,0.697c-1.032-0.608-2.443,0.689-1.477,1.761c0.095,0.106,0.26-0.03,0.193-0.149
		c-0.235-0.422-0.235-0.986,0.229-1.257c0.398-0.232,0.846-0.092,1.122,0.262c0.129,0.166,0.424-0.014,0.353-0.206
		c-0.09-0.247,0.131-0.592,0.374-0.651c0.351-0.086,0.632,0.193,0.766,0.474c0.098,0.208,0.116,0.432,0.142,0.657
		c-0.202-0.026-0.405-0.04-0.601-0.039c-0.198,0.001-0.196,0.297,0,0.306c0.531,0.025,0.958,0.195,1.455,0.349
		c0.183,0.057,0.283-0.205,0.127-0.302c-0.052-0.032-0.108-0.054-0.163-0.08c0.049-0.048,0.065-0.127-0.001-0.193
		c-0.319-0.314-0.38-0.92,0.057-1.179c0.35-0.207,0.64-0.011,0.975,0.092c0.027,0.008,0.05,0.003,0.073-0.001
		c0.024,0.104,0.047,0.208,0.088,0.312c0.49,1.246,2.012,1.853,3.226,1.3c1.042-0.474,1.559-1.797,0.898-2.793
		c-0.567-0.854-1.918-1.139-2.933-0.975c0.033-0.021,0.062-0.047,0.097-0.066c0.109-0.059,0.034-0.254-0.087-0.206
		c-0.334,0.136-0.599,0.357-0.819,0.612c-0.617-0.352-0.933-1.26-0.436-1.849c0.426-0.504,1.02-0.433,1.537-0.194
		c-0.254,0.224-0.46,0.5-0.58,0.779c-0.048,0.111,0.099,0.206,0.167,0.098c0.186-0.298,0.432-0.532,0.732-0.707
		c0.002,0.001,0.005,0.003,0.007,0.004c0.127,0.079,0.259-0.024,0.272-0.148c0.276-0.097,0.554-0.116,0.846-0.178
		c0.149-0.032,0.143-0.259,0-0.295c-0.284-0.071-0.571-0.029-0.84,0.079c-0.152-0.914,0.969-1.569,1.564-0.715
		c0.094,0.135,0.352,0.144,0.388-0.051c0.042-0.453,0.339-0.684,0.892-0.693c0.277,0.156,0.452,0.376,0.552,0.644
		c-0.272-0.004-0.547,0.031-0.8,0.08c-0.165,0.032-0.13,0.316,0.04,0.297c0.524-0.059,0.999,0.068,1.514,0.096
		c0.149,0.008,0.202-0.208,0.075-0.278c-0.136-0.076-0.285-0.121-0.438-0.152c0-0.001,0.001-0.002,0.002-0.004
		c0.033-0.341-0.07-0.596-0.241-0.776c0.008-0.017,0.021-0.029,0.022-0.052c0.023-0.981,1.247-1.339,1.707-0.41
		c0.082,0.165,0.358,0.126,0.398-0.052c0.115-0.521,0.734-0.995,1.261-0.539c0.353,0.306,0.256,0.718,0.179,1.103
		c-0.006,0.028,0.002,0.053,0.009,0.078c-0.025,0.034-0.054,0.064-0.074,0.101c-0.071,0.128,0.114,0.289,0.212,0.164
		c0.296-0.377,0.982-0.512,1.249-0.023c0.253,0.462-0.091,0.729-0.328,1.074c-0.076,0.112,0.024,0.297,0.163,0.283
		c0.737-0.074,0.866-1.173,0.481-1.67c-0.025-0.033-0.059-0.051-0.087-0.079c0.017-0.028,0.026-0.061,0.009-0.094
		c-0.318-0.794,0.038-1.052,1.07-0.774c0.13,0.182,0.438,0.13,0.439-0.119c0.002-0.734,0.527-1.395,1.298-1.372
		c0.567,0.017,0.92,0.351,1.147,0.802C29.2,6.503,29.194,6.509,29.193,6.52c0,0.006,0.005,0.009,0.005,0.015
		c-0.333-0.004-0.671,0.069-0.964,0.203c-0.116,0.053-0.034,0.244,0.087,0.206c0.403-0.128,0.745-0.096,1.088,0
		c0.056,0.084,0.153,0.105,0.238,0.07c0.128,0.047,0.257,0.099,0.392,0.157c0.156,0.066,0.341-0.116,0.196-0.254
		c-0.146-0.139-0.317-0.23-0.498-0.293c-0.028-0.174-0.092-0.338-0.174-0.492c0.144-0.233,0.395-0.305,0.771-0.19
		c0.612-0.223,0.916,0.016,0.913,0.718c0.003,0.171,0.237,0.294,0.361,0.149c0.167-0.195,0.331-0.385,0.536-0.543
		c0.108-0.115,0.236-0.197,0.386-0.247c0.453-0.288,0.835-0.053,1.149,0.685c-0.584,0.343-0.725,1.2-0.307,1.736
		c0.071,0.091,0.212-0.025,0.158-0.122c-0.265-0.462-0.062-1.169,0.494-1.299c0.69-0.162,0.89,0.503,1.014,1.012
		c0.032,0.133,0.215,0.147,0.283,0.037c0.026-0.042,0.033-0.085,0.05-0.128c0.06,0.002,0.125-0.034,0.126-0.105
		c0.011-1.028,1.256-1.365,1.694-0.442c0.063,0.134,0.25,0.133,0.345,0.045c0.463-0.429,1.249-0.533,1.734-0.05
		c0.494,0.491,0.354,1.238-0.03,1.732c-0.011,0.014-0.006,0.029-0.014,0.044c-0.097-0.098-0.193-0.194-0.28-0.29
		c-0.159-0.174-0.394,0.077-0.254,0.254c0.319,0.4,0.613,0.901,1.036,1.193c0.156,0.108,0.306-0.096,0.238-0.238
		c-0.108-0.226-0.275-0.432-0.457-0.627c0.016-0.009,0.031-0.004,0.046-0.019c0.054-0.05,0.098-0.108,0.143-0.165
		c0.029,0.048,0.079,0.084,0.144,0.064c0.438-0.134,1.74-0.455,1.48,0.513c-0.04,0.147,0.071,0.268,0.213,0.279
		c0.645,0.052,1.281,0.547,1.28,1.245c0,0.592-0.445,0.996-0.942,1.229c-0.243,0.114-0.096,0.477,0.144,0.46
		c0.027,0.058,0.091,0.095,0.169,0.054c0.389-0.205,0.931-0.078,1.051,0.383c0.105,0.407-0.161,0.611-0.428,0.849
		c-0.167,0.148,0.015,0.378,0.2,0.344c0.332-0.061,0.55-0.339,0.644-0.662c0.031,0.018,0.066,0.027,0.101,0.003
		c0.469-0.316,1.954-0.544,1.538,0.53c-0.062,0.16,0.12,0.303,0.266,0.266c0.54-0.137,1.151,0.043,1.395,0.588
		c0.21,0.47,0.036,0.834-0.149,1.258c-0.298-0.263-0.629-0.484-0.922-0.635c-0.165-0.085-0.301,0.147-0.146,0.249
		c0.388,0.256,0.738,0.567,1.015,0.942c0.217,0.294,0.343,0.64,0.567,0.926c0.132,0.168,0.341-0.024,0.317-0.185
		c-0.041-0.276-0.174-0.54-0.355-0.784c0.707-0.14,1.788,0.408,1.03,1.347c-0.15,0.187-0.014,0.461,0.237,0.406
		c0.761-0.165,1.65,0.292,1.66,1.158c0.007,0.574-0.409,0.937-0.812,1.268c-0.124-0.156-0.247-0.302-0.357-0.429
		c-0.102-0.119-0.305,0.037-0.218,0.168c0.107,0.163,0.199,0.334,0.299,0.501c-0.032-0.007-0.067,0.002-0.074,0.036
		c-0.07,0.359-0.014,0.698-0.216,1.028c-0.33,0.539-1.005,0.658-1.547,0.387c-0.307-0.153-0.525,0.25-0.263,0.45
		c0.331,0.253,0.336,0.682,0.123,0.996c-0.362,0.017-0.704,0.124-0.982,0.365c0.041-0.074,0.083-0.149,0.139-0.219
		c0.081-0.104-0.053-0.25-0.149-0.149c-1.745,1.833,1.23,4.999,3.225,3.531c1.631-1.2-0.008-3.125-1.637-3.477
		c0.115-0.284,0.111-0.596,0.006-0.881c0.451,0.022,0.896-0.112,1.222-0.481c0.268-0.303,0.462-0.823,0.358-1.24
		c0.023,0.042,0.052,0.081,0.074,0.124c0.153,0.3,0.237,0.63,0.461,0.883c0.09,0.101,0.277,0.022,0.27-0.112
		c-0.019-0.375-0.23-0.77-0.483-1.135c0.123-0.037,0.233-0.096,0.337-0.165c0.67,0.218,1.317,0.332,1.537,1.142
		c0.194,0.714-0.216,1.439-0.822,1.801c-0.075,0.045-0.06,0.152-0.002,0.195c-0.1,0.081-0.067,0.257,0.084,0.263
		c1.275,0.047,1.816,1.45,0.647,2.042c-0.128,0.065-0.125,0.233-0.042,0.328c0.278,0.281,0.468,0.612,0.569,0.993
		c0.021,0.996-0.378,1.446-1.196,1.35c-0.125-0.016-0.143,0.181-0.029,0.214c0.613,0.18,1.214-0.096,1.503-0.676
		c0.34-0.684,0.03-1.41-0.392-1.973C53.033,26.402,52.452,24.37,51.002,24.591z M15.266,11.955c0.006,0.002,0.003,0.011,0.009,0.012
		c0.686,0.115,1.38-0.006,2.055,0.231c1.135,0.399,1.495,1.83,0.515,2.63c-0.894,0.729-2.253,0.452-2.879-0.495
		C14.443,13.543,14.631,12.567,15.266,11.955z M48.6,25.375c0.328,0.219,0.668,0.505,0.86,0.858
		c0.356,0.657-0.032,1.409-0.715,1.636c-1.513,0.504-3.198-1.318-2.692-2.754c0.036,0.045,0.102,0.069,0.167,0.037
		c0.285-0.143,0.563-0.196,0.84-0.212c0.049,0.067,0.117,0.114,0.202,0.116c-0.125,0.35-0.137,0.716-0.068,1.073
		c-0.131,0.079-0.25,0.178-0.339,0.288c-0.071,0.088,0.041,0.208,0.127,0.127c0.092-0.088,0.183-0.146,0.274-0.184
		c0.073,0.244,0.168,0.482,0.304,0.699c0.074,0.117,0.248,0.014,0.185-0.108c-0.113-0.219-0.173-0.435-0.215-0.652
		c0.182-0.012,0.371,0.019,0.586,0.028c0.093,0.004,0.145-0.123,0.077-0.186c-0.205-0.19-0.466-0.213-0.713-0.141
		c-0.025-0.322,0.003-0.651,0.049-1c0.003-0.024-0.007-0.044-0.019-0.062C47.88,24.991,48.245,25.138,48.6,25.375z"/>
	<path style="fill:#1D1D1B;" d="M50.571,29.929c0.069-0.356,0.043-0.722-0.119-0.997c-0.075-0.128-0.289-0.076-0.285,0.077
		c0.009,0.354,0.084,0.669,0.002,1.025c-0.083,0.357-0.283,0.612-0.454,0.924c-0.039,0.07,0.037,0.139,0.106,0.106
		c0.287-0.142,0.508-0.435,0.644-0.772c0.318,0.009,0.482,0.222,0.478,0.656c0.527,0.607,0.335,0.96-0.576,1.061
		c-0.232,0.003-0.302,0.376-0.057,0.42c0.564,0.146,0.825,0.507,0.785,1.082c0.057,0.566-0.224,0.927-0.844,1.083
		c-0.05-0.05-0.122-0.025-0.157,0.023c-0.238-0.092-0.496-0.131-0.749-0.091c0.29-0.385,0.351-0.932,0.02-1.344
		c-0.27-0.336-0.679-0.431-1.063-0.356c0.01-0.182-0.015-0.366-0.131-0.534c-0.256-0.37-0.789-0.491-1.164-0.255
		c-0.036-0.499-0.122-0.953-0.251-1.257c-0.914-2.155-3.903-2.768-6.16-2.009c0.037-0.079,0.021-0.177-0.092-0.208
		c-0.279-0.078-0.771-0.295-0.845-0.615c-0.107-0.468,0.435-0.585,0.799-0.504c0.17,0.038,0.356-0.152,0.243-0.317
		c-0.259-0.379-0.219-0.941,0.218-1.181c0.395-0.217,0.768,0.022,1.081,0.248c0.009,0.007,0.018,0.003,0.027,0.007
		c0.021,0.194,0.068,0.383,0.161,0.544c0.09,0.154,0.314,0.019,0.237-0.139c-0.252-0.516-0.026-0.921,0.329-1.3
		c0.129-0.137-0.032-0.335-0.196-0.254c-0.171,0.084-0.285,0.218-0.372,0.37c-0.253,0.147-0.695-0.826-0.734-0.956
		c-0.124-0.415,0.037-1.034,0.597-0.866c0.228,0.069,0.353-0.236,0.183-0.373c1.247,0.104,2.59-0.31,3.59-1.173
		c0.065-0.056,0.067-0.124,0.048-0.188c0.082-0.042,0.141-0.123,0.101-0.228c-1.016-2.661-2.333-5.317-3.676-7.834
		c0.067-0.018,0.13-0.041,0.199-0.056c0.129-0.027,0.102-0.24-0.031-0.231c-0.125,0.008-0.241,0.034-0.359,0.054
		c-0.029-0.003-0.058,0-0.085,0.013c-0.886,0.179-1.589,0.704-2.114,1.416c-0.267-0.235-0.682-0.369-0.983-0.317
		c-0.591,0.102-0.881,0.612-0.939,1.156c-0.192-0.42-0.645-0.725-1.152-0.675c-0.52,0.052-0.862,0.34-1.055,0.724
		c-0.024-0.05-0.095-0.078-0.146-0.032c-0.406,0.366-1.286,0.189-1.348-0.424c-0.058-0.579,0.533-0.805,1.018-0.77
		c0.036,0.159,0.102,0.315,0.224,0.459c0.113,0.133,0.331-0.039,0.24-0.185c-0.048-0.076-0.079-0.156-0.101-0.238
		c0.113-0.044,0.184-0.204,0.072-0.292c-0.023-0.018-0.05-0.024-0.074-0.039c0.021-0.072,0.055-0.144,0.11-0.213
		c0.197-0.25-0.185-0.533-0.342-0.264c-0.065,0.111-0.108,0.223-0.135,0.335c-0.045-0.008-0.091-0.004-0.136-0.007
		c-0.233-0.194-0.389-0.472-0.33-0.794c0.06-0.329,0.265-0.478,0.506-0.598c0.525,0.562,1.472,1.25,2.015,0.63
		c0.318,0.032,0.651-0.181,0.843-0.45c0.331-0.465,0.234-1.075,0.047-1.578c-0.385-1.039-1.459-2.157-2.671-1.628
		c-1.031,0.45-1.083,1.764-0.552,2.616c-0.357,0.217-0.619,0.657-0.629,1.044c-0.009,0.324,0.121,0.602,0.321,0.815
		c-0.53,0.173-0.965,0.672-0.841,1.264c0.167,0.798,1.316,1.152,1.833,0.51c-0.103,0.279-0.134,0.595-0.101,0.905
		c-0.894-0.313-1.85,0.896-0.955,1.653c-0.086,0.004-0.171,0.002-0.256,0.011c0.16-0.695-0.892-1.278-1.465-1.261
		c-0.799,0.023-1.406,0.715-1.429,1.489c-0.006,0.198,0.275,0.185,0.299,0c0.08-0.621,0.653-1.172,1.304-1.04
		c0.293,0.06,0.559,0.222,0.732,0.471c0.088,0.127,0.143,0.258,0.224,0.379c-0.012,0.002-0.026,0.003-0.038,0.004
		c-0.237,0.027-0.562,0.025-0.753,0.179c-0.183,0.148-0.305,0.529,0.022,0.553c0.12,0.009,0.146-0.184,0.029-0.211
		c0.041,0.009,0.583-0.116,0.702-0.123c0.153-0.008,0.306-0.012,0.459-0.012c0.298,0,0.583,0.047,0.875-0.021
		c0.184-0.043,0.152-0.285,0-0.342c-0.159-0.06-0.334-0.08-0.511-0.084c0.009-0.033,0.01-0.068-0.014-0.097
		c-0.583-0.694,0.276-1.628,0.949-0.927c0.137,0.143,0.425-0.003,0.349-0.203c-0.206-0.54-0.223-1.205,0.303-1.575
		c0.614-0.431,1.334,0.016,1.177,0.75c-0.003,0.014,0.007,0.025,0.006,0.039c-0.197,0.072-0.388,0.166-0.556,0.284
		c-0.174,0.122-0.023,0.392,0.169,0.288c0.427-0.231,0.778-0.245,1.247-0.296c0.19-0.021,0.265-0.307,0.049-0.359
		c-0.076-0.018-0.153-0.009-0.23-0.012c-0.057-0.479,0.036-1.192,0.58-1.37c0.201-0.066,0.445-0.017,0.618,0.099
		c0.075,0.05,0.121,0.113,0.159,0.179c-0.924,1.554-1.131,3.748-0.636,5.303c0.143,0.449,0.364,0.812,0.614,1.137
		c-0.104,0.095-0.19,0.201-0.254,0.323c-0.26-0.426-0.691-0.727-1.242-0.642c-0.478,0.074-0.823,0.447-0.921,0.883
		c-0.749-0.524-1.808,0.287-1.583,1.082c-0.363-0.21-0.767-0.346-1.165-0.291c-0.237,0.033-0.446,0.131-0.62,0.267
		c0.022-0.911-0.214-1.866-0.812-2.796c-0.711-1.106-2.896-3.074-4.273-1.958c-0.806,0.653-0.927,2.391-1.164,3.289
		c-0.383,1.452-0.844,2.92-1.135,4.403c-0.289-0.321-0.764-0.499-1.181-0.438c-0.324,0.048-0.594,0.222-0.786,0.459
		c-0.067-0.451-0.36-0.887-0.772-1.065c-0.669-0.289-1.347,0.092-1.647,0.678c-0.265-0.238-0.679-0.309-1.046-0.159
		c-0.663,0.271-0.698,0.98-0.531,1.599c-0.454-0.564-1.435-0.779-2.039-0.473c-0.793,0.402-1.018,1.369-0.66,2.107
		c-0.474-0.358-1.122-0.531-1.721-0.609c0.003-0.075-0.073-0.151-0.164-0.108c-0.061,0.029-0.115,0.069-0.173,0.103
		c-0.014,0.008-0.029,0.011-0.04,0.024c-0.619,0.385-1.034,1.059-1.067,1.773c-0.008,0-0.011-0.006-0.019-0.005
		c-0.265,0.031-0.561,0.057-0.77-0.153c-0.186-0.186-0.181-0.437-0.085-0.654c0.08-0.08,0.147-0.171,0.202-0.271
		c0.025-0.021,0.043-0.049,0.07-0.066c0.187,0.107,0.39,0.184,0.614,0.18c0.19-0.003,0.21-0.256,0.043-0.318
		c-0.463-0.171-0.824-0.287-1.124-0.713c-0.101-0.144-0.33-0.018-0.24,0.14c0.106,0.186,0.252,0.355,0.415,0.503
		c-0.314,0.247-0.677,0.652-0.982,0.149c-0.304-0.501,0.203-1.076,0.508-1.429c0.006-0.007,0.003-0.014,0.007-0.021
		c0.041-0.007,0.082-0.012,0.123-0.02c1.574-0.293,3.124-0.7,4.631-1.243c0.325-0.117,0.195-0.63-0.145-0.526
		c-2.184,0.67-4.362,1.235-6.63,1.541c-0.586,0.079-1.945-0.098-2.389,0.46c-0.46-2.821,0.979-5.762,4.135-5.969
		c2.798-0.184,4.438,1.807,5.297,4.218c0.076,0.212,0.442,0.2,0.421-0.057c-0.197-2.388-2.125-4.247-4.376-4.696
		c-0.336-0.465-0.249-1.252,0.337-1.475c0.549-0.209,0.922,0.16,1.173,0.577c-0.226,0.078-0.442,0.167-0.618,0.263
		c-0.155,0.084-0.047,0.363,0.123,0.292c0.311-0.129,0.624-0.233,0.959-0.278c0.292-0.039,0.585,0.006,0.868-0.074
		c0.109-0.031,0.147-0.203,0.034-0.257c-0.208-0.099-0.453-0.105-0.703-0.082c-0.001-0.026,0.008-0.049-0.005-0.077
		c-0.216-0.454-0.377-1.218,0.079-1.603c0.327-0.277,0.878-0.266,1.082,0.145c0.002-0.001,0.004-0.003,0.006-0.005
		c0.014,0.017,0.017,0.039,0.033,0.055c0.205,0.207,0.518-0.055,0.391-0.302c-0.01-0.02-0.031-0.029-0.042-0.048
		c0.001-0.001,0.002-0.002,0.003-0.002c-0.192-0.199-0.229-0.556-0.002-0.755c0.434-0.38,0.723,0.207,0.836,0.507
		c0.069,0.184,0.307,0.185,0.376,0c0.003-0.007,0.001-0.013,0.003-0.02c0.096-0.011,0.188-0.104,0.156-0.208
		c-0.157-0.519,0.096-0.787,0.5-0.809c0.187,0.239,0.471,0.387,0.788,0.391c0.036,0,0.073-0.009,0.109-0.013
		c-0.2,0.225-0.295,0.533-0.172,0.865c0.162,0.437,0.6,0.631,1.02,0.59c-0.325,0.764-0.292,1.677,0.545,2.137
		c0.678,0.373,1.661-0.047,1.682-0.826c0.01,0.006,0.021,0.008,0.03,0.013c-0.197,0.905,0.729,1.567,1.476,1.2
		c0.074,0.418,0.402,0.779,0.875,0.847c0.735,0.105,1.508-0.668,1.414-1.394c-0.017-0.131-0.176-0.191-0.256-0.069
		c-0.164,0.252-0.241,0.548-0.463,0.764c-0.422,0.411-1.45,0.198-1.128-0.519c0.095-0.212-0.154-0.448-0.34-0.262
		c-0.515,0.517-1.311,0.235-1.295-0.447c0.341,0.104,0.712,0.086,1.024-0.113c0.148-0.095,0.051-0.308-0.116-0.276
		c-0.632,0.121-1.153,0.041-1.574-0.481c-0.105-0.13-0.305,0.036-0.227,0.175c0.074,0.13,0.176,0.245,0.289,0.348
		c-0.005,0.008-0.014,0.012-0.017,0.021c-0.248,0.648-1.035,1.027-1.514,0.302c-0.367-0.557-0.188-1.219,0.219-1.701
		c0.14-0.166-0.051-0.482-0.253-0.328c-0.211,0.16-0.433,0.235-0.679,0.087c-0.267-0.036-0.325-0.198-0.174-0.484
		c-0.08-0.391,0.1-0.583,0.523-0.589c0.206,0.229,0.507,0.351,0.828,0.188c0.106-0.054,0.091-0.25-0.035-0.27
		c-0.402-0.062-0.778-0.177-0.777-0.674c0-0.148-0.238-0.19-0.266-0.036c-0.011,0.061-0.011,0.123-0.008,0.186
		c-0.049-0.024-0.107-0.028-0.155,0.003c-0.19,0.122-0.337,0.282-0.585,0.27c-0.088-0.004-0.165-0.027-0.232-0.062
		c0.003-0.048-0.007-0.097-0.049-0.141c-0.064-0.067-0.133-0.1-0.202-0.139c-0.048-0.101-0.081-0.211-0.084-0.33
		c-0.015-0.657,0.63-1.063,1.191-1.204c0.032-0.008,0.05-0.026,0.062-0.046c0.17,0.216,0.353,0.424,0.571,0.61
		c2.41,2.053,6.156,0.329,7.126-2.434c0.063-0.18-0.186-0.308-0.311-0.181c-1.621,1.643-3.504,4.094-6.1,2.384
		c-2.151-1.417-2.031-4.247-0.69-6.131c1.784,1.589,4.097,3.223,6.419,3.806c0.258,0.065,0.426-0.301,0.184-0.437
		c-0.529-0.297-1.082-0.549-1.635-0.801c0.006-0.036,0-0.075-0.03-0.112c-0.354-0.439,0.042-1.277,0.626-1.196
		c0.612,0.085,0.654,0.671,0.643,1.156c-0.179-0.045-0.356-0.088-0.525-0.137c-0.185-0.053-0.255,0.221-0.078,0.285
		c0.496,0.178,1.014,0.447,1.543,0.484c0.144,0.01,0.18-0.19,0.07-0.259c-0.171-0.106-0.365-0.179-0.564-0.243
		c0.049-0.015,0.092-0.05,0.088-0.111c-0.068-1.11,1.393-1.478,1.672-0.332c0.061,0.249,0.422,0.184,0.433-0.059
		c0.025-0.547,0.766-1.029,1.185-0.549c0.317,0.363,0.18,0.898-0.218,1.135c-0.172,0.102-0.131,0.288-0.014,0.386
		c-0.045,0.007-0.09,0.014-0.135,0.021c-0.067-0.049-0.164-0.015-0.167,0.07c-0.076,0.078-0.06,0.215,0.034,0.288
		c0.047,1.009-0.893,3.034,0.655,3.205c0.484,0.053,0.786-0.29,0.856-0.744c0.138-0.887-0.027-1.897-0.055-2.792
		c-0.004-0.141-0.123-0.212-0.252-0.192c-0.176,0.027-0.353,0.054-0.529,0.081c0.609-0.451,0.68-1.483,0.026-1.942
		c-0.592-0.416-1.33-0.1-1.657,0.458c-0.533-0.649-1.567-0.542-1.957,0.114c-0.225-0.484-0.73-0.874-1.243-0.804
		c-0.724,0.099-1.164,0.972-0.845,1.585c-0.448-0.206-0.894-0.417-1.324-0.661c-1.046-0.594-2.026-1.269-3-1.97
		c0.032-0.039,0.061-0.08,0.094-0.118c0.068-0.078-0.025-0.227-0.119-0.155c-0.061,0.047-0.104,0.108-0.162,0.158
		c-0.113-0.042-0.219,0.076-0.192,0.186c-1.562,1.516-1.795,4.028-0.552,5.781c-0.838,0.127-1.724,0.752-1.559,1.661
		c-0.338,0.075-0.628,0.362-0.727,0.712c-0.288-0.238-0.711-0.347-1.04-0.2c-0.348,0.156-0.513,0.487-0.53,0.833
		c-0.341-0.089-0.724-0.042-1.025,0.17c-0.528,0.371-0.599,1.002-0.461,1.582c-0.402-0.352-1.059-0.481-1.504-0.253
		c-0.651,0.333-0.809,1.175-0.475,1.77c-0.525-0.066-1.063-0.058-1.598,0.042c-1.366,0.256-2.519,1.057-3.256,2.121
		c-0.001,0.001-0.002,0-0.003,0.001c-0.639,0.52-1.605,0.638-2.192-0.033c-0.632-0.723-0.196-1.754,0.73-1.881
		c0.103,0.306,0.246,0.601,0.4,0.879c0.084,0.152,0.295,0.018,0.228-0.133c-0.235-0.53-0.335-1.084-0.518-1.628
		c-0.047-0.138-0.257-0.119-0.259,0.035c-0.002,0.188,0.027,0.372,0.069,0.554c-0.076-0.004-0.143,0.014-0.213,0.022
		c-0.775-0.067-0.765-0.665,0.038-1.799c0.152-0.018,0.281-0.211,0.139-0.336c-0.142-0.108-0.266-0.233-0.372-0.375
		c-0.357-0.296-0.262-0.643,0.283-1.041c0.145,0.063,0.369-0.045,0.301-0.232c-0.104-0.193-0.136-0.398-0.096-0.616
		c-0.103-0.607,0.277-0.843,1.086-0.749c-0.063,0.041-0.129,0.077-0.187,0.122c-0.111,0.086,0.01,0.274,0.135,0.232
		c0.503-0.168,1.007-0.304,1.514-0.458c0.17-0.052,0.132-0.293-0.041-0.304c-0.311-0.019-0.624,0.042-0.92,0.153
		c-0.355-0.425-0.963-0.529-1.454-0.214c-0.569,0.365-0.66,1.036-0.521,1.639c-0.322,0.004-0.613,0.184-0.746,0.55
		c-0.188,0.518,0.129,0.978,0.49,1.338c-1.078,0.419-1.037,1.854-0.116,2.238c-0.64,0.376-0.898,1.31-0.489,2.003
		c0.091,0.154,0.201,0.275,0.32,0.382c-1,0.29-1.35,1.376-0.75,2.229c-0.702,0.566-1.354,1.457-0.831,2.364
		c0.146,0.254,0.424,0.445,0.72,0.528c-0.423,0.415-0.386,1.169,0.133,1.557c-0.594,0.289-1.161,0.777-0.994,1.482
		c0.098,0.414,0.538,0.826,0.956,0.817c-0.496,0.485-0.873,1.122-0.705,1.836c0.152,0.648,0.703,1.065,1.318,1.045
		c-0.212,0.826-0.302,1.96,0.682,2.275c0.074,0.024,0.142,0.029,0.211,0.039c-0.775,0.904,0.154,2.126,1.203,1.898
		c-0.388,0.847-1.104,1.913-0.277,2.643c0.5,0.441,1.28,0.316,1.78-0.083c-0.318,0.901,0.774,1.908,1.698,1.502
		c-0.091,0.871,0.176,1.766,1.266,1.807c0.725,0.027,1.494-0.739,1.356-1.461c0.275,0.287,0.679,0.422,1.073,0.377
		c-0.435,0.332-0.72,0.824-0.664,1.452c0.053,0.598,0.524,0.992,1.025,0.967c-0.207,0.74,0.031,1.612,0.82,1.905
		c0.554,0.206,1.22-0.016,1.577-0.461c0.122,1.113,1.547,1.556,2.323,0.78c0.175,0.662,0.754,1.212,1.495,1.129
		c0.686-0.077,1.229-0.729,1.23-1.39c0.295,0.192,0.66,0.257,1.001,0.175c-0.225,1.118,1.08,1.841,2.004,1.204
		c0.218,0.826,1.063,1.472,1.949,1.144c0.535-0.198,0.914-0.76,0.951-1.321c0.562,0.295,1.281,0.221,1.757-0.229
		c0.403,0.612,1.248,0.927,1.879,0.396c0.367-0.309,0.546-1.01,0.354-1.488c0.492,0.276,1.164,0.179,1.441-0.364
		c0.227-0.445,0.02-1.236-0.478-1.421c0.336-2.433,0.429-4.941,0.524-7.399c0.6,0.448,1.435,0.507,2.008-0.193
		c0.582-0.71,0.099-1.74-0.666-1.889c0.428-0.077,0.8-0.323,0.906-0.679c0.637,0.527,1.443,0.921,2.22,0.494
		c0.473-0.26,0.787-0.767,0.754-1.265c0.43,0.09,0.919-0.086,1.123-0.513c0.16-0.335,0.102-0.674-0.076-0.942
		c0.299-0.131,0.509-0.396,0.395-0.767c-0.003-0.01-0.012-0.014-0.016-0.023c0.524,0.175,1.048,0.353,1.574,0.523
		c0.672,0.217,2.248,1.101,2.946,0.78c0.851-0.391,1.146-1.686,1.132-2.845c0.01-0.001,0.018,0.005,0.029,0.003
		c0.24-0.055,0.42-0.1,0.621,0.07c0.196,0.164,0.216,0.393,0.096,0.578c-0.1,0.075-0.193,0.16-0.266,0.263
		c-0.135,0.192,0.126,0.427,0.313,0.313c0.117-0.071,0.217-0.166,0.298-0.273c0.306-0.193,0.744-0.177,0.967,0.146
		c0.266,0.386,0.048,0.92-0.332,1.126c-0.143,0.078-0.044,0.334,0.114,0.27c0.023-0.009,0.042-0.025,0.065-0.036
		c0.042,0.081,0.131,0.144,0.233,0.125c0.552-0.105,1.233,0.081,1.369,0.725c0.164,0.776-0.664,1.247-1.305,1.084
		c-0.237-0.06-0.393,0.278-0.17,0.402c1.306,0.726,0.324,2.481-1.001,1.93c-0.007-0.003-0.011,0.002-0.018,0.001
		c0.045-0.148,0.077-0.299,0.065-0.456c-0.012-0.151-0.216-0.185-0.266-0.036c-0.069,0.207-0.129,0.398-0.202,0.582
		c-0.013,0.003-0.025,0.001-0.038,0.005c-0.105,0.033-0.143,0.174-0.084,0.253c-0.079,0.149-0.172,0.295-0.308,0.434
		c-0.122,0.125,0.063,0.308,0.191,0.191c0.163-0.147,0.311-0.327,0.435-0.52c0.519,0.139,1.059,0.444,1.019,1.084
		c-0.049,0.795-1.026,1.08-1.618,0.728c-0.196-0.117-0.455,0.122-0.323,0.323c0.288,0.436,0.429,1.024,0.115,1.491
		c-0.409,0.607-1.641,0.662-1.714-0.365c-0.011-0.152-0.236-0.156-0.239,0c-0.02,0.877,0.905,1.502,1.735,1.18
		c0.837-0.324,0.993-1.268,0.745-2.036c0.729,0.109,1.524-0.263,1.713-1.044c0.124-0.511-0.117-1.068-0.515-1.416
		c1.088-0.042,1.73-1.382,1.029-2.284c0.704-0.124,1.318-0.706,1.235-1.492c-0.031-0.298-0.163-0.558-0.353-0.765
		c0.3-0.058,0.577-0.375,0.697-0.72c0.243-0.695,0.183-1.555-0.356-1.996C52.037,31.772,51.945,30.108,50.571,29.929z
		 M35.551,10.425c0.744-0.57,1.622,0.07,1.992,0.75c0.155,0.285,0.306,0.616,0.324,0.946c0.032,0.557-0.284,0.788-0.787,0.855
		c-0.187,0.025-0.161,0.261-0.052,0.353c-0.339,0.117-0.863-0.222-1.269-0.719c0.088-0.089,0.043-0.257-0.08-0.294
		c-0.05-0.015-0.098-0.015-0.148-0.019C35.127,11.653,34.968,10.871,35.551,10.425z M32.588,12.717
		c0.016,0.483,0.031,0.965,0.048,1.448c0.009,0.267,0.033,0.537,0.029,0.805c0.006,0.126-0.003,0.251-0.027,0.376
		c-0.316,0.327-0.595,0.362-0.836,0.104c-0.478-0.473-0.099-1.332-0.015-1.88c0.039-0.258,0.029-0.491-0.013-0.725
		C32.046,12.802,32.317,12.759,32.588,12.717z M40.03,15.807c0.022-0.014,0.054-0.013,0.066-0.037
		c0.042-0.083,0.064-0.163,0.069-0.241c0.42-0.736,1.018-1.332,1.843-1.637c1.037,2.641,2.192,5.35,3.546,7.84
		c-2.44,1.341-5.897,1.442-6.169-2.224C39.295,18.314,39.478,16.932,40.03,15.807z M34.959,23.571
		c0.311,0.092,0.564,0.28,0.82,0.467c-0.271,0.15-0.527,0.33-0.756,0.533c-0.106,0.094,0.038,0.286,0.153,0.199
		c0.298-0.225,0.609-0.38,0.933-0.506c0.012,0.007,0.023,0.016,0.034,0.023c0.109,0.066,0.212-0.017,0.231-0.117
		c0.204-0.068,0.412-0.132,0.628-0.193c0.166-0.047,0.139-0.316-0.042-0.307c-0.284,0.014-0.553,0.092-0.813,0.195
		c-0.014-0.013-0.032-0.023-0.047-0.036c-0.16-0.247-0.299-0.676-0.089-0.917c0.372-0.426,0.985-0.342,1.235,0.152
		c0.099,0.197,0.431,0.06,0.359-0.151c-0.169-0.5,0.239-1.082,0.84-0.966c0.451,0.087,0.7,0.613,0.728,1.018
		c0.021,0.291,0.445,0.296,0.457,0c0.013-0.309,0.124-0.549,0.272-0.784c0.478,0.476,1.061,0.801,1.707,0.954
		c-0.444,0.15-0.75,0.737-0.67,1.216c0.039,0.236,0.325,0.838,0.667,1.18c-0.342-0.105-0.736-0.071-1.021,0.134
		c-0.004,0.003-0.006,0.008-0.01,0.011c-0.136-0.454-0.26-1.342-0.709-1.538c-0.286-0.125-0.754,0.029-1.039,0.066
		c-0.415,0.054-0.83,0.105-1.243,0.169c-0.059-0.069-0.118-0.139-0.176-0.208c-0.065-0.095-0.211-0.06-0.217,0.059
		c-0.028,0.588-0.014,1.181-0.068,1.767c-0.009,0.1,0.093,0.19,0.188,0.188c0.985-0.023,1.971-0.09,2.954-0.151
		c-0.162,0.292-0.181,0.644-0.086,0.97c-0.46,0.014-1.012,0.203-1.082,0.658c-0.093,0.602,0.757,1.103,1.256,1.205
		c-0.717,0.279-1.348,0.7-1.79,1.265c-0.084-0.278-0.296-0.524-0.58-0.612c-0.341-0.105-0.652,0.024-0.862,0.256
		c-0.214-0.371-0.599-0.634-1.064-0.591c-0.202,0.019-0.376,0.094-0.523,0.2c-0.063-0.291-0.213-0.563-0.483-0.73
		c-0.445-0.275-0.962-0.173-1.334,0.125c0.004-0.515-0.072-1.041-0.443-1.418c-0.306-0.312-0.718-0.429-1.115-0.325
		c0.905-0.83,1.507-1.956,1.639-3.184C34.066,23.53,34.546,23.449,34.959,23.571z M40.095,25.595
		c-0.868,0.054-1.739,0.109-2.604,0.192c-0.028-0.388-0.04-0.777-0.052-1.166c0.019,0.099,0.087,0.188,0.203,0.175
		c0.558-0.061,1.225-0.274,1.782-0.229C39.853,24.602,39.98,25.154,40.095,25.595z M26.704,27.038
		c0.002-0.013,0.012-0.021,0.011-0.036c-0.001-0.02-0.009-0.038-0.011-0.057c0.803-1.132,1.061-3.358,1.434-4.79
		c0.193-0.738,0.292-2.182,0.786-2.774c0.868-1.041,2.449,0.253,3.041,0.878c1.49,1.573,1.667,3.982,0.425,5.765
		c-1.345,1.932-3.723,2.266-5.786,1.463c0.035-0.147,0.07-0.293,0.104-0.44C26.71,27.043,26.705,27.042,26.704,27.038z
		 M18.625,27.43c0.356-0.181,0.787-0.12,1.127,0.067c0.264,0.146,0.407,0.351,0.551,0.581c-0.263,0.076-0.518,0.184-0.745,0.314
		c-0.159,0.092-0.019,0.309,0.14,0.24c0.538-0.233,1.032-0.228,1.599-0.279c0.176-0.016,0.235-0.275,0.044-0.325
		c-0.122-0.032-0.247-0.04-0.372-0.04c0.001-0.022,0.008-0.043-0.003-0.067c-0.204-0.445-0.383-1.022-0.035-1.439
		c0.196-0.235,0.935-0.485,0.972,0.109c0.018,0.278,0.408,0.276,0.431,0c0.052-0.65,0.856-1.163,1.399-0.667
		c0.37,0.338,0.299,0.771,0.183,1.192c-0.013,0.046-0.006,0.091,0.012,0.13c-0.209-0.032-0.419-0.054-0.616-0.068
		c-0.111-0.008-0.163,0.169-0.059,0.216c0.469,0.211,1.029,0.442,1.547,0.437c0.155-0.001,0.222-0.22,0.081-0.298
		c-0.125-0.069-0.274-0.105-0.417-0.148c0.004-0.013,0.016-0.02,0.017-0.036c0.034-0.483,0.403-0.961,0.922-0.963
		c0.469-0.002,0.703,0.343,0.934,0.69c-0.027,0.174-0.066,0.348-0.087,0.522c-0.064,0.122-0.06,0.284,0.086,0.354
		c0.52,0.249,1.045,0.393,1.565,0.464c-0.132,0.188-0.224,0.405-0.248,0.561c-0.074,0.493,0.151,0.904,0.467,1.249
		c-0.363,0.141-0.685,0.426-0.805,0.77c-0.246,0.705,0.213,1.475,0.921,1.649c-0.441,0.473-0.292,1.178,0.021,1.733
		c-0.789,0.125-1.463,0.888-1.174,1.729c0.153,0.444,0.524,0.723,0.942,0.82c-0.704,0.237-1.343,0.792-1.051,1.579
		c0.389,1.048,1.897,1.445,2.905,1.358c-0.597,0.631-1.039,1.405-1.221,2.287c-0.026-0.149-0.211-0.265-0.352-0.126
		c-0.482,0.473-1.393,0.403-1.488-0.454c-0.021-0.184-0.29-0.313-0.39-0.106c-0.172,0.354-0.399,0.617-0.78,0.749
		c-0.531,0.184-1.242-0.087-1.073-0.721c0.309,0.192,0.667,0.271,0.99,0.075c0.107-0.065,0.105-0.271-0.038-0.292
		c-0.411-0.062-0.768-0.066-1.056-0.27c-0.017-0.077-0.072-0.122-0.142-0.126c-0.071-0.076-0.138-0.164-0.198-0.282
		c-0.066-0.131-0.293-0.04-0.241,0.102c0.045,0.121,0.12,0.244,0.208,0.363c-0.058,0.087-0.114,0.173-0.172,0.262
		c-0.266,0.405-1.006,0.731-1.167,0.076c-0.14-0.572,0.347-1.077,0.725-1.452c0.189-0.188-0.051-0.487-0.28-0.363
		c-0.171,0.092-0.651,0.387-0.846,0.299c-0.371-0.168-0.309-0.726-0.197-1.005c0.094-0.235,0.166-0.459,0.213-0.7
		c0.315-0.322,0.466-0.824,0.397-1.278c0.107,0.392,0.228,0.779,0.371,1.161c0.012,0.033,0.035,0.053,0.06,0.066
		c-0.094,0.044-0.099,0.198-0.01,0.261c0.375,0.267,0.857,0.302,1.308,0.315c0.126,0.004,0.228-0.13,0.191-0.25
		c-0.251-0.803-0.258-1.6-0.022-2.408c0.029-0.101-0.036-0.194-0.129-0.227c-0.616-0.217-1.241-0.35-1.892-0.394
		c-0.12-0.008-0.184,0.116-0.165,0.217c0.072,0.385,0.16,0.764,0.259,1.141c-0.093-0.245-0.465-0.121-0.428,0.152
		c0.054,0.39-0.095,0.884-0.493,1.044c-0.423,0.171-0.939-0.192-0.886-0.639c0.049-0.1,0.086-0.206,0.097-0.323
		c0.019-0.213-0.298-0.284-0.395-0.107c-0.009,0.017-0.011,0.035-0.02,0.051c-0.001,0-0.001,0-0.002-0.001
		c-0.091,0.435-0.652,0.669-0.998,0.331c-0.28-0.274-0.237-0.692-0.072-1.014c0.153,0.042,0.308,0.068,0.464,0.046
		c0.141-0.019,0.163-0.247,0.04-0.305c-0.231-0.11-0.48-0.151-0.714-0.254c-0.261-0.114-0.497-0.278-0.735-0.435
		c-0.096-0.063-0.215,0.061-0.156,0.156c0.118,0.191,0.294,0.359,0.489,0.502c-0.41,0.653-1.342,0.379-1.567-0.397
		c-0.152-0.524-0.012-0.966,0.216-1.458c0.082-0.178-0.123-0.356-0.277-0.214c-0.569,0.524-1.389,0.049-1.446-0.67
		c-0.026-0.325,0.126-0.664,0.321-0.945c0.319,0.08,0.654,0.091,0.974-0.001c0.89-0.257,1.437-1.233,1.289-2.132
		c-0.039-0.235-0.127-0.431-0.239-0.607c0.047-0.024,0.078-0.075,0.039-0.126C17.795,28.845,17.922,27.788,18.625,27.43z
		 M24.247,38.272c-0.307-0.043-0.606-0.112-0.914-0.15c0.04-0.024,0.07-0.064,0.051-0.126c-0.217-0.722-0.391-1.451-0.52-2.193
		c0.483,0.061,0.949,0.167,1.41,0.322C24.087,36.84,24.08,37.556,24.247,38.272z M15.746,28.793
		c0.007,0.003,0.009,0.011,0.017,0.013c0.745,0.168,1.751,0.296,2.15,1.048c0.374,0.706,0.011,1.706-0.726,2.005
		c-0.236,0.096-0.487,0.115-0.733,0.084c0.046-0.119-0.098-0.243-0.214-0.143c-0.028,0.024-0.054,0.053-0.082,0.079
		c-0.433-0.138-0.819-0.442-1.019-0.855C14.755,30.231,15.119,29.331,15.746,28.793z M14.469,43.803
		c-0.086-0.103-0.211-0.022-0.231,0.084c-0.081-0.015-0.17,0.042-0.182,0.14c-0.068,0.559-0.212,1.289-0.951,1.248
		c-0.991-0.054-0.939-1.102-0.741-1.803c0.065-0.228-0.205-0.338-0.364-0.212c-0.849,0.669-1.637-0.08-1.435-0.927
		c0.363,0.203,0.799,0.283,1.14,0.131c0.118-0.053,0.087-0.256-0.036-0.28c-0.275-0.053-0.547-0.038-0.812-0.142
		c-0.072-0.028-0.123-0.077-0.185-0.115c-0.018-0.028-0.045-0.049-0.08-0.05c-0.164-0.118-0.314-0.252-0.475-0.39
		c-0.087-0.074-0.233-0.005-0.2,0.116c0.034,0.124,0.103,0.239,0.186,0.346c-0.735,0.441-1.983,0.751-1.573-0.839
		c0.144-0.558,0.544-1.019,0.694-1.587c0.045-0.17-0.154-0.347-0.313-0.24c-0.907,0.61-1.771-0.462-1.134-1.316
		C8.386,37.861,8.781,37.226,9,36.606c0.057,0.065,0.129,0.125,0.22,0.18c0.402,0.446,1.073,0.632,1.627,0.295
		c0.336-0.205,0.54-0.593,0.579-0.989c0.065,0.047,0.125,0.099,0.206,0.132c0.262,0.106,0.574,0.091,0.838-0.02
		c-0.428,2.111,0.362,4.367,2.15,5.748c0.399,0.308,0.88,0.561,1.399,0.744c-0.013,0.044-0.012,0.097,0.015,0.153
		c0.211,0.442,0.129,1.039-0.343,1.283C15.266,44.353,14.757,44.149,14.469,43.803z M33.667,47.857
		c0.002,0.238,0.39,0.31,0.432,0.058c0.019-0.117,0.028-0.238,0.046-0.356c0.179,0.158,0.317,0.336,0.286,0.634
		c-0.062,0.591-0.813,0.75-1.225,0.416c-0.059-0.048-0.127-0.033-0.173,0.003c-0.073-0.062-0.159-0.112-0.264-0.142
		c-0.093-0.028-0.194,0.066-0.162,0.162c0.119,0.362,0.361,0.652,0.231,1.066c-0.257,0.825-1.387,0.597-1.576-0.144
		c-0.051-0.2-0.298-0.197-0.404-0.053c-0.405,0.55-1.138,0.632-1.662,0.273c-0.001-0.005-0.001-0.009-0.003-0.014
		c0.341-0.141,0.624-0.369,0.738-0.712c0.043-0.128-0.108-0.22-0.214-0.165c-0.269,0.14-0.479,0.343-0.74,0.491
		c-0.002-0.002-0.002-0.004-0.004-0.006c-0.092-0.101-0.225,0.002-0.216,0.115c-0.354,0.124-0.721,0.15-1.09,0.07
		c-0.202-0.044-0.288,0.257-0.086,0.312c0.337,0.092,0.791,0.104,1.215,0.015c0.02,0.446-0.077,0.897-0.503,1.158
		c-0.762,0.468-1.584-0.335-1.543-1.105c0.013-0.253-0.308-0.284-0.432-0.117c-0.667,0.896-1.756,0.156-1.637-0.753
		c0.022-0.014,0.047-0.019,0.069-0.034c0.474-0.342,0.836-1.524,0.132-1.826c-0.108-0.046-0.262,0.004-0.254,0.146
		c0.024,0.408,0.264,0.73-0.003,1.131c-0.325,0.488-1.053,0.402-1.384-0.029c-0.133-0.173-0.426-0.021-0.304,0.177
		c0.01,0.016,0.024,0.029,0.034,0.045c0.011,0.411-0.036,0.754-0.375,1.055c-0.734,0.651-1.778,0.011-1.644-0.955
		c0.029-0.207-0.239-0.363-0.362-0.152c-0.624,1.072-2.098,0.676-2.034-0.612c0-0.002-0.002-0.003-0.002-0.006
		c0.364,0.152,0.761,0.213,1.136,0.071c0.164-0.062,0.155-0.331-0.044-0.325c-0.414,0.013-0.783,0.007-1.135-0.131
		c-0.043-0.072-0.119-0.11-0.195-0.1c-0.075-0.042-0.15-0.076-0.224-0.134c-0.146-0.114-0.353,0.078-0.209,0.209
		c0.078,0.07,0.17,0.129,0.259,0.191c-0.16,0.499-0.636,0.963-1.215,0.783c-0.773-0.24-0.774-1.246-0.403-1.789
		c0.159-0.232-0.173-0.431-0.362-0.279c-0.693-0.247-0.925-0.585-0.695-1.015c0.04-0.144,0.106-0.275,0.197-0.395
		c0.236-0.361,0.565-0.622,0.997-0.701c0.104-0.019,0.081-0.2-0.025-0.186c-0.133,0.017-0.264,0.048-0.393,0.087
		c0.368-0.386,0.476-0.992,0.23-1.468c0.382,0.101,0.773,0.178,1.165,0.199c-0.709,1.833,1.456,3.649,3.152,2.501
		c0.723-0.489,1.133-1.402,0.861-2.257c-0.174-0.546-0.616-1.024-1.152-1.224c0.347-0.378,0.603-0.868,0.713-1.497
		c0.034-0.195-0.241-0.35-0.344-0.145c-1.401,2.778-4.677,2.545-6.625,0.412c-1.586-1.737-1.642-4.073-0.855-6.165
		c2.168,2.243,4.734,4.068,7.441,5.601c0.256,0.145,0.487-0.25,0.231-0.395c-2.752-1.55-5.221-3.438-7.625-5.478
		c-0.043-0.037-0.09-0.03-0.128-0.01c-0.06-0.012-0.127-0.001-0.163,0.06c-0.229,0.381-0.391,0.781-0.521,1.189
		c-0.206,0.135-0.4,0.281-0.668,0.264c-0.371-0.025-0.625-0.323-0.703-0.663c0.169-0.047,0.33-0.127,0.466-0.276
		c0.1-0.11-0.026-0.288-0.162-0.21c-0.146,0.084-0.29,0.143-0.438,0.178c-0.033-0.006-0.063,0.002-0.087,0.022
		c-0.169,0.027-0.343,0.014-0.529-0.053c-0.155-0.057-0.267,0.202-0.114,0.27c0.141,0.062,0.285,0.096,0.428,0.113
		c0.002,0.006-0.001,0.011,0.003,0.017c0.252,0.461,0.325,1.12-0.179,1.458c-0.43,0.289-0.995,0.097-1.287-0.283
		c-0.064-0.143-0.127-0.286-0.191-0.429c0.033-0.197-0.242-0.282-0.305-0.084c-0.095,0.321-0.207,0.637-0.337,0.946
		c-0.365,0.775-0.777,0.896-1.238,0.363c-0.549-0.172-0.706-0.551-0.47-1.136c0.051-0.216,0.112-0.429,0.184-0.639
		c0.046-0.147-0.101-0.273-0.24-0.24c-0.374-0.245-0.747-0.491-1.121-0.736c-0.047-0.414,0.03-0.785,0.234-1.112
		c0.157-0.302,0.408-0.592,0.617-0.848c0.056-0.069-0.012-0.188-0.095-0.148c-0.029-0.078-0.102-0.138-0.201-0.11
		c-0.702,0.198-1.013-0.544-0.575-1.054c0.241-0.281,0.623-0.419,0.962-0.527c0.19-0.061,0.227-0.383,0-0.424
		c-0.877-0.157-0.818-1.26,0.083-1.384c0.102-0.014,0.11-0.123,0.064-0.195c0.01-0.012,0.022-0.018,0.031-0.031
		c0.167,0.263,0.369,0.499,0.624,0.661c0.13,0.082,0.314-0.087,0.219-0.219c-0.355-0.494-0.753-0.884-0.987-1.463
		c-0.071-0.176-0.355-0.108-0.292,0.08c0.069,0.203,0.158,0.413,0.259,0.618c-0.512,0.155-1.065-0.088-1.12-0.646
		c-0.064-0.639,0.459-1.081,0.931-1.418c0.125-0.089,0.161-0.255,0.048-0.374c-0.662-0.694-0.322-1.615,0.571-1.855
		c0.011-0.003,0.014-0.014,0.023-0.018c0.538,0.272,1.203,0.22,1.755-0.086C8.145,25.154,8.008,26.615,8.642,28
		c0.025,0.056,0.072,0.064,0.116,0.052c0.008,0.067,0.048,0.138,0.111,0.147c0.044,0.007,0.087,0.014,0.131,0.021
		c0.044,0.007,0.1-0.004,0.122-0.049c0.014-0.03,0.028-0.059,0.043-0.089c0.025-0.052-0.005-0.107-0.047-0.131
		c0.478-0.042,2.563-0.062,2.84-0.101c0.266-0.037,0.53-0.084,0.795-0.127c-0.451,0.515-0.813,1.197-0.279,1.8
		c0.24,0.271,0.543,0.323,0.822,0.241c-0.012,0.131,0.001,0.267,0.055,0.403c0.192,0.481,0.842,0.755,1.288,0.468
		c0.02,0.152,0.051,0.304,0.109,0.453c0.195,0.501,0.619,0.895,1.117,1.108c-0.428,0.548-0.651,1.272-0.177,1.888
		c0.331,0.429,0.902,0.593,1.375,0.431c-0.256,0.833-0.232,1.812,0.663,2.248c0.596,0.291,1.358,0.019,1.553-0.574
		c0.003,0.001,0.007,0.002,0.01,0.003c-0.306,0.525-0.299,1.278,0.303,1.598c0.328,0.174,0.696,0.13,0.98-0.046
		c0.138,0.419,0.517,0.761,1.002,0.77c0.142,0.003,0.268-0.028,0.388-0.072c-0.277,0.511-0.636,1.089-0.26,1.583
		c0.231,0.304,0.57,0.351,0.91,0.288C22.22,40.92,22,41.647,22.667,42.176c0.584,0.464,1.203,0.091,1.551-0.447
		c-0.148,1.072,1.652,1.273,2.361,0.362c0.405,0.731,1.37,0.941,2.03,0.234c0.03-0.032,0.031-0.068,0.038-0.103
		c-0.029,0.152-0.052,0.305-0.065,0.463c-0.229,2.733,2.04,5.136,4.711,5.277c0.179,0.009,0.224-0.286,0.043-0.318
		c-2.365-0.41-4.402-2.388-4.187-4.921c0.209-2.464,2.527-4.107,4.889-4.005c0,0.001-0.001,0.002,0,0.003
		c0.058,0.233,0.173,0.439,0.31,0.625C34.02,42.156,33.643,45.04,33.667,47.857z M20.527,44.122
		c-0.184,0.254-0.46,0.416-0.749,0.458c0.048-0.121,0.105-0.239,0.134-0.365c0.03-0.132-0.141-0.203-0.215-0.091
		c-0.094,0.141-0.16,0.3-0.226,0.459c-0.133-0.028-0.264-0.088-0.384-0.187c-0.122-0.101-0.298,0.068-0.177,0.177
		c0.133,0.12,0.291,0.202,0.457,0.252c-0.061,0.166-0.119,0.334-0.18,0.495c-0.013,0.035-0.004,0.064,0.014,0.089
		c-0.908-0.243-1.529-1.342-1.327-2.377c0.842,0.007,1.649-0.197,2.268-0.663c0.496,0.173,0.92,0.46,1.089,1.014
		c0.209,0.682-0.17,1.433-0.753,1.798c-0.39,0.244-0.771,0.314-1.118,0.262c0.015-0.009,0.031-0.015,0.04-0.034
		c0.084-0.175,0.177-0.352,0.263-0.53c0.456,0.026,0.916-0.193,1.097-0.659C20.814,44.076,20.604,44.015,20.527,44.122z
		 M46.285,33.336c-0.554,1.92-2.442,0.774-3.809,0.369c-1.476-0.437-2.957-0.853-4.449-1.231c-0.185-0.047-0.251,0.217-0.078,0.281
		c1.064,0.397,2.137,0.768,3.214,1.13c-0.038,0.019-0.072,0.047-0.089,0.093c-0.071,0.189-0.238,0.38-0.427,0.429
		c-0.158-0.101-0.338-0.169-0.528-0.185c-0.202-0.017-0.282,0.25-0.158,0.381c0.122,0.129,0.294,0.2,0.476,0.223
		c0.214,0.2,0.294,0.545,0.072,0.773c-0.195,0.2-0.482,0.213-0.725,0.112c-0.025-0.039-0.043-0.08-0.074-0.117
		c-0.169-0.205-0.466,0.056-0.353,0.273c0.409,0.786-0.478,1.402-1.193,1.244c-0.56-0.124-1.009-0.564-1.393-0.96
		c-0.177-0.182-0.515,0.061-0.361,0.278c0.048,0.679-0.161,1.012-0.63,0.998c-0.037,0.007-0.076-0.001-0.113,0.003
		c0.018-0.167,0.011-0.335-0.063-0.493c-0.06-0.128-0.259-0.087-0.292,0.038c-0.107,0.396-0.116,0.798-0.251,1.197
		c-0.032,0.094,0.087,0.137,0.15,0.087c0.063-0.05,0.114-0.115,0.168-0.177c0.046,0.036,0.102,0.058,0.171,0.035
		c0.897-0.301,1.298,0.893,0.514,1.355c-0.479,0.282-0.96,0.098-1.319-0.241c0.007-0.178,0.014-0.359,0.021-0.536
		c0.009-0.224-0.317-0.213-0.341,0c-0.005,0.041-0.01,0.082-0.014,0.123c-0.033-0.055-0.063-0.11-0.09-0.166
		c0.138-0.135,0.079-0.443-0.178-0.462c-1.477-0.107-2.951,0.453-4.016,1.439c-0.015-0.068-0.06-0.127-0.156-0.124
		c-0.807,0.029-1.597-0.204-2.208-0.748c-0.374-0.334-0.476-0.769-0.069-1.136c0.272-0.246,0.659-0.29,1.004-0.39
		c0.085,0.186,0.178,0.368,0.267,0.548c0.08,0.161,0.351,0.049,0.292-0.123c-0.094-0.275-0.196-0.555-0.317-0.824
		c0.03-0.015,0.063-0.023,0.092-0.04c0.119-0.068,0.039-0.282-0.096-0.228c-0.037,0.015-0.076,0.019-0.114,0.03
		c-0.027-0.047-0.043-0.101-0.072-0.146c-0.098-0.15-0.323-0.055-0.286,0.12c0.006,0.027,0.018,0.053,0.027,0.079
		c-0.275,0.007-0.547-0.072-0.766-0.279c-0.695-0.656-0.008-1.694,0.867-1.575c0.158,0.022,0.376-0.148,0.245-0.319
		c-0.171-0.223-0.303-0.409-0.357-0.696c-0.118-0.201-0.104-0.394,0.041-0.578c0.092-0.474,0.392-0.479,0.885-0.049
		c0.05,0.087,0.095,0.178,0.174,0.245c0.009,0.007,0.018,0.004,0.026,0.009c-0.124,0.056-0.246,0.114-0.37,0.169
		c-0.132,0.059-0.038,0.283,0.099,0.235c0.293-0.104,0.595-0.189,0.865-0.345c0.129-0.075,0.042-0.272-0.1-0.238
		c-0.099,0.024-0.192,0.064-0.286,0.1c0.01-0.032,0.004-0.064-0.014-0.1c0.001-0.004,0.005-0.005,0.005-0.01
		c0.034-0.24-0.041-0.444-0.171-0.6c0.035-0.19,0.154-0.355,0.373-0.408c0.349-0.084,0.534,0.206,0.756,0.397
		c0.075,0.064,0.169,0.049,0.222-0.013c-0.046,1.749,1.73,3.885,3.497,3.222c2.495-0.937-0.043-5.679-2.318-4.891
		c-0.018-0.045-0.066-0.077-0.125-0.048c-0.627,0.317-0.944,0.834-1.035,1.418c-0.139-0.48-0.916-0.639-1.316-0.404
		c-0.196,0.115-0.301,0.299-0.364,0.497c-0.254-0.111-0.565-0.112-0.837,0.055c-0.02,0.012-0.032,0.028-0.051,0.04
		c-0.008-0.05-0.032-0.097-0.094-0.12c-0.49-0.186-0.859-0.775-0.606-1.287c0.172-0.348,0.456-0.455,0.774-0.483
		c0.06,0.05,0.121,0.099,0.181,0.145c0.046,0.035,0.087,0.023,0.122-0.002c0.042,0.229,0.091,0.458,0.168,0.66
		c0.067,0.178,0.331,0.111,0.288-0.08c-0.124-0.554-0.099-1.072-0.136-1.629c-0.012-0.174-0.258-0.219-0.311-0.042
		c-0.048,0.159-0.066,0.328-0.071,0.5c-0.074-0.016-0.151,0.001-0.227,0.003c-0.228-0.288-0.435-0.608-0.433-0.957
		c0.002-0.219,0.099-0.469,0.277-0.603c0.077-0.058,0.157-0.091,0.236-0.129c1.214-0.005,2.354-0.454,3.263-1.175
		c0.032,0.073,0.114,0.128,0.208,0.084c1.208-0.567,1.303,1.28,1.243,1.972c-0.016,0.184,0.275,0.264,0.354,0.096
		c0.199-0.424,0.738-0.707,1.177-0.431c0.456,0.287,0.366,0.879,0.1,1.244c-0.012,0.016-0.004,0.031-0.01,0.047
		c-0.276-0.082-0.568-0.111-0.806-0.088c-0.177,0.017-0.184,0.284,0,0.281c0.312-0.004,0.603,0.06,0.873,0.219
		c0.212,0.125,0.333,0.328,0.54,0.452c0.115,0.069,0.27-0.046,0.23-0.177c-0.067-0.218-0.23-0.379-0.428-0.502
		c-0.001-0.062,0.01-0.115,0.019-0.17c0.086-0.131,0.149-0.27,0.179-0.422c0.422-0.461,1.339-0.303,1.314,0.564
		c0.003,0.29,0.446,0.29,0.45,0c0.073-0.515,0.332-0.616,0.776-0.302c0.064,0.163,0.073,0.324,0.027,0.485
		c-0.015,0.077,0.014,0.134,0.055,0.178c-0.174,0.4-0.278,0.844-0.272,1.342c0.003,0.295,0.445,0.293,0.457,0
		C38.539,27.494,47.76,28.223,46.285,33.336z M31.733,31.425c0.021,0.004,0.04,0.012,0.066,0.004
		c1.046-0.317,1.945,0.056,2.542,0.949c0.588,0.879,1.263,2.588-0.166,3.029C32.303,35.985,30.632,32.915,31.733,31.425z"/>
</g>
<g>
</g>
<g>
</g>
<g>
</g>
<g>
</g>
<g>
</g>
<g>
</g>
<g>
</g>
<g>
</g>
<g>
</g>
<g>
</g>
<g>
</g>
<g>
</g>
<g>
</g>
<g>
</g>
<g>
</g>
</svg>
