<?xml version="1.0" encoding="iso-8859-1"?>
<!-- Generator: Adobe Illustrator 18.0.0, SVG Export Plug-In . SVG Version: 6.00 Build 0)  -->
<!DOCTYPE svg PUBLIC "-//W3C//DTD SVG 1.1//EN" "http://www.w3.org/Graphics/SVG/1.1/DTD/svg11.dtd">
<svg version="1.1" id="Capa_1" xmlns="http://www.w3.org/2000/svg" xmlns:xlink="http://www.w3.org/1999/xlink" x="0px" y="0px"
	 viewBox="0 0 44.839 44.839" style="enable-background:new 0 0 44.839 44.839;" xml:space="preserve">
<g>
	<path style="fill:#1D1D1B;" d="M35.452,5.298c0.502-1.843,0.249-3.517-1.314-4.723c-0.063-0.048-0.128-0.034-0.186-0.002
		c-3.619-2.697-5.196,4.71-5.89,9.75c-0.04-0.044-0.097-0.076-0.176-0.083C21.8,9.709,14.291,9.615,9.601,14.131
		c-0.059-0.029-0.13-0.03-0.19,0.004c-0.074,0.002-0.124,0.078-0.108,0.155c-0.001,0.005-0.005,0.006-0.005,0.011
		c-0.17,1.486-0.187,3.36,0.175,4.816c0.017,0.068,0.054,0.11,0.1,0.135c-0.083,0.047-0.129,0.173-0.053,0.261
		c0.004,0.005,0.008,0.008,0.012,0.013c-0.703,6.776-0.241,13.97-0.051,20.775c0.001,0.041,0.026,0.063,0.042,0.093
		c-0.084,0.058-0.13,0.187-0.046,0.278c6.078,6.586,18.262,4.434,24.851-0.041c0.217-0.147,0.16-0.425-0.001-0.54
		c0.003-0.016,0.017-0.022,0.017-0.039c0.183-7.482,0.465-15.014,0.434-22.497c0-0.086-0.049-0.129-0.106-0.153
		c0.031-0.829,0.036-1.658-0.002-2.487c-0.008-0.173-0.118-1.439-0.235-1.985c0.048-0.065,0.108-0.122,0.154-0.188
		c0.181-0.262-0.119-0.5-0.364-0.426c-0.532-0.29-1.083-0.471-1.678-0.555C33.724,9.691,34.858,7.476,35.452,5.298z M34.465,1.502
		c2.407,3.17-1.984,9.298-3.477,12.323c-0.04-0.042-0.097-0.063-0.162-0.015c-0.05,0.036-0.104,0.064-0.158,0.093
		c-0.021,0.001-0.042,0.006-0.063,0.013c1.416-2.886,2.754-5.885,3.73-8.948C34.741,3.691,34.983,2.512,34.465,1.502z M29.274,7.489
		c0.356-1.763,0.938-8.467,4.379-6.503c1.257,1.95-0.168,4.656-0.92,6.619c-0.82,2.141-1.74,4.24-2.69,6.325
		c-0.033,0.072-0.031,0.142-0.008,0.202c-0.647,0.112-1.35-0.085-1.773-0.601c-0.043-0.052-0.098-0.07-0.154-0.075
		C28.506,11.469,28.873,9.475,29.274,7.489z M19.458,10.9c2.807-0.162,5.628,0.112,8.428-0.163c0.057-0.006,0.092-0.035,0.129-0.062
		c-0.101,0.763-0.182,1.464-0.247,2.053c-0.021-0.008-0.045-0.012-0.074-0.005c-1.158,0.301-0.981,1.886-0.192,2.487
		c1.058,0.806,2.361,0.313,3.183-0.555c0.094-0.045,0.19-0.084,0.28-0.142c0.148-0.096,0.161-0.253,0.103-0.374
		c0.047,0.006,0.094-0.007,0.128-0.064c0.349-0.59,0.711-1.203,1.073-1.829c0.002,0.001,0.004,0.003,0.006,0.003
		c0.52,0.117,1.016,0.29,1.489,0.531c-5.395,6.851-17.22,5.894-23.904,1.603C12.929,12.381,15.757,11.113,19.458,10.9z
		 M9.824,16.681c-0.027-0.631-0.038-1.264-0.078-1.894c5.717,5.703,18.984,4.823,24.206-1.268c0.026,0.534,0.137,1.146,0.143,1.397
		c0.024,0.911,0.012,1.821-0.009,2.732c-0.029,0.008-0.059,0.017-0.089,0.038c-6.901,4.801-16.986,6.707-24.267,1.579
		c0.091-0.024,0.175-0.095,0.184-0.207C9.978,18.276,9.857,17.464,9.824,16.681z M33.829,40.051c0.001,0.05,0.03,0.077,0.05,0.112
		C26.635,44.697,17.032,45.7,9.826,40.48c0.06-0.035,0.108-0.088,0.11-0.179c0.142-6.72,0.544-13.823-0.166-20.522
		c5.909,6.312,18.59,2.581,24.523-1.587c0.034-0.024,0.05-0.056,0.069-0.086C33.708,25.35,33.649,32.788,33.829,40.051z"/>
</g>
<g>
</g>
<g>
</g>
<g>
</g>
<g>
</g>
<g>
</g>
<g>
</g>
<g>
</g>
<g>
</g>
<g>
</g>
<g>
</g>
<g>
</g>
<g>
</g>
<g>
</g>
<g>
</g>
<g>
</g>
</svg>
