<?xml version="1.0" encoding="iso-8859-1"?>
<!-- Generator: Adobe Illustrator 18.0.0, SVG Export Plug-In . SVG Version: 6.00 Build 0)  -->
<!DOCTYPE svg PUBLIC "-//W3C//DTD SVG 1.1//EN" "http://www.w3.org/Graphics/SVG/1.1/DTD/svg11.dtd">
<svg version="1.1" id="Capa_1" xmlns="http://www.w3.org/2000/svg" xmlns:xlink="http://www.w3.org/1999/xlink" x="0px" y="0px"
	 viewBox="0 0 61.34 61.34" style="enable-background:new 0 0 61.34 61.34;" xml:space="preserve">
<g>
	<path style="fill:#1D1D1B;" d="M57.675,48.422c-8.936,0.371-17.871,0.747-26.807,1.126c-4.302,0.182-8.605,0.364-12.907,0.547
		c-4.254,0.181-9.528,1.155-13.282-1.285c-0.031-4.596-0.202-9.115,0.026-13.716c7.957-2.41,17.131-1.871,25.353-2.051
		c8.835-0.194,17.661-0.088,26.496,0.027c-0.033,0.014-0.064,0.04-0.065,0.081c-0.028,2.408,0.681,4.799,0.826,7.215
		c0.147,2.445-0.058,4.856-0.132,7.298c-0.01,0.345,0.551,0.435,0.615,0.083c0.788-4.334,0.928-10.616-1.135-14.643
		c-0.017-0.034-0.051-0.035-0.082-0.033c0.032,0,0.065,0.001,0.097,0.001c0.454,0.006,0.451-0.687,0-0.703
		c-9.521-0.347-19.069-0.288-28.592-0.045c-7.552,0.193-16.148-0.389-23.366,2.329c0.001-0.015,0.001-0.03,0.002-0.045
		c0.012-0.222-0.358-0.278-0.394-0.053c-0.013,0.085-0.024,0.173-0.037,0.258c-0.061,0.025-0.125,0.045-0.186,0.069
		c-0.216,0.088-0.135,0.435,0.099,0.359c0.009-0.003,0.018-0.005,0.027-0.008c-0.638,4.352-0.859,9.038-0.172,13.389
		c-0.046,0.072-0.058,0.169,0.013,0.239c0.009,0.009,0.017,0.015,0.026,0.023c0.019,0.112,0.03,0.228,0.05,0.34
		c0.041,0.229,0.32,0.243,0.458,0.11c1.744,1.454,3.592,1.73,5.985,1.797c5.071,0.141,10.245-0.394,15.313-0.604
		c10.59-0.439,21.181-0.88,31.771-1.329C58.173,49.178,58.176,48.401,57.675,48.422z"/>
	<path style="fill:#1D1D1B;" d="M60.681,48.817c-0.006,0.021-0.015,0.04-0.021,0.06c0.597-5.247,0.519-10.513,0.078-15.773
		c-0.031-0.369-0.542-0.417-0.645-0.139c-0.002-0.005-0.001-0.01-0.004-0.015c-0.587-1.314-1.531-2.22-2.674-2.859
		C48.673,24.53,39.922,19.164,33.661,10.84c0.41-1.547-0.368-3.152-2.055-3.537c-1.592-0.363-3.818,0.478-4.044,2.283
		c-0.011,0.09,0.048,0.143,0.122,0.176c-8.746,6.9-17.091,14.548-24.925,22.448c-0.047,0.048-0.037,0.103-0.007,0.144
		c-0.113,0.103-0.236,0.198-0.34,0.309c-4.063,4.332-2.019,13.188-0.847,18.307c-0.099-0.114-0.295,0.008-0.221,0.159
		c1.629,3.301,5.251,3.013,8.479,2.96c6.967-0.115,13.934-0.316,20.9-0.474c7.284-0.165,14.568-0.317,21.85-0.502
		c3.637-0.092,7.744,0.092,8.756-4.119C61.43,48.576,60.795,48.399,60.681,48.817z M29.643,8.111
		c-0.234,0.054-0.433,0.146-0.626,0.244c0.499-0.38,1.114-0.591,1.847-0.57c1.372,0.039,2.421,1.049,2.306,2.409
		c-0.321-0.445-0.63-0.906-0.937-1.368c0.021-0.059,0.05-0.114,0.068-0.174c0.051-0.174-0.175-0.26-0.28-0.136
		c-0.025-0.039-0.053-0.075-0.078-0.115c-0.089-0.138-0.307-0.013-0.222,0.13c0.045,0.075,0.095,0.147,0.14,0.222
		c-0.407,0.637-0.77,1.266-1.323,1.809c-0.031-0.022-0.064-0.043-0.095-0.065c-0.609-0.435-1.221-0.868-1.832-1.3
		c0.252-0.341,0.616-0.621,1.116-0.778C29.925,8.358,29.844,8.065,29.643,8.111z M30.876,10.796c0.52-0.48,0.954-1.036,1.233-1.65
		c0.318,0.514,0.643,1.022,0.983,1.518c-0.132,0.477-0.387,0.931-0.731,1.302c-0.006-0.01-0.004-0.02-0.013-0.029
		C31.92,11.496,31.391,11.145,30.876,10.796z M32.155,12.168c-0.557,0.5-1.28,0.791-2.043,0.652
		c-0.53-0.097-0.945-0.359-1.262-0.699c0.596-0.263,1.189-0.624,1.72-1.058C31.076,11.466,31.59,11.882,32.155,12.168z
		 M28.326,9.805c0.092-0.082,0.184-0.163,0.275-0.245c0.51,0.388,1.02,0.776,1.532,1.162c0.04,0.03,0.08,0.063,0.121,0.094
		c-0.491,0.424-1.037,0.767-1.626,1.036C28.217,11.249,28.112,10.481,28.326,9.805z M27.691,10.369
		c-0.053,0.59,0.083,1.204,0.418,1.735c-0.094,0.108-0.026,0.308,0.14,0.253c0.011-0.004,0.021-0.009,0.032-0.013
		c0.147,0.186,0.314,0.361,0.518,0.513c1.681,1.257,3.832,0.328,4.664-1.453c0.022-0.048,0.031-0.098,0.051-0.146
		c5.394,7.589,13.169,13.11,21.177,17.837c-2.783-0.623-5.986-0.468-8.388-0.558c-8.993-0.339-18.006-0.132-26.973,0.63
		c-4.057,0.345-11.281-0.106-15.376,2.288C11.822,24.374,19.789,17.411,27.691,10.369z M60.293,49.727
		c-2.541,4.203-13.559,2.811-17.22,2.899c-4.433,0.107-8.867,0.218-13.3,0.327c-4.298,0.106-8.595,0.212-12.893,0.318
		c-3.704,0.091-12.26,1.758-14.984-1.853c0.112-0.03,0.209-0.134,0.183-0.28c-1.2-6.605-3.488-16.725,4.399-19.815
		c2.75-1.077,7.041-0.944,9.973-1.23c2.879-0.281,5.763-0.507,8.65-0.673c5.455-0.315,10.921-0.425,16.384-0.332
		c4.961,0.084,15.503-1.284,18.017,4.208c0.133,0.291,0.475,0.184,0.585-0.047c0.459,5.472,0.395,10.916,0.177,16.399
		C60.262,49.683,60.279,49.704,60.293,49.727z"/>
	<path style="fill:#1D1D1B;" d="M12.942,38.348c-0.031,0.032-0.049,0.066-0.064,0.1c-2.141,0.355-3.614,2.452-3.59,4.597
		c0.027,2.407,2.07,4.009,4.403,3.835c2.524-0.187,4.45-2.127,4.257-4.704C17.788,40.057,15.386,35.789,12.942,38.348z
		 M16.742,44.56c-0.914,1.326-2.771,1.924-4.311,1.566c-4.004-0.93-2.62-6.544,0.767-7.254c0.063-0.005,0.128-0.027,0.187-0.082
		c1.752-1.647,3.275,0.864,3.678,2.268C17.394,42.212,17.45,43.533,16.742,44.56z"/>
	<path style="fill:#1D1D1B;" d="M29.404,39.529c-0.676-3.13-4.958-3.179-7.467-1.912c-0.055-0.422-0.721-0.424-0.688,0.016
		c0.009,0.123,0.022,0.246,0.031,0.369c-0.148,0.104-0.287,0.213-0.411,0.328c-0.123,0.114,0.036,0.32,0.179,0.232
		c0.086-0.053,0.177-0.102,0.267-0.153c0.187,2.405,0.395,4.809,0.615,7.211c0.036,0.396,0.654,0.405,0.626,0
		c-0.064-0.907-0.142-1.813-0.209-2.72c1.572,0.66,3.59,0.972,5.133,0.177C28.725,42.434,29.714,40.965,29.404,39.529z
		 M26.575,42.701c-1.482,0.431-2.866-0.128-4.28-0.467c-0.104-1.386-0.201-2.773-0.32-4.157c2.083-0.926,4.761-1.073,6.294,0.825
		C29.495,40.42,28.229,42.221,26.575,42.701z"/>
	<path style="fill:#1D1D1B;" d="M38.18,41.869c-1.307-0.151-2.708-0.032-4.059,0.051c-0.013-0.095-0.031-0.19-0.041-0.285
		c-0.099-0.924-0.134-1.848-0.144-2.774c1.41,0.054,2.938,0.236,4.316,0.027c0.26-0.039,0.26-0.486,0-0.526
		c-1.38-0.208-2.912-0.026-4.323,0.028c0-0.089-0.005-0.177-0.004-0.265c0.003-0.33-0.492-0.326-0.51,0
		c-0.062,1.162-0.14,2.515-0.064,3.836c-0.057,0.002-0.116,0.007-0.172,0.009c-0.199,0.007-0.199,0.302,0,0.309
		c0.064,0.002,0.131,0.008,0.196,0.011c0.084,1.052,0.273,2.072,0.674,2.941c0.108,0.235,0.451,0.101,0.459-0.124
		c0.03-0.925-0.178-1.852-0.328-2.774c1.332,0.083,2.713,0.196,3.999,0.048C38.51,42.344,38.51,41.907,38.18,41.869z"/>
	<path style="fill:#1D1D1B;" d="M38.195,44.444c-0.651-0.008-1.296,0.259-1.921,0.429c-0.714,0.194-1.43,0.381-2.137,0.597
		c-0.256,0.078-0.149,0.445,0.109,0.397c0.728-0.136,1.451-0.303,2.175-0.462c0.637-0.14,1.319-0.201,1.896-0.512
		C38.532,44.778,38.427,44.447,38.195,44.444z"/>
	<path style="fill:#1D1D1B;" d="M49.513,37.296c-0.548,2.186-0.672,4.552-0.9,6.819c-2.008-2.127-3.742-4.462-5.17-7.023
		c-0.175-0.313-0.675-0.173-0.672,0.182c0.01,1.327,0.023,2.655,0.042,3.982c0.016,1.129-0.099,2.32,0.25,3.402
		c0.037,0.114,0.198,0.116,0.234,0c0.337-1.094,0.204-2.265,0.206-3.402c0.001-0.892-0.004-1.783-0.007-2.674
		c1.455,2.409,3.159,4.634,5.14,6.647c0.246,0.25,0.596,0.039,0.632-0.262c0.298-2.486,0.852-5.089,0.829-7.593
		C50.094,37.045,49.596,36.965,49.513,37.296z"/>
</g>
<g>
</g>
<g>
</g>
<g>
</g>
<g>
</g>
<g>
</g>
<g>
</g>
<g>
</g>
<g>
</g>
<g>
</g>
<g>
</g>
<g>
</g>
<g>
</g>
<g>
</g>
<g>
</g>
<g>
</g>
</svg>
