<?xml version="1.0" encoding="iso-8859-1"?>
<!-- Generator: Adobe Illustrator 18.0.0, SVG Export Plug-In . SVG Version: 6.00 Build 0)  -->
<!DOCTYPE svg PUBLIC "-//W3C//DTD SVG 1.1//EN" "http://www.w3.org/Graphics/SVG/1.1/DTD/svg11.dtd">
<svg version="1.1" id="Capa_1" xmlns="http://www.w3.org/2000/svg" xmlns:xlink="http://www.w3.org/1999/xlink" x="0px" y="0px"
	 viewBox="0 0 63.82 63.82" style="enable-background:new 0 0 63.82 63.82;" xml:space="preserve">
<g>
	<path style="fill:#1D1D1B;" d="M63.124,25.372c-1.12-1.259-2.681-0.493-3.87,0.234c-0.709-2.793-1.784-5.425-3.181-7.703
		C49.076,6.495,34.872,2.366,22.765,7.597c-0.053-0.078-0.139-0.131-0.27-0.117C12.584,8.558,6.12,16.266,4.219,25.358
		c-4.479-1.39-4.309,2.997-4.167,6.392c0.128,3.072,0.178,7.278,4.22,5.666c1.902,9.738,8.124,17.759,18.478,20.106
		c10.367,2.35,24.188,0.471,31.757-7.64c2.896-3.103,4.615-7.164,5.335-11.504c4.455,0.993,3.708-4.79,3.821-7.877
		C63.716,29.054,64.209,26.591,63.124,25.372z M1.059,35.692c-0.462-1.024-0.396-2.418-0.454-3.536
		c-0.143-2.763-0.683-7.262,3.548-6.456c-0.08,0.41-0.146,0.823-0.208,1.237c-2.647-0.764-2.452,2.644-2.374,4.34
		c0.084,1.811-0.079,5.244,2.517,5.078c0.035,0.216,0.066,0.433,0.105,0.647C2.498,37.402,1.798,37.33,1.059,35.692z M4.038,36.048
		c-2.129-0.284-1.876-2.886-1.942-4.428c-0.055-1.286-0.611-4.874,1.778-4.171c-0.18,1.376-0.265,2.773-0.235,4.175
		C3.671,33.126,3.814,34.601,4.038,36.048z M58.118,41.915c-2.21,7.28-8.278,11.764-15.315,13.921
		c-12.02,3.683-28.12,2.28-34.729-9.886C0.718,32.41,4.55,10.702,22.07,8.237c0.057,0.084,0.144,0.145,0.255,0.099
		c13.041-5.399,28.248-0.652,34.411,12.46C59.693,27.087,60.138,35.259,58.118,41.915z M59.694,27.695
		c0.088,0.108,0.255,0.161,0.392,0.043c1.305-1.124,1.534,2.103,1.562,2.42c0.048,0.536,0.06,1.076,0.069,1.614
		c0.018,1.02,0.423,4.734-1.501,4.325c-0.043-0.009-0.076,0.004-0.108,0.019C60.348,33.315,60.2,30.454,59.694,27.695z
		 M63.07,31.459c-0.119,2.198,0.345,6.962-3.186,6.604c0.085-0.551,0.15-1.107,0.203-1.665c0.014,0.009,0.019,0.025,0.038,0.031
		c2.773,0.832,2.155-4.271,2.089-5.627c-0.049-1.01-0.501-5.279-2.498-3.435c-0.031,0.029-0.053,0.06-0.066,0.091
		c-0.087-0.452-0.18-0.903-0.286-1.348c0.032-0.005,0.065-0.015,0.098-0.035C64.238,23.201,63.175,29.516,63.07,31.459z"/>
	<path style="fill:#1D1D1B;" d="M22.975,20.421c-0.186-0.297-0.593-0.566-0.983-0.606c0.299-0.32,0.29-0.938-0.168-1.13
		c-0.377-0.158-0.775,0.066-1.014,0.355c-0.316,0.382-0.359,0.9-0.445,1.384c-1.605-0.899-0.487-3.852-1.679-5.229
		c-0.85-0.982-2.265-0.635-2.879,0.413c-1.695,2.892,1.855,6.043,4.636,5.726c0.518,0.615,1.549,1.511,2.165,0.651
		c0.336-0.469-0.017-0.859-0.465-1.029c0.288-0.026,0.558-0.133,0.806-0.333C23.005,20.579,23.012,20.479,22.975,20.421z
		 M18.431,20.616c-0.037-0.442,0.041-0.828,0.162-1.254c0.044-0.157-0.197-0.268-0.27-0.114c-0.187,0.395-0.216,0.811-0.161,1.234
		c-0.521-0.254-1.002-0.599-1.4-1.078c-0.008-0.01-0.015-0.022-0.023-0.032c0.018-0.561,0.272-0.998,0.655-1.443
		c0.078-0.091-0.021-0.244-0.134-0.174c-0.458,0.283-0.684,0.79-0.735,1.313c-0.314-0.467-0.537-1.004-0.622-1.559
		c0.314-0.489,0.807-0.796,1.397-0.866c0.153-0.018,0.163-0.25,0-0.246c-0.597,0.015-1.096,0.3-1.429,0.753
		c-0.001-0.037-0.01-0.073-0.01-0.109c0-0.75,0.654-2.598,1.886-2.023c0.552,0.257,0.899,0.772,1.047,1.335
		c0.38,1.443-0.178,3.906,1.497,4.45c-0.012,0.062,0.001,0.11,0.032,0.145C19.659,20.965,19.019,20.853,18.431,20.616z
		 M21.672,20.693c-0.12-0.024-0.174,0.113-0.107,0.184c-0.038,0.005-0.079,0.004-0.114,0.014c-0.134,0.037-0.123,0.219,0,0.261
		c0.152,0.052,0.31,0.051,0.465,0.094c0.073,0.02,0.232,0.052,0.278,0.112c0.025,0.156,0.051,0.311,0.076,0.466
		c-0.147,0.129-0.302,0.167-0.466,0.112c-0.425-0.065-0.812-0.427-1.141-0.745c0.015-0.083-0.028-0.161-0.098-0.204
		c0.04-0.021,0.076-0.051,0.097-0.101c0,0,0,0,0-0.001c0.107,0.014,0.215,0.028,0.337,0.03c0.144,0.002,0.185-0.235,0.035-0.259
		c-0.104-0.017-0.192-0.047-0.283-0.073c0.082-0.373,0.081-0.769,0.246-1.114c0.138-0.289,0.542-0.666,0.828-0.342
		c0.196,0.223,0.043,0.605-0.228,0.679c-0.056,0.015-0.072,0.057-0.069,0.099c-0.061,0.034-0.12,0.075-0.171,0.131
		c-0.07,0.075-0.026,0.228,0.091,0.219c0.45-0.035,0.818-0.102,1.135,0.233C22.319,20.687,22.013,20.762,21.672,20.693z"/>
	<path style="fill:#1D1D1B;" d="M27.163,45.73c0.306-0.194,0.512-0.57,0.377-0.926c-0.169-0.444-0.707-0.534-1.086-0.339
		c0.004-0.477-0.664-0.938-1.16-0.74c-0.423,0.169-0.699,0.62-0.704,1.068c-0.004,0.37,0.129,0.952,0.519,1.082
		c0.011,0.004,0.018-0.009,0.029-0.016c-0.689,0.763-1.418,1.432-2.412,1.787c-0.93,0.332-1.852,0.163-2.798,0.295
		c-0.689,0.097-1.241,0.425-1.389,1.037c-0.004-0.047-0.014-0.085-0.017-0.134c-0.008-0.152-0.247-0.203-0.28-0.038
		c-0.379,1.936,1.78,2.81,3.352,2.277c1.95-0.661,3.255-2.545,3.913-4.445c0.393,0.75,1.766,0.837,2.054-0.052
		C27.68,46.221,27.461,45.867,27.163,45.73z M27.134,46.608c-0.14,0.161-0.378,0.222-0.58,0.201
		c-0.349-0.034-0.555-0.288-0.856-0.425c-0.039-0.018-0.076-0.02-0.11-0.013c0.053-0.169,0.11-0.338,0.153-0.505
		c0.04-0.154-0.187-0.215-0.237-0.065c-0.434,1.303-1.14,2.479-2.116,3.451c-0.117,0.117-0.256,0.234-0.406,0.35
		c-0.01-0.001-0.018-0.007-0.029-0.004c-0.481,0.121-0.91,0.044-1.241-0.346c-0.083-0.098-0.215,0.042-0.139,0.139
		c0.254,0.328,0.631,0.51,1.019,0.488c-0.308,0.198-0.65,0.378-1.003,0.52c-0.575-0.034-1.071-0.349-1.229-0.923
		c-0.03-0.107-0.191-0.062-0.166,0.046c0.116,0.508,0.488,0.907,0.963,1.031c-1.128,0.337-2.25,0.192-2.556-1.139
		c0.018-0.008,0.043-0.006,0.047-0.032c0.212-1.495,1.996-0.994,2.931-1.077c0.564-0.05,1.118-0.193,1.637-0.419
		c0.937-0.408,1.729-1.075,2.229-1.966c0.073-0.13-0.107-0.282-0.213-0.164c-0.024,0.027-0.05,0.052-0.074,0.079
		c0.059-0.353-0.201-0.672-0.169-1.043c0.028-0.328,0.313-0.839,0.736-0.719c0.315,0.09,0.344,0.395,0.281,0.657
		c-0.022,0.091,0.037,0.156,0.11,0.174c0.035,0.092,0.168,0.138,0.229,0.026c0.141-0.26,0.659-0.398,0.842-0.067
		c0.076,0.137-0.007,0.374-0.11,0.476c-0.149,0.148-0.347,0.134-0.529,0.087c-0.205-0.053-0.318,0.225-0.142,0.337
		c0.042,0.026,0.086,0.036,0.129,0.052c-0.015,0.013-0.032,0.018-0.047,0.033c-0.086,0.087,0.04,0.205,0.132,0.132
		C27.067,45.622,27.42,46.28,27.134,46.608z"/>
	<path style="fill:#1D1D1B;" d="M23.632,48.72c-0.339-0.003-0.606-0.115-0.782-0.424c-0.052-0.092-0.182-0.011-0.14,0.082
		c0.17,0.37,0.507,0.601,0.921,0.547C23.758,48.908,23.767,48.721,23.632,48.72z"/>
	<path style="fill:#1D1D1B;" d="M32.175,33.91c0.383-0.315,0.397-1.05-0.19-1.289c-0.706-0.287-1.304,0.257-1.434,0.9
		c-0.945-0.908-3.237-1.043-4.144-0.621c-0.564,0.263-0.977,0.692-1.258,1.187c-0.059-0.035-0.149-0.014-0.146,0.076
		c0.001,0.049,0.013,0.096,0.019,0.143c-0.47,1.031-0.336,2.309,0.542,3.177c0.234,0.542,1.017,0.615,1.516,0.165
		c0.527-0.475,0.598-1.189,0.894-1.798c0.522-1.075,1.457-1.364,2.557-1.514c0.052-0.007,0.077-0.042,0.091-0.083
		c0.006,0.011,0.016,0.014,0.024,0.022c0.039,0.126,0.06,0.26,0.042,0.411c-0.018,0.149,0.233,0.182,0.263,0.035
		c0.011-0.055,0.008-0.105,0.012-0.158c0.16,0.171,0.348,0.306,0.589,0.341c0.313,0.044,0.689-0.09,0.816-0.4
		C32.467,34.265,32.351,34.045,32.175,33.91z M30.532,34.03c-0.75-0.184-1.557,0.105-2.151,0.577
		c-0.348,0.276-0.613,0.615-0.807,1.014c-0.105,0.216-0.159,0.448-0.242,0.672c-0.034,0.104-0.067,0.208-0.101,0.313
		c-0.144,0.746-0.662,0.889-1.554,0.432c-0.004-0.007-0.009-0.014-0.013-0.021c-0.006-0.023-0.017-0.041-0.034-0.051
		c-0.374-0.65-0.521-1.398-0.377-2.071c0.27,0.374,0.728,0.59,1.228,0.476c0.104-0.024,0.082-0.19-0.025-0.187
		c-0.455,0.016-0.888-0.205-1.108-0.578c0.123-0.342,0.336-0.651,0.635-0.911c0.246,0.411,0.648,0.696,1.152,0.719
		c0.132,0.006,0.166-0.211,0.032-0.235c-0.434-0.076-0.793-0.272-1.026-0.622c0.135-0.097,0.285-0.185,0.454-0.261
		c0.272-0.122,0.754-0.189,1.288-0.189c-0.001,0.002-0.004,0.002-0.005,0.004c-0.195,0.41,0.139,0.903,0.603,0.785
		c0.122-0.031,0.101-0.236-0.03-0.224c-0.318,0.013-0.445-0.146-0.38-0.479c0.014-0.035,0.002-0.063-0.019-0.087
		c0.985,0.027,2.106,0.296,2.496,0.936C30.541,34.039,30.539,34.032,30.532,34.03z M31.668,34.614
		c-0.111,0.009-0.211-0.018-0.302-0.078c-0.173-0.076-0.303-0.209-0.423-0.35c-0.017-0.077-0.045-0.149-0.076-0.22
		c-0.013-0.433,0.023-0.907,0.532-1.051c0.242-0.069,0.572-0.006,0.708,0.231c0.138,0.24,0.024,0.513-0.184,0.643
		c-0.187-0.038-0.374,0.024-0.448,0.253c-0.039,0.12,0.114,0.185,0.197,0.115C32.029,34.44,32.028,34.593,31.668,34.614z"/>
	<path style="fill:#1D1D1B;" d="M38.185,23.332c-0.359-0.272-0.861-0.273-1.315-0.328c-0.199-2.114-3.766-3.765-5.305-2.05
		c-0.624,0.696-0.603,1.84,0.12,2.465c0.369,0.319,0.822,0.387,1.296,0.297c0.868-0.164,2.849-1.687,3.221-0.196
		c-0.077-0.017-0.179,0.011-0.258,0.061c-0.189,0.118-0.249,0.36-0.329,0.556c-0.125,0.305-0.307,0.658-0.327,0.988
		c-0.02,0.339,0.199,0.651,0.572,0.514c0.247-0.091,0.441-0.296,0.574-0.539c0.132,0.148,0.336,0.235,0.584,0.187
		c0.426-0.082,0.617-0.434,0.602-0.787c0.088,0.062,0.185,0.112,0.299,0.131c0.286,0.047,0.564-0.123,0.645-0.403
		C38.662,23.893,38.446,23.531,38.185,23.332z M33.91,22.934c-0.8,0.393-1.969,0.752-2.354-0.375
		c-0.312-0.914,0.455-1.74,1.31-1.932c0.018-0.004,0.038-0.004,0.056-0.008c-0.329,0.406-0.34,0.984-0.064,1.441
		c0.074,0.123,0.254,0.015,0.191-0.112c-0.243-0.489-0.106-0.936,0.178-1.363c0.398-0.014,0.835,0.083,1.26,0.256
		c-0.306,0.328-0.559,0.708-0.82,1.071c-0.078,0.109,0.102,0.25,0.188,0.145c0.293-0.359,0.607-0.712,0.847-1.11
		c0.275,0.131,0.541,0.296,0.783,0.483c-0.168,0.137-0.319,0.288-0.472,0.444c-0.119,0.122,0.063,0.303,0.186,0.186
		c0.163-0.153,0.326-0.302,0.467-0.475c0.443,0.387,0.769,0.861,0.903,1.368c-0.012-0.003-0.025-0.003-0.037-0.006
		c-0.084-0.022-0.137,0.018-0.17,0.072C35.981,22.29,34.578,22.606,33.91,22.934z M37.883,24.345
		c-0.14-0.018-0.265-0.12-0.368-0.241c-0.014-0.024-0.034-0.042-0.05-0.065c-0.059-0.08-0.111-0.162-0.146-0.234
		c-0.025-0.053-0.079-0.031-0.107,0.008c-0.03-0.017-0.053-0.04-0.086-0.053c-0.144-0.059-0.232,0.147-0.142,0.244
		c0.196,0.212,0.31,0.333,0.237,0.627c-0.11,0.442-0.508,0.342-0.643,0.108c0.036-0.131,0.055-0.26,0.056-0.383
		c0.008-0.009,0.009-0.018,0.018-0.026c0.085-0.08-0.031-0.239-0.128-0.166c-0.007,0.005-0.01,0.013-0.017,0.018
		c-0.073-0.014-0.153,0.017-0.177,0.106c-0.062,0.232-0.132,0.468-0.273,0.667c-0.057,0.065-0.114,0.13-0.171,0.196
		c-0.228,0.075-0.295,0.013-0.203-0.186c-0.002-0.152,0.122-0.415,0.162-0.562c0.034-0.126,0.064-0.252,0.091-0.379
		c-0.01-0.201,0.081-0.32,0.273-0.357c0.003,0.02,0.02,0.023,0.034,0.031c0,0.002,0.001,0.003,0.001,0.004
		c0.014,0.105,0.194,0.103,0.21,0c0.026-0.168,0.016-0.303-0.003-0.428c0.055,0.021,0.113,0.028,0.17,0.041
		c0.007,0.128,0.022,0.255-0.001,0.384c-0.021,0.121,0.15,0.173,0.186,0.051c0.039-0.129,0.057-0.258,0.068-0.386
		c0.343,0.037,0.7,0.024,1,0.177c0.118,0.063,0.214,0.151,0.287,0.263C38.329,24.027,38.236,24.207,37.883,24.345z"/>
	<path style="fill:#1D1D1B;" d="M47.374,18.422c-0.023-0.391-0.476-0.635-0.839-0.583c0.042-0.247-0.064-0.528-0.333-0.617
		c-0.649-0.215-1.079,0.495-1.088,1.093c-1.146-0.62-0.386-3.376-0.757-4.362c-0.213-0.566-0.606-0.989-1.125-1.172
		c0.08-0.079,0.081-0.239-0.056-0.26c-2.242-0.337-2.647,2.521-2.054,4.09c0.105,0.278,0.249,0.524,0.408,0.756
		c0.001,0.044-0.009,0.086-0.006,0.13c0.006,0.086,0.087,0.086,0.135,0.04c0.333,0.426,0.743,0.774,1.213,1.014c0,0,0,0.001,0,0.001
		c0.015,0.024,0.039,0.033,0.064,0.035c0.885,0.429,1.939,0.511,2.936,0.144c0.142-0.052,0.087-0.272-0.064-0.23
		c-0.066,0.018-0.134,0.027-0.2,0.042c-0.02-0.038-0.062-0.058-0.103-0.078c0.009-0.09,0.013-0.181,0.026-0.283
		c0.005-0.229,0.099-0.418,0.285-0.568c0.456,0.013,0.564,0.136,0.324,0.368c-0.116,0.043-0.107,0.185-0.024,0.232
		c-0.007,0.102,0.111,0.204,0.205,0.134c0.19-0.141,0.494-0.262,0.634,0.016c0.186,0.37-0.407,0.529-0.64,0.256
		c-0.077-0.091-0.206,0.025-0.157,0.121c0.006,0.012,0.016,0.018,0.022,0.028c-0.083,0.021-0.167,0.058-0.248,0.125
		c-0.082,0.069-0.017,0.23,0.091,0.219c0.151-0.015,0.308-0.035,0.447,0.05c0.329,0.201,0.231,0.614-0.097,0.735
		c-0.614,0.226-0.788-0.539-0.534-0.926c0.069-0.105-0.094-0.235-0.177-0.136c-0.598,0.722,0.146,1.857,1.026,1.308
		c0.46-0.287,0.399-0.792,0.142-1.11C47.127,18.98,47.395,18.76,47.374,18.422z M42.944,18.133
		c-0.043-0.364,0.058-0.724,0.301-1.025c0.102-0.126-0.06-0.299-0.181-0.181c-0.303,0.295-0.42,0.681-0.375,1.064
		c-0.21-0.151-0.406-0.328-0.582-0.533c-0.12-0.139-0.226-0.3-0.323-0.472c0.132-0.517,0.402-0.967,0.798-1.366
		c0.085-0.086-0.03-0.251-0.134-0.174c-0.415,0.309-0.686,0.741-0.823,1.219c-0.178-0.412-0.281-0.876-0.314-1.336
		c0.333-0.523,0.867-0.805,1.484-0.83c0.146-0.006,0.139-0.205,0-0.222c-0.612-0.071-1.162,0.22-1.5,0.709
		c0.019-0.982,0.431-1.877,1.415-2.106c2.501,0.702,0.28,4.875,2.154,5.756C44.185,18.655,43.524,18.476,42.944,18.133z"/>
	<path style="fill:#1D1D1B;" d="M46.471,33.605c-0.402,0.02-0.753,0-1.116-0.203c-0.107-0.06-0.201,0.101-0.096,0.164
		c0.382,0.231,0.801,0.339,1.233,0.194C46.573,33.733,46.565,33.6,46.471,33.605z"/>
	<path style="fill:#1D1D1B;" d="M42.953,47.237c-0.032-0.01-0.06-0.005-0.085,0.004c0.051-0.561-0.061-1.214-0.132-1.587
		c-0.232-1.224-0.819-2.571-1.698-3.472c-1.386-1.421-3.937-1.035-4.257,1.123c-0.022,0.147,0.155,0.21,0.228,0.098
		c-0.094,0.568,0.271,1.151,0.831,1.464c0.403,0.224,0.85,0.323,1.294,0.433c-0.631,0.297-0.606,1.215-0.109,1.586
		c-0.694,0.291-1.353,0.795-1.086,1.62c0.079,0.246,0.32,0.435,0.583,0.529c-0.317,0.016-0.601,0.148-0.723,0.505
		c-0.05,0.145-0.047,0.294-0.011,0.431c-0.64-0.002-1.288,0.202-1.506,0.852c-0.201,0.6,0.14,1.6,0.911,1.442
		c0.204-0.042,0.169-0.32,0-0.38c-0.461-0.162-0.703-0.716-0.348-1.133c0.311-0.366,0.845-0.381,1.31-0.311
		c0.131,0.069,0.284,0.1,0.449,0.061c0.214-0.051,0.206-0.371,0-0.426c-0.113-0.03-0.235-0.054-0.362-0.073
		c-0.083-0.168,0.078-0.538,0.26-0.628c0.219-0.109,0.498-0.073,0.729-0.009c0.029,0.072,0.059,0.143,0.1,0.209
		c0.095,0.152,0.381,0.053,0.305-0.129c-0.193-0.46-0.144-0.776,0.01-1.236c0.073-0.219-0.243-0.333-0.36-0.152
		c-0.095,0.147-0.141,0.311-0.168,0.478c-0.645,0.355-1.073-0.403-0.579-0.966c0.318-0.362,0.848-0.472,1.296-0.579
		c0.192-0.046,0.154-0.36-0.047-0.348c-0.225,0.038-0.433-0.023-0.624-0.181c-0.279-0.55-0.122-0.885,0.473-1.004
		c0.011-0.001,0.016-0.01,0.026-0.013c0.209,0.069,0.412,0.153,0.605,0.269c0.978,0.592,1.418,1.561,1.624,2.638
		c0.017,0.088,0.1,0.109,0.171,0.087c-0.113,0.282-0.219,0.596-0.458,0.735c-0.471,0.273-0.565-0.252-0.385-0.551
		c0.115-0.19,0.32-0.352,0.488-0.494c0.081-0.069-0.023-0.192-0.111-0.143c-0.353,0.195-0.755,0.446-0.811,0.887
		c-0.035,0.276,0.091,0.59,0.34,0.729c0.503,0.281,1.004-0.312,1.223-0.868c0.117,0.471,0.567,0.829,1.103,0.763
		c0.082-0.01,0.145-0.049,0.171-0.13c0.108-0.338,0.043-0.717-0.148-1.008c0.531,0.206,1.249,0.264,1.321-0.39
		C44.898,47.055,43.41,47.378,42.953,47.237z M42.237,47.859c-0.012,0.032-0.025,0.063-0.037,0.095
		c-0.011,0.028,0.001,0.071,0.024,0.09c0.013,0.011,0.026,0.021,0.039,0.032c-0.013,0.009-0.027,0.015-0.037,0.03
		c-0.027,0.039-0.048,0.092-0.071,0.138c-0.031-0.994-0.534-1.916-1.305-2.54c-0.819-0.663-4.69-1.202-3.445-2.833
		c0.042-0.056-0.05-0.126-0.097-0.074c-0.016,0.017-0.024,0.036-0.038,0.054c0.347-0.617,0.902-1.054,1.651-1.144
		c1.017-0.122,1.783,0.597,2.31,1.376c-0.783-0.3-1.638-0.162-2.332,0.306c-0.091,0.061-0.008,0.208,0.087,0.149
		c0.708-0.445,1.487-0.486,2.278-0.259c0.032,0.009,0.059-0.005,0.08-0.025c0.012,0.019,0.026,0.038,0.038,0.057
		c0.114,0.187,0.211,0.387,0.307,0.587c-0.014-0.013-0.03-0.025-0.053-0.028c-0.702-0.08-1.407,0.098-2.041,0.391
		c-0.068,0.031-0.019,0.151,0.051,0.122c0.653-0.271,1.288-0.334,1.99-0.327c0.063,0.001,0.091-0.045,0.088-0.092
		c0.144,0.306,0.273,0.62,0.38,0.941c-0.229-0.02-0.46,0.042-0.663,0.199c-0.096,0.074-0.005,0.241,0.098,0.167
		c0.211-0.153,0.424-0.193,0.642-0.144c0.021,0.073,0.056,0.143,0.075,0.217c0.1,0.392,0.181,0.802,0.205,1.206
		c0.022,0.375-0.153,0.966-0.096,1.31C42.351,47.789,42.258,47.806,42.237,47.859z M44.267,48.144
		c-0.285,0.249-0.868-0.008-1.123-0.163c-0.028-0.017-0.057-0.01-0.082,0.004c-0.073-0.035-0.152-0.062-0.236-0.078
		c-0.169-0.032-0.306,0.216-0.126,0.299c0.278,0.129,0.681,0.412,0.614,0.778c-0.05,0.273-0.31,0.142-0.478,0.015
		c-0.25-0.188-0.384-0.449-0.327-0.771c0.008-0.047-0.021-0.079-0.055-0.089c0.004,0,0.008,0,0.012-0.002
		c0.198-0.134,0.303-0.368,0.361-0.64c0.285,0.303,0.663,0.183,1.043,0.169C44.179,47.654,44.599,47.854,44.267,48.144z"/>
	<path style="fill:#1D1D1B;" d="M50.272,42.558c-0.481,0.092-0.939-0.025-1.242-0.432c-0.08-0.108-0.262-0.01-0.185,0.108
		c0.323,0.501,0.916,0.766,1.49,0.551C50.476,42.732,50.422,42.529,50.272,42.558z"/>
	<path style="fill:#1D1D1B;" d="M51.153,41.966c-0.416-0.094-0.765-0.149-1.136-0.386c-0.083-0.053-0.153,0.074-0.076,0.131
		c0.343,0.25,0.757,0.454,1.191,0.417C51.219,42.121,51.25,41.987,51.153,41.966z"/>
	<path style="fill:#1D1D1B;" d="M52.085,40.917c-0.31,0.184-0.654,0.213-0.897-0.12c-0.055-0.075-0.18-0.007-0.127,0.074
		c0.246,0.381,0.786,0.519,1.127,0.178C52.254,40.982,52.168,40.867,52.085,40.917z"/>
	<path style="fill:#1D1D1B;" d="M26.414,16.669c0.058-0.295,0.22-0.645,0.071-0.942c-0.131-0.262-0.366-0.287-0.624-0.315
		c-0.423-0.046-1.089-0.09-1.496,0.037c-0.725,0.225-0.481,1.356-0.327,1.888c0.24,0.824,0.748,1.556,1.477,2.015
		c0.108,0.068,0.226-0.032,0.227-0.136c0.007-0.002,0.013,0.003,0.02,0c0.243-0.106,0.485-0.212,0.728-0.318
		c0.094-0.041,0.152-0.191,0.116-0.286C26.367,17.982,26.283,17.335,26.414,16.669z M25.504,18.776
		c-0.04,0.017-0.047,0.049-0.068,0.075c-0.371-0.389-0.683-0.816-0.869-1.335c-0.104-0.291-0.209-0.648-0.201-0.958
		c0.015-0.587,0.302-0.66,0.784-0.656c0.415,0.003,0.807-0.171,0.841,0.408c0.013,0.222-0.117,0.524-0.135,0.759
		c-0.038,0.505,0.051,0.992,0.204,1.468C25.875,18.616,25.69,18.696,25.504,18.776z"/>
	<path style="fill:#1D1D1B;" d="M33.227,46.137c-0.032-0.128-0.144-0.226-0.307-0.168c-0.005-0.002-0.009-0.006-0.014-0.008
		c-0.083-0.038-0.153,0.014-0.175,0.079c-0.466,0.172-0.928,0.352-1.392,0.53c-0.217,0.083-0.271,0.361-0.065,0.495
		c0.858,0.556,1.25,1.558,1.009,2.55c-0.052,0.212,0.129,0.363,0.329,0.329c0.78-0.131,1.558-0.195,2.348-0.223
		c0.13-0.005,0.259-0.112,0.252-0.252C35.137,48.088,34.418,46.823,33.227,46.137z M31.949,46.912
		c0.371-0.142,0.742-0.281,1.11-0.431c0.036-0.015,0.065-0.035,0.089-0.058c0.916,0.67,1.488,1.66,1.547,2.807
		c-0.614,0.011-1.224,0.065-1.831,0.149C32.975,48.445,32.637,47.543,31.949,46.912z"/>
	<path style="fill:#1D1D1B;" d="M38.722,34.929c-0.859-0.675-1.088-1.824-0.509-2.762c0.092-0.149-0.025-0.392-0.214-0.373
		c-0.639,0.064-1.412-0.294-2.01,0.086c-0.48,0.305-0.436,0.843-0.401,1.346c0.082,1.195,0.33,2.475,1.455,3.104
		c0.106,0.059,0.194-0.035,0.187-0.126c0.022,0.015,0.044,0.035,0.067,0.038c0.569,0.085,1.041-0.611,1.424-0.95
		C38.817,35.207,38.827,35.011,38.722,34.929z M37.556,35.739c-0.006-0.005-0.006-0.012-0.012-0.016
		c-0.015-0.01-0.031-0.02-0.046-0.03c-0.082-0.053-0.192-0.03-0.26,0.034c-0.119,0.11-0.13,0.188-0.105,0.344
		c-0.804-0.574-1.019-1.567-1.091-2.504c-0.011-0.149-0.028-0.306-0.022-0.455c0.015-0.405,0.077-0.711,0.428-0.873
		c0.269-0.124,0.752-0.017,1.158,0.032c-0.417,0.968-0.203,2.097,0.562,2.837C37.991,35.277,37.736,35.528,37.556,35.739z"/>
	<path style="fill:#1D1D1B;" d="M36.453,14.17c-0.572-1.022-1.523-2.147-2.686-2.505c-0.731-0.225-1.612,0.15-1.529,0.983
		c-0.04-0.002-0.077-0.014-0.118-0.014c-0.088,0-0.124,0.123-0.045,0.167c1.058,0.59,1.881,1.075,2.201,2.336
		c0.037,0.145,0.228,0.233,0.358,0.145c0.519-0.351,1.054-0.592,1.667-0.735C36.464,14.509,36.531,14.31,36.453,14.17z
		 M32.695,12.731c0.006-0.019,0.022-0.031,0.023-0.052c0.023-1.005,1.068-0.457,1.382-0.274c0.286,0.166,0.556,0.384,0.8,0.606
		c0.371,0.337,0.668,0.735,0.934,1.156c-0.424,0.133-0.822,0.314-1.198,0.553C34.294,13.862,33.59,13.003,32.695,12.731z"/>
	<path style="fill:#1D1D1B;" d="M52.968,28.978c-0.903,0.134-1.716,0.947-1.586,1.841c-0.121,0.044-0.221,0.18-0.136,0.308
		c0.322,0.484,0.67,0.951,1.008,1.423c0.082,0.114,0.253,0.165,0.361,0.047c0.638-0.699,1.395-1.185,2.299-1.466
		c0.101-0.031,0.17-0.121,0.173-0.227C55.117,29.749,54.14,28.805,52.968,28.978z M51.735,31.064
		c-0.249-0.833,0.519-1.584,1.321-1.651c0.833-0.07,1.487,0.531,1.548,1.336c-0.811,0.285-1.518,0.729-2.122,1.338
		C52.236,31.743,51.989,31.401,51.735,31.064z"/>
	<path style="fill:#1D1D1B;" d="M29.045,27.782c-0.725-0.445-1.132-1.295-0.919-2.142c0.088-0.352,0.296-0.652,0.124-1.017
		c-0.326-0.692-1.304-0.611-1.836-0.265c-0.748,0.487-0.967,1.382-0.785,2.219c0.165,0.76,0.631,1.832,1.507,1.9
		c0.007,0.001,0.011-0.005,0.017-0.006c0.037,0.121,0.162,0.216,0.317,0.146c0.489-0.221,0.914-0.363,1.453-0.386
		C29.161,28.221,29.254,27.91,29.045,27.782z M27.241,28.226c-0.021,0.014-0.021,0.033-0.036,0.049
		c-0.012-0.01-0.02-0.024-0.038-0.029c-0.904-0.22-1.316-1.939-1.099-2.689c0.108-0.375,0.659-1.119,1.141-1
		c0.205,0.177,0.409,0.353,0.614,0.53c-0.029,0.073-0.058,0.147-0.087,0.22c-0.006,0.137-0.095,0.313-0.115,0.449
		c-0.117,0.778,0.173,1.524,0.706,2.058C27.946,27.883,27.584,28.005,27.241,28.226z"/>
	<path style="fill:#1D1D1B;" d="M31.857,17.787c-0.241-0.134-0.482-0.27-0.729-0.392c0.487-0.522,0.535-1.523,0.273-2.106
		c-0.429-0.955-1.616-1.276-2.54-0.866c-0.938,0.416-1.29,1.491-0.919,2.422c0.399,1.001,1.299,1.215,2.231,1.151
		c-0.039,0.207-0.053,0.418-0.026,0.649c0.013,0.111,0.106,0.215,0.23,0.175c0.526-0.169,1.012-0.398,1.479-0.695
		C31.977,18.048,31.989,17.861,31.857,17.787z M28.488,16.883c-0.214-0.383-0.247-0.828-0.123-1.218
		c0.11,0.443,0.426,0.823,0.916,0.89c0.126,0.017,0.171-0.141,0.052-0.19c-0.444-0.184-0.761-0.509-0.838-0.965
		c0.074-0.128,0.171-0.241,0.283-0.342c0.123,0.35,0.317,0.641,0.636,0.862c0.102,0.071,0.221-0.087,0.132-0.171
		c-0.253-0.239-0.453-0.5-0.593-0.814c0.035-0.021,0.058-0.05,0.097-0.068c0.183-0.083,0.38-0.126,0.577-0.137
		c0.058,0.501,0.208,1.01,0.553,1.382c0.116,0.125,0.32-0.036,0.235-0.181c-0.233-0.397-0.45-0.753-0.578-1.179
		c0.481,0.038,0.936,0.271,1.145,0.746c0.148,0.336,0.167,0.721,0.064,1.073c-0.105,0.363-0.352,0.554-0.548,0.853
		c-0.038-0.048-0.131-0.048-0.163,0.028c-0.031,0.076-0.042,0.147-0.066,0.221C29.571,17.666,28.861,17.549,28.488,16.883z
		 M30.824,17.916c0.141-0.026,0.107-0.252-0.034-0.249c-0.015,0-0.031,0-0.045,0.001c0.028-0.011,0.049-0.031,0.076-0.044
		c0.014,0.018,0.016,0.039,0.04,0.054c0.162,0.101,0.331,0.188,0.499,0.279c-0.284,0.164-0.577,0.308-0.883,0.428
		c-0.022-0.138-0.038-0.276-0.034-0.413C30.571,17.958,30.698,17.939,30.824,17.916z"/>
	<path style="fill:#1D1D1B;" d="M23.378,32.343c-0.212-0.136-0.424-0.271-0.637-0.403c0.269-0.778,0.247-1.636-0.384-2.253
		c-0.7-0.685-1.841-0.803-2.6-0.155c-1.636,1.396-0.282,3.847,1.602,3.572c-0.042,0.28,0.029,0.516,0.197,0.767
		c0.05,0.074,0.166,0.127,0.249,0.065c0.548-0.413,1.079-0.848,1.615-1.278C23.524,32.574,23.476,32.406,23.378,32.343z
		 M19.905,30.013c0.002,0.012,0.001,0.024,0.01,0.035c0.313,0.401,0.617,0.827,0.976,1.188c0.068,0.069,0.196-0.023,0.138-0.107
		c-0.296-0.424-0.663-0.803-1.007-1.189c-0.011-0.012-0.023-0.013-0.035-0.017c0.007-0.007,0.012-0.014,0.019-0.021
		c0.217-0.201,0.48-0.308,0.751-0.341c0.154,0.499,0.393,1.004,0.796,1.347c0.102,0.087,0.224-0.042,0.144-0.144
		c-0.308-0.395-0.577-0.75-0.765-1.21c0.431,0,0.867,0.18,1.171,0.508c0.783,0.841,0.134,1.81-0.186,2.68
		c-0.004,0.012,0.003,0.019,0.001,0.03c-0.026-0.034-0.063-0.058-0.121-0.043C20.179,33.157,18.677,31.323,19.905,30.013z
		 M21.737,33.525c-0.109-0.131-0.157-0.299-0.145-0.47c0.09-0.024,0.181-0.045,0.273-0.082c0.042-0.017,0.064-0.048,0.076-0.083
		c0.069,0.088,0.235,0.104,0.315-0.006c0.127-0.175,0.236-0.369,0.333-0.571c0.116,0.075,0.233,0.15,0.35,0.224
		C22.534,32.864,22.131,33.19,21.737,33.525z"/>
	<path style="fill:#1D1D1B;" d="M20.695,31.555c-0.433-0.211-0.763-0.51-1.011-0.924c-0.056-0.094-0.197-0.011-0.146,0.085
		c0.242,0.455,0.584,0.797,1.039,1.04C20.71,31.826,20.828,31.62,20.695,31.555z"/>
	<path style="fill:#1D1D1B;" d="M34.201,39.501c-0.667-0.448-1.333-0.895-2.007-1.333c-0.069-0.044-0.178-0.017-0.215,0.056
		c-0.175,0.339-0.215,0.676-0.153,1.042c-0.711,0.12-1.382,0.503-1.715,1.167c-0.271,0.54-0.225,1.198,0.062,1.722
		c0.003,0.011,0.009,0.02,0.015,0.029c0.125,0.22,0.29,0.418,0.499,0.567c0.726,0.518,1.664,0.248,2.2-0.41
		c0.459-0.563,0.539-1.249,0.41-1.915c0.306-0.195,0.604-0.404,0.904-0.608C34.319,39.739,34.32,39.581,34.201,39.501z
		 M33.203,40.051c-0.078-0.249-0.18-0.491-0.301-0.718c-0.111-0.209-0.398-0.025-0.31,0.181c0.299,0.694,0.53,1.567,0.147,2.279
		c-0.205,0.381-0.568,0.669-0.958,0.758c0.16-0.451,0.332-0.905,0.427-1.37c0.029-0.143-0.16-0.189-0.214-0.059
		c-0.19,0.464-0.303,0.966-0.429,1.455c-0.183,0.005-0.366-0.031-0.539-0.131c0.12-0.419,0.254-0.839,0.331-1.268
		c0.018-0.102-0.121-0.142-0.156-0.043c-0.136,0.391-0.224,0.798-0.319,1.201c-0.033-0.027-0.068-0.045-0.1-0.077
		c-0.122-0.123-0.21-0.248-0.281-0.373c0.228-0.396,0.483-0.771,0.737-1.155c0.058-0.087-0.071-0.184-0.144-0.111
		c-0.296,0.299-0.51,0.66-0.7,1.034c-0.373-1.092,0.957-2.128,2.068-2.196c0.149-0.009,0.15-0.224,0-0.232
		c-0.133-0.007-0.268,0.015-0.403,0.027c-0.028-0.256,0.021-0.484,0.125-0.707c0.53,0.376,1.063,0.745,1.598,1.113
		C33.588,39.787,33.394,39.917,33.203,40.051z"/>
	<path style="fill:#1D1D1B;" d="M29.883,51.533c-0.139-0.153-0.277-0.304-0.423-0.448c0.266-0.621,0.365-1.292,0.056-1.938
		c-0.406-0.851-1.382-1.075-2.174-0.66c-0.003-0.004-0.005-0.007-0.007-0.011c-0.052-0.078-0.177-0.007-0.128,0.075
		c0.002,0.002,0.003,0.005,0.005,0.007c-0.017,0.011-0.035,0.017-0.051,0.028c-0.093,0.063-0.156,0.142-0.233,0.214
		c-0.036-0.002-0.067,0.016-0.06,0.055c-1.033,1.044-0.512,2.833,0.76,3.27c-0.112,0.281-0.132,0.467,0.066,0.752
		c0.03,0.043,0.079,0.084,0.136,0.078c0.855-0.088,1.57-0.525,2.081-1.208C29.958,51.684,29.931,51.587,29.883,51.533z
		 M26.876,51.031c-0.288-0.543-0.206-1.244,0.149-1.737c0.176,0.471,0.354,0.942,0.566,1.398c0.039,0.084,0.183,0.024,0.151-0.064
		c-0.179-0.498-0.395-0.981-0.612-1.464c0.082-0.091,0.171-0.176,0.273-0.244c0.008-0.005,0.016-0.007,0.024-0.012
		c0.198,0.329,0.392,0.66,0.606,0.979c0.069,0.102,0.232,0.01,0.167-0.098c-0.198-0.325-0.415-0.638-0.629-0.953
		c0.253-0.127,0.502-0.156,0.732-0.121c0.124,0.383,0.244,0.769,0.394,1.142c0.043,0.106,0.213,0.066,0.176-0.049
		c-0.116-0.358-0.26-0.708-0.401-1.057c0.495,0.157,0.857,0.653,0.854,1.291c-0.001,0.283-0.079,0.547-0.183,0.803
		c-0.098-0.001-0.185,0.121-0.127,0.215c0.007,0.012,0.018,0.021,0.026,0.033c-0.153,0.306-0.346,0.598-0.53,0.881
		C27.847,51.941,27.202,51.644,26.876,51.031z M28.625,52.395c-0.128,0.062-0.379,0.182-0.536,0.194
		c-0.15,0.079-0.25,0.024-0.302-0.164c-0.02-0.082-0.023-0.167-0.026-0.251c0.212,0.054,0.443,0.072,0.688,0.043
		c0.053,0.105,0.224,0.151,0.319,0.026c0.19-0.251,0.373-0.528,0.529-0.82c0.072,0.081,0.147,0.16,0.222,0.239
		C29.272,51.966,28.979,52.221,28.625,52.395z"/>
	<path style="fill:#1D1D1B;" d="M44.916,38.427c0.239-0.218,0.215-0.562,0.028-0.83c-0.285-0.409-0.829-0.454-1.285-0.444
		c-0.061,0.001-0.137,0.046-0.147,0.112c-0.044,0.281,0.022,0.48,0.249,0.652c0.097,0.073,0.211-0.083,0.128-0.166
		c-0.431-0.425,0.426-0.216,0.552-0.137c0.237,0.148,0.311,0.298,0.291,0.523c-0.113-0.15-0.24-0.288-0.386-0.399
		c-0.095-0.072-0.192,0.062-0.149,0.149c0.264,0.539,0.615,1.04,0.568,1.674c-0.032,0.417-0.293,0.846-0.653,1.055
		c0.092-0.254,0.185-0.508,0.267-0.767c0.032-0.1-0.122-0.14-0.156-0.043c-0.103,0.294-0.193,0.591-0.283,0.889
		c-0.117,0.04-0.24,0.063-0.368,0.048c0.1-0.354,0.202-0.708,0.285-1.066c0.025-0.106-0.133-0.15-0.163-0.045
		c-0.102,0.355-0.185,0.713-0.27,1.072c-0.046-0.013-0.091-0.019-0.137-0.041c-0.106-0.05-0.182-0.13-0.26-0.208
		c0.006-0.312,0.056-0.617,0.184-0.915c0.042-0.099-0.096-0.187-0.149-0.087c-0.132,0.249-0.199,0.497-0.219,0.752
		c-0.185-0.348-0.212-0.787-0.04-1.143c0.258-0.534,0.792-0.862,1.344-1.015c0.119-0.033,0.066-0.196-0.05-0.18
		c-0.808,0.115-1.594,0.59-1.794,1.431c-0.166,0.702,0.22,1.538,0.913,1.792c0.759,0.278,1.551-0.247,1.84-0.95
		C45.282,39.595,45.197,38.954,44.916,38.427z"/>
	<path style="fill:#1D1D1B;" d="M47.986,28.981c-0.178-0.393-0.595-0.446-0.875-0.277c-0.034-0.237-0.17-0.467-0.388-0.566
		c-0.348-0.156-0.655,0.014-0.818,0.285c-0.05-0.073-0.11-0.139-0.192-0.187c-0.19-0.112-0.475-0.114-0.639,0.046
		c-0.433,0.423,0.495,1.173,0.826,1.333c0.003,0.001,0.005,0,0.007,0.001c0.272,1.281-0.259,2.45-1.403,3.141
		c-0.065,0.039-0.135,0.068-0.201,0.106c-0.034-0.001-0.068,0.009-0.096,0.037c-0.029,0.03-0.07,0.045-0.105,0.068
		c-0.062,0.033-0.123,0.066-0.185,0.097c-0.259,0.082-0.56,0.028-0.713-0.225c-0.239-0.395,0.092-0.714,0.43-0.869
		c0.114,0.192,0.269,0.36,0.434,0.473c0.168,0.115,0.377-0.151,0.22-0.284c-0.42-0.354-0.354-0.696-0.337-1.183
		c0.007-0.206-0.257-0.243-0.36-0.098c-0.15,0.211-0.171,0.457-0.117,0.696c-0.057,0.008-0.111,0.028-0.164,0.047
		c-0.151-0.069-0.291-0.172-0.382-0.263c-0.051-0.046-0.096-0.098-0.135-0.155c-0.175-0.161-0.137-0.352,0.111-0.573
		c0.04,0.006,0.078,0.023,0.118,0.025c0.228,0.011,0.299-0.309,0.113-0.419c-0.113-0.067-0.225-0.087-0.331-0.084
		c-0.293-0.116-0.522-0.408-0.22-0.668c0.198-0.17,0.528-0.194,0.772-0.247c0.17-0.037,0.178-0.211,0.095-0.321
		c0.088-0.061,0.164-0.131,0.21-0.223c0.158-0.315-0.025-0.743-0.354-0.838c0.271-0.634,0.258-1.46,0.005-2.031
		c-0.336-0.757-1.118-1.158-1.934-1.037c-0.764,0.113-1.325,0.698-1.28,1.493c0.049,0.87,0.708,1.45,1.448,1.812
		c-0.008,0.293-0.01,0.587-0.039,0.879c-0.009,0.09,0.078,0.143,0.153,0.153c0.137,0.018,0.329,0.035,0.538,0.041
		c-0.166,0.133-0.279,0.301-0.268,0.507c0.016,0.308,0.185,0.555,0.415,0.728c-0.135,0.178-0.197,0.423-0.116,0.664
		c0.111,0.329,0.398,0.625,0.733,0.787c-0.295,0.306-0.419,0.799-0.196,1.184c0.112,0.194,0.281,0.317,0.468,0.386
		c-0.315,0.153-0.63,0.305-0.934,0.481c-0.077-0.105-0.25-0.14-0.325,0.004c-1.07,2.07,1.663,3.145,3.254,2.395
		c2.55-1.202,2.485-3.941,1.724-6.232C47.567,30.274,48.282,29.634,47.986,28.981z M45.874,29.345
		c-0.203-0.146-0.38-0.319-0.498-0.545c-0.078-0.149-0.122-0.334,0.126-0.336c0.163-0.001,0.24,0.198,0.283,0.39
		c0.001,0.086,0.015,0.17,0.047,0.253c0.001,0.007,0.003,0.018,0.004,0.025l0.004-0.002c0.005,0.012,0.005,0.024,0.011,0.036
		c0.02,0.04,0.048,0.061,0.079,0.07C45.896,29.262,45.879,29.298,45.874,29.345z M41.735,28.181
		c0.163,0.071,0.326,0.135,0.487,0.186c0.121,0.038,0.199-0.145,0.087-0.206c-0.699-0.375-1.514-0.767-1.746-1.598
		c-0.111-0.4-0.02-0.746,0.196-0.99c0.235,0.506,0.478,1.007,0.765,1.485c0.066,0.11,0.225,0.014,0.17-0.099
		c-0.247-0.51-0.537-0.994-0.836-1.475c0.212-0.184,0.503-0.295,0.835-0.292c0.197,0.002,0.376,0.049,0.542,0.12
		c0.019,0.421,0.168,0.801,0.495,1.088c0.085,0.074,0.201-0.04,0.124-0.124c-0.236-0.26-0.388-0.534-0.443-0.862
		c0.321,0.197,0.565,0.508,0.665,0.91c0.186,0.747-0.151,1.316-0.371,1.997c-0.04,0.123,0.12,0.198,0.206,0.12
		c0.092-0.085,0.17-0.184,0.241-0.292c0.22,0.135,0.224,0.395-0.069,0.545c-0.127,0.065-0.435,0.087-0.54,0.099
		c-0.248,0.028-0.496,0.027-0.745,0.027C41.768,28.608,41.751,28.394,41.735,28.181z M46.878,29.684
		c-0.024-0.001-0.039,0.012-0.058,0.018c-0.002-0.006-0.004-0.011-0.006-0.017c-0.058-0.156-0.299-0.097-0.254,0.07
		c0.246,0.92,0.494,1.858,0.48,2.779c-0.239,0.075-0.465,0.063-0.705-0.101c-0.081-0.055-0.153,0.074-0.076,0.131
		c0.235,0.172,0.522,0.232,0.781,0.155c-0.032,0.579-0.177,1.15-0.507,1.704c-0.081,0.136-0.181,0.265-0.284,0.393
		c-0.024-0.045-0.072-0.078-0.131-0.064c-0.638,0.153-1.209,0.118-1.697-0.372c-0.101-0.102-0.254,0.053-0.157,0.157
		c0.445,0.477,1.175,0.73,1.799,0.49c-0.381,0.404-0.853,0.739-1.359,0.907c-1.259,0.418-2.723-0.395-2.376-1.84
		c1.129-0.491,2.408-0.739,3.278-1.68c0.774-0.838,0.965-2.033,0.615-3.1c-0.028-0.087-0.098-0.115-0.168-0.117
		c0.041-0.034,0.072-0.083,0.062-0.142c-0.015-0.083-0.032-0.17-0.054-0.257c0.025-0.399,0.626-0.568,0.756-0.111
		c0.055,0.194-0.046,0.373-0.149,0.528c-0.046,0.069,0.031,0.179,0.113,0.147c0.031-0.012,0.052-0.032,0.079-0.048
		c0.029,0.066,0.144,0.052,0.14-0.028c0.479-0.432,0.721-0.432,0.727-0.002c-0.028,0.209-0.126,0.336-0.296,0.381
		C47.258,29.744,47.062,29.693,46.878,29.684z"/>
	<path style="fill:#1D1D1B;" d="M42.205,26.59c-0.301-0.382-0.46-0.777-0.502-1.261c-0.009-0.1-0.156-0.103-0.158,0
		c-0.013,0.531,0.165,1.006,0.523,1.398C42.155,26.821,42.281,26.685,42.205,26.59z"/>
	<path style="fill:#1D1D1B;" d="M15.037,15.131c-0.306-0.652-1.319-0.958-1.788-0.287c-0.334,0.478-0.071,1.3,0.486,1.405
		c-0.077,0.171-0.145,0.346-0.218,0.513c-0.061,0.141,0.132,0.266,0.212,0.124c0.128-0.225,0.26-0.457,0.373-0.694
		c0.003-0.005,0.004-0.01,0.007-0.016c0.049-0.105,0.106-0.208,0.139-0.318c0.045-0.151-0.155-0.212-0.238-0.1
		c-0.036,0.048-0.058,0.107-0.089,0.159c-0.324-0.162-0.57-0.592-0.291-0.914c0.335-0.385,0.968-0.096,1.182,0.259
		C14.9,15.408,15.107,15.281,15.037,15.131z"/>
	<path style="fill:#1D1D1B;" d="M12.348,16.385c-0.13,0.193-0.173,0.423-0.264,0.633c-0.095,0.218-0.354,0.466-0.422,0.709
		c-0.039,0.138-0.026,0.261,0.027,0.363c-0.369,0.197-0.73,0.475-0.714,0.929c0.004,0.126,0.047,0.243,0.106,0.349
		c-0.657,0.044-1.244,0.512-1.409,1.176c-0.503,0.07-0.938,0.462-0.904,1.005c0.017,0.278,0.169,0.515,0.378,0.677
		C8.586,22.413,8.249,23.1,8.586,23.69c-0.394,0.152-0.679,0.565-0.515,1.007c0.002,0.006,0.007,0.012,0.009,0.018
		c-0.863,0.038-1.266,0.905-0.894,1.641c-0.473,0.182-0.828,0.636-0.702,1.184c0.086,0.373,0.417,0.666,0.782,0.751
		c-0.386,0.363-0.439,0.993-0.045,1.484c-0.407,0.366-0.486,0.945-0.19,1.399c-0.551,0.323-0.739,1.125-0.335,1.675
		c0.197,0.268,0.457,0.405,0.736,0.454c-0.426,0.513-0.715,1.213-0.133,1.63c-0.373,0.458-0.647,1.118-0.192,1.614
		c0.276,0.301,0.779,0.389,1.088,0.136c0.091,0.213,0.206,0.415,0.342,0.576c0.106,0.126,0.322-0.04,0.229-0.177
		c-0.324-0.479-0.282-0.89-0.353-1.426c-0.017-0.125-0.198-0.217-0.269-0.073c-0.113,0.23-0.111,0.484-0.062,0.734
		c-0.223,0.143-0.617,0.199-0.75-0.124c-0.163-0.398,0.155-0.899,0.412-1.159c0.082-0.083,0.08-0.261-0.041-0.314
		c-0.687-0.306-0.302-0.961,0.078-1.396c0.247-0.018,0.497-0.094,0.727-0.206c-0.144,0.438-0.111,0.933,0.377,1.13
		c0.332,0.134,0.864-0.01,0.977-0.353c0.171,0.114,0.357,0.202,0.562,0.242c0.168,0.033,0.307-0.22,0.126-0.299
		c-0.38-0.165-0.692-0.304-0.982-0.614c-0.132-0.141-0.328,0.065-0.209,0.209c0.055,0.066,0.115,0.128,0.176,0.19
		c-0.123,0.303-0.402,0.371-0.633,0.13c-0.242-0.253-0.156-0.588-0.011-0.88c0.053-0.041,0.108-0.08,0.155-0.124
		c0.181-0.168-0.09-0.438-0.271-0.271c-0.171,0.157-0.46,0.342-0.754,0.43c-0.044-0.048-0.122-0.069-0.187-0.016
		c-0.024,0.019-0.049,0.046-0.074,0.068c-0.107,0.003-0.213-0.006-0.306-0.054c-0.529-0.271-0.957-1.242-0.044-1.458
		c0.146-0.034,0.197-0.235,0.089-0.336c-0.372-0.393-0.339-0.772,0.101-1.136c0.1-0.064,0.141-0.224,0.04-0.311
		c0.153-0.429,0.306-0.858,0.459-1.287c0.032,0.058,0.057,0.121,0.094,0.176c0.092,0.14,0.305,0.017,0.225-0.131
		c-0.23-0.427-0.247-0.794-0.308-1.262c-0.02-0.154-0.271-0.231-0.304-0.041c-0.049,0.282-0.005,0.563,0.088,0.829
		c-0.019-0.01-0.038-0.021-0.064-0.02c-0.221,0.016-0.501,0.078-0.691-0.09c-0.444-0.393-0.313-1.095,0.345-1.167
		c0.172-0.019,0.261-0.203,0.14-0.339c-0.514-0.581-0.125-1.333,0.566-1.437c0.247,0.304,0.731,0.467,1.027,0.177
		c0.089-0.087,0.02-0.237-0.099-0.24c-0.183-0.004-0.334,0.035-0.498-0.073c-0.404-0.266-0.129-0.754,0.297-0.744
		c0.169,0.004,0.26-0.218,0.139-0.335c-0.576-0.557,0.004-1.361,0.679-1.15c0.038,0.115,0.076,0.231,0.153,0.332
		c0.102,0.135,0.323,0.019,0.234-0.137c-0.032-0.056-0.05-0.107-0.069-0.159c0.048-0.053,0.059-0.141-0.018-0.196
		c-0.011-0.007-0.021-0.008-0.031-0.015c-0.015-0.161,0.012-0.322,0.062-0.513c0.044-0.168-0.185-0.26-0.276-0.116
		c-0.067,0.105-0.102,0.216-0.12,0.329c-0.213-0.071-0.39-0.172-0.454-0.43c-0.103-0.41,0.224-0.699,0.618-0.699
		c0.082,0,0.187-0.064,0.2-0.152c0.098-0.67,0.667-1.145,1.326-1.132c0.082,0.034,0.172,0.05,0.273,0.037
		c0.181-0.023,0.262-0.301,0.047-0.349c-0.451-0.101-0.24-0.576,0.002-0.782c0.124-0.106,0.288-0.172,0.434-0.242
		c0.17-0.081,0.093-0.302-0.047-0.359c-0.111-0.045,0.275-0.578,0.312-0.661c0.05-0.114,0.067-0.236,0.109-0.351
		c0.033-0.09,0.635-1.138,0.75-0.439c0.018,0.111,0.204,0.086,0.197-0.027C13.4,15.87,12.606,16.002,12.348,16.385z"/>
	<path style="fill:#1D1D1B;" d="M43.642,11.17c-0.39-0.43-0.976-0.342-1.453-0.108c-0.054-0.295-0.282-0.554-0.616-0.621
		c-0.156-0.031-0.297-0.016-0.426,0.028c0.276-0.955-1.18-1.62-1.806-0.764c-0.564-0.665-1.66-0.394-1.761,0.503
		c-0.122-0.609-0.82-0.895-1.41-0.702c-0.406-0.6-1.113-0.814-1.782-0.552c-0.213-0.361-0.576-0.568-1.042-0.507
		c-0.574,0.075-0.936,0.544-1.201,1.025c0.069-1.259-1.528-1.752-2.307-0.818c-0.636-0.66-1.648-0.364-1.874,0.465
		c-0.812-0.519-1.871,0.638-0.979,1.359c-0.237,0.044-0.47,0.154-0.676,0.299c-0.054-0.36-0.28-0.689-0.67-0.762
		c-0.46-0.086-0.834,0.223-0.962,0.626c-0.244-0.483-0.841-0.84-1.344-0.625c-0.318,0.136-0.511,0.463-0.536,0.791
		c-0.165-0.214-0.414-0.368-0.712-0.416c-0.635-0.104-1.135,0.302-1.524,0.762c-0.207-0.256-0.6-0.367-0.93-0.239
		c-0.494,0.192-0.555,0.679-0.443,1.132c-0.25-0.26-0.647-0.369-1.019-0.261c-0.529,0.154-0.777,0.643-0.894,1.144
		c-1.312-0.942-3.2,0.457-2.279,2.048c0.076,0.131,0.254,0.016,0.197-0.115c-0.582-1.354,1.051-2.516,2.071-1.394
		c0.134,0.147,0.333,0.016,0.353-0.146c0.044-0.356,0.115-0.7,0.434-0.913c0.15-0.255,0.344-0.283,0.583-0.084
		c0.239-0.012,0.379,0.082,0.419,0.283c0.004,0.01,0.014,0.009,0.019,0.018c-0.135,0.08-0.258,0.176-0.362,0.279
		c-0.138,0.137,0.068,0.337,0.211,0.211c0.435-0.383,0.853-0.337,1.386-0.319c0.149,0.005,0.202-0.206,0.075-0.278
		c-0.249-0.141-0.527-0.149-0.798-0.087c-0.1-0.238-0.183-0.509-0.082-0.753c-0.017-0.2,0.08-0.301,0.291-0.302
		c0.235-0.179,0.392-0.102,0.47,0.229c-0.025,0.242,0.296,0.265,0.41,0.111c0.213-0.288,0.46-0.613,0.792-0.776
		c0.476-0.235,1.12-0.057,1.103,0.555c-0.002,0.056,0.022,0.101,0.055,0.137c-0.273,0.095-0.536,0.212-0.761,0.352
		c-0.125,0.078-0.016,0.255,0.114,0.194c0.675-0.318,1.271-0.29,1.99-0.34c0.173-0.012,0.216-0.254,0.042-0.307
		c-0.241-0.073-0.498-0.068-0.756-0.037c0.019-0.031,0.023-0.069-0.011-0.097c-0.365-0.297-0.184-0.982,0.273-1.098
		c0.674-0.172,0.827,0.644,0.968,1.072c0.033,0.099,0.193,0.144,0.244,0.032c0.047-0.103,0.065-0.21,0.067-0.316
		c0.04-0.015,0.076-0.044,0.078-0.102c0.048-0.95,1.322-0.509,1.03,0.159c-0.086,0.197,0.141,0.414,0.314,0.243
		c0.268-0.265,0.69-0.618,1.111-0.488c0.399,0.123,0.471,0.506,0.313,0.838c-0.072,0.152,0.084,0.359,0.25,0.25
		c0.492-0.323,0.303-1.015-0.112-1.332c-0.166-0.127-0.343-0.169-0.522-0.18c0.002-0.028-0.004-0.056-0.029-0.079
		c0.241-0.224,0.481-0.447,0.722-0.67c0.1,0.182,0.429,0.11,0.408-0.11c-0.117-0.684,0.318-0.837,1.303-0.46
		c0.084,0.144,0.316,0.155,0.397,0c0.185-0.495,0.505-0.595,0.96-0.301c0.58-0.057,0.827,0.212,0.739,0.807
		c0.003,0.047,0.025,0.085,0.053,0.116c-0.29,0.004-0.578,0.027-0.838,0.061c-0.214,0.028-0.225,0.365,0,0.345
		c0.336-0.03,0.672-0.04,1.009-0.008c0.335,0.032,0.659,0.132,0.995,0.139c0.161,0.003,0.234-0.235,0.084-0.311
		c-0.243-0.123-0.524-0.177-0.812-0.204c0.31-0.421,1.423-1.842,1.827-0.492c0.043,0.143,0.201,0.205,0.332,0.135
		c0.546-0.294,1.201-0.063,1.473,0.473c0.058,0.114,0.214,0.142,0.319,0.084c0.247,0.134,0.494,0.267,0.741,0.401
		c-0.103-0.013-0.209-0.028-0.306-0.038c-0.18-0.018-0.222,0.285-0.043,0.318c0.323,0.059,0.64,0.136,0.948,0.249
		c0.308,0.113,0.59,0.291,0.907,0.37c0.169,0.042,0.325-0.182,0.18-0.308c-0.224-0.195-0.515-0.313-0.819-0.405
		c0.026-0.023,0.044-0.055,0.043-0.096c-0.025-0.765,1.004-1.158,1.313-0.325c0.07,0.188,0.323,0.196,0.39,0
		c0.155-0.453,0.667-0.637,1.014-0.279c0.215,0.223,0.185,0.471,0.15,0.751c-0.005,0.042,0.008,0.075,0.028,0.102
		c-0.207,0.207-0.368,0.484-0.494,0.726c-0.046,0.088,0.078,0.2,0.146,0.113c0.137-0.175,0.272-0.342,0.441-0.487
		c0.075-0.073,0.158-0.135,0.249-0.186c0.452-0.177,0.688-0.035,0.705,0.426c-0.087,0.161,0.097,0.384,0.267,0.267
		c0.242-0.166,0.489-0.315,0.795-0.296c0.432,0.026,0.866,0.445,0.43,0.829c-0.186,0.165,0.06,0.491,0.268,0.348
		C43.99,12.169,43.995,11.559,43.642,11.17z"/>
	<path style="fill:#1D1D1B;" d="M55.917,30.296c-0.052-0.14-0.235-0.11-0.252,0.034c-0.054,0.454-0.016,0.847-0.171,1.294
		c-0.062,0.18,0.213,0.248,0.281,0.078C55.947,31.273,56.085,30.744,55.917,30.296z"/>
	<path style="fill:#1D1D1B;" d="M39.428,15.406c-0.462,0.153-0.64,0.599-0.628,1.044c-0.336-0.091-0.689,0.06-0.871,0.33
		c-0.081-0.1-0.182-0.185-0.305-0.247c-0.414-0.208-0.894-0.057-1.184,0.272c-0.318-0.441-0.933-0.714-1.397-0.305
		c-0.44,0.387-0.293,1.16,0.253,1.347c0.113,0.039,0.195-0.148,0.083-0.196c-0.362-0.156-0.405-0.664-0.096-0.89
		c0.38-0.277,0.837,0.049,0.957,0.451c0.043,0.145,0.275,0.2,0.347,0.045c0.364-0.775,1.453-0.292,1.058,0.48
		c-0.004,0.007,0.001,0.014-0.002,0.021c-0.312-0.045-0.627-0.053-0.871-0.011c-0.1,0.017-0.098,0.181,0,0.2
		c0.312,0.059,0.624,0.09,0.927,0.192c0.303,0.102,0.569,0.299,0.882,0.355c0.152,0.027,0.246-0.134,0.147-0.253
		c-0.15-0.18-0.393-0.295-0.655-0.38c0.015-0.038,0.014-0.079,0.025-0.118c0.124,0.069,0.271-0.091,0.163-0.214
		c-0.047-0.109-0.094-0.218-0.141-0.327c-0.021-0.219,0.072-0.336,0.281-0.351c0.239-0.094,0.419-0.049,0.534,0.204
		c0.1,0.22,0.469,0.064,0.392-0.165c-0.101-0.297-0.167-0.705,0.095-0.945c0.294-0.269,0.633-0.027,0.697,0.288
		c0.044,0.215,0.407,0.224,0.444,0C40.662,15.627,39.969,15.226,39.428,15.406z"/>
	<path style="fill:#1D1D1B;" d="M51.242,22.167c-0.058-0.317-0.08-0.736-0.398-0.919c-0.327-0.188-0.632,0.025-0.952,0.105
		c-0.839,0.21-1.656-0.045-2.278-0.632c-0.147-0.139-0.395-0.08-0.451,0.119c-0.149,0.529-0.301,1.058-0.443,1.589
		c-0.048,0.181,0.086,0.289,0.229,0.301c0.138,0.162,0.294,0.306,0.463,0.437c-0.166,0.039-0.292,0.192-0.353,0.385
		c-0.141-0.179-0.341-0.318-0.56-0.384c-0.392-0.117-0.767,0.001-1.053,0.25c-0.188-0.302-0.489-0.544-0.868-0.442
		c-0.066,0.018-0.118,0.058-0.172,0.094c0.035-0.302-0.024-0.623-0.195-0.832c-0.362-0.442-0.985-0.443-1.416-0.148
		c-0.185-0.537-0.609-1.021-1.236-0.733c-0.475,0.218-0.488,0.976,0.058,1.097c0.118,0.026,0.188-0.13,0.083-0.196
		c-0.449-0.281,0.218-0.686,0.51-0.387c0.172,0.176,0.205,0.476,0.214,0.705c0.009,0.231,0.32,0.328,0.442,0.12
		c0.211-0.361,0.854-0.486,1.035-0.01c0.105,0.277-0.028,0.46-0.17,0.654c-0.103-0.044-0.207-0.086-0.295-0.105
		c-0.292-0.063-0.437,0.175-0.387,0.456c0.018,0.099,0.173,0.074,0.173-0.023c-0.001-0.142,0.185-0.061,0.377,0.058
		c0.03,0.069,0.091,0.12,0.172,0.116c0.127,0.091,0.231,0.175,0.24,0.183c0.187,0.158,0.335,0.335,0.56,0.438
		c0.166,0.076,0.341-0.08,0.253-0.253c-0.067-0.131-0.192-0.262-0.334-0.388c0.007-0.031,0.008-0.065-0.011-0.102
		c0.247-0.346,0.434-0.407,0.56-0.181c0.078,0.085,0.129,0.185,0.153,0.301c0.06,0.183,0.277,0.194,0.384,0.05
		c0.219-0.296,0.616-0.429,0.943-0.217c0.225,0.146,0.269,0.38,0.386,0.596c0.066,0.123,0.273,0.115,0.33-0.012
		c0.152,0.085,0.339-0.093,0.198-0.232c-0.259-0.254,0.093-0.439,0.278-0.538c0.037-0.02,0.042-0.058,0.053-0.093
		c0.41,0.245,0.864,0.423,1.325,0.516c0.599,0.122,1.883,0.288,2.233-0.413C51.504,23.121,51.311,22.538,51.242,22.167z
		 M50.225,23.489c-0.323,0.123-0.976-0.009-1.284-0.074c-0.664-0.139-1.211-0.462-1.769-0.804c0.011-0.019,0.032-0.024,0.04-0.048
		c0.122-0.393,0.237-0.788,0.353-1.183c0.322,0.239,0.68,0.415,1.085,0.505c0.266,0.06,0.547,0.081,0.819,0.063
		c0.232-0.015,0.596-0.196,0.8-0.174C51.109,21.867,50.793,23.272,50.225,23.489z"/>
	<path style="fill:#1D1D1B;" d="M41.187,36.877c-0.412,0.204-0.525,0.645-0.428,1.042c-0.262-0.036-0.53,0.014-0.766,0.194
		c-0.163,0.124-0.257,0.29-0.319,0.467c-0.138-0.289-0.382-0.531-0.674-0.622c-0.538-0.166-1.05,0.136-1.29,0.59
		c-0.307-0.396-0.825-0.64-1.263-0.275c-0.428,0.356-0.364,1.094,0.171,1.289c0.122,0.045,0.2-0.147,0.088-0.209
		c-0.313-0.172-0.289-0.652,0.006-0.828c0.456-0.271,0.805,0.323,0.861,0.644c0.04,0.228,0.392,0.167,0.394-0.053
		c0.005-0.508,0.555-1.012,1.057-0.711c0.363,0.218,0.363,0.609,0.28,0.963c-0.292-0.024-0.587-0.017-0.868,0.023
		c-0.123,0.018-0.095,0.227,0.029,0.218c0.649-0.047,1.159,0.119,1.744,0.37c0.2,0.086,0.375-0.185,0.176-0.3
		c-0.126-0.073-0.261-0.124-0.399-0.168c0.022-0.038,0.033-0.083,0.009-0.133c-0.368-0.759,0.591-1.532,1.167-0.843
		c0-0.001,0.001-0.001,0.001-0.002c0.015,0.011,0.026,0.025,0.042,0.035c0.2,0.126,0.449-0.181,0.258-0.334
		c-0.014-0.012-0.032-0.018-0.047-0.029c0.001-0.001,0.002-0.003,0.004-0.005c-0.254-0.183-0.391-0.715-0.055-0.902
		c0.412-0.229,0.606,0.264,0.669,0.561c0.037,0.171,0.269,0.178,0.353,0.046C42.811,37.245,41.762,36.592,41.187,36.877z"/>
	<path style="fill:#1D1D1B;" d="M56.578,30.988c0.288-0.223,0.446-0.643,0.436-1.002c-0.014-0.524-0.345-0.916-0.786-1.131
		c0.365-0.517,0.389-1.251-0.101-1.72c-0.064-0.061-0.147-0.109-0.23-0.156c0.197-0.321,0.161-0.809,0.033-1.131
		c-0.097-0.243-0.249-0.452-0.443-0.604c0.614-0.458,0.379-1.788-0.576-1.902c0.151-0.786-0.295-1.612-1.055-1.825
		c0.825-0.796,0.187-2.105-0.903-2.069c-0.102-0.903-0.978-1.653-1.875-1.425c-0.097-1.063-1.007-2.304-1.95-2.309
		c0.123-0.759-0.3-1.502-1.157-1.591c-0.023-0.002-0.037,0.01-0.054,0.018c0.016-0.015,0.036-0.021,0.047-0.047
		c0.1-0.226,0.2-0.452,0.3-0.678c0.038-0.086,0.038-0.182-0.032-0.252c-0.354-0.353-0.751-0.525-1.228-0.55
		c-0.132-0.634-0.805-1.035-1.406-0.811c-0.22-0.796-1.229-1.024-1.709-0.19c-0.081,0.141,0.12,0.248,0.212,0.124
		c0.38,0.126,0.759,0.252,1.139,0.378c-0.004,0.146,0.178,0.263,0.306,0.175c0.406-0.28,1.061-0.075,1.074,0.52
		c0.002,0.11,0.093,0.212,0.208,0.208c0.282-0.008,0.749-0.008,0.887,0.292c0.105,0.231,0.005,0.316-0.108,0.574
		c-0.034,0.076-0.014,0.143,0.023,0.2c-0.256-0.159-0.574-0.247-0.829-0.242c-0.179,0.004-0.174,0.259,0,0.274
		c0.321,0.028,0.601,0.174,0.783,0.446c0.092,0.138,0.124,0.259,0.241,0.379c0.071,0.073,0.225,0.046,0.244-0.064
		c0.031-0.182-0.019-0.339-0.111-0.477c0.63,0.171,1.055,0.863,0.665,1.475c-0.104,0.163,0.07,0.404,0.26,0.338
		c0.994-0.347,2.054,1.914,1.537,2.556c-0.194,0.241,0.12,0.578,0.348,0.348c0.209-0.212,0.296-0.498,0.316-0.808
		c0.746-0.101,1.633,0.439,1.487,1.295c-0.02,0.115,0.053,0.281,0.199,0.262c0.887-0.115,1.356,0.789,0.66,1.409
		c-0.003,0.003-0.001,0.006-0.004,0.009c-0.254-0.177-0.525-0.318-0.756-0.411c-0.128-0.052-0.213,0.158-0.093,0.222
		c0.334,0.179,0.623,0.403,0.871,0.69c0.221,0.255,0.335,0.592,0.573,0.823c0.092,0.089,0.271,0.029,0.264-0.109
		c-0.011-0.215-0.102-0.416-0.231-0.601c0.494,0.327,0.76,0.977,0.423,1.541c-0.087,0.145,0.028,0.294,0.177,0.309
		c0.512,0.054,0.879,0.517,0.536,0.978c-0.093,0.125-0.172,0.198-0.264,0.284c-0.041-0.007-0.077-0.023-0.119-0.026
		c-0.16-0.01-0.189,0.236-0.037,0.276c0.013,0.003,0.023,0.011,0.035,0.015c0.026,0.073,0.091,0.134,0.177,0.136
		c0.032,0.001,0.054-0.014,0.084-0.016c0.225,0.147,0.38,0.378,0.441,0.658c0.064,0.298-0.031,0.507-0.121,0.752
		c-0.238-0.034-0.481-0.019-0.684,0.075c0.139-0.814-0.795-1.4-1.51-0.874c-0.685-0.614-2.009-0.173-1.754,0.873
		c0.007,0.026,0.025,0.043,0.043,0.061c-0.324-0.029-0.654,0.025-0.883,0.171c-0.082,0.052-0.053,0.192,0.051,0.19
		c0.305-0.008,0.583-0.055,0.887,0.027c0.261,0.071,0.466,0.244,0.721,0.323c0.127,0.039,0.241-0.113,0.173-0.225
		c-0.148-0.242-0.433-0.39-0.746-0.456c0.033-0.019,0.059-0.047,0.067-0.091c0.051-0.287,0.081-0.568,0.37-0.736
		c0.341-0.198,0.699-0.037,0.923,0.24c0.064,0.079,0.205,0.069,0.271,0c0.491-0.515,1.33,0.006,1.01,0.697
		c-0.025,0.054-0.012,0.102,0.012,0.142c-0.002,0.004-0.005,0.006-0.007,0.01c-0.05,0.098,0.034,0.233,0.151,0.196
		c0.405-0.128,0.742-0.367,1.183-0.122c0.571,0.317,0.493,1.095,0.06,1.48c-0.124,0.111-0.053,0.316,0.095,0.36
		c0.55,0.162,0.843,0.614,0.674,1.168c-0.084,0.276-0.281,0.434-0.419,0.679c-0.037,0.066,0.009,0.159,0.09,0.156
		c0.003,0,0.006-0.001,0.009-0.001c0.017,0.033,0.045,0.06,0.087,0.072c0.503,0.145,1.051,0.758,0.571,1.319
		c-0.268,0.313-0.759,0.314-1.088,0.123c-0.184-0.088-0.342,0.171-0.162,0.277c1.002,0.469,0.712,1.897-0.433,1.896
		c-0.132,0-0.13,0.196,0,0.204c0.08,0.005,0.145-0.016,0.219-0.022c-0.081,0.052-0.155,0.117-0.211,0.21
		c-0.005,0.008-0.003,0.017-0.006,0.026c-0.085-0.007-0.132,0.048-0.136,0.112c-0.072-0.153-0.146-0.306-0.215-0.461
		c-0.089-0.201-0.413-0.023-0.301,0.176c0.075,0.133,0.146,0.269,0.219,0.404c-0.01,0.045-0.004,0.095,0.044,0.13
		c0.014,0.01,0.025,0.012,0.038,0.021c0.076,0.143,0.155,0.284,0.231,0.427c0.087,0.161,0.319,0.019,0.243-0.142
		c-0.033-0.071-0.066-0.142-0.099-0.213c0.125-0.051,0.19-0.176,0.17-0.287c0.374-0.103,0.746-0.249,1.065,0.099
		c0.438,0.479-0.04,1.173-0.606,1.187c-0.125,0.003-0.164,0.12-0.132,0.211c0.011,0.082,0.071,0.161,0.162,0.16
		c0.534-0.005,0.72,0.245,0.638,0.731c-0.083,0.487-0.328,0.669-0.839,0.713c-0.204,0.017-0.336,0.317-0.115,0.425
		c1.029,0.501,0.526,1.752-0.418,1.751c-0.134-0.094-0.29-0.158-0.462-0.164c-0.139-0.005-0.206,0.21-0.074,0.272
		c0.342,0.161,0.659,0.414,0.608,0.839c-0.036,0.302-0.262,0.481-0.524,0.551c-0.243-0.183-0.564-0.247-0.841-0.118
		c-0.115-0.491-0.401-0.894-0.891-1.092c0.511-1.214,0.516-2.632,0.132-3.902c0.046-0.025,0.079-0.069,0.073-0.127
		c-0.012-0.083-0.018-0.167-0.019-0.25c-0.044-0.327,0.146-0.386,0.568-0.179c0.141,0.228-0.233,0.669-0.36,0.848
		c-0.139,0.194,0.181,0.378,0.319,0.186c0.041-0.057,0.083-0.122,0.122-0.192c0.204-0.105,0.445-0.027,0.539,0.214
		c0.132,0.337-0.111,0.536-0.464,0.506c-0.206-0.017-0.248,0.312-0.049,0.359c0.55,0.129,1.148-0.497,0.862-1.042
		c-0.154-0.292-0.471-0.37-0.761-0.308c0.175-0.442,0.201-0.957-0.339-1.144c-0.487-0.168-0.678,0.249-0.718,0.651
		c-0.22-0.273-0.458-0.642-0.821-0.435c-0.472,0.268,0.09,1.219,0.205,1.524c0.045,0.121,0.232,0.075,0.197-0.054
		c-0.051-0.19-0.105-0.378-0.16-0.567c-0.04-0.136-0.314-0.73,0.252-0.415c0.134,0.075,0.217,0.282,0.362,0.395
		c-0.008,0.018-0.016,0.036-0.012,0.061c0.562,3.227-1.282,6.544-4.752,5.846c-0.705-0.551-1.117-1.658-0.273-2.322
		c0.526-0.414,1.242-0.44,1.868-0.424c0.592,0.015,1.165,0.048,1.715-0.209c0.977-0.456,1.487-1.459,1.421-2.509
		c-0.015-0.246-0.398-0.25-0.387,0c0.035,0.779-0.263,1.457-0.891,1.92c-0.712,0.526-1.457,0.351-2.254,0.351
		c-0.777-0.001-1.509,0.147-1.987,0.816c-0.57,0.799-0.38,1.712,0.225,2.286c-0.118,0.047-0.159,0.229-0.028,0.312
		c0.706,0.451,1.551,0.531,2.359,0.361c0.002,0.001,0.002,0.004,0.004,0.005c0.252,0.157,0.485,0.392,0.402,0.723
		c-0.095,0.378-0.532,0.481-0.843,0.324c-0.104-0.052-0.251-0.033-0.309,0.081c-0.254,0.499-0.938,0.548-1.308,0.155
		c0.099-0.03,0.195-0.07,0.286-0.126c0.174-0.107,0.061-0.377-0.138-0.328c-0.184,0.045-0.357,0.077-0.525,0.098
		c-0.016-0.024-0.023-0.05-0.042-0.074c-0.087-0.108-0.267-0.033-0.29,0.092c-0.287-0.012-0.565-0.095-0.857-0.305
		c-0.119-0.086-0.27,0.108-0.158,0.204c0.274,0.235,0.635,0.413,1.008,0.477c-0.014,0.248-0.084,0.48-0.349,0.606
		c-0.512,0.243-1.013-0.272-0.867-0.804c0.063-0.231-0.275-0.383-0.392-0.166c-0.193,0.356-0.543,0.391-0.824,0.126
		c-0.116-0.092-0.185-0.213-0.208-0.363c-0.073-0.195-0.035-0.368,0.113-0.519c0.055,0.116,0.204,0.025,0.189-0.08
		c-0.031-0.222-0.241-0.324-0.442-0.211c-0.374,0.211-0.292,0.889-0.15,1.209c0.221,0.5,0.871,0.725,1.312,0.513
		c0.135,0.492,0.56,0.897,1.122,0.84c0.509-0.051,0.918-0.535,0.955-1.028c0.401,0.657,1.394,0.639,1.848,0.053
		c0.483,0.148,1.044,0,1.27-0.496c0.18-0.395,0.05-0.883-0.264-1.164c0.592-0.212,1.14-0.551,1.568-0.971
		c0.337-0.331,0.602-0.707,0.809-1.109c0.364,0.322,0.621,0.626,0.658,1.185c0.014,0.211,0.292,0.306,0.409,0.111
		c0.791,0.601,0.694,0.939-0.293,1.015c-0.202-0.234-0.533,0.104-0.338,0.338c0.652,0.778-0.286,1.839-1.162,1.417
		c-0.051-0.025-0.097-0.017-0.137,0.003c0.009-0.16-0.019-0.319-0.097-0.467c-0.066-0.126-0.292-0.106-0.318,0.042
		c-0.052,0.291-0.036,0.576-0.191,0.84c-0.172,0.293-0.447,0.443-0.742,0.584c-0.135,0.065-0.063,0.271,0.074,0.272
		c0.367,0.003,0.733-0.225,0.979-0.54c0.069,0.269,0.171,0.519,0.033,0.797c-0.19,0.385-0.633,0.526-1.029,0.356
		c-0.17-0.073-0.443,0.052-0.358,0.275c0.308,0.808-0.448,1.418-1.215,1.114c-0.128-0.05-0.2,0.148-0.091,0.215
		c0.009,0.005,0.018,0.006,0.027,0.011c-0.063,0.092-0.071,0.227,0.049,0.286c1.009,0.504,0.546,1.981-0.579,1.601
		c-0.135-0.046-0.263,0.074-0.267,0.204c-0.028,0.818-0.888,1.362-1.638,1.125c0.157-0.07,0.3-0.172,0.41-0.326
		c0.097-0.136-0.09-0.3-0.221-0.221c-0.439,0.261-0.854,0.403-1.329,0.12c-0.197-0.117-0.362,0.177-0.177,0.304
		c0.091,0.062,0.196,0.097,0.299,0.136c-0.422,0.77-1.516,0.871-1.853-0.079c-0.09-0.253-0.522-0.237-0.499,0.068
		c0.027,0.36-1.417,0.821-1.166-0.237c0.401-0.197,0.739-0.499,0.682-0.989c-0.053-0.452-0.565-0.975-0.991-0.591
		c-0.1,0.09-0.06,0.306,0.086,0.326c0.348,0.048,0.587,0.33,0.293,0.663c-0.192,0.217-0.526,0.298-0.79,0.379
		c-0.159,0.049-0.228,0.259-0.1,0.38c0.238,0.226,0.113,0.518-0.124,0.665c-0.261,0.162-0.559,0.084-0.82-0.039
		c-0.19-0.089-0.356,0.181-0.167,0.285c0.03,0.017,0.066,0.026,0.097,0.041c0.002,0.012-0.005,0.021,0,0.033
		c0.09,0.189,0.147,0.388,0.172,0.597c-0.406,1.041-0.932,1.132-1.579,0.272c-0.099-0.253-0.449-0.215-0.473,0.064
		c-0.016,0.191-2.627,0.898-3.126,1.035c-0.039-0.206-0.38-0.271-0.413-0.031c-0.01,0.27-0.11,0.511-0.298,0.723
		c-0.771,0.328-1.235,0.157-1.393-0.514c-0.036-0.135-0.201-0.204-0.321-0.131c-0.282,0.172-0.569,0.299-0.906,0.316
		c-0.185,0.043-0.366,0.025-0.542-0.055c-0.317,0.015-0.42-0.134-0.334-0.428c0.206-0.037,0.403-0.113,0.573-0.242
		c0.127-0.097,0.063-0.344-0.119-0.283c-0.441,0.147-0.826,0.23-1.233,0.179c-0.009-0.018-0.01-0.037-0.021-0.054
		c-0.064-0.109-0.192-0.088-0.253-0.006c-0.096-0.027-0.191-0.047-0.292-0.092c-0.128-0.056-0.226,0.106-0.11,0.188
		c0.103,0.073,0.224,0.123,0.344,0.175c-0.06,0.535-0.192,1.058-0.807,1.207c-0.777,0.188-1.416-0.538-1.272-1.313
		c0.035-0.186-0.198-0.37-0.346-0.201c-0.584,0.665-1.483,0.139-1.311-0.705c0.003-0.017-0.005-0.027-0.007-0.042
		c0.166-0.033,0.326-0.081,0.456-0.172c0.173-0.121,0.075-0.438-0.153-0.363c-0.225,0.073-0.439,0.139-0.671,0.155
		c-0.073-0.129-0.238-0.125-0.309-0.022c-0.212-0.045-0.411-0.128-0.621-0.191c-0.103-0.031-0.224,0.101-0.151,0.196
		c0.126,0.165,0.31,0.27,0.511,0.347c-0.69,0.567-1.199,0.551-1.522-0.058c-0.086-0.111-0.256-0.055-0.321,0.041
		c-0.792,0.327-1.388,0.209-1.787-0.353c-0.079-0.082-0.209-0.074-0.289,0c-0.416-0.096-0.832-0.192-1.249-0.289
		c-0.045-0.103-0.193-0.123-0.281-0.074c-0.37-0.238-0.741-0.475-1.111-0.713c0.001-0.027-0.013-0.045-0.026-0.064
		c0.172,0.071,0.355,0.116,0.555,0.099c0.187-0.016,0.184-0.268,0-0.288c-0.441-0.049-0.778-0.166-1.078-0.506
		c-0.081-0.092-0.242,0.029-0.171,0.132c0.078,0.114,0.17,0.215,0.27,0.306c-0.708,0.302-1.508,0.106-1.556-0.831
		c-0.01-0.2-0.29-0.301-0.395-0.107c-0.548-0.082-0.792-0.305-0.734-0.669c0.005-0.123,0.018-0.245,0.039-0.367
		c0.023-0.179-0.258-0.296-0.369-0.153c-0.675-0.227-0.923-0.551-0.744-0.973c0.007-0.025,0.02-0.049,0.028-0.074
		c0.17,0.079,0.352,0.127,0.541,0.119c0.163-0.006,0.185-0.222,0.037-0.276c-0.166-0.06-0.314-0.112-0.455-0.17
		c0,0,0-0.001,0.001-0.001c0.047-0.115-0.125-0.175-0.191-0.086c-0.162-0.083-0.315-0.188-0.466-0.356
		c-0.115-0.127-0.285,0.056-0.184,0.184c0.03,0.037,0.067,0.071,0.1,0.108c-0.026,0.009-0.049,0.029-0.066,0.061
		c-0.314,0.595-0.957,0.454-1.202-0.134c-0.12-0.287-0.093-0.63-0.076-0.933c0.01-0.174-0.244-0.289-0.36-0.149
		c-0.272,0.33-0.536-0.25-0.546-0.463c-0.012-0.264,0.394-0.647,0.529-0.815c0.134-0.166,0.241-0.322,0.339-0.493
		c0.326-0.116,0.558-0.342,0.67-0.642c0.146,0.137,0.314,0.254,0.514,0.327c1.285,0.47,2.481-0.622,3.634-0.966
		c0.155-0.046,0.25-0.238,0.156-0.383c-0.472-0.726-0.943-1.452-1.415-2.179c-0.106-0.163-0.339-0.168-0.444,0
		c-0.273,0.437-0.659,0.745-1.128,0.919c-0.004-0.039-0.019-0.075-0.063-0.098c-0.162-0.083-0.338-0.159-0.491-0.259
		c-0.242-0.157-0.877-1.038-0.104-1.051c0.15-0.003,0.257-0.171,0.175-0.305c-0.257-0.42-0.225-0.983,0.23-1.273
		c0.306-0.195,0.614-0.126,0.946-0.071c0,0,0.001,0,0.002,0c-0.034,0.246-0.015,0.503,0.061,0.74
		c0.061,0.19,0.341,0.113,0.298-0.082c-0.109-0.496,0.068-0.797,0.286-1.219c0.067-0.129-0.082-0.327-0.221-0.221
		c-0.188,0.144-0.296,0.34-0.365,0.55c-0.092-0.066-0.195-0.108-0.302-0.138c0.087,0.016,0.181,0.02,0.288-0.002
		c0.164-0.033,0.129-0.303-0.04-0.293c-0.377-0.324-0.405-0.538-0.082-0.642c0.123-0.054,0.057-0.229-0.057-0.242
		c0.068-0.069,0.127-0.147,0.171-0.231c0.086,0.161,0.196,0.308,0.373,0.405c0.324,0.179,0.742,0.129,0.964-0.183
		c0.578-0.812-0.376-1.58-0.941-2.132c1.122-2.132,0.673-6.219-2.225-6.555c-1.08-0.125-1.783,0.751-1.657,1.792
		c0.252,2.089,3.157,2.515,3.071,4.734c-0.438-0.102-0.87-0.057-1.296,0.144c-0.378,0.178-0.936,0.557-0.952,1.023
		c-0.013,0.36,0.314,0.573,0.643,0.597c0.211,0.015,0.417-0.069,0.609-0.186c-0.086,0.335,0.065,0.73,0.498,0.834
		c0.076,0.018,0.15,0.014,0.223,0.008c-0.192,0.309-0.057,0.797,0.351,0.914c-0.347-0.076-0.734,0.016-1.012,0.244
		c-0.446,0.367-0.504,0.943-0.311,1.447c-0.326,0.128-0.528,0.468-0.486,0.847c0.061,0.556,0.6,0.84,1.088,1.007
		c-0.39,0.081-0.751-0.001-1.125-0.057c-0.053-0.083-0.166-0.088-0.249-0.03c-0.019-0.002-0.037-0.006-0.056-0.007
		c-0.088-0.006-0.121,0.107-0.068,0.165c0.008,0.009,0.019,0.012,0.027,0.021c-0.189,0.573-0.113,1.25,0.206,1.758
		c-0.182,0.662-0.66,0.684-1.211,0.484c-0.13-0.047-0.186-0.13-0.336-0.151c-0.109-0.015-0.199,0.045-0.311,0.032
		c-0.973-0.107-0.579-0.847-0.293-1.35c0.095-0.167-0.111-0.419-0.285-0.285c-0.318,0.245-0.49,0.218-0.806-0.018
		C9.2,42.73,9.18,42.422,9.522,42.033c0.024-0.028,0.034-0.061,0.034-0.094c0.146,0.231,0.333,0.439,0.565,0.579
		c0.149,0.09,0.267-0.129,0.133-0.228c-0.294-0.216-0.45-0.482-0.524-0.776c0.002-0.005,0.005-0.007,0.007-0.012
		c0.016-0.045,0-0.088-0.026-0.125c-0.038-0.236-0.042-0.484-0.009-0.745c0.02-0.155-0.23-0.216-0.295-0.08
		c-0.133,0.28-0.152,0.577-0.09,0.861c-0.307,0.137-0.668,0.114-0.863-0.235c-0.319-0.57,0.304-1.16,0.748-1.404
		c0.102-0.056,0.049-0.213-0.053-0.216c0.034-0.077,0.056-0.161,0.047-0.258c-0.013-0.153-0.207-0.219-0.295-0.08
		c-0.158,0.251-0.421,0.486-0.745,0.31c-0.373-0.203-0.316-0.741-0.162-1.055c0.055-0.112,0.013-0.257-0.118-0.29
		c-0.805-0.208-0.394-1.254,0.364-1.038c0.105,0.03,0.171-0.123,0.075-0.177c-0.437-0.242-1.03-0.076-1.216,0.413
		c-0.17,0.447,0.084,0.884,0.476,1.087c-0.18,0.534-0.106,1.216,0.484,1.45c0.124,0.049,0.272,0.062,0.421,0.048
		c-0.413,0.396-0.655,0.968-0.302,1.493c0.215,0.32,0.696,0.509,1.079,0.428c-0.825,0.708-0.068,1.848,0.841,1.706
		c-0.245,0.738-0.124,1.483,0.866,1.479c0.407-0.001,0.725,0.229,1.106,0.246c-0.488,0.526-1.219,1.112-0.863,1.83
		c0.157,0.317,0.518,0.47,0.835,0.398c0.023,0.601,0.195,1.264,0.823,1.458c0.467,0.144,1.133-0.081,1.125-0.624
		c0.063,0.056,0.131,0.108,0.201,0.156c-0.27,0.504-0.441,1.14,0.056,1.558c0.234,0.197,0.531,0.252,0.797,0.179
		c-0.016,0.466,0.073,0.951,0.542,1.16c0.235,0.105,0.472,0.089,0.669-0.013c0.295,0.873,1.33,1.396,2.1,0.733
		c-0.089,0.591,0.084,1.13,0.737,1.283c0.216,0.051,0.454-0.086,0.661-0.022c0.237,0.072,0.402,0.378,0.704,0.446
		c0.301,0.068,0.556-0.127,0.807-0.099c0.298,0.033,0.543,0.336,0.853,0.472c0.53,0.232,1.006,0.144,1.371-0.229
		c0.434,0.495,1.031,0.922,1.715,0.623c0.409-0.178,0.619-0.533,0.622-0.922c0.009,0,0.018-0.003,0.027-0.004
		c-0.33,0.995,0.686,1.657,1.494,1.268c0.067,0.794,0.699,1.521,1.566,1.452c0.732-0.058,1.458-0.837,1.369-1.578
		c0.067,0.012,0.134,0.015,0.201,0.021c-0.058,0.176-0.005,0.402,0.173,0.584c0.543,0.559,1.469,0.424,2.098,0.072
		c0.512,1.111,2.143,1,2.378-0.187c0.268,0.146,0.532,0.207,0.864,0.143c0.184-0.036,0.312-0.128,0.486-0.197
		c0.348-0.138,0.497-0.222,0.983-0.259c0.523-0.04,0.962-0.134,1.173-0.506c0.966,1.004,2.733-0.255,2.063-1.392
		c0.297,0.033,0.594-0.023,0.817-0.263c0.072-0.077,0.121-0.165,0.159-0.256c0.101,0.208,0.328,0.361,0.729,0.439
		c0.44,0.086,0.878-0.047,1.109-0.358c0.719,0.787,2.093,0.692,2.412-0.501c0.08,0.006,0.16,0.002,0.24-0.005
		c0.008,0.031,0.025,0.062,0.061,0.085c0.92,0.586,2.137-0.037,2.335-1.051c1.285,0.209,1.973-1.42,1.079-2.173
		c0.631-0.023,1.156-0.565,1.151-1.239c0.414,0.064,0.836-0.052,1.135-0.396c0.359-0.412,0.446-1.164,0.011-1.551
		c-0.045-0.04-0.095-0.051-0.145-0.05c0.03-0.066,0.053-0.134,0.072-0.203c0.009,0.009,0.009,0.021,0.021,0.028
		c1.175,0.711,2.241-0.351,1.961-1.422c0.592-0.074,1.185-0.83,1.138-1.415c-0.01-0.13-0.06-0.237-0.115-0.338
		c0.303-0.11,0.558-0.339,0.642-0.68c0.063-0.258,0.006-0.53-0.126-0.756c0.954-0.079,1.488-1.386,0.767-2.158
		c0.535-0.193,0.991-0.619,0.925-1.246c-0.04-0.376-0.284-0.694-0.599-0.843c0.369-0.284,0.575-0.771,0.364-1.237
		c-0.155-0.344-0.617-0.618-1.037-0.634c0.686-0.326,0.895-1.199,0.437-1.813c0.437-0.008,0.863-0.214,1.035-0.663
		C57.509,31.824,57.131,31.198,56.578,30.988z M14.478,33.649c-0.658-0.803-2.448-1.656-2.363-2.843
		c-0.142-0.425,0.086-0.683,0.684-0.776c0.304-0.511,0.638-0.63,1.002-0.357c0.372,0.123,0.665,0.436,0.914,0.727
		c-0.454-0.04-0.924,0.083-1.306,0.332c-0.106,0.069-0.011,0.233,0.099,0.17c0.48-0.275,0.936-0.29,1.426-0.185
		c0.293,0.414,0.519,0.869,0.654,1.362c0,0,0,0.001,0,0.002c-0.349-0.23-0.784-0.15-1.03,0.205
		c-0.053,0.076,0.068,0.141,0.121,0.071c0.237-0.306,0.602-0.309,0.889-0.098c0.018,0.013,0.036,0.014,0.054,0.011
		c0.078,0.36,0.112,0.719,0.108,1.076c-0.3-0.142-0.613-0.152-0.945-0.066c-0.083,0.022-0.046,0.138,0.035,0.125
		c0.334-0.052,0.607,0.016,0.908,0.142c-0.035,0.627-0.18,1.243-0.436,1.832c-0.078-0.026-0.155,0.016-0.189,0.091
		C15.154,34.782,14.94,34.213,14.478,33.649z M14.335,36.868c0.104-0.035,0.099-0.202-0.007-0.214
		c0.02-0.021,0.044-0.043,0.062-0.063c0.085-0.093,0-0.226-0.118-0.203c-0.233,0.045-0.386,0.183-0.574,0.322
		c-0.15,0.11-0.31,0.257-0.51,0.227c-0.374-0.057-0.262-0.361-0.07-0.563c0.427-0.449,1.056-0.616,1.663-0.606
		c0.091,0.089,0.286,0.079,0.31-0.073c0.006-0.038,0.001-0.072,0.006-0.11c0.003,0.009-0.002,0.018,0.003,0.027
		c0.015,0.029,0.04,0.05,0.057,0.078c-0.02,0.04-0.032,0.083-0.053,0.122c-0.083,0.155,0.135,0.279,0.234,0.137
		c0.001-0.002,0.002-0.005,0.004-0.007c0.281,0.298,0.651,0.525,0.824,0.9c0.143,0.31,0.144,0.9-0.389,0.8
		c-0.426-0.08-0.559-0.66-0.65-1.012c-0.024-0.094-0.158-0.091-0.193-0.017c-0.091-0.036-0.17,0.056-0.158,0.145
		c0.037,0.274,0.2,0.625-0.138,0.815C14.147,37.849,13.738,37.07,14.335,36.868z M15.742,41.994
		c0.348,0.539,0.695,1.077,1.043,1.616c-0.665,0.266-1.281,0.684-1.974,0.841c-0.791,0.179-1.517-0.076-1.729-0.926
		c-0.057-0.227-0.06-0.46-0.066-0.693C13.887,43.245,15.098,42.695,15.742,41.994z"/>
	<path style="fill:#1D1D1B;" d="M32.123,44.823c-0.173-0.148-0.414-0.224-0.672-0.183c-0.335,0.053-0.54,0.276-0.662,0.555
		c-0.026-0.141-0.075-0.278-0.167-0.398c-0.372-0.478-0.983-0.389-1.471-0.157c-0.181-1.048-1.54-1.467-2.084-0.343
		c-0.031,0.064,0.062,0.121,0.097,0.057c0.481-0.868,1.926-0.539,1.653,0.532c-0.04,0.158,0.132,0.294,0.275,0.211
		c0.22-0.126,0.448-0.261,0.713-0.22c0.195-0.063,0.323,0.008,0.384,0.213c0.221,0.16,0.212,0.327-0.027,0.5
		c-0.19,0.104-0.136,0.316,0,0.415c-0.2-0.01-0.398-0.005-0.567,0.02c-0.162,0.024-0.121,0.287,0.038,0.283
		c0.273-0.006,0.542,0.004,0.806,0.086c0.226,0.071,0.418,0.201,0.65,0.25c0.143,0.031,0.232-0.13,0.138-0.238
		c-0.099-0.116-0.23-0.198-0.376-0.261c0.019-0.281,0.051-0.595,0.201-0.841c0.132-0.264,0.344-0.371,0.634-0.32
		c0.219,0.043,0.325,0.173,0.317,0.391c0.002,0,0.004,0,0.006,0.001c0.002,0.036-0.011,0.063-0.006,0.1
		c0.026,0.181,0.341,0.182,0.367,0c0.003-0.019-0.007-0.034-0.006-0.052c0.004,0,0.008,0.001,0.012,0.002
		c-0.018-0.338,0.238-1.012,0.769-0.78c0.269,0.118,0.409,0.362,0.52,0.611c0.079,0.178,0.362,0.083,0.357-0.097
		C33.992,44.032,32.548,44.018,32.123,44.823z"/>
	<path style="fill:#1D1D1B;" d="M22.927,40.905c0.23-0.528,0.228-1.226,0.036-1.665c-0.37-0.844-1.343-1.371-2.25-1.153
		c-0.893,0.215-1.367,1.076-1.108,1.948c0.112,0.377,0.321,0.671,0.586,0.902c-0.538-0.171-1.202,0.049-1.481,0.568
		c-0.293,0.546-0.086,1.173,0.353,1.539c-0.705,0.484-0.655,1.526,0.019,1.917c-0.331,0.216-0.532,0.538-0.286,0.973
		c0.15,0.266,0.406,0.418,0.699,0.497c-0.163,0.458,0.208,1.037,0.835,0.853c0.182-0.053,0.156-0.356-0.046-0.342
		c-0.286,0.043-0.371-0.114-0.28-0.447c0.432,0.001,0.875-0.109,1.175-0.268c0.095-0.05,0.028-0.219-0.074-0.177
		c-0.316,0.13-0.643,0.18-0.969,0.147c0.008-0.114-0.112-0.233-0.252-0.171c-0.053,0.024-0.088,0.059-0.131,0.089
		c-0.041-0.014-0.083-0.02-0.123-0.036c-0.338-0.141-0.718-0.514-0.271-0.822c0.197-0.136,0.466-0.141,0.699-0.161
		c0.095,0.136,0.206,0.263,0.338,0.36c0.165,0.121,0.372-0.149,0.219-0.284c-0.344-0.306-0.33-0.606-0.332-1.021
		c-0.001-0.183-0.276-0.279-0.364-0.098c-0.098,0.204-0.095,0.412-0.049,0.613c-0.125,0.021-0.259,0.058-0.39,0.104
		c-0.673-0.273-0.72-1.281,0.116-1.484c0.175-0.042,0.234-0.331,0.054-0.411c-1.123-0.495-0.399-1.863,0.698-1.341
		c0.194,0.092,0.392-0.11,0.297-0.287c0.408,0.216,0.879,0.34,1.341,0.394c0.059,0.007,0.087-0.039,0.087-0.087
		c0.028,0.034,0.072,0.056,0.124,0.043c0.214-0.053,0.385-0.177,0.521-0.341c0.153,0.149,0.12,0.4-0.116,0.594
		c-0.162,0.133-0.406,0.171-0.606,0.205c-0.299,0.051-0.581,0.079-0.858,0.173c-0.034-0.243-0.067-0.486-0.095-0.73
		c-0.012-0.102-0.155-0.106-0.162,0c-0.021,0.331-0.044,0.661-0.079,0.991c-0.016,0.149,0.166,0.217,0.278,0.159
		c0.621-0.32,1.738-0.078,2.069-0.876C23.262,41.494,23.158,41.096,22.927,40.905z M22.556,40.673
		c-0.031,0.065-0.076,0.116-0.115,0.173c-0.045,0.028-0.077,0.076-0.086,0.129c-0.107,0.139-0.218,0.276-0.301,0.436
		c-0.016,0.03,0,0.058,0.007,0.087c-0.011-0.019-0.028-0.036-0.051-0.043c-0.634-0.206-1.359-0.465-1.762-1.025
		c-0.37-0.514-0.397-1.195-0.019-1.614c-0.003,0.011-0.007,0.02-0.003,0.034c0.156,0.487,0.421,0.943,0.871,1.208
		c0.075,0.044,0.157-0.06,0.094-0.122c-0.349-0.341-0.653-0.659-0.836-1.122c-0.018-0.046-0.067-0.051-0.1-0.033
		c0.138-0.14,0.325-0.247,0.565-0.304c0.026-0.006,0.053-0.005,0.079-0.01c-0.023,0.018-0.035,0.05-0.018,0.083
		c0.248,0.485,0.623,0.966,0.994,1.366c0.081,0.088,0.229-0.026,0.166-0.128c-0.288-0.462-0.655-0.951-1.057-1.317
		c-0.027-0.025-0.061-0.021-0.084-0.004c0.725-0.124,1.518,0.353,1.741,1.056C22.761,39.902,22.724,40.316,22.556,40.673z"/>
	<path style="fill:#1D1D1B;" d="M28.236,40.613c-0.219-0.109-0.466-0.134-0.705-0.096c0.003-0.013,0.014-0.018,0.015-0.033
		c0.041-0.693-0.725-1.282-1.383-1.004c-0.64,0.27-0.739,1.137-0.302,1.622c0.159,0.176,0.398-0.078,0.256-0.256
		c-0.222-0.278-0.158-0.76,0.168-0.936c0.402-0.218,0.808,0.198,0.832,0.575c0.004,0.063,0.031,0.108,0.066,0.142
		c-0.076,0.036-0.152,0.071-0.22,0.121c-0.104,0.077-0.049,0.271,0.095,0.225c0.382-0.082,0.717-0.081,1.103-0.084
		C28.301,40.887,28.371,40.68,28.236,40.613z"/>
	<path style="fill:#1D1D1B;" d="M29.361,37.976c-0.536,0.133-0.797,0.638-0.808,1.147c-0.275-0.098-0.584-0.081-0.81,0.152
		c-0.359,0.37-0.199,0.978,0.216,1.219c0.153,0.089,0.276-0.134,0.137-0.234c-0.581-0.417,0.195-1.193,0.557-0.565
		c0.121,0.21,0.473,0.071,0.398-0.168c-0.114-0.36-0.081-0.898,0.317-1.087c0.422-0.201,0.716,0.138,0.874,0.483
		c0.062,0.136,0.302,0.105,0.328-0.043C30.677,38.246,29.914,37.838,29.361,37.976z"/>
	<path style="fill:#1D1D1B;" d="M38.086,27.343c-0.695-0.051-1.091,0.528-1.329,1.112c-0.282-0.266-0.726-0.321-1.114-0.139
		c-0.31,0.145-0.49,0.382-0.591,0.66c-0.141-0.266-0.39-0.489-0.672-0.561c-0.566-0.144-1.024,0.199-1.261,0.664
		c-0.362-0.372-0.954-0.523-1.407-0.183c-0.599,0.451-0.459,1.411,0.174,1.745c0.144,0.076,0.254-0.123,0.126-0.215
		c-0.381-0.275-0.48-0.968-0.004-1.205c0.409-0.203,0.864,0.071,0.947,0.509c0.055,0.288,0.443,0.183,0.471-0.064
		c0.051-0.442,0.441-0.92,0.915-0.708c0.345,0.154,0.363,0.46,0.32,0.801c-0.019,0.15,0.173,0.225,0.288,0.156
		c0.004,0.074,0.012,0.147,0.019,0.22c-0.327,0.025-0.654,0.125-0.9,0.259c-0.15,0.082-0.047,0.315,0.115,0.273
		c0.287-0.074,0.562-0.128,0.857-0.112c0.047,0.083,0.168,0.09,0.237,0.028c0.173,0.034,0.34,0.076,0.522,0.071
		c0.131-0.004,0.229-0.183,0.116-0.279c-0.165-0.14-0.383-0.197-0.61-0.222c-0.014-0.31-0.008-0.629,0.113-0.908
		c0.135-0.312,0.9-1.04,1.2-0.309c0.072,0.175,0.31,0.194,0.376,0c0.12-0.354,0.291-0.823,0.641-1.023
		c0.46-0.262,0.841-0.006,0.95,0.465c0.035,0.149,0.285,0.2,0.35,0.046C39.177,27.856,38.64,27.384,38.086,27.343z"/>
	<path style="fill:#1D1D1B;" d="M34.794,25.726c-0.55,0.135-1.079,0.105-1.344-0.484c-0.077-0.172-0.365-0.05-0.305,0.129
		c0.052,0.154,0.145,0.296,0.258,0.423c-0.09,0.362-0.426,0.897-0.898,0.63c-0.323-0.183-0.35-0.686-0.1-0.929
		c0.14-0.137,0.037-0.398-0.162-0.392c-0.351,0.01-0.715,0.038-1.023-0.169c-0.48-0.324-0.223-1.299,0.419-1.046
		c0.111,0.043,0.16-0.12,0.076-0.18c-0.596-0.425-1.316,0.213-1.246,0.881c0.07,0.663,0.761,1.001,1.389,1.013
		c-0.144,0.487,0.004,1.048,0.525,1.277c0.59,0.259,1.314-0.191,1.386-0.793c0.38,0.213,0.845,0.251,1.195-0.065
		C35.101,25.898,34.957,25.687,34.794,25.726z"/>
	<path style="fill:#1D1D1B;" d="M28.151,20.211c-0.602,0.095-0.979,0.644-0.993,1.213c-0.282-0.056-0.584,0.017-0.811,0.237
		c-0.262,0.255-0.317,0.587-0.269,0.92c-0.176-0.224-0.431-0.396-0.726-0.446c-0.731-0.125-1.315,0.411-1.68,0.989
		c-0.424-0.197-0.92-0.107-1.243,0.282c-0.345,0.416-0.304,0.915-0.107,1.366c-0.326,0.087-0.628,0.287-0.737,0.538
		c-0.356,0.823,0.659,1.57,1.387,1.193c0.111-0.058,0.034-0.25-0.087-0.206c-0.537,0.198-1.35-0.488-0.813-0.985
		c0.157-0.145,0.31-0.171,0.461-0.151c0.059,0.089,0.121,0.174,0.186,0.253c0.084,0.102,0.237-0.002,0.222-0.114
		c0.052,0.026,0.103,0.051,0.155,0.076c0,0.113,0.009,0.226,0.03,0.331c0.034,0.164,0.294,0.126,0.29-0.039
		c-0.01-0.46,0.168-0.699,0.349-1.092c0.057-0.124-0.065-0.281-0.2-0.2c-0.197,0.12-0.317,0.311-0.39,0.522
		c-0.132-0.123-0.321-0.169-0.522-0.169c-0.046-0.118-0.091-0.237-0.099-0.369c-0.03-0.477,0.424-1.344,1.049-0.811
		c0.104,0.089,0.261,0.082,0.336-0.043c0.182-0.306,0.401-0.614,0.719-0.794c0.466-0.263,0.966-0.097,1.146,0.326
		c-0.323,0.08-0.637,0.208-0.908,0.339c-0.143,0.069-0.04,0.322,0.11,0.26c0.292-0.12,0.578-0.174,0.865-0.212
		c-0.001,0.014,0.003,0.026,0.002,0.041c-0.013,0.186,0.277,0.267,0.357,0.097c0.029-0.062,0.045-0.124,0.059-0.187
		c0.025-0.003,0.05-0.007,0.075-0.01c0.003,0.006,0.007,0.013,0.01,0.019c0.067,0.113,0.244,0.058,0.253-0.054
		c0.071-0.01,0.14-0.016,0.212-0.028c0.15-0.027,0.131-0.246,0-0.285c-0.107-0.031-0.218-0.044-0.33-0.049
		c-0.061-0.18-0.103-0.365-0.073-0.554c0.057-0.359,0.456-0.863,0.837-0.457c0.154,0.164,0.441-0.006,0.378-0.22
		c-0.124-0.417,0.073-0.93,0.537-1.014c0.573-0.103,0.771,0.384,0.946,0.824c0.069,0.174,0.3,0.185,0.366,0
		C29.766,20.799,28.842,20.101,28.151,20.211z"/>
	<path style="fill:#1D1D1B;" d="M17.442,25.439c0.007-0.105,0.021-0.21,0.066-0.31c0.082-0.183,0.225-0.302,0.389-0.39
		c0.095,0.008,0.192,0.007,0.29-0.013c0.152-0.031,0.164-0.257,0.036-0.323c-0.004-0.004-0.01-0.006-0.015-0.009
		c-0.008-0.003-0.012-0.012-0.021-0.014c-0.008-0.001-0.015-0.004-0.022-0.006c-0.011-0.004-0.018-0.013-0.031-0.014
		c-0.005,0-0.01,0.002-0.015,0.002c-0.319-0.07-0.616-0.238-0.706-0.575c-0.116-0.436,0.271-0.922,0.729-0.957
		c0.026-0.002,0.026-0.024,0.038-0.039c0.168,0.051,0.34,0.063,0.501,0.018c0.136-0.038,0.18-0.25,0.042-0.318
		c-0.244-0.119-0.498-0.15-0.727-0.309c-0.223-0.155-0.357-0.38-0.533-0.58c-0.075-0.086-0.229-0.018-0.225,0.093
		c0.007,0.187,0.087,0.375,0.206,0.544c-0.242,0.209-0.455,0.453-0.829,0.363c-0.493-0.119-0.587-0.786-0.265-1.122l-0.007-0.007
		c0.011-0.014,0.027-0.018,0.037-0.033c0.123-0.182-0.162-0.405-0.307-0.236c-0.289,0.346-0.84,0.248-1.036-0.139
		c-0.247-0.485,0.088-1.017,0.494-1.294c0.118-0.08,0.016-0.256-0.112-0.191c-0.661,0.332-1.199,1.212-0.655,1.889
		c0.256,0.318,0.658,0.419,1.021,0.342c-0.083,0.423,0.046,0.87,0.466,1.118c0.275,0.162,0.65,0.16,0.964,0.04
		c-0.189,0.18-0.308,0.434-0.299,0.753c0.011,0.383,0.23,0.7,0.534,0.876c-0.236,0.169-0.424,0.41-0.467,0.671
		c-0.324-0.092-0.664-0.144-1.018-0.132c-0.086,0.003-0.127,0.063-0.136,0.128c-0.059-0.119-0.249-0.181-0.347-0.067
		c-0.103,0.119-0.254,0.295-0.396,0.493c-0.314-0.21-0.767-0.21-1.091-0.02c-0.165,0.096-0.275,0.237-0.36,0.39
		c-0.193-0.265-0.48-0.464-0.801-0.495c-0.672-0.065-1.203,0.531-1.225,1.159c-0.372-0.141-0.793-0.126-1.097,0.195
		c-0.395,0.418-0.287,1.047,0.104,1.415c0.088,0.083,0.211-0.042,0.132-0.132c-0.606-0.689,0.347-1.705,0.97-0.974
		c0.137,0.161,0.384-0.013,0.338-0.197c-0.114-0.455,0.178-1.04,0.706-1.027c0.577,0.014,0.707,0.643,0.634,1.082
		c-0.002,0.012,0.005,0.021,0.005,0.032c-0.323,0.015-0.648,0.052-0.934,0.068c-0.183,0.01-0.183,0.275,0,0.285
		c0.579,0.032,1.311,0.151,1.872-0.002c0.139-0.038,0.139-0.244,0-0.281c-0.167-0.045-0.351-0.063-0.541-0.069
		c0.092-0.208,0.09-0.433,0.032-0.648c0.058-0.252,0.212-0.475,0.49-0.562c0.21-0.066,0.397-0.013,0.583,0.06
		c-0.184,0.323-0.283,0.666-0.085,0.919c0.206,0.264,0.674,0.237,0.955,0.328c0.656,0.214,1.167,0.668,1.525,1.248
		c0.07,0.113,0.222,0.159,0.339,0.089c0.464-0.278,0.915-0.443,1.452-0.51c0.156-0.019,0.266-0.136,0.229-0.301
		C19.08,26.691,18.368,25.86,17.442,25.439z M17.595,28.031c-0.356-0.516-0.813-0.933-1.399-1.188
		c-0.248-0.108-0.716-0.112-0.832-0.346c-0.112-0.227,0.359-0.823,0.469-1.094c0.013-0.03,0.002-0.057-0.002-0.085
		c0.013,0.06,0.052,0.115,0.133,0.117c0.389,0.013,0.754,0.103,1.093,0.246c0.014,0.029,0.018,0.058,0.037,0.086
		c0.055,0.082,0.185,0.106,0.264,0.052c0.683,0.382,1.203,1.022,1.431,1.811C18.368,27.703,17.975,27.832,17.595,28.031z"/>
	<path style="fill:#1D1D1B;" d="M22.813,34.395c-0.076-0.168-0.309-0.096-0.36,0.047c-0.138,0.387-0.184,0.779-0.663,0.891
		c-0.527,0.124-0.948-0.352-0.955-0.855c-0.001-0.056-0.024-0.093-0.055-0.118c0.167-0.05,0.326-0.123,0.461-0.252
		c0.117-0.113-0.031-0.267-0.162-0.21c-0.283,0.124-0.562,0.193-0.837,0.185c-0.014-0.005-0.027-0.005-0.042-0.006
		c-0.22-0.014-0.438-0.073-0.653-0.219c-0.162-0.11-0.301,0.145-0.151,0.258c0.192,0.144,0.421,0.227,0.656,0.277
		c0.022,0.32-0.03,0.78-0.37,0.893c-0.266-0.04-0.532-0.08-0.798-0.12c-0.228-0.232-0.306-0.487-0.234-0.764
		c0.022-0.17-0.231-0.261-0.338-0.14c-0.57,0.651-1.629,0.454-1.985-0.313c-0.065-0.139-0.306-0.04-0.251,0.106
		c0.341,0.893,1.423,1.204,2.195,0.743c0.104,0.588,0.579,1.104,1.244,1.009c0.631-0.09,1.082-0.784,0.928-1.38
		c0.04-0.002,0.077-0.019,0.117-0.024c-0.016,0.022-0.035,0.042-0.039,0.074c-0.095,0.732,0.51,1.432,1.268,1.36
		C22.44,35.778,23.108,35.047,22.813,34.395z"/>
</g>
<g>
</g>
<g>
</g>
<g>
</g>
<g>
</g>
<g>
</g>
<g>
</g>
<g>
</g>
<g>
</g>
<g>
</g>
<g>
</g>
<g>
</g>
<g>
</g>
<g>
</g>
<g>
</g>
<g>
</g>
</svg>
