<?xml version="1.0" encoding="iso-8859-1"?>
<!-- Generator: Adobe Illustrator 18.0.0, SVG Export Plug-In . SVG Version: 6.00 Build 0)  -->
<!DOCTYPE svg PUBLIC "-//W3C//DTD SVG 1.1//EN" "http://www.w3.org/Graphics/SVG/1.1/DTD/svg11.dtd">
<svg version="1.1" id="Capa_1" xmlns="http://www.w3.org/2000/svg" xmlns:xlink="http://www.w3.org/1999/xlink" x="0px" y="0px"
	 viewBox="0 0 53.658 53.658" style="enable-background:new 0 0 53.658 53.658;" xml:space="preserve">
<g>
	<path style="fill:#1D1D1B;" d="M47.77,2.094c-2.058-1.639-4.997-0.567-7.346-0.965c-0.058-0.01-0.101,0.014-0.134,0.048
		c-2.048-0.298-3.876-1.379-6.021-1.144c-2.88,0.316-5.272,2.127-8.251,0.951c-0.099-0.039-0.174,0.065-0.167,0.154
		c-1.131-0.658-2.458-0.923-3.852-0.944c-1.337-0.02-8.202,1.529-10.499,1.398c0.006-0.065-0.023-0.131-0.101-0.148
		c-0.197-0.043-0.41-0.078-0.628-0.109c-0.007-0.02-0.034-0.033-0.034-0.055c-0.001-0.115-0.165-0.11-0.176,0
		c-0.001,0.009-0.002,0.018-0.003,0.026c-2.324-0.278-5.52,0.179-5.731,2.979C4.688,6.128,6.226,7.331,7.849,7.388
		c0.214,1.351,0.464,2.7,0.73,4.047c-0.105,0.107-0.048,0.236,0.062,0.299c3.188,15.887,10.089,31.333,22.713,41.877
		c0.184,0.154,0.452-0.11,0.266-0.266c-0.008-0.007-0.016-0.015-0.024-0.022c0.001,0,0.003,0,0.004,0
		c0.087,0.047,0.219-0.016,0.186-0.14c-0.002-0.009-0.003-0.018-0.006-0.026c0.271-0.44,0.664-0.626,1.024-0.99
		c0.093-0.094,0.032-0.303-0.118-0.285c-0.101,0.012-0.194,0.044-0.283,0.084C33.483,36.3,39.531,22.233,45.95,8.098
		c0.064-0.141-0.007-0.272-0.111-0.335c1.125-0.207,2.082-0.836,2.693-2.148C49.118,4.355,48.87,2.971,47.77,2.094z M9.134,11.552
		c1.998-1.406,4.846-0.444,5.286,2.095c0.417,2.407-1.609,3.886-3.778,3.914C10.093,15.572,9.594,13.567,9.134,11.552z
		 M31.469,53.211c-10.976-9.28-16.997-21.927-20.748-35.376c2.571,0.503,4.768-2.116,4.098-4.626
		c-0.698-2.616-3.666-3.469-5.791-2.114C8.75,9.859,8.482,8.62,8.232,7.379c0.332-0.026,0.663-0.096,0.979-0.226
		c0.021,0.041,0.059,0.074,0.12,0.092c3.209,0.911,6.608,0.742,9.817-0.059c0.038-0.01,0.051-0.037,0.052-0.066
		c0.887,0.319,1.766,0.664,2.779,0.867C23.84,8.358,25.728,8.189,27.597,8c4.358-0.441,8.656-0.831,13.04-0.935
		c0.095-0.002,0.121-0.094,0.089-0.159c1.13,0.418,2.321,0.78,3.442,0.898c-3.406,8.168-6.765,16.37-9.598,24.758
		c-1.245,3.686-2.779,7.66-3.459,11.661c-2.164,0.059-4.41-2.244-3.279-4.435c0.87-1.685,2.691-1.988,4.34-1.5
		c0.246,0.073,0.372-0.268,0.169-0.402c-1.859-1.219-4.648,0.252-5.212,2.251c-0.679,2.405,1.606,4.636,3.93,4.424
		c-0.452,2.868-0.453,5.746,0.436,8.537c-0.008,0.022-0.022,0.046-0.029,0.067C31.46,53.183,31.468,53.196,31.469,53.211z
		 M45.525,7.85C39.115,21.857,32.576,36.41,32.111,52.056c-0.001,0.034,0.015,0.055,0.03,0.076c-0.185,0.151-0.34,0.351-0.46,0.566
		c-1.803-7.721,1.997-16.302,4.557-23.472c2.57-7.2,5.507-14.259,8.397-21.334c0.009-0.021-0.004-0.034-0.002-0.053
		c0.328,0.014,0.646-0.005,0.955-0.044C45.566,7.815,45.539,7.818,45.525,7.85z M47.364,6.348c-2.806,2.705-7.176-0.48-10.158-1.072
		c-0.144-0.029-0.201,0.172-0.061,0.22c0.915,0.314,2.119,0.859,3.411,1.345c-4.387-0.206-8.605,0.243-12.959,0.705
		c-2.508,0.266-4.603,0.294-7.099-0.412c-1.876-0.53-2.651-1.154-4.588-1.014c-0.172,0.013-0.176,0.266,0,0.271
		C17.076,6.422,18.048,6.711,19,7.047c-3.223,0.521-6.28,0.331-9.493-0.162C9.485,6.819,9.424,6.766,9.345,6.795
		C7.384,7.506,4.522,5.927,5.581,3.56c0.903-2.018,3.234-1.915,5.144-1.848c1.515,0.935,4.162,0.168,5.726-0.166
		c3.772-0.806,7.577-1.79,10.693,1.159c0.171,0.162,0.396-0.077,0.254-0.254c-0.369-0.456-0.788-0.823-1.239-1.125
		c2.183,0.889,3.943,0.271,6.221-0.337c2.34-0.624,3.892-0.285,6.146,0.379c1.119,0.33,1.808,0.456,2.933,0.278
		c0.017-0.003,0.021-0.017,0.035-0.023c0.691,0.085,1.373,0.103,2.117,0.088c0.751-0.015,1.533-0.058,2.273,0.113
		C47.74,2.253,48.866,4.9,47.364,6.348z"/>
	<path style="fill:#1D1D1B;" d="M30.437,39.099c-0.457-0.167-0.963,0-1.357,0.25c-0.158,0.1-0.017,0.346,0.147,0.252
		c0.39-0.224,0.743-0.215,1.173-0.226C30.564,39.371,30.583,39.153,30.437,39.099z"/>
	<path style="fill:#1D1D1B;" d="M30.763,39.938c-0.121,0.295-0.503,0.438-0.725,0.167c-0.095-0.116-0.299,0.039-0.21,0.162
		c0.323,0.444,1.201,0.339,1.191-0.294C31.016,39.816,30.816,39.808,30.763,39.938z"/>
	<path style="fill:#1D1D1B;" d="M29.509,41.315L29.4,41.081c0.128-0.009,0.13-0.199,0-0.2c-0.297-0.004-0.584,0.277-0.414,0.582
		c0.152,0.273,0.518,0.242,0.679,0.009C29.733,41.375,29.603,41.261,29.509,41.315z"/>
	<path style="fill:#1D1D1B;" d="M24.56,32.305c-1.476-0.985-3.638-0.431-4.454,1.124c-0.009,0.017,0,0.03-0.004,0.047
		c-1.294,0.651-0.686,2.956,0.03,3.913c1.156,1.545,3.458,1.965,4.929,0.588C26.546,36.586,26.251,33.435,24.56,32.305z
		 M21.198,37.799c-0.927-0.667-2.288-3.214-0.926-4.07c0.073,0.011,0.148-0.003,0.199-0.087c0.004-0.007,0.01-0.013,0.014-0.02
		c0.062-0.026,0.119-0.056,0.189-0.077c0.102-0.03,0.102-0.175,0.021-0.215c0.688-0.85,1.84-1.246,2.923-0.941
		c1.749,0.494,2.356,3.012,1.623,4.52C24.498,38.439,22.531,38.758,21.198,37.799z"/>
	<path style="fill:#1D1D1B;" d="M21.546,34.821c-0.472,0.094-0.517-0.079-0.137-0.519c0.151-0.003,0.148-0.221,0-0.232
		c-0.376-0.028-0.751,0.308-0.612,0.704c0.133,0.381,0.585,0.434,0.875,0.21C21.77,34.908,21.645,34.773,21.546,34.821z"/>
	<path style="fill:#1D1D1B;" d="M22.407,33.947c-0.141-0.006-0.134,0.199,0,0.214c0.303,0.125,0.448,0.317,0.436,0.578
		c0.007,0.13,0.182,0.153,0.224,0.03C23.22,34.329,22.825,33.964,22.407,33.947z"/>
	<path style="fill:#1D1D1B;" d="M23.471,33.352c-0.161-0.097-0.318-0.191-0.471-0.299c-0.189-0.134-0.378,0.228-0.13,0.308
		c0.176,0.057,0.343,0.126,0.514,0.197C23.504,33.608,23.577,33.416,23.471,33.352z"/>
	<path style="fill:#1D1D1B;" d="M24.401,35.135c-0.113-0.137-0.226-0.274-0.339-0.411c0.006-0.201-0.329-0.192-0.306,0
		c0.044,0.364,0.272,0.575,0.645,0.572C24.507,35.296,24.503,35.145,24.401,35.135z"/>
	<path style="fill:#1D1D1B;" d="M23.317,36.284c-0.326,0.127-0.857-0.153-0.664-0.571c0.044-0.095-0.079-0.167-0.14-0.082
		c-0.396,0.561,0.416,1.36,0.934,0.876C23.54,36.421,23.444,36.235,23.317,36.284z"/>
	<path style="fill:#1D1D1B;" d="M22.325,36.806c-0.268,0.059-0.627,0.046-0.61-0.348c0.006-0.138-0.223-0.174-0.245-0.033
		c-0.082,0.517,0.624,1.067,0.992,0.559C22.528,36.892,22.419,36.785,22.325,36.806z"/>
	<path style="fill:#1D1D1B;" d="M33.589,24.179c-1.101-1.67-3.472-1.924-5.007-0.769c-1.906-0.178-2.075,2.886-1.539,4.159
		c0.846,2.008,3.21,2.845,5.158,1.895C34.136,28.521,34.77,25.97,33.589,24.179z M32.364,28.814
		c-1.324,0.89-3.216,0.725-4.295-0.469c-0.516-0.571-0.83-1.346-0.894-2.11c-0.07-0.837,0.184-2.125,1.054-2.476
		c-0.003,0.142,0.187,0.262,0.334,0.147c1.367-1.066,3.585-1.036,4.607,0.518C34.089,25.822,33.774,27.866,32.364,28.814z"/>
	<path style="fill:#1D1D1B;" d="M29.176,24.631c-0.511-0.148-1.132,0.361-0.858,0.894c0.051,0.099,0.208,0.051,0.206-0.056
		c-0.005-0.339,0.166-0.719,0.594-0.628C29.255,24.87,29.312,24.67,29.176,24.631z"/>
	<path style="fill:#1D1D1B;" d="M30.66,23.856c-0.676,0.014-1.037,0.722-1.279,1.265c-0.078,0.007-0.156,0.097-0.1,0.174
		c0.337,0.466,1.247,0.329,1.232-0.32c-0.003-0.118-0.168-0.139-0.204-0.027c-0.104,0.324-0.496,0.492-0.766,0.264
		c0.145-0.307,0.301-0.632,0.563-0.855c0.371-0.315,1.229-0.313,1.159,0.367c-0.017,0.168,0.269,0.208,0.297,0.04
		C31.654,24.226,31.178,23.845,30.66,23.856z"/>
	<path style="fill:#1D1D1B;" d="M32.531,25.906c-0.069,0.118-0.168,0.205-0.295,0.262c-0.237,0.092-0.278-0.016-0.124-0.324
		c0.103,0.039,0.178-0.134,0.076-0.18c-0.379-0.171-0.849,0.274-0.541,0.628c0.331,0.379,1.059,0.167,1.117-0.323
		C32.78,25.83,32.595,25.822,32.531,25.906z"/>
	<path style="fill:#1D1D1B;" d="M31.428,27.638c-0.285-0.072-0.574-0.079-0.866-0.085c-0.018-0.193-0.036-0.385-0.054-0.577
		c-0.014-0.153-0.246-0.159-0.243,0c0.005,0.24,0.01,0.48,0.014,0.721c0.002,0.083,0.066,0.143,0.148,0.148
		c0.337,0.02,0.667,0.046,1-0.009C31.53,27.818,31.52,27.661,31.428,27.638z"/>
	<path style="fill:#1D1D1B;" d="M31.652,27.694c-0.039,0-0.039,0.06,0,0.06C31.691,27.753,31.691,27.694,31.652,27.694z"/>
	<path style="fill:#1D1D1B;" d="M29.477,26.602c-0.178-0.113-0.35,0.182-0.165,0.282c0.172,0.218,0.12,0.364-0.154,0.44
		c-0.142-0.011-0.178,0.231-0.034,0.252C29.672,27.657,29.942,26.898,29.477,26.602z"/>
	<path style="fill:#1D1D1B;" d="M28.57,26.084c-0.164,0.088-0.328,0.177-0.491,0.265c-0.166,0.09-0.02,0.325,0.146,0.249
		c0.17-0.078,0.339-0.157,0.509-0.235C28.92,26.277,28.756,25.984,28.57,26.084z"/>
	<path style="fill:#1D1D1B;" d="M22.07,18.708c-1.496-1.85-4.061-1.804-5.843-0.426c-0.01,0.008-0.008,0.02-0.015,0.029
		c-1.523,0.911-1.702,3.024-0.679,4.46c1.215,1.706,3.86,2.617,5.713,1.44C23.157,22.997,23.465,20.435,22.07,18.708z
		 M21.142,23.691c-3.194,2.239-7.914-2.577-4.763-5.16c0.012-0.004,0.024,0.002,0.036-0.006c1.512-1.031,3.629-1.211,5.019,0.156
		C22.865,20.089,22.832,22.506,21.142,23.691z"/>
	<path style="fill:#1D1D1B;" d="M42.445,11.44c-1.843-2.026-5.175-1.589-6.274,0.982c-1.115,2.61,0.872,5.55,3.716,5.455
		c0.115-0.004,0.153-0.188,0.028-0.211c-2.18-0.391-4.087-2.192-3.426-4.577c0.708-2.556,3.841-3.202,5.592-1.286
		C42.305,12.048,42.667,11.684,42.445,11.44z"/>
	<path style="fill:#1D1D1B;" d="M32.083,12.671c-0.418-2.051-2.53-3.297-4.512-2.783c-0.12,0.031-0.099,0.231,0.03,0.221
		c1.564-0.118,3.281,0.67,3.845,2.213c0.618,1.69-0.384,3.767-2.145,4.279c-1.594,0.463-3.542-0.543-4.04-2.141
		c-0.535-1.715,0.495-3.446,2.067-4.132c0.256-0.112,0.07-0.563-0.192-0.456c-1.807,0.737-2.98,2.786-2.359,4.722
		c0.594,1.85,2.783,3.034,4.656,2.483C31.245,16.543,32.459,14.521,32.083,12.671z"/>
	<path style="fill:#1D1D1B;" d="M38.69,13.408c-0.123,0.222-0.575,0.447-0.662,0.029c-0.031-0.149-0.287-0.118-0.269,0.036
		c0.079,0.689,1.296,0.64,1.16-0.036C38.897,13.331,38.74,13.318,38.69,13.408z"/>
	<path style="fill:#1D1D1B;" d="M38.324,12.744c0.028,0.111,0.19,0.063,0.169-0.047c-0.078-0.417,0.43-0.244,0.539-0.132
		c0.064,0.067,0.205,0.02,0.195-0.081C39.171,11.896,38.184,12.191,38.324,12.744z"/>
	<path style="fill:#1D1D1B;" d="M41.016,12.365c-0.113,0.108-0.526,0.211-0.478-0.104c0.025-0.166-0.208-0.24-0.258-0.071
		c-0.182,0.624,0.935,0.899,0.97,0.272C41.257,12.339,41.097,12.287,41.016,12.365z"/>
	<path style="fill:#1D1D1B;" d="M39.305,14.713c0.012,0.19,0.301,0.194,0.299,0c-0.005-0.413,0.365-0.199,0.497-0.136
		c0.107,0.051,0.201-0.032,0.186-0.143C40.209,13.867,39.273,14.194,39.305,14.713z"/>
	<path style="fill:#1D1D1B;" d="M39.216,15.577c-0.145,0.18-0.325,0.347-0.585,0.282c-0.481-0.12-0.387-0.77,0.009-0.931
		c0.08-0.033,0.048-0.163-0.036-0.132c-0.442,0.161-0.718,0.746-0.389,1.147c0.348,0.423,1.081,0.283,1.274-0.206
		C39.548,15.587,39.317,15.452,39.216,15.577z"/>
	<path style="fill:#1D1D1B;" d="M29.247,14.9c-0.326,0.424-1.03,0.669-1.348,0.059c-0.044-0.085-0.194-0.026-0.158,0.066
		c0.27,0.688,1.645,0.813,1.712-0.069C29.462,14.833,29.306,14.823,29.247,14.9z"/>
	<path style="fill:#1D1D1B;" d="M28.818,14.199c-0.032,0.123,0.151,0.172,0.19,0.052c0.099-0.308,0.384-0.484,0.687-0.336
		c0.246,0.12,0.305,0.283,0.333,0.553c0.012,0.112,0.162,0.141,0.2,0.027C30.535,13.58,29.068,13.247,28.818,14.199z"/>
	<path style="fill:#1D1D1B;" d="M30.022,11.939c-0.047-0.121-0.214-0.132-0.258,0c-0.08,0.245-0.104,0.446-0.371,0.557
		c-0.384,0.159-0.694-0.14-0.687-0.535c0.003-0.167-0.243-0.162-0.257,0c-0.04,0.484,0.325,0.959,0.841,0.927
		C29.73,12.861,30.198,12.39,30.022,11.939z"/>
	<path style="fill:#1D1D1B;" d="M28.176,10.869c-0.333-0.061-0.662-0.023-0.999,0.001c-0.071,0.005-0.128,0.055-0.129,0.129
		c-0.005,0.241-0.01,0.482-0.015,0.722c-0.003,0.135,0.195,0.131,0.207,0c0.018-0.198,0.036-0.396,0.054-0.595
		c0.297-0.001,0.593,0.002,0.881-0.074C28.262,11.029,28.271,10.887,28.176,10.869z"/>
	<path style="fill:#1D1D1B;" d="M27.997,12.951c-0.18-0.441-0.646-0.714-1.072-0.881c-0.037-0.015-0.079,0.004-0.107,0.028
		c-0.194,0.172-0.273,0.363-0.249,0.624c0.009,0.098,0.153,0.101,0.155,0c0.012-0.912,0.898,0.174,1.095,0.334
		C27.889,13.114,28.042,13.062,27.997,12.951z"/>
	<path style="fill:#1D1D1B;" d="M27.502,14.151c-0.182,0.377-0.832,0.536-1.021,0.05c-0.04-0.103-0.197-0.066-0.17,0.047
		c0.168,0.695,1.333,0.708,1.43-0.032C27.758,14.089,27.555,14.041,27.502,14.151z"/>
	<path style="fill:#1D1D1B;" d="M27.203,13.448c-0.286-0.421-0.812-0.576-1.302-0.538c-0.074,0.005-0.076,0.118,0,0.116
		c0.505-0.011,0.809,0.198,1.172,0.523C27.14,13.607,27.259,13.529,27.203,13.448z"/>
	<path style="fill:#1D1D1B;" d="M17.578,20.371c-0.358,0.224-0.902,0.357-1.104-0.169c-0.049-0.126-0.243-0.079-0.207,0.057
		c0.16,0.598,1.215,0.934,1.461,0.227C17.757,20.401,17.651,20.325,17.578,20.371z"/>
	<path style="fill:#1D1D1B;" d="M18.243,19.671c-0.242-0.354-0.64-0.412-0.977-0.161c-0.076,0.057-0.036,0.195,0.069,0.164
		c0.281-0.085,0.525-0.015,0.754,0.151C18.18,19.891,18.305,19.762,18.243,19.671z"/>
	<path style="fill:#1D1D1B;" d="M20.526,19.655c-0.329,0.627-1.257,0.65-1.296-0.185c-0.007-0.151-0.235-0.153-0.236,0
		c-0.008,1.052,1.537,1.372,1.763,0.282C20.785,19.619,20.596,19.522,20.526,19.655z"/>
	<path style="fill:#1D1D1B;" d="M20.404,19.059c-0.14-0.014-0.175,0.228-0.034,0.249c0.606,0.088,0.824,0.586,0.822,1.139
		c0,0.107,0.169,0.169,0.216,0.059C21.703,19.817,21.077,19.126,20.404,19.059z"/>
	<path style="fill:#1D1D1B;" d="M21.14,21.89c-0.245,0.097-0.473,0.218-0.734,0.067c-0.34-0.197-0.372-0.598-0.139-0.903
		c0.068-0.089-0.081-0.202-0.155-0.119c-0.759,0.851,0.586,1.986,1.143,1.106C21.299,21.969,21.224,21.857,21.14,21.89z"/>
	<path style="fill:#1D1D1B;" d="M19.349,22.378c-0.435,0.256-1.194-0.009-1.059-0.614c0.034-0.152-0.188-0.215-0.234-0.064
		c-0.238,0.784,0.932,1.561,1.455,0.84C19.582,22.44,19.445,22.321,19.349,22.378z"/>
	<path style="fill:#1D1D1B;" d="M16.842,22.173c-0.076,0.06-0.004,0.163,0.071,0.171c0.194-0.002,0.326,0.115,0.396,0.351
		c-0.018,0.106,0.12,0.143,0.159,0.044C17.617,22.362,17.198,21.891,16.842,22.173z"/>
	<path style="fill:#1D1D1B;" d="M12.026,15.693c-0.169,0.402-0.413,0.684-0.875,0.691c-0.136,0.002-0.136,0.208,0,0.211
		c0.519,0.012,1.042-0.325,1.072-0.875C12.23,15.596,12.066,15.597,12.026,15.693z"/>
	<path style="fill:#1D1D1B;" d="M12.948,15.049c-0.417-0.081-0.835-0.162-1.253-0.243c-0.156-0.03-0.224,0.205-0.066,0.241
		l1.242,0.281C13.053,15.367,13.129,15.084,12.948,15.049z"/>
	<path style="fill:#1D1D1B;" d="M13.137,12.471c-0.086-0.091-0.203,0.025-0.16,0.124c0.295,0.69-0.563,1.294-0.959,0.562
		c-0.077-0.142-0.287-0.017-0.215,0.126c0.215,0.431,0.776,0.646,1.198,0.36C13.396,13.375,13.46,12.813,13.137,12.471z"/>
	<path style="fill:#1D1D1B;" d="M10.482,12.224c-0.014,0.16,0.226,0.153,0.246,0c0.119-0.928,0.906-0.347,1.025,0.022
		c0.032,0.099,0.167,0.076,0.176-0.024C12.018,11.238,10.566,11.26,10.482,12.224z"/>
	<path style="fill:#1D1D1B;" d="M11.414,13.414c-0.139,0.018-0.149,0.223,0,0.225c0.098,0.255,0.043,0.206-0.165-0.147
		c0.039-0.15-0.182-0.209-0.231-0.064c-0.11,0.327,0.223,0.903,0.608,0.633C11.888,13.878,11.745,13.371,11.414,13.414z"/>
	<path style="fill:#1D1D1B;" d="M11.002,14.251c0.017-0.113-0.145-0.165-0.176-0.049c-0.106,0.399,0.031,0.747,0.295,1.052
		c0.028,0.033,0.086-0.011,0.061-0.047C10.963,14.9,10.949,14.605,11.002,14.251z"/>
</g>
<g>
</g>
<g>
</g>
<g>
</g>
<g>
</g>
<g>
</g>
<g>
</g>
<g>
</g>
<g>
</g>
<g>
</g>
<g>
</g>
<g>
</g>
<g>
</g>
<g>
</g>
<g>
</g>
<g>
</g>
</svg>
