<?xml version="1.0" encoding="iso-8859-1"?>
<!-- Generator: Adobe Illustrator 18.0.0, SVG Export Plug-In . SVG Version: 6.00 Build 0)  -->
<!DOCTYPE svg PUBLIC "-//W3C//DTD SVG 1.1//EN" "http://www.w3.org/Graphics/SVG/1.1/DTD/svg11.dtd">
<svg version="1.1" id="Capa_1" xmlns="http://www.w3.org/2000/svg" xmlns:xlink="http://www.w3.org/1999/xlink" x="0px" y="0px"
	 viewBox="0 0 56.609 56.609" style="enable-background:new 0 0 56.609 56.609;" xml:space="preserve">
<g>
	<path style="fill:#1D1D1B;" d="M52.44,14.297C45.443,2.89,31.239-1.24,19.132,3.991c-0.053-0.078-0.139-0.131-0.27-0.117
		C6.729,5.194-0.242,16.449,0.006,28.018c0.262,12.235,6.759,23.099,19.11,25.899c10.367,2.35,24.188,0.471,31.757-7.64
		C58.476,38.132,58.019,23.393,52.44,14.297z M39.17,52.23c-12.02,3.683-28.12,2.28-34.729-9.886
		C-2.915,28.804,0.917,7.096,18.437,4.631c0.057,0.084,0.144,0.145,0.255,0.099C31.733-0.669,46.94,4.078,53.103,17.19
		c2.957,6.292,3.403,14.463,1.382,21.119C52.275,45.589,46.207,50.074,39.17,52.23z"/>
	<g>
		<path style="fill:#1D1D1B;" d="M8.472,42.399c-1.512-1.834-1.585-3.898-2.554-5.931c-0.675-1.418-1.864-2.174-1.844-3.86
			c0.135,0.22,0.287,0.429,0.475,0.617c0.132,0.131,0.334-0.071,0.204-0.204c-1.951-1.998-0.509-7.897-0.04-10.099
			c0.708-3.324,2.104-6.396,3.778-9.335C8.367,14.105,8.3,14.64,8.319,15.187c0.006,0.164,0.231,0.156,0.25,0
			c0.198-1.655,0.662-3.142,1.611-4.458c0.038,0.015,0.08,0.017,0.119-0.013c2.903-2.21,6.717-3.783,10.778-4.652
			c-3.872,0.579-7.035,1.566-10.321,3.947c0.004-0.005,0.007-0.009,0.012-0.014c0.047-0.052-0.026-0.125-0.077-0.077
			c-0.164,0.153-0.32,0.314-0.471,0.479c-0.035,0.027-0.07,0.049-0.105,0.076c-0.035,0.027-0.048,0.063-0.047,0.099
			c-0.697,0.809-1.234,1.754-1.52,2.775c-0.028-0.015-0.066-0.013-0.089,0.022c-2.344,3.519-3.763,7.356-4.366,11.547
			c-0.305,2.119-1.219,5.318-0.175,7.416c-0.164,1.152,0.233,1.765,0.829,2.857c1.148,2.104,1.471,4.579,2.847,6.56
			c2.477,3.568,5.435,5.705,9.334,7.211c0.116,0.045,0.2-0.15,0.085-0.202C13.571,47.194,10.904,45.349,8.472,42.399z"/>
		<path style="fill:#1D1D1B;" d="M22.575,5.858c1.559-0.19,3.054-0.394,4.51-0.54c-2.014,0.074-4.038,0.325-6.008,0.746
			C21.566,5.991,22.061,5.921,22.575,5.858z"/>
		<path style="fill:#1D1D1B;" d="M48.802,15.491c-0.931-1.196-1.554-2.591-2.49-3.737c-0.737-0.902-1.979-1.322-2.942-1.887
			c-0.872-0.512-1.332-1.274-2.103-1.844c-0.577-0.426-1.288-0.559-1.994-0.709c-4.071-2.349-7.958-2.421-12.189-1.996
			c3.863-0.142,7.661,0.372,10.88,1.621c-0.108-0.021-0.192,0.123-0.08,0.18c1.103,0.559,2.383,0.429,3.237,1.365
			c0.435,0.477,0.522,0.857,1.033,1.233c0.656,0.484,1.624,0.644,2.331,1.089c0.926,0.583,1.504,1.453,2.107,2.285
			c0.65,0.896,1.31,1.705,2.105,2.505C48.766,15.665,48.858,15.564,48.802,15.491z"/>
	</g>
	<path style="fill:#1D1D1B;" d="M51.529,35.251c0.038-0.033,0.056-0.093,0.015-0.145c-0.016-0.02-0.037-0.033-0.054-0.053
		c-0.001-0.004-0.001-0.006-0.002-0.01c-0.013-0.048-0.046-0.066-0.082-0.073c-0.692-0.743-1.721-0.966-2.538-0.604
		c-7.452-2.767-15.037-5.205-22.508-7.932c-0.218-0.08-0.3,0.257-0.094,0.342c6.188,2.578,12.63,5.031,19.131,6.868
		c-0.417,0.684-0.523,1.502-0.177,2.252c0.315,0.683,1.096,1.39,1.894,1.326c0.166-0.013,0.28-0.265,0.095-0.35
		c-0.6-0.276-1.151-0.419-1.532-1.021c-0.415-0.655-0.359-1.462-0.011-2.128c0.259,0.073,0.519,0.136,0.779,0.206
		c-0.013,0.001-0.026-0.002-0.04,0.007c-0.212,0.129-0.315,0.264-0.394,0.499c-0.019,0.055,0.013,0.111,0.058,0.141
		c0.169,0.116,0.337,0.232,0.506,0.347c0.096,0.066,0.218-0.089,0.126-0.163c-0.292-0.232-0.503-0.326-0.176-0.67
		c0.045-0.048,0.025-0.112-0.017-0.145c0.706,0.192,1.411,0.386,2.117,0.561c-0.35,0.222-0.649,0.554-0.832,1.035
		c-0.314,0.824-0.238,1.627-1.04,2.295c-0.201,0.168-0.682,0.222-0.918,0.387c-1.01,0.704-1.288,1.889-1.884,2.826
		c-0.01-0.061-0.08-0.119-0.143-0.077c-1.836,1.213-3.418,0.548-4.713,2.555c-1.167,1.808-2.743,2.445-4.887,2.999
		c-0.743,0.192-1.521,0.523-2.303,0.798c-1.278,0.024-2.448-0.671-3.783-0.536c-2.097,0.212-3.689,0.896-5.56,0.552
		c-0.987-1.128-2.414-1.545-3.896-1.926c0.418-1.237,1.544-2.21,2.923-1.914c1.578,0.339,2.176,2.116,1.173,3.354
		c-0.176,0.217,0.122,0.53,0.313,0.313c1.105-1.254,0.639-3.248-0.904-3.892c-1.652-0.689-3.345,0.43-3.695,2.089
		c-1.498-0.382-3.035-0.754-4.218-1.805c-1.165-1.034-2.384-2.443-3.386-3.638C8.99,37.676,8.51,34.835,7.889,32.05
		c0.001-0.004,0.005-0.004,0.006-0.008c1.012-3.675,0.057-7.763,1.755-11.192c1.145-2.313,3.308-3.949,3.462-6.404
		c1.259-0.992,2.496-1.854,3.754-2.592c-0.278,1.191,2.096,1.682,2.908,1.524c1.611-0.313,1.788-2.087,1.249-3.373
		c1.517-0.455,3.122-0.715,4.895-0.716c2.018-0.002,4.228,0.672,6.26,0.478c0.755,1.254,2.091,1.019,3.507,1.1
		c1.995,0.113,3.705,0.917,5.302,2.06c0.543,0.389,1.632,0.971,2.478,1.556c-1.24,0.296-2.014,1.89-1.617,3.059
		c0.07,0.207,0.381,0.124,0.329-0.091c-0.151-0.623-0.01-1.236,0.364-1.754c0.366-0.507,0.835-0.704,1.412-0.85
		c0.283,0.23,0.502,0.454,0.607,0.661c-0.229,0.153-0.31,0.444-0.156,0.724c0.049,0.088,0.118,0.161,0.197,0.227
		c-2.893,1.435-5.827,2.863-8.72,4.366c0.035-0.078,0.027-0.175-0.069-0.24c-1.002-0.678-2.547-0.975-3.573-0.183
		c-0.748,0.577-1.204,1.869-0.417,2.595c0.01,0.009,0.022,0.001,0.034,0.003c-1.853,1.043-3.676,2.13-5.437,3.298
		c-0.097,0.064-0.013,0.206,0.09,0.155c6.21-3.077,12.17-6.656,18.392-9.725c0.031-0.016,0.038-0.042,0.053-0.064
		c0.468,0.194,1.081,0.241,1.456,0.318c0.597,0.123,1.309,0.263,1.838-0.136c0.436-0.328,0.604-0.905,0.289-1.365
		c-0.138-0.201-0.439-0.028-0.328,0.192c0.385,0.761-0.533,1.033-0.997,1.017c-0.28-0.01-0.564-0.084-0.838-0.141
		c-0.244-0.05-0.489-0.099-0.733-0.149c-0.098-0.02-0.196-0.039-0.293-0.059c-0.322-0.02-0.492-0.229-0.528-0.608
		c0.029-0.019,0.051-0.045,0.047-0.086c-0.004-0.036-0.022-0.064-0.027-0.099c0.019-0.038,0.004-0.085-0.031-0.113
		c-0.365-1.641-2.673-2.207-3.909-3c-0.917-0.588-1.918-1.259-2.958-1.613c-1.505-0.512-4.286,0.278-5.435-1.089
		c0.283-0.041,0.562-0.098,0.836-0.182c0.162-0.05,0.095-0.297-0.07-0.254c0.886-0.229-8.432-0.464-8.281-0.459
		c-1.169-0.04-1.618-0.341-2.801,0.056c-1.942,0.65-4.281,1.702-6.14,2.646c-1.556,0.79-1.752,1.496-2.939,2.624
		c0-0.266-0.016-0.539-0.066-0.826c-0.012-0.068-0.129-0.053-0.121,0.016c0.258,2.21-2.22,3.831-3.036,5.514
		c-0.477,0.984-1.129,2.847-1.336,3.665c-0.739,2.931-0.131,6.052-0.75,9.129c-0.108-0.471-0.221-0.94-0.349-1.403
		c-0.032-0.115-0.211-0.067-0.18,0.05c0.628,2.327,0.75,5.561,1.755,7.738c0.719,1.556,2.004,2.124,3.149,3.392
		c1.103,1.222,1.946,2.733,3.441,3.54c2.194,1.184,4.745,0.641,6.647,2.298c-0.479-0.115-0.978-0.299-1.51-0.58
		c-0.105-0.055-0.189,0.092-0.092,0.158c0.678,0.462,1.362,0.747,2.069,0.898c0.104,0.12,0.208,0.244,0.307,0.382
		c0.028,0.04,0.091,0.005,0.067-0.039c-0.061-0.11-0.132-0.204-0.199-0.304c0.819,0.146,1.67,0.109,2.584-0.081
		c1.696-0.352,3.07-0.731,4.837-0.372c0.375,0.076,0.666,0.151,0.957,0.186c-0.607,0.18-1.211,0.296-1.798,0.254
		c-0.144-0.01-0.139,0.206,0,0.222c0.906,0.1,1.612-0.156,2.333-0.464c0.158-0.014,0.326-0.041,0.518-0.092
		c0.08-0.021,0.052-0.102-0.009-0.126c0.33-0.141,0.673-0.278,1.049-0.385c1.383-0.393,3.116-0.045,4.364-0.936
		c1.127-0.805,1.533-2.22,2.592-3.131c1.136-0.977,2.406-0.852,3.546-1.714c-0.359,0.529-0.835,0.967-1.635,1.17
		c-0.11,0.028-0.089,0.206,0.027,0.2c2.113-0.109,2.149-2.545,3.409-3.746c0.524-0.5,1.504-0.498,1.979-1.039
		c0.276-0.315,0.158-0.447,0.298-0.781c0.663-1.578,1.572-3.498,3.31-1.84c0.221,1.127-0.711,3.8-1.246,4.641
		c-0.469,0.737-0.634,1.307-1.015,2.111c-1.176,2.484-2.465,2.278-4.324,3.629c-1.425,1.036-2.041,2.11-3.821,2.705
		c0.429-0.33,0.818-0.7,1.148-1.123c0.08-0.102-0.055-0.248-0.147-0.147c-2.341,2.609-6.599,3.034-9.866,3.568
		c-5.221,0.853-11.111,0.32-15.62-2.563c-0.078-0.05-0.142,0.069-0.071,0.121c3.842,2.826,9.594,3.687,14.281,3.037
		c2.914-0.404,7.099-0.754,9.85-2.587c-0.015,0.065-0.031,0.13-0.046,0.194c-0.01,0.04,0.042,0.06,0.064,0.027
		c0.267-0.389,1.273-0.332,1.733-0.54c0.704-0.318,1.122-0.932,1.669-1.448c1.373-1.295,3.601-1.77,4.773-3.226
		c0.407-0.506,0.421-1,0.692-1.561c0.453-0.936,1.535-1.837,1.794-2.888c0.108-0.438-0.058-0.882-0.015-1.317
		C51.219,36.557,51.703,36.192,51.529,35.251z M31.932,22.957c0.004-0.012,0.018-0.018,0.014-0.033
		c-0.288-0.846-0.083-1.792,0.728-2.281c0.948-0.571,2.043-0.153,2.942,0.277c0.024,0.012,0.044,0.003,0.067,0.006
		C34.421,21.584,33.171,22.261,31.932,22.957z M17.056,11.743c1.185-0.68,2.391-1.249,3.663-1.657
		c0.251,0.923,0.442,2.076-0.458,2.698c-0.484,0.335-1.09,0.334-1.648,0.225C18.072,12.903,16.831,12.557,17.056,11.743z"/>
	<path style="fill:#1D1D1B;" d="M54.023,25.113c-0.089-1.52-0.553-3.17-1.129-4.568c-0.587-1.424-1.368-4.114-3.287-3.218
		c-0.057,0.027-0.022,0.101,0.032,0.104c-0.41,0.089-0.766,0.27-0.904,0.716c-0.104,0.335-0.042,0.371-0.001,0.506
		c-0.057-0.08-0.159-0.131-0.271-0.07c-5.403,2.913-10.964,5.337-16.699,7.522c-0.023,0.009-0.034,0.026-0.046,0.042
		c-0.027-0.005-0.055-0.012-0.082-0.017c-0.184-0.035-0.264,0.233-0.079,0.285c6.075,1.711,12.13,3.402,18.181,5.205
		c0.244,1.051,1.609,1.65,2.639,1.071c1.907-1.072,1.386-3.762,1.179-5.625c0.17-0.21,0.319-0.435,0.407-0.703
		C54.099,25.952,54.048,25.534,54.023,25.113z M46.179,22.233c-0.812,0.567-1.957,0.087-2.358-0.741
		c0.92-0.45,1.834-0.912,2.74-1.391C46.953,20.804,46.89,21.736,46.179,22.233z M39.219,23.594
		c-0.004,0.048,0.006,0.098,0.045,0.146c1.851,2.254-2.848,3.772-3.686,1.292C36.803,24.581,38.017,24.101,39.219,23.594z
		 M49.733,30.903c-0.048,0.192-0.057,0.374-0.039,0.547c-5.618-2.229-11.649-4.057-17.59-5.225c1.071-0.338,2.132-0.706,3.187-1.09
		c0.31,1.527,2.246,1.973,3.54,1.447c0.66-0.268,1.208-0.791,1.337-1.511c0.107-0.594-0.08-1.323-0.648-1.607
		c1.401-0.598,2.785-1.237,4.156-1.904c0.339,1.097,1.688,1.694,2.708,1.1c0.94-0.547,1.194-1.907,0.579-2.779
		c0.574-0.307,1.147-0.614,1.715-0.932c0.049-0.027,0.068-0.068,0.083-0.108c0,0.006,0.002,0.007,0.002,0.013
		c0.007,0.65-0.1,1.2-0.25,1.808c-0.486,1.975,0.521,3.742,1.533,5.419c0.004,0.118,0.004,0.237,0.008,0.355
		c0.04,1.096-0.242,1.869-0.454,2.93C49.484,29.947,49.558,30.422,49.733,30.903z M53.38,26.437c-0.28,0.629-0.603,0.691-0.86,1.183
		c-0.399,0.763-0.409,0.364-0.455,1.271c-0.007,0.149,0.245,0.189,0.266,0.036c0.097-0.711,0.58-1.143,1.01-1.612
		c0.053,1.029,0.153,2.093,0.029,3.094c-0.085,0.686-0.362,1.384-0.952,1.793c-0.798,0.554-1.875,0.281-2.274-0.487
		c0.026-0.007,0.046-0.025,0.035-0.055c-0.095-0.249-0.151-0.48-0.186-0.706c0.001-0.024-0.006-0.043-0.003-0.068
		c0.001-0.011-0.007-0.017-0.008-0.027c-0.085-0.687,0.061-1.314,0.235-2.104c0.071-0.321,0.135-0.484,0.163-0.784
		c0.118-1.274-0.085-2.68-0.206-3.952c-0.01-0.111-0.175-0.115-0.176,0c-0.003,0.565,0.02,1.129,0.039,1.693
		c-0.584-1.28-1.459-2.623-1.437-4.004c0.009-0.587,0.442-1.501,0.614-2.148c0.189-0.712-1.449-1.377,0.597-1.978
		c0.103-0.03,0.075-0.153-0.01-0.175c1.276-0.228,2.095,1.717,2.5,2.581c0.622,1.327,1,2.722,1.233,4.166
		C53.684,25.086,53.77,25.562,53.38,26.437z"/>
	<path style="fill:#1D1D1B;" d="M45.958,25.06c-0.499-0.897-1.665-1.211-2.518-0.69c-0.005,0.001-0.009-0.003-0.015-0.002
		c-1.106,0.324-1.807,1.451-1.419,2.58c0.401,1.166,1.83,1.536,2.888,1.078C46.024,27.538,46.572,26.164,45.958,25.06z
		 M44.513,27.631c-0.843,0.264-1.839-0.092-2.099-0.99c-0.228-0.79,0.205-1.496,0.833-1.924c0.052,0.047,0.126,0.074,0.197,0.041
		c0.788-0.372,1.812-0.176,2.146,0.704C45.934,26.364,45.43,27.345,44.513,27.631z"/>
	<path style="fill:#1D1D1B;" d="M49.538,27.874c-0.645-0.319-1.555,0.098-2.07,0.507c-0.448,0.356-1.16,1.204-0.851,1.818
		c0.016,0.032,0.064,0.036,0.088,0.011c0.173-0.182,0.226-0.431,0.342-0.651c0.154-0.293,0.367-0.553,0.62-0.767
		c0.273-0.231,0.606-0.406,0.954-0.492c0.291-0.072,0.586-0.033,0.874-0.102C49.639,28.164,49.676,27.942,49.538,27.874z"/>
	<path style="fill:#1D1D1B;" d="M48.553,29.696c-0.233,0.115-0.357-0.035-0.373-0.449c0.076-0.088-0.039-0.202-0.127-0.127
		c-0.527,0.452,0.081,1.212,0.614,0.773C48.76,29.817,48.661,29.662,48.553,29.696z"/>
	<path style="fill:#1D1D1B;" d="M48.807,29.26c-0.082-0.021-0.141,0.103-0.06,0.141c0.244,0.133,0.325,0.323,0.241,0.572
		c-0.017,0.115,0.123,0.186,0.193,0.081C49.402,29.724,49.158,29.351,48.807,29.26z"/>
	<path style="fill:#1D1D1B;" d="M43.678,26.555c-0.025-0.108-0.051-0.216-0.076-0.324c0.055,0.01,0.078-0.066,0.023-0.085
		c-0.305-0.102-0.707,0.114-0.59,0.478c0.121,0.377,0.588,0.351,0.794,0.082C43.896,26.621,43.764,26.489,43.678,26.555z"/>
	<path style="fill:#1D1D1B;" d="M43.486,25.403c-0.05,0.053,0.026,0.128,0.08,0.08c0.343-0.295,0.645-0.234,0.905,0.183
		c0.018,0.152,0.005,0.301-0.04,0.445c-0.031,0.127,0.139,0.198,0.209,0.088C45.103,25.465,44.054,24.81,43.486,25.403z"/>
	<path style="fill:#1D1D1B;" d="M46.023,21.274c-0.156,0.143-0.507,0.173-0.579-0.115c-0.025-0.098-0.187-0.08-0.18,0.024
		c0.032,0.473,0.745,0.679,0.905,0.176C46.198,21.272,46.085,21.218,46.023,21.274z"/>
	<path style="fill:#1D1D1B;" d="M38.712,24.293c-0.058-0.1-0.197-0.012-0.152,0.089c0.13,0.29,0.01,0.526-0.193,0.714
		c-0.089,0.083,0.026,0.23,0.13,0.168C38.852,25.053,38.913,24.639,38.712,24.293z"/>
	<path style="fill:#1D1D1B;" d="M37.953,25.071c-0.286,0.337-0.943,0.186-0.612-0.362c0.066-0.11-0.094-0.193-0.167-0.098
		c-0.553,0.722,0.658,1.389,0.961,0.566C38.173,25.077,38.023,24.99,37.953,25.071z"/>
	<path style="fill:#1D1D1B;" d="M41.842,34.331c-0.858-0.805-2.107-0.717-3.04-0.13c-0.021-0.029-0.055-0.048-0.091-0.034
		c-1.017,0.392-1.447,1.673-0.917,2.634c0.672,1.216,2.475,1.427,3.586,0.744C42.482,36.868,42.833,35.262,41.842,34.331z
		 M41.032,37.168c-0.871,0.483-2.304,0.335-2.827-0.606c-0.303-0.545-0.2-1.177,0.11-1.684c0.038,0.016,0.079,0.02,0.123-0.009
		c0.826-0.531,1.846-1.008,2.785-0.433C42.299,35.095,42.057,36.599,41.032,37.168z"/>
	<path style="fill:#1D1D1B;" d="M32.985,32.547c-0.659-0.851-1.921-1.101-2.917-0.721c-0.039-0.016-0.083-0.02-0.125,0.013
		c-0.021,0.016-0.036,0.037-0.056,0.054c-0.14,0.067-0.275,0.147-0.399,0.241c-0.079,0.06-0.074,0.172-0.018,0.231
		c-0.499,0.755-0.531,1.782,0.052,2.54c0.71,0.922,2.122,1.177,3.091,0.523C33.604,34.76,33.695,33.464,32.985,32.547z
		 M32.308,35.097c-0.813,0.505-1.994,0.234-2.518-0.565c-0.443-0.675-0.343-1.559,0.083-2.214c0.86-0.254,1.797-0.444,2.543,0.225
		C33.194,33.242,33.246,34.514,32.308,35.097z"/>
	<path style="fill:#1D1D1B;" d="M33.606,40.422c-0.891-0.548-2.422-0.303-3.054,0.592c-0.847,0.517-1.05,1.762-0.422,2.601
		c0.908,1.214,3.078,1.461,4.08,0.242C35.058,42.825,34.737,41.118,33.606,40.422z M34.057,43.221
		c-0.587,1.16-2.199,1.195-3.175,0.508c-0.641-0.451-0.863-1.331-0.591-2c0.043,0.116,0.196,0.155,0.288,0.032
		c0.607-0.808,1.391-1.511,2.492-1.124C34.057,40.985,34.517,42.313,34.057,43.221z"/>
	<path style="fill:#1D1D1B;" d="M23.744,32.781c-0.845-0.57-2.148-0.368-2.694,0.475c-0.97,0.705-1.222,2.099-0.387,3.061
		c0.956,1.102,2.653,0.941,3.517-0.188C24.938,35.14,24.821,33.508,23.744,32.781z M23.925,35.691
		c-0.581,0.963-1.967,1.264-2.814,0.474c-0.72-0.672-0.722-1.653-0.229-2.382c0.052,0.068,0.168,0.085,0.224-0.005
		c0.5-0.797,1.563-1.198,2.391-0.62C24.287,33.708,24.402,34.901,23.925,35.691z"/>
	<path style="fill:#1D1D1B;" d="M23.377,24.769c-0.722-0.558-1.959-0.381-2.378,0.461c-0.726,0.437-0.923,1.47-0.383,2.17
		c0.689,0.891,2.049,0.916,2.849,0.169C24.279,26.81,24.28,25.467,23.377,24.769z M23.253,27.229
		c-0.556,0.573-1.493,0.675-2.12,0.154c-0.595-0.495-0.598-1.318-0.113-1.837c0.057,0.026,0.124,0.027,0.169-0.027
		c0.446-0.54,1.105-0.949,1.805-0.547C23.811,25.441,23.88,26.583,23.253,27.229z"/>
	<path style="fill:#1D1D1B;" d="M27.462,17.367c-0.519-0.998-2.099-1.443-2.964-0.634c-0.036,0.034-0.04,0.078-0.032,0.12
		c-0.782,0.195-1.343,1.043-1.136,1.892c0.313,1.284,1.962,1.809,3.098,1.379C27.507,19.716,27.998,18.397,27.462,17.367z
		 M26.581,19.554c-0.741,0.492-1.874,0.333-2.486-0.296c-0.789-0.813-0.249-2.408,0.994-2.25c0.097,0.012,0.116-0.148,0.023-0.169h0
		c0.626-0.144,1.262-0.125,1.754,0.42C27.454,17.908,27.313,19.067,26.581,19.554z"/>
	<path style="fill:#1D1D1B;" d="M31.45,13.152c-0.041,0-0.041,0.063,0,0.063C31.491,13.215,31.491,13.152,31.45,13.152z"/>
	<path style="fill:#1D1D1B;" d="M34.869,11.126c-0.122-0.168-0.36-0.066-0.328,0.138c0.084,0.537,0.174,0.985-0.139,1.48
		c-0.324,0.511-0.913,0.739-1.5,0.622c-1.249-0.249-1.587-1.766-0.728-2.63c0.1-0.1-0.05-0.247-0.154-0.154
		c-1.14,1.016-0.701,2.934,0.844,3.215c0.687,0.125,1.393-0.113,1.818-0.677C35.073,12.598,35.282,11.691,34.869,11.126z"/>
	<path style="fill:#1D1D1B;" d="M17.827,18.469c-0.598-0.662-1.756-0.767-2.467-0.242c-1.138-0.199-1.404,1.458-1.069,2.26
		c0.518,1.244,2.004,1.737,3.15,1.007C18.459,20.847,18.634,19.361,17.827,18.469z M17.491,20.933
		c-0.649,0.638-1.748,0.652-2.4,0.022c-0.542-0.524-0.961-2.312,0.05-2.537c-0.083,0.092-0.159,0.192-0.217,0.31
		c-0.067,0.135,0.095,0.267,0.21,0.162c0.626-0.576,1.561-0.927,2.293-0.271C18.077,19.201,18.113,20.32,17.491,20.933z"/>
	<path style="fill:#1D1D1B;" d="M15.219,28.898c-0.401-0.479-1.036-0.788-1.669-0.677c-0.54,0.095-0.895,0.525-1.31,0.856
		c-0.15,0.004-0.278,0.107-0.378,0.245c-0.039,0.02-0.076,0.043-0.117,0.06c-0.096,0.038-0.109,0.178-0.029,0.223
		c-0.208,0.508-0.145,1.133,0.091,1.617c0.566,1.164,2.016,1.467,3.067,0.753C15.897,31.278,15.994,29.824,15.219,28.898z
		 M13.025,31.885c-0.474-0.173-0.836-0.596-1.005-1.064c-0.041-0.114-0.141-0.814-0.051-1.256c0.514-0.145,0.793-0.621,1.266-0.888
		c1.249-0.703,2.392,0.899,2.108,2.025C15.1,31.666,13.945,32.221,13.025,31.885z"/>
	<path style="fill:#1D1D1B;" d="M13.325,29.476c-0.289-0.305-0.788-0.026-0.747,0.374c0.005,0.051,0.082,0.053,0.081,0
		c0.14-0.364,0.341-0.462,0.604-0.294C13.313,29.589,13.364,29.517,13.325,29.476z"/>
	<path style="fill:#1D1D1B;" d="M13.994,30.234c-0.036,0.078-0.076,0.153-0.12,0.226c-0.079,0.247-0.207,0.252-0.385,0.014
		c0.078-0.031,0.049-0.153-0.035-0.129c-0.252,0.071-0.232,0.398-0.04,0.54c0.39,0.289,0.677-0.291,0.732-0.588
		C14.161,30.212,14.039,30.144,13.994,30.234z"/>
	<path style="fill:#1D1D1B;" d="M13.782,29.29c-0.064,0.007-0.066,0.107,0,0.102c0.595-0.045,1.037,0.518,0.881,1.084
		c-0.024,0.085,0.105,0.12,0.132,0.036C15.005,29.865,14.454,29.213,13.782,29.29z"/>
	<path style="fill:#1D1D1B;" d="M21.803,43.917c-0.432-0.195-0.897,0.008-1.159,0.371c-0.033-0.056-0.125-0.06-0.155,0.018
		c-0.197,0.507,0.59,0.901,0.864,0.419c0.06-0.106-0.084-0.222-0.171-0.132c-0.147,0.152-0.439,0.064-0.504-0.127
		c0.029,0.001,0.058-0.006,0.08-0.036c0.222-0.317,0.687-0.472,1.03-0.244c0.312,0.207,0.307,0.532,0.33,0.859
		c0.006,0.084,0.118,0.124,0.164,0.044C22.522,44.673,22.212,44.102,21.803,43.917z"/>
	<path style="fill:#1D1D1B;" d="M22.343,45.421c-0.255,0.26-0.672,0.366-0.934,0.025c-0.065-0.085-0.208-0.011-0.149,0.087
		c0.272,0.445,1.001,0.535,1.26,0.024C22.575,45.447,22.436,45.326,22.343,45.421z"/>
	<path style="fill:#1D1D1B;" d="M22.855,35.47c-0.178,0.378-0.822,0.508-1,0.027c-0.037-0.1-0.197-0.06-0.163,0.045
		c0.19,0.579,1.178,0.643,1.314-0.008C23.024,35.448,22.897,35.38,22.855,35.47z"/>
	<path style="fill:#1D1D1B;" d="M21.268,34.651c-0.083,0.097,0.055,0.239,0.142,0.142c0.302-0.339,0.795-0.003,0.77,0.39
		c-0.007,0.116,0.159,0.127,0.193,0.026C22.578,34.603,21.656,34.197,21.268,34.651z"/>
	<path style="fill:#1D1D1B;" d="M23.322,34.657c-0.369-0.061-0.654-0.365-0.541-0.756c0.051-0.175-0.204-0.236-0.268-0.074
		c-0.21,0.536,0.172,1.161,0.769,1.13C23.443,34.948,23.501,34.686,23.322,34.657z"/>
	<path style="fill:#1D1D1B;" d="M31.798,42.298c-0.069-0.029-0.12,0.091-0.051,0.122c0.255,0.123,0.343,0.312,0.266,0.567
		c-0.024,0.121,0.153,0.173,0.186,0.051C32.292,42.705,32.103,42.426,31.798,42.298z"/>
	<path style="fill:#1D1D1B;" d="M31.948,41.775c-0.573-0.052-1.183,0.513-1.004,1.105c0.021,0.071,0.125,0.073,0.146,0
		c0.14-0.489,0.351-0.795,0.889-0.881C32.114,41.978,32.067,41.786,31.948,41.775z"/>
	<path style="fill:#1D1D1B;" d="M33.474,42.082c-0.111-0.024-0.24-0.023-0.344-0.063c-0.102-0.003-0.175-0.06-0.22-0.17
		c-0.221-0.129-0.198-0.229,0.068-0.301c0.087,0.031,0.149-0.112,0.064-0.151c-0.281-0.127-0.551,0.111-0.54,0.414
		c0.018,0.476,0.613,0.557,0.972,0.481C33.578,42.27,33.577,42.104,33.474,42.082z"/>
	<path style="fill:#1D1D1B;" d="M30.451,33.948c-0.091,0.04-0.026,0.194,0.068,0.161c0.133-0.078,0.257-0.042,0.377,0.067
		c-0.066-0.011-0.138,0.058-0.1,0.138c0.116,0.242,0.452,0.085,0.491-0.141C31.371,33.692,30.682,33.847,30.451,33.948z"/>
	<path style="fill:#1D1D1B;" d="M30.981,33.137c-0.462-0.212-0.977,0.021-1.173,0.481c-0.037,0.087,0.087,0.166,0.13,0.076
		c0.188-0.388,0.576-0.508,0.973-0.393C31.007,33.329,31.075,33.181,30.981,33.137z"/>
	<path style="fill:#1D1D1B;" d="M31.811,32.963c-0.099-0.066-0.187,0.074-0.119,0.155c0.257,0.306,0.332,0.708,0.06,1.037
		c-0.068,0.083,0.038,0.195,0.119,0.119C32.262,33.911,32.273,33.27,31.811,32.963z"/>
	<path style="fill:#1D1D1B;" d="M39.726,36.259c-0.384,0.252-0.997,0.108-1.054-0.41c-0.011-0.103-0.153-0.105-0.162,0
		c-0.058,0.694,0.927,1.135,1.35,0.545C39.919,36.313,39.806,36.206,39.726,36.259z"/>
	<path style="fill:#1D1D1B;" d="M39.147,35.437c-0.057,0.084,0.073,0.184,0.141,0.109c0.229-0.254,0.564-0.096,0.669,0.172
		c0.046,0.115,0.228,0.109,0.228-0.031C40.185,35.137,39.425,35.024,39.147,35.437z"/>
	<path style="fill:#1D1D1B;" d="M41.008,35.749c-0.219,0.282-0.454,0.51-0.781,0.665c-0.105,0.05-0.031,0.23,0.08,0.19
		c0.384-0.141,0.686-0.349,0.897-0.703C41.274,35.782,41.097,35.635,41.008,35.749z"/>
	<path style="fill:#1D1D1B;" d="M47.406,34.937c-0.118,0.074-0.199,0.15-0.284,0.261c-0.052,0.068-0.093,0.143-0.141,0.214
		c-0.027,0.051-0.061,0.098-0.1,0.141c-0.083,0.164-0.218,0.153-0.405-0.032c0.08-0.1-0.051-0.24-0.144-0.144
		c-0.218,0.223-0.089,0.586,0.219,0.65c0.512,0.106,0.754-0.612,1.018-0.88C47.672,35.041,47.537,34.855,47.406,34.937z"/>
	<path style="fill:#1D1D1B;" d="M22.681,26.519c0.013,0.278-0.124,0.481-0.413,0.609c-0.079,0.023-0.046,0.138,0.034,0.122
		c0.394-0.079,0.623-0.359,0.559-0.756C22.843,26.391,22.682,26.42,22.681,26.519z"/>
	<path style="fill:#1D1D1B;" d="M21.997,26.714c-0.24-0.05-0.392,0.037-0.451,0.279c-0.027,0.113,0.135,0.156,0.173,0.048
		c0.085-0.051,0.17-0.103,0.254-0.154C22.072,26.895,22.094,26.734,21.997,26.714z"/>
	<path style="fill:#1D1D1B;" d="M22.188,25.739c-0.167,0.175-0.284,0.064-0.35-0.333c0.068-0.07-0.032-0.162-0.104-0.105
		c-0.541,0.429,0.189,1.113,0.582,0.565C22.368,25.793,22.262,25.683,22.188,25.739z"/>
	<path style="fill:#1D1D1B;" d="M16.662,20.111c-0.111,0.166-0.221,0.333-0.331,0.499c-0.078,0.118,0.104,0.214,0.185,0.108
		c0.123-0.159,0.246-0.318,0.368-0.478C16.982,20.111,16.755,19.972,16.662,20.111z"/>
	<path style="fill:#1D1D1B;" d="M15.842,19.354c0.025,0.31-0.116,0.455-0.423,0.434c-0.246,0.17-0.431,0.122-0.554-0.145
		c-0.029-0.046-0.098-0.006-0.073,0.043c0.327,0.637,1.308,0.421,1.212-0.332C15.99,19.253,15.851,19.249,15.842,19.354z"/>
	<path style="fill:#1D1D1B;" d="M16.958,19.304c-0.328,0.075-0.673-0.216-0.538-0.562c0.036-0.093-0.109-0.148-0.157-0.066
		c-0.289,0.492,0.264,1.157,0.786,0.844C17.165,19.45,17.088,19.274,16.958,19.304z"/>
	<path style="fill:#1D1D1B;" d="M18.206,11.299c-0.078-0.104-0.254-0.009-0.179,0.105c0.28,0.423,0.187,0.787-0.011,1.219
		c-0.05,0.109,0.076,0.221,0.171,0.132C18.596,12.371,18.517,11.715,18.206,11.299z"/>
	<path style="fill:#1D1D1B;" d="M19.77,11.565c-0.379,0.05-0.846-0.217-0.713-0.68c0.031-0.106-0.125-0.145-0.163-0.045
		c-0.207,0.545,0.362,1.211,0.921,0.892C19.887,11.691,19.862,11.553,19.77,11.565z"/>
	<path style="fill:#1D1D1B;" d="M19.451,11.992c-0.456,0.033-0.681,0.547-0.422,0.918c0.044,0.062,0.14,0.008,0.103-0.06
		c-0.177-0.327,0.057-0.613,0.343-0.678C19.575,12.15,19.555,11.985,19.451,11.992z"/>
	<path style="fill:#1D1D1B;" d="M25.862,17.94c-0.224,0.277-0.737,0.306-0.855-0.109c-0.029-0.103-0.18-0.06-0.159,0.044
		c0.107,0.529,0.932,0.714,1.164,0.18C26.05,17.966,25.936,17.848,25.862,17.94z"/>
	<path style="fill:#1D1D1B;" d="M25.61,17.304c-0.091,0.035-0.056,0.178,0.041,0.149c0.44-0.13,0.773,0.184,0.865,0.587
		c0.024,0.104,0.174,0.075,0.18-0.024C26.727,17.449,26.107,17.115,25.61,17.304z"/>
	<path style="fill:#1D1D1B;" d="M25.971,18.941c-0.163,0.301-0.613,0.363-0.809,0.042c-0.052-0.086-0.212-0.029-0.17,0.072
		c0.22,0.534,1.014,0.54,1.214-0.014C26.255,18.903,26.04,18.814,25.971,18.941z"/>
	<path style="fill:#1D1D1B;" d="M32.735,21.427c-0.372,0.243-0.308,0.706-0.016,0.989c0.071,0.069,0.2-0.022,0.141-0.109
		c-0.167-0.245-0.084-0.479,0.037-0.719C32.945,21.49,32.84,21.358,32.735,21.427z"/>
	<path style="fill:#1D1D1B;" d="M32.801,20.876c-0.099,0.03-0.057,0.17,0.042,0.153c0.477-0.086,0.621,0.307,0.665,0.656
		c0.012,0.096,0.158,0.171,0.21,0.057C33.97,21.186,33.31,20.721,32.801,20.876z"/>
	<path style="fill:#1D1D1B;" d="M43.337,16.406c-0.082-0.031-0.163-0.062-0.245-0.093c-0.047-0.177-0.32-0.102-0.275,0.076
		c0.088,0.346,0.459,0.439,0.726,0.224C43.689,16.495,43.482,16.287,43.337,16.406z"/>
	<path style="fill:#1D1D1B;" d="M43.347,15.24c-0.137-0.068-0.255,0.128-0.121,0.207c0.281,0.164,0.417,0.415,0.438,0.737
		c0.01,0.152,0.223,0.151,0.236,0C43.937,15.757,43.726,15.429,43.347,15.24z"/>
	<path style="fill:#1D1D1B;" d="M33.389,12.409c-0.364,0.216-0.774,0.054-0.959-0.303c-0.057-0.11-0.19-0.053-0.21,0.044
		l-0.103,0.001c-0.041,0-0.041,0.063,0,0.063c0.035,0,0.071,0.001,0.106,0.001c0.001,0.004-0.001,0.007,0,0.011
		c0.243,0.52,0.819,0.678,1.329,0.461C33.739,12.609,33.573,12.3,33.389,12.409z"/>
	<path style="fill:#1D1D1B;" d="M33.543,11.536c-0.331-0.209-0.69-0.172-0.972,0.097c-0.107,0.102,0.049,0.249,0.159,0.159
		c0.265-0.171,0.487-0.172,0.664-0.001C33.544,11.902,33.706,11.639,33.543,11.536z"/>
</g>
<g>
</g>
<g>
</g>
<g>
</g>
<g>
</g>
<g>
</g>
<g>
</g>
<g>
</g>
<g>
</g>
<g>
</g>
<g>
</g>
<g>
</g>
<g>
</g>
<g>
</g>
<g>
</g>
<g>
</g>
</svg>
