<?xml version="1.0" encoding="iso-8859-1"?>
<!-- Generator: Adobe Illustrator 18.0.0, SVG Export Plug-In . SVG Version: 6.00 Build 0)  -->
<!DOCTYPE svg PUBLIC "-//W3C//DTD SVG 1.1//EN" "http://www.w3.org/Graphics/SVG/1.1/DTD/svg11.dtd">
<svg version="1.1" id="Capa_1" xmlns="http://www.w3.org/2000/svg" xmlns:xlink="http://www.w3.org/1999/xlink" x="0px" y="0px"
	 viewBox="0 0 40.557 40.557" style="enable-background:new 0 0 40.557 40.557;" xml:space="preserve">
<g>
	<path style="fill:#1D1D1B;" d="M40.287,25.214c0.407-6.051-0.106-12.457-1.734-18.289C38.503,6.746,38.33,6.73,38.207,6.8
		c-0.006-0.05-0.03-0.096-0.096-0.124c-1.572-0.666-3.578-1.016-5.301-0.932c-0.117-0.112-0.357-0.062-0.371,0.15
		c-0.073,1.12-1.22,2.16-2.356,1.599c-0.718-0.354-1.042-1.152-1.021-1.919c0.071,0.01,0.142,0.017,0.212,0.027
		c0.251,0.035,0.368-0.341,0.108-0.39c-6.003-1.123-12.28-1.911-18.39-1.839c-0.154,0.002-0.189,0.159-0.122,0.255
		c-0.039,0.494-0.313,0.981-0.88,0.959C9.746,4.577,9.49,4.47,9.334,4.279C9.222,4.143,9.063,3.747,9.365,3.694
		c0.152-0.027,0.11-0.259-0.035-0.262C9.297,3.43,9.272,3.444,9.242,3.449c-0.013-0.006-0.018-0.02-0.036-0.023
		c-2.87-0.414-5.742-0.67-8.594-1.229C0.425,2.161,0.306,2.292,0.305,2.442C0.285,2.46,0.265,2.48,0.26,2.516
		C-0.058,4.784-0.105,7.342,0.235,9.61c0.01,0.069,0.058,0.096,0.11,0.105c0.007,0.041,0.03,0.079,0.08,0.107
		c0.765,0.417,1.481,1.017,1.7,1.902c0.248,1.003-0.358,1.97-1.368,2.157c-0.267,0.049-0.21,0.51,0.065,0.48
		c1.058-0.116,1.809-1.047,1.839-2.101c0.036-1.272-0.976-2.254-2.069-2.724C0.579,9.53,0.567,9.537,0.553,9.535
		c0.109-2.196,0.079-4.483,0.008-6.689c1.136,1.376,2.595,2.402,4.007,3.483c1.805,1.383,3.581,2.827,5.491,4.063
		c0.12,0.077,0.25-0.048,0.234-0.165c0.041,0.01,0.084,0.01,0.125-0.013c0.537-0.301,0.91-0.717,1.598-0.509
		c0.69,0.208,1.058,0.948,0.938,1.632c-0.04,0.228,0.292,0.329,0.353,0.097c0.215-0.829-0.158-1.754-0.959-2.116
		c-0.681-0.308-1.953-0.135-2.191,0.695c-0.005,0.017,0.001,0.032,0.002,0.048C7.346,7.575,3.667,5.683,1.211,2.829
		c2.51,0.483,5.088,0.897,7.641,0.925c-0.04,0.089-0.068,0.185-0.07,0.29C8.774,4.478,9.125,4.814,9.509,4.957
		c0.835,0.311,1.759-0.372,1.665-1.241C17.06,4.274,22.896,4.74,28.76,5.537c-0.312,1.063,0.38,2.249,1.478,2.525
		c1.263,0.318,2.524-0.734,2.617-1.982c1.614,0.336,3.275,0.652,4.899,0.923c0,0.007-0.005,0.011-0.005,0.019
		c0.488,5.151-2.556,12.722-8.757,12.674c-0.105-0.001-0.173,0.07-0.197,0.154c-1.562-0.92-3.154-1.757-4.774-2.576
		c1.428-0.596,1.092-2.646-0.028-3.596c-1.533-1.3-3.938-0.85-4.889,0.91c-1.899-0.999-3.774-2.037-5.663-3.053
		c-0.255-0.137-0.457,0.217-0.231,0.382c-0.04-0.003-0.077-0.016-0.12,0.003c-0.757,0.321-1.698,0.599-2.473,0.174
		c-0.615-0.338-0.968-1.036-0.751-1.717c0.03-0.094-0.104-0.144-0.154-0.065c-0.455,0.719-0.134,1.65,0.53,2.129
		c0.925,0.666,2.153,0.357,3.093-0.101c0.13-0.064,0.14-0.18,0.095-0.278c1.756,1.179,3.691,2.131,5.671,2.86
		c-0.903,2.504,2.422,4.258,4.241,2.485c0.01-0.01,0.013-0.021,0.022-0.031c0.008,0.007,0.012,0.018,0.021,0.023
		c-0.009,0.092,0.026,0.185,0.135,0.241c1.754,0.895,3.504,1.753,5.314,2.524c-0.01,0.021-0.027,0.035-0.028,0.063
		c-0.283,5.83-0.043,11.835,0.246,17.665c0.002,0.039,0.027,0.058,0.041,0.088c-0.011-0.009-0.01-0.023-0.024-0.03
		c-2.079-1.074-3.979-2.371-5.91-3.676c0.195-0.821-0.363-1.958-1.134-2.301c-0.642-0.285-1.457-0.107-1.817,0.51l0,0
		c-2.436-1.853-5.182-3.503-7.833-5.037c0.613-1.141-0.165-2.535-1.23-3.093c-1.342-0.704-3.406-0.138-4.317,1.03
		c-0.026,0.033-0.031,0.067-0.027,0.1c-0.014-0.026-0.019-0.056-0.049-0.076c-1.885-1.301-4.576-2.535-5.65-4.567
		c-1.061-2.007-0.392-4.545-0.652-6.782c-0.015-0.131-0.187-0.13-0.204,0c-0.189,1.488-0.135,2.996-0.136,4.494
		c-0.001,0.751-0.227,2.014,0.137,2.747c0.319,0.644,1.386,1.077,1.937,1.454c1.457,0.996,2.916,1.988,4.376,2.981
		c0.146,0.099,0.279-0.043,0.271-0.182c0.033,0.036,0.086,0.055,0.148,0.026c1.141-0.537,2.144-1.374,3.506-1.013
		c1.238,0.328,1.867,1.552,1.539,2.746c-0.021,0.076,0.014,0.135,0.063,0.178c-0.005,0.045,0.004,0.093,0.052,0.127
		c2.515,1.811,5.181,3.669,7.906,5.149c0.059,0.032,0.109,0.022,0.15-0.001c0.063,0.046,0.151,0.049,0.196-0.042
		c0.329-0.672,1.252-0.71,1.778-0.244c0.508,0.451,0.511,1.03,0.668,1.612c-0.121-0.004-0.225,0.156-0.116,0.253
		c1.826,1.61,3.97,2.88,6.124,3.996c0.19,0.098,0.361-0.088,0.335-0.246c0.152,0.091,0.388,0.033,0.392-0.2v0
		c5.678,0.029,10.386-7.485,10.987-12.467C40.575,25.257,40.424,25.192,40.287,25.214z M23.427,17.012
		c-0.034,0.009-0.055,0.03-0.076,0.05c-0.09-0.098-0.249-0.139-0.38-0.025c-1.686,1.467-3.871-0.055-3.58-2.128
		c0.002-0.013-0.006-0.021-0.007-0.033c0.034-0.013,0.068-0.029,0.095-0.065c0.817-1.077,2.037-1.652,3.356-1.146
		C24.082,14.142,25.531,16.487,23.427,17.012z M30.813,37.012c-0.4,0.19-0.81,0.374-1.24,0.545c0.1-5.731,0.138-11.622-0.32-17.33
		c-0.002-0.028-0.021-0.041-0.03-0.063c0.535,0.062,1.046,0.033,1.543-0.037C30.934,25.766,30.855,31.375,30.813,37.012z
		 M32.442,36.117c0.192-5.456,0.297-10.929,0.247-16.387c-0.001-0.086-0.13-0.086-0.134,0c-0.232,5.488-0.308,10.996-0.295,16.489
		c-0.394,0.233-0.785,0.467-1.213,0.678c0.251-5.572,0.09-11.212-0.213-16.779c0.97-0.148,1.858-0.54,2.665-1.095
		c-0.4,5.35-0.136,10.874,0.229,16.223C33.318,35.55,32.893,35.843,32.442,36.117z M33.908,35.107
		c-0.043-5.371,0.043-10.814-0.292-16.171c0.52-0.373,0.999-0.822,1.442-1.32c-0.174,5.485-0.155,11.01,0.013,16.495
		C34.702,34.457,34.318,34.792,33.908,35.107z M35.26,33.919c0.163-5.441,0.181-10.919,0.007-16.358
		c-0.002-0.054-0.037-0.08-0.076-0.09c0.501-0.586,0.945-1.246,1.336-1.945c-0.009,5.622-0.01,11.246,0.015,16.869
		c0,0.029,0.016,0.046,0.028,0.065C36.161,32.971,35.73,33.462,35.26,33.919z M36.816,32.15c0.158-5.686,0.13-11.379-0.063-17.063
		c0.271-0.529,0.51-1.079,0.717-1.639c-0.004,5.533,0.281,11.089,0.544,16.613c0.003,0.055,0.035,0.085,0.074,0.103
		C37.697,30.861,37.284,31.532,36.816,32.15z M37.719,12.71c0.119-0.381,0.222-0.765,0.31-1.148
		c0.546,5.461,0.845,10.925,1.123,16.408c-0.273,0.647-0.566,1.27-0.884,1.865C38.178,24.135,38.111,18.399,37.719,12.71z
		 M39.359,27.427c0.047-5.717-0.415-11.431-1.108-17.103c0.095-0.689,0.139-1.366,0.116-2.007c1.294,5.79,1.137,11.504,1.611,17.401
		C39.793,26.315,39.578,26.873,39.359,27.427z"/>
	<path style="fill:#1D1D1B;" d="M21.469,6.835c-0.639-0.879-3.724-2.039-3.866-0.159c-0.125,1.652,2.653,2.144,3.663,1.325
		c0.198-0.16-0.082-0.432-0.278-0.278c-0.511,0.402-1.129,0.372-1.716,0.19c-0.23-0.071-0.814-0.308-0.945-0.532
		c-0.009-0.374-0.018-0.748-0.027-1.123c0.158-0.088,0.326-0.133,0.504-0.135c1.103-0.131,2.717,0.683,2.642,1.953
		c-0.142,2.416-5.007,0.898-3.839-1.624c0.062-0.133-0.128-0.25-0.2-0.117c-0.814,1.503,0.628,3.139,2.127,3.341
		C21.194,9.899,22.583,8.369,21.469,6.835z"/>
	<path style="fill:#1D1D1B;" d="M30.606,10.091c-0.001-0.07-0.076-0.14-0.163-0.104c-1.64,0.694-1.837,2.979-0.268,3.893
		c1.474,0.859,3.408-0.382,3.159-2.097C33.182,10.728,31.573,9.548,30.606,10.091z M32.404,10.933
		c0.296,0.293,0.456,0.675,0.478,1.073c-0.016,0.001-0.028-0.008-0.046,0c-0.464,0.191-0.941,0.381-1.451,0.287
		c-0.605-0.112-1.151-0.682-0.931-1.342C30.741,10.087,31.947,10.481,32.404,10.933z M32.827,12.547
		c-0.379,1.271-1.992,1.55-2.876,0.624c-0.84-0.88-0.546-2.145,0.346-2.814c-0.075,0.092-0.144,0.196-0.201,0.325
		c-0.264,0.598-0.029,1.361,0.492,1.74c0.663,0.482,1.593,0.364,2.264-0.041C32.843,12.436,32.844,12.492,32.827,12.547z"/>
	<path style="fill:#1D1D1B;" d="M10.014,17.225c-0.434-1.563-2.846-2.57-4.039-1.31c-2.03,0.56-1.776,3.152-0.093,4.025
		C7.733,20.9,10.677,19.608,10.014,17.225z M6.111,19.549c-1.361-0.694-1.508-2.261-0.471-3.134
		c-0.89,1.795,1.577,3.369,3.212,2.913C8.113,19.876,6.991,19.997,6.111,19.549z M9.083,19.129c-0.01-0.046-0.042-0.084-0.104-0.076
		c-0.686,0.087-1.357,0.118-1.997-0.216c-0.66-0.345-1.409-1.333-1.073-2.128c0.746-1.766,3.444-0.887,3.701,0.747
		C9.72,18.156,9.49,18.724,9.083,19.129z"/>
	<path style="fill:#1D1D1B;" d="M18.286,19.91c-0.006,0.002-0.013,0.004-0.019,0.006c0.019-0.102,0.042-0.204,0.044-0.312
		c0.017-1.137-1.442-2.09-2.299-1.184c-0.01-0.002-0.018-0.008-0.03-0.006c-1.427,0.227-1.046,2.098-0.09,2.665
		c0.948,0.562,1.981,0.023,2.307-0.9c0.05-0.017,0.1-0.033,0.149-0.051C18.479,20.077,18.425,19.864,18.286,19.91z M17.913,19.995
		c-0.003,0.012-0.01,0.022-0.014,0.034c-0.365,0.103-0.745,0.166-1.116,0.066c-0.634-0.172-1.122-0.962-0.565-1.497
		C17.148,17.706,18.175,19.078,17.913,19.995z M16.185,20.852c-0.783-0.379-1.243-1.662-0.373-2.148
		c-0.218,0.45-0.07,0.951,0.309,1.292c0.471,0.423,1.084,0.437,1.664,0.303C17.476,20.866,16.825,21.162,16.185,20.852z"/>
	<path style="fill:#1D1D1B;" d="M26.179,26.444c-0.386-1.204-2.087-1.939-3.207-1.469c-0.001,0-0.002-0.001-0.003-0.001
		c-0.914,0.125-1.585,0.81-1.754,1.719c-0.188,1.013,0.406,1.825,1.255,2.314c0.923,0.531,2.015,0.609,2.873-0.077
		C26.068,28.348,26.471,27.354,26.179,26.444z M25.797,27.566c-0.505,1.711-2.585,1.768-3.7,0.626
		c-0.764-0.782-0.558-1.967,0.179-2.628c-0.096,0.152-0.179,0.322-0.231,0.527c-0.478,1.869,2.769,3.358,3.6,1.551
		c0.084-0.184-0.176-0.345-0.276-0.161c-1.055,1.941-4.576-0.926-2.286-2.121C24.484,24.628,26.242,26.056,25.797,27.566z"/>
</g>
<g>
</g>
<g>
</g>
<g>
</g>
<g>
</g>
<g>
</g>
<g>
</g>
<g>
</g>
<g>
</g>
<g>
</g>
<g>
</g>
<g>
</g>
<g>
</g>
<g>
</g>
<g>
</g>
<g>
</g>
</svg>
