<?xml version="1.0" encoding="iso-8859-1"?>
<!-- Generator: Adobe Illustrator 18.0.0, SVG Export Plug-In . SVG Version: 6.00 Build 0)  -->
<!DOCTYPE svg PUBLIC "-//W3C//DTD SVG 1.1//EN" "http://www.w3.org/Graphics/SVG/1.1/DTD/svg11.dtd">
<svg version="1.1" id="Capa_1" xmlns="http://www.w3.org/2000/svg" xmlns:xlink="http://www.w3.org/1999/xlink" x="0px" y="0px"
	 viewBox="0 0 54.7 54.7" style="enable-background:new 0 0 54.7 54.7;" xml:space="preserve">
<g>
	<path style="fill:#1D1D1B;" d="M43.188,32.547c1.549-0.754,2.152-2.892,1.14-4.338c-0.465-0.664-0.757-1.147-0.858-1.976
		c-0.059-0.489-0.038-0.802-0.352-1.244c-0.265-0.372-0.596-0.619-0.968-0.749c1.098-0.886,0.838-2.592-0.309-3.26
		c0.547-0.165,1.015-0.604,1.127-1.185c0.145-0.749-0.319-1.444-0.981-1.719c0.835-0.712,1.117-2.094,0.755-3.087
		c-0.379-1.041-1.341-1.681-2.388-1.784c0.579-0.693,0.728-1.889,0.323-2.596c-0.462-0.806-1.435-1.15-2.306-0.981
		c0.656-0.776,0.831-1.945,0.361-2.911c-0.868-1.783-3.103-1.751-4.63-0.906c-0.105-1.942-2.433-2.752-3.561-1.375
		c-0.159-0.915-0.949-1.693-1.916-1.683c-0.566,0.005-1.045,0.28-1.372,0.686C27.283,2,26.349,0.403,24.959,0.106
		c-1.357-0.29-2.823,0.717-2.878,2.061c-0.058,0.013-0.117,0.021-0.175,0.041c-0.352-1.418-1.905-2.46-3.365-2.154
		c-1.074,0.225-1.846,1.101-2.092,2.113c-0.101-0.016-0.21,0.026-0.229,0.145c-0.096,0.594-0.192,1.188-0.288,1.783
		c-0.033,0.207,0.081,0.362,0.292,0.383c7.178,0.71,15.301,1.606,19.811,8.034c3.782,5.39,4.698,13.406,4.016,19.787
		c-0.709,6.634-4.519,12.455-10.319,15.806c-2.299,1.328-5.903,1.571-7.463,3.843c-0.057-0.124-0.274-0.145-0.301,0.016
		c-0.031,0.185-0.036,0.37-0.021,0.552c-0.064,0.136-0.128,0.271-0.178,0.419c-0.04,0.118,0.009,0.223,0.092,0.291
		c-2.971-0.204-5.009-10.537-5.388-11.951c-1.054-3.935-2.062-7.883-2.941-11.861c-1.516-6.866-7.111-24.744,2.681-27.298
		c0.281-0.073,0.158-0.474-0.118-0.427c-10.64,1.8-4.708,20.521-3.323,26.962c1.536,7.144,2.962,15.035,5.664,21.838
		c0.772,1.943,1.767,4.123,3.88,3.08c0.476,0.778,1.36,1.293,2.339,1.087c1.007-0.212,1.975-1.416,1.888-2.501
		c0.477,0.516,1.276,0.718,1.919,0.36c0.489-0.272,0.802-0.888,0.788-1.468c1.474,0.237,2.829-1.063,2.682-2.456
		c0.582,0.564,1.431,0.833,2.251,0.569c0.944-0.303,1.658-1.345,1.596-2.341c0.007,0.008,0.004,0.018,0.014,0.026
		c0.804,0.639,2.064,0.523,2.698-0.312c0.545-0.718,0.487-1.867-0.143-2.515c1.402,0.273,2.937-0.907,2.696-2.414
		c-0.088-0.549-0.426-1.046-0.881-1.396c1.457-0.395,2.221-2.259,1.147-3.499c-0.188-0.217-0.526,0.061-0.389,0.3
		c0.41,0.714,0.536,1.568-0.068,2.232c-0.235,0.258-0.545,0.433-0.881,0.521c-0.051,0.014-0.293,0.047-0.541,0.052
		c-0.185-0.063-0.376-0.094-0.568-0.106c-0.011-0.011-0.01-0.028-0.016-0.041c0.045,0.046,0.148,0.038,0.167-0.038
		c0.049-0.203-0.113-0.286-0.277-0.269c2.319-4.919,2.47-10.393,1.705-15.863c-0.759-5.428-2.499-11.032-6.925-14.591
		c-1.971-1.586-4.303-2.62-6.708-3.351c-1.456-0.442-8.868-0.882-10.012-2.665c0.119-1.032,0.805-2.001,1.878-2.218
		c1.303-0.263,2.291,0.686,2.669,1.824c-0.209,0.146-0.387,0.316-0.494,0.488c-0.128,0.206,0.181,0.373,0.319,0.186
		c0.092-0.125,0.208-0.224,0.335-0.307c0.155,0.167,0.498,0.097,0.485-0.177c0-0.005-0.002-0.009-0.002-0.014
		c0.048-0.008,0.096-0.018,0.145-0.022c0.006,0.031,0.001,0.059,0.009,0.091c0.04,0.155,0.251,0.088,0.236-0.06
		c0.204,0.037,0.401,0.102,0.612,0.122c0.199,0.019,0.243-0.228,0.145-0.351c-0.19-0.241-0.456-0.325-0.741-0.322
		c0.247-1.278,2.02-1.967,3.116-1.228c1.214,0.818,1.174,2.178,1.138,3.459c-0.003,0.126,0.075,0.19,0.166,0.203
		c-0.003,0.044-0.013,0.087-0.013,0.131c-0.001,0.189,0.262,0.176,0.285,0c0.095-0.744,0.754-1.434,1.54-1.418
		c0.78,0.016,1.345,0.68,1.414,1.418c0.012,0.131,0.102,0.197,0.201,0.228c-0.058,0.125-0.112,0.255-0.154,0.401
		C30.041,5.483,30.29,5.598,30.36,5.44c0.114-0.456,0.429-0.728,0.945-0.817c1.07-0.944,1.829-0.417,2.275,1.582
		c-0.028,0.19,0.178,0.45,0.382,0.294c1.105-0.846,2.934-1.206,4-0.029c0.98,1.081,0.553,2.895-0.77,3.437
		c-0.05,0.02-0.074,0.059-0.1,0.097c-0.239-0.19-0.494-0.349-0.743-0.457c-0.196-0.085-0.367,0.181-0.172,0.295
		c0.403,0.235,0.764,0.521,1.04,0.901c0.241,0.331,0.339,0.709,0.528,1.063c0.099,0.185,0.429,0.109,0.409-0.111
		c-0.043-0.471-0.301-0.917-0.645-1.294c0.021-0.003,0.042,0.002,0.064-0.012c0.82-0.565,2.131-0.458,2.638,0.496
		c0.261,0.49,0.198,1.108-0.061,1.584c-0.24,0.443-0.625,0.607-0.999,0.898c-0.159,0.124-0.021,0.387,0.159,0.384
		c0.249-0.004,0.462-0.09,0.656-0.208c0.987,0.078,1.934,0.646,2.264,1.626c0.409,1.216-0.24,2.047-1.012,2.891
		c-0.135,0.148-0.005,0.446,0.212,0.364c0.063-0.024,0.115-0.064,0.174-0.094c0.579,0.176,1.034,0.776,0.861,1.397
		c-0.177,0.635-0.883,0.892-1.47,0.724c-0.291-0.083-0.402,0.266-0.222,0.438c0,0.073,0.032,0.146,0.118,0.159
		c1.605,0.258,1.925,2.22,0.538,3.014c-0.042,0.024-0.05,0.06-0.072,0.092c-0.15,0.01-0.3,0.017-0.457,0.056
		c-0.295,0.075-0.17,0.52,0.125,0.454l1.767,0.748c0.007,0.444,0.014,0.887,0.021,1.331c0.008,0.146-0.081,0.346-0.031,0.487
		c0.156,0.435,0.396,0.495,0.685,0.823c1.175,1.328,1.148,3.342-0.554,4.288c-0.044,0.024-0.066,0.058-0.075,0.092
		c0.002-0.246,0.007-0.493-0.01-0.737c-0.02-0.301-0.447-0.301-0.468,0c-0.045,0.663,0.003,1.336,0.018,2
		c0.006,0.278,0.426,0.279,0.432,0c0.006-0.25,0.015-0.502,0.023-0.754c1.63,1.194,0.819,3.659-1.244,3.601
		c-0.244-0.007-0.233,0.348,0,0.373C44.092,37.178,45.244,33.903,43.188,32.547z M30.975,50.08c-0.453,0.503-1.127,0.697-1.78,0.608
		c-0.04-0.132-0.094-0.26-0.18-0.373c-0.129-0.169-0.465-0.083-0.379,0.16c0.202,0.567,0.224,1.195-0.324,1.587
		c-0.556,0.398-1.341,0.166-1.691-0.389c-0.019-0.031-0.047-0.038-0.073-0.052c0.426-0.188,0.787-0.475,0.862-0.888
		c0.023-0.129-0.108-0.26-0.235-0.181c-0.29,0.18-0.453,0.485-0.753,0.669c-0.066,0.04-0.138,0.056-0.206,0.088
		c-0.125-0.091-0.356-0.065-0.329,0.135c0,0.002,0,0.004,0.001,0.005c-0.201,0.055-0.409,0.083-0.625,0.08
		c-0.23-0.003-0.227,0.344,0,0.355c0.191,0.01,0.424-0.012,0.665-0.06c0.065,0.878-0.09,1.764-1.018,2.197
		c-0.842,0.392-1.683-0.015-2.176-0.694c0.034-0.022,0.065-0.037,0.099-0.06c0.148-0.101,0.017-0.334-0.142-0.243
		c-0.039,0.022-0.077,0.033-0.116,0.052c-0.037-0.067-0.077-0.133-0.107-0.203c1.306-2.24,6.219-3.531,8.729-4.94
		C31.504,48.647,31.533,49.461,30.975,50.08z M40.494,41.642c0.226,1.232-1.08,2.276-2.235,2.055
		c-0.088-0.017-0.148,0.035-0.174,0.099c-0.003-0.002-0.004-0.004-0.007-0.006c-0.212-0.137-0.419,0.163-0.26,0.337
		c0.529,0.579,0.798,1.408,0.284,2.104c-0.495,0.67-1.434,0.765-2.134,0.386c-0.081-0.044-0.167,0.009-0.201,0.079
		c-0.016-0.122-0.037-0.243-0.078-0.361c-0.074-0.212-0.431-0.195-0.414,0.056c0.062,0.946-0.219,1.958-1.22,2.303
		c-0.947,0.327-1.958-0.18-2.44-1.013c0.068-0.044,0.142-0.087,0.205-0.132c2.129-1.511,3.99-3.392,5.448-5.562
		c0.379-0.564,0.715-1.14,1.026-1.722C39.254,40.152,40.296,40.566,40.494,41.642z"/>
	<path style="fill:#1D1D1B;" d="M13.872,8.662c-0.441,0.606-0.693,1.529-0.218,2.188c0.081,0.113,0.282,0.051,0.238-0.1
		c-0.209-0.712-0.355-1.357,0.093-2.022C14.032,8.657,13.92,8.595,13.872,8.662z"/>
	<path style="fill:#1D1D1B;" d="M16.208,9.504c-0.271-0.471-0.77-0.756-1.307-0.583c-0.173,0.056-0.102,0.309,0.075,0.271
		c0.41-0.087,0.772,0.185,0.941,0.547c0.174,0.371,0.033,0.614-0.089,0.96c-0.047,0.132,0.111,0.218,0.217,0.167
		C16.537,10.627,16.434,9.895,16.208,9.504z"/>
	<path style="fill:#1D1D1B;" d="M18.307,7.681c-0.055-0.173-0.328-0.148-0.325,0.044c0.009,0.457-0.414,1.007-0.911,0.723
		c-0.377-0.216-0.392-0.768-0.104-1.062c0.118-0.12-0.056-0.285-0.181-0.181c-0.527,0.436-0.421,1.38,0.229,1.653
		C17.715,9.151,18.534,8.398,18.307,7.681z"/>
	<path style="fill:#1D1D1B;" d="M14.431,14.192c-0.339-0.377-0.944-0.563-1.429-0.364c-0.468,0.191-0.456,0.868-0.302,1.27
		c0.089,0.232,0.446,0.145,0.38-0.105c-0.073-0.272-0.076-0.622,0.22-0.707c0.262-0.075,0.563,0.131,0.744,0.293
		C14.306,14.816,14.668,14.455,14.431,14.192z"/>
	<path style="fill:#1D1D1B;" d="M16.319,13.94c-0.176-0.154-0.473-0.009-0.406,0.236c0.111,0.399,0.168,0.684-0.109,1.04
		c-0.269,0.344-0.708,0.547-1.117,0.322c-0.208-0.114-0.381,0.187-0.184,0.316c0.541,0.354,1.197,0.162,1.63-0.277
		C16.533,15.172,16.821,14.38,16.319,13.94z"/>
	<path style="fill:#1D1D1B;" d="M23.859,46.237c-0.41,0.323-0.598,0.901-1.125,1.087c-0.228,0.08-0.432,0.053-0.615-0.104
		c-0.195-0.168-0.4-0.524-0.114-0.721c0.179-0.124,0.024-0.399-0.172-0.294c-0.687,0.365-0.319,1.334,0.266,1.605
		c0.85,0.393,1.932-0.569,2.125-1.359C24.279,46.222,24.024,46.107,23.859,46.237z"/>
	<path style="fill:#1D1D1B;" d="M23.551,45.529c-0.233,0.076-0.134,0.396,0.099,0.359c0.373-0.058,0.739,0.073,0.998,0.347
		c0.255,0.27,0.231,0.532,0.354,0.849c0.062,0.159,0.322,0.248,0.411,0.054C25.881,46.124,24.403,45.25,23.551,45.529z"/>
	<path style="fill:#1D1D1B;" d="M27.127,43.584c-0.201,0.322-0.488,0.797-0.932,0.782c-0.161-0.005-0.414-0.1-0.489-0.258
		c-0.16-0.339,0.312-0.683,0.559-0.377c0.074,0.091,0.23-0.029,0.163-0.126c-0.438-0.632-1.424,0.026-1.1,0.723
		c0.18,0.387,0.646,0.574,1.053,0.524c0.583-0.072,0.979-0.574,1.18-1.086C27.662,43.508,27.264,43.364,27.127,43.584z"/>
	<path style="fill:#1D1D1B;" d="M29.776,30.88c-0.46,0.427-0.918,0.81-1.471,1.096c-0.164-0.241-0.136-0.549,0.118-0.753
		c0.156-0.126-0.049-0.391-0.215-0.279c-0.512,0.345-0.589,1.08-0.119,1.5c0.057,0.051,0.149,0.091,0.226,0.06
		c0.711-0.291,1.368-0.716,1.757-1.396C30.179,30.92,29.932,30.735,29.776,30.88z"/>
	<path style="fill:#1D1D1B;" d="M30.735,28.714c-0.395-0.459-1.104,0.164-1.304,0.557c-0.095,0.186,0.177,0.349,0.282,0.165
		c0.111-0.194,0.402-0.547,0.66-0.465c0.187,0.06,0.349,0.516,0.416,0.684c0.185,0.464,0.203,0.948,0.329,1.423
		c0.045,0.17,0.33,0.189,0.363,0C31.615,30.316,31.234,29.294,30.735,28.714z"/>
	<path style="fill:#1D1D1B;" d="M33.452,31.884c-0.293-0.443-0.967-0.328-1.362-0.092c-0.46,0.274-0.712,0.746-0.638,1.276
		c0.025,0.175,0.324,0.135,0.311-0.042c-0.029-0.394,0.182-0.709,0.529-0.888c0.367-0.189,0.604-0.057,0.968-0.004
		C33.393,32.154,33.543,32.022,33.452,31.884z"/>
	<path style="fill:#1D1D1B;" d="M33.429,27.93c-0.145,0.314-0.234,0.671-0.478,0.93c-0.141,0.15-0.345,0.273-0.56,0.23
		c-0.239-0.048-0.59-0.371-0.371-0.649c0.109-0.138-0.071-0.334-0.199-0.199c-0.437,0.462,0.013,1.159,0.568,1.256
		c0.793,0.138,1.323-0.814,1.399-1.471C33.811,27.839,33.508,27.761,33.429,27.93z"/>
	<path style="fill:#1D1D1B;" d="M29.761,15.659c-0.656,0.108-1.053,0.735-0.977,1.373c0.018,0.155,0.255,0.164,0.25,0
		c-0.017-0.476,0.344-0.99,0.861-0.985c0.467,0.005,0.692,0.38,0.923,0.722c0.087,0.13,0.272,0.075,0.285-0.077
		C31.159,16.021,30.36,15.56,29.761,15.659z"/>
	<path style="fill:#1D1D1B;" d="M31.979,17.034c-0.096,0.805-1.328,1.281-1.816,0.53c-0.114-0.176-0.385-0.02-0.282,0.165
		c0.614,1.101,2.675,0.558,2.492-0.748C32.338,16.738,32.003,16.832,31.979,17.034z"/>
	<path style="fill:#1D1D1B;" d="M32.304,12.638c-0.092-0.178-0.36-0.087-0.364,0.098c-0.007,0.371-0.107,0.778-0.53,0.866
		c-0.505,0.106-0.822-0.447-0.694-0.883c0.068-0.23-0.278-0.32-0.356-0.098c-0.232,0.663,0.253,1.468,0.991,1.457
		C32.043,14.069,32.637,13.281,32.304,12.638z"/>
	<path style="fill:#1D1D1B;" d="M19.681,25.609c-0.072-0.155-0.352-0.123-0.379,0.049c-0.067,0.43-0.125,0.759-0.524,1.011
		c-0.309,0.195-0.892,0.303-1.209,0.052c-0.098-0.078-0.236,0.049-0.142,0.142c0.202,0.198,0.339,0.355,0.636,0.398
		c0.302,0.043,0.625-0.039,0.893-0.177C19.467,26.821,19.953,26.197,19.681,25.609z"/>
	<path style="fill:#1D1D1B;" d="M19.245,23.818c-0.547-0.016-1.067,0.269-1.217,0.814c-0.068,0.246,0.302,0.345,0.38,0.105
		c0.115-0.359,0.484-0.499,0.837-0.468c0.393,0.035,0.527,0.256,0.726,0.553c0.12,0.178,0.377,0.104,0.393-0.106
		C20.408,24.151,19.719,23.832,19.245,23.818z"/>
	<path style="fill:#1D1D1B;" d="M16.461,23.978c-0.09-0.42-0.426-0.915-0.905-0.84c-0.142,0.022-0.177,0.224-0.083,0.314
		c0.209,0.2,0.44,0.272,0.551,0.569c0.122,0.328,0.057,0.666-0.207,0.898c-0.146,0.128,0.052,0.394,0.211,0.273
		C16.41,24.903,16.562,24.45,16.461,23.978z"/>
</g>
<g>
</g>
<g>
</g>
<g>
</g>
<g>
</g>
<g>
</g>
<g>
</g>
<g>
</g>
<g>
</g>
<g>
</g>
<g>
</g>
<g>
</g>
<g>
</g>
<g>
</g>
<g>
</g>
<g>
</g>
</svg>
