<?xml version="1.0" encoding="iso-8859-1"?>
<!-- Generator: Adobe Illustrator 18.0.0, SVG Export Plug-In . SVG Version: 6.00 Build 0)  -->
<!DOCTYPE svg PUBLIC "-//W3C//DTD SVG 1.1//EN" "http://www.w3.org/Graphics/SVG/1.1/DTD/svg11.dtd">
<svg version="1.1" id="Capa_1" xmlns="http://www.w3.org/2000/svg" xmlns:xlink="http://www.w3.org/1999/xlink" x="0px" y="0px"
	 viewBox="0 0 54.869 54.869" style="enable-background:new 0 0 54.869 54.869;" xml:space="preserve">
<g>
	<path style="fill:#1D1D1B;" d="M52.627,22.089c-0.13-0.085-0.253-0.048-0.334,0.036c-1.414-0.959-3.188-1.559-4.832-1.803
		c-0.236-0.035-1.581-0.258-1.697,0.179c-1.97-3.624-6.361-6.923-10.105-3.765c-1.511-0.91-3.52-1.258-5.047-1.048
		c-0.646,0.089-1.258,0.269-1.83,0.517c-0.002-0.017,0.009-0.03,0.002-0.048c-0.245-0.652-0.981-0.809-1.822-0.744
		c0-0.083-0.032-0.166-0.119-0.224c-3.135-2.113-9.805-3.069-12.105,0.857c-1.641-0.337-3.436,0.263-4.843,1.376
		c-0.034-0.069-0.09-0.125-0.196-0.122c-2.621,0.072-5.259,0.785-7.27,2.53c-0.058,0.05-0.054,0.11-0.027,0.161
		c-4.11,2.498-2.374,7.57,0.959,10.057c1.097,0.818,2.307,1.507,3.588,2.103c7.37,12.027,29.827,12.072,39.155,2.436
		c1.735-0.599,3.382-1.398,4.881-2.475C54.28,29.738,56.934,24.9,52.627,22.089z M44.271,26.793
		c0.229-0.933,1.131-1.401,2.005-1.251c-0.818,0.838-2.159,1.498-3.349,1.941c-0.273-0.963,0.872-1.807,1.603-2.192
		c0.708-0.373,1.424-0.449,2.108-0.201c-0.024,0.035-0.038,0.072-0.064,0.106c-1.077-0.402-2.399,0.39-2.553,1.529
		C43.998,26.884,44.23,26.961,44.271,26.793z M44.084,25.073c-0.81,0.514-1.839,1.466-1.384,2.488
		c-0.577,0.204-1.11,0.359-1.509,0.449c0.493-2.737,2.884-4.52,5.651-3.781c0.028,0.058,0.072,0.095,0.133,0.11
		c-0.026,0.124-0.054,0.248-0.108,0.366C45.974,24.333,44.923,24.542,44.084,25.073z M40.842,28.08
		c-0.286,0.057-0.572,0.114-0.858,0.169c0.701-0.795,0.985-1.942,0.848-3.018c0.705-0.961,1.634-1.71,2.783-2.077
		c0.923-0.295,2.547-0.441,3.053,0.569C43.836,23.159,40.984,25.046,40.842,28.08z M28.933,26.15
		c1.73,0.448,3.544,1.142,4.043,3.004c-0.39,0.026-0.779,0.062-1.169,0.079c-0.001-0.02,0.011-0.035,0.002-0.058
		C31.252,27.761,30.196,26.745,28.933,26.15z M22.332,28.077c-0.157,0.174-0.329,0.335-0.522,0.476
		c-1.053-0.165-2.186-0.356-3.337-0.574c0-0.009,0.008-0.012,0.008-0.021c-0.085-1.185-0.467-2.332-1.05-3.346
		c-0.001-0.005,0.003-0.007,0.002-0.012c-0.265-1.35,1.694-1.648,2.583-1.596c0.887,0.051,1.781,0.398,2.4,1.051
		c1.07,1.129,0.936,2.691,0.083,3.803c-0.046,0.014-0.093,0.02-0.139,0.037C22.273,27.927,22.275,28.034,22.332,28.077z
		 M14.521,23.012c-1.337-1.13-3.084-1.51-4.687-1.116c2.322-0.91,4.658-0.109,6.244,1.584c0.008,0.051,0.046,0.094,0.095,0.1
		c1.021,1.134,1.715,2.644,1.852,4.312c-0.439-0.085-0.878-0.173-1.316-0.266C17.352,26.593,15.065,23.472,14.521,23.012z
		 M11.449,24.155c-0.597-0.224-2.841-0.691-3.215,0.178c-0.185-0.304-0.224-0.62-0.077-0.946c0.018-0.039,0.012-0.073,0.008-0.107
		c1.394-0.689,3.058-0.398,4.24,0.627c0.943,0.818,1.39,1.91,1.624,3.091c-0.283-0.074-0.565-0.148-0.837-0.226
		C13.493,25.633,12.465,24.537,11.449,24.155z M10.762,24.993c-0.506-0.227-1.066-0.078-1.467,0.274
		c-0.346-0.207-0.626-0.42-0.833-0.64c0.228-0.769,2.574-0.172,2.984,0.013c0.915,0.411,1.298,1.101,1.369,2.025
		c-0.445-0.131-0.877-0.266-1.278-0.406C11.696,25.751,11.197,25.189,10.762,24.993z M11.237,26.15
		c-0.688-0.252-1.291-0.517-1.783-0.794c0.396-0.231,0.874-0.26,1.272,0.012C11.027,25.575,11.104,25.86,11.237,26.15z
		 M19.225,21.55c-0.43,0.156-0.844,0.345-1.243,0.552c0.043-0.021,0.082-0.054,0.103-0.108c0.867-2.152,2.298-3.698,4.134-4.747
		c-1.434,1.062-2.535,2.54-2.995,4.295C19.223,21.545,19.226,21.547,19.225,21.55z M37.44,18.505
		c-0.123-0.247-0.283-0.47-0.457-0.684c1.962-0.245,3.85,0.696,4.912,2.272c-1.232-1.106-2.933-1.318-4.706-0.991
		c0.02-0.015,0.045-0.02,0.061-0.043c0.063-0.092,0.127-0.185,0.19-0.277C37.497,18.699,37.482,18.59,37.44,18.505z M42.441,21.609
		c-0.335,0.122-0.664,0.265-0.978,0.444c-0.003-0.026,0-0.053-0.018-0.077c-2.635-3.552-8.535-0.798-10.508,2.149
		c-0.42-0.095-0.85-0.154-1.285-0.185C32.589,20.756,38.938,17.381,42.441,21.609z M34.037,25.477
		c-0.471-0.328-0.972-0.606-1.495-0.837c1.789-2.58,4.808-3.268,7.526-1.649c0.015,0.009,0.028,0,0.043,0.006
		c-0.083,0.068-0.169,0.135-0.25,0.205c-0.085-0.082-0.166-0.166-0.262-0.238C37.591,21.456,33.409,22.567,34.037,25.477z
		 M32.201,24.502c-0.313-0.123-0.635-0.224-0.96-0.31c2.377-2.914,6.664-4.369,9.926-1.96c-0.255,0.16-0.504,0.33-0.742,0.512
		c-0.007-0.067-0.036-0.132-0.108-0.179C37.536,20.748,33.829,21.578,32.201,24.502z M31.56,19.733
		c0.496,0.319,0.762,0.759,1.127,1.178c-0.276,0.171-0.546,0.346-0.802,0.528c-0.265-0.894-0.812-1.647-1.528-2.163
		C30.782,19.351,31.192,19.496,31.56,19.733z M29.893,18.982c-0.323-0.169-0.674-0.288-1.041-0.36
		c1.984-0.636,3.829,0.04,5.248,1.52c-0.38,0.183-0.754,0.379-1.113,0.591C32.629,19.548,31.045,18.929,29.893,18.982z
		 M34.474,19.966c-1.174-2.049-4.116-2.56-6.06-1.415c-0.004,0.002-0.004,0.007-0.007,0.01c-0.132-0.01-0.265-0.019-0.401-0.015
		c-0.154,0.004-0.311,0.025-0.467,0.049c2.822-1.461,5.65-1.637,7.971,0.933c0.01,0.011,0.021,0.008,0.032,0.015
		C35.182,19.669,34.825,19.809,34.474,19.966z M28.89,19.257c1.213,0.293,2.049,1.248,2.446,2.396
		c0.019,0.055,0.051,0.095,0.086,0.127c-0.863,0.667-1.584,1.379-2.058,2.059c-0.019,0.027-0.019,0.054-0.016,0.081
		c-0.486-0.017-0.979,0.005-1.475,0.081c-0.546-1.294-1.49-2.133-2.626-2.614C25.347,19.658,27.416,18.901,28.89,19.257z
		 M25.368,19.265c-0.417,0.022-0.884,0.257-1.192,0.451c-0.477,0.3-0.833,0.721-1.087,1.218c-0.361-0.023-0.728-0.014-1.098,0.01
		c0.643-0.386,1.073-1.088,1.729-1.502c0.654-0.412,1.323-0.548,2.021-0.754C25.61,18.876,25.482,19.065,25.368,19.265z
		 M24.603,21.173c-0.38-0.111-0.778-0.177-1.184-0.221c0.273-0.38,0.606-0.707,1.021-0.934c0.209-0.114,0.434-0.169,0.659-0.22
		c-0.202,0.428-0.379,0.869-0.5,1.338C24.595,21.151,24.602,21.16,24.603,21.173z M27.865,25.68c0.011,0.041,0.039,0.055,0.06,0.08
		c-0.242-0.066-0.488-0.119-0.737-0.156c-1.542-4.111-6.415-5.22-9.487-2.44c-0.034,0.028-0.068,0.057-0.1,0.087
		c-0.218,0.206-0.427,0.431-0.624,0.678c-0.141-0.196-0.291-0.383-0.447-0.564c1.219-0.857,2.646-1.51,4.076-1.825
		c0.066,0.042,0.154,0.044,0.196-0.035C23.832,20.904,26.835,21.851,27.865,25.68z M20.143,22.264
		c2.552-0.663,5.337,0.508,6.541,3.303c-0.503-0.036-1.01-0.034-1.513,0.048c0.017-0.033,0.026-0.071,0.017-0.115
		C24.725,23.191,22.317,22.066,20.143,22.264z M24.909,25.657c-0.408,0.084-0.811,0.208-1.202,0.375
		c-0.031-1.075-0.503-2.153-1.383-2.785c-0.411-0.296-0.89-0.492-1.386-0.62c0.649,0.058,1.286,0.242,1.881,0.59
		c1.009,0.592,1.472,1.457,2.057,2.415C24.885,25.646,24.898,25.647,24.909,25.657z M20.352,17.593
		c-0.75-0.825-2.253-0.699-3.233-0.247c-0.068-0.073-0.144-0.121-0.214-0.188c1.543-0.807,3.043-1.186,4.616-0.178
		c-0.62,0.41-1.193,0.897-1.705,1.442c-0.681-0.608-1.582-0.849-2.476-0.805c0.43-0.138,0.875-0.204,1.334-0.17
		c0.553,0.041,0.992,0.306,1.519,0.419C20.353,17.901,20.464,17.716,20.352,17.593z M19.541,18.716
		c-0.187,0.216-0.367,0.439-0.534,0.67c-0.241-0.573-0.652-1.047-1.153-1.388C18.443,18.133,18.994,18.376,19.541,18.716z
		 M21.919,16.74c-1.338-1.658-3.686-0.787-5.261,0.202c-0.24-0.2-0.491-0.367-0.751-0.505c2.333-1.309,4.831-1.858,7.245-0.365
		c0.043,0.027,0.088,0.024,0.132,0.018C22.812,16.268,22.354,16.483,21.919,16.74z M18.567,19.801
		c0.019,0.05,0.049,0.086,0.082,0.116c-0.391,0.623-0.722,1.281-0.951,1.971c-0.061,0.183,0.124,0.277,0.264,0.224
		c-0.582,0.304-1.128,0.656-1.603,1.066c-0.783-0.854-1.732-1.514-2.762-1.874c0.001-0.007,0.007-0.012,0.007-0.019
		c0.008-1.236,0.374-2.57,1.642-3.077C16.6,17.665,18.062,18.497,18.567,19.801z M13.311,21.218
		c-0.429-0.125-0.87-0.193-1.317-0.206c0.161-0.473,0.379-0.901,0.73-1.271c0.189-0.199,0.427-0.341,0.654-0.491
		C13.106,19.875,13.039,20.574,13.311,21.218z M12.358,19.518c-0.351,0.434-0.582,0.949-0.661,1.501
		c-0.427,0.013-0.858,0.102-1.288,0.23c0.399-0.918,1.029-1.703,1.867-2.266c0.573-0.385,1.156-0.573,1.773-0.719
		c-0.117,0.117-0.227,0.242-0.325,0.376c-0.006-0.001-0.009-0.005-0.015-0.005C13.198,18.62,12.659,19.146,12.358,19.518z
		 M15.163,17.553c-0.09,0.03-0.175,0.074-0.261,0.114c-0.014-0.004-0.022-0.016-0.037-0.018c-2.216-0.199-4.251,1.746-4.875,3.728
		c-0.295,0.116-0.589,0.262-0.88,0.439c0.818-3.059,3.464-4.705,6.47-4.356C15.441,17.485,15.301,17.507,15.163,17.553z
		 M9.431,22.426c1.326-0.41,2.775-0.338,4.025,0.4c0.808,0.477,1.451,1.128,1.956,1.916c0.323,0.504,1.14,2.049,0.784,2.773
		c-0.592-0.13-1.178-0.265-1.746-0.408C14.437,24.568,11.869,22.109,9.431,22.426z M23.221,28.007
		c0.787,0.031,1.536,0.399,2.031,1.032c-0.738-0.093-1.631-0.213-2.631-0.362C22.866,28.487,23.058,28.256,23.221,28.007z
		 M23.37,27.732c0.025-0.049,0.038-0.103,0.061-0.153c0.708-0.059,1.414,0.049,2.076,0.338c0.71,0.309,1.166,0.795,1.662,1.331
		c-0.21-0.012-0.729-0.063-1.484-0.154c-0.002-0.025,0.004-0.048-0.013-0.074C25.139,28.218,24.28,27.751,23.37,27.732z
		 M23.527,27.333c0.044-0.124,0.071-0.255,0.099-0.384c2.259-0.534,4.585,0.329,5.758,2.334c-0.627,0-1.255-0.004-1.884-0.027
		C26.861,27.802,25.057,27.158,23.527,27.333z M23.681,26.653c0.011-0.079,0.011-0.158,0.017-0.238
		c3.191-1.138,5.924,0.046,7.693,2.835c-0.528,0.02-1.056,0.034-1.585,0.038C28.702,27.093,26.052,25.826,23.681,26.653z
		 M28.392,25.725c-0.102-0.018-0.163,0.061-0.168,0.139c-0.026-0.008-0.051-0.02-0.077-0.028c0.106-0.036,0.196-0.139,0.175-0.282
		c-0.028-0.192-0.08-0.357-0.121-0.536c2.854,0.47,5.368,1.102,6.479,3.998c-0.424,0.039-0.848,0.078-1.272,0.109
		C32.931,26.79,30.438,26.093,28.392,25.725z M28.153,24.8c-0.048-0.183-0.118-0.343-0.179-0.512
		c3.489-0.165,6.731,1.43,8.438,4.537c-0.435,0.055-0.87,0.11-1.305,0.154C34.488,26.018,30.933,24.522,28.153,24.8z M34.482,25.809
		c0.003-0.022,0.016-0.039,0.011-0.065c-0.579-2.871,3.383-3.734,5.059-2.04c1.549,1.567,0.599,3.715-0.922,4.795
		c-0.585,0.097-1.17,0.19-1.762,0.272c-0.002,0-0.005,0.001-0.007,0.001c0.016-0.055,0.017-0.115-0.018-0.179
		C36.24,27.5,35.43,26.559,34.482,25.809z M44.45,22.475c-1.517,0.197-2.828,1.032-3.708,2.245c-0.11-0.41-0.295-0.793-0.543-1.133
		c1.781-1.468,4.898-2.632,6.452-0.623C46.073,22.51,45.214,22.376,44.45,22.475z M36.318,16.678
		c4.099-2.054,7.95,1.105,9.498,5.065c-0.359-0.185-0.754-0.32-1.18-0.388c-0.578-0.092-1.138-0.045-1.677,0.089
		c-0.692-2.682-3.392-4.416-6.121-3.929c-0.043,0.008-0.065,0.031-0.084,0.056c-0.188-0.196-0.396-0.377-0.62-0.543
		c3.295-0.75,6.214,0.927,7.404,4.116c0.086,0.229,0.439,0.142,0.373-0.103C42.997,17.667,39.577,15.87,36.318,16.678z
		 M30.051,16.281c1.089-0.253,2.26-0.217,3.338,0.071c0.734,0.196,3.798,1.355,3.459,2.538c-0.036,0.127,0.033,0.218,0.128,0.253
		c-0.388,0.081-0.779,0.183-1.168,0.31c0.018-0.047,0.024-0.1-0.004-0.153c-1.755-3.355-6.379-2.546-8.889-0.689
		c-0.051,0.038-0.06,0.09-0.053,0.139c-0.372,0.123-0.722,0.304-1.028,0.53C26.846,17.829,28.26,16.697,30.051,16.281z
		 M28.321,16.352c0.015,0.024,0.041,0.028,0.061,0.045c-0.892,0.456-1.676,1.09-2.308,1.861c-0.015-0.005-0.025-0.017-0.042-0.019
		c-1.34-0.132-3.91,1.169-4.154,2.621c-0.01,0.06,0.047,0.116,0.107,0.085c-0.313,0.021-0.626,0.063-0.939,0.115
		c0.562-1.043,1.342-1.952,2.341-2.606c1.12-0.734,2.259-0.873,3.531-1.118c0.177-0.034,0.186-0.34,0-0.366
		c-2.672-0.378-5.309,1.804-6.275,4.167c-0.361,0.075-0.718,0.176-1.07,0.289c0.762-1.569,1.793-2.97,3.269-3.947
		C23.681,16.922,27.514,15.023,28.321,16.352z M26.297,15.497c-0.373,0.07-0.747,0.168-1.094,0.276
		c-0.029-0.073-0.083-0.132-0.18-0.12c-0.565,0.07-1.114,0.207-1.644,0.398c0.115-0.077,0.18-0.235,0.049-0.338
		c-2.421-1.906-5.55-1.026-7.862,0.584c-0.18-0.077-0.366-0.126-0.551-0.177C17.525,12.836,23.197,13.627,26.297,15.497z
		 M10.59,17.56c1.315-0.782,3.023-1.178,4.489-0.762c-3.044-0.242-5.82,1.971-6.321,5.1c-0.009,0.053,0.008,0.096,0.036,0.13
		c-0.2,0.139-0.398,0.288-0.594,0.46c-0.049,0.043-0.043,0.103-0.017,0.153c-0.117,0.08-0.239,0.149-0.351,0.239
		C7.61,20.728,8.658,18.71,10.59,17.56z M7.603,32.449c6.25,2.692,14.15,3.149,20.463,3.508c5.365,0.305,11.527,0.549,16.945-1.028
		C35.304,43.761,15.757,42.677,7.603,32.449z M48.724,32.817c-2.699,1.432-5.79,2.085-8.799,2.412
		c-3.924,0.427-7.926,0.349-11.859,0.124c-4.679-0.269-9.373-0.844-13.957-1.837c-2.648-0.574-5.381-1.25-7.821-2.458
		c-3.832-1.897-8.328-7.466-3.472-10.951c0.061-0.043,0.07-0.104,0.062-0.16c2.119-1.017,4.208-1.854,6.561-2.129
		c-1.598,1.49-2.531,3.67-1.799,5.803c-1.457,3.71,14.798,5.82,16.926,6.016c4.621,0.424,9.31,0.279,13.893-0.474
		c0.013-0.001,0.022,0.008,0.036,0.004c0.021-0.005,0.038-0.014,0.059-0.02c0.643-0.107,1.284-0.225,1.922-0.356
		c2.688-0.551,5.89-0.847,6.779-3.38c0.008,0.005,0.016,0.007,0.023,0.012c0.187,0.131,0.417-0.166,0.245-0.318
		c-0.05-0.044-0.105-0.074-0.157-0.113c0.058-0.252,0.104-0.517,0.119-0.811c0.003-0.054-0.022-0.082-0.042-0.114
		c0.038-0.032,0.066-0.076,0.053-0.141c-0.162-0.782-0.578-1.402-1.15-1.846c0.049-0.052,0.079-0.118,0.046-0.21
		c-0.131-0.36-0.298-0.723-0.482-1.085c0.253-0.971,6.27,1.856,6.651,2.042c0.031,0.015,0.062,0.007,0.094,0.007
		C56.849,26.069,52.001,31.079,48.724,32.817z"/>
	<path style="fill:#1D1D1B;" d="M19.953,24.157c-0.202,0.156-0.638,0.141-0.641-0.227c-0.001-0.166-0.237-0.159-0.253,0
		c-0.054,0.552,0.763,0.906,1.041,0.374C20.145,24.219,20.045,24.087,19.953,24.157z"/>
	<path style="fill:#1D1D1B;" d="M20.006,23.664c-0.109,0.016-0.081,0.191,0.026,0.19c0.535-0.006,0.673,0.462,0.681,0.899
		c0.003,0.125,0.16,0.159,0.226,0.061C21.35,24.213,20.589,23.581,20.006,23.664z"/>
	<path style="fill:#1D1D1B;" d="M21.416,24.698c-0.079,0.12-0.127,0.248-0.202,0.369c-0.045,0.06-0.09,0.12-0.134,0.18
		c-0.346,0.158-0.516,0.09-0.511-0.204c0.039-0.116-0.132-0.181-0.193-0.081c-0.196,0.321,0.021,0.664,0.379,0.74
		c0.507,0.108,0.887-0.445,0.954-0.879C21.736,24.646,21.521,24.539,21.416,24.698z"/>
	<path style="fill:#1D1D1B;" d="M21.79,23.843c-0.117-0.134-0.295,0.057-0.191,0.191c0.311,0.4,0.373,0.796,0.485,1.268
		c0.038,0.16,0.25,0.105,0.266-0.036C22.411,24.736,22.128,24.231,21.79,23.843z"/>
	<path style="fill:#1D1D1B;" d="M37.08,24.323c-0.094,0.116-0.199,0.281-0.336,0.347c-0.356,0.172-0.718-0.077-0.811-0.43
		c-0.038-0.144-0.238-0.08-0.217,0.06c0.123,0.834,1.439,1.099,1.611,0.167C37.351,24.338,37.183,24.197,37.08,24.323z"/>
	<path style="fill:#1D1D1B;" d="M37.006,23.307c-0.185,0.073-0.114,0.368,0.084,0.305c0.399-0.127,0.443,0.25,0.441,0.475
		c-0.001,0.116,0.168,0.206,0.249,0.103C38.161,23.708,37.52,23.103,37.006,23.307z"/>
	<path style="fill:#1D1D1B;" d="M35.442,25.741c-0.041,0.109,0.132,0.179,0.186,0.079c0.137-0.253,0.273,0.099,0.301,0.163
		c0.029,0.067,0.122,0.063,0.168,0.022c0.016-0.014,0.032-0.029,0.048-0.043c0.04-0.035,0.053-0.099,0.039-0.148
		C36.088,25.469,35.576,25.384,35.442,25.741z"/>
	<path style="fill:#1D1D1B;" d="M37.57,26.027c-0.065,0.127-0.1,0.298-0.172,0.415c-0.197,0.323-0.517,0.243-0.741-0.038
		c-0.075-0.094-0.229,0.028-0.166,0.128c0.169,0.267,0.442,0.441,0.769,0.414c0.449-0.037,0.495-0.422,0.554-0.815
		C37.835,25.994,37.646,25.88,37.57,26.027z"/>
	<path style="fill:#1D1D1B;" d="M38.627,25.009c-0.052-0.079-0.141-0.099-0.225-0.059c-0.257,0.123-0.514,0.244-0.771,0.366
		c-0.144,0.068-0.04,0.322,0.11,0.26c0.217-0.09,0.435-0.18,0.652-0.27c0.089,0.21,0.13,0.424,0.17,0.653
		c0.025,0.144,0.245,0.131,0.278,0C38.929,25.615,38.818,25.299,38.627,25.009z"/>
	<path style="fill:#1D1D1B;" d="M28.178,20.208c-0.3,0.266-1.073,0.58-0.955-0.271c0.014-0.104-0.139-0.154-0.163-0.045
		c-0.209,0.944,1.229,1.282,1.306,0.394C28.376,20.183,28.243,20.15,28.178,20.208z"/>
	<path style="fill:#1D1D1B;" d="M28.128,19.866c-0.044,0.055,0.014,0.157,0.083,0.108c0.405,0.073,0.533,0.208,0.385,0.405
		c-0.062,0.111,0.066,0.254,0.18,0.18C29.386,20.169,28.608,19.265,28.128,19.866z"/>
	<path style="fill:#1D1D1B;" d="M26.558,20.68c-0.154-0.063-0.264,0.197-0.114,0.27c0.171,0.144,0.228,0.305,0.17,0.481
		c-0.025,0.126,0.129,0.24,0.229,0.133C27.14,21.249,26.909,20.823,26.558,20.68z"/>
	<path style="fill:#1D1D1B;" d="M28.426,21.036c-0.248,0.335-0.501,0.543-0.92,0.62c-0.11,0.02-0.086,0.209,0.027,0.197
		c0.462-0.05,0.894-0.264,1.13-0.679C28.752,21.017,28.528,20.898,28.426,21.036z"/>
	<path style="fill:#1D1D1B;" d="M16.381,19.356c-0.049,0.12-0.136,0.194-0.26,0.224c-0.289,0.199-0.406,0.005-0.352-0.58
		c0.081-0.096-0.046-0.228-0.139-0.139c-0.285,0.27-0.316,0.779,0.044,1.013c0.364,0.236,0.893,0.01,0.958-0.412
		C16.654,19.315,16.467,19.215,16.381,19.356z"/>
	<path style="fill:#1D1D1B;" d="M16.355,18.732c-0.108,0.067-0.014,0.226,0.099,0.17c0.394-0.197,0.663,0.208,0.621,0.527
		c-0.019,0.14,0.18,0.137,0.224,0.03C17.53,18.908,16.822,18.442,16.355,18.732z"/>
	<path style="fill:#1D1D1B;" d="M17.972,20.312c-0.35-0.35-0.949-0.225-1.324,0.025c-0.161,0.108-0.022,0.34,0.151,0.258
		c0.39-0.185,0.689-0.078,1.085-0.07C17.992,20.527,18.047,20.388,17.972,20.312z"/>
	<path style="fill:#1D1D1B;" d="M14.875,19.718c-0.033-0.085-0.188-0.086-0.176,0.024c0.037,0.345,0.012,0.681,0.026,1.025
		c0.006,0.154,0.244,0.201,0.28,0.038C15.085,20.431,15.013,20.07,14.875,19.718z"/>
</g>
<g>
</g>
<g>
</g>
<g>
</g>
<g>
</g>
<g>
</g>
<g>
</g>
<g>
</g>
<g>
</g>
<g>
</g>
<g>
</g>
<g>
</g>
<g>
</g>
<g>
</g>
<g>
</g>
<g>
</g>
</svg>
