<?xml version="1.0" encoding="iso-8859-1"?>
<!-- Generator: Adobe Illustrator 18.0.0, SVG Export Plug-In . SVG Version: 6.00 Build 0)  -->
<!DOCTYPE svg PUBLIC "-//W3C//DTD SVG 1.1//EN" "http://www.w3.org/Graphics/SVG/1.1/DTD/svg11.dtd">
<svg version="1.1" id="Capa_1" xmlns="http://www.w3.org/2000/svg" xmlns:xlink="http://www.w3.org/1999/xlink" x="0px" y="0px"
	 viewBox="0 0 46.009 46.009" style="enable-background:new 0 0 46.009 46.009;" xml:space="preserve">
<g>
	<path style="fill:none;stroke:#1D1D1B;stroke-width:0;stroke-linecap:round;stroke-linejoin:round;" d="M5.86,18.964
		c0.009,0,0.009-0.014,0-0.014"/>
	<path style="fill:#1D1D1B;" d="M45.923,19.108c-0.247-1.254-1.163-2.498-2.506-2.674c-1.512-0.198-3.102,1.135-4.304,2.193
		c-0.042-0.264-0.077-0.53-0.124-0.792c-0.066-0.367-0.676-0.285-0.653,0.088c0.021,0.334,0.061,0.781,0.112,1.314
		c-0.044,0.075-0.034,0.159,0.021,0.222c0.499,5.169,1.843,17.64-2.553,18.343c-0.063,0.01-0.103,0.043-0.131,0.084
		c-4.186-0.179-8.314,0.084-12.493,0.358c-3.979,0.261-9.722,1.134-13.712-0.282c-2.622-2.461-2.218-6.322-2.329-9.627
		c-0.106-3.174-0.213-6.26-0.633-9.408c-0.004-0.027-0.016-0.048-0.043-0.057c-0.015-0.005-0.019-0.007-0.033-0.011
		c0.014-0.014,0.032-0.021,0.045-0.036c0.022-0.024,0.018-0.05,0.032-0.075c9.017,0.371,18.475,0.402,27.439-0.391
		c1.108-0.098,8.241-0.696,5.216-3.186c-0.092-0.076-0.229-0.145-0.352-0.093l-0.019,0.008c-0.041-0.066-0.081-0.131-0.122-0.197
		c-0.093-0.151-0.28-0.233-0.454-0.185c-0.65,0.181-5.151-3.825-6.291-4.216c-2.692-0.922-5.565-0.989-8.394-0.875
		c0.317-0.574,0.135-1.436-0.167-1.953c-0.42-0.719-1.222-1.228-2.071-1.085c-1.327,0.223-2.268,2.183-1.405,3.261
		C14.398,10.33,9.407,11.77,5.859,16.624c-0.14,0.191,0.167,0.422,0.326,0.251c3.501-3.768,10.389-6.556,17.006-6.887
		c0.013,0,0.024,0,0.037-0.001c5.666-0.275,11.129,1.252,14.089,5.526c0.102,0.148,0.276,0.238,0.457,0.186
		c0.131-0.062,0.261-0.124,0.392-0.186c-0.126,0.263,0.096,0.529,0.336,0.496c-0.247,0.368-0.494,0.735-0.742,1.103
		c-0.979,0.139-1.957,0.279-2.936,0.418c-1.32,0.14-2.642,0.201-3.968,0.243c-2.704,0.086-5.413,0.086-8.119,0.121
		c-5.67,0.073-11.371-0.015-17.029,0.378c-0.103,0.007-0.155,0.071-0.183,0.144c-0.159-0.039-0.307-0.117-0.41-0.281
		c-0.296-0.473,0.136-1.073,0.621-1.158c0.164-0.029,0.123-0.288-0.039-0.287c-0.849,0.009-1.539,0.875-1.197,1.703
		c0.224,0.542,0.883,0.842,1.456,0.75c0.015,0.153,0.04,0.475,0.071,0.898c-1.278-0.448-2.802-0.731-4.073-0.218
		c-1.528,0.617-1.986,2.155-1.954,3.677c0.025,1.179,0.126,3.193,1.431,3.726c0.487,0.199,0.947,0.087,1.419-0.1
		c1.187-0.468,2.461-1.176,3.523-1.881c0.03,0.48,0.05,0.825,0.053,0.916c0.073,2.27,0.046,4.577,0.25,6.841
		c0.161,1.783,0.493,3.444,1.624,4.656c-0.04,0.09-0.031,0.205,0.075,0.285c2.87,2.145,7.715,1.424,11.05,1.286
		c5.495-0.229,10.933-0.827,16.441-0.584c0.253,0.011,0.372-0.187,0.363-0.384c2.437-0.094,2.841-2.499,3.087-4.625
		c0.383-3.312,0.515-6.743,0.324-10.13c1.164,0.764,3.916,1.699,5.098,0.673C45.84,23.225,46.191,20.468,45.923,19.108z
		 M22.876,9.645c-0.417,0.021-0.832,0.044-1.245,0.068c-0.268,0.016-0.534,0.036-0.799,0.055c0.045-0.102,0.09-0.204,0.118-0.321
		c0.004-0.016-0.018-0.021-0.024-0.007c-0.258,0.641-0.465-0.137-0.497-0.346c-0.039-0.25-0.014-0.511,0.061-0.753
		c0.146-0.467,0.486-0.916,0.984-1.027c0.565-0.126,1.088,0.25,1.363,0.719c0.335,0.572,0.172,0.979,0.034,1.564
		C22.868,9.616,22.878,9.628,22.876,9.645z M6.142,24.658c-1.106,0.428-2.191,1.383-3.327,1.647
		C0.741,26.788,0.76,24.689,0.756,23.3c-0.009-3.335,2.878-3.184,5.305-2.799c0.059,0.843,0.132,1.924,0.197,2.921
		c-0.049-0.022-0.103-0.043-0.172-0.094c-0.085-0.063-0.204-0.042-0.29,0c-0.374,0.179-0.627,0.555-1.047,0.641
		c-0.536,0.109-1.116-0.185-1.269-0.721c-0.357-1.252,1.175-1.931,2.057-1.154c0.336,0.296,0.832-0.193,0.495-0.495
		c-1.346-1.204-3.652-0.239-3.274,1.687c0.156,0.795,0.836,1.358,1.644,1.385c0.374,0.013,0.754-0.089,1.061-0.303
		c0.167-0.117,0.291-0.275,0.444-0.407c0.061-0.053,0.187-0.183,0.26-0.21c0.059-0.022,0.045-0.062,0.035-0.08
		c0.007,0.009,0.023,0.027,0.059,0.062c0.005,0.005,0.012,0.003,0.018,0.007c0.021,0.321,0.041,0.634,0.059,0.916
		C6.281,24.635,6.217,24.629,6.142,24.658z M42.319,19.468c0.009,0.275,0.019,0.549,0.028,0.824c0.011,0.336,0.215,1.178-0.208,1.34
		c-0.232,0.089-1.929-0.314-2.616-0.337c-0.002-0.05-0.016-0.102-0.065-0.123c-0.004-0.002-0.007,0-0.011-0.002
		c-0.002-0.017-0.003-0.035-0.005-0.053c0.071,0.016,0.15,0.01,0.233-0.038C40.565,20.557,41.44,20.008,42.319,19.468z M43.39,23.83
		c-1.208,0.135-2.521-0.603-3.631-0.931c-0.063-0.019-0.113-0.003-0.162,0.012c-0.023-0.34-0.058-0.677-0.088-1.016
		c0.518,0.154,1.135,0.192,1.661,0.272c0.597,0.091,1.459,0.357,1.788-0.34c0.165-0.348,0.092-0.779,0.08-1.148
		c-0.02-0.601-0.041-1.202-0.061-1.802c-0.008-0.251-0.284-0.431-0.51-0.293c-1.034,0.63-2.079,1.245-3.103,1.892
		c-0.05-0.427-0.099-0.853-0.161-1.277c0.886-0.579,1.769-1.193,2.706-1.674c1.849-0.95,3.311,0.483,3.355,2.396
		C45.291,21.146,44.907,23.66,43.39,23.83z"/>
</g>
<g>
</g>
<g>
</g>
<g>
</g>
<g>
</g>
<g>
</g>
<g>
</g>
<g>
</g>
<g>
</g>
<g>
</g>
<g>
</g>
<g>
</g>
<g>
</g>
<g>
</g>
<g>
</g>
<g>
</g>
</svg>
