<?xml version="1.0" encoding="iso-8859-1"?>
<!-- Generator: Adobe Illustrator 18.0.0, SVG Export Plug-In . SVG Version: 6.00 Build 0)  -->
<!DOCTYPE svg PUBLIC "-//W3C//DTD SVG 1.1//EN" "http://www.w3.org/Graphics/SVG/1.1/DTD/svg11.dtd">
<svg version="1.1" id="Capa_1" xmlns="http://www.w3.org/2000/svg" xmlns:xlink="http://www.w3.org/1999/xlink" x="0px" y="0px"
	 viewBox="0 0 49.836 49.836" style="enable-background:new 0 0 49.836 49.836;" xml:space="preserve">
<g>
	<path style="fill:#1D1D1B;" d="M48.438,15.266c-0.014-0.192-0.133-0.314-0.276-0.364c0.03-0.19-0.022-0.372-0.194-0.476
		c-1.854-1.122-4.813-1.353-6.915-1.893c-2.896-0.744-5.771-1.502-8.714-2.027c-0.07-0.086-0.125-0.178-0.205-0.259
		c-0.044-0.044-0.093-0.066-0.143-0.078c-0.023-0.027-0.048-0.053-0.083-0.073C28.22,8.004,24.5,5.923,20.78,3.859
		c0.005-0.012,0.017-0.015,0.02-0.028c0.105-0.436,0.373-0.75,0.542-1.14c1.303,0.743,2.864,1.024,4.301,1.422
		c1.633,0.452,3.268,0.978,4.932,1.306c0.041,0.939,0.924,1.716,1.895,1.589c0.829-0.109,1.959-1.265,1.462-2.146
		c0.29-0.058,0.349-0.529,0.012-0.666c-3.807-1.544-7.819-2.703-11.772-3.812c-2.726-0.765-2.685-0.517-4.16,1.936
		c-0.43-0.237-0.86-0.48-1.29-0.716c-0.029-0.033-0.061-0.066-0.107-0.092c-2.97-1.647-5.548,1.287-7.262,3.465
		C9.322,4.439,8.667,4.1,8.179,4.078C7.598,4.052,7.087,4.402,6.88,4.943c-0.365,0.951,0.426,1.841,1.3,1.743
		c-1.625,2.748-2.292,5.993-0.671,8.969c0.086,0.158,0.271,0.181,0.415,0.121C7.98,16,8.31,16.113,8.478,15.863
		c1.139-1.701,2.222-3.446,3.288-5.202c-0.594,1.36-1.153,2.734-1.664,4.112c-0.036,0.004-0.074,0.01-0.11,0.042
		c-2.537,2.277-2.037,5.275-2.222,8.391c-0.177,2.975-1.448,5.708-1.497,8.515c-1.516,0.073-3.09,0.368-4.18,1.172
		c-0.132-0.057-0.286,0.019-0.352,0.144c-0.083,0.044-0.154,0.111-0.16,0.216c-0.229,4.654-0.352,9.514-0.047,14.162
		c0.014,0.208,0.175,0.295,0.329,0.279c0.429,1.532,3.3,1.849,4.514,2.018c1.846,0.258,4.666,0.232,6.039-1.26
		c0.074-0.08,0.119-0.207,0.102-0.323c0.059-0.053,0.102-0.13,0.109-0.232c0.071-0.973,0.117-1.965,0.148-2.964
		c1.023,0.175,2.482,0.393,3.229-0.489c0.931-1.098,0.339-3.548,0.296-4.823c-0.039-1.152,0.013-2.588-0.947-3.422
		c-0.729-0.633-2.078-0.856-2.96-0.432c-0.096-0.784-0.203-1.563-0.335-2.327c-0.003-0.02-0.021-0.025-0.028-0.042
		c-0.005-0.012-0.005-0.024-0.011-0.035c-0.599-1.117-1.787-1.45-2.975-1.575c0.363-2.194,1.409-4.363,1.404-6.609
		c-0.006-2.645-0.517-5.191-0.395-7.815c0.035-0.035,0.072-0.067,0.086-0.116c0.409-0.357,0.828-0.682,1.335-0.907
		c0.341-0.151,0.762-0.207,1.115-0.361c0.024,0.015,0.045,0.032,0.076,0.042c5.168,1.683,10.371,3.225,15.503,5.022
		c0.177,0.062,0.313-0.003,0.4-0.113c1.813,1.476,4.104,2.375,6.096,3.601c2.523,1.553,4.891,3.299,7.192,5.164
		c0.078,0.063,0.156,0.087,0.232,0.096c0.108,0.087,0.269,0.114,0.409-0.003C46.713,26.253,48.829,20.719,48.438,15.266z
		 M13.991,42.443c-0.377,0.042-0.754,0.083-1.131,0.123c-0.024,0.002-0.034,0.02-0.054,0.027c-0.007-1.455-0.063-2.916-0.173-4.364
		c0.036,0.006,0.073,0.01,0.115-0.006c0.536-0.203,0.767-0.624,1.192,0.451c0.134,0.338,0.048,0.931,0.058,1.296
		C14.021,40.796,14.008,41.619,13.991,42.443z M12.547,36.441c1.433-0.779,2.791,0.769,2.918,2.089
		c0.065,0.673,0.051,1.36,0.073,2.036c0.021,0.646,0.232,1.585,0.072,2.205c-0.501,1.945-1.528,1.443-2.814,1.52
		c0.009-0.42,0.007-0.842,0.008-1.264c0.021,0.006,0.031,0.023,0.056,0.024c0.491,0.013,0.98,0.022,1.471,0.044
		c0.195,0.009,0.332-0.165,0.344-0.344c0.066-0.986,0.074-1.977,0.042-2.965c-0.021-0.641,0.087-1.579-0.36-2.113
		c-0.402-0.48-1.391-0.593-1.783-0.092c-0.033-0.373-0.061-0.746-0.101-1.116C12.498,36.457,12.522,36.455,12.547,36.441z
		 M6.303,32.582c0.05,0.624,0.164,1.253,0.381,1.891c-1.638,0.023-3.215-0.32-4.293-1.328C3.589,33.117,4.951,32.786,6.303,32.582z
		 M11.528,34.378c0.082,4.411,0.302,8.841,0.426,13.253c-0.076,0.03-0.141,0.083-0.158,0.197c-0.229,1.514-4.699,1.202-5.576,1.064
		c-1.275-0.201-3.163-0.548-4.079-1.541c0.336-4.295,0.585-9.19,0.05-13.516C4.317,35.995,8.969,35.328,11.528,34.378z
		 M11.33,33.636c-0.687,0.224-1.483,0.434-2.332,0.59C8.998,34.213,9.002,34.203,9,34.19c-0.093-0.57-0.099-1.137-0.049-1.701
		C9.83,32.609,10.641,32.946,11.33,33.636z M25.926,2.289c2.505,0.782,4.974,1.681,7.482,2.452
		c-0.016,0.024-0.037,0.041-0.047,0.073c-0.174,0.587-0.131,1.242-0.875,1.441c-0.604,0.161-1.094-0.287-1.323-0.807
		c0.183-0.123,0.194-0.435-0.079-0.539c-1.692-0.64-3.493-1.042-5.239-1.521c-1.47-0.404-2.963-0.982-4.493-0.994
		c-0.078-0.116-0.244-0.181-0.374-0.106c-0.439,0.253-0.599,0.831-0.634,1.327c-0.621-0.344-1.241-0.692-1.861-1.035
		C20.562,0.101,23.258,1.456,25.926,2.289z M7.543,5.133C7.689,4.824,8.02,4.698,8.338,4.799c0.266,0.084,0.391,0.32,0.61,0.468
		C9,5.302,9.055,5.308,9.109,5.301c-0.214,0.284-0.42,0.574-0.614,0.872C7.892,6.289,7.228,5.794,7.543,5.133z M8.075,15.338
		c-1.129-2.795-0.805-5.536,0.718-8.135c1.168-1.995,4.269-6.393,7.203-5.113C13.313,6.466,10.524,10.825,8.075,15.338z
		 M28.498,20.314c-0.033-0.025-0.066-0.05-0.111-0.066c-5.117-1.796-10.28-3.555-15.546-4.866c-0.009-0.002-0.017,0-0.026-0.001
		c-0.521-0.218-1.199,0.076-1.679,0.287c-0.313,0.138-0.62,0.307-0.908,0.503c1.726-3.351,3.192-6.964,4.5-10.466
		c0.002-0.006,0.001-0.012,0.003-0.018c0.648-1.104,1.295-2.208,1.945-3.307c0.024-0.04,0.033-0.078,0.041-0.117
		c4.427,3.391,9.765,6.419,14.926,8.462c0.012,0.005,0.023,0.003,0.035,0.006c0.918,1.62,0.774,3.204,0.144,4.906
		C31.224,17.253,30.121,19.507,28.498,20.314z M31.168,21.582c-0.747-0.337-1.507-0.62-2.279-0.791
		c1.862-0.721,3.07-3.221,3.697-4.942c0.539-1.477,0.867-3.288,0.16-4.715c0.593,0.195,1.192,0.361,1.788,0.539
		c-0.007,0.028-0.019,0.053-0.021,0.085c-0.067,1.578,0.12,3.451-0.309,4.987c-0.468,1.678-1.796,3.514-2.972,4.727
		C31.203,21.501,31.184,21.541,31.168,21.582z M42.328,29.052c-2.039-1.722-4.19-3.309-6.445-4.737
		c-1.344-0.852-2.792-1.814-4.304-2.547c0.455-0.296,1.366-1.161,1.387-1.189c0.598-0.773,1.093-1.672,1.517-2.549
		c0.919-1.899,0.736-4.07,0.773-6.139c1.445,0.418,2.897,0.815,4.363,1.195c1.196,0.31,2.392,0.619,3.589,0.927
		c0.747,0.192,3.91,0.543,4.281,1.161c0.032,0.053,0.082,0.089,0.136,0.116C47.821,20.663,45.94,25.169,42.328,29.052z"/>
</g>
<g>
</g>
<g>
</g>
<g>
</g>
<g>
</g>
<g>
</g>
<g>
</g>
<g>
</g>
<g>
</g>
<g>
</g>
<g>
</g>
<g>
</g>
<g>
</g>
<g>
</g>
<g>
</g>
<g>
</g>
</svg>
