<?xml version="1.0" encoding="iso-8859-1"?>
<!-- Generator: Adobe Illustrator 18.0.0, SVG Export Plug-In . SVG Version: 6.00 Build 0)  -->
<!DOCTYPE svg PUBLIC "-//W3C//DTD SVG 1.1//EN" "http://www.w3.org/Graphics/SVG/1.1/DTD/svg11.dtd">
<svg version="1.1" id="Capa_1" xmlns="http://www.w3.org/2000/svg" xmlns:xlink="http://www.w3.org/1999/xlink" x="0px" y="0px"
	 viewBox="0 0 48.071 48.071" style="enable-background:new 0 0 48.071 48.071;" xml:space="preserve">
<g>
	<path style="fill:#1D1D1B;" d="M44.661,18.003c-2.286-3.054-3.065-2.508-1.552-6.911c0.736-2.143,1.3-4.128,1.345-6.404
		c0.002-0.108-0.095-0.167-0.188-0.17c-0.125-4.395-5.881-5.078-9.655-4.167c-7.535,1.818-12.144,8.602-15.904,14.845
		c-3.403-0.547-6.981,0.591-9.41,3.585c-2.395,2.953-2.758,6.829-1.417,10.076c-4.193,3.78-8.145,10.885-4.446,16.247
		c3.547,5.141,10.936,2.895,14.107-1.404c0.06,0.015,0.125,0.005,0.157-0.059c1.105-2.239,7.467,0.532,9.8,0.308
		c2.633-0.252,5.077-1.866,7.08-3.46c4.734-3.768,8.486-8.982,10.662-14.621c0.042-0.018,0.078-0.051,0.098-0.106
		C46.388,22.828,46.541,20.515,44.661,18.003z M45.127,25.087c-0.003,0.005-0.008,0.004-0.011,0.009
		c-3.269,7.121-9.552,17.983-18.44,18.018c-2.672,0.011-7.539-3.496-9.163,0.25c-0.081-0.052-0.189-0.065-0.265,0.019
		c-4.099,4.501-12.655,6.369-14.465-1.424c-1.091-4.696,2.268-9.439,5.256-12.733c0.756,1.644,1.952,3.109,3.566,4.175
		c0.214,0.142,0.474-0.188,0.277-0.359c-4.032-3.508-5.63-9.28-1.983-13.733c3.807-4.648,10.256-4.521,14.359-0.353
		c0.108,0.11,0.234,0.127,0.347,0.096c0.437,3.902-1.582,7.07-4.457,9.532c-2.551,2.183-5.621,3.052-8.318,4.898
		c-0.019,0.013-0.014,0.047,0.012,0.046c3.572-0.093,7.432-3.001,9.873-5.408c2.574-2.538,4.134-5.662,3.535-9.314
		c-0.029-0.179-0.197-0.25-0.356-0.235c-0.016-0.055-0.043-0.109-0.092-0.16c-1.564-1.631-3.509-2.674-5.543-3.114
		c2.124-3.37,4.253-6.804,7.15-9.575C29.466,2.8,44.006-4.898,43.89,5.656c0,0.018,0.012,0.028,0.018,0.043
		c-0.422,2.246-1.12,4.216-1.888,6.457c-0.373,1.09-0.837,2.14-0.525,3.324c0.173,0.659,0.527,0.896,0.796,1.405
		c0.253,0.479,0.898,0.584,1.216,0.977C45.433,20.241,45.725,22.338,45.127,25.087z"/>
	<path style="fill:#1D1D1B;" d="M13.195,29.257c-0.103-0.735-0.642-1.269-1.14-1.767c-1.106-1.105-1.857-2.103-2.149-3.678
		c-0.05-0.271-0.464-0.156-0.414,0.114c0.197,1.063,0.584,2.026,1.277,2.869c0.301,0.367,0.66,0.653,0.992,0.988
		c0.306,0.265,0.571,0.566,0.796,0.904c0.592,1.056,0.272,1.688-0.951,1.9c-2.376-1.205-2.434-4.906-2.046-7.189
		c0.016-0.095-0.113-0.133-0.146-0.04c-0.769,2.178-0.556,7.652,2.751,7.694c0.132,0.002,0.156-0.192,0.031-0.228
		c-0.021-0.006-0.039-0.016-0.061-0.023C12.817,30.76,13.302,30.014,13.195,29.257z"/>
</g>
<g>
</g>
<g>
</g>
<g>
</g>
<g>
</g>
<g>
</g>
<g>
</g>
<g>
</g>
<g>
</g>
<g>
</g>
<g>
</g>
<g>
</g>
<g>
</g>
<g>
</g>
<g>
</g>
<g>
</g>
</svg>
