<?xml version="1.0" encoding="iso-8859-1"?>
<!-- Generator: Adobe Illustrator 18.0.0, SVG Export Plug-In . SVG Version: 6.00 Build 0)  -->
<!DOCTYPE svg PUBLIC "-//W3C//DTD SVG 1.1//EN" "http://www.w3.org/Graphics/SVG/1.1/DTD/svg11.dtd">
<svg version="1.1" id="Capa_1" xmlns="http://www.w3.org/2000/svg" xmlns:xlink="http://www.w3.org/1999/xlink" x="0px" y="0px"
	 viewBox="0 0 47.883 47.883" style="enable-background:new 0 0 47.883 47.883;" xml:space="preserve">
<g>
	<path style="fill:#1D1D1B;" d="M47.713,20.937C46.112,7.37,34.405-1.163,20.925,0.795C8.541,2.594-1.574,13.536,0.203,26.259
		c0.984,7.042,3.333,12.43,9.388,16.43c5.368,3.547,12.172,5.439,18.567,4.389c0.071-0.012,0.09-0.074,0.076-0.131
		C40.866,45.142,49.193,33.478,47.713,20.937z M28.023,46.429c-0.23,0.037-0.23,0.266-0.114,0.411
		C15.124,46.468,3.581,41.543,1.115,27.774c-2.274-12.7,6.514-23.997,19.191-26.176c13.25-2.277,25.068,6.138,26.639,19.492
		C48.386,33.334,40.258,44.479,28.023,46.429z"/>
	<path style="fill:#1D1D1B;" d="M39.714,34.626c-7.188,9.507-21.187,10.367-29.018,1.03c-8-9.539-4.815-25.312,7.461-29.103
		c0.259-0.08,0.152-0.457-0.111-0.404C5.406,8.7,2.704,25.534,9.402,34.871c7.577,10.563,23.179,10.412,30.731,0
		C40.317,34.616,39.899,34.382,39.714,34.626z"/>
</g>
<g>
</g>
<g>
</g>
<g>
</g>
<g>
</g>
<g>
</g>
<g>
</g>
<g>
</g>
<g>
</g>
<g>
</g>
<g>
</g>
<g>
</g>
<g>
</g>
<g>
</g>
<g>
</g>
<g>
</g>
</svg>
