<?xml version="1.0" encoding="iso-8859-1"?>
<!-- Generator: Adobe Illustrator 18.0.0, SVG Export Plug-In . SVG Version: 6.00 Build 0)  -->
<!DOCTYPE svg PUBLIC "-//W3C//DTD SVG 1.1//EN" "http://www.w3.org/Graphics/SVG/1.1/DTD/svg11.dtd">
<svg version="1.1" id="Capa_1" xmlns="http://www.w3.org/2000/svg" xmlns:xlink="http://www.w3.org/1999/xlink" x="0px" y="0px"
	 viewBox="0 0 45.965 45.965" style="enable-background:new 0 0 45.965 45.965;" xml:space="preserve">
<g>
	<path style="fill:#1D1D1B;" d="M31.576,14.714c-1.02-5.506-2.404-11.549-7.676-14.042c0.156,0.023,0.314,0.049,0.474,0.086
		c0.332,0.075,0.474-0.429,0.141-0.512c-6.843-1.708-8.706,5.866-9.632,10.989c-0.097,0.539-0.182,1.08-0.275,1.62
		c-0.074,0.042-0.116,0.134-0.038,0.215c0,0,0.001,0.001,0.001,0.001c-1.573,9.267-2.41,18.715-2.138,28.107
		c0.005,0.188,0.234,0.209,0.313,0.08c0.519,3.181,4.799,4.089,7.549,4.497c4.489,0.666,8.866-0.282,12.819-2.431
		c0.37-0.201,0.041-0.763-0.33-0.565c-2.885,1.541-5.864,2.458-9.154,2.542c-2.959,0.075-9.97-0.589-10.73-4.459
		c-0.011-0.057-0.063-0.079-0.112-0.074c0.082-4.419-0.054-17.48,1.973-27.519c4.536,4.434,11.635,4.344,16-0.36
		c0.67,3.181,0.98,6.454,1.322,9.241c0.83,6.769,1.018,13.552,0.812,20.363c-0.011,0.36,0.543,0.358,0.559,0
		C33.866,33.195,33.271,23.867,31.576,14.714z M30.424,12.442c-4.566,4.351-10.771,4.585-15.592,0.469
		c1.419-6.816,3.86-12.16,8.089-12.295c4.55,2.115,6.607,6.78,7.723,11.75C30.572,12.356,30.495,12.375,30.424,12.442z"/>
	<path style="fill:#1D1D1B;" d="M21.581,3.31c-0.028-0.012-0.06-0.007-0.091-0.008c0.001-0.063-0.048-0.131-0.118-0.102
		c-0.45,0.19-0.713,0.415-0.791,0.922c-0.063,0.412,0.086,1.08,0.536,1.253c0.445,0.171,0.847-0.444,0.935-0.804
		C22.161,4.131,22.038,3.502,21.581,3.31z M21.283,4.796c-0.283-0.299-0.312-0.859-0.069-1.202c0.008,0.022,0.001,0.041,0.018,0.064
		C21.497,4.016,21.655,4.502,21.283,4.796z"/>
	<path style="fill:#1D1D1B;" d="M22.767,2.328c-0.202,0.078-0.167,0.351,0.05,0.373c0.486,0.048,0.916,0.309,1.033,0.771
		c-0.81,0.003-1.535-0.582-1.736-1.37c-0.055-0.215-0.369-0.122-0.329,0.091c0.207,1.097,1.255,1.867,2.363,1.756
		c0.138-0.014,0.241-0.103,0.248-0.248C24.433,2.877,23.615,2,22.767,2.328z"/>
	<path style="fill:#1D1D1B;" d="M23.99,5.156c-0.049-0.289-0.537-0.225-0.514,0.07c0.031,0.405,0.079,1.599-0.548,1.649
		c-0.424,0.033-0.525-0.539-0.438-0.842c0.134-0.464,0.611-0.767,0.974-1.039c0.12-0.09,0.02-0.27-0.119-0.203
		c-0.574,0.276-1.219,0.666-1.336,1.349c-0.082,0.474,0.123,1.016,0.597,1.193C23.812,7.784,24.126,5.948,23.99,5.156z"/>
	<path style="fill:#1D1D1B;" d="M31.318,40.496c-0.056-6.221-0.439-12.437-0.795-18.647c-0.007-0.117-0.089-0.174-0.178-0.195
		c-0.668-1.374-2.978-1.68-4.184-1.028c-1.504,0.813-1.954,2.742-1.244,4.217c-0.007,0.004-0.014,0.008-0.021,0.013
		c-0.368-0.55-1.263-0.825-1.833-0.626c-0.434,0.152-0.73,0.493-0.87,0.894c-0.526-0.566-1.406-0.894-2.103-0.746
		c-1.169,0.248-1.781,1.366-1.818,2.483c-0.338-0.424-0.866-0.751-1.3-0.896c-0.88-0.295-1.847-0.133-2.512,0.528
		c-0.115,0.115,0.056,0.279,0.176,0.177c0.026-0.022,0.058-0.031,0.085-0.052c-0.265,3.899-0.435,7.817-0.519,11.725
		c-0.046,2.158,0.34,2.884,2.335,3.866c4.726,2.324,10.348,1.592,14.619-1.312c0.096-0.065,0.106-0.162,0.086-0.251
		C31.287,40.614,31.319,40.568,31.318,40.496z M30.918,40.487c-3.743,2.544-10.568,4.173-14.609,1.114
		c-2.401-1.818-1.603-4.996-1.502-7.619c0.096-2.493,0.177-4.98,0.193-7.475c0-0.021-0.013-0.03-0.019-0.046
		c0.609-0.331,1.34-0.331,1.985-0.039c0.733,0.332,0.922,0.864,1.284,1.504c-0.25-0.055-0.497-0.125-0.739-0.222
		c-0.145-0.058-0.25,0.188-0.107,0.254c0.712,0.326,1.667,0.598,2.446,0.367c0.184-0.054,0.146-0.326-0.045-0.331
		c-0.392-0.011-0.772,0.052-1.167,0.007c-0.038-0.004-0.074-0.016-0.112-0.021c0.01-0.009,0.011-0.024,0.02-0.034
		c0.051-0.017,0.093-0.065,0.078-0.136c-0.012-0.059-0.016-0.121-0.025-0.181c-0.005-0.059-0.01-0.117-0.024-0.174
		c-0.088-0.987,0.272-2.099,1.219-2.543c1.215-0.57,2.315,0.453,2.399,1.615c0.016,0.222,0.325,0.277,0.394,0.053
		c0.122-0.395,0.048-0.762-0.129-1.087c0.099-0.401,0.359-0.761,0.776-0.876c0.35-0.096,0.745,0.03,1.015,0.26
		c0.113,0.096,0.183,0.204,0.244,0.317c-0.108,0.11-0.203,0.222-0.265,0.325c-0.144,0.237-0.327,0.577-0.153,0.827
		c0.17,0.244,0.49,0.316,0.76,0.24c0.113-0.032,0.064-0.193-0.048-0.173c-0.378-0.133-0.486-0.304-0.324-0.516
		c0.061-0.105,0.134-0.201,0.218-0.289c0.004-0.005,0.011-0.007,0.015-0.011c0.105,0.179,0.339,0.08,0.36-0.098
		c0.007-0.058-0.007-0.11-0.01-0.165c0.043-0.027,0.076-0.067,0.121-0.091c0.094,0.047,0.21,0.003,0.24-0.093
		c0.277-0.073,0.562-0.061,0.826-0.181c0.133-0.06,0.097-0.238,0-0.307c-0.283-0.202-0.647-0.153-0.994,0.003
		c-0.513-1.312-0.058-2.975,1.275-3.614c0.632-0.303,1.36-0.316,2.023-0.098c0.71,0.234,1.049,0.703,1.553,1.172
		c0.317,6.118,0.484,12.244,0.834,18.36C30.922,40.487,30.92,40.485,30.918,40.487z"/>
</g>
<g>
</g>
<g>
</g>
<g>
</g>
<g>
</g>
<g>
</g>
<g>
</g>
<g>
</g>
<g>
</g>
<g>
</g>
<g>
</g>
<g>
</g>
<g>
</g>
<g>
</g>
<g>
</g>
<g>
</g>
</svg>
