<?xml version="1.0" encoding="iso-8859-1"?>
<!-- Generator: Adobe Illustrator 18.0.0, SVG Export Plug-In . SVG Version: 6.00 Build 0)  -->
<!DOCTYPE svg PUBLIC "-//W3C//DTD SVG 1.1//EN" "http://www.w3.org/Graphics/SVG/1.1/DTD/svg11.dtd">
<svg version="1.1" id="Capa_1" xmlns="http://www.w3.org/2000/svg" xmlns:xlink="http://www.w3.org/1999/xlink" x="0px" y="0px"
	 viewBox="0 0 62.828 62.828" style="enable-background:new 0 0 62.828 62.828;" xml:space="preserve">
<g>
	<path style="fill:#1D1D1B;" d="M43.185,0.49c-0.02-0.096-0.094-0.123-0.166-0.112c0.022-0.157-0.057-0.328-0.263-0.331
		C35.38-0.04,27.929-0.053,20.56,0.435c-0.04-0.053-0.094-0.093-0.174-0.089c-0.341,0.017-0.614,0.064-0.842,0.146
		c-0.04,0.003-0.08,0.004-0.119,0.007c-0.087,0.006-0.132,0.06-0.157,0.122c-0.428,0.263-0.639,0.734-0.809,1.522
		c-0.792,3.673,0.403,8.813,0.599,12.569c0.015,0.287-0.073,6.777,1.025,7.906c-0.015,0.002-0.03,0.003-0.044,0.005
		c-0.235,0.036-0.143,0.355,0.051,0.38c2.771,0.35,5.819-0.109,8.578-0.64c0.719,4.662,0.815,9.183,0.789,13.885
		c0,0.04,0.022,0.059,0.035,0.088c-0.028,0.607-0.019,1.217,0.023,1.829c-0.257,0.029-0.516,0.061-0.769,0.086
		c-0.109,0.01-0.165,0.095-0.172,0.18c-0.097-0.042-0.228-0.004-0.23,0.135c-0.092,6.541-0.27,13.358,0.37,19.873
		c0.223,2.267,0.597,4.601,3.363,4.374c0.104-0.009,0.157-0.075,0.186-0.15c6.319-0.052,2.749-21.223,2.175-24.431
		c-0.012-0.067-0.051-0.101-0.09-0.132c-0.015-0.122-0.105-0.241-0.247-0.25c-0.084-0.005-0.169,0.002-0.253-0.001
		c-0.159-4.975-0.638-9.95-0.835-14.929c-0.002-0.054-0.026-0.092-0.056-0.122c3.463,0.611,7.51-0.041,10.718-1.375
		c-0.003,0.048-0.004,0.096-0.007,0.145c-0.02,0.339,0.477,0.321,0.517,0C45.055,14.55,44.641,7.399,43.185,0.49z M33.928,38.388
		c0.634,3.568,1.02,7.143,1.184,10.76c0.094,2.08,0.952,13.555-3.612,13.073c-3.81-1.758-2.692-20.616-2.824-23.63
		c0.023,0.01,0.039,0.028,0.071,0.028c0.266-0.007,0.538-0.007,0.808-0.009c0.06,0.261,0.454,0.267,0.46-0.005
		C31.323,38.598,32.655,38.591,33.928,38.388z M43.691,21.086c-1.957,0.423-3.895,0.885-5.893,1.089
		c-1.796,0.183-3.575,0.054-5.369,0.16c-0.2,0.012-0.265,0.318-0.049,0.366c0.125,0.028,0.258,0.04,0.385,0.065
		c-0.062,0.022-0.116,0.066-0.118,0.154c-0.089,4.939-0.04,10.034,0.701,14.928c-1.106,0.006-2.231,0.129-3.341,0.261
		c-0.039-0.665-0.073-1.328-0.067-1.989c0.573-4.581,0.12-9.342-0.879-13.833c0.018-0.004,0.037-0.007,0.055-0.01
		c0.201-0.04,0.159-0.382-0.049-0.363c-2.682,0.254-5.45,0.274-8.128,0.603c0.051-0.05,0.102-0.101,0.155-0.165
		c0.145-0.175-0.083-0.415-0.253-0.254c-0.746,0.703-0.983-3.559-1.007-4.062c-0.095-1.94-0.195-3.88-0.295-5.819
		c-0.089-1.719-1.493-10.503,0.768-11.336c7.476,0.08,14.977-0.16,22.452-0.257c0.048-0.001,0.072-0.03,0.108-0.047
		c0,0-0.001,0.001,0,0.002C43.872,7.463,44.067,14.162,43.691,21.086z"/>
	<path style="fill:#1D1D1B;" d="M24.83,19.548c-2.133-0.84-1.732-6.456-1.918-8.362c-0.236-2.421-0.495-4.84-0.785-7.255
		c-0.018-0.147-0.247-0.154-0.236,0c0.302,4.234,0.647,8.478,1.121,12.697c0.155,1.382,0.258,2.759,1.74,3.202
		C24.936,19.884,25.001,19.615,24.83,19.548z"/>
	<path style="fill:#1D1D1B;" d="M26.156,19.224c0.033-0.102,0.06-0.225,0.066-0.4c0.07-2.017-0.22-4.058-0.416-6.069
		c-0.269-2.756,0.243-7.953-1.876-10.082c-0.143-0.144-0.342,0.068-0.219,0.219c1.631,1.994,1.297,6.048,1.556,8.549
		c0.142,1.378,1.499,7.269-0.134,8.084c-0.141,0.07-0.042,0.314,0.109,0.258l0.908-0.341C26.26,19.399,26.242,19.255,26.156,19.224z
		"/>
	<path style="fill:#1D1D1B;" d="M23.811,3.165c-0.823-0.588-1.725,0.671-1.44,1.429c0.039,0.104,0.202,0.064,0.17-0.047
		c-0.109-0.366,0.048-0.697,0.335-0.93c0.277-0.224,0.54-0.209,0.867-0.2C23.887,3.421,23.914,3.238,23.811,3.165z"/>
	<path style="fill:#1D1D1B;" d="M30.662,7.744c-0.204-1.166-0.157-4.486-1.426-5.142c-0.765-0.396-1.25-0.055-1.474,0.634
		c-0.043,0.132,0.148,0.204,0.219,0.092C29.19,1.4,30.075,6.836,30.05,6.694c0.168,0.969,0.337,1.938,0.505,2.907
		c0.348,2.001,2.262,8.608-0.823,9.293c-0.02,0.004-0.029,0.017-0.04,0.028c-1.53-0.352-1.514-4.174-1.563-4.952
		c-0.077-1.227-0.153-2.454-0.232-3.681c-0.158-2.457-0.324-4.912-0.564-7.363c-0.011-0.11-0.179-0.115-0.176,0
		c0.063,2.457,0.202,4.909,0.347,7.363c0.13,2.207-0.045,4.809,0.445,6.958c0.349,1.533,1.264,2.745,2.871,1.844
		c0.155-0.087,0.094-0.276-0.034-0.328c0.768-0.392,1.15-1.104,1.258-2.189C32.32,13.806,31.138,10.469,30.662,7.744z"/>
	<path style="fill:#1D1D1B;" d="M36.305,9.922C36.1,7.454,35.81,4.995,35.429,2.548c-0.023-0.149-0.226-0.16-0.313-0.07
		c-0.387-0.275-0.906-0.377-1.374-0.381c-0.283-0.002-0.837-0.005-1.002,0.294c-0.042,0.075-0.042,0.141-0.026,0.198
		c0.123,4.733,0.037,9.768,0.731,14.453c0.2,1.35,0.495,2.645,2.004,2.724c0.188,0.01,0.237-0.307,0.045-0.335
		c-2.431-0.353-1.907-7.297-2.006-8.96c-0.152-2.568-0.314-5.136-0.539-7.699c0.097,0.007,0.187-0.042,0.191-0.17
		c0.003-0.1-0.139-0.093-0.151,0c0.064-0.508,1.775,0.092,2.041,0.168c0.026,0.007,0.045-0.001,0.066-0.005
		c0.339,2.586,0.655,5.17,0.862,7.77c0.098,1.226,0.176,2.453,0.234,3.681c0.011,0.222,0.275,5.882-1.363,4.59
		c-0.093-0.074-0.228,0.052-0.134,0.134c1.093,0.966,1.772-0.141,1.956-1.233C37.054,15.327,36.506,12.331,36.305,9.922z"/>
	<path style="fill:#1D1D1B;" d="M40.48,10.216c-0.273-2.534-0.543-5.068-0.839-7.599c-0.028-0.236-0.401-0.242-0.376,0
		c0.255,2.535,0.535,5.067,0.813,7.599c0.139,1.267,0.275,2.533,0.416,3.8c0.046,0.416,0.439,3.638-0.335,4.474
		c-0.08,0.06-0.161,0.124-0.234,0.16c-0.006,0.002-0.012,0.005-0.018,0.007c-0.042,0.02-0.078,0.021-0.118,0.033
		c-0.169,0.016-0.367-0.033-0.606-0.178c-0.03-0.018-0.054-0.009-0.072,0.007c-0.853-0.877-0.891-4.091-0.902-4.289
		c-0.069-1.251-0.141-2.502-0.215-3.752c-0.146-2.488-0.296-4.975-0.512-7.458c0.046-0.011,0.088-0.041,0.092-0.104
		c0.049-0.799,0.922-0.842,1.45-0.541c0.135,0.077,0.295-0.078,0.214-0.214c-0.509-0.859-1.883-0.127-1.893,0.721
		c-0.04,0.01-0.074,0.036-0.073,0.091c0.068,2.712,0.213,5.421,0.362,8.13c0.112,2.034-0.078,4.366,0.387,6.362
		c0.267,1.146,1.11,2.09,2.086,1.494c0.533-0.1,0.88-0.719,1.086-1.437C41.727,15.643,40.691,12.171,40.48,10.216z"/>
</g>
<g>
</g>
<g>
</g>
<g>
</g>
<g>
</g>
<g>
</g>
<g>
</g>
<g>
</g>
<g>
</g>
<g>
</g>
<g>
</g>
<g>
</g>
<g>
</g>
<g>
</g>
<g>
</g>
<g>
</g>
</svg>
