<?xml version="1.0" encoding="iso-8859-1"?>
<!-- Generator: Adobe Illustrator 18.0.0, SVG Export Plug-In . SVG Version: 6.00 Build 0)  -->
<!DOCTYPE svg PUBLIC "-//W3C//DTD SVG 1.1//EN" "http://www.w3.org/Graphics/SVG/1.1/DTD/svg11.dtd">
<svg version="1.1" id="Capa_1" xmlns="http://www.w3.org/2000/svg" xmlns:xlink="http://www.w3.org/1999/xlink" x="0px" y="0px"
	 viewBox="0 0 65.018 65.018" style="enable-background:new 0 0 65.018 65.018;" xml:space="preserve">
<g>
	<path style="fill:#1D1D1B;" d="M35.729,26.433c-0.003-0.064-0.033-0.115-0.074-0.153c-2.249-4.685-8.527-4.991-13.092-5.11
		c-6.07-0.159-13.736-0.061-19.487,2.314c-0.023-0.021-0.057-0.033-0.089-0.018c-3.136,1.46-1.398,4.848,0.918,6.141
		c7.259,4.052,19.088,2.376,26.875,1.494c0.166-0.019,0.227-0.171,0.2-0.295C33.198,30.314,35.858,28.983,35.729,26.433z
		 M30.081,30.662c-0.017,0.007-0.022,0.021-0.035,0.03c-4.164,0.242-8.319,0.636-12.496,0.57c-2.478-0.039-4.963-0.188-7.413-0.576
		c-1.223-0.193-12.417-2.145-7.39-6.805c0.004-0.001,0.007,0.002,0.01,0.001c4.857-1.446,10.158-1.789,15.211-2.001
		c5.459-0.228,14.073-0.824,17.264,4.644C34.634,29.13,32.326,29.764,30.081,30.662z"/>
	<path style="fill:#1D1D1B;" d="M63.943,24.261c-0.595-0.292-1.93-0.518-2.531-0.049c-7.905-0.151-16.241-0.033-24.102,0.838
		c-0.003-0.007-0.003-0.014-0.006-0.022c-0.07-0.193-0.283-0.219-0.416-0.137c-3.821-5.482-12.256-5.459-18.247-5.433
		c-5.223,0.022-16.521-0.476-18.638,5.738c-0.025,0.074,0.083,0.114,0.122,0.051c0.046-0.073,0.104-0.133,0.151-0.204
		c-0.206,1.105-0.093,2.084,0.271,2.953c1.143,11.026,7.395,18.388,19.091,17.496c9.295-0.708,17.199-7.553,17.535-17.024
		c8.045,1.138,16.362,1.721,24.469,2.078c0.06,0.003,0.096-0.025,0.134-0.049c2.104,0.323,3.283-2.203,3.24-4.071
		C64.996,25.525,64.81,24.686,63.943,24.261z M21.466,44.531c0.361-0.519,0.695-1.056,1.011-1.605
		c0.448-0.079,0.896-0.157,1.341-0.26c0.253-0.059,0.144-0.435-0.107-0.387c-0.319,0.062-0.633,0.105-0.95,0.156
		c0.184-0.339,0.355-0.685,0.52-1.034c0.822-0.127,1.638-0.292,2.45-0.484c-0.582,0.896-1.248,1.766-2.053,2.611
		c-0.1,0.105,0.052,0.257,0.159,0.159c0.933-0.857,1.809-1.856,2.584-2.939c0.867-0.227,1.727-0.488,2.575-0.799
		c0.04-0.015,0.057-0.045,0.08-0.072c-0.448,0.563-0.917,1.111-1.406,1.643c-0.121,0.132,0.066,0.32,0.196,0.196
		c1.382-1.304,2.561-2.787,3.526-4.425c0.16-0.272,0.391-0.635,0.628-1.034c0.504-0.147,1.01-0.282,1.51-0.45
		c0.276-0.093,0.163-0.526-0.122-0.441c-0.35,0.104-0.7,0.188-1.049,0.283c0.347-0.659,0.63-1.358,0.609-1.938
		c0.728-0.167,1.457-0.334,2.166-0.511c0.25-0.062,0.141-0.422-0.105-0.38c-0.745,0.128-1.48,0.253-2.215,0.377
		c-0.118-0.111-0.292-0.079-0.357,0.061c-1.096,0.185-2.185,0.365-3.265,0.536c0.009-0.099,0.032-0.197,0.038-0.297
		c0.013-0.216-0.312-0.25-0.369-0.05c-0.041,0.143-0.084,0.279-0.125,0.42c-2.494,0.387-4.954,0.716-7.394,0.903
		c-0.007-0.219-0.009-0.437-0.023-0.656c-0.018-0.287-0.461-0.291-0.45,0c0.009,0.23,0.009,0.458,0.013,0.687
		c-1.114,0.077-2.226,0.134-3.335,0.144c-0.033-0.276-0.066-0.553-0.097-0.827c-0.023-0.204-0.342-0.213-0.327,0
		c0.019,0.276,0.031,0.555,0.048,0.831c-0.845,0.001-1.689-0.03-2.533-0.076c-0.009-0.129-0.02-0.253-0.03-0.383
		c-0.01-0.145-0.237-0.198-0.269-0.037c-0.026,0.131-0.031,0.267-0.051,0.399c-0.703-0.045-1.407-0.114-2.111-0.196
		c-0.01-0.304-0.024-0.606-0.023-0.915c0-0.226-0.322-0.216-0.344,0c-0.031,0.289-0.036,0.577-0.049,0.866
		c-0.992-0.127-1.988-0.309-2.985-0.521c-0.083-0.381-0.166-0.762-0.236-1.155c-0.043-0.241-0.443-0.187-0.428,0.058
		c0.02,0.325,0.067,0.648,0.109,0.972c-1.094-0.25-2.193-0.557-3.297-0.921c-0.049-0.164-0.107-0.323-0.153-0.489
		c-0.093-0.341-0.611-0.198-0.529,0.146c0.01,0.042,0.025,0.082,0.035,0.124C3.691,32.618,3.107,32.4,2.52,32.154
		c-0.082-0.034-0.134,0.099-0.06,0.141c0.635,0.36,1.284,0.676,1.941,0.972c0.147,0.537,0.317,1.064,0.509,1.582
		c-0.416-0.143-0.833-0.273-1.248-0.431c-0.146-0.055-0.202,0.173-0.064,0.23c0.476,0.198,0.96,0.364,1.441,0.542
		c0.302,0.766,0.649,1.509,1.047,2.224c-0.444-0.135-0.887-0.26-1.331-0.41c-0.135-0.046-0.186,0.16-0.058,0.21
		c0.531,0.209,1.069,0.386,1.605,0.569c0.353,0.601,0.733,1.186,1.152,1.744c-0.1-0.031-0.199-0.055-0.299-0.087
		c-0.142-0.045-0.195,0.169-0.061,0.22c0.207,0.079,0.419,0.142,0.628,0.216c0.522,0.661,1.094,1.284,1.707,1.871
		c-0.089-0.023-0.178-0.041-0.267-0.066c-0.093-0.025-0.127,0.11-0.039,0.142c0.187,0.068,0.378,0.121,0.566,0.183
		c0.391,0.36,0.799,0.705,1.224,1.032c0.137,0.106,0.313-0.124,0.185-0.24c-0.18-0.164-0.345-0.336-0.519-0.503
		c0.519,0.149,1.04,0.282,1.565,0.397c0.296,0.347,0.602,0.686,0.923,1.006c0.121,0.121,0.288-0.057,0.184-0.184
		c-0.189-0.231-0.358-0.465-0.534-0.698c0.354,0.07,0.71,0.135,1.066,0.19c0.297,0.538,0.612,1.067,0.965,1.574
		c0.116,0.167,0.386,0.016,0.276-0.161c-0.274-0.441-0.523-0.885-0.754-1.332c0.559,0.076,1.12,0.136,1.683,0.176
		c0.195,0.38,0.4,0.747,0.615,1.098c0.098,0.161,0.337,0.02,0.252-0.147c-0.16-0.314-0.297-0.623-0.433-0.932
		c0.456,0.025,0.912,0.06,1.369,0.061c0.035,0.278,0.056,0.559,0.097,0.835c0.035,0.236,0.398,0.168,0.404-0.055
		c0.007-0.256,0.004-0.514,0.004-0.771c0.482-0.008,0.964-0.031,1.445-0.066c-0.069,0.222-0.133,0.444-0.208,0.666
		c-0.062,0.184,0.222,0.257,0.288,0.079c0.096-0.259,0.182-0.519,0.27-0.779c0.682-0.059,1.362-0.147,2.04-0.257
		c-0.271,0.528-0.556,1.053-0.877,1.573c-0.768,0.125-1.546,0.223-2.341,0.263c-4.945,0.246-9.9-0.896-13.268-4.739
		c-2.791-3.184-3.803-7.212-4.602-11.255c4.793,7.108,28.931,5.315,33.814,1.347c0.068-0.055,0.059-0.135,0.022-0.199
		c0.646-0.354,1.239-0.806,1.707-1.334C35.914,37.106,29.546,43.121,21.466,44.531z M18.194,41.19
		c-0.025-0.406-0.055-0.813-0.09-1.22c0.799,0.023,1.599,0.014,2.399-0.012c-0.065,0.383-0.139,0.765-0.221,1.146
		C19.586,41.148,18.889,41.188,18.194,41.19z M20.139,41.739c-0.085,0.351-0.174,0.701-0.274,1.05
		c-0.535,0.038-1.069,0.067-1.6,0.077c-0.006-0.36-0.02-0.72-0.037-1.081C18.866,41.792,19.503,41.772,20.139,41.739z M8.729,36.398
		c0.192,0.652,0.425,1.292,0.697,1.918c-0.834-0.19-1.668-0.405-2.502-0.642c-0.415-0.709-0.798-1.437-1.128-2.198
		C6.766,35.815,7.743,36.127,8.729,36.398z M5.648,35.104c-0.206-0.5-0.393-1.012-0.564-1.535c1.056,0.438,2.133,0.807,3.232,1.104
		c0.076,0.435,0.165,0.868,0.278,1.296C7.611,35.717,6.629,35.423,5.648,35.104z M14.838,37.132
		c-0.052-0.464-0.097-0.936-0.137-1.417c0.836,0.055,1.675,0.093,2.518,0.097c0.027,0.511,0.058,1.022,0.082,1.535
		C16.479,37.301,15.658,37.224,14.838,37.132z M17.328,37.892c0.024,0.502,0.05,1.003,0.079,1.504
		c-0.752-0.029-1.504-0.086-2.255-0.155c-0.099-0.524-0.179-1.055-0.247-1.592C15.711,37.751,16.518,37.837,17.328,37.892z
		 M15.007,41.043c-0.569-0.05-1.138-0.121-1.708-0.2c-0.164-0.459-0.312-0.923-0.439-1.392c0.58,0.095,1.159,0.194,1.742,0.263
		C14.717,40.164,14.854,40.607,15.007,41.043z M12.733,38.939c-0.134-0.556-0.241-1.121-0.326-1.693
		c0.606,0.112,1.211,0.23,1.82,0.316c0.053,0.54,0.137,1.079,0.254,1.616C13.899,39.115,13.316,39.026,12.733,38.939z
		 M14.175,37.056c-0.614-0.078-1.227-0.186-1.84-0.29c-0.054-0.431-0.094-0.868-0.123-1.31c0.653,0.089,1.308,0.166,1.969,0.218
		C14.149,36.131,14.149,36.593,14.175,37.056z M12.284,39.365c0.13,0.471,0.279,0.936,0.451,1.394
		c-0.52-0.081-1.041-0.176-1.563-0.28c-0.28-0.492-0.54-0.992-0.776-1.5C11.022,39.123,11.652,39.251,12.284,39.365z M10.163,38.485
		c-0.266-0.613-0.495-1.244-0.706-1.886c0.796,0.204,1.595,0.392,2.399,0.551c0.072,0.577,0.176,1.147,0.312,1.711
		C11.499,38.752,10.831,38.625,10.163,38.485z M9.311,36.151c-0.132-0.431-0.252-0.87-0.363-1.317
		c0.918,0.225,1.846,0.412,2.785,0.553c0.003,0.433,0.019,0.865,0.058,1.294C10.964,36.531,10.137,36.348,9.311,36.151z
		 M9.619,38.782c0.248,0.529,0.529,1.041,0.829,1.542c-0.7-0.154-1.403-0.337-2.108-0.535c-0.42-0.551-0.819-1.114-1.181-1.701
		C7.975,38.345,8.795,38.576,9.619,38.782z M10.752,40.798c0.329,0.513,0.681,1.008,1.06,1.482
		c-0.531-0.099-1.063-0.213-1.598-0.337c-0.554-0.558-1.069-1.139-1.551-1.741C9.354,40.422,10.05,40.624,10.752,40.798z
		 M11.451,40.972c0.498,0.112,0.998,0.212,1.5,0.301c0.182,0.44,0.382,0.872,0.601,1.297c-0.391-0.052-0.783-0.13-1.175-0.196
		C12.045,41.912,11.738,41.445,11.451,40.972z M13.498,41.361c0.572,0.091,1.144,0.176,1.719,0.236
		c0.159,0.409,0.331,0.808,0.517,1.198c-0.558-0.036-1.117-0.087-1.676-0.153C13.854,42.219,13.667,41.792,13.498,41.361z
		 M15.589,41.074c-0.123-0.428-0.233-0.858-0.326-1.288c0.726,0.074,1.453,0.135,2.182,0.167c0.025,0.409,0.052,0.817,0.084,1.224
		C16.883,41.167,16.236,41.121,15.589,41.074z M17.574,41.769c0.033,0.367,0.086,0.729,0.127,1.093
		c-0.506,0-1.011-0.027-1.515-0.052c-0.159-0.393-0.302-0.784-0.429-1.174C16.363,41.69,16.968,41.751,17.574,41.769z M17.65,35.811
		c1.076-0.006,2.156-0.062,3.236-0.139c-0.007,0.577-0.033,1.151-0.074,1.722c-0.993,0.023-1.985,0.023-2.975-0.02
		C17.775,36.851,17.713,36.33,17.65,35.811z M32.44,33.838c-0.041,0.602-0.332,1.302-0.695,1.979
		c-1.042,0.269-2.084,0.515-3.124,0.715c0.218-0.654,0.373-1.321,0.479-1.994C30.227,34.322,31.34,34.085,32.44,33.838z
		 M31.387,36.449c-0.295,0.494-0.593,0.951-0.806,1.3c-0.052,0.085-0.11,0.165-0.163,0.249c-0.049-0.037-0.111-0.056-0.189-0.036
		c-0.82,0.213-1.637,0.393-2.452,0.556c0.224-0.443,0.425-0.894,0.604-1.353C29.387,36.966,30.389,36.721,31.387,36.449z
		 M30.106,38.475c-0.313,0.463-0.641,0.915-0.987,1.353c0.051-0.138-0.045-0.321-0.229-0.267c-0.673,0.198-1.34,0.357-2.007,0.516
		c0.206-0.317,0.41-0.635,0.594-0.964C28.357,38.931,29.233,38.719,30.106,38.475z M27.817,36.676
		c-1.025,0.179-2.049,0.336-3.073,0.448c0.135-0.627,0.238-1.26,0.306-1.9c1.16-0.162,2.31-0.361,3.452-0.572
		C28.289,35.347,28.06,36.019,27.817,36.676z M27.574,37.316c-0.183,0.46-0.378,0.912-0.587,1.355
		c-0.929,0.169-1.856,0.31-2.78,0.422c0.147-0.444,0.28-0.892,0.394-1.346C25.595,37.644,26.585,37.492,27.574,37.316z
		 M26.687,39.266c-0.172,0.336-0.351,0.669-0.544,0.997c-0.859,0.188-1.715,0.349-2.567,0.481c0.151-0.35,0.294-0.703,0.426-1.061
		C24.898,39.574,25.793,39.432,26.687,39.266z M24.176,37.191c-0.966,0.094-1.93,0.161-2.894,0.193
		c0.046-0.579,0.074-1.161,0.076-1.747c1.063-0.085,2.124-0.209,3.182-0.349C24.436,35.933,24.316,36.568,24.176,37.191z
		 M24.028,37.804c-0.114,0.459-0.241,0.912-0.378,1.361c-0.871,0.094-1.741,0.168-2.609,0.209c0.078-0.466,0.145-0.934,0.194-1.404
		C22.167,37.946,23.098,37.888,24.028,37.804z M23.467,39.753c-0.12,0.359-0.251,0.715-0.388,1.069
		c-0.799,0.112-1.597,0.206-2.392,0.266c0.092-0.379,0.175-0.76,0.248-1.142C21.78,39.91,22.624,39.842,23.467,39.753z
		 M20.767,37.976c-0.044,0.469-0.103,0.937-0.171,1.403c-0.848,0.031-1.696,0.051-2.542,0.031c-0.047-0.494-0.098-0.988-0.154-1.481
		C18.855,37.981,19.811,37.989,20.767,37.976z M20.531,41.717c0.761-0.049,1.52-0.129,2.277-0.234
		c-0.145,0.342-0.297,0.683-0.46,1.021c-0.712,0.106-1.419,0.195-2.121,0.254C20.336,42.412,20.437,42.065,20.531,41.717z
		 M34.626,29.913c-0.004,0.002-0.008-0.001-0.012,0.002c-4.431,3.027-10.187,2.993-15.38,3.042
		c-4.91,0.047-19.362-0.252-18.803-8.121c3.771-5.227,13.315-4.905,19.137-4.832c5.772,0.073,13.337,0.156,17.036,5.35
		c0.065,0.091,0.159,0.118,0.247,0.108C37.255,27.274,36.093,28.909,34.626,29.913z M64.391,27.133
		c-0.16,1.589-1.232,2.952-2.893,2.886c-8.005-0.939-16.247-1.702-24.311-1.866c0.003-0.168,0.022-0.33,0.02-0.5
		c0.316-0.682,0.408-1.453,0.182-2.3c7.822,0.373,16.062-0.025,23.87-0.659c0.007,0.01,0.003,0.022,0.013,0.031
		c0.027,0.027,0.055,0.054,0.082,0.082c0.107,0.106,0.346,0.074,0.37-0.098c0.043-0.303,1.723-0.022,1.796,0.019
		C64.432,25.248,64.484,26.209,64.391,27.133z"/>
	<path style="fill:#1D1D1B;" d="M33.127,27.31c-0.525-0.17-1.053-0.313-1.582-0.455c0.3-0.603,0.495-1.241,0.552-1.893
		c0.341,0.094,0.683,0.183,1.023,0.29c0.25,0.079,0.336-0.29,0.106-0.383c-0.365-0.148-0.74-0.273-1.112-0.403
		c-0.033-0.137-0.193-0.185-0.293-0.106c-0.641-0.214-1.29-0.409-1.95-0.573c0.045-0.2,0.096-0.4,0.131-0.602
		c0.047-0.275-0.355-0.399-0.427-0.118c-0.054,0.21-0.114,0.412-0.173,0.617c-0.966-0.223-1.947-0.407-2.946-0.538
		c0.01-0.175,0.027-0.35,0.029-0.523c0.003-0.278-0.411-0.273-0.429,0c-0.011,0.16-0.033,0.311-0.049,0.467
		c-1.029-0.121-2.07-0.203-3.122-0.242c-0.039-0.17-0.068-0.343-0.118-0.51c-0.05-0.169-0.339-0.147-0.321,0.043
		c0.015,0.155,0.024,0.305,0.037,0.458c-0.924-0.025-1.852-0.029-2.785,0.001c-0.045-0.296-0.091-0.591-0.141-0.882
		c-0.026-0.155-0.29-0.121-0.276,0.037c0.026,0.288,0.036,0.575,0.057,0.863c-0.776,0.03-1.554,0.079-2.332,0.14
		C17,22.789,17,22.581,16.994,22.373c-0.004-0.138-0.198-0.133-0.211,0c-0.021,0.215-0.041,0.433-0.061,0.65
		c-0.728,0.061-1.452,0.158-2.178,0.242c-0.005-0.298-0.023-0.589-0.019-0.891c0.002-0.111-0.184-0.143-0.2-0.027
		c-0.043,0.313-0.078,0.632-0.109,0.954c-0.878,0.105-1.75,0.232-2.62,0.363c-0.016-0.304-0.028-0.609-0.029-0.92
		c-0.001-0.164-0.245-0.162-0.253,0c-0.016,0.318-0.026,0.639-0.03,0.964c-0.823,0.126-1.64,0.263-2.45,0.406
		c-0.065-0.406-0.138-0.806-0.171-1.241c-0.008-0.11-0.167-0.112-0.172,0c-0.019,0.427-0.006,0.863,0.023,1.3
		c-0.875,0.157-1.732,0.326-2.585,0.495c-0.098-0.337-0.088-0.676,0.062-1.017c0.041,0.033,0.116-0.01,0.08-0.062
		c-0.062-0.088-0.124-0.176-0.186-0.264c-0.04-0.057-0.128-0.067-0.166,0c-0.24,0.417-0.248,0.913-0.165,1.415
		c-0.566,0.114-1.127,0.229-1.681,0.345c-0.083-0.191-0.17-0.378-0.242-0.58c-0.039-0.109-0.211-0.065-0.176,0.049
		c0.058,0.19,0.127,0.385,0.192,0.58c-0.512,0.108-1.02,0.217-1.518,0.327c-0.128,0.028-0.071,0.213,0.053,0.193
		c0.514-0.08,1.039-0.157,1.559-0.235c0.164,0.461,0.361,0.916,0.584,1.358c-0.104,0.014-0.21,0.026-0.314,0.04
		c-0.049,0.007-0.038,0.091,0.012,0.086c0.119-0.011,0.236-0.018,0.355-0.028c0.256,0.492,0.541,0.964,0.893,1.363
		c0.103,0.116,0.282-0.032,0.21-0.162c-0.235-0.423-0.473-0.828-0.707-1.233c0.447-0.035,0.894-0.07,1.341-0.106
		c0.137,0.435,0.289,0.875,0.473,1.305c-0.07,0.056-0.055,0.19,0.06,0.19c0.011,0,0.021,0,0.032,0
		c0.213,0.466,0.456,0.914,0.763,1.295c0.087,0.108,0.275-0.008,0.232-0.135c-0.136-0.397-0.311-0.778-0.491-1.158
		c0.788,0,1.575,0.005,2.362,0.01c0.286,0.597,0.627,1.162,1.033,1.671c0.125,0.157,0.355-0.043,0.268-0.207
		c-0.265-0.498-0.501-0.981-0.725-1.462c0.549,0.004,1.099,0.003,1.648,0.007c0.2,0.813,0.461,1.604,0.815,2.345
		c0.086,0.181,0.368,0.052,0.318-0.134c-0.202-0.748-0.396-1.48-0.573-2.209c0.668,0.005,1.338,0.002,2.006,0.008
		c0.142,0.917,0.349,1.813,0.653,2.651c0.078,0.214,0.369,0.127,0.336-0.093c-0.132-0.866-0.257-1.713-0.372-2.556
		c0.549,0.005,1.099,0,1.647,0.007c0.066,0.728,0.178,1.448,0.36,2.149c0.071,0.272,0.488,0.157,0.42-0.116
		c-0.167-0.673-0.267-1.349-0.326-2.028c0.818,0.01,1.637,0.014,2.456,0.028c0.01,0.856,0.022,1.712,0.046,2.573
		c0.006,0.211,0.356,0.281,0.387,0.052c0.117-0.858,0.169-1.733,0.179-2.614c0.7,0.013,1.401,0.032,2.101,0.047
		c-0.161,0.733-0.378,1.471-0.677,2.228c-0.037,0.094,0.118,0.159,0.164,0.069c0.371-0.715,0.673-1.489,0.91-2.288
		c0.519,0.012,1.039,0.034,1.559,0.047c-0.259,0.435-0.535,0.869-0.842,1.311c-0.087,0.125,0.1,0.256,0.204,0.158
		c0.455-0.431,0.854-0.922,1.205-1.451c0.822,0.022,1.643,0.05,2.465,0.074c-0.393,0.589-0.83,1.165-1.323,1.731
		c-0.111,0.127,0.063,0.305,0.186,0.187c0.597-0.572,1.141-1.216,1.632-1.903c0.563,0.017,1.126,0.028,1.69,0.051
		c0.338,0.014,0.336-0.507,0-0.524c-0.44-0.022-0.882-0.032-1.322-0.05c0.231-0.357,0.441-0.727,0.638-1.103
		c0.667,0.106,1.336,0.226,2.006,0.357c-0.407,0.767-0.937,1.467-1.707,2.103c-0.141,0.117,0.049,0.368,0.198,0.257
		c0.771-0.578,1.512-1.358,2.054-2.246c0.578,0.119,1.157,0.241,1.738,0.383C33.293,27.825,33.408,27.401,33.127,27.31z
		 M11.292,24.312c0.009,0.53,0.035,1.064,0.086,1.597c-0.693,0.07-1.382,0.156-2.072,0.236c-0.155-0.489-0.294-0.983-0.397-1.5
		C9.703,24.533,10.494,24.413,11.292,24.312z M4.709,26.727c-0.252-0.439-0.495-0.882-0.712-1.347
		c0.548-0.082,1.092-0.164,1.639-0.247c0.097,0.399,0.23,0.788,0.332,1.128c0.028,0.095,0.062,0.195,0.092,0.292
		C5.61,26.612,5.16,26.67,4.709,26.727z M6.151,25.568c-0.046-0.163-0.085-0.328-0.126-0.493c0.846-0.126,1.679-0.259,2.53-0.381
		c0.056,0.505,0.152,1.008,0.275,1.505c-0.796,0.094-1.583,0.203-2.376,0.304C6.346,26.194,6.24,25.883,6.151,25.568z M7.078,27.999
		c-0.195-0.41-0.391-0.821-0.545-1.25c-0.005-0.014-0.009-0.029-0.014-0.043c0.795-0.062,1.596-0.135,2.386-0.189
		c0.133,0.481,0.305,0.948,0.503,1.402C8.63,27.942,7.854,27.965,7.078,27.999z M9.968,27.898c-0.208-0.47-0.398-0.939-0.562-1.415
		c0.674-0.045,1.35-0.095,2.022-0.134c0.06,0.501,0.137,0.999,0.243,1.49C11.103,27.851,10.536,27.881,9.968,27.898z M11.644,24.272
		c0.84-0.104,1.681-0.204,2.524-0.289c-0.035,0.554-0.054,1.115-0.046,1.68c-0.761,0.058-1.522,0.128-2.282,0.202
		C11.755,25.341,11.69,24.81,11.644,24.272z M12.231,27.827c-0.116-0.501-0.22-1.002-0.311-1.506c0.74-0.04,1.484-0.097,2.221-0.125
		c0.021,0.532,0.057,1.064,0.123,1.59C13.586,27.795,12.909,27.814,12.231,27.827z M14.894,27.778
		c-0.069-0.532-0.132-1.067-0.185-1.599c0.608-0.02,1.217-0.046,1.823-0.056c-0.009,0.546,0.001,1.09,0.034,1.632
		C16.009,27.757,15.451,27.773,14.894,27.778z M16.548,25.501c-0.628,0.03-1.257,0.081-1.885,0.126
		c-0.048-0.555-0.083-1.116-0.104-1.68c0.7-0.068,1.4-0.145,2.101-0.195C16.611,24.331,16.571,24.915,16.548,25.501z M17.004,23.724
		c0.794-0.053,1.587-0.095,2.38-0.12c0.033,0.604,0.058,1.207,0.075,1.81c-0.825,0.005-1.651,0.031-2.477,0.066
		C16.989,24.896,17,24.31,17.004,23.724z M17.024,27.757c-0.032-0.544-0.046-1.089-0.046-1.635c0.834-0.01,1.668-0.026,2.5-0.012
		c0.011,0.551,0.021,1.103,0.027,1.655C18.678,27.756,17.851,27.756,17.024,27.757z M22.332,27.819
		c-0.735-0.015-1.47-0.036-2.205-0.045c-0.005-0.551-0.028-1.103-0.065-1.655c0.822,0.02,1.644,0.067,2.467,0.115
		C22.491,26.764,22.427,27.292,22.332,27.819z M20.01,25.412c-0.054-0.611-0.125-1.218-0.208-1.82
		c0.913-0.022,1.824-0.016,2.734,0.007c0.037,0.641,0.053,1.267,0.035,1.884C21.719,25.442,20.865,25.414,20.01,25.412z
		 M25.914,23.814c-0.106,0.664-0.262,1.291-0.464,1.895c-0.773-0.084-1.548-0.153-2.325-0.199c0.03-0.638-0.006-1.274-0.095-1.899
		C23.995,23.645,24.956,23.718,25.914,23.814z M24.495,27.874c-0.574-0.015-1.147-0.033-1.721-0.046
		c0.128-0.516,0.22-1.041,0.28-1.569c0.709,0.047,1.419,0.111,2.129,0.181C24.985,26.927,24.753,27.402,24.495,27.874z
		 M27.548,27.983c-0.824-0.032-1.647-0.07-2.472-0.094c0.254-0.446,0.482-0.909,0.667-1.392c0.817,0.088,1.636,0.2,2.456,0.323
		C28,27.216,27.78,27.602,27.548,27.983z M28.506,26.164c-0.837-0.153-1.676-0.288-2.52-0.391c0.191-0.625,0.324-1.263,0.404-1.901
		c0.946,0.106,1.888,0.251,2.826,0.424C29.009,24.944,28.774,25.565,28.506,26.164z M29.032,26.263
		c0.28-0.609,0.51-1.238,0.689-1.876c0.643,0.128,1.283,0.279,1.921,0.446c-0.19,0.662-0.396,1.285-0.653,1.869
		C30.339,26.538,29.686,26.392,29.032,26.263z"/>
</g>
<g>
</g>
<g>
</g>
<g>
</g>
<g>
</g>
<g>
</g>
<g>
</g>
<g>
</g>
<g>
</g>
<g>
</g>
<g>
</g>
<g>
</g>
<g>
</g>
<g>
</g>
<g>
</g>
<g>
</g>
</svg>
