<?xml version="1.0" encoding="iso-8859-1"?>
<!-- Generator: Adobe Illustrator 18.0.0, SVG Export Plug-In . SVG Version: 6.00 Build 0)  -->
<!DOCTYPE svg PUBLIC "-//W3C//DTD SVG 1.1//EN" "http://www.w3.org/Graphics/SVG/1.1/DTD/svg11.dtd">
<svg version="1.1" id="Capa_1" xmlns="http://www.w3.org/2000/svg" xmlns:xlink="http://www.w3.org/1999/xlink" x="0px" y="0px"
	 viewBox="0 0 46.72 46.72" style="enable-background:new 0 0 46.72 46.72;" xml:space="preserve">
<g>
	<path style="fill:#1D1D1B;" d="M29.607,5.046c-0.092-0.012-0.149,0.04-0.188,0.107c-1.65-1.413-4.287-1.628-5.646,0.462
		c-0.153-1.744-0.074-3.103,0.69-4.723c0.039-0.083,0.026-0.157-0.006-0.22c0.065-0.094,0.069-0.225-0.059-0.305
		c-0.734-0.46-1.778-0.419-2.622-0.248c-0.061-0.024-0.13-0.014-0.185,0.033c-0.009,0.002-0.019,0.003-0.028,0.005
		c-0.11,0.026-0.127,0.154-0.082,0.238c-0.634,1.842-0.261,4.075,0.593,5.825c-2.382-2.316-5.852-0.75-8.587,0.119
		c-0.238,0.076-0.283,0.393-0.069,0.527c0.108,0.067,0.22,0.134,0.33,0.202C6.359,9.284,3.332,18.397,8.269,24.607
		c2.485,3.125,6.17,4.337,7.738,8.417c0.895,2.331,1.16,4.859,1.997,7.21c1.237,3.475,3.68,6.1,7.517,6.451
		c3.494,0.319,6.735-1.525,8.563-4.458c1.137-1.824,1.485-3.797,1.604-5.905c0.187-3.295-0.31-4.762,1.327-8.311
		c0.688-1.493,1.711-2.821,2.432-4.299C43.438,15.529,38.654,6.248,29.607,5.046z M14.239,6.704
		c2.564-0.843,5.647-2.141,7.841,0.082c0.098,0.1,0.215,0.06,0.28-0.024c0.117,0.163,0.357,0.006,0.277-0.182
		c-0.897-2.099-0.918-3.933-0.781-6.133c0.338-0.031,0.677-0.04,1.017,0c0.39,0.047,0.754,0.176,1.129,0.269
		c-0.859,1.409-1.181,3.431-0.533,4.974c0.032,0.076,0.117,0.111,0.191,0.103c-0.093,0.203,0.166,0.393,0.334,0.236
		c1.022-0.955,2.168-1.678,3.638-1.335c1.248,0.291,2.118,1.255,2.492,2.423c-1.774-0.206-3.524-0.071-5.208,0.598
		c-0.134,0.053-0.125,0.214-0.029,0.268c0.031,0.088,0.092,0.165,0.213,0.174c2.254,0.154,3.732,2.203,2.946,4.304
		c-1.363-1.29-3.799-1.227-4.577-3.057c0.03-0.071,0.073-0.133,0.101-0.206c0.098-0.262-0.33-0.443-0.453-0.191
		c-1.093,2.234-3.2,3.727-5.648,3.699c1.164-1.033,0.796-3.412,2.181-4.307c0.144-0.058,0.288-0.125,0.431-0.202
		c0.22-0.118,0.069-0.501-0.173-0.411c-1.901,0.702-3.558,0.137-5.152-0.779c-0.018-0.105-0.106-0.197-0.246-0.166
		c-0.008,0.002-0.015,0.005-0.022,0.007C14.403,6.801,14.321,6.755,14.239,6.704z M36.151,28.441
		c-1.166,2.677-0.876,5.006-1.075,7.881c-0.46,6.613-7.9,13.919-14.28,7.574c-3.913-3.892-2.61-10.475-6.204-14.619
		c-2.679-3.09-6.584-4.518-7.81-8.849C5.056,14.332,8.862,9.399,14.268,7.378c1.406,0.819,2.943,1.513,4.499,1.266
		c-1.007,1.226-0.653,3.668-2.427,3.977c-0.265,0.046-0.267,0.493,0,0.538c2.699,0.45,5.56-0.818,6.869-3.225
		c0.711,1.767,3.585,1.758,4.676,3.19c0.118,0.155,0.391,0.215,0.496,0c1.053-2.166-0.019-4.715-2.211-5.33
		c1.415-0.216,2.818-0.275,4.266-0.066c0.217,0.031,0.401-0.121,0.352-0.352C30.641,6.7,30.309,6.102,29.87,5.601
		c5.242,1.145,9.37,4.551,10.248,10.142C40.943,20.997,38.066,24.047,36.151,28.441z"/>
	<path style="fill:#1D1D1B;" d="M13.86,10.015c-0.457-0.5-1.409,0.415-1.081,0.927c0.153,0.24,0.518,0.279,0.751,0.138
		c0.298-0.18,0.364-0.58,0.316-0.903C13.887,10.137,13.906,10.066,13.86,10.015z"/>
	<path style="fill:#1D1D1B;" d="M14.935,9.441c-0.102,0.029-0.116,0.2,0,0.22c0.218,0.039,0.774,0.157,0.572,0.572
		c-0.113,0.108-0.225,0.216-0.338,0.325c-0.429-0.087-0.563-0.302-0.401-0.646c0.077-0.141-0.132-0.264-0.216-0.126
		c-0.385,0.635,0.334,1.401,0.974,0.949C16.164,10.286,15.693,9.225,14.935,9.441z"/>
	<path style="fill:#1D1D1B;" d="M10.882,11.556c-0.031,0.084-0.132,0.814-0.194,0.841c-0.075-0.061-0.15-0.122-0.225-0.183
		c0.025-0.126,0.05-0.252,0.075-0.378c0.085-0.164,0.312-0.329,0.452-0.437c0.094-0.072,0.01-0.231-0.096-0.164
		c-0.337,0.213-0.762,0.504-0.729,0.958c0.025,0.347,0.3,0.633,0.655,0.587c0.071-0.009,0.144-0.045,0.161-0.123
		c0.077-0.347,0.169-0.707,0.179-1.063C11.167,11.425,10.936,11.413,10.882,11.556z"/>
	<path style="fill:#1D1D1B;" d="M13.507,12.112c-0.11-0.041-0.176,0.092-0.137,0.178c0.116,0.258,0.551,0.548,0.468,0.85
		c0.041,0.171-0.052,0.223-0.277,0.157c-0.275,0.125-0.394,0.026-0.357-0.299c-0.009-0.216,0.086-0.453,0.154-0.652
		c0.045-0.134-0.171-0.228-0.231-0.097c-0.181,0.39-0.371,0.845-0.139,1.256c0.166,0.295,0.517,0.481,0.845,0.337
		C14.63,13.492,14.115,12.34,13.507,12.112z"/>
	<path style="fill:#1D1D1B;" d="M23.047,42.885c-0.232-0.413-0.62-0.839-1.121-0.868c-0.116-0.007-0.128,0.14-0.053,0.197
		c0.307,0.233,0.576,0.379,0.795,0.673c-0.352,0.108-0.733-0.085-0.809-0.475c-0.035-0.179-0.302-0.102-0.271,0.075
		c0.111,0.635,0.863,0.958,1.403,0.611C23.063,43.051,23.09,42.961,23.047,42.885z"/>
	<path style="fill:#1D1D1B;" d="M22.671,40.611c-0.567-0.309-1.311-0.497-1.942-0.291c-0.153,0.05-0.131,0.286,0.039,0.286
		c0.557,0.001,1.031,0.013,1.535,0.199c-0.375,0.34-0.967,0.297-1.31-0.089c-0.067-0.075-0.198,0.024-0.141,0.109
		c0.447,0.659,1.411,0.608,1.875,0.001C22.778,40.759,22.738,40.648,22.671,40.611z"/>
	<path style="fill:#1D1D1B;" d="M20.465,38.058c-0.07-0.054-0.188-0.026-0.186,0.077c0.007,0.396,0.088,0.704-0.136,1.015
		c-0.115-0.213-0.112-0.459,0-0.686c0.042-0.085-0.072-0.192-0.141-0.109c-0.305,0.369-0.276,0.805,0.023,1.169
		c0.057,0.07,0.161,0.049,0.221,0C20.623,39.215,20.934,38.423,20.465,38.058z"/>
	<path style="fill:#1D1D1B;" d="M29.097,38.36c-0.117-0.049-0.223,0.111-0.161,0.209c0.236,0.373,0.404,0.771,0.099,1.125
		c-0.288-0.19-0.4-0.522-0.262-0.858c0.056-0.137-0.179-0.237-0.241-0.102c-0.228,0.497-0.049,1.056,0.446,1.304
		c0.069,0.035,0.134,0.022,0.192-0.025C29.657,39.622,29.76,38.637,29.097,38.36z"/>
	<path style="fill:#1D1D1B;" d="M31.371,37.946c-0.448-0.319-1.085-0.61-1.644-0.488c-0.147,0.032-0.127,0.236,0,0.278
		c0.445,0.148,0.849,0.222,1.248,0.442c-0.358,0.342-1.059,0.223-1.234-0.276c-0.057-0.162-0.309-0.098-0.261,0.072
		c0.247,0.867,1.5,0.992,1.962,0.243C31.502,38.121,31.456,38.007,31.371,37.946z"/>
	<path style="fill:#1D1D1B;" d="M30.748,39.454c-0.134,0.048-0.16,0.263,0,0.298c0.186,0.041,0.436,0.106,0.543,0.285
		c0.196,0.328-0.022,0.622-0.348,0.665c-0.259,0.034-0.315-0.025-0.341-0.251c-0.026-0.224-0.034-0.452-0.051-0.677
		c-0.012-0.154-0.239-0.158-0.243,0c-0.009,0.422-0.216,1.045,0.265,1.246c0.305,0.127,0.69,0.05,0.935-0.167
		C32.103,40.33,31.519,39.179,30.748,39.454z"/>
	<path style="fill:#1D1D1B;" d="M33.334,16.365c-0.1-0.087-0.254-0.004-0.223,0.13c0.098,0.428,0.176,0.785-0.002,1.156
		c-0.276-0.473-0.283-1.061-0.007-1.547c0.048-0.085-0.076-0.191-0.141-0.109c-0.505,0.635-0.512,1.475-0.014,2.121
		c0.071,0.092,0.211,0.142,0.304,0.039C33.662,17.698,33.86,16.822,33.334,16.365z"/>
	<path style="fill:#1D1D1B;" d="M33.584,15.335c-0.215,0.025-0.213,0.307,0,0.334c0.029,0.004,0.058,0.008,0.087,0.012
		c-0.046,0.03-0.08,0.078-0.055,0.139c0.206,0.507,1.174,1.534,1.733,0.826C35.954,15.88,34.063,15.28,33.584,15.335z M34.252,16.24
		c-0.173-0.145-0.289-0.325-0.385-0.525c-0.002-0.004-0.007-0.004-0.009-0.008c0.148,0.022,0.295,0.05,0.437,0.103
		c0.126,0.047,0.685,0.291,0.69,0.453C34.999,16.758,34.377,16.344,34.252,16.24z"/>
	<path style="fill:#1D1D1B;" d="M34.97,17.313c-0.118-0.046-0.238,0.115-0.167,0.217c0.196,0.279,0.531,0.453,0.61,0.805
		c0.088,0.393-0.318,0.641-0.591,0.308c-0.205-0.251-0.083-0.662-0.023-0.945c0.037-0.177-0.216-0.248-0.271-0.075
		c-0.144,0.452-0.266,0.961,0.064,1.362c0.229,0.278,0.624,0.393,0.934,0.169C36.276,18.616,35.618,17.568,34.97,17.313z"/>
	<path style="fill:#1D1D1B;" d="M16.25,24.73c-0.112,0-0.153,0.153-0.057,0.21c0.33,0.197,0.874,0.721,0.577,1.172
		c-0.104,0.158-0.148,0.143-0.322,0.058c-0.132-0.065-0.257-0.156-0.361-0.259c-0.266-0.262-0.394-0.599-0.423-0.968
		c-0.009-0.111-0.163-0.111-0.172,0c-0.064,0.778,0.481,1.464,1.226,1.65c0.052,0.013,0.121,0.002,0.157-0.042
		C17.353,25.984,17.149,24.728,16.25,24.73z"/>
	<path style="fill:#1D1D1B;" d="M14.775,25.398c-0.1-0.093-0.314-0.002-0.253,0.147c0.135,0.331,0.276,0.745-0.121,0.965
		c-0.57,0.315-1.095-0.59-0.401-0.832c0.123-0.043,0.074-0.229-0.054-0.197c-0.76,0.194-0.722,1.286,0.055,1.428
		C14.826,27.059,15.398,25.976,14.775,25.398z"/>
	<path style="fill:#1D1D1B;" d="M16.737,27.37c-0.091-0.132-0.281-0.049-0.254,0.107c0.024,0.137,0.05,0.206,0.14,0.316
		c0.065,0.078,0.304,0.201,0.324,0.268c-0.02,0.25-0.101,0.32-0.243,0.211c-0.112-0.043-0.211-0.108-0.295-0.195
		c-0.192-0.181-0.298-0.407-0.382-0.653c-0.028-0.083-0.154-0.071-0.155,0.021c-0.007,0.572,0.543,1.324,1.188,1.245
		c0.24-0.03,0.375-0.21,0.362-0.449C17.399,27.822,16.947,27.673,16.737,27.37z"/>
	<path style="fill:#1D1D1B;" d="M23.882,18.112c-0.005-0.101-0.155-0.161-0.206-0.056c-0.039,0.08-0.062,0.114-0.076,0.19
		c-0.015,0.08,0.067,0.393,0.053,0.426c-0.084,0.049-0.169,0.098-0.253,0.146c-0.245-0.115-0.313-0.302-0.204-0.562
		c0.049-0.182,0.175-0.362,0.273-0.521c0.073-0.118-0.107-0.264-0.196-0.151c-0.333,0.422-0.738,1.208-0.054,1.524
		c0.189,0.087,0.433,0.105,0.602-0.037C24.114,18.824,23.898,18.419,23.882,18.112z"/>
	<path style="fill:#1D1D1B;" d="M24.846,17.472c-0.147-0.075-0.271,0.098-0.17,0.221c0.188,0.23,0.778,0.506,0.791,0.793
		c0.073,0.16,0.009,0.212-0.192,0.154c-0.124-0.006-0.238-0.041-0.343-0.102c-0.274-0.132-0.445-0.344-0.542-0.631
		c-0.051-0.151-0.287-0.089-0.241,0.066c0.171,0.574,0.909,1.242,1.55,0.899C26.439,18.475,25.173,17.638,24.846,17.472z"/>
	<path style="fill:#1D1D1B;" d="M28.74,26.539c-0.139,0.02-0.1,0.236,0.032,0.238c0.662,0.013,0.833,1.008,0.119,1.044
		c-0.557,0.028-0.665-0.721-0.275-1.016c0.091-0.069,0.012-0.22-0.092-0.158c-0.788,0.469-0.366,1.725,0.577,1.478
		C30.147,27.851,29.773,26.392,28.74,26.539z"/>
	<path style="fill:#1D1D1B;" d="M31.446,26.906c-0.497-0.502-1.129-1.053-1.812-1.273c-0.185-0.059-0.26,0.192-0.123,0.292
		c0.519,0.381,1.056,0.686,1.542,1.109c-0.484,0.359-1.076-0.27-1.387-0.643c-0.085-0.102-0.261,0.033-0.185,0.143
		c0.413,0.597,1.298,1.399,1.964,0.621C31.508,27.083,31.517,26.978,31.446,26.906z"/>
	<path style="fill:#1D1D1B;" d="M32.707,8.382c-0.055-0.089-0.22-0.06-0.21,0.057c0.026,0.295,0.205,0.596,0.208,0.88
		c0.005,0.441-0.44,0.453-0.473-0.067c-0.014-0.224,0.126-0.475,0.218-0.667c0.098-0.205-0.204-0.385-0.306-0.179
		c-0.271,0.544-0.518,1.569,0.389,1.641C33.523,10.125,32.976,8.82,32.707,8.382z"/>
	<path style="fill:#1D1D1B;" d="M33.932,8.483C33.815,8.5,33.805,8.678,33.9,8.73c0.148,0.081,0.284,0.101,0.444,0.155
		c0.246,0.083,0.971,0.639,0.227,0.821c-0.537,0.131-0.719-0.721-0.796-1.073c-0.049-0.224-0.387-0.128-0.342,0.094
		c0.088,0.435,0.205,0.951,0.607,1.209c0.3,0.194,0.741,0.219,1.017-0.03C35.822,9.217,34.605,8.384,33.932,8.483z"/>
	<path style="fill:#1D1D1B;" d="M30.723,28.924c-0.054-0.142-0.229-0.137-0.285,0c-0.08,0.196-0.056,0.378-0.113,0.583
		c-0.053,0.346-0.282,0.397-0.688,0.152c-0.003-0.147,0.03-0.287,0.098-0.418c0.154-0.328,0.373-0.577,0.432-0.945
		c0.018-0.117-0.142-0.166-0.18-0.05c-0.161,0.494-1.353,1.665-0.328,2.064C30.434,30.612,30.959,29.54,30.723,28.924z"/>
	<path style="fill:#1D1D1B;" d="M31.649,28.106c-0.15-0.046-0.287,0.167-0.159,0.273c0.318,0.265,1.044,0.256,1.222,0.642
		c0.086,0.187-0.048,0.373-0.269,0.412c-0.093,0.016-0.294-0.116-0.381-0.162c-0.277-0.147-0.501-0.354-0.705-0.587
		c-0.093-0.107-0.287,0.039-0.199,0.153c0.318,0.412,1.465,1.488,1.928,0.695C33.594,28.667,32.164,28.264,31.649,28.106z"/>
	<path style="fill:#1D1D1B;" d="M11.366,21.683c-0.065-0.072-0.212-0.019-0.201,0.083c0.06,0.584,0.153,1.022-0.075,1.539
		c-0.33-0.341-0.425-0.853-0.203-1.287c0.074-0.145-0.133-0.268-0.219-0.128c-0.395,0.648-0.212,1.436,0.391,1.88
		c0.081,0.06,0.199,0.01,0.247-0.065C11.663,23.156,11.848,22.217,11.366,21.683z"/>
</g>
<g>
</g>
<g>
</g>
<g>
</g>
<g>
</g>
<g>
</g>
<g>
</g>
<g>
</g>
<g>
</g>
<g>
</g>
<g>
</g>
<g>
</g>
<g>
</g>
<g>
</g>
<g>
</g>
<g>
</g>
</svg>
