<?xml version="1.0" encoding="iso-8859-1"?>
<!-- Generator: Adobe Illustrator 18.0.0, SVG Export Plug-In . SVG Version: 6.00 Build 0)  -->
<!DOCTYPE svg PUBLIC "-//W3C//DTD SVG 1.1//EN" "http://www.w3.org/Graphics/SVG/1.1/DTD/svg11.dtd">
<svg version="1.1" id="Capa_1" xmlns="http://www.w3.org/2000/svg" xmlns:xlink="http://www.w3.org/1999/xlink" x="0px" y="0px"
	 viewBox="0 0 59.926 59.926" style="enable-background:new 0 0 59.926 59.926;" xml:space="preserve">
<g>
	<path style="fill:#1D1D1B;" d="M57.943,19.202C53.803,8.841,45.219,3.534,34.488,2.141c-0.053-0.007-0.094,0.012-0.125,0.043
		c-5.006-0.841-10.291-0.29-15.231,1.845c-0.053-0.078-0.139-0.131-0.27-0.117C6.729,5.231-0.242,16.486,0.006,28.055
		c0.118,5.526,1.521,10.763,4.148,15.113c8.612,17.03,37.567,20.375,49.854,5.539C60.259,41.16,61.537,28.195,57.943,19.202z
		 M18.437,4.668c0.057,0.084,0.144,0.145,0.255,0.099C31.733-0.631,46.94,4.115,53.103,17.227
		c2.957,6.292,3.403,14.463,1.382,21.119c-2.21,7.28-8.278,11.765-15.315,13.921c-12.02,3.684-28.12,2.28-34.729-9.886
		C-2.915,28.841,0.917,7.133,18.437,4.668z M53.434,48.262c-6.141,7.322-17.269,9.666-26.43,8.841
		c-6.785-0.611-12.8-3.327-17.468-7.727c2.654,2.137,5.845,3.732,9.581,4.579c10.367,2.35,24.188,0.471,31.757-7.64
		c7.602-8.146,7.145-22.884,1.566-31.98c-3.003-4.896-7.339-8.441-12.262-10.491c7.341,2.273,12.913,6.563,16.576,14.267
		C61.021,27.086,59.807,40.663,53.434,48.262z"/>
	<path style="fill:#1D1D1B;" d="M14.921,25.105c-0.191-0.523-0.551-0.863-1.094-0.985c-1.06-0.237-2.432-0.051-3.51-0.011
		c-0.153,0.006-0.204,0.14-0.175,0.252c-0.069-0.041-0.179-0.028-0.203,0.066c-0.375,1.489-0.971,4.097,0.377,5.28
		c0.899,0.789,3.257,0.813,4.137-0.031c0.493-0.472,0.474-1.241,0.516-1.868C15.027,26.956,15.225,25.939,14.921,25.105z
		 M14.528,26.964c-0.05,0.806,0.038,1.575-0.532,2.185c-1.105,1.182-3.595,0.793-3.938-0.915c-0.242-1.207,0.001-2.563,0.14-3.771
		c0-0.003-0.002-0.004-0.002-0.007c0.031,0.028,0.067,0.052,0.121,0.054c1.135,0.038,3.449-0.462,4.137,0.724
		C14.7,25.658,14.557,26.497,14.528,26.964z"/>
	<path style="fill:#1D1D1B;" d="M18.36,17.506c-0.69-0.409-1.849-0.39-2.634-0.452c-0.784-0.061-2.023-0.299-2.706,0.258
		c-0.603,0.491-0.627,1.429-0.727,2.13c-0.16,1.118-0.225,2.236-0.204,3.365c0.001,0.06,0.026,0.102,0.058,0.135
		c-1.497-0.042-3.114,0.173-3.046,1.3c-0.78,1.962-1.061,5.537,1.244,6.622c1.571,0.74,4.927,0.926,5.284-1.257
		c0.117-0.715,0.085-1.491,0.119-2.213c0.042-0.878,0.23-1.888,0.118-2.76c-0.051-0.403-0.173-0.687-0.355-0.909
		c1.396-0.184,2.737-0.348,3.203-1.88C19.055,20.717,19.625,18.256,18.36,17.506z M15.129,29.872
		c-0.492,0.84-1.763,0.957-2.629,0.95c-1.072-0.009-2.109-0.198-2.83-1.055c-1.069-1.271-0.684-3.473-0.447-5.076
		c0.118,0.166,0.408,0.079,0.351-0.153c-0.109-0.436,1.169-0.969,1.504-1.023c0.427-0.068,0.989,0.029,1.43,0.042
		c1.022,0.03,2.566-0.214,2.899,1.078c0.177,0.688-0.069,1.772-0.1,2.466C15.275,27.787,15.469,29.292,15.129,29.872z
		 M18.197,21.704c-0.428,1.417-2.06,1.356-3.265,1.6c-0.007,0.001-0.007,0.008-0.014,0.01c-0.151-0.057-0.311-0.107-0.504-0.142
		c-0.341-0.061-1.126-0.177-1.988-0.219c0.038-0.033,0.065-0.081,0.069-0.145c0.081-1.283-0.004-2.957,0.465-4.155
		c0.635-1.622,2.977-1.109,4.348-0.874C19.057,18.077,18.572,20.463,18.197,21.704z"/>
	<path style="fill:#1D1D1B;" d="M13.022,26.447c-0.256-0.441-0.915-0.639-1.305-0.286c-0.571,0.29-0.903,0.878-0.605,1.525
		c0.247,0.536,1.032,1.013,1.589,0.628C13.195,27.973,13.31,26.943,13.022,26.447z M12.214,27.982
		c-0.781,0.034-0.934-0.919-0.589-1.467c0.069,0.113,0.209,0.175,0.331,0.048c0.403-0.424,0.765,0.224,0.755,0.597
		C12.701,27.501,12.595,27.966,12.214,27.982z"/>
	<path style="fill:#1D1D1B;" d="M11.391,25.593c-0.212,0.318-0.785,0.269-0.864-0.137c-0.015-0.077-0.146-0.06-0.138,0.019
		c0.056,0.578,0.947,0.763,1.143,0.177C11.562,25.566,11.438,25.523,11.391,25.593z"/>
	<path style="fill:#1D1D1B;" d="M11.502,25.075c-0.083-0.014-0.121,0.11-0.036,0.129c0.225,0.1,0.316,0.244,0.273,0.433
		c-0.007,0.081,0.106,0.082,0.131,0.018C11.981,25.371,11.789,25.122,11.502,25.075z"/>
	<path style="fill:#1D1D1B;" d="M13.744,25.744c-0.118-0.117-0.237-0.234-0.355-0.351c0.063-0.059-0.023-0.175-0.094-0.121
		c-0.567,0.433,0.196,1.138,0.565,0.562C13.906,25.761,13.804,25.688,13.744,25.744z"/>
	<path style="fill:#1D1D1B;" d="M12.841,28.865c0.033,0.09,0.17,0.056,0.146-0.04l0.534-0.035c0.01,0.086,0.115,0.101,0.148,0.02
		C13.968,28.08,12.526,27.997,12.841,28.865z"/>
	<path style="fill:#1D1D1B;" d="M17.557,18.489c-0.296-0.453-1.093-0.36-1.55-0.378c-0.658-0.026-1.556-0.186-2.149,0.185
		c-0.474,0.296-0.584,0.871-0.693,1.383c-0.184,0.865-0.246,1.746-0.188,2.628c0.004,0.065,0.039,0.106,0.082,0.133
		c-0.024,0.063,0.002,0.145,0.091,0.148c0.993,0.035,1.989,0.091,2.983,0.064c0.453-0.013,0.898-0.04,1.212-0.41
		c0.378-0.446,0.34-1.113,0.343-1.657C17.691,19.997,17.897,19.008,17.557,18.489z M17.287,20.737c0,0.761-0.052,1.321-0.923,1.534
		c-0.462,0.113-1.081,0.009-1.557,0.025c-0.5,0.017-1,0.044-1.5,0.068c0.007-0.019,0.023-0.031,0.022-0.056
		c-0.025-0.931-0.094-2.222,0.344-3.076c0.371-0.723,1.129-0.754,1.829-0.741c0.271,0.005,0.58-0.029,0.842,0.03
		c0.223-0.018,0.408,0.075,0.555,0.28c0.341,0.081,0.47,0.272,0.386,0.574C17.361,19.801,17.288,20.303,17.287,20.737z"/>
	<path style="fill:#1D1D1B;" d="M15.963,19.71c-0.446-0.415-1.094-0.136-1.523,0.155c-0.123,0.084-0.088,0.23,0.003,0.296
		c-0.208,0.295-0.134,0.691,0.128,0.938c0.371,0.35,0.947,0.246,1.398,0.159c0.059-0.011,0.103-0.066,0.12-0.12
		C16.229,20.686,16.36,20.079,15.963,19.71z M15.839,20.728c-0.05,0.27-0.193,0.27-0.468,0.28c-0.36,0.013-1.06-0.235-0.741-0.767
		c0.017-0.029,0.02-0.056,0.013-0.079c0.206-0.12,0.506-0.339,0.745-0.306C15.876,19.924,15.911,20.343,15.839,20.728z"/>
	<path style="fill:#1D1D1B;" d="M14.291,22.051c-0.345,0.051-0.739-0.29-0.541-0.677c0.033-0.064-0.059-0.119-0.097-0.057
		c-0.268,0.441,0.161,1.101,0.682,0.893C14.434,22.17,14.396,22.035,14.291,22.051z"/>
	<path style="fill:#1D1D1B;" d="M14.583,21.77c-0.036,0.049,0.041,0.104,0.083,0.064c0.125,0.051,0.249,0.103,0.374,0.154
		c0.021,0.068,0.129,0.076,0.146,0C15.266,21.633,14.776,21.508,14.583,21.77z"/>
	<path style="fill:#1D1D1B;" d="M16.544,19.083c-0.112-0.033-0.223-0.066-0.335-0.099c0.02-0.106-0.119-0.141-0.159-0.044
		c-0.227,0.551,0.544,0.821,0.69,0.226C16.768,19.049,16.606,18.976,16.544,19.083z"/>
	<path style="fill:#1D1D1B;" d="M16.212,32.868c-0.305-0.525-0.886-0.662-1.451-0.728c-1.317-0.155-2.692-0.044-3.993,0.183
		c-0.045,0.008-0.069,0.038-0.094,0.066c-0.07-0.092-0.231-0.066-0.249,0.079c-0.165,1.364-0.177,2.753-0.207,4.126
		c-0.015,0.71-0.101,1.543,0.558,2.008c0.731,0.516,1.997,0.295,2.802,0.256c0.728-0.035,1.617-0.024,2.162-0.597
		c0.535-0.562,0.511-1.503,0.563-2.22C16.368,35.164,16.69,33.69,16.212,32.868z M15.902,35.056c-0.03,0.629,0.075,1.82-0.229,2.366
		c-0.543,0.976-1.623,0.951-2.568,0.98c-0.291,0.009-0.815,0.094-1.113,0.013c-0.472-0.129-1.206-1.117-1.291-1.591
		c-0.233-1.287,0.058-2.776,0.011-4.114c0.032,0.022,0.067,0.044,0.115,0.038c0.704-0.09,1.408-0.171,2.116-0.2
		c0.608-0.025,1.722-0.2,2.252,0.096C16.145,33.174,15.944,34.172,15.902,35.056z"/>
	<path style="fill:#1D1D1B;" d="M15.25,33.508c-0.179-0.415-0.474-0.491-0.896-0.54c-0.883-0.102-1.88-0.071-2.753,0.082
		c-0.177,0.031-0.123,0.292,0.041,0.3c0.911,0.047,2.962-0.473,3.366,0.633c0.132,0.363-0.031,1.101-0.043,1.473
		c-0.012,0.394,0.122,1.415-0.093,1.729c-0.37,0.539-1.219,0.447-1.777,0.45c-0.69,0.003-1.308,0.088-1.566-0.698
		c-0.151-0.461-0.063-1.157-0.068-1.646c-0.005-0.61,0.014-1.219,0.029-1.828c0.003-0.118-0.194-0.15-0.211-0.028
		c-0.128,0.92-0.163,1.844-0.125,2.772c0.018,0.43-0.073,1.285,0.336,1.617c0.44,0.356,1.409,0.154,1.932,0.153
		c0.549,0,1.274,0.127,1.644-0.388c0.33-0.46,0.214-1.248,0.228-1.774C15.313,35.123,15.531,34.161,15.25,33.508z"/>
	<path style="fill:#1D1D1B;" d="M14.22,34.181c0.045-0.087-0.062-0.171-0.135-0.104c-0.056,0.057-0.117,0.108-0.183,0.153
		c-0.139,0.151-0.25,0.074-0.335-0.229c0.015-0.086-0.102-0.12-0.132-0.036c-0.065,0.185-0.035,0.342,0.052,0.491
		c-0.324,0.084-0.654,0.162-0.947,0.32c-0.128,0.069-0.093,0.271,0.034,0.311c-0.139,0.55-0.161,1.294,0.505,1.419
		c0.401,0.075,0.774-0.207,0.931-0.564c0.2-0.456,0.041-0.955-0.104-1.401c-0.004-0.012-0.017-0.018-0.023-0.029
		C14.02,34.435,14.138,34.339,14.22,34.181z M12.93,36.06c-0.242-0.203-0.221-0.653-0.171-0.987c0.287-0.048,0.565-0.14,0.841-0.237
		c0.062,0.181,0.119,0.365,0.127,0.553C13.742,35.741,13.444,36.49,12.93,36.06z"/>
	<path style="fill:#1D1D1B;" d="M12.367,33.743c-0.308,0.042-0.294,0.446-0.067,0.573c0.076,0.043,0.164-0.062,0.096-0.124
		l0.08-0.014c-0.047,0.073,0.064,0.161,0.121,0.094C12.761,34.079,12.675,33.701,12.367,33.743z"/>
	<path style="fill:#1D1D1B;" d="M13.426,37.301c0.011,0.099,0.158,0.104,0.158,0c0.11-0.03,0.221-0.06,0.331-0.09
		c0.069,0.061,0.203,0.004,0.168-0.097C13.955,36.746,13.387,36.934,13.426,37.301z"/>
	<path style="fill:#1D1D1B;" d="M38.528,13.882c0.06-0.116,0.01-0.261-0.121-0.298c-0.886-0.25-1.808-0.613-2.721-0.736
		c-0.013-0.002-0.024,0.007-0.037,0.008c0.228-1.81-0.454-3.841-1.699-5.17c-1.007-1.075-2.763-1.753-4.036-0.672
		c-0.683,0.58-0.924,1.291-0.872,2.04c-0.043-0.032-0.106-0.041-0.149,0.006c-1.381,1.505-0.095,3.062,1.061,4.164
		c0.633,0.603,0.856,1.293,1.101,2.106c0.104,0.347,0.122,0.649,0.412,0.909c0.379,0.339,0.776,0.333,1.138,0.015
		c0.023-0.02,0.032-0.047,0.036-0.074c0.11,0.048,0.236,0.066,0.373,0.039c0.123-0.024,0.125-0.228,0-0.251
		c-0.325-0.06-0.642-0.214-0.58-0.627c0.02-0.135-0.177-0.198-0.21-0.058c-0.061,0.26,0.022,0.539,0.192,0.728
		c-0.349,0.004-0.942-1.278-1.032-1.521c-0.05-0.135-0.033-0.3-0.081-0.437c-0.113-0.316-0.247-0.461-0.481-0.694
		c-1.131-1.127-3.105-2.276-1.762-4.141c0.288,2.293,3.244,4.878,5.045,5.159c0.004,0.001,0.007-0.003,0.011-0.002
		c-0.266,0.655-0.456,1.332-0.549,2.034c-0.037,0.275-0.093,0.64-0.007,0.936c-0.099-0.004-0.199-0.003-0.307-0.02
		c-0.289-0.046-0.94-0.394-0.582-0.824c0.051-0.062-0.032-0.149-0.09-0.09c-0.731,0.764,0.439,1.523,1.203,1.273
		c0.01,0.007,0.011,0.019,0.022,0.025c0.172,0.111,0.383,0.123,0.581,0.073c-0.009,0.033-0.006,0.067,0.028,0.094
		c0.907,0.706,1.822-0.06,2.444-0.759c0.468-0.526,1.711-1.339,1.392-2.188c0.018-0.08,0.003-0.165-0.074-0.214
		c-0.026-0.017-0.053-0.033-0.079-0.05c-0.015-0.01-0.028-0.024-0.044-0.028c-0.061-0.038-0.122-0.077-0.183-0.115
		C38.149,14.391,38.374,14.178,38.528,13.882z M32.068,7.057c0.2,0.062,0.398,0.15,0.589,0.264c-0.723,0.048-1.385,0.642-1.71,1.287
		c-0.002-0.02-0.004-0.04-0.021-0.059c-0.362-0.413-0.031-0.91,0.353-1.125c0.248-0.138,0.527-0.199,0.77-0.346
		C32.059,7.073,32.061,7.064,32.068,7.057z M33.985,16.688c0.007-0.149,0.018-0.297,0.033-0.445
		c0.067-0.653,0.223-1.281,0.419-1.906c0.031-0.098-0.056-0.17-0.142-0.179c-0.014-0.043-0.042-0.082-0.104-0.098
		c-2.092-0.558-5.761-4.15-4.073-6.34c0.426-0.552,0.916-0.759,1.413-0.75c-0.729,0.267-1.432,1.054-0.742,1.718
		c0.04,0.039,0.085,0.031,0.119,0.007c-0.035,0.076-0.068,0.153-0.092,0.229c-0.042,0.131,0.162,0.221,0.225,0.095
		c0.18-0.363,0.41-0.684,0.736-0.929c0.334-0.251,0.701-0.331,1.082-0.472c0.053-0.02,0.079-0.059,0.094-0.102
		c0.495,0.361,0.936,0.85,1.249,1.328c-0.525-0.049-1.125,0.317-1.482,0.65c-0.464,0.433-0.761,1.018-0.816,1.65
		c-0.01,0.12,0.186,0.147,0.211,0.028c0.118-0.572,0.385-1.069,0.834-1.45c0.436-0.37,0.92-0.405,1.409-0.62
		c0.236,0.417,0.402,0.838,0.523,1.266c-1.041,0.032-1.899,1.326-1.928,2.259c-0.003,0.093,0.14,0.112,0.162,0.022
		c0.128-0.508,0.345-0.962,0.72-1.335c0.337-0.335,0.73-0.445,1.127-0.647c0.051,0.214,0.094,0.429,0.129,0.647
		c-0.793-0.057-1.622,0.582-1.896,1.287c-0.045,0.117,0.13,0.175,0.193,0.081c0.235-0.349,0.505-0.643,0.888-0.831
		c0.28-0.137,0.568-0.168,0.865-0.206c0.054,0.421,0.094,0.848,0.122,1.293c0.008,0.128,0.142,0.194,0.248,0.173
		c0.014,0.015,0.018,0.033,0.043,0.044c0.772,0.342,1.647,0.525,2.473,0.745c-0.173,0.206-0.401,0.321-0.694,0.361
		c-0.185,0.025-0.182,0.289-0.049,0.372c0.141,0.088,0.283,0.174,0.424,0.261c-0.225,0.121-0.467,0.156-0.732,0.123
		c-0.064-0.069-0.139-0.134-0.24-0.19c-0.183-0.101-0.403,0.154-0.232,0.301c0.319,0.209,0.169,0.441-0.45,0.698
		c-0.216-0.176-0.481,0.088-0.305,0.305c-0.368,0.302-0.614,0.277-0.739-0.074c-0.107-0.184-0.463-0.121-0.432,0.117
		c0.028,0.216,0.14,0.791-0.047,0.948C34.086,17.154,33.904,17.008,33.985,16.688z M37.89,15.178
		c-0.092,0.625-0.769,0.988-1.196,1.45c-0.528,0.571-1.209,1.568-2.112,1.083c0.094-0.047,0.181-0.105,0.25-0.179
		c0.194-0.206,0.256-0.467,0.264-0.736c0.234,0.148,0.507,0.204,0.781,0.039c0.2-0.12,0.306-0.306,0.327-0.503
		c0.604,0.094,1.104-0.514,0.942-1.035C37.402,15.326,37.648,15.271,37.89,15.178z"/>
	<path style="fill:#1D1D1B;" d="M33.484,8.3c-0.585-0.077-1.2,0.422-1.526,0.862c-0.366,0.495-0.511,1.069-0.407,1.674
		c0.021,0.121,0.219,0.093,0.214-0.029c-0.022-0.559,0.168-1.102,0.551-1.513c0.364-0.392,0.792-0.473,1.256-0.672
		C33.749,8.545,33.627,8.319,33.484,8.3z"/>
	<path style="fill:#1D1D1B;" d="M25.819,11.364c-1.197,0.082-2.083,1.332-2.225,2.431c-0.018,0.141,0.22,0.172,0.249,0.034
		c0.114-0.544,0.359-1.034,0.747-1.435c0.378-0.39,0.815-0.572,1.29-0.807C25.984,11.535,25.936,11.356,25.819,11.364z"/>
	<path style="fill:#1D1D1B;" d="M24.822,10.737c-1.416-0.004-2.106,1.833-1.62,2.967c0.042,0.099,0.206,0.028,0.174-0.073
		c-0.399-1.253,0.426-2.217,1.495-2.713C24.961,10.875,24.912,10.737,24.822,10.737z"/>
	<path style="fill:#1D1D1B;" d="M31.687,18.767c0.279-0.3,0.187-0.703-0.058-0.99c-0.542-0.635-2.073-1.302-2.913-0.819
		c-0.358-2.143-0.977-5.113-2.851-6.428c-1.174-0.824-2.853-0.981-3.853,0.2c-2.766,3.264,2.565,7.576,5.546,7.934
		c-0.148,0.707-0.379,2.313,0.4,2.718c0.284,0.148,0.606,0.054,0.812-0.182c0.193-0.222,0.222-0.49,0.189-0.759
		c0.371,0.165,0.789,0.257,1.115-0.038c0.183-0.165,0.252-0.378,0.226-0.587c0.327,0.023,0.672-0.065,0.801-0.402
		c0.062-0.161,0.047-0.326-0.016-0.466c0.083,0.027,0.173,0.017,0.26,0c0.202,1.028-1.072,1.768-1.756,2.392
		c-0.825,0.753-2.081,0.617-2.65-0.296c0.021-0.071-0.003-0.161-0.086-0.189c0,0-0.001,0-0.001-0.001
		c-0.036-0.076-0.08-0.146-0.107-0.231c-0.049-0.154-0.274-0.091-0.241,0.066c0.001,0.007,0.005,0.013,0.007,0.02
		c-0.372-0.19-0.637-0.469-0.719-0.941c-0.014-0.078-0.1-0.132-0.174-0.133c-0.659-0.01-1.547-0.006-1.713-0.804
		c0.013,0.01,0.024,0.023,0.037,0.033c0.081,0.062,0.216-0.005,0.193-0.099c0.089,0.083,0.199,0.144,0.346,0.134
		c0.137-0.009,0.183-0.217,0.034-0.252c-0.233-0.025-0.331-0.182-0.293-0.469c0.055-0.118-0.104-0.215-0.176-0.103
		c-0.1,0.156-0.101,0.34-0.044,0.497c-1.048-1.324-2.523-2.804-2.762-4.531c-0.012-0.089-0.158-0.067-0.155,0.021
		c0.023,0.924,0.53,1.734,0.995,2.509c0.45,0.75,0.996,1.534,1.667,2.118c-0.051,0.014-0.098,0.051-0.099,0.111
		c-0.023,1.019,1.027,1.244,1.852,1.202c0.189,0.535,0.585,0.968,1.143,1.088c0.453,0.973,1.683,1.492,2.688,0.942
		c0.316-0.173,0.554-0.444,0.816-0.686c0.408-0.378,0.924-0.668,1.272-1.108c0.344-0.437,0.482-0.974,0.264-1.468
		C31.682,18.769,31.685,18.769,31.687,18.767z M27.062,12.886c0.113,0.258,0.222,0.518,0.312,0.785
		c-0.018-0.012-0.036-0.024-0.064-0.025c-0.996-0.039-1.921,0.825-2.347,1.674c-0.023-0.567,0.169-1.122,0.546-1.553
		c0.423-0.484,0.921-0.621,1.503-0.811C27.043,12.946,27.051,12.914,27.062,12.886z M31.02,18.646
		c-0.069-0.068-0.15-0.021-0.174,0.049c-0.05-0.029-0.099-0.06-0.159-0.073c-0.187-0.039-0.267,0.241-0.079,0.288
		c-0.073,0.47-0.251,0.639-0.535,0.506c-0.182-0.053-0.283,0.169-0.173,0.298c-0.203,0.477-0.452,0.613-0.748,0.407
		c-0.131-0.052-0.253-0.12-0.367-0.203c-0.117-0.074-0.305,0.021-0.291,0.167c0.011,0.094,0.019,0.188,0.024,0.281
		c0.045,0.237-0.123,0.35-0.503,0.339c-0.081-0.087-0.111-0.475-0.13-0.578c-0.088-0.491-0.109-0.988-0.105-1.486
		c0-0.009-0.007-0.014-0.009-0.022c0.056-0.082,0.043-0.221-0.075-0.247c-2.506-0.54-7.043-3.744-5.638-6.779
		c1.219-2.633,4.065-0.698,4.91,1.054c0.017,0.035,0.027,0.073,0.043,0.109c-1.444-0.31-2.477,1.547-2.183,2.757
		c0.011,0.044,0.053,0.05,0.089,0.038c0.047,0.083,0.167,0.12,0.225,0.011c0.232-0.438,0.545-0.827,0.953-1.114
		c0.384-0.271,0.82-0.389,1.247-0.568c0.044-0.019,0.065-0.056,0.074-0.094c0.118,0.36,0.221,0.726,0.32,1.093
		c-1.079,0.027-1.679,1.39-1.44,2.312c0.038,0.147,0.248,0.083,0.224-0.062c-0.17-0.998,0.484-1.615,1.275-2.037
		c0.069,0.262,0.138,0.525,0.21,0.786c-0.707,0.057-1.294,0.762-1.485,1.393c-0.047,0.155,0.18,0.209,0.237,0.065
		c0.266-0.669,0.743-0.902,1.327-1.176c0.105,0.366,0.218,0.728,0.354,1.082c0.002,0.005,0.007,0.006,0.009,0.011
		c0.011,0.098,0.089,0.189,0.2,0.147c0.547-0.206,0.98-0.23,1.538-0.026c0.245,0.089,0.493,0.198,0.72,0.329
		c0.145,0.075,0.279,0.167,0.402,0.275c0.091,0.251,0.116,0.42,0.1,0.54c-0.08,0.018-0.137,0.078-0.116,0.168
		C31.225,18.701,31.139,18.695,31.02,18.646z"/>
	<path style="fill:#1D1D1B;" d="M30.887,32.931c-0.097-0.185-0.247-0.296-0.418-0.345c-0.006-0.248-0.06-0.486-0.193-0.683
		c-0.027-0.04-0.069-0.054-0.111-0.056c0-0.002,0-0.004,0-0.007c-0.095-0.564-0.483-0.942-0.901-1.3
		c-0.618-0.53-1.262-1.036-1.912-1.529c0.043-0.638-0.338-1.226-0.93-1.534c-0.149-0.078-0.276,0.024-0.316,0.147
		c-0.02-0.007-0.039-0.023-0.059-0.011c0.042-0.055,0.067-0.127,0.037-0.195c-0.495-1.13-1.941-3.09-3.216-3.392
		c-0.432-0.102-0.68,0.013-1.03,0.25c-0.847,0.576-1.564,1.54-2.28,2.27c-0.047,0.048-0.048,0.104-0.025,0.149
		c-0.323,0.471-0.3,0.998-0.086,1.486c-0.02-0.001-0.041,0.004-0.06,0.02c-0.427,0.358-0.567,0.979-0.244,1.458
		c0.129,0.191,0.354,0.349,0.598,0.431c0.058,0.245,0.199,0.462,0.408,0.58c-0.279,0.795,0.719,1.413,1.229,0.927
		c-0.1,0.331-0.035,0.694,0.265,0.914c0.269,0.197,0.663,0.203,0.916,0c-0.007,0.439,0.347,0.939,0.814,0.733
		c0.027-0.012,0.034-0.042,0.04-0.071c0.002,0.001,0.003,0.004,0.004,0.005c0.004,0.006,0.002,0.014,0.009,0.02
		c0.369,0.343,0.751,0.514,1.225,0.559c-0.016,0.009-0.034,0.014-0.047,0.032c-0.138,0.196-0.169,0.435-0.05,0.654
		c0.202,0.375,0.695,0.28,0.95,0.604c0.268,0.341,0.601,1.315,1.2,0.805c0.004-0.004,0.004-0.01,0.008-0.014
		c0.598,0.374,1.318,0.722,2.009,0.36c0.254-0.133,0.4-0.321,0.55-0.555c0.079-0.123,0.048-0.203,0.159-0.292
		c0.196-0.157,0.653-0.158,0.896-0.205c0.078-0.015,0.13-0.099,0.132-0.173C30.476,34.301,31.245,33.616,30.887,32.931z
		 M28.793,34.049c0.439-0.316,0.89-0.706,1.156-1.174c0.019,0.029,0.043,0.046,0.077,0.056c-0.023,0.288-0.088,0.573-0.27,0.882
		c-0.228,0.388-0.536,0.663-0.897,0.865C28.899,34.47,28.872,34.254,28.793,34.049z M27.264,29.422
		c0.651,0.531,1.359,1.017,1.952,1.604c1.062,1.052,0.346,2.045-0.523,2.809c-0.081-0.147-0.18-0.286-0.286-0.406
		c-0.782-0.882-1.785-1.694-2.705-2.445c0.151-0.158,0.316-0.311,0.507-0.453c0.385-0.288,0.826-0.557,1.026-1.019
		C27.249,29.482,27.253,29.452,27.264,29.422z M28.399,34.053c-0.313,0.813-0.661,1.017-1.043,0.613
		c-0.164-0.122-0.326-0.247-0.486-0.374c-0.188-0.146-0.375-0.293-0.563-0.438c-0.441-0.341-0.897-0.66-1.352-0.981
		c-0.028-0.6,0.148-1.128,0.495-1.593c0.472,0.449,0.964,0.877,1.451,1.308C27.28,32.922,28.243,33.527,28.399,34.053z
		 M21.178,25.437c0.204-0.19,0.452-0.541,0.7-0.666c0.76-0.382,1.198-0.205,1.783,0.308c0.854,0.75,1.453,1.669,2.15,2.551
		c0.044,0.056,0.095,0.06,0.143,0.047c-0.803,0.585-1.763,1.336-2.407,2.212c-0.363-0.615-0.922-1.167-1.414-1.639
		c-0.67-0.642-1.414-1.192-2.208-1.671C20.343,26.199,20.764,25.822,21.178,25.437z M22.746,32.337
		c0.005-0.026-0.002-0.047-0.014-0.064c-0.007-0.067-0.067-0.129-0.141-0.102c-0.169,0.062-0.337,0.154-0.524,0.135
		c-0.42-0.042-0.56-0.437-0.446-0.784c0.024-0.074-0.044-0.127-0.109-0.128c0.015-0.028,0.037-0.044,0.05-0.077
		c0.038-0.094-0.094-0.194-0.176-0.135c-0.174,0.128-0.319,0.241-0.547,0.232c-0.382-0.015-0.549-0.338-0.496-0.677
		c0.046,0.009,0.088,0.027,0.139,0.027c0.123-0.001,0.158-0.159,0.06-0.223c-0.194-0.128-0.363-0.247-0.479-0.404
		c0.161,0.001,0.317-0.027,0.447-0.126c0.07-0.054,0.058-0.188-0.05-0.183c-0.182,0.007-0.356,0.021-0.521,0.004
		c-0.011-0.061-0.028-0.116-0.026-0.189c0.003-0.105-0.164-0.131-0.187-0.025c-0.01,0.05-0.014,0.102-0.017,0.155
		c-0.107-0.042-0.21-0.102-0.305-0.213c-0.318-0.373-0.227-0.906,0.098-1.239c0.003-0.003,0.002-0.007,0.004-0.01
		c0.072,0.141,0.157,0.278,0.256,0.408c0.81,1.057,2.024,2.119,3.087,2.953c-0.022,0.494,0.1,0.982,0.416,1.341
		C22.973,32.892,22.671,32.765,22.746,32.337z M22.99,30.896c-0.04,0.112-0.056,0.234-0.082,0.353
		c-0.609-0.635-1.28-1.222-1.92-1.822c-0.752-0.704-1.662-1.507-1.312-2.617c0.007,0.011,0.009,0.024,0.023,0.032
		c0.783,0.478,1.514,1.028,2.172,1.669c0.538,0.524,0.951,1.166,1.46,1.707C23.195,30.438,23.073,30.663,22.99,30.896z
		 M24.325,32.613c0.065,0.06,0.135,0.116,0.2,0.175c0.015,0.138,0.103,0.45,0.069,0.529c-0.128,0.299-0.46,0.141-0.742-0.051
		c0.031-0.061,0.036-0.139-0.015-0.204c-1.597-2.053,1.137-3.792,2.281-5.287c0.018,0.034,0.031,0.07,0.075,0.093
		c1.156,0.593,0.522,1.741-0.204,2.29c-0.105,0.079-0.219,0.147-0.32,0.231c-0.391,0.323-0.691,0.644-0.903,1.113
		c-0.152,0.335-0.219,0.701-0.231,1.067c-0.038-0.026-0.074-0.056-0.113-0.082C24.347,32.435,24.257,32.551,24.325,32.613z
		 M30.285,34.193c-0.05,0.118-0.086,0.269-0.144,0.381c-0.2,0.384-0.561,0.352-1,0.438c-0.081,0.016-0.126,0.098-0.131,0.173
		c-0.211,0.258-0.422,0.516-0.633,0.774c-0.22,0.063-0.437,0.066-0.654,0.009c-0.337-0.049-0.609-0.16-0.925-0.303
		c-0.037-0.017-0.069-0.007-0.095,0.01c-0.023-0.027-0.052-0.047-0.09-0.043c-0.557,0.052-0.599-0.567-0.873-0.891
		c-0.076-0.089-0.159-0.162-0.266-0.213c-0.233-0.111-0.936-0.039-0.671-0.622c0.026-0.058,0.005-0.107-0.031-0.137
		c0.038,0.002,0.072,0.009,0.111,0.01c0.119,0.001,0.209-0.118,0.177-0.233c-0.034-0.121-0.053-0.237-0.072-0.353
		c0.71,0.623,1.438,1.232,2.194,1.792c0.461,0.341,1.084,0.638,1.513,0.077c0.004-0.006,0.006-0.012,0.01-0.018
		c0.535-0.15,1.005-0.525,1.314-0.987c0.2-0.3,0.375-0.722,0.433-1.143C30.864,33.05,30.318,34.116,30.285,34.193z"/>
	<path style="fill:#1D1D1B;" d="M27.903,42.203c0.165-0.461,0.169-0.938-0.12-1.321c-0.051-0.068-0.14-0.062-0.187-0.013
		c-0.084-1.225-1.706-2.097-2.911-2.255c0.015-0.031,0.02-0.065,0.01-0.098c0.182-0.418-0.066-1.013-0.431-1.25
		c-0.192-0.125-0.402-0.162-0.607-0.141c-0.002-0.032,0.004-0.062-0.021-0.096c-0.605-0.81-1.267-2.147-2.273-2.535
		c-0.936-0.361-1.845,0.245-2.503,0.865c-0.435,0.41-0.886,0.854-0.821,1.39c-0.005,0.008-0.014,0.01-0.018,0.021
		c-0.527,1.459,0.356,3.717,2.08,3.894c0.021,0.212,0.067,0.433,0.153,0.666c0.21,0.569,0.644,1.335,1.195,1.823
		c-0.031-0.009-0.063-0.01-0.09,0.007c-0.175,0.111-0.375,0.277-0.604,0.218c-0.305-0.078-0.404-0.438-0.323-0.701
		c0.004-0.014-0.002-0.024-0.004-0.036c0.067,0.027,0.131,0.062,0.205,0.073c0.097,0.015,0.166-0.111,0.07-0.167
		c-0.203-0.12-0.392-0.22-0.566-0.351c0.025-0.096-0.069-0.17-0.16-0.137c-0.042-0.041-0.085-0.079-0.125-0.127
		c-0.063-0.076-0.196,0.025-0.138,0.107c0.031,0.044,0.067,0.085,0.101,0.128c-0.194,0.141-0.393,0.201-0.631,0.143
		c-0.019-0.32-0.037-0.64-0.057-0.96c-0.005-0.083-0.052-0.145-0.131-0.171c-0.597-0.202-0.86-0.931-0.583-1.484
		c0.066-0.133-0.113-0.235-0.197-0.115c-0.479,0.675-0.155,1.57,0.566,1.887c0.03,0.324,0.061,0.648,0.091,0.971
		c0.007,0.074,0.045,0.129,0.117,0.153c0.365,0.125,0.755,0.052,1.013-0.219c0.086,0.083,0.18,0.157,0.282,0.216
		c-0.007,0.007-0.016,0.008-0.021,0.019c-0.372,0.867,0.914,1.571,1.275,0.692c0.01-0.025,0.009-0.049,0.001-0.07
		c0.556,0.45,1.218,0.605,1.887,0.002c0.135-0.121,0.001-0.328-0.152-0.313c0.069-0.086,0.067-0.237-0.072-0.283
		c-0.546-0.181-0.798-0.629-0.84-1.125c1.026,0.821,2.113,1.584,3.206,2.301c0.503,0.33,0.738,0.252,0.868-0.02
		c0.463-0.182,0.939-0.622,1.248-1.134c0.028,0.303-0.19,0.542-0.491,0.901c-0.021,0.025-0.061,0.036-0.085,0.065
		c-0.289,0.362-0.501,0.684-0.943,0.899c-0.529,0.258-1.696,0.5-1.897-0.418c-0.024-0.112-0.155-0.146-0.246-0.1
		c-0.459,0.207-0.853,0.133-1.184-0.222c-0.044-0.045-0.115,0.012-0.086,0.066c0.274,0.506,0.733,0.649,1.236,0.502
		c0.402,1.413,2.444,0.509,3.109-0.208c0.314-0.339,0.784-0.569,0.931-1.038C28.127,42.795,28.081,42.452,27.903,42.203z
		 M26.289,39.564c0.376,0.244,0.768,0.626,0.888,1.076c0.105,0.393,0.014,1.142-0.43,1.326c-0.88,0.365-1.722-0.424-2.381-0.894
		c-0.499-0.356-1.001-0.707-1.505-1.056c0.442-0.515,1.031-0.811,1.569-1.197C25.057,39.051,25.719,39.194,26.289,39.564z
		 M18.681,36.131c0.101-0.22,0.417-0.446,0.593-0.598c0.919-0.791,1.915-0.94,2.759,0.039c0.449,0.521,0.839,1.111,1.25,1.662
		c-0.091,0.045-0.178,0.1-0.257,0.167c-0.036-0.007-0.072-0.014-0.112,0.004c-0.673,0.3-1.383,0.694-1.925,1.198
		c-0.533-0.232-1.033-0.505-1.507-0.847C18.952,37.375,18.286,36.998,18.681,36.131z M20.093,40.31
		c-0.615-0.309-1.141-0.587-1.523-1.225c-0.353-0.589-0.486-1.275-0.393-1.947c0.016,0.027,0.023,0.052,0.041,0.08
		c0.549,0.815,1.639,1.293,2.585,1.572C20.401,39.219,20.13,39.723,20.093,40.31z M21.831,41.098c0.032,0.027,0.068,0.051,0.1,0.078
		c-0.029,0.79,0.38,1.552,1.178,1.798c0.007,0.002,0.01-0.003,0.017-0.002c-1.451,0.906-2.712-1.674-2.561-2.795
		c0.178-1.322,1.476-1.926,2.533-2.455c0.076-0.038,0.089-0.101,0.08-0.162c0.298-0.175,0.675-0.174,0.943,0.094
		c0.264,0.264,0.214,0.52,0.184,0.82c-1.005,0.383-2.105,1.271-2.33,2.333c-0.012,0.057-0.015,0.114-0.022,0.172
		c-0.007-0.004-0.013-0.008-0.02-0.012C21.852,40.921,21.755,41.034,21.831,41.098z M27.203,42.775
		c-0.186,0.227-0.432,0.408-0.651,0.607c0.036-0.209,0.062-0.447,0.097-0.691c0.028-0.198-0.264-0.291-0.309-0.085
		c-0.044,0.202-0.053,0.474-0.136,0.662c-0.133,0.305-0.034,0.405-0.441,0.208c-0.454-0.219-0.892-0.619-1.306-0.903
		c-0.683-0.468-1.379-0.926-2.093-1.347c0.024-0.372,0.157-0.74,0.358-1.033c1.066,0.898,3.675,3.482,4.675,1.552
		c0.112-0.217,0.173-0.426,0.194-0.627c0.059,0.295,0.066,0.568,0.014,0.83c-0.004-0.002-0.006-0.005-0.01-0.007
		c-0.135-0.059-0.244,0.083-0.153,0.199c0.028,0.036,0.045,0.067,0.068,0.101C27.44,42.422,27.347,42.599,27.203,42.775z"/>
	<path style="fill:#1D1D1B;" d="M44.704,28.333c-0.184-0.421-0.616-0.568-1.028-0.515c0.143-0.347,0.137-0.747-0.107-1.073
		c-0.246-0.329-0.761-0.529-1.172-0.42c-0.289-0.489-0.589-0.924-0.845-1.261c-1.302-1.717-3.61-3.507-5.866-2.389
		c-1.285,0.637-1.847,2.236-1.175,3.423c-0.009,0.001-0.017-0.005-0.026-0.001c-0.566,0.2-0.79,0.962-0.421,1.447
		c0.295,0.387,0.812,0.421,1.198,0.197c0.037,0.139,0.093,0.274,0.189,0.389c0.391,0.468,1.045,0.461,1.579,0.24
		c-0.019,0.733,0.69,1.33,1.405,1.063c-0.035,0.385,0.127,0.774,0.494,0.963c0.374,0.192,0.911,0.108,1.144-0.256
		c0.038,0.021,0.083,0.024,0.125,0.037c-0.031,0.355-0.101,0.846-0.006,1.115c0.05,0.141,0.209,0.216,0.347,0.261
		c0.298,0.096,0.601,0.022,0.831-0.156c0.077,0.318,0.354,0.576,0.712,0.612c0.504,0.052,0.931-0.359,1.095-0.814
		c0.908,0.222,1.613-0.988,0.864-1.56C44.571,29.463,44.949,28.893,44.704,28.333z M43.242,26.866
		c0.306,0.313,0.206,0.779-0.06,1.076c-0.162-0.434-0.364-0.862-0.584-1.263C42.822,26.644,43.038,26.657,43.242,26.866z
		 M35.222,27.538c-0.354,0.145-0.81,0.06-0.951-0.339c-0.123-0.348,0.083-0.672,0.342-0.885c0.008-0.007,0.007-0.017,0.013-0.024
		c0.108,0.152,0.232,0.298,0.387,0.43c0.123,0.103,0.263,0.176,0.398,0.257C35.272,27.134,35.213,27.335,35.222,27.538z
		 M42.781,31.302c-0.033,0.042-0.063,0.089-0.101,0.126c-0.277,0.27-1.254,0.434-1.031-0.361c0.035-0.124-0.143-0.249-0.232-0.135
		c-0.189,0.243-0.754,0.556-0.926,0.123c-0.089-0.224-0.072-0.559-0.069-0.844c0.076-0.002,0.154-0.005,0.234-0.036
		c0.095-0.037,0.092-0.194-0.026-0.19c-0.077,0.003-0.149-0.013-0.22-0.028c-0.021-0.08-0.114-0.101-0.165-0.054
		c-0.234-0.105-0.404-0.309-0.401-0.61c0.001-0.111-0.181-0.143-0.2-0.027c-0.045,0.272,0.059,0.546,0.243,0.732
		c-0.219,0.138-0.429,0.253-0.71,0.155c-0.408-0.142-0.543-0.566-0.387-0.955c0.054-0.134-0.115-0.213-0.217-0.167
		c-0.68,0.305-1.343-0.13-1.254-0.808c0.019-0.012,0.041-0.022,0.059-0.034c0.177,0.104,0.359,0.2,0.553,0.266
		c0.101,0.035,0.193-0.115,0.108-0.185c-0.296-0.243-0.653-0.397-0.991-0.573c-0.142-0.074-0.265,0.133-0.126,0.215
		c0.047,0.028,0.093,0.056,0.14,0.085c-0.329,0.12-0.689,0.219-1.02,0.101c-0.395-0.141-0.591-0.611-0.418-0.985
		c0.67,0.335,1.447,0.477,2.153,0.68c1.863,0.536,3.302,1.577,4.62,2.979c0.054,0.058,0.153-0.017,0.111-0.085
		c-0.637-1.024-1.477-1.851-2.517-2.47c-1.248-0.742-2.744-0.778-3.986-1.457c-0.875-0.479-1.349-1.085-1.187-2.072
		c0.188-1.144,1.25-1.934,2.457-1.904c1.242,0.031,2.389,0.814,3.213,1.684c0.361,0.381,0.794,0.914,1.205,1.523
		c-0.026-0.011-0.054-0.016-0.087-0.002c-0.616,0.258-0.955,0.819-0.928,1.487c0.007,0.173,0.27,0.175,0.271,0
		c0.003-0.544,0.296-0.973,0.763-1.236c0.053-0.03,0.063-0.087,0.054-0.14c0.095,0.144,0.179,0.302,0.27,0.452
		c-0.068,0.099,0.008,0.227,0.128,0.215c0.236,0.413,0.455,0.837,0.618,1.27c-0.447,0.189-0.702,0.595-0.799,1.061
		c-0.038,0.182,0.235,0.261,0.281,0.078c0.098-0.391,0.317-0.624,0.602-0.875c0.336,1.018,0.392,2.028-0.159,2.803
		C42.648,31.185,42.704,31.268,42.781,31.302z M43.786,29.442c-0.069,0.011-0.093,0.077-0.083,0.137
		c-0.026,0.047-0.03,0.105,0.018,0.156c0.208,0.218,0.37,0.489,0.267,0.799c-0.11,0.332-0.429,0.479-0.751,0.424
		c-0.005-0.017-0.004-0.037-0.015-0.049c0.441-0.729,0.378-1.665,0.087-2.6c0.013-0.007,0.026-0.002,0.039-0.012
		c0.334-0.278,0.844-0.178,1.012,0.22C44.539,28.941,44.235,29.372,43.786,29.442z"/>
	<path style="fill:#1D1D1B;" d="M49.862,22.04c-0.422-0.508-1.298-0.558-1.669,0.023c-0.098,0.153,0.141,0.346,0.257,0.198
		c0.299-0.383,0.924-0.366,1.205,0.049c0.278,0.41,0.088,0.916-0.223,1.26c-0.024-0.015-0.043-0.04-0.069-0.051
		c0.037-0.124,0.052-0.256,0.018-0.396c-0.029-0.123-0.224-0.097-0.221,0.03c0.003,0.119-0.017,0.225-0.048,0.322
		c-0.055,0.002-0.11,0.005-0.168,0.024c-0.118,0.039-0.138,0.21-0.027,0.264c-0.078,0.063-0.17,0.114-0.293,0.139
		c-0.134,0.028-0.076,0.225,0.056,0.203c0.169-0.028,0.309-0.113,0.428-0.219c-0.013,0.084,0.071,0.176,0.166,0.12
		c0.015-0.009,0.029-0.022,0.045-0.032c0.231,0.196,0.333,0.502,0.14,0.825c-0.198,0.331-0.567,0.485-0.934,0.567
		c-0.291-1.45-0.575-3.061-1.165-4.486c0.182-0.036,0.345-0.04,0.538,0.073c0.253,0.15,0.396,0.415,0.366,0.706
		c-0.015,0.146,0.223,0.176,0.256,0.035c0.152-0.669-0.683-1.477-1.304-1.133c-0.357-0.78-0.811-1.498-1.433-2.083
		c-1.242-1.166-3.403-1.682-4.751-0.366c-0.78,0.761-0.97,1.87-0.557,2.777c-0.012,0.002-0.022-0.002-0.035,0.006
		c-1.027,0.611-0.237,1.996,0.772,1.669c0.24,0.558,0.858,0.896,1.446,0.745c0.086,0.069,0.176,0.131,0.269,0.188
		c-0.302,0.873,0.774,1.575,1.428,0.994c0.058,0.197,0.163,0.372,0.341,0.514c0.149,0.119,0.333,0.204,0.521,0.236
		c0.107,0.018,0.47-0.086,0.534-0.06c0.292,0.12,0.365,0.65,0.789,0.739c0.02,0.004,0.037,0,0.056,0.003
		c0.073,0.33,0.309,0.617,0.679,0.659c0.355,0.04,0.733-0.197,0.872-0.52c0.042,0.047,0.088,0.088,0.129,0.135
		c0.106,0.122,0.269-0.052,0.174-0.174c-0.001-0.001-0.002-0.002-0.002-0.003c0.1-0.023,0.186-0.112,0.159-0.243
		c-0.014-0.067-0.028-0.138-0.041-0.206c0.58-0.092,1.204-0.376,1.307-1.009c0.044-0.272-0.058-0.609-0.25-0.837
		C50.067,23.277,50.306,22.575,49.862,22.04z M47.49,26.284c-0.319,0.094-0.565-0.1-0.672-0.36c0.216-0.039,0.377-0.186,0.467-0.412
		c0.06-0.15-0.171-0.231-0.251-0.106c-0.093,0.145-0.185,0.208-0.275,0.24c0-0.046,0.001-0.091,0.01-0.136
		c0.022-0.11-0.137-0.156-0.17-0.047c-0.019,0.062-0.011,0.127-0.016,0.191c-0.298-0.084-0.544-0.585-0.625-0.754
		c-0.031-0.064-0.128-0.086-0.186-0.049c-0.519,0.334-1.25-0.038-1.18-0.684c0.014-0.132-0.167-0.186-0.25-0.104
		c-0.389,0.38-1.307,0.205-1.217-0.46c0.214,0.103,0.442,0.174,0.688,0.193c0.159,0.012,0.184-0.231,0.037-0.273
		c-0.232-0.066-0.442-0.146-0.645-0.241c-0.007-0.068-0.077-0.105-0.137-0.067c-0.041-0.022-0.086-0.038-0.126-0.062
		c0.039-0.111-0.059-0.264-0.196-0.221c-0.03,0.01-0.06,0.005-0.09,0.012c-0.026-0.023-0.054-0.039-0.08-0.063
		c-0.099-0.093-0.23,0-0.226,0.105c-0.397-0.017-0.749-0.253-0.861-0.686c-0.03-0.116-0.164-0.161-0.264-0.107
		c-0.772,0.417-1.379-0.606-0.693-1.13c0.011-0.008,0.012-0.02,0.019-0.03c0.138,0.256,0.317,0.497,0.558,0.7
		c0.94,0.796,2.343,1.011,3.423,1.541c1.281,0.629,2.399,1.508,3.374,2.539C47.835,26.02,47.731,26.214,47.49,26.284z
		 M48.053,25.558c-0.814-0.962-1.739-1.804-2.84-2.44c-1.113-0.644-3.811-1.047-4.292-2.32c-0.769-2.033,1.272-3.287,3.041-2.827
		c-0.96,0.281-1.621,1.358-1.41,2.364c0.027,0.128,0.212,0.071,0.193-0.053c-0.162-1.082,0.72-1.989,1.754-2.095
		c0.825,0.392,1.464,1.092,1.924,1.883c0.192,0.331,0.351,0.68,0.496,1.038c-0.678,0.466-0.948,1.42-0.887,2.201
		c0.011,0.136,0.216,0.14,0.215,0c-0.012-0.816,0.322-1.349,0.772-1.96c0.512,1.362,0.766,2.862,1.127,4.248
		C48.117,25.566,48.091,25.55,48.053,25.558z"/>
	<path style="fill:#1D1D1B;" d="M45.751,19.527c-0.877,0.394-1.363,1.35-1.386,2.28c-0.003,0.128,0.187,0.125,0.197,0
		c0.071-0.913,0.572-1.574,1.299-2.092C45.977,19.634,45.88,19.47,45.751,19.527z"/>
	<path style="fill:#1D1D1B;" d="M38.489,23.581c-0.96,0.09-1.638,0.951-1.546,1.902c0.011,0.118,0.18,0.122,0.186,0
		c0.041-0.821,0.61-1.479,1.385-1.712C38.615,23.741,38.602,23.57,38.489,23.581z"/>
	<path style="fill:#1D1D1B;" d="M40.149,24.336c-0.832,0.054-1.401,0.884-1.172,1.686c0.037,0.13,0.261,0.111,0.245-0.033
		c-0.073-0.659,0.324-1.224,0.96-1.404C40.316,24.547,40.296,24.327,40.149,24.336z"/>
	<path style="fill:#1D1D1B;" d="M42.507,41.242c0.321-1.702-2.122-3.592-3.404-4.297c-0.014-0.007-0.027-0.002-0.041-0.005
		c0.161-0.315,0.142-0.729-0.153-0.971c-0.355-0.292-0.84-0.17-1.113,0.143c-0.367-0.75-1.498-0.615-1.643,0.185
		c-0.269-0.254-0.703-0.37-1.028-0.211c-0.465,0.228-0.574,0.787-0.369,1.203c-0.019,0.001-0.038-0.001-0.058,0.013
		c-0.534,0.38-0.439,1.041-0.018,1.353c-0.459,1.245-0.617,2.437,0.148,3.597c0.689,1.045,1.844,1.703,2.911,2.294
		c0.018,0.01,0.033,0,0.051,0.005c1.207,0.798,2.836,1.008,4.014-0.009C42.733,43.738,43.093,42.309,42.507,41.242z M34.845,37.491
		c0.011-0.013,0.011-0.028,0.016-0.043c0.055,0.069,0.118,0.133,0.194,0.184c0.14,0.094,0.299-0.117,0.179-0.232
		c-0.261-0.252-0.298-0.752,0.045-0.957c0.444-0.265,0.728,0.195,0.839,0.548c-0.112,0.041-0.231,0.074-0.336,0.119
		c-0.088,0.037-0.043,0.188,0.049,0.18c0.498-0.041,1.055-0.148,1.508-0.362c0.1-0.047,0.05-0.211-0.056-0.206
		c-0.29,0.013-0.59,0.082-0.884,0.171c0.008-0.074,0.002-0.145-0.014-0.214c0.001-0.008,0.009-0.013,0.007-0.022
		c-0.113-0.842,1.108-1.13,1.225-0.209c0.02,0.155,0.232,0.205,0.285,0.038c0.115-0.361,0.679-0.572,0.91-0.173
		c0.162,0.281-0.025,0.589-0.242,0.763c-0.104,0.083,0.008,0.275,0.132,0.226c0.075-0.03,0.123-0.091,0.181-0.142
		c0.008,0.015,0.006,0.03,0.02,0.043c0.601,0.563,1.272,1.039,1.871,1.606c0.324,0.307,0.674,0.704,0.925,1.132
		c-0.033-0.011-0.064-0.026-0.106-0.014c-0.743,0.223-1.104,1.091-0.708,1.767c0.106,0.18,0.378,0.02,0.279-0.163
		c-0.257-0.481,0.008-1.085,0.534-1.22c0.078-0.02,0.111-0.075,0.125-0.136c0.094,0.196,0.159,0.396,0.192,0.594
		c-0.135,0.033-0.25,0.176-0.154,0.314c0.053,0.076,0.092,0.158,0.135,0.238c-0.077,0.314-0.277,0.611-0.663,0.868
		c-0.583,0.388-1.208,0.451-1.828,0.317c-0.116-0.215-0.076-0.401,0.133-0.56c0.316-0.24,0.497-0.014,0.67,0.265
		c0.069,0.112,0.225,0.058,0.236-0.064c0.045-0.512-0.626-0.825-1.046-0.585c-0.317,0.181-0.404,0.559-0.283,0.865
		c-1.316-0.413-2.575-1.645-3.32-2.529c-0.002-0.003-0.006-0.002-0.009-0.005c0.031-0.082,0.054-0.169,0.059-0.261
		c0.008-0.144-0.214-0.209-0.278-0.075c-0.045,0.09-0.087,0.181-0.127,0.274c-0.476-0.007-0.641-0.15-0.493-0.429
		c0.043-0.251,0.24-0.446,0.4-0.63c0.091-0.105,0.043-0.338-0.13-0.314C34.717,38.538,34.458,37.911,34.845,37.491z M41.393,44.248
		c-0.949,0.729-2.261,0.607-3.331,0.15c0.03-0.091,0.02-0.194-0.09-0.251c-0.861-0.45-1.765-0.923-2.449-1.628
		c-0.857-0.884-1.045-1.9-0.888-2.994c-0.026,0.232,0.038,0.46,0.263,0.66c0.323,0.286,0.666,0.186,0.869-0.074
		c1.086,1.813,4.116,3.988,6.092,2.211c0.153-0.138,0.27-0.28,0.369-0.424C42.43,42.75,42.142,43.672,41.393,44.248z"/>
	<path style="fill:#1D1D1B;" d="M39.916,39.393c0.21,0.045,0.311,0.213,0.462,0.348c0.09,0.08,0.228,0.025,0.234-0.097
		c0.022-0.465-0.536-0.746-0.949-0.671c-0.107,0.019-0.194,0.064-0.277,0.115c-0.173-0.244-0.466-0.382-0.773-0.402
		c-0.023-0.579-0.801-0.907-1.297-0.506c-0.24-0.289-0.729-0.331-1.025-0.065c-0.531,0.478-0.031,1.235,0.53,1.36
		c0.027,0.006,0.054-0.03,0.029-0.05c-0.217-0.18-0.525-0.561-0.427-0.875c0.095-0.301,0.613-0.394,0.684-0.035
		c0.032,0.159,0.247,0.161,0.325,0.042c0.158-0.241,0.377-0.295,0.619-0.151c0.146,0.087,0.207,0.184,0.227,0.308
		c-0.098,0.026-0.199,0.05-0.284,0.108c-0.169,0.115-0.266,0.307-0.285,0.489c-0.418-0.161-0.771,0.312-0.711,0.709
		c0.09,0.599,0.886,0.742,1.373,0.655c0.15-0.027,0.138-0.257,0-0.292c-0.194-0.049-0.397-0.054-0.589-0.109
		c-0.173-0.05-0.253-0.093-0.347-0.256c-0.073-0.127-0.163-0.572,0.214-0.469c0.035,0.009,0.062,0.002,0.086-0.01
		c0.059,0.16,0.208,0.266,0.472,0.213c0.107-0.021,0.08-0.186-0.025-0.186c-0.134-0.287-0.092-0.456,0.107-0.52
		c0.04,0.098,0.173,0.15,0.236,0.03c0.009-0.017,0.008-0.032,0.016-0.049c0.065,0.001,0.131-0.012,0.196,0.005
		c0.175,0.047,0.297,0.153,0.415,0.274c-0.138,0.198-0.2,0.453-0.165,0.711c0.006,0.041,0.028,0.066,0.055,0.085
		c-0.09,0.05-0.177,0.116-0.253,0.213c-0.394,0.504,0.174,1.213,0.738,0.909c0.123-0.067,0.039-0.284-0.098-0.231
		c-0.375-0.387-0.365-0.589,0.029-0.606c0.146,0.009,0.273,0.06,0.38,0.151c0.151,0.102,0.256,0.242,0.373,0.379
		c0.082,0.095,0.251-0.006,0.212-0.123c-0.155-0.464-0.666-0.84-1.132-0.774c0.005-0.016,0.019-0.027,0.018-0.046
		C39.293,39.615,39.535,39.312,39.916,39.393z"/>
	<path style="fill:none;stroke:#1D1D1B;stroke-width:0;stroke-linecap:round;stroke-linejoin:round;" d="M40.984,41.654
		c0.016,0,0.016-0.025,0-0.025"/>
	<path style="fill:#1D1D1B;" d="M51.199,38.351c0.316-1.252-1.53-2.882-2.361-3.658c0.177-0.282,0.195-0.662-0.041-0.938
		c-0.251-0.294-0.639-0.32-0.954-0.173c-0.111-0.458-0.507-0.843-1.021-0.786c-0.5,0.056-0.82,0.508-0.823,0.971
		c-0.287-0.226-0.73-0.311-1.016-0.089c-0.496,0.384-0.22,1.071,0.266,1.265c-0.195,0.076-0.376,0.176-0.528,0.343
		c-0.182,0.2-0.448,0.6-0.387,0.887c0.022,0.107,0.077,0.189,0.143,0.26c-0.305,0.277-0.372,0.981-0.321,1.343
		c0.195,1.395,1.503,2.646,2.564,3.448c1.061,0.803,2.396,1.149,3.568,0.332C51.351,40.816,51.652,39.513,51.199,38.351z
		 M47.817,34.167c0.165-0.289,0.545-0.332,0.686-0.017c0.078,0.175,0.029,0.318-0.074,0.442c-0.159-0.207-0.378-0.354-0.668-0.357
		c-0.014,0-0.026,0.007-0.04,0.007C47.757,34.226,47.793,34.209,47.817,34.167z M45.666,35.062c0.063-0.023,0.082-0.074,0.077-0.122
		c0.038-0.055,0.014-0.151-0.067-0.141c-0.388,0.046-0.836-0.561-0.408-0.8c0.377-0.21,0.611,0.184,0.678,0.496
		c0.025,0.118,0.201,0.137,0.257,0.034c0.054-0.099,0.068-0.194,0.064-0.287c0.06-0.028,0.106-0.09,0.084-0.166
		c-0.099-0.333,0.039-0.756,0.41-0.843c0.444-0.104,0.775,0.349,0.655,0.766c-0.044,0.153,0.083,0.256,0.211,0.262
		c-0.374,0.06-0.653,0.357-0.598,0.749c0.019,0.136,0.244,0.103,0.238-0.032c-0.022-0.526,0.609-0.511,0.875-0.239
		c0.052,0.053,0.091,0.122,0.133,0.186c0.004,0.007,0.008,0.011,0.013,0.018c0.085,0.134,0.158,0.278,0.213,0.418
		c-0.03,0.006-0.059-0.005-0.089,0.005c-0.502,0.16-0.652,0.774-0.404,1.198c0.073,0.125,0.251,0.015,0.191-0.112
		c-0.179-0.378,0.049-0.803,0.466-0.763c0.289,0.027,0.431,0.218,0.503,0.489c0.04,0.151,0.26,0.114,0.266-0.036
		c0.005-0.119-0.026-0.23-0.073-0.333c0.18,0.182,0.361,0.362,0.534,0.549c0.512,0.556,0.655,0.705,0.614,1.525
		c0.185,0.511,0.055,0.828-0.39,0.954c-0.36,0.286-0.778,0.354-1.255,0.203c-0.189-0.039-0.368-0.098-0.54-0.169
		c0.017-0.282,0.158-0.553,0.455-0.629c0.397-0.101,0.653,0.152,0.837,0.474c0.05,0.087,0.203,0.053,0.197-0.053
		c-0.005-0.079-0.033-0.137-0.053-0.202c0.193,0.052,0.395,0.075,0.562,0.088c0.078,0.006,0.097-0.124,0.019-0.138
		c-0.203-0.036-0.43-0.069-0.614-0.167c-0.065-0.028-0.114-0.075-0.164-0.121c-0.023-0.021-0.043-0.044-0.069-0.062
		c-0.054-0.068-0.098-0.147-0.127-0.242c0.007-0.238,0.141-0.361,0.4-0.37c0.119,0.038,0.177-0.129,0.081-0.193
		c-0.374-0.252-0.774,0.173-0.75,0.563c0.003,0.045,0.017,0.083,0.027,0.122c-0.469-0.045-1.005,0.257-1.019,0.823
		c-0.991-0.491-1.73-1.428-2.516-2.179c0.081-0.034,0.155-0.075,0.212-0.126c0.14-0.128-0.006-0.406-0.193-0.332
		c-0.299,0.118-0.566,0.142-0.81-0.061C44.904,35.606,45.21,35.229,45.666,35.062z M46.984,40.832
		c-0.491-0.367-0.961-0.788-1.365-1.25c-0.262-0.3-0.526-0.621-0.716-0.973c-0.087-0.161-0.688-1.778-0.251-2.056
		c0.238,0.126,0.554,0.151,0.821,0.073c0.625,1.605,2.971,3.572,4.765,2.722c0.269-0.127,0.465-0.272,0.62-0.425
		C51.132,41.092,48.832,42.212,46.984,40.832z"/>
	<path style="fill:#1D1D1B;" d="M46.145,35.293c-0.422,0.542,0.245,1.248,0.833,1.035c0.114-0.041,0.07-0.211-0.051-0.183
		c-0.414,0.097-0.831-0.575-0.316-0.721c0.232-0.066,0.454,0.095,0.553,0.287c0.056,0.109,0.245,0.061,0.236-0.064
		C47.357,35.05,46.513,34.82,46.145,35.293z"/>
	<path style="fill:#1D1D1B;" d="M48.919,37.083c-0.285-0.455-1.006-0.455-1.304-0.002c-0.032,0.049-0.053,0.099-0.072,0.15
		c-0.03-0.021-0.066-0.031-0.102-0.005c-0.189,0.136-0.872,0.052-0.719-0.321c0.075-0.183,0.621-0.272,0.798-0.326
		c0.147-0.044,0.114-0.254-0.036-0.263c-0.452-0.024-1.38,0.261-1.059,0.866c0.21,0.396,0.72,0.488,1.073,0.246
		c-0.027,0.375,0.238,0.747,0.613,0.858c0.153,0.045,0.207-0.179,0.064-0.234c-0.369-0.142-0.53-0.684-0.138-0.903
		c0.249-0.139,0.495-0.059,0.711,0.103C48.85,37.33,48.982,37.183,48.919,37.083z"/>
</g>
<g>
</g>
<g>
</g>
<g>
</g>
<g>
</g>
<g>
</g>
<g>
</g>
<g>
</g>
<g>
</g>
<g>
</g>
<g>
</g>
<g>
</g>
<g>
</g>
<g>
</g>
<g>
</g>
<g>
</g>
</svg>
