<?xml version="1.0" encoding="iso-8859-1"?>
<!-- Generator: Adobe Illustrator 18.0.0, SVG Export Plug-In . SVG Version: 6.00 Build 0)  -->
<!DOCTYPE svg PUBLIC "-//W3C//DTD SVG 1.1//EN" "http://www.w3.org/Graphics/SVG/1.1/DTD/svg11.dtd">
<svg version="1.1" id="Capa_1" xmlns="http://www.w3.org/2000/svg" xmlns:xlink="http://www.w3.org/1999/xlink" x="0px" y="0px"
	 viewBox="0 0 47.343 47.343" style="enable-background:new 0 0 47.343 47.343;" xml:space="preserve">
<g>
	<path style="fill:#1D1D1B;" d="M26.861,3.968C18.335,0.658,7.001,1.775,2.33,10.64c-0.125,0.238,0.183,0.426,0.349,0.248
		c-3.965,8.496,11.18,15.149,17.06,17.072c6.694,2.19,23.61,5.677,25.954-4.742C47.687,14.351,33.267,6.456,26.861,3.968z
		 M43.162,26.328c-1.562,1.578-4.155,2.443-6.272,2.931c-4.265,0.983-8.814,0.302-12.986-0.747
		c-7.038-1.77-24.928-7.978-20.494-18.278c0.047-0.11-0.017-0.203-0.101-0.235c9.727-13.69,29.838-5.139,38.956,5.222
		C44.908,18.222,46.526,22.929,43.162,26.328z"/>
	<path style="fill:#1D1D1B;" d="M39.544,9.279c-4.8-4.19-10.82-7.002-17.148-7.832C16.652,0.694,8.333,0.827,3.864,5.036
		C3.745,5.149,3.8,5.284,3.904,5.354C-1.268,9.218,0.116,17.572,0.318,23.24c0.256,7.171,0.614,10.609,6.533,14.974
		c5.619,4.143,12.355,6.761,19.276,7.611c5.248,0.645,13.576,1.096,17.751-2.857c4.034-3.819,3.278-12.977,3.452-18.062
		C47.556,18.33,44.405,13.521,39.544,9.279z M42.484,43.347c-4.242,2.999-11.458,2.517-16.317,1.916
		c-5.27-0.652-10.379-2.304-15.01-4.919C8.7,38.956,6.199,37.3,4.191,35.3c-2.861-2.848-3.083-6.181-3.268-10.069
		c-0.296-6.23-1.809-15.61,3.578-19.914C4.581,5.254,4.56,5.156,4.502,5.092c4.66-3.73,12.217-3.911,17.852-3.094
		c5.768,0.836,11.102,3.104,15.659,6.741c4.58,3.655,8.7,8.44,8.813,14.57C46.923,28.553,47.029,40.134,42.484,43.347z"/>
	<path style="fill:#1D1D1B;" d="M23.164,10.383c-0.325-0.155-0.128-0.346-0.54-0.414c-0.259-0.042-0.317,0.099-0.564,0.13
		c-0.463,0.058-0.694-0.012-1.172-0.152c-0.307-0.09-0.382-0.251-0.748-0.184c-0.357,0.065-0.565,0.356-0.899,0.387
		c-0.642,0.06-1.262-0.12-1.126,0.904c0.002,0.019,0.016,0.029,0.024,0.044c-0.822,0.697-1.642,1.942-1.725,3.02
		c-0.059,0.774,0.586,1.533,1.377,1.172c0.152-0.069,0.041-0.296-0.11-0.26c-1.366,0.323-0.81-1.287-0.648-1.657
		c0.104-0.238,0.228-0.472,0.345-0.704c0.275-0.545,0.562-1.053,0.982-1.504c0.032-0.035,0.029-0.071,0.015-0.102
		c0-0.004,0.003-0.005,0.003-0.009c0.302-0.128,0.604-0.257,0.905-0.385c0.063,0.066,0.187,0.071,0.249,0
		c0.459-0.523,1.67-0.077,2.384-0.144c0.165-0.073,0.331-0.146,0.496-0.22l0.704,0.468c0.102,0.048,0.002,0.048,0.217,0.125
		c0.436,0.157,1.749,0.011,1.827,0.477c0.017,0.105,0.194,0.081,0.186-0.025C25.274,10.39,23.781,10.677,23.164,10.383z"/>
	<path style="fill:#1D1D1B;" d="M29.881,15.046c-0.066,0.047-0.097,0.085-0.132,0.124c0.119-0.328,0.133-0.652,0.07-1.021
		c-0.024-0.142-0.194-0.174-0.302-0.123c-0.338,0.178-0.675,0.193-1.013,0.063c0.143-0.354,0.159-0.722,0.012-1.098
		c-0.223-0.57-0.6-0.694-1.101-0.911c-0.157-0.068-0.615-0.352-0.733-0.49c-0.119-0.139-0.09-0.306-0.218-0.453
		c-0.08-0.092-0.178-0.18-0.296-0.214c-0.339-0.097-0.6,0.117-0.598,0.442c0.001,0.133,0.21,0.17,0.238,0.032
		c0.097-0.475,0.697,0.702,0.734,0.747c0.079,0.095,0.174,0.171,0.281,0.227c0.381,0.198,0.721-0.008,1.087,0.354
		c0.374,0.37,0.438,0.93,0.166,1.371c-0.054,0.087-0.022,0.219,0.07,0.268c0.44,0.234,0.852,0.27,1.284,0.13
		c0.014,0.274-0.022,0.524-0.127,0.801c-0.073,0.193,0.235,0.318,0.331,0.14c0.003-0.006,0.004-0.012,0.008-0.018
		c-0.002,0.104,0.015,0.223-0.024,0.408c-0.069,0.327-1.057,1.894-1.359,2.266c-0.421,0.519-1.165,1.371-1.8,1.367
		c-0.338-0.002-0.704-0.216-1.068-0.225c-0.223-0.006-1.835,0.224-2.027-0.115c0.017-0.003,0.036-0.005,0.053-0.008
		c0.034-0.006,0.049-0.029,0.058-0.055c0.005-0.005,0.012-0.005,0.016-0.012c0.011-0.019,0.022-0.038,0.033-0.057
		c0.024-0.041,0.008-0.091-0.03-0.116c-0.025-0.016-0.05-0.032-0.075-0.048c-0.043-0.028-0.106-0.009-0.131,0.034
		c-0.015,0.027-0.017,0.05-0.026,0.076c-0.926,0.03-2.053,0.155-2.45-1.037c-0.019-0.056-0.069-0.1-0.13-0.099
		c-0.73,0.014-1.189-0.57-1.758-0.929c-0.495-0.312-1.41-0.233-0.827-1.141c0.049-0.076-0.057-0.145-0.119-0.092
		c-0.399,0.34-0.474,0.647-0.365,1.154c0.014,0.067,0.096,0.135,0.167,0.127c0.741-0.08,1.184,0.499,1.75,0.854
		c0.365,0.229,0.805,0.255,1.124,0.496c0.31,0.235,0.384,0.546,0.79,0.74c0.565,0.27,1.202,0.227,1.804,0.129
		c0.085,0.286,0.564,0.459,0.826,0.501c0.328,0.053,0.659-0.039,0.985-0.045c0.461-0.009,0.862,0.113,1.307,0.194
		c0.354,0.065,0.691,0.196,1.043,0.02c0.397-0.199,0.281-0.423,0.477-0.727c0.26-0.405,0.666-0.503,0.924-0.893
		c0.197-0.298,0.167-0.783,0.453-1.074c0.173-0.175,0.437-0.158,0.582-0.39c0.272-0.434-0.148-1.134,0.162-1.506
		C30.082,15.129,29.987,14.971,29.881,15.046z"/>
	<path style="fill:#1D1D1B;" d="M8.42,13.554c-0.058-0.095-0.225-0.035-0.186,0.078c0.145,0.427-0.24,0.763-0.65,0.71
		c-0.318-0.041-0.633-0.286-0.811-0.548c-0.27-0.399-0.386-0.991,0.036-1.324c0.086-0.068-0.027-0.214-0.117-0.152
		c-0.753,0.518-0.359,1.605,0.262,2.06c0.372,0.272,0.904,0.398,1.285,0.074C8.506,14.224,8.607,13.859,8.42,13.554z"/>
	<path style="fill:#1D1D1B;" d="M7.599,9.01C7.517,8.967,7.416,9.08,7.494,9.146c0.463,0.389,0.809,0.816,1.009,1.379
		c-0.772,0.061-1.512-0.511-1.603-1.298c-0.02-0.17-0.289-0.174-0.271,0c0.107,1.035,1.083,1.759,2.105,1.553
		c0.073-0.015,0.117-0.103,0.097-0.171C8.634,9.941,8.225,9.339,7.599,9.01z"/>
	<path style="fill:#1D1D1B;" d="M12.198,8.354c-0.508-0.656-1.532-0.548-2.006,0.073c-0.08,0.105,0.102,0.248,0.185,0.143
		c0.395-0.501,1.293-0.593,1.655,0.014c0.341,0.571-0.03,1.128-0.491,1.458c-0.11,0.078-0.046,0.253,0.093,0.222
		C12.417,10.087,12.649,8.936,12.198,8.354z"/>
	<path style="fill:#1D1D1B;" d="M12.097,11.863c-0.077-0.07-0.217,0.022-0.152,0.117c0.181,0.266,0.368,0.547,0.425,0.871
		c0.101,0.576-0.356,0.907-0.871,0.702c-0.888-0.354-0.682-1.483-0.542-2.221c0.028-0.147-0.188-0.211-0.227-0.063
		c-0.255,0.959-0.368,2.622,1.042,2.688c0.444,0.021,0.843-0.258,0.929-0.706C12.8,12.729,12.464,12.198,12.097,11.863z"/>
	<path style="fill:#1D1D1B;" d="M9.253,17.814c-1.259,0.596,0.432,2.127,1.06,2.413c0.102,0.046,0.176-0.083,0.087-0.149
		c-0.31-0.229-0.612-0.459-0.862-0.755c-0.325-0.385-0.645-1.371,0.211-1.248c0.749,0.107,0.872,1.014,1.212,1.549
		c0.079,0.125,0.307,0.047,0.251-0.106C10.935,18.767,10.344,17.297,9.253,17.814z"/>
	<path style="fill:#1D1D1B;" d="M13.19,19.683c-0.09-0.107-0.248,0.01-0.22,0.128c0.073,0.319,0.247,0.603,0.302,0.929
		c0.075,0.437-0.134,1.113-0.696,0.957c-0.393-0.109-0.38-0.511-0.325-0.859c0.03-0.188,0.088-0.606,0.278-0.694
		c-0.031,0.014-0.009,0.063,0.023,0.055l0.055-0.015c0.012-0.003,0.021-0.013,0.024-0.024c0.026-0.101,0.01-0.179-0.092-0.222
		c-0.17-0.071-0.302,0.124-0.374,0.243c-0.274,0.448-0.467,1.201-0.115,1.658c0.366,0.475,1.02,0.331,1.363-0.089
		C13.901,21.154,13.645,20.223,13.19,19.683z"/>
	<path style="fill:#1D1D1B;" d="M34.979,25.194c-0.072-0.1-0.273-0.044-0.218,0.092c0.182,0.453,0.685,1.654-0.172,1.739
		c-0.416,0.042-0.753-0.369-0.842-0.727c-0.11-0.445,0.006-0.919,0.106-1.353c0.038-0.167-0.211-0.237-0.258-0.071
		c-0.164,0.579-0.354,1.271-0.058,1.844c0.205,0.396,0.65,0.713,1.109,0.672C35.81,27.285,35.42,25.805,34.979,25.194z"/>
	<path style="fill:#1D1D1B;" d="M38.07,24.665c-0.403-0.683-1.293-0.723-1.937-1.042c-0.1-0.049-0.228,0.087-0.128,0.166
		c0.244,0.192,0.497,0.305,0.786,0.414c0.279,0.105,0.576,0.194,0.798,0.405c0.373,0.356,0.186,1.029-0.363,1.052
		c-0.934,0.04-1.773-0.636-2.157-1.44c-0.054-0.113-0.255-0.031-0.206,0.087c0.412,0.977,1.803,2.156,2.938,1.543
		C38.254,25.606,38.317,25.083,38.07,24.665z"/>
	<path style="fill:#1D1D1B;" d="M34.439,21.143c-1.25,0.114-1.766,1.773-1.498,2.798c0.036,0.139,0.24,0.08,0.214-0.059
		c-0.137-0.723,0.087-1.503,0.63-2.013c0.335-0.314,1.128-0.657,1.198,0.099c0.045,0.49-0.387,0.818-0.688,1.134
		c-0.101,0.106,0.035,0.307,0.164,0.213c0.451-0.331,0.912-0.808,0.849-1.413C35.26,21.441,34.912,21.1,34.439,21.143z"/>
	<path style="fill:#1D1D1B;" d="M40.044,20.514c-0.107,0.43-0.214,0.848-0.479,1.213c-0.139,0.191-0.319,0.391-0.531,0.503
		c-0.09,0.048-0.185,0.082-0.284,0.101c-0.204,0.072-0.306-0.004-0.306-0.23c-0.115-0.312,0.011-0.468,0.169-0.735
		c0.113-0.192,0.236-0.378,0.378-0.549c0.296-0.356,0.638-0.619,1.123-0.594c0.132,0.007,0.167-0.216,0.032-0.235
		c-0.641-0.087-1.148,0.259-1.535,0.748c-0.327,0.412-0.965,1.223-0.541,1.759c0.336,0.424,0.999,0.228,1.359-0.048
		c0.562-0.429,0.968-1.176,0.941-1.889C40.362,20.377,40.091,20.328,40.044,20.514z"/>
	<path style="fill:#1D1D1B;" d="M36.76,12.86c-0.097-0.096-0.264,0.028-0.191,0.147c0.244,0.398,0.507,0.875,0.398,1.359
		c-0.123,0.549-0.675,0.845-1.178,0.552c-0.91-0.531-0.627-1.726-0.419-2.556c0.034-0.137-0.167-0.191-0.21-0.058
		c-0.222,0.683-0.46,1.457-0.174,2.16c0.196,0.482,0.656,0.899,1.192,0.929c0.51,0.028,0.933-0.322,1.102-0.789
		C37.512,13.962,37.217,13.314,36.76,12.86z"/>
	<path style="fill:#1D1D1B;" d="M33.572,10.253c-0.34-0.665-1.435-1.186-2.136-1.312c-0.124-0.022-0.222,0.153-0.092,0.218
		c0.291,0.147,0.594,0.263,0.879,0.423c0.249,0.139,0.756,0.378,0.887,0.636c0.012,0.222,0.023,0.444,0.034,0.666
		c-0.088,0.053-0.181,0.089-0.28,0.109c-0.163,0.041-0.331,0.038-0.498,0.031c-0.244-0.011-0.493-0.055-0.729-0.119
		c-0.062-0.019-0.124-0.037-0.186-0.056c-0.251-0.01-0.4-0.131-0.445-0.363c0.074,0.054,0.168-0.068,0.098-0.127
		c-0.246-0.208-0.522,0.099-0.349,0.364c0.166,0.254,0.642,0.374,0.908,0.451c0.381,0.11,0.816,0.19,1.212,0.125
		C33.391,11.215,33.851,10.8,33.572,10.253z"/>
	<path style="fill:#1D1D1B;" d="M28.044,6.65c-0.087-0.114-0.257-0.049-0.231,0.097c0.09,0.515,0.351,0.998,0.357,1.533
		c0.007,0.589-0.42,0.83-0.934,0.599c-0.421-0.19-0.578-0.655-0.645-1.081c-0.035-0.222-0.213-1.305,0.243-1.258
		c0.133,0.014,0.153-0.193,0.031-0.228c-0.572-0.162-0.666,0.612-0.654,1.004c0.022,0.661,0.125,1.478,0.756,1.846
		c0.432,0.252,1.087,0.263,1.413-0.167C28.82,8.414,28.436,7.164,28.044,6.65z"/>
	<path style="fill:#1D1D1B;" d="M24.728,5.692c-0.545,0.147-1.092,0.277-1.655,0.332c-0.383,0.037-1.291,0.185-1.612-0.078
		c-0.233-0.03-0.254-0.175-0.064-0.438c-0.057-0.289,0.035-0.433,0.276-0.431c0.224-0.083,0.552-0.032,0.782-0.025
		c0.542,0.015,1.078,0.08,1.619,0.115c0.167,0.01,0.205-0.258,0.04-0.293c-0.562-0.121-3.899-0.655-3.392,0.877
		c0.448,1.352,3.267,0.473,4.082,0.122C24.908,5.827,24.833,5.664,24.728,5.692z"/>
	<path style="fill:#1D1D1B;" d="M23.708,22.946c-0.159-0.496-0.736-0.751-1.054-1.132c-0.083-0.1-0.216,0.027-0.168,0.13
		c0.188,0.406,1.502,1.232,0.677,1.609c-1.022,0.467-1.222-0.997-1.319-1.641c-0.017-0.111-0.186-0.079-0.19,0.026
		c-0.031,0.894,0.415,2.411,1.627,1.894C23.638,23.679,23.829,23.324,23.708,22.946z"/>
	<path style="fill:#1D1D1B;" d="M26.655,24.302c-0.265,0.333-1.718,2.378-2.232,1.487c-0.239-0.414,0.24-0.96,0.52-1.207
		c0.383-0.337,0.836-0.596,1.307-0.788c0.147-0.06,0.091-0.295-0.067-0.244c-0.653,0.211-1.333,0.547-1.788,1.076
		c-0.312,0.363-0.589,0.963-0.285,1.41c0.838,1.23,2.469-0.863,2.777-1.556C26.949,24.343,26.769,24.159,26.655,24.302z"/>
</g>
<g>
</g>
<g>
</g>
<g>
</g>
<g>
</g>
<g>
</g>
<g>
</g>
<g>
</g>
<g>
</g>
<g>
</g>
<g>
</g>
<g>
</g>
<g>
</g>
<g>
</g>
<g>
</g>
<g>
</g>
</svg>
