<?xml version="1.0" encoding="iso-8859-1"?>
<!-- Generator: Adobe Illustrator 18.0.0, SVG Export Plug-In . SVG Version: 6.00 Build 0)  -->
<!DOCTYPE svg PUBLIC "-//W3C//DTD SVG 1.1//EN" "http://www.w3.org/Graphics/SVG/1.1/DTD/svg11.dtd">
<svg version="1.1" id="Capa_1" xmlns="http://www.w3.org/2000/svg" xmlns:xlink="http://www.w3.org/1999/xlink" x="0px" y="0px"
	 viewBox="0 0 45.06 45.06" style="enable-background:new 0 0 45.06 45.06;" xml:space="preserve">
<g>
	<path style="fill:#1D1D1B;" d="M41.67,31.412c-0.574-0.165-1.148,0.03-1.519,0.434c-0.035-0.4-0.086-0.795-0.163-1.172
		c-0.041-0.201-0.239-0.267-0.41-0.229c-0.016-0.025-0.037-0.046-0.058-0.067c0.007-0.073-0.016-0.149-0.092-0.214
		c-2.85-2.454-7.282-1.27-10.15,0.506c-0.18,0.111-0.128,0.39,0.03,0.462c-0.025,0.023-0.06,0.031-0.074,0.067
		c-0.287,0.781-0.265,1.638,0.068,2.4c-0.387,0.068-0.755,0.26-1.007,0.545c0.003-0.422-0.005-0.845-0.03-1.266
		c-0.021-0.357-0.443-0.449-0.642-0.27c-0.029-0.036-0.058-0.074-0.107-0.089c-3.246-1.009-7.297-0.908-10.683,0.305
		c-0.021-0.956-1.146-1.37-1.809-0.736c0.003-0.153,0.01-0.306,0.01-0.46c0-0.099-0.035-0.174-0.086-0.23
		c0.059-0.12,0.045-0.268-0.107-0.336c-3.846-1.743-8.526-1.401-12.324,0.277c-0.229,0.101-0.084,0.459,0.144,0.427
		c-0.022,0.031-0.047,0.059-0.052,0.106c-0.185,1.709,0.341,3.179,1.266,4.32c-2.802,1.094-2.017,3.789,0.793,4.27
		c3.722,0.637,8.392,0.988,10.916-2.327c0.144,0.228,0.295,0.45,0.458,0.663c-1.316,0.353-2.384,1.478-2.824,2.749
		c-0.185,0.534-0.03,1.761,0.541,1.891c1.216,1.885,5.196,1.607,7.065,1.609c3.038,0.003,8.06-0.021,9.564-3.281
		c0.08-0.174-0.006-0.328-0.133-0.4c0.016-0.188-0.035-0.38-0.14-0.54c-0.121-0.651-0.455-1.235-0.98-1.663
		c0.29-0.037,0.574-0.121,0.841-0.257c0.252,1.32,1.471,1.665,2.765,1.826c2.581,0.321,5.205-0.061,7.594-1.076
		c0.021-0.009,0.034-0.024,0.051-0.036c0.795-0.237,1.355-1.036,1.217-1.915c-0.155-0.986-1.218-1.793-2.207-1.525
		c0.188-0.356,0.352-0.725,0.469-1.117c0.413,0.498,1.15,0.649,1.767,0.454c0.871-0.276,1.315-1.194,1.305-2.061
		C42.924,32.616,42.544,31.663,41.67,31.412z M38.786,30.492c-2.833,1.497-5.907,1.671-8.933,0.526
		c-0.028-0.011-0.053-0.004-0.079-0.004C32.922,29.726,35.571,28.978,38.786,30.492z M28.195,35.686
		c0.963,0.155,0.611,1.522-0.243,1.397C28.061,36.631,28.142,36.166,28.195,35.686z M21.149,32.635
		c1.976-0.154,3.888,0.094,5.839,0.338c-0.003,0.004-0.007,0.004-0.009,0.008c-1.167,1.775-4.679,1.802-6.508,1.762
		c-1.7-0.037-3.367-0.384-4.992-0.863C17.344,33.337,19.173,32.789,21.149,32.635z M14.963,33.627
		c0.021-0.393,0.04-0.785,0.053-1.178c0.031-0.002,0.062-0.008,0.089-0.029c0.51-0.404,1.164-0.038,1.152,0.581
		c0,0.012,0.009,0.015,0.01,0.026c-0.449,0.182-0.888,0.378-1.305,0.601C14.962,33.629,14.963,33.628,14.963,33.627z M13.914,31.407
		c-3.428,1.603-7.036,1.469-10.529,0.156C7.003,30.466,10.264,30.589,13.914,31.407z M3.047,31.871
		c-0.008-0.09-0.056-0.141-0.114-0.173c0.037-0.012,0.072-0.021,0.109-0.033c0.007,0.033,0.024,0.063,0.058,0.083
		c3.485,2.067,7.62,1.938,11.215,0.208c0.008,0.557,0.033,1.113,0.063,1.67c0.006,0.115,0.066,0.182,0.14,0.227
		c0,0.003-0.002,0.006-0.002,0.009c-0.056,0.033-0.116,0.06-0.17,0.093c-0.084-0.007-0.164,0.03-0.206,0.112
		c-0.002,0.001-0.004,0.002-0.006,0.003c-0.052,0.033-0.051,0.094-0.023,0.135c0,0,0,0.001,0,0.001
		c0.034,0.235,0.096,0.466,0.148,0.7c-0.011,0.009-0.026,0.006-0.035,0.018c-1.615,1.921-3.529,3.469-6.23,2.988
		C5.023,37.383,3.318,34.733,3.047,31.871z M15.218,37.54c-1.642,2.1-4.02,2.65-6.577,2.595c-0.861-0.019-1.732-0.096-2.587-0.196
		C5.294,39.865,4.542,39.74,3.8,39.564c-1.075-1.461-0.949-2.472,0.362-3.039c2.731,2.924,8.221,3.314,10.314-0.788
		c0.195,0.619,0.452,1.218,0.758,1.789C15.23,37.532,15.223,37.533,15.218,37.54z M14.545,34.148
		c0.08-0.022,0.159-0.046,0.238-0.068c2.484,1.133,5.074,1.551,7.806,1.262c1.708-0.18,3.984-0.42,4.923-2.049
		c0.01-0.017,0.011-0.033,0.017-0.05c0.102,3.792-0.979,7.948-5.603,7.909C17.887,41.119,15.698,37.538,14.545,34.148z
		 M29.757,41.64c-1.615,2.41-5.154,2.551-7.76,2.664c-1.6,0.069-6.062,0.323-7.733-1.004c0.024-0.016,0.047-0.027,0.073-0.047
		c0.138-0.107,0.064-0.379-0.107-0.405c-1.022-0.156,0.031-1.855,0.336-2.234c0.497-0.618,1.111-1.039,1.791-1.414
		c1.538,1.801,3.735,2.952,6.289,2.704c2.475-0.24,3.945-1.49,4.764-3.203c0.13,0.11,0.282,0.179,0.431,0.253
		c0.002,0.129,0.066,0.258,0.218,0.314C29.018,39.62,29.687,40.626,29.757,41.64z M27.675,38.075
		c0.068-0.184,0.106-0.385,0.161-0.577c0.563,0.132,1.196-0.097,1.436-0.66c0.292-0.683-0.173-1.461-0.847-1.668
		c0.108-0.672,0.772-1.142,1.458-0.921c0.833,0.269,1.063,1.343,0.978,2.09C30.688,37.877,29.036,39.188,27.675,38.075z
		 M39.42,36.815c0.615,0.007,1.293,0.258,1.448,0.929c0.119,0.515-0.184,1.022-0.602,1.333c-0.054-0.019-0.113-0.027-0.178-0.004
		c-1.954,0.676-8.584,2.559-9.687-0.447c0.408-0.337,0.718-0.784,0.912-1.284c1.143,2.034,4.497,1.808,6.323,0.732
		c0.643-0.379,1.13-0.887,1.509-1.465C39.185,36.719,39.269,36.814,39.42,36.815z M38.201,36.535
		c-1.53,1.746-5.094,2.198-6.741,0.329c0.096-0.412,0.124-0.838,0.067-1.246c-0.118-0.842-0.63-1.735-1.478-1.98
		c-0.225-0.683-0.36-1.357-0.361-2.071c3.136,1.439,6.698,1.229,9.647-0.567C39.478,32.93,39.566,34.976,38.201,36.535z
		 M40.166,34.477c-0.039-0.056-0.089-0.073-0.137-0.095c0.089-0.458,0.138-0.925,0.154-1.393c0.02,0.018,0.037,0.038,0.066,0.043
		c0.242,0.045,0.571,0.106,0.734,0.311c0.041,0.098,0.081,0.196,0.122,0.295c-0.073,0.093-0.146,0.186-0.219,0.278
		c-0.034,0.006-0.271-0.105-0.33-0.124c-0.199-0.064-0.33,0.131-0.305,0.305c0.117,0.802,1.314,0.383,1.427-0.247
		c0.151-0.842-0.714-1.303-1.429-1.174c-0.011,0.002-0.015,0.012-0.025,0.016c0.238-0.618,0.927-1.004,1.529-0.587
		c0.474,0.328,0.591,1.042,0.531,1.572C42.166,34.712,40.904,35.523,40.166,34.477z"/>
	<path style="fill:#1D1D1B;" d="M39.478,7.592c-0.444-0.685-0.968-1.267-1.547-1.767c2.16-1.252-0.208-4.759-1.757-5.495
		c-2.093-0.994-5.655,0.321-4.806,3.009c-0.71-0.066-1.423-0.09-2.125-0.079c0.013-0.054,0.032-0.106,0.044-0.16
		c0.059-0.264-0.168-0.433-0.373-0.426c-0.132-0.211-0.352-0.365-0.631-0.387c-0.507-0.041-0.762,0.309-0.891,0.72
		c-0.022-0.005-0.041-0.015-0.066-0.017c-1.679-0.089-3.317,0.493-4.528,1.612c0.013-0.367-0.264-0.725-0.59-0.901
		c-0.415-0.223-0.968-0.145-1.296,0.198c-0.32,0.334-0.353,0.868-0.122,1.261c0.225,0.381,0.61,0.575,1.024,0.618
		c-0.857,1.359-1.514,3.62-0.126,4.809c-0.564,0.198-1.051,0.88-0.753,1.457c0.203,0.393,0.654,0.532,1.004,0.357
		c0.053,0.022,0.114,0.029,0.185,0.008c0.119-0.036,0.229-0.105,0.341-0.169c0.393,1.188,0.996,2.251,1.763,3.163
		c-0.006,0.006-0.013,0.007-0.019,0.014c-0.781,0.85-1.827,1.189-2.961,1.245c-0.845,0.042-1.063,0.083-1.503,0.838
		c-0.064,0.109-1.653,2.651-0.769,2.397c0.019,0.026,0.027,0.055,0.06,0.076c0.488,0.308,0.85,0.255,1.347-0.05
		c0.311-0.191,0.464-0.575,0.757-0.758c0.889-0.555,1.617-0.142,2.499,0.026c1.434,0.273,2.844-0.052,3.552-1.359
		c3.643,1.981,8.399,1.788,11.592-1.635C41.055,13.76,41.288,10.381,39.478,7.592z M35.841,0.998
		c1.214,0.584,3.263,3.149,1.532,4.343c-0.011,0.007-0.015,0.017-0.025,0.025c-0.155-0.112-0.328-0.195-0.49-0.297
		c0.567-1.326-0.552-2.826-1.899-2.998c-0.646-0.083-1.445,0.09-1.856,0.639c-0.135,0.181-0.227,0.396-0.201,0.625
		c0.013,0.117,0.042,0.19,0.079,0.251c-0.374-0.073-0.749-0.145-1.13-0.191C31.788,1.252,33.931,0.08,35.841,0.998z M33.361,3.653
		c-0.006-0.317,0.356-0.662,0.57-0.767c0.384-0.189,0.853-0.188,1.255-0.049c0.877,0.304,1.031,1.057,1.032,1.844
		C35.325,4.215,34.363,3.877,33.361,3.653z M21.389,4.379c0.452-0.491,0.73,0.303,0.955,0.553c0.023,0.025,0.06,0.019,0.091,0.031
		c-0.127,0.14-0.242,0.291-0.356,0.444C21.652,5.263,20.953,4.852,21.389,4.379z M22.507,11.357
		c-0.236,0.174-0.486,0.346-0.667,0.565c-0.015,0.019-0.015,0.042-0.025,0.063c-0.086,0.017-0.178-0.046-0.236-0.105
		c-0.127-0.129-0.131-0.249-0.031-0.422c0.124-0.214,0.388-0.34,0.57-0.502c0.133-0.118,0.08-0.262-0.028-0.348
		c0.063-0.063,0.095-0.15,0.02-0.248c-1.06-1.389-0.357-3.384,0.611-4.625c1.13-1.448,2.77-2.068,4.566-2.085
		c0.048,0.292,0.544,0.269,0.575-0.074c0.024-0.258,0.05-0.681,0.37-0.721c0.125-0.015,0.265,0.045,0.372,0.139
		c-0.421,1.862-1.204,3.595-2.417,5.08c-1.059,1.296-2.629,2.018-3.667,3.251C22.512,11.336,22.513,11.347,22.507,11.357z
		 M23.827,18.511c-0.63-0.114-1.226-0.459-1.871-0.451c-1.132,0.013-1.593,1.608-2.709,1.446c0.27-0.44,0.522-0.897,0.816-1.319
		c0.586-0.842,1.126-0.827,2.015-0.971c1.001-0.162,1.896-0.564,2.565-1.339c0.637,0.667,1.36,1.241,2.142,1.713
		C26.058,18.462,24.917,18.708,23.827,18.511z M37.032,16.626c-5.332,3.77-11.741,0.811-14.103-4.731
		c0.145-0.138,0.275-0.287,0.391-0.448c1.345-0.507,2.609-1.928,3.419-2.945c1.07-1.343,1.819-2.868,2.296-4.501
		c0.005,0,0.009,0.003,0.014,0.003c2.96-0.001,6.165,0.408,8.459,2.476C40.699,9.355,40.582,14.116,37.032,16.626z"/>
</g>
<g>
</g>
<g>
</g>
<g>
</g>
<g>
</g>
<g>
</g>
<g>
</g>
<g>
</g>
<g>
</g>
<g>
</g>
<g>
</g>
<g>
</g>
<g>
</g>
<g>
</g>
<g>
</g>
<g>
</g>
</svg>
