<?xml version="1.0" encoding="iso-8859-1"?>
<!-- Generator: Adobe Illustrator 18.0.0, SVG Export Plug-In . SVG Version: 6.00 Build 0)  -->
<!DOCTYPE svg PUBLIC "-//W3C//DTD SVG 1.1//EN" "http://www.w3.org/Graphics/SVG/1.1/DTD/svg11.dtd">
<svg version="1.1" id="Capa_1" xmlns="http://www.w3.org/2000/svg" xmlns:xlink="http://www.w3.org/1999/xlink" x="0px" y="0px"
	 viewBox="0 0 61.594 61.594" style="enable-background:new 0 0 61.594 61.594;" xml:space="preserve">
<g>
	<path style="fill:#1D1D1B;" d="M36.099,56.646c-0.158-3.868-1.077-7.746-1.696-11.547c-0.827-5.083-1.588-10.183-2.523-15.247
		c-0.056-0.302-0.495-0.168-0.454,0.125c1.218,8.712,3.067,17.365,4.207,26.09c-0.064,0.018-0.116,0.066-0.106,0.15
		c0.153,1.324,0.26,2.528-0.648,3.636c-0.812,0.991-2.153,1.389-3.405,1.248c-0.021-0.015-0.03-0.038-0.06-0.045
		c-5.46-1.377-3.751-13.04-3.74-16.914c0.014-4.772,0.164-9.545,0.102-14.317c0.031,0.06,0.099,0.108,0.175,0.094
		c1.156-0.206,2.279-0.311,3.448-0.164c0.315,0.04,0.393-0.511,0.076-0.559c-0.272-0.041-0.543-0.064-0.813-0.076
		c-0.135-0.452-0.07-0.866,0.028-1.307c0.055,0.009,0.114,0.006,0.176-0.027c0.673-0.352,1.353-0.691,2.047-0.999
		c0.584-0.259,1.233-0.476,1.781-0.818c0.172,0.113,0.464-0.017,0.397-0.275c-1.38-5.344-2.998-10.626-4.83-15.833
		c-1.166-3.313-2.149-6.927-4.463-9.637v0c-0.035-0.295-0.501-0.304-0.471,0c0.943,9.65,1.626,19.477,3.26,29.036
		c0.007,0.042,0.034,0.064,0.065,0.078c-0.277,0.08-0.55,0.178-0.817,0.306c-0.033,0.016-0.047,0.04-0.059,0.065v-0.002
		c-0.003-0.187-0.275-0.184-0.288,0c-0.545,7.668-0.462,15.417-0.336,23.1c0.06,3.652-0.17,7.838,4.146,8.671
		c0.043,0.008,0.074-0.01,0.108-0.021c1.325,0.357,2.708,0.022,3.719-1.001C36.031,59.539,36.561,57.911,36.099,56.646z
		 M25.898,1.048c4.608,6.694,6.533,16.914,8.635,24.592c-1.353,0.165-2.81,1.036-3.957,1.653c-0.168,0.091-0.171,0.264-0.09,0.389
		c-0.395,0.356-0.482,0.918-0.338,1.431c-0.452,0.013-0.899,0.072-1.336,0.184c0.015-0.02,0.028-0.041,0.027-0.07
		C28.4,19.844,27.027,10.381,25.898,1.048z"/>
</g>
<g>
</g>
<g>
</g>
<g>
</g>
<g>
</g>
<g>
</g>
<g>
</g>
<g>
</g>
<g>
</g>
<g>
</g>
<g>
</g>
<g>
</g>
<g>
</g>
<g>
</g>
<g>
</g>
<g>
</g>
</svg>
