<?xml version="1.0" encoding="iso-8859-1"?>
<!-- Generator: Adobe Illustrator 18.0.0, SVG Export Plug-In . SVG Version: 6.00 Build 0)  -->
<!DOCTYPE svg PUBLIC "-//W3C//DTD SVG 1.1//EN" "http://www.w3.org/Graphics/SVG/1.1/DTD/svg11.dtd">
<svg version="1.1" id="Capa_1" xmlns="http://www.w3.org/2000/svg" xmlns:xlink="http://www.w3.org/1999/xlink" x="0px" y="0px"
	 viewBox="0 0 57.016 57.016" style="enable-background:new 0 0 57.016 57.016;" xml:space="preserve">
<g>
	<path style="fill:#1D1D1B;" d="M50.258,33.482c-0.02,0.007-0.027,0.023-0.043,0.033c0.486-1.383-1.144-2.449-2.32-1.725
		c-0.128-0.554-0.575-0.975-1.224-1.027c-0.959-0.076-1.611,0.643-2.047,1.412c-0.228-0.457-0.568-0.789-0.969-1.004
		c-0.011-0.224-0.247-0.407-0.449-0.203c0.516-0.521,0.394-2.444,0.447-3.099c0.11-1.352,0.26-2.704,0.453-4.046
		c0.295-2.045,0.741-4.061,1.084-6.097c0.821,0.131,1.969-0.261,2.097-1.083c0.105-0.677-0.29-1.612-0.84-2.011
		c-0.324-0.235-0.734-0.292-1.096-0.186c0.268-0.492,0.133-1.126-0.393-1.477c-0.913-0.608-1.862-0.003-2.546,0.67
		c-0.438-1.295-2.505-1.149-2.448,0.36c-0.041-0.658-0.489-1.268-1.115-1.444c-0.189-1.408-0.299-2.82-0.29-4.241
		c0.007-1.216,0.189-2.44,0.089-3.651c0.877,0.453,1.974,0.655,2.466-0.414c0.57-1.239-1-2.037-2.065-1.946
		c0.385-0.808-0.521-1.691-1.321-1.815c-0.776-0.12-1.678,0.245-2.103,0.92c-0.206-0.465-0.748-0.87-1.161-0.965
		c-0.646-0.148-1.47,0.164-1.736,0.793c-0.715-0.852-1.894-0.91-2.707-0.17c-0.795-1.191-3.488-1.181-3.14,0.361
		c-0.034,0.003-0.068,0.002-0.102,0.005c0.109-0.725-0.928-1.166-1.57-1.012c-0.606,0.145-1.357,0.672-1.388,1.321
		c-0.323-1.059-1.498-1.826-2.594-1.736c-1.061,0.087-1.896,0.856-2.193,1.83c-0.324-0.511-1.079-0.836-1.615-0.661
		c-0.708,0.232-1.04,1.039-0.812,1.702c-1.045-0.163-2.102,0.831-1.734,1.958c0.195,0.596,0.754,1.094,1.388,1.152
		c0.14,0.013,0.278,0,0.413-0.024c-0.007,2.176,0.219,4.38,0.4,6.543c0.001,0.016,0.015,0.021,0.018,0.035
		c-0.084,0-0.166-0.01-0.254,0.002c-0.728,0.097-1.358,0.806-1.356,1.515c-0.537-0.506-1.335-0.76-1.981-0.283
		c-0.335,0.248-0.625,0.85-0.568,1.326c-0.923-0.471-2.149-0.388-2.881,0.408c-0.342,0.372-0.491,0.906-0.281,1.38
		c0.116,0.263,0.322,0.466,0.571,0.55c-0.888,0.555-1.259,1.871-0.331,2.6c0.643,0.505,1.314,0.29,1.864-0.156
		C12.39,23.557,12.5,27.074,12.6,30.77c-0.336,0.248-0.545,0.634-0.594,1.036c-0.48-0.521-1.087-0.922-1.838-0.736
		c-0.507,0.125-0.914,0.622-0.914,1.123c-0.558-0.333-1.242-0.501-1.798-0.065c-0.432,0.339-0.581,0.891-0.411,1.362
		c-1.073,0.109-2.33,0.473-2.465,1.71c-0.084,0.77,0.591,1.47,1.305,1.341c-0.337,0.22-0.623,0.532-0.589,0.952
		c0.042,0.526,0.523,0.829,1.004,0.904c0.091,0.014,0.183,0.008,0.275,0.007c0.243,4.04,0.855,8.055,1.103,12.1
		c0.004,0.072,0.028,0.131,0.063,0.178c-0.861-0.21-1.826,0.267-2.004,1.302c-0.171,0.993,0.682,1.914,1.586,1.93
		c-0.556,0.644-0.914,1.474-0.212,2.188c0.848,0.864,2.088-0.087,2.801-0.885c0.263,0.717,0.862,1.316,1.709,1.159
		c0.649-0.121,1.165-0.729,1.123-1.354c0.025-0.001,0.046-0.012,0.07-0.014c0.043,0.494,0.358,0.906,0.902,1.082
		c0.783,0.254,1.519-0.158,2.132-0.628c0.76,1.524,3.12,1.422,3.492-0.145c0.435,0.642,1.175,1.053,1.983,0.938
		c0.702-0.1,1.375-0.626,1.631-1.294c0.793,1.447,3.008,1.007,4.265,0.129c0.271,1.704,2.563,1.366,3.578,0.238
		c1.058,1.22,3.503,1.186,4.35-0.282c0.004,0.001,0.009,0.001,0.013,0.001c0.634,1.384,2.346,1.513,3.209,0.328
		c0.828,1.167,2.747,1.224,3.287,0.002c0.433,0.707,1.249,1.066,2.103,1.142c0.39,0.035,0.963,0.094,1.281-0.202
		c0.141-0.131,0.232-0.329,0.304-0.543c0.614,0.987,1.774,1.565,2.939,1.047c0.868-0.386,1.479-1.72,0.916-2.523
		c1.102-0.378,0.815-2.035,0.064-2.746c-0.76-0.72-2.24-1.003-2.929-0.2c-0.036-0.056-0.068-0.115-0.11-0.167
		c0.17,0.031,0.36-0.035,0.39-0.231c0.75-4.765,2.121-9.339,3.032-14.054c0.958,0.297,1.959,0.233,2.554-0.761
		C52.97,34.856,51.787,32.967,50.258,33.482z M16.97,5.352c-0.088-0.054-0.219-0.008-0.27,0.092
		c-0.515,0.111-1.01-0.133-1.249-0.605c-0.501-0.988,0.63-1.771,1.527-1.477c0.187,0.061,0.301-0.219,0.133-0.315
		c-0.053-0.03-0.11-0.038-0.164-0.061c-0.168-0.503,0.046-1.166,0.571-1.35c0.324-0.113,0.674,0.004,0.922,0.229
		c0.169,0.154,0.237,0.328,0.294,0.517c-0.116,0.026-0.232,0.063-0.346,0.111c-0.149,0.062-0.095,0.303,0.069,0.251
		c0.128-0.04,0.248-0.058,0.367-0.067c0.054,0.147,0.235,0.133,0.3,0.005c0.167,0.017,0.334,0.051,0.514,0.099
		c0.159,0.042,0.263-0.187,0.114-0.27c-0.15-0.084-0.307-0.121-0.466-0.141c0.191-0.921,0.874-1.745,1.855-1.86
		c1.237-0.145,1.977,0.75,2.365,1.801c0.076,0.206,0.411,0.192,0.404-0.055c-0.001-0.045-0.016-0.086-0.02-0.13
		c0.012,0.03,0.013,0.058,0.029,0.088c0.092,0.176,0.406,0.052,0.328-0.138c-0.365-0.884,1.76-1.841,2.014-0.549
		c-0.085,0.02-0.17,0.038-0.253,0.061c-0.218,0.059-0.125,0.381,0.093,0.336c0.5-0.105,0.952-0.081,1.455-0.095
		c0.207-0.006,0.272-0.335,0.051-0.376c-0.11-0.02-0.22-0.027-0.331-0.032c0.291-0.248,0.581-0.497,0.872-0.745
		c0.204-0.009,0.403,0.016,0.595,0.073c0.454,0.14,0.826,0.35,0.942,0.861c0.042,0.186,0.327,0.28,0.454,0.12
		c0.61-0.763,1.727-0.768,2.337,0.026c0.197,0.257,0.631,0.032,0.449-0.263c0,0,0-0.001,0-0.001c0.398-0.4,0.876-0.744,1.477-0.54
		c0.278,0.095,0.521,0.315,0.66,0.57c0.079,0.145,0.109,0.279,0.162,0.41c-0.098,0-0.197,0.001-0.293,0.007
		c-0.247,0.016-0.251,0.38,0,0.387c0.476,0.014,0.865,0.161,1.322,0.25c0.217,0.042,0.345-0.235,0.152-0.36
		c-0.201-0.13-0.431-0.203-0.668-0.244c0.347-0.534,0.8-0.928,1.467-0.995c0.824-0.083,1.54,0.486,1.412,1.351
		c-0.008,0.056,0.016,0.111,0.051,0.158c-0.02,0.096,0.022,0.207,0.13,0.244c0.378,0.128,0.787,0.089,1.164,0.234
		c0.472,0.181,0.964,0.734,0.556,1.224c-0.647,0.779-1.752,0.09-2.406-0.282c-0.089-0.051-0.187-0.005-0.238,0.067
		c-0.043,0.017-0.079,0.049-0.091,0.112c-0.211,1.14-1.431,1.843-2.227,0.692c-0.113-0.164-0.309-0.15-0.425,0
		c-0.299,0.388-0.714,0.884-1.228,0.994c-0.734,0.158-1.496-0.353-1.471-1.116c0.188,0.026,0.376,0.026,0.556-0.046
		c0.133-0.053,0.183-0.293,0-0.322c-0.293-0.047-0.558-0.071-0.809-0.138c-0.038-0.039-0.093-0.061-0.148-0.054
		c-0.175-0.063-0.347-0.146-0.516-0.297c-0.158-0.141-0.379,0.077-0.234,0.234c0.119,0.129,0.267,0.25,0.428,0.355
		c-0.17,0.19-0.341,0.362-0.627,0.421c-0.407,0.083-0.783-0.122-1.018-0.44c0-0.08-0.043-0.134-0.103-0.172
		c-0.016-0.031-0.041-0.058-0.054-0.09c-0.071-0.173-0.334-0.113-0.288,0.079c0.004,0.018,0.016,0.033,0.021,0.05
		c-0.02,0.026-0.048,0.043-0.053,0.082c-0.2,1.459-1.882,1.689-2.454,0.428c-0.071-0.156-0.343-0.157-0.413,0
		c-0.595,1.327-2.36,1.457-2.961-0.013c-0.021-0.05-0.059-0.076-0.101-0.089c0.142-0.063,0.277-0.147,0.391-0.269
		c0.132-0.141-0.033-0.327-0.196-0.254c-0.527,0.235-1.032,0.359-1.583,0.115c-0.184-0.082-0.34,0.165-0.161,0.276
		c0.233,0.145,0.506,0.219,0.78,0.245c-0.051,0.017-0.096,0.057-0.103,0.127c-0.038,0.405-0.179,1.009-0.608,1.2
		c-0.718,0.322-1.455-0.061-1.617-0.835c-0.045-0.213-0.352-0.19-0.409,0c-0.136,0.556-0.515,0.814-1.138,0.772
		c-0.471-0.167-0.692-0.481-0.666-0.941c0.094,0.042,0.202-0.07,0.117-0.152c-0.028-0.027-0.057-0.055-0.085-0.082
		c-0.028-0.027-0.076-0.045-0.115-0.03c-0.023,0.009-0.034,0.023-0.055,0.034c-0.025-0.093-0.15-0.163-0.243-0.11
		C17.629,4.931,17.325,5.197,16.97,5.352z M17.089,5.834c0.299-0.131,0.574-0.33,0.807-0.56c-0.032,0.405,0.349,0.918,0.705,1.104
		c0.676,0.354,1.385,0.057,1.745-0.517c0.332,0.593,0.966,0.99,1.693,0.804c0.787-0.201,1.292-1.046,1.025-1.817
		c-0.012-0.035-0.034-0.058-0.058-0.074c0.161,0.004,0.319-0.02,0.471-0.063c-0.014,0.028-0.023,0.061-0.011,0.103
		c0.501,1.785,2.593,1.944,3.468,0.516c0.85,1.222,2.614,0.889,3.034-0.511c0.245,0.27,0.578,0.454,0.966,0.456
		c0.439,0.002,0.945-0.243,1.167-0.638c-0.167,0.67,0.213,1.361,0.92,1.627c0.916,0.345,1.84-0.231,2.361-0.972
		c0.973,0.919,2.68,0.522,2.733-0.942c0.101,0.071,0.212,0.139,0.325,0.206c-0.873,2.399-0.51,5.457-0.162,7.97
		c-0.577,0.091-1.127,0.545-1.247,1.11c-0.271-0.98-1.233-1.688-2.268-1.591c-0.961,0.09-1.826,0.914-1.921,1.872
		c-0.593-0.432-1.39-0.659-1.898-0.182c-0.514-1.439-2.854-0.934-2.58,0.562c-0.03-0.001-0.06,0.007-0.09,0.008
		c-0.684-1.833-2.941-1.911-3.922-0.368c-0.486-0.842-1.84-0.917-2.057,0.212c-0.495-0.503-1.191-0.835-1.902-0.755
		c-0.671,0.075-1.507,0.606-1.42,1.369c0.004,0.032,0.019,0.059,0.036,0.084c-0.04-0.013-0.08-0.018-0.12-0.03
		c0.008-0.016,0.021-0.025,0.023-0.045c0.099-0.956-0.459-1.892-1.336-2.157c0.014-0.034,0.041-0.058,0.039-0.104
		C17.492,10.294,17.408,8.033,17.089,5.834z M46.545,52.45c0.043-0.172,0.038-0.344,0.012-0.513
		c0.481-0.801,1.576-0.629,2.223-0.038c0.597,0.546,0.942,1.626-0.016,2.011c-0.011-0.006-0.017-0.015-0.028-0.021
		c-0.137-0.068-0.294,0.072-0.214,0.214c0.495,0.884,0.389,1.962-0.775,2.212c-0.95,0.204-1.754-0.455-2.254-1.191
		c0.02-0.165,0.031-0.321,0.036-0.457c0.31-0.017,0.615-0.078,0.884-0.218c0.18-0.093,0.105-0.419-0.107-0.396
		c-0.602,0.065-1.137,0.196-1.752,0.123c-0.233-0.028-0.286,0.365-0.056,0.411c0.186,0.037,0.384,0.06,0.583,0.075
		c-0.298,0.648-0.268,1.361-1.199,1.316c-0.887-0.043-1.741-0.406-2.085-1.281l0,0c0.001-0.062,0.008-0.12,0.004-0.185
		c-0.013-0.221-0.306-0.258-0.38-0.051c-0.132,0.466-0.393,0.861-0.785,1.185c-0.972,0.348-1.636,0.061-1.992-0.86
		c-0.072-0.194-0.387-0.295-0.494-0.065c-0.547,1.183-1.802,1.257-2.507,0.36c0.299-0.014,0.584-0.096,0.814-0.288
		c0.137-0.115,0.029-0.379-0.15-0.363c-0.372,0.032-0.703,0.174-1.085,0.137c-0.056-0.006-0.104-0.031-0.158-0.041
		c-0.007-0.001-0.013-0.006-0.021-0.006c-0.33-0.066-0.635-0.199-0.907-0.406c-0.176-0.134-0.389,0.154-0.234,0.304
		c0.179,0.173,0.418,0.324,0.679,0.443c-0.399,0.368-0.769,0.695-1.356,0.831c-0.847,0.196-1.578-0.11-2.295-0.536
		c0.083-0.211-0.142-0.429-0.346-0.252c-0.741,0.81-1.702,0.705-2.883-0.313c0.015-0.238-0.278-0.309-0.432-0.179
		c-0.941,0.794-3.387,1.782-4.066,0.067c0.274-0.008,0.543-0.041,0.783-0.141c0.181-0.076,0.186-0.388-0.051-0.376
		c-0.73,0.035-1.346,0.155-2.081,0.004c-0.205-0.042-0.289,0.253-0.087,0.315c0.229,0.071,0.483,0.124,0.743,0.164
		c-0.243,0.614-0.545,1.158-1.29,1.289c-0.786,0.138-1.5-0.34-1.821-1.038c-0.003-0.006-0.009-0.005-0.012-0.01
		c-0.002-0.016,0.001-0.031-0.001-0.047c-0.022-0.205-0.359-0.298-0.397-0.054c-0.078,0.497-0.225,1.163-0.765,1.385
		c-0.886,0.364-1.749-0.044-2.02-0.976c-0.057-0.195-0.278-0.23-0.422-0.111c-0.598,0.489-2.281,1.174-2.601,0.055
		c0.152-0.056,0.291-0.138,0.403-0.26c0.133-0.146-0.001-0.346-0.183-0.314c-0.277,0.048-0.517,0.178-0.803,0.196
		c-0.065-0.071-0.162-0.071-0.234-0.02c-0.244-0.025-0.478-0.089-0.7-0.204c-0.224-0.115-0.396,0.191-0.195,0.334
		c0.204,0.145,0.476,0.26,0.762,0.32c-0.247,1.271-1.822,0.926-1.928-0.329c-0.023-0.271-0.331-0.341-0.488-0.132
		c-0.357,0.472-1.691,1.975-2.432,1.068c-0.246-0.301-0.055-0.968,0.126-1.259c0.145-0.234,0.35-0.444,0.551-0.646
		c0.07-0.044,0.143-0.072,0.209-0.132c0.078-0.07,0.059-0.179,0-0.252c-0.04-0.08-0.127-0.135-0.214-0.069
		c-0.009,0.006-0.018,0.015-0.026,0.022c-0.84,0.277-1.89-0.106-1.73-1.157c0.138-0.905,1.116-1.197,1.835-0.823
		c0.006,0.058-0.001,0.115,0.019,0.172c0.047,0.138,0.242,0.169,0.319,0.053c0.133,0.07,0.33-0.071,0.221-0.211
		c-0.039-0.05-0.088-0.082-0.13-0.126c0.053-0.25,0.131-0.479,0.378-0.642c0.434-0.288,0.976-0.104,1.251,0.309
		c0.039,0.059,0.097,0.068,0.151,0.06c-0.008,0.017-0.021,0.03-0.029,0.047c-0.089,0.193,0.172,0.353,0.288,0.169
		c0.383-0.729,0.998-1.026,1.845-0.893c0.402,0.156,0.732,0.397,0.989,0.725c0.124,0.051,0.246,0.156,0.386,0.175
		c0.163,0.022,0.393-0.157,0.496-0.198c1.181-0.477,2.347-0.817,2.889,0.776c0.003,0.01,0.013,0.012,0.017,0.021
		c-0.223-0.01-0.445-0.019-0.659-0.036c-0.187-0.015-0.234,0.303-0.045,0.332c0.618,0.092,1.286,0.273,1.91,0.255
		c0.227-0.007,0.285-0.344,0.055-0.404c-0.208-0.054-0.427-0.083-0.648-0.104c0.673-1.448,1.353-1.627,2.039-0.536
		c0.078,0.154,0.292,0.16,0.407,0.052c0.903-0.841,2.525-1.432,3.016,0.174c0.069,0.228,0.373,0.194,0.427-0.015
		c0.082,0.026,0.177,0.012,0.224-0.079c0.384-0.75,1.152-1.076,1.961-1.147c1.12-0.098,1.814,0.345,2.127,1.407
		c-0.266,0.007-0.531,0.03-0.779,0.069c-0.204,0.033-0.158,0.378,0.049,0.362c0.402-0.03,0.768,0.025,1.137,0.092
		c0.04,0.024,0.083,0.031,0.129,0.023c0.178,0.033,0.358,0.067,0.545,0.094c0.235,0.035,0.438-0.3,0.179-0.424
		c-0.092-0.044-0.191-0.071-0.289-0.099c0.25-0.258,0.5-0.517,0.75-0.775c0.31,0.189,0.62,0.377,0.93,0.566
		c0.061,0.042,0.082,0.191,0.153,0.22c0.134,0.053,0.259,0.124,0.418,0.099c0.188-0.028,0.294-0.201,0.424-0.314
		c0.425-0.371,0.402-0.49,1.028-0.594c0.44-0.22,0.771-0.096,0.992,0.372c0.308,0.158,0.48,0.394,0.527,0.7
		c0,0.078,0.03,0.145,0.093,0.179c0.15,0.139,0.462,0.076,0.434-0.17c-0.002-0.02-0.011-0.037-0.014-0.056
		c1.091-1.355,3.004-1.274,3.785,0.419c0.115,0.25,0.467,0.148,0.542-0.071c0.824-0.747,1.453-0.899,1.884-0.459
		c-0.097,0.042-0.191,0.089-0.269,0.146c-0.094,0.07-0.152,0.173-0.119,0.293c0.048,0.176,0.174,0.262,0.353,0.216
		c0.047-0.012,0.079-0.041,0.102-0.078c0.32-0.111,0.657-0.081,0.971-0.209c0.157-0.064,0.227-0.294,0.051-0.389
		c-0.144-0.077-0.318-0.099-0.496-0.098c-0.008-0.013-0.018-0.022-0.026-0.035c0.453-0.828,1.588-0.881,1.854,0.201
		c0.052,0.21,0.399,0.283,0.496,0.065c0.285-0.645,0.812-0.935,1.462-0.66c0.546,0.231,0.635,0.624,0.755,1.152
		C46.134,52.683,46.489,52.677,46.545,52.45z M45.953,50.866c-0.003,0.02,0.004,0.036,0.005,0.055
		c-0.192-0.152-0.412-0.268-0.653-0.318c-0.671-0.139-1.259,0.154-1.644,0.646c-0.609-0.899-1.981-0.898-2.458,0.055
		c-0.747-0.712-1.879-0.512-2.458,0.333c-1.025-1.423-3.037-1.601-4.157-0.238c-0.214-0.52-0.616-0.937-1.208-1.094
		c-0.377-0.101-0.793-0.066-1.155,0.074c-0.349,0.135-0.614,0.623-0.896,0.718c-0.097,0.033-0.141,0.057-0.159,0.072
		c-0.002-0.026-0.039-0.08-0.219-0.17c-0.1-0.05-0.181-0.182-0.282-0.252c-0.282-0.195-0.643-0.298-0.984-0.268
		c-0.597,0.054-0.997,0.425-1.192,0.917c0.125-1.07-1.19-1.748-2.131-1.761c-1.034-0.014-2.194,0.401-2.676,1.352
		c-0.152-0.58-0.667-1.016-1.29-1.135c-0.865-0.166-1.637,0.281-2.258,0.837c-0.827-1.038-2.456-0.657-2.585,0.644
		c-0.1-0.543-0.45-0.992-0.978-1.241c-0.921-0.434-1.505,0.045-2.339,0.284c-0.748,0.215-1.386-0.693-2.266-0.642
		c-0.673,0.04-1.182,0.413-1.516,0.959c-0.003-0.007,0.002-0.013-0.003-0.02c-0.309-0.515-0.929-0.799-1.515-0.591
		c-0.24,0.086-0.464,0.266-0.621,0.487c0.003-0.022,0.011-0.04,0.009-0.064c-0.245-4.034-0.473-8.189-1.382-12.14
		c0.361-0.076,0.705-0.243,0.977-0.488c0.204-0.184,0.417-0.455,0.57-0.748c0.092,0.136,0.197,0.253,0.29,0.318
		c0.691,0.481,1.467,0.177,1.863-0.443c0.832,1.1,2.658,0.999,3.053-0.5c0.287,0.658,1.114,0.988,1.812,0.721
		c0.561-0.215,0.942-0.831,1.026-1.462c0.186,0.428,0.576,0.771,1.062,0.847c0.857,0.133,1.324-0.391,1.623-1.043
		c0.242,0.664,0.927,1.172,1.648,1.152c0.589-0.016,1.184-0.407,1.475-0.934c0.218,0.632,0.892,1.082,1.601,1.022
		c0.7-0.059,1.373-0.646,1.627-1.338c0.559,0.885,1.828,1.022,2.593,0.17c0.605,0.838,1.765,0.615,2.506-0.063
		c0.939,0.871,2.376,1.383,3.646,1.074c0.823-0.201,1.632-0.771,1.934-1.566c0.465,0.674,1.268,0.848,1.987,0.494
		c0.043,0.676,0.509,1.251,1.242,1.424c1.016,0.239,1.993-0.377,2.587-1.186c0.141,0.393,0.555,0.702,1.011,0.814
		c0.568,0.139,1.115,0.029,1.573-0.253c0.074,0.484,0.419,0.909,0.978,1.057c1.015,0.27,2.021-0.498,2.274-1.46
		c0.39,0.3,0.89,0.602,1.419,0.812C47.378,41.131,46.545,46.178,45.953,50.866z M51.143,36.317c-1.034,0.519-2.166-0.158-3.09-0.591
		c-0.043-0.02-0.087-0.011-0.127,0.007c-0.048-0.13-0.208-0.225-0.316-0.088c-0.134,0.17-0.254,0.357-0.389,0.525
		c-0.087,0.171-0.212,0.308-0.373,0.412c-0.492,0.534-0.989,0.244-1.492-0.87c0.214-0.307-0.275-0.572-0.493-0.288
		c-0.273,0.355-0.654,0.606-1.097,0.671c-0.391,0.058-1.388,0.02-1.325-0.687c0.452,0.125,0.93,0.093,1.153-0.301
		c0.072-0.127-0.02-0.278-0.162-0.283c-0.242-0.009-0.44,0.121-0.682,0.138c-0.364,0.025-0.668-0.098-0.947-0.328
		c-0.179-0.147-0.392,0.072-0.251,0.251c0.081,0.103,0.204,0.2,0.342,0.288c-0.19,0.217-0.372,0.444-0.581,0.643
		c-0.173,0.136-0.346,0.271-0.519,0.407c-0.97,0.584-1.632,0.217-1.985-1.103c0.066-0.244-0.258-0.454-0.438-0.255
		c-0.561,0.621-1.556,0.493-2.02-0.175c0.009-0.062,0.025-0.121,0.028-0.185c0.01-0.225-0.343-0.337-0.442-0.12
		c-0.4,0.878-0.908,1.551-1.92,1.748c-1.14,0.222-2.124-0.351-3.112-0.815c0.023-0.029,0.052-0.053,0.074-0.083
		c0.12-0.164-0.116-0.392-0.279-0.279c-0.585,0.407-1.838,1.339-2.263,0.182c-0.074-0.202-0.337-0.25-0.459-0.06
		c-0.659,1.034-1.885,0.777-2.3-0.187c0-0.009,0.003-0.018,0.002-0.026c0.351,0.047,0.699,0.008,0.963-0.192
		c0.118-0.09,0.089-0.288-0.079-0.292c-0.271-0.005-0.523,0.093-0.795,0.099c-0.066,0.001-0.127-0.017-0.191-0.022
		c-0.053-0.043-0.121-0.044-0.187-0.021c-0.216-0.039-0.427-0.099-0.628-0.2c-0.165-0.082-0.306,0.152-0.146,0.249
		c0.157,0.095,0.35,0.184,0.555,0.255c-0.21,0.552-0.352,1.117-0.946,1.409c-0.721,0.356-1.641-0.216-1.63-1.015
		c0.001-0.063-0.039-0.101-0.088-0.125c-0.005-0.063-0.003-0.125-0.018-0.188c-0.055-0.225-0.393-0.22-0.451,0
		c-0.169,0.639-0.48,1.318-1.252,1.342c-0.758,0.024-1.214-0.656-1.306-1.329c-0.002-0.016-0.014-0.02-0.019-0.033
		c-0.007-0.023-0.018-0.04-0.034-0.057c-0.007-0.006-0.011-0.015-0.019-0.019c-0.07-0.056-0.181-0.068-0.261-0.006
		c-0.518,0.403-0.382,1.179-1.14,1.374c-0.817,0.209-1.289-0.566-1.212-1.286c0.155-0.084,0.289-0.194,0.363-0.368
		c0.039-0.092-0.028-0.234-0.147-0.191c-0.23,0.083-0.407,0.247-0.645,0.32c-0.076,0.024-0.153,0.015-0.229,0.024
		c-0.007,0.001-0.014,0-0.021,0.002c-0.249,0.025-0.497,0-0.728-0.113c-0.187-0.092-0.352,0.182-0.165,0.282
		c0.21,0.112,0.504,0.191,0.804,0.206c0.078,0.667,0.137,1.393-0.521,1.817c-0.606,0.39-1.55,0.03-1.654-0.697
		c-0.021-0.146-0.273-0.113-0.259,0.035c0.002,0.025,0.013,0.047,0.016,0.072c-0.096-0.062-0.223-0.065-0.282,0.066
		c-0.507,1.12-1.929,1.42-2.508,0.129c-0.087-0.195-0.384-0.126-0.436,0.057c-0.119,0.573-0.425,0.788-0.917,0.644
		c-0.444,0.118-0.68-0.063-0.734-0.508c0.198-0.005,0.392-0.038,0.551-0.137c0.141-0.088,0.1-0.37-0.093-0.344
		c-0.162,0.021-0.322,0.058-0.483,0.077c-0.017-0.011-0.035-0.021-0.058-0.021c-0.003,0-0.004,0.001-0.007,0.002
		c-0.056-0.098-0.198-0.14-0.281-0.047c-0.016,0.017-0.025,0.036-0.038,0.053c-0.17-0.031-0.337-0.079-0.503-0.127
		c-0.105-0.03-0.176,0.103-0.104,0.179c0.114,0.121,0.267,0.205,0.432,0.271c-0.038,0.099-0.074,0.202-0.126,0.311
		c-0.189,0.395-0.466,0.73-0.869,0.918c-0.352,0.164-0.9,0.255-1.196-0.064c-0.388-0.418,0.157-0.877,0.442-1.151
		c0.084-0.08,0.005-0.18-0.087-0.18c0.079-0.132-0.02-0.325-0.201-0.28c-0.743,0.116-1.034-0.268-0.874-1.152
		c0.155-0.267,0.37-0.47,0.647-0.607c0.494-0.258,1.078-0.27,1.621-0.295c0.23-0.01,0.36-0.289,0.191-0.46
		c-0.03-0.256-0.06-0.512-0.09-0.768c0.281-0.347,0.6-0.467,0.958-0.361c0.285,0.036,0.53,0.168,0.766,0.322
		c-0.054,0.046-0.109,0.091-0.16,0.146c-0.194,0.212,0.092,0.479,0.308,0.308c0.249-0.197,0.513-0.28,0.825-0.298
		c0.336-0.019,0.342-0.534,0-0.527c-0.177,0.004-0.337,0.039-0.488,0.09c-0.127-0.689,0.452-1.088,1.146-0.881
		c0.426,0.128,0.77,0.437,1.078,0.758c0.044,0.166,0.116,0.326,0.23,0.469c0.147,0.186,0.44-0.017,0.382-0.222
		c-0.14-0.5-0.109-1.102,0.363-1.419c0.525-0.353,1.242-0.082,1.569,0.412c0.015,0.023,0.038,0.036,0.062,0.044
		c0.044,0.066,0.088,0.132,0.131,0.198c0,0.153,0.219,0.27,0.327,0.135c0.55-0.688,0.977-1.341,1.933-1.462
		c1.094-0.138,1.771,0.513,2.353,1.331c-0.001,0.024-0.007,0.046-0.006,0.069c0.004,0.144,0.188,0.176,0.254,0.062
		c0.134-0.008,0.257-0.105,0.209-0.273c-0.009-0.031-0.025-0.058-0.035-0.089c0.207-0.332,0.551-0.578,0.965-0.522
		c0.537,0.073,0.729,0.528,0.783,0.997c-0.085-0.002-0.17-0.005-0.251-0.01c-0.213-0.013-0.265,0.339-0.051,0.376
		c0.415,0.073,0.878,0.219,1.298,0.166c0.226-0.028,0.276-0.313,0.054-0.397c-0.133-0.05-0.279-0.07-0.426-0.087
		c0.122-0.138,0.242-0.281,0.377-0.404c0.494-0.447,1.237-0.397,1.823-0.054c0.228,0.134,0.058,0.347,0.405,0.439
		c0.654,0.174,2.366-1.563,2.488,0.165c0.024,0.339,0.517,0.344,0.531,0c0.024-0.599-0.332-1.09-0.923-1.267
		c-0.296-0.088-0.604-0.059-0.898,0.015c-0.32,0.08-0.952,0.522-1.115,0.459c-0.102-0.04-0.309-0.473-0.464-0.572
		c-0.265-0.168-0.618-0.231-0.926-0.2c-0.611,0.063-1.064,0.479-1.417,0.951c-0.14-0.555-0.653-1.029-1.219-1.083
		c-0.496-0.047-0.97,0.203-1.238,0.595c-0.99-1.596-3.992-1.66-4.7,0.152c-0.077-0.064-0.172-0.116-0.307-0.161
		c-0.32-0.463-0.888-0.726-1.448-0.618c0.416-3.588-0.02-7.514-0.904-10.995c0.059-0.065,0.119-0.13,0.173-0.198
		c0.089,0.438,0.494,0.803,0.99,0.829c0.785,0.042,1.6-0.695,1.678-1.475c0.017,0,0.033-0.008,0.05-0.01
		c0.133,0.511,0.835,0.732,1.349,0.81c0.784,0.119,1.517-0.094,1.888-0.751c0.886,0.687,2.303,0.463,2.579-0.697
		c0.335,0.679,2.23,1.053,2.989,0.052c0.879,0.825,2.402,0.752,2.825-0.451c0.666,0.876,1.851,0.871,2.642,0.148
		c0.809,1.297,2.85,1.033,3.293-0.502c0.28,0.992,2.687,1.708,3.513,0.538c0.823,0.853,2.332,0.715,2.65-0.513
		c0.544,0.767,1.702,0.594,2.263-0.191c0.8,1.033,3.257,1.061,3.16-0.484c-0.013-0.214-0.316-0.268-0.38-0.051
		c-0.32,1.087-2.339,0.931-2.527-0.112c-0.046-0.252-0.424-0.227-0.485,0c-0.298,1.104-1.576,0.959-2.118,0.195
		c-0.059-0.083-0.185-0.033-0.164,0.069c0.007,0.034,0.025,0.055,0.033,0.087c-0.04,0.014-0.075,0.043-0.095,0.088
		c-0.403,0.923-1.564,1.405-2.163,0.315c-0.118-0.214-0.392-0.129-0.47,0.062c-0.467,1.125-2.663,0.482-2.868-0.256
		c0.364,0.053,0.702,0.049,1.059-0.047c0.181-0.049,0.15-0.347-0.045-0.335c-0.734,0.045-1.311-0.015-2.008-0.247
		c-0.087-0.029-0.151,0.046-0.16,0.122c-0.007,0.056-0.001,0.066,0.016,0.124c0.012,0.042,0.056,0.068,0.099,0.056
		c0.011-0.003,0.023-0.006,0.034-0.009c0.004-0.001,0.002-0.007,0.006-0.009c0.146,0.096,0.375,0.2,0.294,0.17
		c0.036,0.014,0.075,0.017,0.111,0.029c-0.014,0.013-0.03,0.015-0.042,0.034c-0.515,0.842-2.078,2.132-2.678,0.332
		c-0.08-0.242-0.367-0.259-0.509-0.066c-0.612,0.829-1.672,0.773-2.362,0.136c0-0.003,0.002-0.005,0.003-0.009
		c0.029-0.19-0.239-0.351-0.34-0.144c-0.469,0.959-1.652,1.59-2.427,0.431c-0.09-0.135-0.326-0.171-0.407,0
		c-0.232,0.49-0.71,0.73-1.247,0.745c-0.247,0.007-1.093-0.087-1.202-0.488c0.407,0.034,0.808-0.036,1.068-0.311
		c0.083-0.088,0.029-0.26-0.104-0.252c-0.299,0.017-0.563,0.157-0.867,0.175c-0.025,0.002-0.047-0.007-0.072-0.007
		c-0.032-0.064-0.112-0.102-0.177-0.036c-0.006,0.006-0.008,0.012-0.014,0.019c-0.279-0.024-0.549-0.09-0.803-0.22
		c-0.185-0.095-0.342,0.17-0.163,0.279c0.157,0.096,0.354,0.182,0.567,0.249c-0.461,0.861-1.488,1.318-2.226,0.446
		c-0.088-0.104-0.307-0.085-0.363,0.047c-0.26,0.609-0.91,0.835-1.542,0.776c-0.262-0.024-0.864-0.104-1.035-0.413
		c0.144-0.053,0.277-0.132,0.39-0.249c0.095-0.098,0.001-0.303-0.144-0.247c-0.13,0.051-0.255,0.097-0.378,0.134
		c-0.077-0.041-0.175-0.028-0.225,0.047c-0.298,0.057-0.591,0.043-0.914-0.144c-0.168-0.097-0.309,0.152-0.151,0.258
		c0.189,0.126,0.416,0.201,0.65,0.246c-0.23,0.333-0.371,0.711-0.751,0.932c-0.579,0.336-1.482-0.018-1.211-0.772
		c0.015-0.026,0.035-0.053,0.049-0.079c0.13-0.237-0.201-0.416-0.355-0.208c-0.441,0.597-1.251,1.825-2.148,1.159
		c-0.807-0.599-0.297-1.579,0.282-2.111c-0.003,0.301,0.084,0.596,0.312,0.822c0.125,0.124,0.378,0,0.311-0.181
		c-0.195-0.533-0.346-0.961-0.037-1.495c0.078-0.135-0.121-0.304-0.224-0.172c-0.113,0.145-0.203,0.317-0.268,0.499
		c-0.893-0.342-0.277-1.339,0.415-1.612c0.674-0.265,1.397-0.169,2.043,0.122c0.061,0.052,0.128,0.1,0.217,0.133
		c0.122,0.045,0.239-0.091,0.205-0.205c-0.07-0.243-0.2-0.421-0.16-0.69c0.04-0.27,0.209-0.537,0.444-0.677
		c0.651-0.389,1.419,0.141,1.822,0.637c0.017,0.021,0.038,0.024,0.058,0.03c0.008,0.009,0.01,0.02,0.018,0.029
		c0.105,0.121,0.308-0.008,0.264-0.154c-0.254-0.855,0.092-1.769,1.131-1.739c0.974,0.028,1.469,0.964,1.473,1.831
		c-0.052-0.011-0.103-0.032-0.156-0.039c-0.228-0.031-0.326,0.275-0.097,0.353c0.324,0.11,0.679,0.136,1.017,0.184
		c0.16,0.023,0.229-0.194,0.068-0.248c-0.084-0.028-0.169-0.057-0.254-0.087c0.029-0.013,0.057-0.032,0.078-0.068
		c0.315-0.536,0.649-0.987,1.335-1.015c0.674-0.027,1.212,0.391,1.75,0.73c0.095,0.06,0.233-0.065,0.161-0.161
		c-0.008-0.011-0.02-0.019-0.028-0.029c0.014-0.012,0.03-0.015,0.041-0.034c0.244-0.597,0.757-0.563,1.54,0.103
		c0.032,0.244,0.326,0.287,0.422,0.057c0.701-1.677,2.683-1.556,3.493-0.17c-0.147,0.027-0.289,0.071-0.42,0.145
		c-0.198,0.113-0.054,0.374,0.145,0.344c0.528-0.081,0.876-0.161,1.412-0.039c0.157,0.036,0.276-0.198,0.115-0.273
		c-0.159-0.075-0.335-0.126-0.514-0.163c0.001-0.384,0.076-0.869,0.487-1.016c0.694-0.249,1.37,0.15,1.402,0.904
		c0.01,0.246,0.322,0.266,0.407,0.055c0.329-0.81,1.266-0.297,1.807-0.003c0.04,0.185,0.33,0.258,0.374,0.033
		c0.157-0.797,0.585-1.555,1.441-1.744c0.922-0.204,1.753,0.496,2.04,1.323c-0.123,0.004-0.247,0.026-0.37,0.08
		c-0.199,0.089-0.075,0.359,0.101,0.373c0.381,0.031,0.673-0.002,1.027,0.203c0.175,0.101,0.392-0.156,0.224-0.29
		c-0.09-0.072-0.187-0.135-0.288-0.191c0.001-0.001,0.002-0.002,0.003-0.003c0.211-0.508,0.484-1.03,1.113-1.051
		c0.003,0,0.006,0,0.009,0.001c0.601-0.015,1.075,0.466,1.161,1.035c0.024,0.161,0.29,0.124,0.285-0.035
		c0.003,0.057,0,0.11,0.008,0.171c0.016,0.109,0.204,0.109,0.22,0c-0.017-0.402,0.244-0.577,0.783-0.526
		c0.672-0.526,1.012-0.352,1.019,0.519c-0.006,0.211,0.282,0.339,0.428,0.177c0.263-0.292,0.537-0.612,0.873-0.82
		c0.154-0.072,0.308-0.145,0.463-0.217c0.778-0.243,1.113,0.141,1.003,1.15c-0.01,0.01-0.006,0.024-0.013,0.036
		c-0.211-0.115-0.435-0.208-0.655-0.268c-0.2-0.055-0.27,0.233-0.084,0.305c0.491,0.189,0.776,0.518,1.149,0.862
		c0.162,0.149,0.414-0.038,0.306-0.236c-0.055-0.101-0.128-0.188-0.207-0.27c0.788-0.373,1.451,0.698,1.519,1.408
		c0.05,0.526-0.282,0.725-0.728,0.873c-0.562,0.187-1.041,0.147-1.268-0.47c-0.066-0.179-0.334-0.204-0.39,0
		c-0.123,0.448,0.072,0.743,0.405,0.903c-0.727,2.329-1.142,4.742-1.463,7.159c-0.234,1.76-0.855,4.3-0.512,6.141
		c-1.017-0.148-2.119,0.272-2.721,1.172c-0.109-0.573-0.614-0.986-1.228-1.067c-0.811-0.107-1.473,0.417-1.996,0.979
		c-0.699-1.009-2.12-0.861-2.579,0.193c-0.277-0.437-0.897-0.73-1.353-0.722c-0.391,0.007-0.745,0.182-1.01,0.447
		c-0.265-0.789-1.155-1.377-1.968-1.434c-1.047-0.074-2.435,0.635-2.13,1.863c0.041,0.165,0.322,0.136,0.304-0.041
		c-0.107-1.066,1.251-1.42,2.069-1.194c0.864,0.239,1.098,0.913,1.247,1.706c0.049,0.261,0.426,0.227,0.495,0
		c0.039-0.129,0.052-0.255,0.056-0.38c0.249-0.32,0.602-0.54,1.043-0.485c0.486,0.06,0.672,0.374,0.895,0.706
		c-0.258,0.035-0.51,0.099-0.72,0.203c-0.112,0.055-0.031,0.217,0.081,0.193c0.309-0.067,0.604-0.101,0.919-0.057
		c0.269,0.038,0.506,0.154,0.767,0.216c0.208,0.049,0.297-0.21,0.138-0.328c-0.183-0.136-0.409-0.195-0.642-0.224
		c0.079-0.474,0.405-0.65,1.005-0.495c0.596-0.346,0.979-0.234,1.151,0.336c0.064,0.13,0.277,0.16,0.372,0.048
		c0.239-0.283,0.623-0.769,0.979-0.875c0.476,0.044,0.951,0.088,1.427,0.132c0.165,0.184,0.256,0.397,0.274,0.639
		c0.021,0.102,0.096,0.139,0.176,0.145c0.053,0.158,0.277,0.231,0.398,0.048c0.503-0.759,1.27-1.26,2.205-1.171
		c0.828,0.079,1.328,0.593,1.835,1.195c0.017,0.02,0.041,0.02,0.062,0.032c-0.046,0.178,0.189,0.319,0.293,0.138
		c0.158-0.274,0.315-0.544,0.521-0.786c0.106-0.17,0.243-0.309,0.414-0.414c0.531-0.534,1.135-0.324,1.813,0.627
		c-0.043,0.231,0.246,0.461,0.431,0.251c0.9-1.021,2.131-0.144,1.804,1.105c-0.068,0.26,0.306,0.43,0.44,0.186
		c0.02-0.036,0.032-0.072,0.049-0.108c0.015,0.074,0.072,0.14,0.169,0.148c0.636,0.051,1.281,0.238,1.506,0.925
		C52.007,35.361,51.691,36.042,51.143,36.317z"/>
	<path style="fill:#1D1D1B;" d="M22.886,9.585c-0.137-0.568-0.906-1.09-1.45-0.756c-0.572-0.126-1.209,0.26-1.247,0.884
		c-0.049,0.803,0.79,1.423,1.538,1.382C22.471,11.056,23.063,10.322,22.886,9.585z M21.591,10.588
		c-0.432-0.025-0.93-0.403-0.904-0.874c0.019-0.345,0.281-0.609,0.592-0.695c0.002,0.09,0.068,0.181,0.168,0.178
		c0.387-0.012,0.856-0.038,0.987,0.442C22.57,10.141,22.063,10.616,21.591,10.588z"/>
	<path style="fill:#1D1D1B;" d="M34.592,8.634c-0.303-0.647-1.218-1.04-1.84-0.593c-0.021,0.015-0.026,0.039-0.039,0.059
		c-0.643-0.205-1.073,0.674-0.931,1.244c0.204,0.816,1.078,1.416,1.907,1.149C34.43,10.254,34.939,9.374,34.592,8.634z
		 M33.865,9.751c-0.356,0.34-0.857,0.325-1.219,0.003c-0.162-0.144-0.29-0.342-0.338-0.555c-0.055-0.245-0.001-0.847,0.437-0.758
		c0.026,0.006,0.048-0.005,0.071-0.011c0.032,0.006,0.061,0.018,0.101,0.003C33.774,8.121,34.629,9.021,33.865,9.751z"/>
	<path style="fill:#1D1D1B;" d="M29.309,24.465c-0.062-0.595-0.634-1.271-1.241-1.148c-0.007-0.061-0.054-0.12-0.126-0.129
		c-0.851-0.108-1.593,0.722-1.538,1.551c0.054,0.828,0.899,1.417,1.692,1.341C28.9,26.004,29.389,25.235,29.309,24.465z
		 M28.747,24.841c-0.099,0.47-0.508,0.772-0.989,0.682c-0.444-0.083-0.83-0.447-0.831-0.916c0-0.478,0.332-0.835,0.737-1.035
		c-0.092,0.2,0.082,0.464,0.314,0.318C28.541,23.536,28.827,24.458,28.747,24.841z"/>
	<path style="fill:#1D1D1B;" d="M18.323,24.727c-0.217-0.54-0.899-0.919-1.477-0.799c-0.66-0.222-1.169,0.544-1.143,1.188
		c0.033,0.795,0.699,1.471,1.518,1.339C18.006,26.329,18.638,25.51,18.323,24.727z M17.284,25.874
		c-0.475,0.173-0.906-0.12-1.036-0.59c-0.064-0.231-0.006-0.646,0.173-0.891c0.038,0.06,0.099,0.101,0.193,0.063
		c0.411-0.167,0.842-0.136,1.129,0.241C18.083,25.149,17.764,25.7,17.284,25.874z"/>
	<path style="fill:#1D1D1B;" d="M40.07,23.394c-0.349-0.408-1.098-0.493-1.502-0.146c-0.694-0.082-1.235,0.593-1.036,1.287
		c0.242,0.849,1.309,1.198,2.064,0.834C40.321,25.019,40.618,24.035,40.07,23.394z M39.329,24.836
		c-0.373,0.181-0.842,0.104-1.118-0.214c-0.281-0.324-0.207-0.819,0.123-1.015c-0.002,0.008-0.007,0.012-0.009,0.02
		c-0.058,0.223,0.201,0.341,0.361,0.21c0.287-0.234,0.728-0.434,0.988-0.023C39.911,24.19,39.7,24.655,39.329,24.836z"/>
	<path style="fill:#1D1D1B;" d="M12.521,42.981c-0.322-0.46-1.11-0.636-1.574-0.304c-0.543,0.032-0.977,0.557-0.896,1.145
		c0.121,0.882,1.075,1.372,1.885,1.06C12.676,44.596,12.981,43.638,12.521,42.981z M11.82,44.352
		c-0.38,0.206-0.864,0.088-1.119-0.255c-0.221-0.298-0.194-0.703,0.021-0.94c0.049,0.06,0.13,0.09,0.214,0.04
		c0.312-0.185,0.662-0.358,1.007-0.123C12.4,43.386,12.266,44.111,11.82,44.352z"/>
	<path style="fill:#1D1D1B;" d="M22.535,42.378c-0.178-0.66-1.087-1.124-1.622-0.583c-0.628,0.022-1.041,0.686-0.971,1.295
		c0.085,0.736,0.835,1.105,1.516,0.964C22.219,43.896,22.744,43.153,22.535,42.378z M21.21,43.504
		c-0.899,0.059-0.907-1.083-0.216-1.362c0.022,0.001,0.041,0.01,0.066,0.001C22.22,41.721,22.304,43.433,21.21,43.504z"/>
	<path style="fill:#1D1D1B;" d="M34.366,42.355c-0.225-0.496-1.089-0.853-1.405-0.31c-0.578,0.021-1.062,0.489-1.036,1.132
		c0.031,0.792,0.834,1.273,1.566,1.076C34.276,44.041,34.697,43.085,34.366,42.355z M33.282,43.74
		c-0.438,0.091-0.864-0.255-0.84-0.707c0.017-0.319,0.243-0.543,0.52-0.647c0.05,0.045,0.117,0.07,0.184,0.043
		c0.097-0.039,0.246-0.133,0.349-0.136c0.279-0.01,0.418,0.313,0.434,0.537C33.957,43.236,33.691,43.656,33.282,43.74z"/>
	<path style="fill:#1D1D1B;" d="M42.121,42.671c-0.016,0.004-0.018,0.018-0.032,0.024c-0.653-0.122-1.25,0.416-1.345,1.067
		c-0.112,0.768,0.535,1.357,1.257,1.431c0.762,0.079,1.473-0.429,1.571-1.206C43.678,43.147,42.943,42.478,42.121,42.671z
		 M42.923,44.223c-0.216,0.369-0.641,0.504-1.044,0.395c-0.951-0.258-0.677-1.412,0.098-1.648c0.04,0.1,0.133,0.183,0.269,0.156
		C42.897,42.998,43.219,43.717,42.923,44.223z"/>
</g>
<g>
</g>
<g>
</g>
<g>
</g>
<g>
</g>
<g>
</g>
<g>
</g>
<g>
</g>
<g>
</g>
<g>
</g>
<g>
</g>
<g>
</g>
<g>
</g>
<g>
</g>
<g>
</g>
<g>
</g>
</svg>
