<?xml version="1.0" encoding="iso-8859-1"?>
<!-- Generator: Adobe Illustrator 18.0.0, SVG Export Plug-In . SVG Version: 6.00 Build 0)  -->
<!DOCTYPE svg PUBLIC "-//W3C//DTD SVG 1.1//EN" "http://www.w3.org/Graphics/SVG/1.1/DTD/svg11.dtd">
<svg version="1.1" id="Capa_1" xmlns="http://www.w3.org/2000/svg" xmlns:xlink="http://www.w3.org/1999/xlink" x="0px" y="0px"
	 viewBox="0 0 53.963 53.963" style="enable-background:new 0 0 53.963 53.963;" xml:space="preserve">
<g>
	<path style="fill:#1D1D1B;" d="M44.114,0.824C40.66,0.065,37.301,1.094,33.969,1.94C27.34,3.623,22.812,1.95,16.485,0.539
		C11.968-0.469,6.859-0.091,4.297,3.781c-1.53,1.012-2.811,2.63-3.704,5.098c-2.621,7.248,3.871,14.08,11.175,12.9
		c-0.903,5.573-1.574,11.185-2.306,16.782c-0.442,3.379-2.603,9.632-0.4,12.824c1.583,2.294,4.717,2.316,7.208,2.415
		c6.871,0.273,13.754-0.032,20.596-0.668c0.011,0.131,0.111,0.255,0.285,0.218c0.629-0.132,1.168-0.359,1.645-0.646
		c3.75-1.329,6.33-3.418,6.442-7.758c0.178-6.957-1.615-14.976-3.27-21.707c0.044,0.02,0.093,0.035,0.15,0.038
		c5.715,0.289,11.065-3.856,11.773-9.695C54.617,7.587,49.786,2.07,44.114,0.824z M42.117,22.485
		c-0.199-0.009-0.317,0.106-0.36,0.251c-0.191-0.108-0.497,0.056-0.454,0.344c0.768,5.096,1.783,10.146,2.468,15.258
		c0.283,2.109,0.854,4.466,0.691,6.608c-0.287,3.768-1.921,5.334-4.386,6.639c1.674-2.061,1.873-5.401,1.798-8.054
		c-0.208-7.376-2.099-15.141-3.69-22.319c-0.098-0.441-0.721-0.242-0.661,0.182c0.639,4.526,1.566,9.017,2.378,13.516
		c0.816,4.523,3.573,15.208-2.45,17.781c0.005-0.205-0.12-0.401-0.382-0.376c-4.61,0.434-9.227,0.729-13.858,0.788
		c-5.231,0.067-13.743,1.597-14.06-6.246c-0.156-3.843,1.069-8.281,1.567-12.117c0.578-4.456,1.189-8.908,1.623-13.381
		c0.027-0.281-0.451-0.349-0.497-0.067c-0.008,0.047-0.014,0.094-0.022,0.141c-0.025-0.013-0.046-0.032-0.079-0.031
		c-4.33,0.206-8.62-1.818-10.265-6.029C-0.41,10.536,2.497,4.731,7.484,3.248c5.86-1.743,11.667,2.425,17.169,3.75
		c5.21,1.254,8.637-0.865,13.581-2.131c5.251-1.345,11.357,1.827,11.379,7.857c0.021,5.701-6.014,8.959-11.006,7.684
		c-0.546-0.139-0.778,0.7-0.233,0.844c6.754,1.779,14.144-4.211,11.556-11.395c-1.205-3.345-4.336-5.97-7.901-6.282
		c-2.814-0.247-5.352,0.976-7.935,1.906C30.083,6.924,26.88,6.909,22.846,5.61C17.362,3.845,10.065,0.764,5.035,3.348
		c3.669-4.079,10.544-2.355,15.281-0.98c4.298,1.247,7.896,1.694,12.274,0.69c6.348-1.455,12.366-3.36,17.559,2.093
		C56.582,11.908,51.311,22.908,42.117,22.485z"/>
	<path style="fill:#1D1D1B;" d="M43.329,17.648c-2.411,1.214-5.167,1.138-7.798,1.013c-0.435-0.021-0.433,0.653,0,0.675
		c4.773,0.244,14.684-1.633,11.979-8.856c-2.618-6.992-12.311-3.452-17.229-1.5c0.083-0.166,0.021-0.406-0.218-0.396
		c-3.854,0.149-7.487-0.449-11.11-1.743c-2.443-0.873-4.821-2.062-7.43-2.345C8.32,4.148,4.598,5.038,3.178,8.269
		c-3.219,7.32,4.649,12.986,11.155,11.176c-1.745,7.615-3.848,16.28-4.061,24.103c-0.119,4.377,2.085,8.853,6.965,8.391
		c0.019,0.07,0.066,0.133,0.162,0.138c5.71,0.3,11.803,0.148,17.445-0.874c2.166-0.393,3.603-0.798,4.475-2.885
		c1.331-3.186,0.031-7.676-0.55-10.904c-1.071-5.95-2.147-11.901-3.252-17.845c-0.076-0.41-0.696-0.235-0.624,0.172
		c1.382,7.744,3.652,15.757,4.137,23.61c0.183,2.962,0.427,5.492-3.039,7.03c-1.852,0.822-4.957,0.653-6.944,0.817
		c-3.79,0.312-7.587,0.365-11.385,0.498c0.043-0.167-0.025-0.354-0.241-0.33c-10.088,1.139-5.772-13.974-4.886-19.165
		c0.725-4.249,1.525-8.489,2.011-12.773c0.003-0.028-0.006-0.05-0.022-0.066c0.083-0.094,0.049-0.279-0.103-0.261
		c-4.485,0.536-9.372-0.618-10.828-5.572c-1.165-3.965,1.998-8.21,6-8.538c1.719-0.141,3.421,0.341,5.047,0.841
		c5.326,1.639,9.611,3.509,15.258,3.301c-0.033,0.013-0.069,0.027-0.101,0.04c-0.178,0.071-0.114,0.347,0.081,0.295
		c4.305-1.157,10.269-4.243,14.495-1.524C48.577,10.648,47.428,15.583,43.329,17.648z"/>
	<path style="fill:#1D1D1B;" d="M15.368,46.799c-0.61,0.117-1.095,0.33-1.722,0.277c-0.032-0.236,0.047-0.433,0.256-0.601
		c0.163-0.131-0.054-0.417-0.226-0.293c-0.383,0.278-0.551,0.696-0.426,1.159c0.019,0.069,0.08,0.14,0.154,0.153
		c0.681,0.127,1.608,0.119,2.139-0.396C15.679,46.966,15.535,46.767,15.368,46.799z"/>
	<path style="fill:#1D1D1B;" d="M15.786,45.569c-0.181,0.012-0.185,0.286,0,0.285c0.132-0.005,0.264,0.002,0.396,0.021
		c0.337,0.164,0.395,0.312,0.172,0.444c-0.192-0.008-0.243,0.314-0.046,0.342c0.329,0.047,0.597-0.201,0.562-0.545
		C16.816,45.59,16.198,45.542,15.786,45.569z"/>
	<path style="fill:#1D1D1B;" d="M17.945,48.175c-0.293,0.215-0.551,0.583-0.911,0.668c-0.538,0.128-0.572-0.632-0.284-0.619
		c0.103,0.005,0.125-0.156,0.024-0.18c-0.561-0.133-0.722,0.624-0.473,1c0.524,0.792,1.619-0.035,1.883-0.63
		C18.248,48.275,18.104,48.058,17.945,48.175z"/>
	<path style="fill:#1D1D1B;" d="M27.95,31.231c-0.172,0.294-0.365,0.61-0.765,0.556c-0.485-0.066-0.601-0.686-0.316-1.023
		c0.157-0.186-0.101-0.454-0.271-0.271c-0.458,0.495-0.379,1.377,0.27,1.678c0.566,0.262,1.498-0.148,1.426-0.847
		C28.276,31.151,28.049,31.06,27.95,31.231z"/>
	<path style="fill:#1D1D1B;" d="M29.85,29.741c-0.486-0.244-1.083-0.179-1.5,0.17c-0.077,0.065,0.032,0.169,0.109,0.109
		c0.388-0.302,0.875-0.198,1.252,0.067c0.373,0.262,0.375,0.556,0.497,0.951c0.045,0.145,0.289,0.213,0.36,0.047
		C30.797,30.55,30.309,29.971,29.85,29.741z"/>
	<path style="fill:#1D1D1B;" d="M30.589,32.21c-0.152,0.268,0.266,0.512,0.413,0.241c0.131,0.067,0.137,0.182,0.019,0.345
		c-0.1,0.047-0.204,0.069-0.312,0.066c-0.179,0.013-0.359-0.032-0.532-0.07c-0.212-0.047-0.299,0.262-0.09,0.325
		c0.468,0.141,1.577,0.262,1.504-0.541C31.547,32.095,30.88,31.698,30.589,32.21z"/>
	<path style="fill:#1D1D1B;" d="M32.279,26.896c-0.134,0.283-0.444,0.563-0.786,0.472c-0.437-0.116-0.487-0.652-0.266-0.969
		c0.104-0.149-0.139-0.34-0.254-0.196c-0.374,0.469-0.317,1.253,0.262,1.546c0.608,0.307,1.315-0.112,1.394-0.758
		C32.652,26.807,32.356,26.733,32.279,26.896z"/>
	<path style="fill:#1D1D1B;" d="M38.35,10.179c-0.521,0.275-1.36-0.071-1.238-0.755c0.037-0.206-0.263-0.297-0.319-0.088
		c-0.251,0.941,1.048,1.915,1.795,1.152C38.747,10.326,38.546,10.075,38.35,10.179z"/>
	<path style="fill:#1D1D1B;" d="M40.335,9.066c-0.239-0.197-0.567-0.282-0.872-0.246c-0.374,0.044-0.497,0.21-0.729,0.468
		c-0.103,0.114,0.056,0.274,0.169,0.169c0.23-0.213,0.765-0.236,1.027-0.068c0.443,0.285,0.293,0.729,0.226,1.143
		c-0.022,0.137,0.116,0.288,0.256,0.197C40.967,10.363,40.792,9.444,40.335,9.066z"/>
	<path style="fill:#1D1D1B;" d="M40.682,11.839c-0.493,0.273-1.003,0.466-1.494,0.051c-0.168-0.142-0.394,0.077-0.244,0.244
		c0.499,0.553,1.585,0.691,2.007-0.025C41.054,11.936,40.852,11.745,40.682,11.839z"/>
	<path style="fill:#1D1D1B;" d="M7.675,9.21C7.31,9.516,6.931,9.912,6.406,9.614c-0.505-0.288-0.5-1.041-0.128-1.423
		c0.144-0.148-0.07-0.355-0.224-0.224C5.449,8.483,5.432,9.52,6.125,9.977c0.593,0.392,1.78,0.186,1.877-0.632
		C8.023,9.163,7.787,9.116,7.675,9.21z"/>
	<path style="fill:#1D1D1B;" d="M9.132,7.933c-0.3-0.481-0.806-0.777-1.373-0.777c-0.253,0-0.249,0.375,0,0.39
		C8.199,7.574,8.552,7.84,8.75,8.229c0.194,0.38,0.075,0.68,0.102,1.069C8.864,9.461,9.05,9.546,9.174,9.431
		C9.573,9.061,9.384,8.337,9.132,7.933z"/>
	<path style="fill:#1D1D1B;" d="M8.627,11.371c-0.012-0.134-0.103-0.244-0.245-0.246C7.84,11.12,7.3,11.113,6.759,11.107
		c-0.277-0.003-0.274,0.415,0,0.429c0.463,0.023,0.927,0.046,1.39,0.069c0.012,0.26,0.027,0.519,0.103,0.769
		c0.054,0.178,0.365,0.213,0.397,0C8.699,12.036,8.658,11.712,8.627,11.371z"/>
	<path style="fill:#1D1D1B;" d="M32.07,40.921c-0.2,0.607-1.066,0.403-0.88-0.252c0.051-0.178-0.232-0.31-0.309-0.13
		c-0.198,0.465-0.035,1.044,0.492,1.202c0.542,0.162,1.01-0.252,1.066-0.77C32.463,40.751,32.133,40.729,32.07,40.921z"/>
	<path style="fill:#1D1D1B;" d="M34.151,39.937c-0.255-0.352-0.673-0.487-1.09-0.393c-0.118,0.026-0.095,0.227,0.029,0.214
		c0.306-0.032,0.564,0.16,0.706,0.418c0.14,0.253,0.085,0.453,0.028,0.716c-0.043,0.198,0.205,0.375,0.358,0.209
		C34.483,40.778,34.396,40.274,34.151,39.937z"/>
	<path style="fill:#1D1D1B;" d="M35.246,43.553c-0.188,0.289-0.362,0.674-0.678,0.847c-0.195,0.107-0.415,0.126-0.596-0.022
		c-0.191-0.157-0.3-0.43-0.083-0.623c0.123-0.11-0.043-0.332-0.179-0.232c-0.504,0.373-0.236,1.115,0.29,1.336
		c0.745,0.312,1.457-0.503,1.603-1.156C35.651,43.486,35.368,43.365,35.246,43.553z"/>
	<path style="fill:#1D1D1B;" d="M19.479,24.879c-0.29,0.216-0.515,0.515-0.832,0.697c-0.417,0.24-1.325,0.132-1.141-0.559
		c0.048-0.18-0.212-0.245-0.275-0.076c-0.203,0.547,0.249,1.057,0.781,1.156c0.677,0.125,1.373-0.444,1.692-0.992
		C19.782,24.972,19.617,24.776,19.479,24.879z"/>
	<path style="fill:#1D1D1B;" d="M18.205,23.036c-0.121-0.197-0.471-0.281-0.681-0.288c-0.549-0.018-1.014,0.314-1.121,0.851
		c-0.027,0.134,0.156,0.183,0.204,0.056c0.137-0.365,0.568-0.587,0.944-0.529c0.457,0.07,0.278,0.559,0.386,0.904
		c0.045,0.142,0.274,0.162,0.308,0C18.301,23.769,18.351,23.274,18.205,23.036z"/>
	<path style="fill:#1D1D1B;" d="M19.344,12.847c-0.307,0.157-0.592,0.353-0.877,0.546c-0.28-0.19-0.474-0.434-0.562-0.775
		c-0.054-0.208-0.359-0.119-0.319,0.088c0.094,0.479,0.355,0.849,0.768,1.109c0.059,0.037,0.143,0.036,0.202,0
		c0.347-0.213,0.696-0.419,1.016-0.672C19.747,13.003,19.524,12.755,19.344,12.847z"/>
	<path style="fill:#1D1D1B;" d="M21.755,11.616c-0.469-0.621-1.258-1.006-2.016-0.707c-0.139,0.055-0.088,0.259,0.063,0.227
		c0.669-0.143,1.268,0.217,1.615,0.779c0.365,0.592,0.229,1.014,0.057,1.626c-0.063,0.224,0.201,0.333,0.358,0.209
		C22.465,13.247,22.165,12.159,21.755,11.616z"/>
</g>
<g>
</g>
<g>
</g>
<g>
</g>
<g>
</g>
<g>
</g>
<g>
</g>
<g>
</g>
<g>
</g>
<g>
</g>
<g>
</g>
<g>
</g>
<g>
</g>
<g>
</g>
<g>
</g>
<g>
</g>
</svg>
