<?xml version="1.0" encoding="iso-8859-1"?>
<!-- Generator: Adobe Illustrator 18.0.0, SVG Export Plug-In . SVG Version: 6.00 Build 0)  -->
<!DOCTYPE svg PUBLIC "-//W3C//DTD SVG 1.1//EN" "http://www.w3.org/Graphics/SVG/1.1/DTD/svg11.dtd">
<svg version="1.1" id="Capa_1" xmlns="http://www.w3.org/2000/svg" xmlns:xlink="http://www.w3.org/1999/xlink" x="0px" y="0px"
	 viewBox="0 0 54.389 54.389" style="enable-background:new 0 0 54.389 54.389;" xml:space="preserve">
<g>
	<path style="fill:#1D1D1B;" d="M54.011,34.464c-0.359-1.618-1.806-3.053-3.542-2.831C48.27,21.208,40.284,13.627,29.075,14.049
		c1.042-1.959-0.802-4.313-2.966-3.491c-1.72,0.652-1.904,2.745-0.766,3.86C14.659,16.078,5.499,22.698,4.198,33.696
		c-1.47-0.16-2.861,0.401-3.647,1.713c-0.744,1.243-0.798,3.092,0.232,4.186c0.113,0.119,0.337-0.004,0.282-0.164
		c-0.088-0.258-0.17-0.516-0.241-0.773c1.187,2.946,5.513,3.354,8.221,3.943c6.179,1.345,12.553,1.577,18.852,1.29
		c5.98-0.272,12.183-0.753,18.054-1.968c4.089-0.846,7.575-2.693,8.431-7.049C54.433,34.618,54.208,34.452,54.011,34.464z
		 M26.371,11.146c1.618-0.569,2.925,1.208,2.102,2.643c-0.056,0.098-0.055,0.192-0.022,0.272c-0.004,0-0.008,0-0.012,0
		c-0.859,0.055-1.71,0.151-2.554,0.268C24.884,13.433,24.902,11.662,26.371,11.146z M28.439,14.788
		c12.248-0.754,20.582,8.222,21.765,19.978c0.006,0.064,0.027,0.118,0.055,0.164c-7.575,4.59-15.468,4.454-24.065,4.475
		c-7.226,0.018-15.031,0.831-21.419-3.197c-0.093-0.059-0.173-0.027-0.231,0.029C5.313,23.074,15.75,15.569,28.439,14.788z
		 M38.745,42.255c-3.903,0.478-7.823,0.875-11.753,1.039c-3.599,0.15-7.21,0.132-10.799-0.195
		C12.45,42.757,3.09,42.233,0.964,38.384c-0.048-0.086-0.168-0.065-0.21,0.004c-0.218-0.903-0.247-1.799,0.287-2.692
		c0.637-1.068,1.909-1.731,3.135-1.802c-0.112,1.026-0.164,2.084-0.135,3.185c0.008,0.296,0.453,0.297,0.461,0
		c0.005-0.185,0.019-0.364,0.028-0.547c0.012,0.015,0.012,0.034,0.03,0.047c6.257,4.446,14.354,3.558,21.636,3.546
		c8.863-0.015,16.894,0.175,24.635-4.694c0.201-0.126,0.201-0.35,0.102-0.506c0.017-0.045,0.024-0.098,0.018-0.158
		c-0.084-0.878-0.212-1.74-0.372-2.586c0.865,0.117,1.591,0.361,2.239,1.026c0.427,0.438,0.742,0.967,0.919,1.539
		C52.221,41.473,44.198,41.587,38.745,42.255z"/>
</g>
<g>
</g>
<g>
</g>
<g>
</g>
<g>
</g>
<g>
</g>
<g>
</g>
<g>
</g>
<g>
</g>
<g>
</g>
<g>
</g>
<g>
</g>
<g>
</g>
<g>
</g>
<g>
</g>
<g>
</g>
</svg>
