<?xml version="1.0" encoding="iso-8859-1"?>
<!-- Generator: Adobe Illustrator 18.0.0, SVG Export Plug-In . SVG Version: 6.00 Build 0)  -->
<!DOCTYPE svg PUBLIC "-//W3C//DTD SVG 1.1//EN" "http://www.w3.org/Graphics/SVG/1.1/DTD/svg11.dtd">
<svg version="1.1" id="Capa_1" xmlns="http://www.w3.org/2000/svg" xmlns:xlink="http://www.w3.org/1999/xlink" x="0px" y="0px"
	 viewBox="0 0 55.658 55.658" style="enable-background:new 0 0 55.658 55.658;" xml:space="preserve">
<g>
	<path style="fill:#1D1D1B;" d="M37.247,25.3c-0.197-0.657-0.806-1.088-1.459-0.974c0.063-0.035,0.118-0.09,0.148-0.177
		c0.697-2.053,0.716-4.066,0.184-5.784c0.013,0.004,0.019,0.017,0.034,0.019c0.747,0.093,1.187-0.596,1.256-1.266
		c0.104-1.015-0.736-1.794-0.915-2.753c0.459-0.924,0.759-2.207-0.175-2.898c-0.419-0.31-0.965-0.392-1.396-0.197
		c0.049-0.377,0.098-0.755,0.138-1.133c0.037,0.253,0.457,0.312,0.506,0.031c0.865-4.992-3.769-10.822-9.009-10.108
		c-5.214,0.711-8.103,6.314-5.93,10.986c0.022,0.047,0.059,0.071,0.1,0.08c0.13,0.39,0.27,0.778,0.41,1.166
		c-0.35-0.02-0.687,0.142-0.967,0.456c-0.774,0.87-0.235,2.04-0.483,3.064c-0.692,0.531-1.351,1.171-1.441,2.074
		c-0.072,0.719,0.33,1.899,1.213,1.848c0.126-0.007,0.236-0.184,0.116-0.279c-0.641-0.509-1.063-1.017-0.783-1.893
		c0.174-0.543,0.58-0.99,1.009-1.387c0.12,0.051,0.276,0.025,0.328-0.137c0.015-0.046,0.026-0.114,0.036-0.191
		c0.052-0.046,0.106-0.094,0.157-0.138c0.108-0.094-0.001-0.26-0.121-0.246c0.076-1.114,0.114-3.184,1.212-2.568
		c0.236,0.133,0.44-0.124,0.344-0.344c-0.269-0.618-0.563-1.221-0.86-1.823c-1.303-4.646,1.13-9.954,6.479-10.117
		c4.493-0.137,7.471,4.576,7.667,8.669c-0.037,0.003-0.073,0.019-0.083,0.061c-0.199,0.82-0.417,1.632-0.575,2.461
		c-0.047,0.246,0.291,0.424,0.425,0.179c0.259-0.338,0.565-0.435,0.917-0.292c0.5,0.18,0.739,0.563,0.715,1.149
		c0.02,0.575-0.286,1.164-0.463,1.697c-0.065,0.197,0.211,0.31,0.327,0.158c0.071,0.394,0.219,0.759,0.38,1.139
		c0.251,0.593,0.672,2.232-0.535,2.137c-0.062-0.005-0.105,0.017-0.138,0.047c-1.089-3.008-3.967-4.988-8.051-4.387
		c-6.179,0.909-9.793,4.975-7.593,11.158c-0.017,0.013-0.033,0.027-0.049,0.04c-0.039-0.019-0.083-0.027-0.127,0.002
		c-1.313,0.847-0.586,2.59-1.049,3.848c-0.266,0.723-0.57,1.104-0.224,1.866c0.237,0.521,0.703,0.936,1.203,1.223
		c0.129,1.136,0.003,2.428,1.039,3.172c0.396,0.284,1.242,0.523,1.741,0.263c1.544,6.811,3.283,13.623,5.299,20.258
		c0.081,0.267,0.457,0.264,0.539,0c1.775-5.693,3.257-11.439,4.448-17.253c1.079,0.201,2.162-0.315,2.421-1.478
		c0.114-0.514-0.071-0.802-0.085-1.287c-0.033-1.177,0.144-2.251,0.427-3.394c0.304-1.229,0.46-2.408,0.408-3.683
		c-0.001-0.024-0.015-0.035-0.023-0.053C36.715,27.312,37.579,26.403,37.247,25.3z M36.425,27.096
		c-0.103,0.223-0.222,0.438-0.313,0.667c-0.21,0.528-0.267,1.013-0.155,1.554c-0.183,1.291-0.461,2.42-0.892,3.728
		c-0.394,1.193,0.459,5.074-1.806,4.843c0.756-3.725,1.392-7.476,1.901-11.261c0.052-0.389-0.56-0.385-0.612,0
		c0,0.003-0.001,0.006-0.001,0.01c-0.2-0.456-0.953-0.333-1.325-0.1c-0.607,0.381-0.641,1.122-0.949,1.683
		c-0.077-0.034-0.171-0.02-0.193,0.087c-0.021,0.075-0.032,0.152-0.046,0.229c-0.04,0.041-0.078,0.083-0.126,0.119
		c-0.181-0.099-0.361-0.198-0.542-0.296c-0.168-0.296,0.067-0.883,0.108-1.228c0.037-0.311,0.069-0.624-0.055-0.92
		c-0.204-0.487-0.806-0.924-1.318-0.615c-0.266,0.161-0.252,0.458-0.438,0.66c-0.512,0.56-0.719-0.389-1.003-0.687
		c-0.327-0.343-0.788-0.479-1.086-0.062c-0.1,0.14,0.121,0.307,0.237,0.183c0.374-0.399,0.865,0.842,1.015,1.007
		c0.133,0.147,0.288,0.291,0.497,0.315c0.701,0.08,0.519-0.623,0.886-0.914l0.632,0.018c0.217,0.294,0.285,0.604,0.205,0.929
		c-0.011,0.268-0.097,0.53-0.12,0.797c-0.025,0.307-0.013,0.575,0.129,0.856c0.241,0.476,0.669,0.731,1.184,0.564
		c0.091-0.03,0.147-0.105,0.152-0.199c0.016-0.123-0.004-0.245-0.007-0.368c0.252-0.27,0.395-0.616,0.547-0.973
		c0.233-0.546,0.738-1.247,1.351-0.721c0.059,0.051,0.142,0.058,0.209,0.031c-0.64,4.712-1.436,9.395-2.462,14.038
		c-0.323,1.463-2.392,12.496-3.537,12.487c-1.04-0.008-3.563-11.134-5.243-18.796c0.008-0.028,0.025-0.047,0.031-0.078
		c0.017-0.089-0.027-0.165-0.093-0.205c-0.7-3.195-1.241-5.728-1.455-6.529c0.035-0.546,0.453-1.112,1.032-1.052
		c0.483,0.05,0.727,0.429,0.789,0.85c-0.032,0.018-0.058,0.045-0.056,0.089c0.005,0.148,0.02,0.294,0.043,0.44
		c-0.015,0.078-0.035,0.154-0.062,0.224c-0.044,0.117,0.053,0.198,0.156,0.207c0.243,0.874,0.786,1.673,1.471,2.27
		c0.498,0.434,1.233,0.685,1.568-0.04c0.451-0.979-0.672-1.944-0.424-2.921c0.2-0.789,1.958-1.49,0.998-2.459
		c-0.153-0.155-0.38,0.041-0.29,0.224c0.419,0.854-0.795,1.248-1.079,1.888c-0.21,0.474-0.098,0.949,0.038,1.425
		c0.081,0.282,0.245,0.569,0.284,0.86c0.238,0.517-0.013,0.743-0.751,0.68c-0.104-0.098-0.2-0.202-0.29-0.313
		c-0.502-0.459-0.974-1.156-1.244-1.85c0.529-0.801-0.234-2.053-1.172-2.085c-0.795-0.027-1.326,0.672-1.344,1.387
		c-0.049,0.042-0.085,0.1-0.068,0.182c0.461,2.213,0.942,4.433,1.442,6.653c-0.213,0.124-0.405,0.219-0.708,0.166
		c-0.412-0.072-0.794-0.355-1.009-0.705c-0.37-0.601-0.452-1.409-0.591-2.146c0.156,0.015,0.296-0.156,0.157-0.29
		c-0.085-0.082-0.182-0.159-0.278-0.236c-0.009-0.031-0.013-0.067-0.022-0.098c-0.027-0.09-0.108-0.104-0.172-0.076
		c-0.03-0.028-0.065-0.053-0.092-0.083c-0.382-0.414-0.705-1.335-0.619-1.909c0.052-0.344,0.339-0.7,0.401-1.074
		c0.127-0.77-0.144-1.79,0.156-2.548c0.057,0.005,0.114-0.014,0.161-0.07c0.135-0.163,0.258-0.336,0.383-0.507
		c0.104,0.024,0.225-0.046,0.193-0.186c-0.004-0.017-0.007-0.034-0.011-0.051c0.028-0.035,0.054-0.074,0.083-0.108
		c0.083-0.096-0.043-0.225-0.138-0.143c-0.438-1.979-0.687-3.97,0.073-5.899c0.988-2.507,3.458-3.527,5.896-4.079
		c2.603-0.59,5.212-0.664,7.371,1.224c2.304,2.014,2.052,5.549,1.324,8.19c-0.063,0.229,0.109,0.373,0.29,0.382
		c-0.287,0.097-0.168,0.545,0.131,0.462C37.357,24.377,36.693,26.519,36.425,27.096z"/>
	<path style="fill:#1D1D1B;" d="M31.049,3.681c-0.168-0.077-0.316,0.163-0.147,0.252c0.655,0.347,0.59,0.994,0.348,1.573
		c-0.066,0.158,0.155,0.237,0.259,0.15C32.162,5.109,31.713,3.987,31.049,3.681z"/>
	<path style="fill:#1D1D1B;" d="M31.829,6.234c-0.348,0.39-1.158,0.202-1.08-0.404c0.015-0.119-0.188-0.147-0.211-0.029
		c-0.152,0.782,1.133,1.377,1.497,0.593C32.095,6.267,31.936,6.114,31.829,6.234z"/>
	<path style="fill:#1D1D1B;" d="M30.327,3.312c-0.04-0.129-0.241-0.142-0.275,0c-0.022,0.133-0.073,0.255-0.155,0.366
		c-0.497,0.056-0.667-0.1-0.509-0.469c0.088-0.168-0.159-0.314-0.255-0.149c-0.219,0.377-0.078,0.933,0.383,1.052
		C29.983,4.232,30.47,3.775,30.327,3.312z"/>
	<path style="fill:#1D1D1B;" d="M32.845,17.74c-0.2,0.199-0.547,0.364-0.821,0.186c-0.354-0.23-0.244-0.728,0.039-0.949
		c0.091-0.072-0.027-0.221-0.123-0.16c-0.433,0.273-0.584,0.909-0.211,1.306c0.379,0.404,1.118,0.296,1.335-0.214
		C33.121,17.773,32.966,17.62,32.845,17.74z"/>
	<path style="fill:#1D1D1B;" d="M33.923,17.883c-0.031-0.196-0.055-0.322-0.209-0.431c-0.303-0.216-0.868-0.303-1.202-0.446
		c-0.122-0.052-0.231,0.123-0.107,0.182c0.263,0.125,0.964,0.362,1.096,0.655c0.169,0.378-0.139,0.855-0.188,1.217
		c-0.022,0.162,0.14,0.27,0.273,0.159C33.944,18.92,33.992,18.318,33.923,17.883z"/>
	<path style="fill:#1D1D1B;" d="M34.14,20.155c-0.433,0.148-1.007,0.519-1.46,0.252c-0.276-0.163-0.458-0.888,0.061-0.891
		c0.119-0.001,0.111-0.164,0-0.179c-0.559-0.075-0.749,0.615-0.579,1.044c0.338,0.852,1.563,0.492,2.12,0.111
		C34.445,20.381,34.35,20.083,34.14,20.155z"/>
	<path style="fill:#1D1D1B;" d="M34.56,22.06c-0.257-0.388-0.817-0.804-1.291-0.515c-0.317,0.193-0.447,0.637-0.162,0.907
		c0.133,0.125,0.317-0.063,0.199-0.199c-0.083-0.205-0.018-0.344,0.196-0.419c0.183-0.005,0.34,0.047,0.471,0.157
		c0.135,0.077,0.253,0.187,0.385,0.271C34.481,22.339,34.642,22.183,34.56,22.06z"/>
</g>
<g>
</g>
<g>
</g>
<g>
</g>
<g>
</g>
<g>
</g>
<g>
</g>
<g>
</g>
<g>
</g>
<g>
</g>
<g>
</g>
<g>
</g>
<g>
</g>
<g>
</g>
<g>
</g>
<g>
</g>
</svg>
