<?xml version="1.0" encoding="iso-8859-1"?>
<!-- Generator: Adobe Illustrator 18.0.0, SVG Export Plug-In . SVG Version: 6.00 Build 0)  -->
<!DOCTYPE svg PUBLIC "-//W3C//DTD SVG 1.1//EN" "http://www.w3.org/Graphics/SVG/1.1/DTD/svg11.dtd">
<svg version="1.1" id="Capa_1" xmlns="http://www.w3.org/2000/svg" xmlns:xlink="http://www.w3.org/1999/xlink" x="0px" y="0px"
	 viewBox="0 0 56.609 56.609" style="enable-background:new 0 0 56.609 56.609;" xml:space="preserve">
<g>
	<path style="fill:#1D1D1B;" d="M52.44,14.297C45.443,2.89,31.239-1.24,19.132,3.991c-0.053-0.078-0.139-0.131-0.27-0.117
		C6.729,5.194-0.242,16.449,0.006,28.018c0.262,12.236,6.759,23.099,19.11,25.899c10.367,2.35,24.188,0.471,31.757-7.64
		C58.476,38.132,58.019,23.393,52.44,14.297z M39.17,52.23c-12.02,3.684-28.12,2.28-34.729-9.886
		C-2.915,28.804,0.917,7.096,18.437,4.631c0.057,0.084,0.144,0.145,0.255,0.099C31.733-0.669,46.94,4.078,53.103,17.19
		c2.957,6.292,3.403,14.463,1.382,21.119C52.275,45.589,46.207,50.074,39.17,52.23z"/>
	<path style="fill:#1D1D1B;" d="M44.878,12.7c-9.053-8.296-21.946-7.112-32.324-2.164c-0.178,0.085-0.023,0.346,0.154,0.264
		c9.833-4.539,22.027-6.31,31.016,1.122c8.049,6.655,9.451,20.425,3.672,29.066c-6.404,9.574-19.175,10.262-29.034,6.398
		C6.047,42.56,0.39,26.824,8.21,15.731c0.09-0.128-0.115-0.239-0.206-0.121c-7.354,9.534-3.398,25.229,7.21,30.789
		c9.907,5.193,24.171,5.469,31.66-4.037C53.331,34.164,52.616,19.791,44.878,12.7z"/>
	<path style="fill:#1D1D1B;" d="M28.785,35.458c-0.006-0.073-0.012-0.147-0.016-0.214c-0.04-0.657-0.124-1.329-0.281-1.973
		c0.057-0.049,0.115-0.098,0.16-0.159c0.24-0.322,0.219-0.748,0.21-1.126c-0.016-0.666-0.055-1.333-0.092-1.998
		c-0.008-0.143-0.117-0.273-0.27-0.27c-0.217,0.005-0.306,0.015-0.519,0.052c-0.026,0.004-0.039,0.024-0.058,0.037
		c0.069-0.535,0.095-1.067,0.066-1.606c0.193-0.096,0.35-0.23,0.44-0.423c0.401-0.853,0.04-2.309-0.148-3.187
		c-0.025-0.116-0.146-0.195-0.259-0.197c-0.155-0.003-0.305-0.005-0.455-0.007c-0.001-0.497-0.068-1.038-0.113-1.409
		c0-0.004-0.003-0.005-0.004-0.008c0.287-0.037,0.543-0.105,0.692-0.23c0.239-0.201,0.264-0.363,0.183-0.646
		c-0.176-0.619-0.781-1.31-1.247-1.871c0.102-0.009,0.205-0.018,0.307-0.028c0.217-0.019,0.341-0.185,0.304-0.398
		c-0.131-0.746-0.17-1.608-0.401-2.33c-0.099-0.31-0.169-0.488-0.495-0.616c-0.274-0.108-0.674-0.093-1.052-0.064
		c0.255-0.703,0.078-1.679-0.134-2.424c0.051,0.024,0.108,0.041,0.171,0.023c1.311-0.355,2.035-1.777,1.858-3.083
		c-0.191-1.414-1.443-2.348-2.817-2.457c-1.496-0.119-2.996,0.739-3.469,2.204c-0.434,1.344,0.315,2.764,1.624,3.177
		c0.009,0.02,0.008,0.043,0.033,0.053c0.325,0.125,0.693,0.283,1.053,0.305c-0.011,0.458-0.014,0.913,0.021,1.372
		c0.022,0.294,0.032,0.6,0.096,0.889c-0.4,0.013-0.798,0.049-1.177,0.165c-0.05,0.015-0.075,0.053-0.088,0.094
		c-0.073,0.039-0.134,0.099-0.142,0.208c-0.053,0.742-0.017,1.473,0.086,2.209c0.048,0.341,0.062,0.692,0.367,0.895
		c0.076,0.05,0.173,0.068,0.266,0.089c-0.31,0.71-0.619,1.42-0.891,2.146c-0.067,0.179,0.103,0.334,0.264,0.346
		c0.153,0.011,0.306,0.011,0.459,0.02c-0.018,0.007-0.038,0.007-0.053,0.023c-0.291,0.314-0.514,0.623-0.717,1
		c-0.069,0.127-0.006,0.27,0.128,0.315c0.25,0.084,0.505,0.152,0.757,0.229c-0.016,0.623-0.017,1.247-0.008,1.87
		c0.007,0.45-0.096,1.133,0.149,1.544c0.145,0.243,0.405,0.37,0.706,0.437c-0.432,0.211-0.621,0.682-0.501,1.162
		c0.056,0.223,0.177,0.409,0.331,0.569c-0.099,0.53-0.125,1.064-0.152,1.603c-0.02,0.408-0.149,1.015,0.005,1.418
		c0.097,0.254,0.315,0.398,0.58,0.485c-0.056,0.019-0.104,0.06-0.099,0.129c0.032,0.504,0.035,1.007,0.023,1.511
		c-0.043-0.047-0.099-0.081-0.172-0.06c-0.886,0.255-1.384,1.259-0.992,2.12c0.217,0.475,0.661,0.754,1.186,0.925
		c-0.064,0.451-0.112,0.903-0.147,1.358c-0.017,0.223-0.087,0.499-0.047,0.738c-0.009,0.01-0.022,0.009-0.03,0.022
		c-0.289,0.481-1.312,1.541-0.774,2.101c0.396,0.413,1.399,0.446,2.119,0.494c0.252,1.442,0.585,2.873,0.918,4.298
		c0.063,0.268,0.419,0.177,0.445-0.06c0.153-1.348,0.305-2.696,0.458-4.045c0.23,0.024,0.458,0.059,0.688,0.077
		c0.282,0.021,0.606,0.099,0.863-0.055c0.597-0.357,0.206-1.447,0.125-1.989c-0.018-0.122-0.114-0.171-0.219-0.186
		c0.032-0.026,0.07-0.044,0.097-0.076c0.441-0.518,0.245-1.636,0.121-2.288c0.456-0.147,0.777-0.522,0.919-1.392
		C30.173,36.4,29.705,35.403,28.785,35.458z M24.166,14.182c-0.205-0.059-0.424-0.089-0.648-0.086
		c-0.007-0.043-0.031-0.083-0.088-0.108c-2.816-1.205-1.284-4.859,1.477-4.501c2.404,0.312,2.881,3.411,0.657,4.4
		c-0.07,0.031-0.108,0.082-0.125,0.139c-0.071-0.016-0.152,0.018-0.149,0.109c0.015,0.478,0.033,0.958,0.025,1.436
		c-0.007,0.414-0.081,0.837-0.003,1.244c-0.073,0.005-0.153,0.012-0.216,0.014c-0.146,0.003-0.294,0.004-0.442,0.005
		c-0.009-0.329-0.089-0.662-0.131-0.988c-0.055-0.429-0.106-0.859-0.156-1.288c0.016-0.003,0.033,0,0.049-0.004
		c0.127-0.032,0.14-0.204,0.035-0.27c-0.047-0.03-0.106-0.035-0.157-0.056C24.259,14.189,24.214,14.174,24.166,14.182z
		 M23.394,18.893c-0.06-0.514-0.083-1.033-0.103-1.55c0.856,0.183,1.802,0.111,2.664,0.118c0.691,0.006,0.703,0.166,0.826,0.841
		c0.079,0.431,0.155,0.863,0.232,1.295c-0.922,0.081-1.845,0.16-2.768,0.239C23.479,19.903,23.482,19.641,23.394,18.893z
		 M23.231,22.463c0.212-0.636,0.405-1.277,0.593-1.921c0.375-0.005,0.785-0.099,1.082-0.125c0.538-0.048,1.075-0.096,1.613-0.144
		c0.281,0.511,0.599,0.996,0.917,1.484c0.073,0.112,0.146,0.223,0.219,0.335c0.177,0.158,0.144,0.227-0.098,0.208
		c-0.163,0.128-0.849,0.112-1.021,0.128C25.434,22.526,24.332,22.523,23.231,22.463z M23.035,24.004
		c0.128-0.281,0.266-0.525,0.458-0.786c0.057-0.078,0.006-0.159-0.067-0.195c0.9,0.049,1.799,0.064,2.701,0.007
		c0.191-0.012,0.496-0.009,0.816-0.021c-0.049,0.473-0.03,0.949-0.025,1.425c-0.035,0.005-0.069,0.003-0.104,0.01
		c-0.196,0.04-0.186,0.34,0,0.387c0.024,0.006,0.047,0.005,0.07,0.01c-0.081,0.285-0.328,0.087-0.861-0.056
		C25.03,24.516,24.037,24.238,23.035,24.004z M23.97,26.785c-0.049-0.699-0.115-1.399-0.194-2.096
		c0.419,0.125,0.836,0.258,1.256,0.38c0.519,0.151,1.422,0.623,1.96,0.526c0.276-0.05,0.385-0.151,0.479-0.419
		c0.026-0.074,0.032-0.172,0.047-0.26c0.089,0.004,0.179,0.006,0.269,0.008c0.104,0.656,0.259,1.514,0.124,2.137
		c-0.199,0.919-1.62,0.777-2.4,0.795c-0.249,0.006-0.802,0.076-1.038-0.009C23.889,27.639,24.002,27.237,23.97,26.785z
		 M24.49,28.692c0.068-0.05,0.084-0.141,0.06-0.212c0.523,0.054,1.111-0.024,1.479-0.04c0.352-0.015,0.895,0.009,1.384-0.072
		c-0.003,0.346-0.004,0.691-0.033,1.036c-0.051,0.622-0.04,1.216-0.802,1.151c-0.438-0.037-0.874-0.131-1.284-0.291
		C24.817,30.079,23.569,29.363,24.49,28.692z M24.434,32.094c-0.007-0.568-0.011-1.137-0.066-1.702
		c0.31,0.223,0.687,0.378,1.02,0.489c0.552,0.184,1.699,0.52,2.2,0.059c0.214-0.197,0.262-0.526,0.296-0.82
		c0.025,0.028,0.052,0.055,0.093,0.064c0.106,0.024,0.181,0.038,0.256,0.049c0.018,0.578,0.079,1.191,0.02,1.754
		c-0.129,1.234-1.268,1.173-2.224,1.201c-0.269,0.008-0.706,0.054-0.968-0.018C24.298,32.962,24.441,32.629,24.434,32.094z
		 M28.03,35.977c-0.28,0.329-1.011,0.216-1.433,0.209c-0.54-0.01-1.076-0.059-1.611-0.131c-0.025-0.772-0.102-1.532-0.248-2.293
		c-0.004-0.02-0.019-0.028-0.029-0.042c0.502,0.111,1.119,0.051,1.481,0.041c0.49-0.014,1.223-0.01,1.798-0.212
		c0.033,0.28,0.067,0.56,0.091,0.841C28.115,34.811,28.311,35.647,28.03,35.977z M26.668,45.947
		c-0.234-0.975-0.478-1.949-0.759-2.91c0.044,0.004,0.094,0.008,0.133,0.013c0.313,0.042,0.628,0.068,0.942,0.105
		C26.879,44.086,26.773,45.017,26.668,45.947z M28.328,42.705c-0.462,0.142-1.395-0.11-1.871-0.16
		c-0.582-0.06-1.477-0.018-2.001-0.251c-0.138-0.021-0.276-0.042-0.414-0.063c-0.108-0.269-0.092-0.514,0.051-0.735
		c0.075-0.262,0.242-0.544,0.374-0.798c0.084,0.072,0.18,0.115,0.302,0.15c0.542,0.154,1.18,0.139,1.741,0.202
		c0.502,0.056,1.446,0.346,2.07,0.164c-0.013,0.033-0.04,0.058-0.036,0.101c0.023,0.276,0.077,0.56,0.085,0.837
		C28.645,42.752,28.744,42.577,28.328,42.705z M24.811,38.383c0.78,0.186,1.664,0.196,2.26,0.257
		c0.564,0.058,1.062,0.136,1.488,0.131c-0.009,0.577,0.226,1.578-0.38,1.851c-0.181,0.081-0.644-0.061-0.834-0.079
		c-0.334-0.032-0.667-0.063-1.001-0.095c-0.278-0.026-0.557-0.044-0.834-0.078c-0.173,0.001-0.342-0.022-0.507-0.071
		c-0.214,0.008-0.27-0.106-0.169-0.342C24.726,39.491,24.81,38.899,24.811,38.383z M29.343,37.519
		c-0.116,0.294-0.191,0.557-0.547,0.661c-0.489,0.143-1.447-0.104-1.941-0.15c-0.63-0.058-1.373-0.045-1.974-0.236
		c-0.488-0.155-1.136-0.586-1.15-1.108c-0.013-0.446,0.316-0.896,0.708-1.094c0.01-0.005,0.01-0.015,0.018-0.021
		c-0.009,0.246-0.013,0.492-0.032,0.738c-0.009,0.117,0.095,0.256,0.212,0.278c0.745,0.144,1.494,0.228,2.253,0.23
		c0.465,0.001,1.267,0.096,1.656-0.259c0.108-0.098,0.165-0.224,0.203-0.358c0.239,0.209,0.477,0.417,0.716,0.626
		C29.423,37.058,29.383,37.288,29.343,37.519z"/>
	<path style="fill:#1D1D1B;" d="M25.39,10.297c-0.801-0.436-1.792-0.2-2.202,0.639c-0.318,0.651-0.26,1.927,0.574,2.18
		c0.002,0.001,0.003-0.001,0.005,0c0.013,0.024,0.022,0.05,0.05,0.065c0.775,0.431,1.779,0.157,2.273-0.576
		C26.651,11.774,26.218,10.749,25.39,10.297z M24.019,12.884c-0.003-0.026-0.003-0.052-0.019-0.077
		c-0.154-0.233-0.35-0.379-0.44-0.659c-0.088-0.276-0.087-0.586,0.004-0.861c0.231-0.694,0.957-0.928,1.588-0.586
		C26.588,11.48,25.351,13.343,24.019,12.884z"/>
	<path style="fill:#1D1D1B;" d="M34.284,41.851c1.224-0.021,2.453-0.185,3.659-0.384c0.14-0.023,0.242-0.184,0.242-0.318
		c-0.002-0.66-0.012-1.32-0.021-1.98c-0.002-0.172-0.142-0.312-0.314-0.314c-0.215-0.003-0.422-0.003-0.63,0.004
		c0.076-0.139,0.119-0.299,0.138-0.481c0.069-0.677,0.054-1.467-0.058-2.154c0.066-0.07,0.125-0.152,0.169-0.262
		c0.333-0.834,0.304-1.879-0.058-2.685c-0.057-0.128-0.18-0.162-0.296-0.139c0.015-0.131,0.01-0.269-0.007-0.414
		c-0.06-0.516-0.147-1.095-0.336-1.596c0.259-0.038,0.49-0.116,0.632-0.276c0.436-0.49-0.013-1.788-0.174-2.266
		c-0.034-0.1-0.115-0.141-0.198-0.15c0.01-0.024,0.026-0.042,0.035-0.069c0.165-0.491-0.069-1.194-0.153-1.673
		c-0.124-0.71-0.254-1.419-0.382-2.129c-0.014-0.076-0.05-0.126-0.094-0.162c-0.047-0.426-0.093-0.852-0.149-1.277
		c0.061-0.031,0.13-0.05,0.184-0.092c0.939-0.729,0.231-1.884-0.397-2.54c0.061-0.022,0.128-0.038,0.184-0.065
		c0.742-0.356,0.288-1.456,0.103-2.036c-0.046-0.145-0.204-0.189-0.331-0.154c0.027-0.688,0.127-1.473-0.012-2.118
		c-0.075-0.35-0.24-0.561-0.594-0.642c-0.153-0.035-0.67,0.033-1.278,0.145c-0.017-0.231-0.045-0.462-0.056-0.692
		c-0.019-0.372-0.027-0.745-0.036-1.118c1.296-0.122,2.196-1.364,1.988-2.654c-0.251-1.552-1.953-2.44-3.406-2.391
		c-1.534,0.051-2.825,1.198-2.814,2.778c0.01,1.431,1.222,2.495,2.594,2.494c0.038,0.377,0.083,0.752,0.132,1.127
		c0.035,0.268,0.063,0.523,0.15,0.768c-0.454,0.113-0.84,0.227-1.044,0.317c-0.013-0.036-0.049-0.068-0.087-0.067
		c-0.08,0.003-0.123,0.007-0.157,0.025c-0.147,0.033-0.273,0.164-0.228,0.359c0.192,0.827,0.43,1.645,0.65,2.465
		c0.002,0.008,0.008,0.014,0.011,0.022c-0.567,0.601-0.274,1.465,0.057,2.109c0.057,0.11,0.19,0.147,0.303,0.123
		c0.001,0,0.003,0,0.004-0.001c-0.114,0.621-0.35,1.186-0.723,1.723c-0.114,0.163,0.039,0.382,0.22,0.384
		c0.133,0.001,0.267-0.008,0.4-0.008c-0.327,0.399-0.208,1.053,0.198,1.409c0.085,0.075,0.182,0.129,0.281,0.177
		c0,0.002-0.002,0.003-0.002,0.005c-0.081,0.711-0.089,1.428-0.119,2.143c-0.019,0.455-0.183,1.141-0.013,1.581l0,0
		c-0.203,0.042-0.408,0.074-0.613,0.128c-0.132,0.035-0.222,0.186-0.181,0.319c0.169,0.548,0.325,1.669,0.876,2.018
		c0.074,0.047,0.158,0.077,0.246,0.095c-0.16,0.731-0.174,1.46-0.043,2.198c-0.198,0.005-0.397,0.039-0.614,0.097
		c-0.13,0.035-0.189,0.165-0.164,0.289c0.137,0.706,0.143,1.905,0.844,2.316c0.115,0.067,0.247,0.118,0.386,0.161
		c-0.001,0.882-0.049,1.742-0.194,2.613c-0.983,0.209-1.543,1.332-0.792,2.265c0.155,0.193,0.349,0.317,0.555,0.414
		c-0.241,0.452-0.405,1.066-0.082,1.493c0.323,0.427,0.994,0.426,1.591,0.382c0.001,0.006-0.004,0.01-0.003,0.017
		c0.22,1.062,0.518,2.109,0.8,3.155c0.05,0.185,0.332,0.19,0.38,0c0.264-1.042,0.537-2.082,0.806-3.123
		c0.007-0.028-0.009-0.045-0.011-0.07c0.532-0.008,1.058-0.079,1.425-0.375c0.473-0.381,0.536-0.966,0.171-1.421
		c-0.217-0.27-0.572,0.074-0.447,0.345c0.424,0.922-2.37,0.823-2.748,0.833c-0.269,0.007-0.751,0.09-1.012,0.028
		c-0.813-0.195-0.689-0.643-0.541-1.138C33.471,41.842,33.889,41.858,34.284,41.851z M34.978,43.441
		c0.249-0.003,0.54,0.013,0.842,0.023c-0.191,0.785-0.382,1.569-0.574,2.354c-0.211-0.789-0.426-1.577-0.684-2.351
		C34.713,43.454,34.857,43.443,34.978,43.441z M36.321,27.177c0.095,0.594,0.202,1.215-0.584,1.291
		c-0.409,0.039-0.833,0.018-1.243,0.024c-0.356,0.005-0.838,0.1-1.183,0.017c-0.449-0.107-0.345-0.513-0.363-0.929
		c-0.035-0.839-0.036-1.685-0.123-2.52c0.306,0.09,0.64,0.108,0.95,0.104c0.738-0.011,1.477-0.069,2.214-0.111
		C36.099,25.76,36.208,26.469,36.321,27.177z M32.64,9.404c0.954-0.044,2.023,0.377,2.537,1.217
		c0.602,0.983,0.095,2.435-1.126,2.579c-0.019,0.002-0.032,0.011-0.049,0.016c-0.08-0.101-0.271-0.069-0.288,0.095
		c-0.073,0.73-0.206,1.629-0.127,2.423c-0.147,0.031-0.294,0.063-0.44,0.096c-0.008-0.275-0.1-0.543-0.166-0.814
		c-0.08-0.33-0.166-0.659-0.255-0.986c0.21-0.045,0.214-0.344-0.019-0.36C29.913,13.482,29.726,9.538,32.64,9.404z M31.844,16.689
		c0.619-0.083,1.233-0.244,1.851-0.37c0.005,0.019,0.005,0.041,0.011,0.06c0.061,0.191,0.393,0.233,0.431,0
		c0.008-0.047,0.007-0.095,0.012-0.143c0.028-0.004,0.055-0.011,0.083-0.015c0.201-0.029,0.608-0.156,0.811-0.095
		c0.421,0.127,0.322,0.369,0.321,0.686c-0.002,0.441-0.004,0.883-0.005,1.324c-1.024-0.075-2.018,0.055-2.986,0.396
		C32.2,17.917,32.03,17.301,31.844,16.689z M32.117,19.791c0.017-0.183,0.091-0.395,0.213-0.559
		c0.222-0.083,0.444-0.155,0.667-0.215c0.047,0.016,0.092,0.028,0.142,0.057c0.069,0.039,0.152-0.057,0.091-0.112
		c0.801-0.188,1.614-0.239,2.458-0.139c0.089,0.011,0.171-0.031,0.232-0.096c0.047,0.224,0.103,0.449,0.112,0.667
		c-0.025,0.178-0.05,0.357-0.076,0.535c-0.108,0.024-0.216,0.047-0.324,0.07c-0.225,0.115-0.567,0.123-0.811,0.176
		c-0.785,0.17-1.571,0.34-2.356,0.511c-0.05-0.014-0.102-0.007-0.141,0.031c-0.013,0.003-0.026,0.006-0.039,0.009
		C32.142,20.419,32.081,20.175,32.117,19.791z M32.55,21.217c0.59-0.124,1.18-0.248,1.769-0.372c0.352-0.074,0.782-0.12,1.191-0.198
		c0.007,0.055,0.025,0.111,0.074,0.163c0.496,0.529,1.343,1.28-0.088,1.919c-0.284,0.127-0.835,0.049-1.136,0.064
		c-0.744,0.037-1.488,0.055-2.232,0.077C32.377,22.344,32.516,21.8,32.55,21.217z M32.501,23.379
		c0.746-0.006,1.493-0.013,2.238-0.043c0.303-0.012,0.663-0.001,1.005-0.045c0.037,0.397,0.08,0.794,0.127,1.19
		c-0.621,0.041-1.242,0.086-1.863,0.12c-0.356,0.02-0.735,0.06-1.082-0.049C32.465,24.407,31.963,23.783,32.501,23.379z
		 M32.299,29.358c0.047-0.186,0.187-0.302,0.348-0.397c0.135,0.104,0.308,0.142,0.516,0.162c0.629,0.061,1.291,0.004,1.923,0.006
		c0.533,0.002,1.267,0.026,1.696-0.344c0.033,0.489,0.284,1.401,0.068,1.671c-0.157,0.196-1.738,0.115-2.048,0.136
		c-0.683,0.045-1.456,0.302-1.941-0.212C32.705,30.215,32.224,29.652,32.299,29.358z M36.442,32.634
		c-0.06,0.45-0.318,0.538-0.694,0.563c-0.821,0.055-1.642,0.105-2.462,0.166c-0.194-0.689-0.248-1.373-0.157-2.081
		c0.156-0.005,0.311-0.02,0.443-0.027c0.615-0.031,1.229-0.071,1.844-0.106c0.213-0.012,0.515,0.009,0.826,0.01
		c-0.002,0.277,0.039,0.545,0.086,0.825C36.36,32.173,36.468,32.442,36.442,32.634z M33.025,35.464
		c-0.237-0.231-0.409-0.651-0.409-0.996c-0.033-0.125-0.066-0.25-0.098-0.375c0.087-0.131,0.194-0.22,0.314-0.28
		c0.052,0.083,0.138,0.149,0.234,0.146c0.753-0.031,1.506-0.074,2.258-0.113c0.449-0.023,1.119,0.063,1.515-0.22
		c0.018-0.013,0.025-0.028,0.041-0.042c0.104,0.331,0.157,0.651,0.153,1.002c-0.002,0.21,0.019,0.952-0.17,1.12
		c-0.365,0.323-1.494,0.138-1.959,0.123C34.278,35.808,33.474,35.903,33.025,35.464z M33.526,36.406
		c0.758,0.141,1.693,0.069,2.319,0.074c0.302,0.002,0.624,0.037,0.909-0.001c-0.001,0.782,0.179,1.963-0.362,2.249
		c-0.782,0.413-1.967,0.299-2.842,0.116C33.606,38.033,33.611,37.215,33.526,36.406z M32.905,41.031
		c-0.365-0.942-0.291-1.52,0.207-1.747c0.025,0.018,0.038,0.048,0.072,0.057c1.005,0.281,2.46,0.449,3.475-0.022
		c0.031,0.037,0.068,0.072,0.135,0.082c0.249,0.038,0.492,0.055,0.739,0.067c-0.004,0.467-0.006,0.933-0.007,1.4
		c-0.877,0.148-1.757,0.264-2.645,0.326c-0.356,0.025-0.72,0.063-1.077,0.04C33.495,41.237,33.195,41.17,32.905,41.031z"/>
	<path style="fill:#1D1D1B;" d="M34.465,11.372c-0.131-0.861-1.101-1.414-1.924-1.207c-0.876,0.221-1.381,1.227-1.138,2.078
		c0.178,0.624,0.991,1.205,1.564,0.761C33.826,13.074,34.595,12.234,34.465,11.372z M32.88,12.432
		c-0.204-0.005-0.293,0.196-0.256,0.362c-0.401-0.018-0.718-0.563-0.714-0.941c0.005-0.487,0.306-1.011,0.81-1.116
		c0.435-0.09,0.979,0.16,1.128,0.598C34.063,11.966,33.449,12.447,32.88,12.432z"/>
</g>
<g>
</g>
<g>
</g>
<g>
</g>
<g>
</g>
<g>
</g>
<g>
</g>
<g>
</g>
<g>
</g>
<g>
</g>
<g>
</g>
<g>
</g>
<g>
</g>
<g>
</g>
<g>
</g>
<g>
</g>
</svg>
