<?xml version="1.0" encoding="iso-8859-1"?>
<!-- Generator: Adobe Illustrator 18.0.0, SVG Export Plug-In . SVG Version: 6.00 Build 0)  -->
<!DOCTYPE svg PUBLIC "-//W3C//DTD SVG 1.1//EN" "http://www.w3.org/Graphics/SVG/1.1/DTD/svg11.dtd">
<svg version="1.1" id="Capa_1" xmlns="http://www.w3.org/2000/svg" xmlns:xlink="http://www.w3.org/1999/xlink" x="0px" y="0px"
	 viewBox="0 0 48.963 48.963" style="enable-background:new 0 0 48.963 48.963;" xml:space="preserve">
<g>
	<path style="fill:#1D1D1B;" d="M48.741,36.233c-0.92-3.591-4.449-5.418-7.595-4.348c-1.908-4.376-4.969-8.063-7.148-12.302
		c-2.795-5.435-4.22-11.141-5.249-17.118c-0.007-0.042-0.032-0.069-0.061-0.089c0.017-0.11-0.009-0.225-0.137-0.258
		c-1.102-0.275-2.369-0.072-3.388,0.407c-0.112,0.053-0.089,0.184-0.012,0.251c-0.049-0.014-0.098-0.031-0.147-0.043
		c-0.127-0.031-0.184,0.11-0.112,0.196c-0.026,0.032-0.061,0.053-0.069,0.106C22.899,14.977,12.454,21.74,7.908,32.348
		c-1.042-0.832-2.134-1.396-3.866-0.747c-1.941,0.727-3.113,2.758-3.663,4.648c-1.453,4.989,1.379,10.15,6.718,10.677
		c4.921,0.485,9.963-3.146,10.376-8.21c0.314-3.854-2.963-7.43-6.505-6.556c3.46-4.051,6.807-8.236,10.214-12.336
		c2.547-3.066,4.676-6.265,5.767-10.114c0.223,3.62,1.752,6.289,3.665,9.395c2.681,4.353,5.097,8.85,7.43,13.396
		c-0.928-0.252-1.873-0.227-2.956,0.508c-1.615,1.096-2.549,3.029-2.745,4.928c-0.524,5.067,4.285,8.937,9.132,8.219
		C46.039,45.479,49.949,40.951,48.741,36.233z M25.284,2.814c0.975-0.264,1.856-0.299,2.824-0.246
		c-0.326,0.327-0.623,0.565-1.167,0.599c-0.58,0.036-1.119-0.188-1.665-0.353C25.279,2.813,25.281,2.815,25.284,2.814z
		 M16.198,35.144c1.109,2.027,0.765,4.743-0.32,6.684c-1.863,3.332-6.196,5.285-9.924,4.307c-4.369-1.146-6.169-5.585-5.025-9.734
		c0.268-0.973,0.763-2.099,1.496-2.842c0.476-0.804,1.235-1.173,2.276-1.107c1.426-0.893,2.666-0.622,3.72,0.813
		c0.771,0.56,1.2,1.021,2.148,1.314c0.108,0.033,0.184-0.136,0.079-0.186c-0.483-0.232-0.91-0.528-1.31-0.844
		C11.601,31.925,14.849,32.678,16.198,35.144z M38.782,32.58c-2.014-3.941-4.074-7.86-6.335-11.667
		c-2.315-3.9-4.481-7.152-5.243-11.735c-0.023-0.138-0.204-0.129-0.266-0.029c-0.145-0.114-0.397-0.098-0.462,0.134
		c-2.546,9.099-10.944,14.988-15.734,22.852c-0.017,0.027-0.013,0.054-0.003,0.078c-0.57,0.172-1.145,0.45-1.712,0.874
		c-0.049,0.037-0.076,0.082-0.094,0.13c-0.285-0.241-0.561-0.481-0.837-0.711c5.521-9.663,15.669-17.764,17.263-29.274
		c0.613,0.341,1.331,0.557,2.015,0.42c0.413-0.082,0.83-0.293,1.083-0.623c0.376,4.464,1.492,8.812,3.192,12.962
		c2.356,5.752,6.494,10.444,8.942,16.105c-0.466,0.213-0.919,0.494-1.349,0.846c-0.145-0.065-0.289-0.126-0.432-0.184
		C38.818,32.702,38.814,32.643,38.782,32.58z M48.107,39.779c-1.088,3.958-5.445,6.569-9.455,5.74
		c-3.319-0.686-5.962-3.717-5.813-7.153c0.139-3.207,2.282-6.081,6.099-5.1c0.044,0.011,0.086,0.032,0.13,0.045
		c0.063,0.124,0.229,0.203,0.378,0.13c0.655,0.258,1.275,0.631,1.984,0.799c0.218,0.052,0.306-0.269,0.093-0.336
		c-0.608-0.191-1.174-0.452-1.72-0.706c0.39-0.291,0.784-0.499,1.179-0.67c0.11,0.008,0.219-0.035,0.278-0.114
		C45.34,30.912,49.322,35.361,48.107,39.779z"/>
</g>
<g>
</g>
<g>
</g>
<g>
</g>
<g>
</g>
<g>
</g>
<g>
</g>
<g>
</g>
<g>
</g>
<g>
</g>
<g>
</g>
<g>
</g>
<g>
</g>
<g>
</g>
<g>
</g>
<g>
</g>
</svg>
