<?xml version="1.0" encoding="iso-8859-1"?>
<!-- Generator: Adobe Illustrator 18.0.0, SVG Export Plug-In . SVG Version: 6.00 Build 0)  -->
<!DOCTYPE svg PUBLIC "-//W3C//DTD SVG 1.1//EN" "http://www.w3.org/Graphics/SVG/1.1/DTD/svg11.dtd">
<svg version="1.1" id="Capa_1" xmlns="http://www.w3.org/2000/svg" xmlns:xlink="http://www.w3.org/1999/xlink" x="0px" y="0px"
	 viewBox="0 0 51.924 51.924" style="enable-background:new 0 0 51.924 51.924;" xml:space="preserve">
<g>
	<path style="fill:#1D1D1B;" d="M4.061,22.237c-0.5,0.14-0.87,0.317-1.399,0.13c-0.505-0.178-0.933-0.599-1.067-1.123
		c-0.038-0.15-0.289-0.124-0.276,0.037c0.053,0.693,0.471,1.202,1.111,1.466c0.556,0.229,1.424,0.272,1.814-0.273
		C4.328,22.357,4.189,22.202,4.061,22.237z"/>
	<path style="fill:#1D1D1B;" d="M51.904,30.708c-0.197-2.9-1.63-6.453-4.454-7.721c-1.982-0.89-4.111-0.414-5.43,1.234
		c-0.787-2.234-2.001-4.337-3.658-6.128c-0.02-0.021-0.042-0.031-0.063-0.045c0.041-0.084,0.017-0.18-0.031-0.262
		c0.917-0.567,1.33-1.737,0.941-2.767c-0.403-1.067-1.542-1.642-2.636-1.512c-0.943-3.454-4.32-5.432-7.987-5.452
		c0.248-1.431-1.553-2.933-2.888-2.2c-0.943,0.518-1.244,1.93-0.551,2.725c-3.139,0.986-5.607,3.304-6.568,6.532
		c-0.031-0.05-0.074-0.092-0.137-0.099c-1.257-0.135-2.405,0.849-2.53,2.105c-0.091,0.911,0.459,2.116,1.366,2.461
		c-2.835,4.434-3.688,10.115-2.623,15.105c-0.024-0.007-0.046-0.021-0.075-0.017c-5.018,0.736-6.528-4.474-8.668-7.802
		c-0.524-0.814-1.115-1.587-1.849-2.224c-1.083-0.94-3.501-1.58-3.356-3.401c0.001-0.009-0.007-0.011-0.007-0.02
		c1.872-0.878,3.975-0.306,5.21,1.431c0.368,0.517,0.597,1.134,0.925,1.675c0.478,0.787,1.029,1.643,1.876,2.089
		c2.42,1.274,3.674-1.399,5.964-1.631c0.351-0.035,0.358-0.586,0-0.555c-1.463,0.127-1.954,1.074-3.247,1.562
		c-3.636,1.372-4.232-2.761-5.798-4.349c-1.595-1.617-3.87-1.531-5.584-0.204c-0.128,0.1,0.037,0.308,0.172,0.224
		c0.014-0.009,0.029-0.013,0.044-0.022c-0.043,1.036,0.413,1.631,1.288,2.256c1.031,0.736,2.099,1.2,2.972,2.187
		c1.011,1.142,1.669,2.608,2.38,3.939c1.569,2.94,3.987,6.267,7.766,5.166c0.023-0.007,0.029-0.023,0.045-0.035
		c1.589,6.952,6.911,12.454,15.753,11.101c6.057-0.926,9.938-4.825,11.637-9.654c1.335,1.956,3.958,2.509,6.109,1.494
		C50.903,36.627,52.096,33.535,51.904,30.708z M25.946,6.392c0.486-0.251,1.061-0.075,1.452,0.268
		c0.439,0.385,0.544,0.863,0.628,1.406c-0.024,0.001-0.047,0-0.07,0.002c-0.815,0.045-1.604,0.174-2.36,0.376
		C25.025,7.866,25.213,6.77,25.946,6.392z M25.708,9.068c4.696-1.233,10.08,0.778,10.506,6.187c0.003,0.034,0.014,0.061,0.025,0.089
		c-0.003,0.001-0.006,0-0.009,0.001c-5.254,1.471-12.186,3.254-17.493,1.051C19.675,12.76,21.903,10.067,25.708,9.068z
		 M16.494,17.339c0.005-1.106,1.006-1.8,1.997-1.971c0.008-0.001,0.009-0.008,0.016-0.01c-0.096,0.354-0.179,0.715-0.238,1.09
		c-0.021,0.131,0.064,0.226,0.162,0.258c0.018,0.035,0.033,0.072,0.074,0.093c4.993,2.574,12.908,1.034,17.884-0.879
		c0.174-0.067,0.229-0.235,0.195-0.375c0.135-0.016,0.255-0.109,0.25-0.291c-0.012-0.404-0.064-0.786-0.133-1.16
		c0.817-0.067,1.664,0.355,1.952,1.159c0.31,0.864-0.099,1.811-0.803,2.346c-0.031,0.024-0.04,0.053-0.053,0.082
		c-5.239,2.507-14.371,4.198-19.986,1.551c0.002-0.108-0.111-0.176-0.211-0.124C17.012,18.648,16.49,18.209,16.494,17.339z
		 M42.017,35.021c-1.784,5.642-6.931,10.146-12.937,10.497c-14.595,0.852-16.992-15.764-11.461-25.863
		c0.029,0.004,0.056,0.016,0.086,0.018c0.033,0.002,0.061-0.013,0.089-0.027c2.767,1.55,6.187,1.275,9.302,1.134
		c3.762-0.17,7.356-0.864,10.768-2.466c-0.001,0.069,0.017,0.141,0.072,0.206C41.788,23.131,43.901,29.063,42.017,35.021z
		 M42.5,25.827c0.076,0.005,0.156-0.019,0.227-0.086c1.562-1.479,3.713-0.373,4.646,1.171c0.667,1.105,1.036,2.467,1.227,3.73
		c0.229,1.508,0.161,3.125-1.041,4.217c-1.513,1.375-3.405,0.776-4.949-0.198C43.281,31.814,43.244,28.749,42.5,25.827z
		 M42.296,35.837c0.084-0.268,0.148-0.543,0.219-0.817c1.381,1.023,3.154,1.795,4.794,0.843c1.83-1.063,2.205-3.343,1.922-5.265
		c-0.426-2.896-3.336-8.639-6.892-5.348c-0.055-0.189-0.099-0.381-0.16-0.569c1.887-2.306,5.01-1.649,6.817,0.333
		c1.344,1.474,2.159,3.717,2.263,5.693C51.516,35.62,46.295,40.424,42.296,35.837z"/>
</g>
<g>
</g>
<g>
</g>
<g>
</g>
<g>
</g>
<g>
</g>
<g>
</g>
<g>
</g>
<g>
</g>
<g>
</g>
<g>
</g>
<g>
</g>
<g>
</g>
<g>
</g>
<g>
</g>
<g>
</g>
</svg>
