<?xml version="1.0" encoding="iso-8859-1"?>
<!-- Generator: Adobe Illustrator 18.0.0, SVG Export Plug-In . SVG Version: 6.00 Build 0)  -->
<!DOCTYPE svg PUBLIC "-//W3C//DTD SVG 1.1//EN" "http://www.w3.org/Graphics/SVG/1.1/DTD/svg11.dtd">
<svg version="1.1" id="Capa_1" xmlns="http://www.w3.org/2000/svg" xmlns:xlink="http://www.w3.org/1999/xlink" x="0px" y="0px"
	 viewBox="0 0 60.774 60.774" style="enable-background:new 0 0 60.774 60.774;" xml:space="preserve">
<g>
	<path style="fill:#1D1D1B;" d="M60.312,11.631c-0.052-0.469-0.795-0.475-0.742,0c0.003,0.028,0.006,0.057,0.009,0.085
		c-0.018-0.003-0.033-0.01-0.053-0.01C40.451,11.9,21.47,11.937,2.396,11.532c0.031-0.099,0.055-0.197,0.087-0.296
		c0.081-0.249-0.326-0.43-0.431-0.181c-7.584,17.908,6.986,36.915,25.214,38.634c9.506,0.897,20.005-2.249,26.606-9.373
		C61.003,32.619,61.415,21.494,60.312,11.631z M57.491,12.472c0.001,0.012-0.002,0.022,0.001,0.034
		c4.248,17.436-8.677,34.81-26.863,34.747c-18.93-0.065-29.976-17.482-26.67-35.003c0.004-0.024-0.008-0.039-0.011-0.06
		C21.684,13.22,39.744,13.391,57.491,12.472z M55.167,37.511c-5.646,7.972-16.133,11.801-25.632,11.551
		C10.17,48.553-3.171,30.539,2.23,12.097c0.462,0.028,0.927,0.049,1.389,0.076c-5.493,17.622,9.108,35.601,27.009,35.69
		c18.652,0.093,31.597-17.613,27.424-35.418c0.49-0.026,0.983-0.043,1.473-0.071c0.045-0.003,0.082-0.015,0.118-0.03
		C60.53,20.888,60.313,30.245,55.167,37.511z"/>
	<path style="fill:#1D1D1B;" d="M9.625,17.046c-0.008-0.021-0.022-0.035-0.033-0.053c0.003-0.002,0.007-0.004,0.01-0.006
		c0.203-0.112,0.024-0.391-0.177-0.304c-0.739,0.319-1.633,0.684-1.94,1.504c-0.22,0.588-0.072,1.376,0.444,1.765
		c0.57,0.429,1.31,0.201,1.714-0.338C10.228,18.836,9.94,17.873,9.625,17.046z M9.251,19.11c-0.279,0.493-0.92,0.623-1.164,0.02
		c-0.318-0.786,0.35-1.409,1-1.833C9.299,17.857,9.567,18.55,9.251,19.11z"/>
	<path style="fill:#1D1D1B;" d="M10.803,15.794c-0.264,0.06-0.237,0.378-0.057,0.492c-0.054,0.359-0.094,0.594,0.05,0.948
		c0.149,0.366,0.401,0.676,0.713,0.916c0.605,0.466,1.403,0.639,2.122,0.351c0.115-0.046,0.198-0.133,0.2-0.263
		C13.854,16.681,12.315,15.448,10.803,15.794z M11.065,16.322c0-0.004-0.004-0.006-0.004-0.01c1.064-0.163,2.091,0.659,2.202,1.717
		C12.232,18.27,11.096,17.414,11.065,16.322z"/>
	<path style="fill:#1D1D1B;" d="M11.35,20.172c-0.056-0.047-0.117-0.059-0.176-0.056c-0.066-0.08-0.199-0.107-0.281,0.005
		c-0.457,0.624-0.915,1.428-0.607,2.217c0.206,0.528,0.755,0.977,1.347,0.867c0.575-0.107,0.884-0.694,0.877-1.239
		C12.502,21.194,11.895,20.635,11.35,20.172z M11.696,22.658c-0.57,0.325-1.024-0.455-1.022-0.91
		c0.002-0.425,0.18-0.815,0.377-1.185c0.292,0.249,0.595,0.507,0.792,0.841C12.052,21.761,12.134,22.408,11.696,22.658z"/>
	<path style="fill:#1D1D1B;" d="M28.257,16.659c-0.834,0.111-1.737,0.282-2.294,0.976c-0.44,0.547-0.585,1.395-0.041,1.927
		c0.4,0.391,1.114,0.529,1.558,0.131c0.275-0.246,0.349-0.621,0.419-0.966c0.115-0.572,0.309-1.186,0.252-1.771
		c0.046-0.014,0.095-0.028,0.14-0.042C28.425,16.875,28.408,16.639,28.257,16.659z M27.387,18.587
		c-0.105,0.517-0.406,1.115-1.007,0.668c-0.544-0.405-0.201-1.19,0.191-1.565c0.32-0.306,0.747-0.474,1.176-0.609
		C27.55,17.554,27.488,18.088,27.387,18.587z"/>
	<path style="fill:#1D1D1B;" d="M31.394,17.799c-0.323-0.783-1.154-1.085-1.921-1.282c0.004-0.02,0.008-0.042,0.012-0.062
		c0.044-0.211-0.267-0.301-0.325-0.09c-0.011,0.039-0.021,0.08-0.032,0.12c-0.176,0.057-0.233,0.277-0.101,0.403
		c-0.166,0.717-0.239,1.507,0.246,2.097c0.392,0.478,1.131,0.776,1.706,0.443C31.548,19.097,31.626,18.361,31.394,17.799z
		 M30.728,18.999c-0.434,0.252-1-0.121-1.217-0.5c-0.248-0.435-0.219-0.969-0.135-1.473c0.435,0.111,0.88,0.245,1.221,0.539
		C30.962,17.88,31.284,18.676,30.728,18.999z"/>
	<path style="fill:#1D1D1B;" d="M54.655,15.524c-0.179-0.186-0.426,0.049-0.334,0.258c0.207,0.467,0.554,0.869,0.655,1.384
		c0.136,0.691-0.415,1.79-1.227,1.129c-1.087-0.885,0.125-2.237,0.768-2.937c0.164-0.179-0.085-0.427-0.266-0.266
		c-0.652,0.579-1.41,1.331-1.43,2.27c-0.015,0.683,0.445,1.479,1.151,1.63c0.712,0.153,1.313-0.39,1.491-1.048
		C55.693,17.091,55.237,16.128,54.655,15.524z"/>
	<path style="fill:#1D1D1B;" d="M50.992,15.788c0.008-0.102-0.066-0.214-0.199-0.187c-0.837,0.168-1.893,0.404-2.346,1.22
		c-0.327,0.59-0.202,1.487,0.355,1.899c0.507,0.376,1.186,0.194,1.534-0.301c0.47-0.67,0.494-1.606,0.784-2.357
		C51.167,15.939,51.093,15.838,50.992,15.788z M49.342,18.404c-0.698-0.106-0.64-1.12-0.312-1.535
		c0.39-0.495,1.002-0.703,1.595-0.869C50.372,16.701,50.229,18.539,49.342,18.404z"/>
	<path style="fill:#1D1D1B;" d="M47.129,27.441c-0.769-0.849-1.963-0.532-2.893-0.188c-0.038,0.014-0.05,0.045-0.074,0.069
		c-0.079-0.198-0.152-0.393-0.211-0.566c-0.058-0.17-0.317-0.102-0.271,0.075c0.23,0.881,0.494,1.888,1.293,2.43
		c0.603,0.41,1.5,0.383,2.065-0.096C47.569,28.713,47.598,27.958,47.129,27.441z M46.226,29.027
		c-0.929,0.214-1.506-0.513-1.886-1.302c0.01-0.002,0.016,0.006,0.026,0.002c0.679-0.246,1.529-0.582,2.197-0.129
		C47.273,28.079,46.95,28.861,46.226,29.027z"/>
	<path style="fill:#1D1D1B;" d="M43.198,28.237c-0.035-0.195-0.366-0.152-0.349,0.047c0.011,0.126,0.034,0.285,0.06,0.456
		c-0.039-0.013-0.077-0.029-0.128-0.014c-0.869,0.253-1.784,0.844-1.931,1.815c-0.104,0.684,0.297,1.386,0.927,1.666
		c0.668,0.297,1.345-0.054,1.617-0.701C43.803,30.534,43.37,29.214,43.198,28.237z M42.629,31.613
		c-0.706,0.498-1.413-0.445-1.228-1.136c0.183-0.685,0.882-1.09,1.5-1.313c0.031-0.011,0.041-0.037,0.063-0.056
		C43.099,30.02,43.227,31.19,42.629,31.613z"/>
	<path style="fill:#1D1D1B;" d="M27.131,38.067c0.05-0.153-0.047-0.255-0.166-0.283c0.013-0.018,0.024-0.036,0.037-0.054
		c0.137-0.189-0.175-0.432-0.326-0.251c-0.715,0.856-3.367,4.173-1.317,5.061c0.726,0.314,1.375-0.24,1.668-0.875
		C27.571,40.488,26.74,39.264,27.131,38.067z M26.687,41.014c-0.041,0.208-0.116,0.404-0.225,0.587
		c-0.136,0.349-0.373,0.409-0.71,0.179c-0.402,0.062-0.578-0.084-0.527-0.44c-0.001-0.2,0.025-0.396,0.078-0.588
		c0.086-0.351,0.254-0.674,0.42-0.993c0.247-0.472,0.53-0.923,0.825-1.365c-0.062,0.361-0.046,0.713,0.006,1.109
		C26.62,40.002,26.78,40.509,26.687,41.014z"/>
	<path style="fill:#1D1D1B;" d="M30.086,39.96c-0.455-0.78-1.219-1.304-2.097-1.478c-0.01-0.168-0.033-0.334-0.031-0.504
		c0.003-0.227-0.34-0.225-0.352,0c-0.058,1.137,0.143,2.395,0.783,3.364c0.337,0.511,1.123,1.179,1.755,0.727
		C30.792,41.605,30.401,40.501,30.086,39.96z M29.63,41.299c-0.2,0.38-0.41,0.408-0.628,0.084c-0.141-0.149-0.257-0.315-0.347-0.499
		c-0.166-0.282-0.293-0.593-0.399-0.902c-0.112-0.326-0.188-0.658-0.236-0.994c0.477,0.117,0.909,0.335,1.259,0.697
		c0.174,0.18,0.327,0.384,0.447,0.603c0.088,0.161,0.157,0.33,0.205,0.506C30.049,41.032,29.948,41.2,29.63,41.299z"/>
	<path style="fill:#1D1D1B;" d="M25.174,26.932c-0.903,0.224-1.666,0.832-2.054,1.685c-0.294,0.646-0.496,1.722,0.055,2.302
		c0.492,0.518,1.2,0.227,1.6-0.249c0.81-0.965,0.057-2.184,0.33-3.283c0.008-0.032-0.008-0.052-0.012-0.08
		c0.056-0.023,0.106-0.054,0.164-0.074C25.445,27.168,25.371,26.883,25.174,26.932z M24.632,28.968
		c0.042,0.381,0.101,0.771-0.082,1.129c-0.183,0.356-0.673,0.836-1.043,0.388c-0.395-0.477-0.023-1.518,0.229-1.969
		c0.216-0.388,0.51-0.695,0.859-0.935C24.516,28.041,24.578,28.485,24.632,28.968z"/>
	<path style="fill:#1D1D1B;" d="M26.443,27.252c-0.036-0.242-0.406-0.207-0.458-0.001c-0.053-0.151-0.327-0.111-0.314,0.066
		c0.077,1.066-0.342,2.486,0.525,3.332c0.499,0.488,1.442,0.789,1.988,0.208C29.41,29.555,26.612,28.389,26.443,27.252z
		 M27.578,30.668c-0.396,0.111-0.866-0.163-1.111-0.45c-0.563-0.661-0.393-1.791-0.444-2.666c0.279,1.01,1.371,1.361,1.848,2.257
		C28.044,30.131,27.99,30.552,27.578,30.668z"/>
	<path style="fill:#1D1D1B;" d="M12.664,31.361c-0.019-0.174-0.179-0.235-0.307-0.199c0.031-0.128-0.052-0.279-0.218-0.229
		c-0.759,0.23-1.63,0.518-2.039,1.26c-0.303,0.55-0.283,1.347,0.215,1.78c0.516,0.449,1.267,0.277,1.741-0.145
		C12.737,33.223,12.757,32.2,12.664,31.361z M12.051,32.992c-0.212,0.506-1.048,1.115-1.49,0.474
		c-0.27-0.392-0.097-0.991,0.196-1.317c0.379-0.422,0.951-0.639,1.468-0.839c-0.005,0.02-0.021,0.029-0.021,0.052
		C12.209,31.911,12.269,32.471,12.051,32.992z"/>
	<path style="fill:#1D1D1B;" d="M13.702,32.212c-0.101-0.091-0.217-0.069-0.306-0.009c0.069-0.168,0.126-0.34,0.213-0.502
		c0.113-0.21-0.188-0.384-0.319-0.186c-0.599,0.905-0.878,1.968-0.705,3.051c0.11,0.688,0.472,1.451,1.293,1.325
		c0.622-0.095,1.139-0.691,1.209-1.306C15.199,33.604,14.356,32.801,13.702,32.212z M14.544,34.7
		c-0.072,0.236-0.504,0.778-0.835,0.693c-0.45-0.115-0.604-0.778-0.641-1.148c-0.025-0.25-0.026-0.503-0.007-0.753
		c0.028-0.364,0.116-0.712,0.233-1.051c0.01,0.042,0.013,0.085,0.055,0.122c0.371,0.337,0.764,0.689,1.014,1.13
		C14.528,33.988,14.646,34.365,14.544,34.7z"/>
	<path style="fill:#1D1D1B;" d="M52.752,26.541c-0.238-0.832-1.076-1.261-1.8-1.601c-0.056-0.026-0.107-0.016-0.157-0.007
		c-0.086-0.04-0.2-0.022-0.242,0.097c-0.286,0.815-0.584,1.814-0.02,2.583c0.375,0.511,1.098,0.844,1.696,0.507
		C52.773,27.812,52.913,27.105,52.752,26.541z M52.121,27.554c-0.465,0.513-1.18-0.07-1.355-0.549
		c-0.181-0.494-0.08-1.045,0.044-1.556c0.403,0.188,0.821,0.386,1.129,0.711C52.265,26.504,52.489,27.148,52.121,27.554z"/>
	<path style="fill:#1D1D1B;" d="M39.257,19.348c-0.098-0.108-0.225-0.082-0.305-0.003c0.055-0.193-0.207-0.343-0.322-0.15
		c-0.563,0.943-0.99,2.194-0.731,3.304c0.156,0.665,0.675,1.138,1.386,0.983c0.639-0.139,1.189-0.704,1.299-1.348
		C40.772,21.047,39.93,20.087,39.257,19.348z M39.307,22.964c-1.608,0.495-0.778-2.576-0.421-3.443
		c0.001,0.049,0.009,0.101,0.051,0.147C39.609,20.42,41.037,22.432,39.307,22.964z"/>
	<path style="fill:#1D1D1B;" d="M40.778,39.85c-0.174-0.945-1.081-1.542-1.829-2.02c-0.098-0.063-0.184-0.028-0.248,0.034
		c-0.016-0.081-0.027-0.161-0.053-0.244c-0.059-0.191-0.341-0.112-0.298,0.082c0.237,1.087-0.466,2.249,0.117,3.287
		c0.314,0.558,0.967,0.867,1.565,0.543C40.603,41.223,40.894,40.475,40.778,39.85z M39.295,41.09
		c-0.674-0.26-0.635-1.151-0.583-1.751c0.033-0.38,0.064-0.734,0.042-1.091c0.509,0.328,1.061,0.68,1.374,1.214
		C40.49,40.079,40.261,41.463,39.295,41.09z"/>
</g>
<g>
</g>
<g>
</g>
<g>
</g>
<g>
</g>
<g>
</g>
<g>
</g>
<g>
</g>
<g>
</g>
<g>
</g>
<g>
</g>
<g>
</g>
<g>
</g>
<g>
</g>
<g>
</g>
<g>
</g>
</svg>
