<?xml version="1.0" encoding="iso-8859-1"?>
<!-- Generator: Adobe Illustrator 18.0.0, SVG Export Plug-In . SVG Version: 6.00 Build 0)  -->
<!DOCTYPE svg PUBLIC "-//W3C//DTD SVG 1.1//EN" "http://www.w3.org/Graphics/SVG/1.1/DTD/svg11.dtd">
<svg version="1.1" id="Capa_1" xmlns="http://www.w3.org/2000/svg" xmlns:xlink="http://www.w3.org/1999/xlink" x="0px" y="0px"
	 viewBox="0 0 39.375 39.375" style="enable-background:new 0 0 39.375 39.375;" xml:space="preserve">
<g>
	<path style="fill:#1D1D1B;" d="M33.248,4.08c0.076-0.059,0.124-0.153,0.091-0.261c-1.341-4.485-10.931-3.796-14.426-3.761
		C15.663,0.09,6.283-0.546,6.148,4.301C6.051,4.288,5.945,4.392,6.012,4.492c0.041,0.062,0.095,0.114,0.14,0.173
		c0,0.007,0,0.013,0,0.02c0.004,0.052,0.032,0.078,0.066,0.093c-0.347,4.235,0.34,8.398,1.907,12.38
		c1.087,2.761,2.578,5.343,3.42,8.201c1.027,3.486,1.04,7.208,1.113,10.813c0.002,0.104,0.044,0.183,0.106,0.235
		c-0.007,0.033-0.007,0.069,0.009,0.103c1.166,2.423,5.246,2.935,7.633,2.856c2.626-0.086,5.327-0.865,6.648-3.298
		c0.086-0.159,0.027-0.306-0.08-0.396c-0.188-3.044-0.37-6.159,0.514-9.122c0.801-2.686,2.451-5.066,3.518-7.647
		C32.964,14.175,33.72,9.159,33.248,4.08z M6.616,3.971C9.1-1.237,30.465-0.515,32.784,3.884c-0.038,0.005-0.077,0.009-0.113,0.041
		c-3.648,3.258-8.663,3.087-13.242,3.163c-3.582,0.059-9.77,0.235-12.787-2.384C6.635,4.458,6.617,4.221,6.616,3.971z M28.186,23.21
		c-1.986,4.191-2.138,8.056-1.852,12.637c0.002,0.036,0.015,0.066,0.026,0.096c-2.461,3.82-10.188,3.596-13.217,0.504
		c0.095-0.047,0.167-0.135,0.165-0.274c-0.055-4.589-0.251-9.082-1.953-13.403C8.949,16.663,6.935,11.675,6.66,5.215
		c2.682,2.547,8.704,2.447,11.931,2.447c4.741,0,10.701,0.336,14.242-3.327C32.866,11.309,31.171,16.912,28.186,23.21z"/>
</g>
<g>
</g>
<g>
</g>
<g>
</g>
<g>
</g>
<g>
</g>
<g>
</g>
<g>
</g>
<g>
</g>
<g>
</g>
<g>
</g>
<g>
</g>
<g>
</g>
<g>
</g>
<g>
</g>
<g>
</g>
</svg>
