<?xml version="1.0" encoding="iso-8859-1"?>
<!-- Generator: Adobe Illustrator 18.0.0, SVG Export Plug-In . SVG Version: 6.00 Build 0)  -->
<!DOCTYPE svg PUBLIC "-//W3C//DTD SVG 1.1//EN" "http://www.w3.org/Graphics/SVG/1.1/DTD/svg11.dtd">
<svg version="1.1" id="Capa_1" xmlns="http://www.w3.org/2000/svg" xmlns:xlink="http://www.w3.org/1999/xlink" x="0px" y="0px"
	 viewBox="0 0 50.549 50.549" style="enable-background:new 0 0 50.549 50.549;" xml:space="preserve">
<g>
	<path style="fill:#1D1D1B;" d="M40.293,18.45c0.383-1.03,0.257-2.322,0.034-3.493c-0.588-3.096-1.351-7.639-3.931-9.787
		c-0.036-0.03-0.074-0.048-0.113-0.058c0.205-2.314-0.965-3.847-2.957-4.955c-0.061-0.034-0.113-0.025-0.158-0.001
		c-1.459-0.632-3.009,0.77-3.657,2.373c-0.294,0.728-0.479,1.516-0.61,2.323c-0.046-0.037-0.103-0.064-0.18-0.062
		c-3.734,0.07-7.472,0.164-11.203,0.359c-1.577,0.082-3.124-0.008-3.744,1.381c-0.065,0.015-0.126,0.049-0.158,0.125
		c-1.513,3.623-3.178,8.094-3.635,12.013c-0.07,0.603-0.013,1.231,0.197,1.715c0.037,0.905,0.386,1.997,1.109,2.445
		c0.049,0.03,0.108,0.022,0.161,0.001c0.005,0,0.006,0.004,0.01,0.004c0.589,0.013,1.182,0.015,1.773,0.021
		c-0.42,8.038,0.105,16.197,0.335,24.239c0.008,0.266,0.281,0.353,0.464,0.266c2.342,2.866,7.058,3.047,10.523,3.173
		c4.738,0.172,9.281-0.842,13.32-3.346c0.229-0.142,0.195-0.41,0.048-0.555c0.002-0.014,0.014-0.02,0.014-0.035
		c-0.058-8.364,0.216-16.69,0.263-25.045C39.815,21.176,41.24,20.352,40.293,18.45z M35.49,6.294
		c-0.257,1.047-0.849,2.114-1.248,3.11c-0.852,2.129-1.531,4.295-2.092,6.517c-0.017,0.068-0.006,0.126,0.018,0.177
		c-0.284,0.164-0.577,0.32-0.886,0.457c0.739-2.044,1.427-4.107,2.124-6.166c0.66-1.951,1.688-4.04,1.808-6.119
		c0.063-1.087-0.193-2.034-0.759-2.75C35.63,2.668,36.062,3.962,35.49,6.294z M34.792,11.661c0.166,0.147,0.293,0.325,0.438,0.486
		c-0.355,1.523-1.231,2.696-2.445,3.557c0.395-1.495,0.851-2.971,1.358-4.43C34.375,11.377,34.595,11.487,34.792,11.661z
		 M28.939,10.267c0.109-1.18,0.204-2.366,0.34-3.543c0.095-1.081,0.268-2.149,0.52-3.203c0.219-1.887,1.406-2.656,3.538-2.337
		c3.173,2.65-1.737,12.618-2.697,15.643c-0.76,0.276-1.579,0.481-2.434,0.614C28.554,15.061,28.718,12.661,28.939,10.267z
		 M27.905,17.489c-5.113,0.69-11.362-1.043-13.777-4.239C13.716,9.115,26.28,9.686,28.34,9.668c0.033,0,0.047-0.022,0.074-0.03
		C28.165,12.248,27.92,14.868,27.905,17.489z M14.189,47.115c0-0.008,0.004-0.014,0.004-0.023c-0.019-1.281-0.03-2.567-0.04-3.854
		c3.026,2.538,6.518,3.138,10.46,3.194c4.342,0.061,8.899,0.096,12.602-2.396c0.07,0.859,0.145,1.714,0.234,2.558
		c0.001,0.009,0.009,0.012,0.01,0.02C30.941,50.357,20.725,51.56,14.189,47.115z M37.166,43.427
		c-0.015,0.006-0.03,0.007-0.045,0.017c-6.044,3.651-17.143,3.564-22.97-0.571c-0.047-6.654-0.044-13.361-0.672-19.96
		c6.392,4.588,17.535,2.9,24.205-0.046c0.004-0.002,0.006-0.005,0.01-0.007C36.743,29.534,36.654,36.657,37.166,43.427z
		 M37.755,22.422c-0.089-0.101-0.231-0.161-0.385-0.093c-6.52,2.849-16.708,4.194-23.315,0.522
		c7.413,0.036,14.961-0.45,22.315-1.035c0.457-0.036,0.979-0.096,1.497-0.196C37.824,21.884,37.794,22.156,37.755,22.422z
		 M25.634,21.846c-4.699,0.237-9.426,0.295-14.112,0.7c-0.172-0.371-0.443-0.686-0.614-1.063c-0.061-0.134-0.093-0.276-0.138-0.415
		c0.147,0.083,0.307,0.145,0.497,0.157c0.023,0.087,0.08,0.166,0.198,0.172c9,0.444,18.135-0.098,27.086-1.059
		C35.161,21.796,26.609,21.797,25.634,21.846z M38.552,19.717c-8.82,0.831-17.57,1.06-26.415,1.214
		c-0.014-0.046-0.049-0.086-0.114-0.089c-2.568-0.141-0.184-6.767,0.085-7.751c0.554-2.025,1.173-4.033,1.821-6.029
		c1.279-2.003,6.113-1.431,8.069-1.497c2.24-0.075,4.481-0.128,6.723-0.174c0.039-0.001,0.072-0.011,0.103-0.023
		c-0.139,1.035-0.204,2.087-0.296,3.071c-0.024,0.249-0.047,0.499-0.071,0.748c-0.036-0.023-0.066-0.055-0.117-0.06
		c-2.804-0.286-14.226-0.93-14.695,3.75c-0.081,0.045-0.132,0.143-0.076,0.253c3.262,6.465,21.422,8.084,22.222-1.047
		c0.009-0.099-0.048-0.161-0.119-0.203c-0.182-0.551-0.836-0.925-1.408-0.957c0.1-0.28,0.184-0.564,0.29-0.842
		c0.527-1.385,1.347-2.837,1.642-4.32C38.689,8.225,41.495,17.285,38.552,19.717z"/>
</g>
<g>
</g>
<g>
</g>
<g>
</g>
<g>
</g>
<g>
</g>
<g>
</g>
<g>
</g>
<g>
</g>
<g>
</g>
<g>
</g>
<g>
</g>
<g>
</g>
<g>
</g>
<g>
</g>
<g>
</g>
</svg>
